<svg width="412" height="172" viewBox="0 0 412 172" fill="none" xmlns="http://www.w3.org/2000/svg">
<path d="M86.8062 149H60.0676V122.931H0V101.774L49.8995 23H86.8062V99.3178H103V122.931H86.8062V149ZM60.0676 99.3178V46.8021L26.1737 99.3178H60.0676Z" fill="#3A3430"/>
<path d="M119.5 86C119.5 36.1868 156.162 0.5 206.386 0.5C256.839 0.5 293.5 36.1876 293.5 86C293.5 135.812 256.839 171.5 206.364 171.5C156.183 171.5 119.5 135.813 119.5 86ZM257.866 86C257.866 70.3175 252.806 56.5445 243.824 46.6864C234.837 36.824 221.951 30.9098 206.364 30.9098C190.778 30.9098 177.966 36.8243 169.055 46.688C160.149 56.5467 155.167 70.3195 155.167 86C155.167 101.558 160.16 115.33 169.074 125.219C177.992 135.113 190.809 141.09 206.386 141.09C221.963 141.09 234.844 135.113 243.827 125.22C252.806 115.332 257.866 101.559 257.866 86Z" stroke="#3A3430"/>
<path d="M395.963 149H369.484V122.931H310V101.774L359.415 23H395.963V99.3178H412V122.931H395.963V149ZM369.484 99.3178V46.8021L335.92 99.3178H369.484Z" fill="#3A3430"/>
</svg>
