<svg width="64" height="64" viewBox="0 0 64 64" fill="none" xmlns="http://www.w3.org/2000/svg">
<mask id="mask0_515_110" style="mask-type:luminance" maskUnits="userSpaceOnUse" x="0" y="0" width="64" height="64">
<path d="M0 64H64V0H0V64Z" fill="white"/>
</mask>
<g mask="url(#mask0_515_110)">
<path fill-rule="evenodd" clip-rule="evenodd" d="M55.2499 8.30835C55.839 8.30835 56.3166 8.78591 56.3166 9.37502V25.1264C56.3166 25.7155 55.839 26.1931 55.2499 26.1931C54.6608 26.1931 54.1832 25.7155 54.1832 25.1264V9.37502C54.1832 8.78591 54.6608 8.30835 55.2499 8.30835ZM55.25 45.9025C55.8391 45.9025 56.3167 46.38 56.3167 46.9691V57.7503C56.3167 61.09 53.5913 63.8382 50.2317 63.8169H6.24977C5.66067 63.8169 5.18311 63.3394 5.18311 62.7503C5.18311 62.1612 5.66067 61.6836 6.24977 61.6836H50.2349L50.2424 61.6836C52.4068 61.6988 54.1834 59.9206 54.1834 57.7503V46.9691C54.1834 46.38 54.6609 45.9025 55.25 45.9025Z" fill="#736D6A"/>
<path fill-rule="evenodd" clip-rule="evenodd" d="M10.1831 6.25002C10.1831 2.89956 12.8992 0.18335 16.2498 0.18335H57.7499C61.1005 0.18335 63.8166 2.89956 63.8166 6.25002V8.75002C63.8166 9.33912 63.339 9.81668 62.7499 9.81668H21.2498C20.6607 9.81668 20.1831 9.33912 20.1831 8.75002V6.25002C20.1831 4.07775 18.422 2.31668 16.2498 2.31668C14.0774 2.31668 12.3164 4.07773 12.3164 6.25002V57.7501C12.3164 61.1007 9.60038 63.8168 6.24977 63.8168C2.89931 63.8168 0.183105 61.1008 0.183105 57.7501V55.2503C0.183105 54.6612 0.660668 54.1836 1.24977 54.1836H10.1831V6.25002ZM10.1831 56.3169H2.31644V57.7501C2.31644 59.9225 4.07748 61.6835 6.24977 61.6835C8.42217 61.6835 10.1831 59.9225 10.1831 57.7501V56.3169ZM20.8687 2.31668C21.7715 3.37581 22.3164 4.74929 22.3164 6.25002V7.68335H61.6832V6.25002C61.6832 4.07773 59.9223 2.31668 57.7499 2.31668H20.8687Z" fill="#736D6A"/>
<path fill-rule="evenodd" clip-rule="evenodd" d="M17.8706 13.75C17.8706 13.1609 18.3482 12.6833 18.9373 12.6833H28.9373C29.5264 12.6833 30.0039 13.1609 30.0039 13.75V23.75C30.0039 24.3391 29.5264 24.8167 28.9373 24.8167H18.9373C18.3482 24.8167 17.8706 24.3391 17.8706 23.75V13.75ZM20.0039 14.8167V22.6833H27.8706V14.8167H20.0039Z" fill="#736D6A"/>
<path fill-rule="evenodd" clip-rule="evenodd" d="M22.8706 18.75C22.8706 18.1609 23.3482 17.6833 23.9373 17.6833C25.6129 17.6833 26.5371 18.7371 27.1459 19.4312C27.164 19.4518 27.1818 19.4721 27.1993 19.492C27.8631 20.247 28.2062 20.5761 28.8591 20.5761C29.5122 20.5761 29.8554 20.2469 30.5192 19.492C30.5367 19.4721 30.5545 19.4518 30.5726 19.4312C31.1814 18.7371 32.1057 17.6833 33.7811 17.6833C35.4567 17.6833 36.381 18.7371 36.9898 19.4312C37.0079 19.4518 37.0257 19.4721 37.0432 19.492C37.707 20.2469 38.0501 20.5761 38.7031 20.5761C39.3561 20.5761 39.6992 20.247 40.363 19.492C40.3806 19.4721 40.3984 19.4518 40.4164 19.4312C41.0253 18.7371 41.9495 17.6833 43.625 17.6833C44.2141 17.6833 44.6917 18.1609 44.6917 18.75C44.6917 19.3391 44.2141 19.8167 43.625 19.8167C42.972 19.8167 42.6289 20.1458 41.9651 20.9007C41.9476 20.9207 41.9298 20.941 41.9117 20.9616C41.3029 21.6557 40.3787 22.7094 38.7031 22.7094C37.0276 22.7094 36.1033 21.6557 35.4945 20.9616C35.4764 20.941 35.4586 20.9207 35.4411 20.9007C34.7773 20.1458 34.4342 19.8167 33.7811 19.8167C33.1281 19.8167 32.7851 20.1458 32.1212 20.9008C32.1037 20.9207 32.0859 20.941 32.0678 20.9616C31.459 21.6557 30.5347 22.7094 28.8591 22.7094C27.1836 22.7094 26.2594 21.6557 25.6506 20.9616C25.6325 20.941 25.6147 20.9207 25.5972 20.9007C24.9334 20.1458 24.5903 19.8167 23.9373 19.8167C23.3482 19.8167 22.8706 19.3391 22.8706 18.75Z" fill="#736D6A"/>
<path fill-rule="evenodd" clip-rule="evenodd" d="M26.5581 55.2503C26.5581 54.6612 27.0357 54.1836 27.6248 54.1836H38.8748C39.4639 54.1836 39.9414 54.6612 39.9414 55.2503C39.9414 55.8394 39.4639 56.3169 38.8748 56.3169H27.6248C27.0357 56.3169 26.5581 55.8394 26.5581 55.2503Z" fill="#736D6A"/>
<path fill-rule="evenodd" clip-rule="evenodd" d="M17.8706 47.7503C17.8706 47.1612 18.3482 46.6836 18.9373 46.6836H47.5628C48.1519 46.6836 48.6294 47.1612 48.6294 47.7503C48.6294 48.3394 48.1519 48.8169 47.5628 48.8169H18.9373C18.3482 48.8169 17.8706 48.3394 17.8706 47.7503Z" fill="#736D6A"/>
<path fill-rule="evenodd" clip-rule="evenodd" d="M17.8706 42.7503C17.8706 42.1612 18.3482 41.6836 18.9373 41.6836H47.5628C48.1519 41.6836 48.6294 42.1612 48.6294 42.7503C48.6294 43.3394 48.1519 43.8169 47.5628 43.8169H18.9373C18.3482 43.8169 17.8706 43.3394 17.8706 42.7503Z" fill="#736D6A"/>
<path fill-rule="evenodd" clip-rule="evenodd" d="M17.8706 37.7503C17.8706 37.1612 18.3482 36.6836 18.9373 36.6836H47.5628C48.1519 36.6836 48.6294 37.1612 48.6294 37.7503C48.6294 38.3394 48.1519 38.8169 47.5628 38.8169H18.9373C18.3482 38.8169 17.8706 38.3394 17.8706 37.7503Z" fill="#736D6A"/>
<path fill-rule="evenodd" clip-rule="evenodd" d="M17.8706 32.7503C17.8706 32.1612 18.3482 31.6836 18.9373 31.6836H33.25C33.8391 31.6836 34.3167 32.1612 34.3167 32.7503C34.3167 33.3394 33.8391 33.8169 33.25 33.8169H18.9373C18.3482 33.8169 17.8706 33.3394 17.8706 32.7503Z" fill="#736D6A"/>
<path fill-rule="evenodd" clip-rule="evenodd" d="M50.3433 17.7197C50.7336 17.6152 51.1494 17.7401 51.4175 18.0424L55.5899 22.7477C55.6997 22.8716 55.7792 23.0194 55.8221 23.1794L63.6838 52.5194C64.2385 54.5889 63.0104 56.716 60.9408 57.2705L60.6648 56.2402L60.9409 57.2705C60.9408 57.2705 60.9408 57.2705 60.9408 57.2705C58.8715 57.825 56.7445 56.5969 56.1899 54.5276L56.1898 54.5275L48.3283 25.1874C48.2855 25.0274 48.2805 24.8597 48.3136 24.6975L49.5744 18.5362C49.6554 18.1404 49.9531 17.8243 50.3433 17.7197ZM51.2367 21.054L50.4541 24.8785L58.2505 53.9753C58.2505 53.9753 58.2505 53.9753 58.2505 53.9754C58.5001 54.9067 59.4575 55.4594 60.3887 55.2099L60.3887 55.2098C61.3202 54.9603 61.8728 54.003 61.6232 53.0717L61.6232 53.0716L53.8266 23.9747L51.2367 21.054Z" fill="#736D6A"/>
</g>
</svg>
