<svg width="64" height="64" viewBox="0 0 64 64" fill="none" xmlns="http://www.w3.org/2000/svg">
<path d="M60.431 48.4L58.987 47.944C59.4857 47.5525 59.8766 47.0407 60.1233 46.4566C60.3699 45.8726 60.4641 45.2354 60.397 44.605L59.479 35.882C59.2581 33.7872 58.2696 31.8482 56.704 30.439C55.1384 29.0298 53.1065 28.25 51 28.25C48.8936 28.25 46.8617 29.0298 45.2961 30.439C43.7304 31.8482 42.7419 33.7872 42.521 35.882L41.6 44.607C41.5456 45.1295 41.6014 45.6575 41.7639 46.157C41.9263 46.6566 42.1917 47.1165 42.543 47.507C42.6865 47.6663 42.8445 47.8119 43.015 47.942L41.57 48.4C40.8661 48.6202 40.2235 49.002 39.6935 49.5149C39.1636 50.0278 38.761 50.6577 38.518 51.354L34.75 50.412V49.869C35.3682 49.4303 35.8724 48.85 36.2204 48.1765C36.5683 47.5031 36.75 46.756 36.75 45.998V42.238C37.342 41.8594 37.7954 41.2991 38.0422 40.6411C38.2889 39.9831 38.3157 39.2628 38.1186 38.5883C37.9214 37.9138 37.511 37.3213 36.9487 36.8998C36.3865 36.4782 35.7028 36.2502 35 36.25H31C30.0059 36.2513 29.0528 36.6468 28.3498 37.3498C27.6469 38.0528 27.2513 39.0058 27.25 40V46C27.2501 46.758 27.4317 47.5051 27.7797 48.1785C28.1276 48.852 28.6318 49.4323 29.25 49.871V50.414L25.482 51.356C25.2394 50.6594 24.8371 50.0292 24.3073 49.516C23.7775 49.0027 23.1349 48.6205 22.431 48.4L16.25 46.451V45.741C17.0206 45.2134 17.6509 44.5059 18.0865 43.6798C18.5222 42.8537 18.7499 41.9339 18.75 41V35.776C19.2249 35.4358 19.6411 35.0203 19.982 34.546C20.4782 33.8657 20.8035 33.0759 20.9303 32.2435C21.0572 31.411 20.982 30.5603 20.711 29.763C20.6613 29.6137 20.5659 29.4839 20.4383 29.3918C20.3107 29.2997 20.1574 29.2501 20 29.25H12C10.7407 29.2516 9.53347 29.7525 8.64302 30.643C7.75256 31.5334 7.25161 32.7407 7.25002 34V41C7.25016 41.9339 7.47788 42.8537 7.91349 43.6798C8.3491 44.5059 8.97946 45.2134 9.75002 45.741V46.451L3.57002 48.4C2.60542 48.7016 1.76271 49.304 1.16529 50.1192C0.567867 50.9344 0.247121 51.9194 0.250019 52.93V62C0.250019 62.1989 0.329037 62.3897 0.469689 62.5303C0.610342 62.671 0.801107 62.75 1.00002 62.75H63C63.1989 62.75 63.3897 62.671 63.5303 62.5303C63.671 62.3897 63.75 62.1989 63.75 62V52.932C63.7533 51.9212 63.4328 50.9359 62.8356 50.1204C62.2383 49.3049 61.3957 48.702 60.431 48.4ZM43.1 44.764L44.018 36.04C44.2006 34.3142 45.0154 32.7171 46.3055 31.5563C47.5956 30.3955 49.2696 29.7533 51.005 29.7533C52.7404 29.7533 54.4145 30.3955 55.7045 31.5563C56.9946 32.7171 57.8094 34.3142 57.992 36.04L58.91 44.764C58.9419 45.0687 58.9113 45.3768 58.82 45.6692C58.7287 45.9617 58.5787 46.2325 58.3791 46.4649C58.1795 46.6974 57.9345 46.8867 57.6592 47.0211C57.3839 47.1556 57.0841 47.2325 56.778 47.247L54.255 46.447V45.732C55.0219 45.2036 55.6491 44.497 56.0826 43.6727C56.5162 42.8485 56.7431 41.9313 56.744 41C56.744 39.046 56.75 38.5 56.75 38.5C56.7498 38.3012 56.6707 38.1106 56.5301 37.97C56.3895 37.8294 56.1988 37.7503 56 37.75H54.64C53.7551 37.747 52.8949 37.4574 52.1884 36.9245C51.4818 36.3916 50.967 35.6441 50.721 34.794C50.6763 34.6373 50.5817 34.4995 50.4516 34.4013C50.3215 34.3031 50.163 34.25 50 34.25C48.7407 34.2516 47.5335 34.7525 46.643 35.643C45.7526 36.5335 45.2516 37.7407 45.25 39V41C45.2502 41.9336 45.478 42.8531 45.9136 43.6789C46.3492 44.5046 46.9796 45.2117 47.75 45.739V46.448L45.227 47.248C44.9212 47.2331 44.6217 47.1559 44.3467 47.0212C44.0718 46.8865 43.8273 46.697 43.6281 46.4644C43.429 46.2319 43.2794 45.9611 43.1886 45.6687C43.0978 45.3763 43.0677 45.0685 43.1 44.764ZM51 45.25C49.873 45.2495 48.7923 44.8015 47.9954 44.0046C47.1985 43.2077 46.7505 42.127 46.75 41V39C46.7511 38.2281 47.0264 37.4816 47.5268 36.8939C48.0272 36.3061 48.7201 35.9152 49.482 35.791C49.9045 36.8122 50.6197 37.6855 51.5376 38.301C52.4554 38.9165 53.5349 39.2467 54.64 39.25H55.248C55.248 39.638 55.248 40.201 55.248 41.001C55.2462 42.1272 54.7981 43.2067 54.0018 44.0031C53.2056 44.7995 52.1262 45.2479 51 45.25ZM52.753 46.476V47.5C52.753 47.9641 52.5686 48.4093 52.2405 48.7374C51.9123 49.0656 51.4671 49.25 51.003 49.25C50.5389 49.25 50.0938 49.0656 49.7656 48.7374C49.4374 48.4093 49.253 47.9641 49.253 47.5V46.478C50.3913 46.842 51.6147 46.842 52.753 46.478V46.476ZM28.75 40C28.7508 39.4035 28.9881 38.8317 29.4099 38.4099C29.8317 37.9881 30.4035 37.7508 31 37.75H35C35.4641 37.75 35.9093 37.9344 36.2375 38.2626C36.5656 38.5908 36.75 39.0359 36.75 39.5C36.75 39.9641 36.5656 40.4092 36.2375 40.7374C35.9093 41.0656 35.4641 41.25 35 41.25H31C30.1884 41.2485 29.3984 41.5119 28.75 42V40ZM28.75 46V45C28.7508 44.4035 28.9881 43.8317 29.4099 43.4099C29.8317 42.9881 30.4035 42.7508 31 42.75H35C35.084 42.75 35.168 42.75 35.25 42.74V46C35.25 46.862 34.9076 47.6886 34.2981 48.2981C33.6886 48.9076 32.862 49.25 32 49.25C31.1381 49.25 30.3114 48.9076 29.7019 48.2981C29.0924 47.6886 28.75 46.862 28.75 46ZM33.25 50.583V51C33.25 51.3315 33.1183 51.6495 32.8839 51.8839C32.6495 52.1183 32.3315 52.25 32 52.25C31.6685 52.25 31.3506 52.1183 31.1161 51.8839C30.8817 51.6495 30.75 51.3315 30.75 51V50.583C31.5685 50.8056 32.4316 50.8056 33.25 50.583ZM8.75002 34C8.75108 33.1384 9.09383 32.3123 9.70309 31.7031C10.3124 31.0938 11.1384 30.7511 12 30.75H19.422C19.5232 31.2995 19.5023 31.8646 19.3607 32.4052C19.2192 32.9457 18.9605 33.4485 18.6029 33.8779C18.2453 34.3074 17.7977 34.6529 17.2917 34.89C16.7857 35.1271 16.2338 35.25 15.675 35.25H12C10.7919 35.249 9.62908 35.7102 8.75002 36.539V34ZM8.75002 41V40C8.75108 39.1384 9.09383 38.3123 9.70309 37.7031C10.3124 37.0938 11.1384 36.7511 12 36.75H15.675C16.2088 36.751 16.7396 36.6721 17.25 36.516V41C17.25 42.1272 16.8023 43.2082 16.0052 44.0052C15.2082 44.8022 14.1272 45.25 13 45.25C11.8728 45.25 10.7918 44.8022 9.99481 44.0052C9.19779 43.2082 8.75002 42.1272 8.75002 41ZM14.75 46.477V47.5C14.75 47.9641 14.5656 48.4093 14.2375 48.7374C13.9093 49.0656 13.4641 49.25 13 49.25C12.5359 49.25 12.0908 49.0656 11.7626 48.7374C11.4344 48.4093 11.25 47.9641 11.25 47.5V46.477C12.3883 46.841 13.6117 46.841 14.75 46.477ZM21.25 56.123V61.25H5.75002V56C5.75002 55.8011 5.671 55.6103 5.53035 55.4697C5.3897 55.329 5.19893 55.25 5.00002 55.25C4.80111 55.25 4.61034 55.329 4.46969 55.4697C4.32904 55.6103 4.25002 55.8011 4.25002 56V61.25H1.75002V52.932C1.74825 52.2406 1.96771 51.5667 2.37632 51.009C2.78493 50.4512 3.36125 50.0388 4.02102 49.832L9.79002 48.01C9.91106 48.7743 10.3008 49.4704 10.8893 49.973C11.4777 50.4755 12.2262 50.7517 13 50.7517C13.7739 50.7517 14.5223 50.4755 15.1108 49.973C15.6992 49.4704 16.089 48.7743 16.21 48.01L21.979 49.832C22.4502 49.9796 22.8813 50.2331 23.2394 50.573C23.5975 50.9129 23.8731 51.3302 24.045 51.793C23.2113 52.1685 22.504 52.777 22.0081 53.5453C21.5122 54.3135 21.249 55.2086 21.25 56.123ZM41.25 61.25H38.75V59C38.75 58.8011 38.671 58.6103 38.5303 58.4697C38.3897 58.329 38.1989 58.25 38 58.25C37.8011 58.25 37.6103 58.329 37.4697 58.4697C37.329 58.6103 37.25 58.8011 37.25 59V61.25H26.75V59C26.75 58.8011 26.671 58.6103 26.5303 58.4697C26.3897 58.329 26.1989 58.25 26 58.25C25.8011 58.25 25.6103 58.329 25.4697 58.4697C25.329 58.6103 25.25 58.8011 25.25 59V61.25H22.75V56.123C22.7491 55.3981 22.9909 54.6937 23.437 54.1223C23.883 53.5508 24.5076 53.1451 25.211 52.97L29.411 51.921C29.6013 52.456 29.9525 52.9189 30.4164 53.2463C30.8803 53.5737 31.4342 53.7495 32.002 53.7495C32.5698 53.7495 33.1237 53.5737 33.5876 53.2463C34.0515 52.9189 34.4027 52.456 34.593 51.921L38.793 52.97C39.4967 53.145 40.1214 53.5505 40.5677 54.122C41.0139 54.6935 41.2559 55.3979 41.255 56.123L41.25 61.25ZM62.25 61.25H59.75V56C59.75 55.8011 59.671 55.6103 59.5303 55.4697C59.3897 55.329 59.1989 55.25 59 55.25C58.8011 55.25 58.6103 55.329 58.4697 55.4697C58.329 55.6103 58.25 55.8011 58.25 56V61.25H42.75V56.123C42.7504 55.2081 42.4863 54.3127 41.9895 53.5445C41.4927 52.7762 40.7845 52.168 39.95 51.793C40.122 51.3302 40.3975 50.9129 40.7556 50.573C41.1137 50.2331 41.5449 49.9796 42.016 49.832L47.79 48.01C47.9111 48.7743 48.3008 49.4704 48.8893 49.973C49.4777 50.4755 50.2262 50.7517 51 50.7517C51.7739 50.7517 52.5223 50.4755 53.1108 49.973C53.6992 49.4704 54.089 48.7743 54.21 48.01L59.979 49.832C60.6388 50.0388 61.2151 50.4512 61.6237 51.009C62.0323 51.5667 62.2518 52.2406 62.25 52.932V61.25Z" fill="#736D6A"/>
<path d="M22.0001 20.75C23.2594 20.7484 24.4666 20.2475 25.3571 19.357C26.2475 18.4666 26.7485 17.2593 26.7501 16C26.7502 15.9047 26.7319 15.8103 26.6961 15.722L23.4841 7.69C23.8034 7.40905 24.037 7.04373 24.1581 6.636C26.0528 6.46766 27.926 6.11123 29.7501 5.572V23.25H29.0001C28.2709 23.2505 27.5717 23.5404 27.0561 24.056C26.5405 24.5717 26.2506 25.2708 26.2501 26V26.355C25.6746 26.5187 25.168 26.8653 24.8072 27.3426C24.4463 27.8198 24.2507 28.4017 24.2501 29V30C24.2501 30.1989 24.3291 30.3897 24.4698 30.5303C24.6104 30.671 24.8012 30.75 25.0001 30.75H39.0001C39.199 30.75 39.3898 30.671 39.5304 30.5303C39.6711 30.3897 39.7501 30.1989 39.7501 30V29C39.7494 28.4017 39.5539 27.8198 39.193 27.3426C38.8321 26.8653 38.3256 26.5187 37.7501 26.355V26C37.7496 25.2708 37.4597 24.5717 36.944 24.056C36.4284 23.5404 35.7293 23.2505 35.0001 23.25H34.2501V5.572C36.0742 6.11114 37.9474 6.46756 39.8421 6.636C39.9631 7.04373 40.1968 7.40905 40.5161 7.69L37.3001 15.722C37.2656 15.8106 37.2486 15.905 37.2501 16C37.2501 17.2598 37.7505 18.468 38.6413 19.3588C39.5321 20.2496 40.7403 20.75 42.0001 20.75C43.2599 20.75 44.468 20.2496 45.3588 19.3588C46.2496 18.468 46.7501 17.2598 46.7501 16C46.7502 15.9047 46.7319 15.8103 46.6961 15.722L43.4841 7.69C43.7726 7.43566 43.9918 7.11222 44.1211 6.75H45.0001C45.199 6.75 45.3898 6.67098 45.5304 6.53033C45.6711 6.38968 45.7501 6.19891 45.7501 6C45.7501 5.80109 45.6711 5.61032 45.5304 5.46967C45.3898 5.32902 45.199 5.25 45.0001 5.25H44.1211C43.9696 4.82082 43.6915 4.44767 43.3235 4.17983C42.9555 3.912 42.5149 3.76206 42.0599 3.74982C41.6049 3.73758 41.157 3.86361 40.7751 4.11127C40.3932 4.35893 40.0955 4.71658 39.9211 5.137C37.996 4.96184 36.0949 4.58237 34.2501 4.005V3.5C34.2501 2.90326 34.013 2.33097 33.5911 1.90901C33.1691 1.48705 32.5968 1.25 32.0001 1.25C31.4033 1.25 30.8311 1.48705 30.4091 1.90901C29.9871 2.33097 29.7501 2.90326 29.7501 3.5V4C27.905 4.57795 26.0036 4.95776 24.0781 5.133C23.9037 4.71258 23.6059 4.35493 23.2241 4.10727C22.8422 3.85961 22.3942 3.73358 21.9392 3.74582C21.4843 3.75806 21.0437 3.908 20.6757 4.17583C20.3077 4.44367 20.0296 4.81682 19.8781 5.246H19.0001C18.8012 5.246 18.6104 5.32502 18.4698 5.46567C18.3291 5.60632 18.2501 5.79709 18.2501 5.996C18.2501 6.19491 18.3291 6.38568 18.4698 6.52633C18.6104 6.66698 18.8012 6.746 19.0001 6.746H19.8791C20.0084 7.10822 20.2276 7.43166 20.5161 7.686L17.3001 15.722C17.2656 15.8106 17.2486 15.905 17.2501 16C17.2517 17.2593 17.7526 18.4666 18.6431 19.357C19.5335 20.2475 20.7408 20.7484 22.0001 20.75ZM42.0001 19.25C41.2688 19.2492 40.559 19.0021 39.9854 18.5486C39.4117 18.095 39.0075 17.4614 38.8381 16.75H45.1621C44.9926 17.4614 44.5885 18.095 44.0148 18.5486C43.4411 19.0021 42.7314 19.2492 42.0001 19.25ZM44.8921 15.25H39.1081L41.9081 8.25H41.9991H42.0901L44.8921 15.25ZM42.0001 5.25C42.1484 5.25 42.2934 5.29399 42.4168 5.3764C42.5401 5.45881 42.6362 5.57594 42.693 5.71299C42.7498 5.85003 42.7646 6.00083 42.7357 6.14632C42.7067 6.2918 42.6353 6.42544 42.5304 6.53033C42.4255 6.63522 42.2919 6.70665 42.1464 6.73559C42.0009 6.76453 41.8501 6.74968 41.7131 6.69291C41.576 6.63614 41.4589 6.54001 41.3765 6.41668C41.2941 6.29334 41.2501 6.14834 41.2501 6C41.2501 5.80109 41.3291 5.61032 41.4698 5.46967C41.6104 5.32902 41.8012 5.25 42.0001 5.25ZM37.0001 27.75C37.3314 27.7505 37.6491 27.8824 37.8834 28.1167C38.1177 28.351 38.2496 28.6686 38.2501 29V29.25H25.7501V29C25.7506 28.6686 25.8825 28.351 26.1168 28.1167C26.3511 27.8824 26.6687 27.7505 27.0001 27.75H37.0001ZM31.2501 3.5C31.2501 3.30109 31.3291 3.11032 31.4698 2.96967C31.6104 2.82902 31.8012 2.75 32.0001 2.75C32.199 2.75 32.3898 2.82902 32.5304 2.96967C32.6711 3.11032 32.7501 3.30109 32.7501 3.5V23.25H31.2501V3.5ZM35.0001 24.75C35.3314 24.7505 35.6491 24.8824 35.8834 25.1167C36.1177 25.351 36.2496 25.6686 36.2501 26V26.25H27.7501V26C27.7506 25.6686 27.8825 25.351 28.1168 25.1167C28.3511 24.8824 28.6687 24.7505 29.0001 24.75H35.0001ZM22.0001 5.25C22.1484 5.25 22.2934 5.29399 22.4168 5.3764C22.5401 5.45881 22.6362 5.57594 22.693 5.71299C22.7498 5.85003 22.7646 6.00083 22.7357 6.14632C22.7067 6.2918 22.6353 6.42544 22.5304 6.53033C22.4255 6.63522 22.2919 6.70665 22.1464 6.73559C22.0009 6.76453 21.8501 6.74968 21.7131 6.69291C21.576 6.63614 21.4589 6.54001 21.3765 6.41668C21.2941 6.29334 21.2501 6.14834 21.2501 6C21.2501 5.80109 21.3291 5.61032 21.4698 5.46967C21.6104 5.32902 21.8012 5.25 22.0001 5.25ZM21.9091 8.25H22.0001H22.0911L24.8911 15.25H19.1081L21.9091 8.25ZM25.1621 16.75C24.9931 17.4615 24.589 18.0953 24.0152 18.5487C23.4414 19.0022 22.7314 19.2488 22.0001 19.2488C21.2687 19.2488 20.5588 19.0022 19.985 18.5487C19.4112 18.0953 19.0071 17.4615 18.8381 16.75H25.1621Z" fill="#736D6A"/>
</svg>
