<svg width="56" height="56" viewBox="0 0 56 56" fill="none" xmlns="http://www.w3.org/2000/svg">
<path d="M50.2457 37.5205L46.9452 36.9181C44.5356 36.4854 42.7793 34.4661 42.618 32.0565C44.578 30.3256 45.8931 27.7293 46.1137 24.7682C48.0821 19.4823 48.9476 13.1782 45.664 10.9213C44.4422 8.3929 41.2351 6.85719 37.3661 7.0184C33.7007 7.15415 28.8475 9.03773 27.2015 13.8824C27.193 13.9164 27.1846 13.9503 27.1761 13.9927C26.5906 16.9539 26.8027 20.3732 27.8548 24.7512C27.8633 24.7852 27.8803 24.8191 27.8973 24.853C28.1263 27.7802 29.4415 30.3511 31.3844 32.0649C31.2317 34.4746 29.4669 36.4939 27.0573 36.9266L23.7653 37.529C20.4308 38.1314 18.0127 41.0247 18.0127 44.4016V55.1516C18.0127 55.6182 18.3945 56 18.8612 56H55.1498C55.6165 56 55.9983 55.6182 55.9983 55.1516V44.3931C55.9983 41.0162 53.5802 38.123 50.2457 37.5205ZM45.2992 12.8897C46.0798 13.9079 46.3004 15.5878 46.1307 17.5563C45.8592 16.2751 45.3246 15.1551 44.3744 14.3067C44.7307 13.857 45.0362 13.3819 45.2992 12.8897ZM28.8306 14.3661C30.2136 10.3783 34.3201 8.82562 37.434 8.70683C40.5054 8.59653 43.1017 9.70802 44.0774 11.5152C42.5502 15.3079 37.3491 18.0484 31.2826 15.9866C30.9857 15.8933 30.6632 15.9527 30.4342 16.1648C30.2051 16.3769 30.1117 16.6993 30.1881 16.9963C30.519 18.2775 29.9081 20.0762 29.0172 21.9852C28.4657 18.9987 28.4063 16.5296 28.8306 14.3661ZM29.5857 24.6409C30.8244 22.2567 31.902 19.9489 31.9699 17.9635C36.5431 19.109 40.6072 17.8617 43.212 15.5454C44.9513 17.0981 44.7901 20.2459 44.5186 23.6228C44.4847 23.7161 44.4592 23.8179 44.4592 23.9197C44.4592 28.6796 41.1163 32.5571 37.0097 32.5571C33.1068 32.5571 29.9081 29.0614 29.5857 24.6409ZM32.9541 33.1679C34.1759 33.8552 35.5504 34.2455 37.0012 34.2455C38.4521 34.2455 39.8266 33.8467 41.0484 33.1679C41.3793 34.7037 42.2023 36.0697 43.3817 37.0624C41.5999 38.5302 39.3854 39.3363 37.0437 39.3363H37.0352C34.6765 39.3363 32.445 38.5217 30.6548 37.0369C31.8171 36.0442 32.6317 34.6952 32.9541 33.1679ZM32.8268 54.3031H19.7096V44.3931C19.7096 41.8307 21.5423 39.6417 24.0707 39.192L27.3627 38.5896C28.016 38.4708 28.6269 38.2672 29.1954 37.9872C30.6548 39.3108 32.3941 40.2271 34.2777 40.6853L32.8268 54.3031ZM34.5322 54.3031L35.9576 40.9738C36.314 41.0077 36.6788 41.0247 37.0437 41.0247H37.0606C37.4 41.0247 37.7309 41.0077 38.0618 40.9738L39.4787 54.3031H34.5322ZM54.3013 54.3031H41.1842L39.7333 40.7108C41.6338 40.2696 43.3901 39.3447 44.858 38.0127C45.4095 38.2757 46.0119 38.4793 46.6398 38.5896L49.9403 39.192C52.4602 39.6502 54.2929 41.8392 54.2929 44.3931V54.3031H54.3013Z" fill="#736D6A"/>
<path d="M19.9728 18.9477C20.134 18.9986 20.2952 19.0241 20.4564 19.0241C20.7958 19.0241 21.1267 18.9138 21.4067 18.7102C21.8309 18.4047 22.0769 17.9126 22.0769 17.3866V1.63914C22.0769 1.12158 21.8224 0.629476 21.4067 0.315546C20.9824 0.0101 20.4649 -0.0832304 19.9728 0.0779771C18.5813 0.519176 17.5631 1.63066 17.2153 2.99668C13.1087 2.00398 8.96823 2.00398 4.86168 2.99668C4.51381 1.63066 3.49566 0.519176 2.10418 0.0779771C1.61207 -0.0747458 1.09451 0.0101 0.670284 0.315546C0.254538 0.620991 0 1.1131 0 1.63914V17.3866C0 17.9041 0.254538 18.3962 0.670284 18.7102C0.950276 18.9138 1.28118 19.0241 1.62056 19.0241C1.78177 19.0241 1.94297 18.9986 2.10418 18.9477C3.49566 18.5065 4.51381 17.3866 4.86168 16.029C5.94771 16.2921 7.04222 16.4872 8.13674 16.606C7.41554 21.0434 6.94041 27.3899 6.94041 32.7776C6.94041 41.8222 8.23855 46.0391 11.03 46.0391C13.8214 46.0391 15.128 41.8222 15.128 32.7776C15.128 27.3899 14.6529 21.0434 13.9317 16.606C15.0262 16.4787 16.1207 16.2921 17.2068 16.029C17.5631 17.3866 18.5813 18.5065 19.9728 18.9477ZM18.7679 4.04029C18.7679 2.97123 19.4467 2.02944 20.38 1.69005V17.2848C19.4128 16.9284 18.7679 16.0121 18.7679 14.9685V4.04029ZM3.309 14.9769C3.309 16.046 2.63023 16.9878 1.69692 17.3272V1.73247C2.66417 2.08883 3.309 3.00517 3.309 4.04029V14.9769ZM11.0385 44.3422C10.6397 44.3422 8.66278 43.7822 8.64581 32.8964C9.40943 33.0661 10.2239 33.1594 11.0385 33.1594C11.853 33.1594 12.6675 33.0661 13.4311 32.8964C13.4226 43.7822 11.4372 44.3422 11.0385 44.3422ZM11.0385 29.299C11.8275 29.299 12.6166 29.2141 13.3633 29.0444C13.3887 29.7571 13.4057 30.4529 13.4226 31.1486C11.9463 31.5474 10.1391 31.5474 8.66278 31.1486C8.67127 30.4529 8.69672 29.7486 8.72217 29.0444C9.46033 29.2141 10.2494 29.299 11.0385 29.299ZM8.79005 27.3305C8.9852 23.504 9.35852 19.6774 9.84214 16.7417C10.2409 16.7587 10.6397 16.7842 11.047 16.7842C11.4542 16.7842 11.8445 16.7587 12.2518 16.7417C12.7354 19.6774 13.1087 23.504 13.3039 27.3305C11.8784 27.6869 10.1985 27.6869 8.79005 27.3305ZM17.071 14.3236C13.0663 15.3333 9.01065 15.3333 5.00592 14.3236V4.6936C9.01065 3.68393 13.0663 3.68393 17.071 4.6936V14.3236Z" fill="#736D6A"/>
</svg>
