<svg width="56" height="56" viewBox="0 0 56 56" fill="none" xmlns="http://www.w3.org/2000/svg">
<mask id="path-1-outside-1_788_65" maskUnits="userSpaceOnUse" x="0.640625" y="0.640625" width="54" height="54" fill="black">
<rect fill="white" x="0.640625" y="0.640625" width="54" height="54"/>
<path d="M54.3594 37.5725V37.4872C54.3594 37.1864 54.1548 36.9239 53.8628 36.8506C50.9359 36.1189 48.8906 33.5038 48.8906 30.4927V26.9522C48.8906 23.0486 45.7155 19.8734 41.8119 19.8734C37.9083 19.8734 34.7331 23.0486 34.7331 26.9522V30.4927C34.7331 32.2219 34.0572 33.8472 32.8562 35.0689C31.8205 33.1877 29.8189 31.9091 27.5231 31.9091C24.1697 31.9091 21.4408 34.638 21.4408 37.9914V39.4319C21.4408 39.7687 21.4692 40.0991 21.5228 40.4217C21.2177 40.2817 20.8972 40.1669 20.5658 40.0805L16.7147 39.0764V38.1194C19.1658 36.8462 20.8447 34.2858 20.8447 31.3381V27.5111C20.8447 23.2991 17.418 19.8723 13.2059 19.8723C8.99391 19.8723 5.56719 23.2991 5.56719 27.5111V31.3381C5.56719 34.2858 7.24609 36.8462 9.69719 38.1194V39.0764L5.84609 40.0805C3.33047 40.7367 1.64062 42.9231 1.64062 45.5219V53.7031C1.64062 54.0652 1.93484 54.3594 2.29688 54.3594H17.8664H37.1809H52.7209C53.083 54.3594 53.3772 54.0652 53.3772 53.7031V45.5219C53.3772 43.9852 52.7855 42.5917 51.7825 41.5745C53.3159 40.8811 54.3594 39.3422 54.3594 37.5725ZM39.6156 38.0067C40.308 38.2331 41.0452 38.3578 41.8119 38.3578C42.5786 38.3578 43.3158 38.2342 44.0081 38.0067V39.5139C44.0081 40.7247 43.0227 41.7102 41.8119 41.7102C40.6011 41.7102 39.6156 40.7247 39.6156 39.5139V38.0067ZM41.8119 37.0442C38.6323 37.0442 36.0456 34.4575 36.0456 31.278V29.7872C36.4055 29.8681 36.7741 29.9108 37.1481 29.9108H37.4489C39.2777 29.9108 40.9259 28.9319 41.8119 27.3689C42.6978 28.9319 44.3461 29.9108 46.1748 29.9108H46.4756C46.8508 29.9108 47.2194 29.8681 47.5781 29.7872V31.278C47.5781 34.4575 44.9914 37.0442 41.8119 37.0442ZM41.8119 21.1859C44.9914 21.1859 47.5781 23.7727 47.5781 26.9522V28.4298C47.2227 28.5414 46.853 28.5994 46.4756 28.5994H46.1748C44.6797 28.5994 43.2972 27.6631 42.735 26.2686C42.5819 25.8902 42.2198 25.6462 41.8119 25.6462C41.4039 25.6462 41.0419 25.8902 40.8887 26.2686C40.3266 27.662 38.9441 28.5994 37.4489 28.5994H37.1481C36.7697 28.5994 36.4011 28.5425 36.0456 28.4298V26.9522C36.0456 23.7727 38.6323 21.1859 41.8119 21.1859ZM35.2527 33.9336C35.852 35.4091 36.9348 36.6373 38.3031 37.4216V39.0764L34.452 40.0805C34.1327 40.1636 33.8242 40.273 33.5278 40.4064C33.5792 40.0892 33.6066 39.7633 33.6066 39.4319V37.9914C33.6066 37.4314 33.5289 36.89 33.3867 36.3759C34.1742 35.6803 34.8042 34.8502 35.2527 33.9336ZM25.3094 45.0964C25.9963 45.3655 26.7422 45.5153 27.5231 45.5153C28.3041 45.5153 29.0511 45.3655 29.738 45.0964V46.2044C29.738 47.425 28.7448 48.4181 27.5242 48.4181C26.3036 48.4181 25.3105 47.425 25.3105 46.2044V45.0964H25.3094ZM27.5231 44.2028C24.8927 44.2028 22.7533 42.0634 22.7533 39.433V39.2645C23.5287 38.5569 25.2328 37.893 27.5231 37.893C29.8134 37.893 31.5175 38.558 32.293 39.2645V39.433C32.2941 42.0623 30.1536 44.2028 27.5231 44.2028ZM27.5231 33.2216C30.0398 33.2216 32.1059 35.1805 32.2798 37.6523C31.0723 36.9742 29.3759 36.5783 27.5231 36.5783C25.6703 36.5783 23.9739 36.9731 22.7664 37.6523C22.9414 35.1805 25.0075 33.2216 27.5231 33.2216ZM13.2059 21.1859C16.6939 21.1859 19.5322 24.0242 19.5322 27.5122V28.9056C19.1275 28.9428 18.7184 28.9636 18.3105 28.9636C15.773 28.9636 13.3536 28.2362 11.4975 26.9172C11.2109 26.7138 10.815 26.7717 10.5995 27.0484C9.75187 28.1356 8.38359 28.8192 6.88078 28.9275V27.5122C6.87969 24.0231 9.71688 21.1859 13.2059 21.1859ZM6.87969 31.3392V30.2422C8.56625 30.1437 10.1347 29.4481 11.2306 28.3183C13.23 29.5837 15.7194 30.2761 18.3094 30.2761C18.7173 30.2761 19.1253 30.2564 19.5311 30.2225V31.3392C19.5311 34.8272 16.6928 37.6655 13.2048 37.6655C9.71688 37.6655 6.87969 34.8272 6.87969 31.3392ZM13.2059 38.9769C13.9694 38.9769 14.7066 38.8631 15.4022 38.6531V39.5128C15.4022 40.7236 14.4167 41.7091 13.2059 41.7091C11.9952 41.7091 11.0097 40.7236 11.0097 39.5128V38.6531C11.7053 38.8631 12.4425 38.9769 13.2059 38.9769ZM2.95312 45.5219C2.95312 43.5302 4.24813 41.8534 6.17641 41.3514L9.81203 40.4042C10.2069 41.9092 11.5784 43.0227 13.2059 43.0227C14.8334 43.0227 16.205 41.9092 16.5998 40.4042L20.2355 41.3514C21.0547 41.5647 21.7777 41.9978 22.3344 42.6027C22.7631 43.3027 23.3308 43.9086 23.9969 44.3844V45.4869L21.6836 46.0173C19.0498 46.6211 17.2102 48.93 17.2102 51.6327V53.0469H7.83891V49.0142C7.83891 48.6522 7.54469 48.358 7.18266 48.358C6.82062 48.358 6.52641 48.6522 6.52641 49.0142V53.0469H2.95312V45.5219ZM36.5247 53.0469H18.5227V51.6316C18.5227 49.5447 19.9434 47.7619 21.9767 47.2959L24.0516 46.8202C24.3436 48.4717 25.7884 49.7306 27.5231 49.7306C29.2578 49.7306 30.7027 48.4717 30.9947 46.8202L33.0695 47.2959C35.1028 47.7619 36.5236 49.5447 36.5236 51.6316V53.0469H36.5247ZM52.0647 53.0469H48.4914V49.0142C48.4914 48.6522 48.1972 48.358 47.8352 48.358C47.4731 48.358 47.1789 48.6522 47.1789 49.0142V53.0469H37.8372V51.6316C37.8372 48.9289 35.9975 46.62 33.3638 46.0163L31.0505 45.4858V44.3833C31.7428 43.8889 32.328 43.2523 32.7633 42.5173C33.308 41.9573 34.0036 41.5537 34.7823 41.3503L38.418 40.4031C38.8128 41.9081 40.1844 43.0216 41.8119 43.0216C43.4394 43.0216 44.8109 41.9081 45.2058 40.4031L48.8414 41.3503C50.7697 41.8523 52.0647 43.5291 52.0647 45.5208V53.0469ZM50.4973 40.6055C50.0883 40.3812 49.6453 40.2041 49.1728 40.0805L45.3217 39.0764V37.4216C46.69 36.6373 47.7728 35.4091 48.3722 33.9347C49.2898 35.8192 50.9447 37.3013 53.0217 37.9739C52.8489 39.3028 51.8317 40.3736 50.4973 40.6055ZM19.4742 14.0963C21.8116 14.0963 23.742 12.1986 23.7836 9.86344C23.7891 9.70703 23.7388 9.55062 23.6359 9.42484L20.8622 6.04188H25.7545C25.9777 6.80641 26.5814 7.40906 27.3448 7.63219V19.2216H25.2678C24.9058 19.2216 24.6116 19.5158 24.6116 19.8778C24.6116 20.2398 24.9058 20.5341 25.2678 20.5341H30.7333C31.0953 20.5341 31.3895 20.2398 31.3895 19.8778C31.3895 19.5158 31.0953 19.2216 30.7333 19.2216H28.6562V7.63219C29.4208 7.40906 30.0234 6.80531 30.2466 6.04188H35.1389L32.3641 9.42484C32.2612 9.55062 32.2109 9.70703 32.2164 9.86344C32.258 12.1986 34.1873 14.0963 36.5258 14.0963C38.8642 14.0963 40.7936 12.1986 40.8352 9.86344C40.8406 9.70703 40.7903 9.55062 40.6875 9.42484L37.0333 4.97C36.9086 4.81797 36.7227 4.72938 36.5258 4.72938H30.2466C30.0234 3.96484 29.4197 3.36219 28.6562 3.13906V2.29688C28.6562 1.93484 28.362 1.64062 28 1.64062C27.638 1.64062 27.3438 1.93484 27.3438 2.29688V3.13906C26.5792 3.36219 25.9766 3.96594 25.7534 4.72938H19.4742C19.2773 4.72938 19.0914 4.81797 18.9667 4.97L15.3125 9.42484C15.2097 9.55062 15.1594 9.70703 15.1648 9.86344C15.2064 12.1986 17.1369 14.0963 19.4742 14.0963ZM36.5258 12.7837C35.1258 12.7837 33.9369 11.8048 33.6153 10.4967H39.4373C39.1147 11.8059 37.9258 12.7837 36.5258 12.7837ZM38.7931 9.18422H34.2595L36.5269 6.42031L38.7931 9.18422ZM28 4.35531C28.5677 4.35531 29.0303 4.81688 29.0303 5.38563C29.0303 5.95438 28.5688 6.41594 28 6.41594C27.4312 6.41594 26.9697 5.95438 26.9697 5.38563C26.9697 4.81688 27.4323 4.35531 28 4.35531ZM19.4742 12.7837C18.0742 12.7837 16.8853 11.8048 16.5638 10.4967H22.3858C22.0631 11.8059 20.8742 12.7837 19.4742 12.7837ZM19.4742 6.42031L21.7416 9.18422H17.208L19.4742 6.42031Z"/>
</mask>
<path d="M54.3594 37.5725V37.4872C54.3594 37.1864 54.1548 36.9239 53.8628 36.8506C50.9359 36.1189 48.8906 33.5038 48.8906 30.4927V26.9522C48.8906 23.0486 45.7155 19.8734 41.8119 19.8734C37.9083 19.8734 34.7331 23.0486 34.7331 26.9522V30.4927C34.7331 32.2219 34.0572 33.8472 32.8562 35.0689C31.8205 33.1877 29.8189 31.9091 27.5231 31.9091C24.1697 31.9091 21.4408 34.638 21.4408 37.9914V39.4319C21.4408 39.7687 21.4692 40.0991 21.5228 40.4217C21.2177 40.2817 20.8972 40.1669 20.5658 40.0805L16.7147 39.0764V38.1194C19.1658 36.8462 20.8447 34.2858 20.8447 31.3381V27.5111C20.8447 23.2991 17.418 19.8723 13.2059 19.8723C8.99391 19.8723 5.56719 23.2991 5.56719 27.5111V31.3381C5.56719 34.2858 7.24609 36.8462 9.69719 38.1194V39.0764L5.84609 40.0805C3.33047 40.7367 1.64062 42.9231 1.64062 45.5219V53.7031C1.64062 54.0652 1.93484 54.3594 2.29688 54.3594H17.8664H37.1809H52.7209C53.083 54.3594 53.3772 54.0652 53.3772 53.7031V45.5219C53.3772 43.9852 52.7855 42.5917 51.7825 41.5745C53.3159 40.8811 54.3594 39.3422 54.3594 37.5725ZM39.6156 38.0067C40.308 38.2331 41.0452 38.3578 41.8119 38.3578C42.5786 38.3578 43.3158 38.2342 44.0081 38.0067V39.5139C44.0081 40.7247 43.0227 41.7102 41.8119 41.7102C40.6011 41.7102 39.6156 40.7247 39.6156 39.5139V38.0067ZM41.8119 37.0442C38.6323 37.0442 36.0456 34.4575 36.0456 31.278V29.7872C36.4055 29.8681 36.7741 29.9108 37.1481 29.9108H37.4489C39.2777 29.9108 40.9259 28.9319 41.8119 27.3689C42.6978 28.9319 44.3461 29.9108 46.1748 29.9108H46.4756C46.8508 29.9108 47.2194 29.8681 47.5781 29.7872V31.278C47.5781 34.4575 44.9914 37.0442 41.8119 37.0442ZM41.8119 21.1859C44.9914 21.1859 47.5781 23.7727 47.5781 26.9522V28.4298C47.2227 28.5414 46.853 28.5994 46.4756 28.5994H46.1748C44.6797 28.5994 43.2972 27.6631 42.735 26.2686C42.5819 25.8902 42.2198 25.6462 41.8119 25.6462C41.4039 25.6462 41.0419 25.8902 40.8887 26.2686C40.3266 27.662 38.9441 28.5994 37.4489 28.5994H37.1481C36.7697 28.5994 36.4011 28.5425 36.0456 28.4298V26.9522C36.0456 23.7727 38.6323 21.1859 41.8119 21.1859ZM35.2527 33.9336C35.852 35.4091 36.9348 36.6373 38.3031 37.4216V39.0764L34.452 40.0805C34.1327 40.1636 33.8242 40.273 33.5278 40.4064C33.5792 40.0892 33.6066 39.7633 33.6066 39.4319V37.9914C33.6066 37.4314 33.5289 36.89 33.3867 36.3759C34.1742 35.6803 34.8042 34.8502 35.2527 33.9336ZM25.3094 45.0964C25.9963 45.3655 26.7422 45.5153 27.5231 45.5153C28.3041 45.5153 29.0511 45.3655 29.738 45.0964V46.2044C29.738 47.425 28.7448 48.4181 27.5242 48.4181C26.3036 48.4181 25.3105 47.425 25.3105 46.2044V45.0964H25.3094ZM27.5231 44.2028C24.8927 44.2028 22.7533 42.0634 22.7533 39.433V39.2645C23.5287 38.5569 25.2328 37.893 27.5231 37.893C29.8134 37.893 31.5175 38.558 32.293 39.2645V39.433C32.2941 42.0623 30.1536 44.2028 27.5231 44.2028ZM27.5231 33.2216C30.0398 33.2216 32.1059 35.1805 32.2798 37.6523C31.0723 36.9742 29.3759 36.5783 27.5231 36.5783C25.6703 36.5783 23.9739 36.9731 22.7664 37.6523C22.9414 35.1805 25.0075 33.2216 27.5231 33.2216ZM13.2059 21.1859C16.6939 21.1859 19.5322 24.0242 19.5322 27.5122V28.9056C19.1275 28.9428 18.7184 28.9636 18.3105 28.9636C15.773 28.9636 13.3536 28.2362 11.4975 26.9172C11.2109 26.7138 10.815 26.7717 10.5995 27.0484C9.75187 28.1356 8.38359 28.8192 6.88078 28.9275V27.5122C6.87969 24.0231 9.71688 21.1859 13.2059 21.1859ZM6.87969 31.3392V30.2422C8.56625 30.1437 10.1347 29.4481 11.2306 28.3183C13.23 29.5837 15.7194 30.2761 18.3094 30.2761C18.7173 30.2761 19.1253 30.2564 19.5311 30.2225V31.3392C19.5311 34.8272 16.6928 37.6655 13.2048 37.6655C9.71688 37.6655 6.87969 34.8272 6.87969 31.3392ZM13.2059 38.9769C13.9694 38.9769 14.7066 38.8631 15.4022 38.6531V39.5128C15.4022 40.7236 14.4167 41.7091 13.2059 41.7091C11.9952 41.7091 11.0097 40.7236 11.0097 39.5128V38.6531C11.7053 38.8631 12.4425 38.9769 13.2059 38.9769ZM2.95312 45.5219C2.95312 43.5302 4.24813 41.8534 6.17641 41.3514L9.81203 40.4042C10.2069 41.9092 11.5784 43.0227 13.2059 43.0227C14.8334 43.0227 16.205 41.9092 16.5998 40.4042L20.2355 41.3514C21.0547 41.5647 21.7777 41.9978 22.3344 42.6027C22.7631 43.3027 23.3308 43.9086 23.9969 44.3844V45.4869L21.6836 46.0173C19.0498 46.6211 17.2102 48.93 17.2102 51.6327V53.0469H7.83891V49.0142C7.83891 48.6522 7.54469 48.358 7.18266 48.358C6.82062 48.358 6.52641 48.6522 6.52641 49.0142V53.0469H2.95312V45.5219ZM36.5247 53.0469H18.5227V51.6316C18.5227 49.5447 19.9434 47.7619 21.9767 47.2959L24.0516 46.8202C24.3436 48.4717 25.7884 49.7306 27.5231 49.7306C29.2578 49.7306 30.7027 48.4717 30.9947 46.8202L33.0695 47.2959C35.1028 47.7619 36.5236 49.5447 36.5236 51.6316V53.0469H36.5247ZM52.0647 53.0469H48.4914V49.0142C48.4914 48.6522 48.1972 48.358 47.8352 48.358C47.4731 48.358 47.1789 48.6522 47.1789 49.0142V53.0469H37.8372V51.6316C37.8372 48.9289 35.9975 46.62 33.3638 46.0163L31.0505 45.4858V44.3833C31.7428 43.8889 32.328 43.2523 32.7633 42.5173C33.308 41.9573 34.0036 41.5537 34.7823 41.3503L38.418 40.4031C38.8128 41.9081 40.1844 43.0216 41.8119 43.0216C43.4394 43.0216 44.8109 41.9081 45.2058 40.4031L48.8414 41.3503C50.7697 41.8523 52.0647 43.5291 52.0647 45.5208V53.0469ZM50.4973 40.6055C50.0883 40.3812 49.6453 40.2041 49.1728 40.0805L45.3217 39.0764V37.4216C46.69 36.6373 47.7728 35.4091 48.3722 33.9347C49.2898 35.8192 50.9447 37.3013 53.0217 37.9739C52.8489 39.3028 51.8317 40.3736 50.4973 40.6055ZM19.4742 14.0963C21.8116 14.0963 23.742 12.1986 23.7836 9.86344C23.7891 9.70703 23.7388 9.55062 23.6359 9.42484L20.8622 6.04188H25.7545C25.9777 6.80641 26.5814 7.40906 27.3448 7.63219V19.2216H25.2678C24.9058 19.2216 24.6116 19.5158 24.6116 19.8778C24.6116 20.2398 24.9058 20.5341 25.2678 20.5341H30.7333C31.0953 20.5341 31.3895 20.2398 31.3895 19.8778C31.3895 19.5158 31.0953 19.2216 30.7333 19.2216H28.6562V7.63219C29.4208 7.40906 30.0234 6.80531 30.2466 6.04188H35.1389L32.3641 9.42484C32.2612 9.55062 32.2109 9.70703 32.2164 9.86344C32.258 12.1986 34.1873 14.0963 36.5258 14.0963C38.8642 14.0963 40.7936 12.1986 40.8352 9.86344C40.8406 9.70703 40.7903 9.55062 40.6875 9.42484L37.0333 4.97C36.9086 4.81797 36.7227 4.72938 36.5258 4.72938H30.2466C30.0234 3.96484 29.4197 3.36219 28.6562 3.13906V2.29688C28.6562 1.93484 28.362 1.64062 28 1.64062C27.638 1.64062 27.3438 1.93484 27.3438 2.29688V3.13906C26.5792 3.36219 25.9766 3.96594 25.7534 4.72938H19.4742C19.2773 4.72938 19.0914 4.81797 18.9667 4.97L15.3125 9.42484C15.2097 9.55062 15.1594 9.70703 15.1648 9.86344C15.2064 12.1986 17.1369 14.0963 19.4742 14.0963ZM36.5258 12.7837C35.1258 12.7837 33.9369 11.8048 33.6153 10.4967H39.4373C39.1147 11.8059 37.9258 12.7837 36.5258 12.7837ZM38.7931 9.18422H34.2595L36.5269 6.42031L38.7931 9.18422ZM28 4.35531C28.5677 4.35531 29.0303 4.81688 29.0303 5.38563C29.0303 5.95438 28.5688 6.41594 28 6.41594C27.4312 6.41594 26.9697 5.95438 26.9697 5.38563C26.9697 4.81688 27.4323 4.35531 28 4.35531ZM19.4742 12.7837C18.0742 12.7837 16.8853 11.8048 16.5638 10.4967H22.3858C22.0631 11.8059 20.8742 12.7837 19.4742 12.7837ZM19.4742 6.42031L21.7416 9.18422H17.208L19.4742 6.42031Z" fill="#736D6A"/>
<path d="M54.3594 37.5725V37.4872C54.3594 37.1864 54.1548 36.9239 53.8628 36.8506C50.9359 36.1189 48.8906 33.5038 48.8906 30.4927V26.9522C48.8906 23.0486 45.7155 19.8734 41.8119 19.8734C37.9083 19.8734 34.7331 23.0486 34.7331 26.9522V30.4927C34.7331 32.2219 34.0572 33.8472 32.8562 35.0689C31.8205 33.1877 29.8189 31.9091 27.5231 31.9091C24.1697 31.9091 21.4408 34.638 21.4408 37.9914V39.4319C21.4408 39.7687 21.4692 40.0991 21.5228 40.4217C21.2177 40.2817 20.8972 40.1669 20.5658 40.0805L16.7147 39.0764V38.1194C19.1658 36.8462 20.8447 34.2858 20.8447 31.3381V27.5111C20.8447 23.2991 17.418 19.8723 13.2059 19.8723C8.99391 19.8723 5.56719 23.2991 5.56719 27.5111V31.3381C5.56719 34.2858 7.24609 36.8462 9.69719 38.1194V39.0764L5.84609 40.0805C3.33047 40.7367 1.64062 42.9231 1.64062 45.5219V53.7031C1.64062 54.0652 1.93484 54.3594 2.29688 54.3594H17.8664H37.1809H52.7209C53.083 54.3594 53.3772 54.0652 53.3772 53.7031V45.5219C53.3772 43.9852 52.7855 42.5917 51.7825 41.5745C53.3159 40.8811 54.3594 39.3422 54.3594 37.5725ZM39.6156 38.0067C40.308 38.2331 41.0452 38.3578 41.8119 38.3578C42.5786 38.3578 43.3158 38.2342 44.0081 38.0067V39.5139C44.0081 40.7247 43.0227 41.7102 41.8119 41.7102C40.6011 41.7102 39.6156 40.7247 39.6156 39.5139V38.0067ZM41.8119 37.0442C38.6323 37.0442 36.0456 34.4575 36.0456 31.278V29.7872C36.4055 29.8681 36.7741 29.9108 37.1481 29.9108H37.4489C39.2777 29.9108 40.9259 28.9319 41.8119 27.3689C42.6978 28.9319 44.3461 29.9108 46.1748 29.9108H46.4756C46.8508 29.9108 47.2194 29.8681 47.5781 29.7872V31.278C47.5781 34.4575 44.9914 37.0442 41.8119 37.0442ZM41.8119 21.1859C44.9914 21.1859 47.5781 23.7727 47.5781 26.9522V28.4298C47.2227 28.5414 46.853 28.5994 46.4756 28.5994H46.1748C44.6797 28.5994 43.2972 27.6631 42.735 26.2686C42.5819 25.8902 42.2198 25.6462 41.8119 25.6462C41.4039 25.6462 41.0419 25.8902 40.8887 26.2686C40.3266 27.662 38.9441 28.5994 37.4489 28.5994H37.1481C36.7697 28.5994 36.4011 28.5425 36.0456 28.4298V26.9522C36.0456 23.7727 38.6323 21.1859 41.8119 21.1859ZM35.2527 33.9336C35.852 35.4091 36.9348 36.6373 38.3031 37.4216V39.0764L34.452 40.0805C34.1327 40.1636 33.8242 40.273 33.5278 40.4064C33.5792 40.0892 33.6066 39.7633 33.6066 39.4319V37.9914C33.6066 37.4314 33.5289 36.89 33.3867 36.3759C34.1742 35.6803 34.8042 34.8502 35.2527 33.9336ZM25.3094 45.0964C25.9963 45.3655 26.7422 45.5153 27.5231 45.5153C28.3041 45.5153 29.0511 45.3655 29.738 45.0964V46.2044C29.738 47.425 28.7448 48.4181 27.5242 48.4181C26.3036 48.4181 25.3105 47.425 25.3105 46.2044V45.0964H25.3094ZM27.5231 44.2028C24.8927 44.2028 22.7533 42.0634 22.7533 39.433V39.2645C23.5287 38.5569 25.2328 37.893 27.5231 37.893C29.8134 37.893 31.5175 38.558 32.293 39.2645V39.433C32.2941 42.0623 30.1536 44.2028 27.5231 44.2028ZM27.5231 33.2216C30.0398 33.2216 32.1059 35.1805 32.2798 37.6523C31.0723 36.9742 29.3759 36.5783 27.5231 36.5783C25.6703 36.5783 23.9739 36.9731 22.7664 37.6523C22.9414 35.1805 25.0075 33.2216 27.5231 33.2216ZM13.2059 21.1859C16.6939 21.1859 19.5322 24.0242 19.5322 27.5122V28.9056C19.1275 28.9428 18.7184 28.9636 18.3105 28.9636C15.773 28.9636 13.3536 28.2362 11.4975 26.9172C11.2109 26.7138 10.815 26.7717 10.5995 27.0484C9.75187 28.1356 8.38359 28.8192 6.88078 28.9275V27.5122C6.87969 24.0231 9.71688 21.1859 13.2059 21.1859ZM6.87969 31.3392V30.2422C8.56625 30.1437 10.1347 29.4481 11.2306 28.3183C13.23 29.5837 15.7194 30.2761 18.3094 30.2761C18.7173 30.2761 19.1253 30.2564 19.5311 30.2225V31.3392C19.5311 34.8272 16.6928 37.6655 13.2048 37.6655C9.71688 37.6655 6.87969 34.8272 6.87969 31.3392ZM13.2059 38.9769C13.9694 38.9769 14.7066 38.8631 15.4022 38.6531V39.5128C15.4022 40.7236 14.4167 41.7091 13.2059 41.7091C11.9952 41.7091 11.0097 40.7236 11.0097 39.5128V38.6531C11.7053 38.8631 12.4425 38.9769 13.2059 38.9769ZM2.95312 45.5219C2.95312 43.5302 4.24813 41.8534 6.17641 41.3514L9.81203 40.4042C10.2069 41.9092 11.5784 43.0227 13.2059 43.0227C14.8334 43.0227 16.205 41.9092 16.5998 40.4042L20.2355 41.3514C21.0547 41.5647 21.7777 41.9978 22.3344 42.6027C22.7631 43.3027 23.3308 43.9086 23.9969 44.3844V45.4869L21.6836 46.0173C19.0498 46.6211 17.2102 48.93 17.2102 51.6327V53.0469H7.83891V49.0142C7.83891 48.6522 7.54469 48.358 7.18266 48.358C6.82062 48.358 6.52641 48.6522 6.52641 49.0142V53.0469H2.95312V45.5219ZM36.5247 53.0469H18.5227V51.6316C18.5227 49.5447 19.9434 47.7619 21.9767 47.2959L24.0516 46.8202C24.3436 48.4717 25.7884 49.7306 27.5231 49.7306C29.2578 49.7306 30.7027 48.4717 30.9947 46.8202L33.0695 47.2959C35.1028 47.7619 36.5236 49.5447 36.5236 51.6316V53.0469H36.5247ZM52.0647 53.0469H48.4914V49.0142C48.4914 48.6522 48.1972 48.358 47.8352 48.358C47.4731 48.358 47.1789 48.6522 47.1789 49.0142V53.0469H37.8372V51.6316C37.8372 48.9289 35.9975 46.62 33.3638 46.0163L31.0505 45.4858V44.3833C31.7428 43.8889 32.328 43.2523 32.7633 42.5173C33.308 41.9573 34.0036 41.5537 34.7823 41.3503L38.418 40.4031C38.8128 41.9081 40.1844 43.0216 41.8119 43.0216C43.4394 43.0216 44.8109 41.9081 45.2058 40.4031L48.8414 41.3503C50.7697 41.8523 52.0647 43.5291 52.0647 45.5208V53.0469ZM50.4973 40.6055C50.0883 40.3812 49.6453 40.2041 49.1728 40.0805L45.3217 39.0764V37.4216C46.69 36.6373 47.7728 35.4091 48.3722 33.9347C49.2898 35.8192 50.9447 37.3013 53.0217 37.9739C52.8489 39.3028 51.8317 40.3736 50.4973 40.6055ZM19.4742 14.0963C21.8116 14.0963 23.742 12.1986 23.7836 9.86344C23.7891 9.70703 23.7388 9.55062 23.6359 9.42484L20.8622 6.04188H25.7545C25.9777 6.80641 26.5814 7.40906 27.3448 7.63219V19.2216H25.2678C24.9058 19.2216 24.6116 19.5158 24.6116 19.8778C24.6116 20.2398 24.9058 20.5341 25.2678 20.5341H30.7333C31.0953 20.5341 31.3895 20.2398 31.3895 19.8778C31.3895 19.5158 31.0953 19.2216 30.7333 19.2216H28.6562V7.63219C29.4208 7.40906 30.0234 6.80531 30.2466 6.04188H35.1389L32.3641 9.42484C32.2612 9.55062 32.2109 9.70703 32.2164 9.86344C32.258 12.1986 34.1873 14.0963 36.5258 14.0963C38.8642 14.0963 40.7936 12.1986 40.8352 9.86344C40.8406 9.70703 40.7903 9.55062 40.6875 9.42484L37.0333 4.97C36.9086 4.81797 36.7227 4.72938 36.5258 4.72938H30.2466C30.0234 3.96484 29.4197 3.36219 28.6562 3.13906V2.29688C28.6562 1.93484 28.362 1.64062 28 1.64062C27.638 1.64062 27.3438 1.93484 27.3438 2.29688V3.13906C26.5792 3.36219 25.9766 3.96594 25.7534 4.72938H19.4742C19.2773 4.72938 19.0914 4.81797 18.9667 4.97L15.3125 9.42484C15.2097 9.55062 15.1594 9.70703 15.1648 9.86344C15.2064 12.1986 17.1369 14.0963 19.4742 14.0963ZM36.5258 12.7837C35.1258 12.7837 33.9369 11.8048 33.6153 10.4967H39.4373C39.1147 11.8059 37.9258 12.7837 36.5258 12.7837ZM38.7931 9.18422H34.2595L36.5269 6.42031L38.7931 9.18422ZM28 4.35531C28.5677 4.35531 29.0303 4.81688 29.0303 5.38563C29.0303 5.95438 28.5688 6.41594 28 6.41594C27.4312 6.41594 26.9697 5.95438 26.9697 5.38563C26.9697 4.81688 27.4323 4.35531 28 4.35531ZM19.4742 12.7837C18.0742 12.7837 16.8853 11.8048 16.5638 10.4967H22.3858C22.0631 11.8059 20.8742 12.7837 19.4742 12.7837ZM19.4742 6.42031L21.7416 9.18422H17.208L19.4742 6.42031Z" stroke="#736D6A" stroke-width="0.4" mask="url(#path-1-outside-1_788_65)"/>
</svg>
