<svg width="56" height="56" viewBox="0 0 56 56" fill="none" xmlns="http://www.w3.org/2000/svg">
<path d="M56 17.1612C56 12.5771 54.2149 8.26766 50.9736 5.02633C47.7322 1.785 43.4226 0 38.8387 0C38.8385 0 38.839 0 38.8387 0C34.8416 0 31.0528 1.358 27.9992 3.85459C24.9434 1.36336 21.1253 0 17.1613 0C17.161 0 17.1614 0 17.1612 0C12.5776 0 8.26755 1.78522 5.02644 5.02633C1.78511 8.26766 0 12.5774 0 17.1613C0 22.9473 2.69336 28.48 7.22586 32.056V36.1291C7.22586 37.1252 8.03633 37.9355 9.0323 37.9355H14.4516V38.3998C11.228 39.538 9.0323 42.5951 9.0323 46.0646V47.871C9.0323 52.3534 12.679 56.0001 17.1614 56.0001C19.8722 56.0001 22.4143 54.6282 23.9176 52.3872H26.1936C26.887 52.3872 27.5203 52.1251 28 51.695C28.4797 52.1251 29.113 52.3872 29.8064 52.3872H32.0825C33.5859 54.6281 36.128 56 38.8387 56C43.3211 56 46.9678 52.3533 46.9678 47.8709V46.0645C46.9678 42.595 44.7721 39.5379 41.5485 38.3997V37.9354H46.9678C47.9639 37.9354 48.7743 37.1249 48.7743 36.129V32.0558C53.3066 28.48 56 22.9472 56 17.1612ZM17.1613 1.80644C20.617 1.80644 23.9482 2.96494 26.6457 5.08594C25.7857 5.95405 25.0297 6.89795 24.3836 7.90234C22.3267 6.29398 19.8013 5.41942 17.1613 5.41942C14.0065 5.41942 11.1385 6.67034 9.02672 8.70198L9.00922 8.70789C8.2787 8.95136 7.48683 8.76433 6.94236 8.22008C6.3992 7.67659 6.21206 6.88713 6.45312 6.15792C9.3357 3.3507 13.1295 1.80644 17.1613 1.80644ZM17.1613 7.22586C19.4837 7.22586 21.7001 8.02812 23.4762 9.49397C22.2998 11.8454 21.6774 14.4554 21.6774 17.1614C21.6774 19.8635 22.2663 22.5097 23.354 24.9281C21.5984 26.3296 19.4243 27.0969 17.1613 27.0969C11.6829 27.0969 7.22575 22.6399 7.22575 17.1614C7.22575 11.6829 11.6829 7.22586 17.1613 7.22586ZM8.43741 30.7097C4.28061 27.4769 1.80644 22.4355 1.80644 17.1612C1.80644 13.8532 2.84605 10.7052 4.76973 8.08927C4.95731 8.60748 5.25722 9.08928 5.66519 9.49703C6.17958 10.0114 6.81067 10.3566 7.48563 10.5168C6.18319 12.4076 5.41942 14.6967 5.41942 17.1612C5.41942 23.6357 10.6868 28.9031 17.1614 28.9031C19.7109 28.9031 22.166 28.0806 24.1873 26.5687C24.8943 27.8074 25.7409 28.9674 26.7122 30.0235C26.4434 30.2609 26.1671 30.4897 25.8844 30.7095L8.43741 30.7097ZM30.7097 37.9355H36.129V38.3998C32.9054 39.538 30.7097 42.5951 30.7097 46.0646V46.9678H29.8064C29.113 46.9678 28.4797 47.23 28 47.66C27.5203 47.23 26.887 46.9678 26.1936 46.9678H25.2903V46.0646C25.2903 42.5951 23.0946 39.538 19.871 38.3998V37.9355H25.2903C26.2864 37.9355 27.0968 37.125 27.0968 36.1291V32.0551C27.4052 31.8119 27.7062 31.5584 27.9992 31.2965C28.2916 31.5586 28.5935 31.8116 28.9032 32.0561V36.1291C28.9032 37.125 29.7137 37.9355 30.7097 37.9355ZM40.8562 44.258C41.2942 44.7488 41.5484 45.3906 41.5484 46.0645V47.8709C41.5484 49.3651 40.3329 50.5806 38.8387 50.5806C38.4912 50.5806 38.1546 50.5143 37.84 50.3893C37.9019 50.1622 37.9355 49.9237 37.9355 49.6774C37.9355 48.4999 37.1803 47.4959 36.1291 47.123V46.0645C36.1291 45.3905 36.3834 44.7488 36.8213 44.258C37.3178 44.8119 38.0382 45.1613 38.8387 45.1613C39.6394 45.1613 40.3596 44.8119 40.8562 44.258ZM36.1291 42.4536C35.0039 43.3004 34.3226 44.6392 34.3226 46.0646V46.9678H32.5161V46.0646C32.5161 43.5882 33.9547 41.383 36.129 40.3524V42.4517C36.1291 42.4523 36.1291 42.4528 36.1291 42.4536ZM18.0645 49.6775C18.0645 49.9238 18.0982 50.1624 18.16 50.3894C17.8454 50.5144 17.5088 50.5807 17.1613 50.5807C15.6671 50.5807 14.4516 49.3652 14.4516 47.871V46.0646C14.4516 45.3906 14.7059 44.7489 15.1438 44.2582C15.6403 44.812 16.3608 45.1614 17.1613 45.1614C17.9619 45.1614 18.6822 44.812 19.1787 44.2582C19.6167 44.7489 19.8709 45.3907 19.8709 46.0646V47.1231C18.8197 47.4959 18.0645 48.4999 18.0645 49.6775ZM19.8709 42.4536C19.8709 42.4529 19.8709 42.4524 19.8709 42.4516V40.3523C22.0452 41.3829 23.4838 43.5882 23.4838 46.0645V46.9677H21.6774V46.0645C21.6775 44.6391 20.9961 43.3003 19.8709 42.4536ZM9.0323 32.5161H25.2906L25.2914 36.129C25.2914 36.129 25.2911 36.129 25.2903 36.129H9.0323V32.5161ZM18.0645 37.9355V42.4516C18.0645 42.9496 17.6593 43.3548 17.1613 43.3548C16.6633 43.3548 16.258 42.9496 16.258 42.4516V37.9355H18.0645ZM17.1613 54.1936C13.675 54.1936 10.8387 51.3573 10.8387 47.871V46.0646C10.8387 43.5882 12.2773 41.383 14.4516 40.3524V42.4517C14.4516 42.4524 14.4516 42.4529 14.4516 42.4537C13.3265 43.3005 12.6452 44.6393 12.6452 46.0647V47.8711C12.6452 50.3613 14.6711 52.3872 17.1613 52.3872C17.8866 52.3872 18.5852 52.2177 19.2171 51.8932C19.658 52.204 20.1949 52.3872 20.7741 52.3872H21.5786C20.4098 53.5267 18.8265 54.1936 17.1613 54.1936ZM26.1936 50.5807H20.7743C20.2763 50.5807 19.871 50.1755 19.871 49.6775C19.871 49.1795 20.2763 48.7743 20.7743 48.7743H26.1936C26.6915 48.7743 27.0968 49.1795 27.0968 49.6775C27.0968 50.1755 26.6915 50.5807 26.1936 50.5807ZM28.9032 49.6775C28.9032 49.1795 29.3085 48.7743 29.8064 48.7743H35.2257C35.7237 48.7743 36.129 49.1795 36.129 49.6775C36.129 50.1755 35.7237 50.5807 35.2257 50.5807H29.8064C29.3085 50.5807 28.9032 50.1755 28.9032 49.6775ZM45.1613 46.0645V47.8709C45.1613 51.3571 42.325 54.1935 38.8387 54.1935C37.1734 54.1935 35.5901 53.5266 34.4214 52.387H35.2259C35.805 52.387 36.342 52.2038 36.7829 51.893C37.4149 52.2175 38.1134 52.387 38.8387 52.387C41.3289 52.387 43.3548 50.3611 43.3548 47.8709V46.0645C43.3548 44.6391 42.6734 43.3003 41.5484 42.4535C41.5484 42.4528 41.5484 42.4523 41.5484 42.4515V40.3522C43.7227 41.383 45.1613 43.5882 45.1613 46.0645ZM39.742 42.4516C39.742 42.9496 39.3367 43.3548 38.8387 43.3548C38.3407 43.3548 37.9355 42.9496 37.9355 42.4516V37.9355H39.742V42.4516ZM46.9677 36.1291H30.7097V32.5161H46.9679L46.9688 36.129C46.9689 36.1291 46.9686 36.1291 46.9677 36.1291ZM47.5626 30.7097H30.1148C25.958 27.4769 23.4838 22.4355 23.4838 17.1612C23.4838 13.8532 24.5234 10.7052 26.4471 8.08927C26.6347 8.60748 26.9346 9.08928 27.3425 9.49703C27.8569 10.0114 28.488 10.3566 29.163 10.5168C27.8605 12.4076 27.0968 14.6967 27.0968 17.1612C27.0968 23.6357 32.3642 28.9031 38.8387 28.9031C45.3133 28.9031 50.5807 23.6357 50.5807 17.1612C50.5807 10.6866 45.3133 5.41931 38.8387 5.41931C35.6839 5.41931 32.816 6.67023 30.7042 8.70187L30.6867 8.70778C29.9562 8.95125 29.1643 8.76422 28.6198 8.21997C28.0767 7.67681 27.8894 6.88723 28.1305 6.15814C31.0132 3.35081 34.807 1.80655 38.8387 1.80655C42.9402 1.80655 46.7961 3.40364 49.6963 6.30383C52.5965 9.20402 54.1936 13.0599 54.1936 17.1614C54.1936 22.4357 51.7194 27.477 47.5626 30.7097ZM38.8387 7.22586C44.3171 7.22586 48.7743 11.6829 48.7743 17.1614C48.7743 22.6399 44.3172 27.0969 38.8387 27.0969C33.3602 27.0969 28.9032 22.6399 28.9032 17.1614C28.9032 11.6829 33.3602 7.22586 38.8387 7.22586Z" fill="#736D6A"/>
</svg>
