<svg width="64" height="64" viewBox="0 0 64 64" fill="none" xmlns="http://www.w3.org/2000/svg">
<path d="M64.0002 25.5999V23.4666C61.0038 23.4666 58.1374 24.838 56.3324 27.1355L47.4817 38.3999H46.3084L42.3541 34.4456C42.1541 34.2457 41.883 34.1333 41.6002 34.1332H37.3336C37.1935 34.1332 37.0548 34.1608 36.9254 34.2144C36.7959 34.268 36.6783 34.3466 36.5793 34.4456L33.3793 37.6456L34.8878 39.1542L37.7753 36.2666H41.1585L43.2918 38.3999H42.2589C41.8625 38.3983 41.4736 38.5079 41.1365 38.7163C40.7993 38.9247 40.5274 39.2236 40.3516 39.5788L40.2376 39.8067C39.971 39.5832 39.6539 39.4283 39.3138 39.3554C38.9737 39.2825 38.621 39.2939 38.2863 39.3886C37.9516 39.4832 37.6451 39.6583 37.3936 39.8985C37.142 40.1387 36.953 40.4367 36.843 40.7667L36.6697 41.2874C36.5136 41.2631 36.3558 41.251 36.1978 41.251C35.3682 41.2516 34.5727 41.5812 33.9858 42.1675C33.3989 42.7538 33.0684 43.5489 33.0669 44.3786V52.2666C33.0679 53.1149 33.4053 53.9283 34.0052 54.5282C34.6051 55.1281 35.4185 55.4656 36.2669 55.4666H38.4002C38.4002 57.7297 39.2993 59.9002 40.8996 61.5005C42.4999 63.1008 44.6704 63.9999 46.9336 63.9999C49.1967 63.9999 51.3672 63.1008 52.9675 61.5005C54.5678 59.9002 55.4669 57.7297 55.4669 55.4666H64.0002V53.3332H55.1969C54.7237 51.5014 53.6553 49.8787 52.1596 48.7202C50.6638 47.5617 48.8255 46.9331 46.9336 46.9331C45.0416 46.9331 43.2033 47.5617 41.7076 48.7202C40.2118 49.8787 39.1434 51.5014 38.6702 53.3332H36.2669C35.9841 53.3329 35.713 53.2204 35.513 53.0204C35.313 52.8205 35.2005 52.5494 35.2002 52.2666V44.3786C35.2012 44.1146 35.3066 43.8617 35.4936 43.6753C35.6805 43.4889 35.9336 43.3841 36.1976 43.3839C36.392 43.3847 36.5817 43.4441 36.742 43.5542C36.8784 43.6451 37.034 43.7034 37.1966 43.7244C37.3593 43.7455 37.5245 43.7288 37.6797 43.6756C37.8348 43.6224 37.9755 43.5341 38.091 43.4177C38.2065 43.3012 38.2935 43.1597 38.3454 43.0042L38.8654 41.441L39.7788 42.3542C39.8983 42.4737 40.0445 42.5631 40.2053 42.615C40.3661 42.6669 40.537 42.6799 40.7038 42.6528C40.8707 42.6257 41.0287 42.5594 41.1648 42.4593C41.301 42.3592 41.4114 42.2281 41.487 42.077L42.2589 40.5332H64.0002V38.3999H50.1949L58.01 28.4532C59.3928 26.6932 61.6881 25.5999 64.0002 25.5999ZM46.9336 49.0666C48.1994 49.0666 49.4367 49.4419 50.4892 50.1451C51.5417 50.8484 52.362 51.8479 52.8464 53.0174C53.3308 54.1868 53.4575 55.4737 53.2106 56.7151C52.9636 57.9566 52.3541 59.097 51.459 59.992C50.564 60.8871 49.4236 61.4966 48.1821 61.7436C46.9407 61.9905 45.6538 61.8638 44.4844 61.3794C43.3149 60.895 42.3154 60.0747 41.6122 59.0222C40.9089 57.9697 40.5336 56.7323 40.5336 55.4666C40.5354 53.7697 41.2103 52.143 42.4101 50.9431C43.61 49.7433 45.2368 49.0684 46.9336 49.0666Z" fill="#3C2E25"/>
<path d="M46.9332 59.7333C47.777 59.7333 48.602 59.4831 49.3036 59.0142C50.0053 58.5454 50.5521 57.879 50.8751 57.0994C51.198 56.3198 51.2825 55.4619 51.1179 54.6342C50.9532 53.8066 50.5469 53.0463 49.9502 52.4496C49.3535 51.8529 48.5932 51.4466 47.7656 51.2819C46.9379 51.1173 46.08 51.2018 45.3004 51.5247C44.5208 51.8477 43.8544 52.3945 43.3856 53.0962C42.9167 53.7978 42.6665 54.6228 42.6665 55.4666C42.6678 56.5978 43.1177 57.6823 43.9176 58.4822C44.7175 59.2821 45.802 59.732 46.9332 59.7333ZM46.9332 53.3333C47.3551 53.3333 47.7676 53.4584 48.1184 53.6928C48.4692 53.9272 48.7426 54.2604 48.9041 54.6502C49.0656 55.04 49.1078 55.469 49.0255 55.8828C48.9432 56.2966 48.74 56.6768 48.4417 56.9751C48.1433 57.2735 47.7632 57.4766 47.3494 57.559C46.9355 57.6413 46.5066 57.599 46.1168 57.4376C45.727 57.2761 45.3938 57.0027 45.1594 56.6518C44.925 56.301 44.7998 55.8886 44.7998 55.4666C44.8005 54.901 45.0255 54.3588 45.4254 53.9589C45.8253 53.5589 46.3676 53.334 46.9332 53.3333Z" fill="#3C2E25"/>
<path d="M17.0665 51.2C16.2226 51.2 15.3977 51.4502 14.696 51.919C13.9944 52.3878 13.4475 53.0542 13.1246 53.8338C12.8017 54.6135 12.7172 55.4714 12.8818 56.299C13.0464 57.1267 13.4528 57.8869 14.0495 58.4836C14.6462 59.0803 15.4064 59.4867 16.2341 59.6513C17.0617 59.8159 17.9196 59.7314 18.6993 59.4085C19.4789 59.0856 20.1453 58.5387 20.6141 57.8371C21.0829 57.1354 21.3331 56.3105 21.3331 55.4666C21.3319 54.3354 20.8819 53.2509 20.0821 52.451C19.2822 51.6512 18.1977 51.2012 17.0665 51.2ZM17.0665 57.6C16.6445 57.6 16.2321 57.4748 15.8813 57.2404C15.5304 57.006 15.257 56.6728 15.0955 56.283C14.9341 55.8932 14.8918 55.4643 14.9741 55.0504C15.0564 54.6366 15.2596 54.2565 15.558 53.9581C15.8563 53.6598 16.2365 53.4566 16.6503 53.3743C17.0641 53.292 17.4931 53.3342 17.8829 53.4957C18.2727 53.6571 18.6059 53.9306 18.8403 54.2814C19.0747 54.6322 19.1998 55.0447 19.1998 55.4666C19.1991 56.0322 18.9742 56.5744 18.5742 56.9744C18.1743 57.3743 17.6321 57.5993 17.0665 57.6Z" fill="#3C2E25"/>
<path d="M27.8027 41.2506C27.6447 41.2506 27.4869 41.2627 27.3308 41.287L27.1575 40.767C27.0475 40.437 26.8585 40.1389 26.6069 39.8987C26.3553 39.6585 26.0488 39.4834 25.7141 39.3887C25.3794 39.2941 25.0267 39.2827 24.6866 39.3556C24.3464 39.4285 24.0293 39.5834 23.7628 39.807L23.6496 39.5803C23.4739 39.2247 23.2019 38.9255 22.8645 38.7168C22.5272 38.5081 22.138 38.3983 21.7413 38.3999H20.7085L22.8419 36.2666H26.2251L29.1125 39.1542L30.6211 37.6456L27.4211 34.4456C27.322 34.3466 27.2044 34.268 27.0749 34.2144C26.9455 34.1608 26.8068 34.1332 26.6667 34.1332H22.4C22.2599 34.1332 22.1212 34.1608 21.9918 34.2144C21.8624 34.268 21.7448 34.3466 21.6457 34.4456L17.6915 38.3999H16.5181L7.66747 27.1355C5.8628 24.838 2.9964 23.4666 0 23.4666V25.5999C2.31213 25.5999 4.60747 26.6932 5.99027 28.4532L13.8053 38.3999H0V40.5332H21.7407L22.5127 42.0772C22.5883 42.2284 22.6987 42.3594 22.8349 42.4595C22.971 42.5597 23.129 42.626 23.2959 42.653C23.4627 42.6801 23.6336 42.6672 23.7944 42.6152C23.9552 42.5633 24.1014 42.4739 24.2209 42.3544L25.1335 41.4419L25.6548 43.0044C25.7067 43.16 25.7938 43.3015 25.9092 43.418C26.0247 43.5344 26.1655 43.6227 26.3206 43.6759C26.4757 43.7291 26.6411 43.7458 26.8037 43.7248C26.9664 43.7037 27.1219 43.6454 27.2584 43.5544C27.4186 43.4443 27.6083 43.385 27.8027 43.3841C28.0666 43.3844 28.3198 43.4892 28.5067 43.6756C28.6936 43.862 28.799 44.1148 28.8 44.3788V52.2666C28.7997 52.5494 28.6872 52.8205 28.4872 53.0204C28.2873 53.2204 28.0161 53.3329 27.7333 53.3332H25.33C24.8569 51.5014 23.7884 49.8787 22.2927 48.7202C20.7969 47.5617 18.9586 46.9331 17.0667 46.9331C15.1747 46.9331 13.3364 47.5617 11.8407 48.7202C10.3449 49.8787 9.27648 51.5014 8.80333 53.3332H0V55.4666H8.53333C8.53333 57.7297 9.43238 59.9002 11.0327 61.5005C12.633 63.1008 14.8035 63.9999 17.0667 63.9999C19.3298 63.9999 21.5003 63.1008 23.1006 61.5005C24.701 59.9002 25.6 57.7297 25.6 55.4666H27.7333C28.5817 55.4656 29.3951 55.1281 29.995 54.5282C30.5949 53.9283 30.9323 53.1149 30.9333 52.2666V44.3786C30.9319 43.5489 30.6015 42.7537 30.0147 42.1673C29.4278 41.581 28.6323 41.2513 27.8027 41.2506ZM17.0667 61.8666C15.8009 61.8666 14.5635 61.4912 13.511 60.788C12.4585 60.0847 11.6382 59.0852 11.1538 57.9157C10.6694 56.7463 10.5427 55.4594 10.7896 54.218C11.0366 52.9765 11.6461 51.8361 12.5412 50.9411C13.4362 50.046 14.5766 49.4365 15.8181 49.1895C17.0596 48.9426 18.3464 49.0693 19.5158 49.5537C20.6853 50.0381 21.6848 50.8584 22.3881 51.9109C23.0913 52.9634 23.4667 54.2008 23.4667 55.4666C23.4648 57.1634 22.7899 58.7901 21.5901 59.99C20.3903 61.1898 18.7635 61.8647 17.0667 61.8666Z" fill="#3C2E25"/>
<path d="M31.9998 4.2666C31.3669 4.2666 30.7482 4.45428 30.222 4.8059C29.6957 5.15752 29.2856 5.65729 29.0434 6.24201C28.8012 6.82674 28.7378 7.47015 28.8613 8.09089C28.9848 8.71163 29.2895 9.28182 29.7371 9.72934C30.1846 10.1769 30.7548 10.4816 31.3755 10.6051C31.9963 10.7286 32.6397 10.6652 33.2244 10.423C33.8091 10.1808 34.3089 9.77066 34.6605 9.24443C35.0121 8.71819 35.1998 8.0995 35.1998 7.4666C35.1988 6.61821 34.8614 5.80485 34.2615 5.20495C33.6616 4.60505 32.8482 4.26759 31.9998 4.2666ZM31.9998 8.53327C31.7888 8.53327 31.5826 8.47071 31.4072 8.3535C31.2318 8.2363 31.0951 8.06971 31.0143 7.8748C30.9336 7.67989 30.9125 7.46542 30.9536 7.25851C30.9948 7.05159 31.0964 6.86153 31.2456 6.71235C31.3947 6.56318 31.5848 6.46159 31.7917 6.42043C31.9986 6.37927 32.2131 6.4004 32.408 6.48113C32.6029 6.56186 32.7695 6.69858 32.8867 6.87399C33.0039 7.04941 33.0665 7.25563 33.0665 7.4666C33.0662 7.7494 32.9537 8.02053 32.7537 8.2205C32.5537 8.42047 32.2826 8.53295 31.9998 8.53327Z" fill="#3C2E25"/>
<path d="M31.9998 12.8C31.3669 12.8 30.7482 12.9877 30.222 13.3393C29.6957 13.691 29.2856 14.1907 29.0434 14.7755C28.8012 15.3602 28.7378 16.0036 28.8613 16.6243C28.9848 17.2451 29.2895 17.8153 29.7371 18.2628C30.1846 18.7103 30.7548 19.0151 31.3755 19.1386C31.9963 19.262 32.6397 19.1987 33.2244 18.9565C33.8091 18.7143 34.3089 18.3041 34.6605 17.7779C35.0121 17.2516 35.1998 16.6329 35.1998 16C35.1988 15.1517 34.8614 14.3383 34.2615 13.7384C33.6616 13.1385 32.8482 12.801 31.9998 12.8ZM31.9998 17.0667C31.7888 17.0667 31.5826 17.0042 31.4072 16.887C31.2318 16.7697 31.0951 16.6032 31.0143 16.4082C30.9336 16.2133 30.9125 15.9989 30.9536 15.792C30.9948 15.585 31.0964 15.395 31.2456 15.2458C31.3947 15.0966 31.5848 14.995 31.7917 14.9539C31.9986 14.9127 32.2131 14.9338 32.408 15.0146C32.6029 15.0953 32.7695 15.232 32.8867 15.4074C33.0039 15.5829 33.0665 15.7891 33.0665 16C33.0662 16.2828 32.9537 16.554 32.7537 16.7539C32.5537 16.9539 32.2826 17.0664 31.9998 17.0667Z" fill="#3C2E25"/>
<path d="M31.9998 21.3333C31.3669 21.3333 30.7482 21.5209 30.222 21.8725C29.6957 22.2242 29.2856 22.7239 29.0434 23.3087C28.8012 23.8934 28.7378 24.5368 28.8613 25.1575C28.9848 25.7783 29.2895 26.3485 29.7371 26.796C30.1846 27.2435 30.7548 27.5483 31.3755 27.6718C31.9963 27.7952 32.6397 27.7319 33.2244 27.4897C33.8091 27.2475 34.3089 26.8373 34.6605 26.3111C35.0121 25.7848 35.1998 25.1662 35.1998 24.5333C35.1988 23.6849 34.8614 22.8715 34.2615 22.2716C33.6616 21.6717 32.8482 21.3342 31.9998 21.3333ZM31.9998 25.5999C31.7888 25.5999 31.5826 25.5374 31.4072 25.4202C31.2318 25.3029 31.0951 25.1364 31.0143 24.9414C30.9336 24.7465 30.9125 24.5321 30.9536 24.3252C30.9948 24.1182 31.0964 23.9282 31.2456 23.779C31.3947 23.6298 31.5848 23.5282 31.7917 23.4871C31.9986 23.4459 32.2131 23.467 32.408 23.5478C32.6029 23.6285 32.7695 23.7652 32.8867 23.9406C33.0039 24.1161 33.0665 24.3223 33.0665 24.5333C33.0662 24.8161 32.9537 25.0872 32.7537 25.2871C32.5537 25.4871 32.2826 25.5996 31.9998 25.5999Z" fill="#3C2E25"/>
<path d="M20.2668 21.3333C20.085 21.3333 19.9062 21.3798 19.7474 21.4684C19.5886 21.5569 19.4551 21.6846 19.3595 21.8393C19.2639 21.9939 19.2094 22.1705 19.2013 22.3521C19.1931 22.5337 19.2315 22.7144 19.3128 22.8771L20.8566 25.9643C21.1207 26.4971 21.5288 26.9453 22.0347 27.258C22.5406 27.5707 23.124 27.7354 23.7187 27.7333H24.5335V30.9333C24.5335 31.2162 24.6459 31.4875 24.8459 31.6876C25.0459 31.8876 25.3173 32 25.6002 32H38.4002C38.6831 32 38.9544 31.8876 39.1544 31.6876C39.3544 31.4875 39.4668 31.2162 39.4668 30.9333V27.7333H40.2816C40.8763 27.7354 41.4597 27.5707 41.9656 27.258C42.4715 26.9454 42.8796 26.4972 43.1438 25.9644L44.6875 22.8771C44.7688 22.7144 44.8072 22.5337 44.799 22.3521C44.7909 22.1705 44.7364 21.9939 44.6408 21.8393C44.5453 21.6846 44.4117 21.5569 44.2529 21.4684C44.0941 21.3798 43.9153 21.3333 43.7335 21.3333H39.4668V19.2H40.2816C40.8763 19.202 41.4597 19.0374 41.9656 18.7247C42.4715 18.4121 42.8796 17.9639 43.1438 17.4311L44.6875 14.3437C44.7688 14.1811 44.8072 14.0004 44.799 13.8188C44.7909 13.6371 44.7364 13.4606 44.6408 13.3059C44.5453 13.1513 44.4117 13.0236 44.2529 12.935C44.0941 12.8465 43.9153 12.8 43.7335 12.8H39.4668V10.6667H40.2816C40.8763 10.6687 41.4597 10.504 41.9656 10.1914C42.4715 9.87872 42.8796 9.43056 43.1438 8.89773L44.6875 5.8104C44.7688 5.64778 44.8072 5.46707 44.799 5.28543C44.7909 5.10379 44.7364 4.92726 44.6408 4.77259C44.5453 4.61792 44.4117 4.49025 44.2529 4.4017C44.0941 4.31316 43.9153 4.26667 43.7335 4.26667H39.4668V1.06667C39.4668 0.783769 39.3544 0.512458 39.1544 0.312419C38.9544 0.112381 38.6831 0 38.4002 0H25.6002C25.3173 0 25.0459 0.112381 24.8459 0.312419C24.6459 0.512458 24.5335 0.783769 24.5335 1.06667V4.26667H20.2668C20.085 4.26667 19.9062 4.31316 19.7474 4.4017C19.5886 4.49025 19.4551 4.61792 19.3595 4.77259C19.2639 4.92726 19.2094 5.10379 19.2013 5.28543C19.1931 5.46707 19.2315 5.64778 19.3128 5.8104L20.8566 8.8976C21.1207 9.43047 21.5288 9.87866 22.0347 10.1913C22.5406 10.504 23.124 10.6687 23.7187 10.6667H24.5335V12.8H20.2668C20.085 12.8 19.9062 12.8465 19.7474 12.935C19.5886 13.0236 19.4551 13.1513 19.3595 13.3059C19.2639 13.4606 19.2094 13.6371 19.2013 13.8188C19.1931 14.0004 19.2315 14.1811 19.3128 14.3437L20.8566 17.4309C21.1207 17.9638 21.5288 18.412 22.0347 18.7247C22.5406 19.0374 23.124 19.202 23.7187 19.2H24.5335V21.3333H20.2668ZM39.4668 6.4H42.0076L41.2358 7.94373C41.1477 8.12133 41.0116 8.2707 40.843 8.37491C40.6743 8.47912 40.4799 8.534 40.2816 8.53333H39.4668V6.4ZM39.4668 14.9333H42.0076L41.2358 16.4771C41.1477 16.6547 41.0116 16.804 40.843 16.9082C40.6743 17.0124 40.4799 17.0673 40.2816 17.0667H39.4668V14.9333ZM39.4668 23.4667H42.0076L41.2358 25.0104C41.1477 25.188 41.0116 25.3374 40.843 25.4416C40.6743 25.5458 40.4799 25.6007 40.2816 25.6H39.4668V23.4667ZM26.6668 2.13333H37.3335V29.8667H26.6668V2.13333ZM23.7187 8.53333C23.5204 8.534 23.326 8.47911 23.1573 8.37487C22.9887 8.27063 22.8526 8.12123 22.7646 7.9436L21.9927 6.4H24.5335V8.53333H23.7187ZM23.7187 17.0667C23.5204 17.0673 23.326 17.0124 23.1573 16.9082C22.9887 16.804 22.8526 16.6546 22.7646 16.4769L21.9927 14.9333H24.5335V17.0667H23.7187ZM24.5335 25.6H23.7187C23.5204 25.6007 23.326 25.5458 23.1573 25.4415C22.9887 25.3373 22.8526 25.1879 22.7646 25.0103L21.9927 23.4667H24.5335V25.6Z" fill="#3C2E25"/>
<path d="M53.3331 5.33325H46.9331V7.46659H53.3331V5.33325Z" fill="#3C2E25"/>
<path d="M51.8705 0.0761355L46.5371 2.20923L47.3293 4.19001L52.6627 2.05692L51.8705 0.0761355Z" fill="#3C2E25"/>
<path d="M47.3294 8.60933L46.5371 10.5901L51.8704 12.7234L52.6627 10.7426L47.3294 8.60933Z" fill="#3C2E25"/>
<path d="M17.0665 5.33325H10.6665V7.46659H17.0665V5.33325Z" fill="#3C2E25"/>
<path d="M12.1292 0.0763726L11.3369 2.05713L16.6702 4.19041L17.4625 2.20965L12.1292 0.0763726Z" fill="#3C2E25"/>
<path d="M16.6703 8.60983L11.3369 10.7429L12.1291 12.7237L17.4625 10.5906L16.6703 8.60983Z" fill="#3C2E25"/>
</svg>
