<svg width="56" height="56" viewBox="0 0 56 56" fill="none" xmlns="http://www.w3.org/2000/svg">
<g clip-path="url(#clip0_786_11956)">
<path fill-rule="evenodd" clip-rule="evenodd" d="M53.4023 51.3432H38.7676C38.0178 51.3432 36.0948 51.3248 35.584 51.4912C35.1713 51.625 34.6351 52.092 33.9913 52.8792L32.8258 54.303H23.1733L22.0083 52.8792C21.3603 52.0868 20.7642 51.5461 20.3021 51.4625C19.5433 51.3252 18.1139 51.3431 17.2321 51.3431H2.59724V49.4458H17.2734C18.2672 49.4637 19.8317 49.4503 20.6508 49.5974C21.9688 49.8349 22.9506 51.0348 23.818 52.0938C23.9789 52.2912 24.2199 52.4048 24.4746 52.4048H31.5248C31.7794 52.4048 32.0204 52.291 32.1806 52.0938C33.0488 51.0347 34.0306 49.8347 35.3485 49.5974C36.1684 49.4503 37.7307 49.4637 38.7253 49.4458H53.4022V51.3432H53.4023ZM6.1915 43.6265V47.7491H17.2886L18.2933 47.7663C19.2036 47.7734 20.1461 47.7827 20.9514 47.9279C22.7162 48.2454 23.9534 49.5956 24.8751 50.7084H31.1244C32.0476 49.5957 33.2827 48.2456 35.0475 47.9279C35.8534 47.7828 36.7953 47.7734 37.7062 47.7663L38.711 47.7491H49.8081V43.6265H38.6331C38.0946 43.6494 37.6132 43.6607 37.1485 43.6708C36.1031 43.693 35.2771 43.7101 34.464 43.8574C32.328 44.2407 30.4816 45.4593 28.6559 47.6905C28.3182 48.1032 27.6827 48.1047 27.3438 47.6905C25.5174 45.4593 23.6709 44.2408 21.5357 43.8574C20.7218 43.7101 19.896 43.693 18.8505 43.6708C18.3856 43.6607 17.9052 43.6494 17.3666 43.6265H6.1915ZM16.6377 31.649L24.2144 31.7406V42.9521C21.7856 41.8045 19.9973 42.0608 17.4209 41.9301L16.6379 41.9295V31.649H16.6377ZM19.988 23.5218L23.6101 30.0358L15.7081 29.9407L19.988 23.5218ZM35.6697 22.7424H21.4955L25.5616 30.053H39.735L35.6697 22.7424ZM27.2699 7.025C26.2902 6.56808 25.6567 5.57262 25.6567 4.49209C25.6567 2.95107 26.9103 1.69672 28.4514 1.69672C29.9932 1.69672 31.2468 2.95107 31.2468 4.49209C31.2468 5.57262 30.6132 6.56808 29.6321 7.025C29.3117 7.17594 29.1172 7.50917 29.1458 7.86238L30.2091 21.0455H26.6944L27.7564 7.86238C27.7849 7.50917 27.5911 7.17581 27.2699 7.025ZM38.325 41.9395C36.9373 41.9905 35.4231 41.9599 34.1645 42.1863C31.9076 42.5924 29.8824 43.7959 27.9995 45.8555C27.323 45.1154 26.6286 44.4875 25.9114 43.9655V31.75H38.325V41.9395ZM9.43162 19.543C7.32057 19.543 5.48561 18.1821 4.82563 16.2514H14.0363C13.3776 18.1821 11.5427 19.543 9.43162 19.543ZM9.43162 6.33274L13.7023 14.5544H5.16098L9.43162 6.33274ZM51.7425 14.5544H43.2012L47.4719 6.33274L51.7425 14.5544ZM47.4719 19.543C45.3608 19.543 43.5244 18.1821 42.8665 16.2514H52.0757C51.4179 18.1821 49.5829 19.543 47.4719 19.543ZM54.2504 47.7491H51.505V42.7784C51.505 42.3093 51.1246 41.9295 50.6561 41.9295H40.0218V31.75H41.1767C41.8257 31.75 42.233 31.0536 41.9189 30.4899L36.9111 21.481C36.7601 21.2122 36.4762 21.0455 36.1688 21.0455H31.9118L30.8813 8.26943C31.9118 7.60442 32.6289 6.53884 32.8621 5.34098H46.0745L41.0515 15.0121C40.9736 15.1637 40.9407 15.3368 40.9621 15.5091C41.3747 18.7757 44.1737 21.24 47.4717 21.24C50.7698 21.24 53.5673 18.7757 53.9799 15.5091C54.0028 15.3368 53.9698 15.1637 53.8904 15.0121L53.8919 15.0115L48.2239 4.10105C48.078 3.82007 47.7884 3.64413 47.4716 3.64413H32.8621C32.4638 1.57105 30.6381 0 28.4514 0C26.2654 0 24.4396 1.57105 24.0413 3.64413H9.43162C9.11479 3.64413 8.82376 3.82007 8.67785 4.10105L3.0113 15.0115L3.01197 15.0121C2.93325 15.1637 2.90045 15.3368 2.92188 15.5091C3.33448 18.7757 6.13342 21.24 9.43149 21.24C12.7289 21.24 15.527 18.7757 15.9411 15.5091C15.9625 15.3368 15.9296 15.1637 15.8503 15.0121L15.8518 15.0115L10.8282 5.34098H24.0413C24.2744 6.53884 24.9902 7.60429 26.0208 8.26943L24.9917 21.0455H20.0531C19.7692 21.0455 19.5053 21.1893 19.3495 21.4245L19.3474 21.4231L13.4284 30.2997C13.0572 30.8579 13.4526 31.6108 14.1243 31.6183L14.9409 31.629V41.9295H5.34261C4.87418 41.9295 4.49451 42.3092 4.49451 42.7784V47.7491H1.74849C1.28006 47.7491 0.900391 48.1287 0.900391 48.5972V52.1913C0.900391 52.6597 1.28006 53.0402 1.74849 53.0402H17.2191C17.7106 53.0471 19.6876 53.0333 19.8843 53.1139C20.2133 53.2989 21.7849 55.2835 22.1155 55.6882C22.2764 55.8856 22.5174 56 22.772 56H33.2276C33.4822 56 33.7232 55.8856 33.8849 55.6882C34.2177 55.2817 35.7836 53.3007 36.1146 53.1139C36.3109 53.0333 38.2894 53.0471 38.7798 53.0402H54.2504C54.7188 53.0402 55.0993 52.6597 55.0993 52.1913V48.5972C55.0992 48.1287 54.7188 47.7491 54.2504 47.7491Z" fill="#736D6A"/>
</g>
<defs>
<clipPath id="clip0_786_11956">
<rect width="56" height="56" fill="white"/>
</clipPath>
</defs>
</svg>
