<?xml version="1.0" encoding="UTF-8"?>
<svg width="150px" height="169px" viewBox="0 0 150 169" version="1.1" xmlns="http://www.w3.org/2000/svg" xmlns:xlink="http://www.w3.org/1999/xlink">
    <!-- Generator: Sketch 46.2 (44496) - http://www.bohemiancoding.com/sketch -->
    <title>Artboard</title>
    <desc>Created with Sketch.</desc>
    <defs></defs>
    <g id="Desktop" stroke="none" stroke-width="1" fill="none" fill-rule="evenodd" opacity="0.65">
        <g id="Artboard" stroke="#822E88" stroke-width="4">
            <g id="Group-2" transform="translate(7.000000, 6.000000)">
                <circle id="Oval-7" cx="68.5" cy="88.5" r="68.5"></circle>
                <circle id="Oval-7-Copy" cx="68.5" cy="88.5" r="60.5"></circle>
                <path d="M20.5996094,17.1669922 L7.48535156,27.9121094" id="Path-14" stroke-linecap="round"></path>
                <path d="M59.4462891,2 L77.8457046,2" id="Path-15" stroke-linecap="round"></path>
                <path d="M116.536133,16.53125 L130.875,28.5546875" id="Path-16" stroke-linecap="round"></path>
                <path d="M15.4316406,30.8115234 L21.4160156,25.8837891" id="Path-17" stroke-linecap="round"></path>
                <path d="M64.4736328,10 L72.5649729,10" id="Path-18" stroke-linecap="round"></path>
                <path d="M115.4375,25.8974609 L122.325195,31.4082031" id="Path-38" stroke-linecap="round"></path>
                <path d="M18.78125,28.5273438 L24.1582031,34.9814453" id="Path-39"></path>
                <path d="M69,10.3164062 L69,18.8451584" id="Path-40"></path>
                <path d="M118.722656,28.6103516 L112.999023,35.0078125" id="Path-41"></path>
                <path d="M69,35.5 L69,44.7195445" id="Line" stroke-linecap="round" stroke-linejoin="round"></path>
                <path d="M50.6357422,39.3496094 L53.6142578,47.7714844" id="Path-42" stroke-linecap="round" stroke-linejoin="round"></path>
                <path d="M35.2226562,48.1064453 L40.8837891,55.5205078" id="Path-43" stroke-linecap="round" stroke-linejoin="round"></path>
                <path d="M23.0185547,62.46875 L31.3222656,67.1083984" id="Path-44" stroke-linecap="round" stroke-linejoin="round"></path>
                <path d="M16.90625,79.3271484 L26.5908203,81.1474609" id="Path-45" stroke-linecap="round" stroke-linejoin="round"></path>
                <path d="M16.5830078,97.8857422 L26.421875,95.9316406" id="Path-46" stroke-linecap="round" stroke-linejoin="round"></path>
                <path d="M22.9394531,114.607422 L31.5332031,109.814453" id="Path-47" stroke-linecap="round" stroke-linejoin="round"></path>
                <path d="M35.3232422,128.694336 L41.2451172,121.174805" id="Path-48" stroke-linecap="round" stroke-linejoin="round"></path>
                <path d="M50.2851562,137.84668 L53.4589844,129.181641" id="Path-49" stroke-linecap="round" stroke-linejoin="round"></path>
                <circle id="Oval-8" cx="68.5" cy="88.5" r="5.5"></circle>
                <path d="M68.6621094,94.2402344 L68.6621094,133.147663" id="Path-53"></path>
                <path d="M58,74 L61.9092335,74" id="Path-54" stroke-linecap="round"></path>
                <path d="M67,74 L70.9092335,74" id="Path-54-Copy" stroke-linecap="round"></path>
                <path d="M76,74 L79.9092335,74" id="Path-54-Copy-2" stroke-linecap="round"></path>
                <path d="M67.4775391,139.232422 C67.4775391,139.232422 101.715332,140.61084 115.316162,106.806396" id="Path-50" stroke-linecap="round"></path>
                <path d="M115.131836,107.316406 C115.131836,107.316406 123.576172,89.6230469 114.947388,69.0762939" id="Path-51" stroke-linecap="round"></path>
                <path d="M86.4628906,41.2502441 C86.4628906,41.2502441 93.5825195,43.6499023 98.3393555,48.0192871" id="Path-52" stroke-linecap="round"></path>
                <path d="M103.293457,51.9421387 C103.293457,51.9421387 108.062744,55.9716797 111.56958,62.5429688" id="Path-55" stroke-linecap="round"></path>
            </g>
        </g>
    </g>
</svg>