<?xml version="1.0" encoding="UTF-8"?>
<svg width="150px" height="169px" viewBox="0 0 150 169" version="1.1" xmlns="http://www.w3.org/2000/svg" xmlns:xlink="http://www.w3.org/1999/xlink">
    <!-- Generator: Sketch 46.2 (44496) - http://www.bohemiancoding.com/sketch -->
    <title>Artboard</title>
    <desc>Created with Sketch.</desc>
    <defs></defs>
    <g id="Desktop" stroke="none" stroke-width="1" fill="none" fill-rule="evenodd" stroke-linecap="round" opacity="0.65">
        <g id="Artboard" stroke="#822E88" stroke-width="4">
            <g id="Group-4" transform="translate(6.000000, 7.000000)">
                <path d="M0.780382191,32.3079725 C0.780382191,32.3079725 -12.0207147,134.653573 68.1621955,154.780487" id="Path-8" stroke-linejoin="round"></path>
                <path d="M0.895454545,32.1341463 L45.4324663,11.3414634" id="Path-9" stroke-linejoin="round"></path>
                <g id="Group-5" transform="translate(103.500000, 77.500000) scale(-1, 1) translate(-103.500000, -77.500000) translate(69.000000, 0.000000)" stroke-linejoin="round">
                    <path d="M0.864578253,32.2964353 C0.864578253,32.2964353 -11.7151747,134.750178 68.4677354,154.877091" id="Path-8-Copy"></path>
                    <path d="M0.631818182,32.1341463 L67.6045455,0.630081301" id="Path-9-Copy"></path>
                </g>
                <path d="M51.9462402,8.16767499 L68.8314886,0.754220854" id="Path-10"></path>
                <path d="M68.3040993,16.3347347 L122.063867,42.2412903 C122.063867,42.2412903 132.731969,119.102595 68.7381658,138.318844" id="Path-11" stroke-linejoin="round"></path>
                <path d="M68.1729847,16.3661157 L15.4556552,41.1435706 C15.4556552,41.1435706 11.4833452,63.3440914 18.4345792,88.71717" id="Path-12" stroke-linejoin="round"></path>
                <path d="M21.5011186,95.6714463 C21.5011186,95.6714463 31.7727916,128.585964 68.6304976,138.376837" id="Path-13"></path>
                <g id="done-tick" transform="translate(40.700000, 50.406504)" fill-rule="nonzero" stroke-linejoin="round">
                    <path d="M58.3077706,2.93980369 L56.6855394,1.56178162 C53.9927741,-0.72620892 49.9463377,-0.471173459 47.5689513,2.13548927 L20.4310452,31.8876721 L12.2393462,24.9118171 C9.54942214,22.6212615 5.50236804,22.871167 3.12214038,25.4750204 L1.68780244,27.0443191 C0.524618731,28.3161985 -0.0793325368,29.9939605 0.00837566537,31.7077548 C0.0969485963,33.420572 0.869769037,35.0285901 2.15809135,36.178204 L17.1738591,49.7741102 C18.473917,50.9812536 20.2162219,51.6107808 21.997069,51.5173411 C23.7779161,51.4241457 25.4428896,50.6151898 26.6061968,49.2785744 L59.0020242,12.0602529 C60.1338307,10.759914 60.696522,9.06847193 60.5660715,7.35821976 C60.4357445,5.64674616 59.6236407,4.05766027 58.3077706,2.93980369 Z" id="Shape"></path>
                </g>
            </g>
        </g>
    </g>
</svg>