<?xml version="1.0" encoding="UTF-8"?>
<svg width="150px" height="169px" viewBox="0 0 150 169" version="1.1" xmlns="http://www.w3.org/2000/svg" xmlns:xlink="http://www.w3.org/1999/xlink">
    <!-- Generator: Sketch 46.2 (44496) - http://www.bohemiancoding.com/sketch -->
    <title>Artboard</title>
    <desc>Created with Sketch.</desc>
    <defs></defs>
    <g id="Desktop" stroke="none" stroke-width="1" fill="none" fill-rule="evenodd" opacity="0.65">
        <g id="Artboard" fill-rule="nonzero" fill="#822E88">
            <path d="M115.630974,79.7569956 L110.165983,79.7569956 L110.165983,41.5344456 C110.165983,21.9407692 94.3737968,6 74.9627523,6 C55.5517079,6 39.759522,21.9407692 39.759522,41.5344456 L39.759522,79.7569956 L34.2948354,79.7569956 C26.9642176,79.7569956 21,85.7770211 21,93.1766102 L21,107.236967 C21,108.527983 22.0368315,109.574877 23.3161182,109.574877 C24.595405,109.574877 25.6322364,108.527983 25.6322364,107.236967 L25.6322364,93.1766102 C25.6322364,88.355363 29.5182223,84.4328152 34.2948354,84.4328152 L42.0756402,84.4328152 L54.4280677,84.4328152 L95.4968278,84.4328152 L107.84956,84.4328152 L115.630669,84.4328152 C120.406978,84.4328152 124.292964,88.3550555 124.292964,93.1766102 L124.292964,149.999133 C124.292964,154.82038 120.407282,158.742928 115.630669,158.742928 L34.2948354,158.742928 C29.5185269,158.742928 25.6322364,154.820687 25.6322364,149.999133 L25.6322364,115.029795 C25.6322364,113.738779 24.595405,112.691885 23.3161182,112.691885 C22.0368315,112.691885 21,113.738779 21,115.029795 L21,149.998825 C21,157.398414 26.9642176,163.41844 34.2948354,163.41844 L115.631278,163.41844 C122.961592,163.41844 128.925809,157.398414 128.925809,149.998825 L128.925809,93.1763027 C128.925505,85.7767137 122.961287,79.7569956 115.630974,79.7569956 Z M105.533442,79.7569956 L97.8132506,79.7569956 L97.8132506,58.920267 C97.8132506,57.6292513 96.7764191,56.5823572 95.4971324,56.5823572 C94.2178456,56.5823572 93.1810142,57.6292513 93.1810142,58.920267 L93.1810142,79.7569956 L56.7441859,79.7569956 L56.7441859,41.5344456 C56.7441859,31.394177 64.9170007,23.1444669 74.9627523,23.1444669 C85.0081993,23.1444669 93.1810142,31.394177 93.1810142,41.5344456 L93.1810142,51.1274393 C93.1810142,52.418455 94.2178456,53.4653491 95.4971324,53.4653491 C96.7764191,53.4653491 97.8132506,52.418455 97.8132506,51.1274393 L97.8132506,41.5344456 C97.8135552,28.8158351 87.5628131,18.4686473 74.9627523,18.4686473 C62.3626915,18.4686473 52.1119494,28.8158351 52.1119494,41.5344456 L52.1119494,79.7569956 L44.3917584,79.7569956 L44.3917584,41.5344456 C44.3917584,24.5188036 58.1063217,10.6758196 74.9627523,10.6758196 C91.8194875,10.6758196 105.533442,24.5191111 105.533442,41.5344456 L105.533442,79.7569956 Z" id="Shape"></path>
            <path d="M74.9630569,102.667528 C67.8959113,102.667528 62.1464311,108.471103 62.1464311,115.604433 C62.1464311,119.918068 64.2560359,123.892576 67.7356959,126.288288 L67.7356959,138.170305 C67.7353913,139.461321 68.7725274,140.508215 70.0515095,140.508215 L79.8746043,140.508215 C81.1538911,140.508215 82.1907225,139.461321 82.1907225,138.170305 L82.1907225,126.288288 C85.6700779,123.892268 87.7796827,119.91776 87.7796827,115.604433 C87.7793781,108.470795 82.0298979,102.667528 74.9630569,102.667528 Z M78.7896473,122.907173 C78.0321268,123.31271 77.5587907,124.107181 77.5587907,124.972675 L77.5587907,135.832395 L72.3679323,135.832395 L72.3679323,124.972675 C72.3679323,124.107181 71.8945962,123.31271 71.1370757,122.907173 C68.4484414,121.46827 66.7786676,118.670096 66.7786676,115.604126 C66.7786676,111.048522 70.4505252,107.34304 74.9630569,107.34304 C79.4758933,107.34304 83.1471417,111.049137 83.1471417,115.604126 C83.1471417,118.669789 81.4773679,121.46827 78.7896473,122.907173 Z" id="Shape"></path>
        </g>
    </g>
</svg>