<svg xmlns="http://www.w3.org/2000/svg" width="75" height="62" viewBox="0 0 75 62">
    <g fill="none" fill-rule="nonzero">
        <path fill="#75C3B7" d="M56.62 53h3.734C61.27 53 62 52.266 62 51.349v-4.51c0-.917-.731-1.65-1.646-1.65h-3.733a20.037 20.037 0 0 0-2.987-7.247l2.651-2.66c.64-.642.64-1.697 0-2.339L53.1 29.748a1.652 1.652 0 0 0-2.331 0l-2.652 2.645a19.643 19.643 0 0 0-7.223-2.997v-3.745c0-.917-.732-1.651-1.646-1.651h-4.496c-.914 0-1.646.734-1.646 1.651v3.745a19.905 19.905 0 0 0-7.223 2.997l-2.652-2.66a1.652 1.652 0 0 0-2.331 0l-3.185 3.195a1.665 1.665 0 0 0 0 2.339l2.651 2.66a19.773 19.773 0 0 0-2.987 7.246h-3.733c-.915 0-1.646.734-1.646 1.65v4.51c0 .918.731 1.652 1.646 1.652h3.733l7.97-3.914c0-6.451 5.228-11.695 11.659-11.695 6.43 0 11.658 5.244 11.658 11.695"/>
        <path fill="#75C3B7" d="M75 56.265V5.72A5.717 5.717 0 0 0 69.286 0H5.714A5.717 5.717 0 0 0 0 5.72v50.56A5.717 5.717 0 0 0 5.714 62h63.572C72.442 62 75 59.424 75 56.265zM5.714 2.775h63.572a2.944 2.944 0 0 1 2.941 2.945v6.824H2.773V5.72a2.944 2.944 0 0 1 2.94-2.944zm-2.941 53.49V15.32h69.454v40.945a2.944 2.944 0 0 1-2.94 2.944H5.713a2.944 2.944 0 0 1-2.941-2.944z"/>
        <path fill="#5EA79C" d="M36.985 37C29.817 37 24 42.683 24 49.653c0 .74.623 1.347 1.382 1.347.76 0 1.382-.607 1.382-1.347 0-5.505 4.586-9.974 10.236-9.974s10.236 4.469 10.236 9.974c0 .74.623 1.347 1.382 1.347.76 0 1.382-.607 1.382-1.347C49.97 42.668 44.153 37 36.985 37z"/>
        <path fill="#5EA79C" d="M60.973 44.313H58.33a21.39 21.39 0 0 0-2.355-5.705l1.865-1.876c.581-.584.887-1.353.887-2.168 0-.815-.321-1.584-.887-2.169l-3.195-3.213a3.014 3.014 0 0 0-4.295 0l-1.865 1.876a21.633 21.633 0 0 0-5.672-2.368v-2.63A3.05 3.05 0 0 0 39.77 23h-4.51a3.05 3.05 0 0 0-3.042 3.06v2.66a21.126 21.126 0 0 0-5.671 2.368l-1.865-1.876a3.008 3.008 0 0 0-2.156-.891c-.81 0-1.574.322-2.155.891l-3.195 3.214a3.044 3.044 0 0 0-.887 2.168c0 .815.321 1.584.887 2.169l1.865 1.876a21.903 21.903 0 0 0-2.354 5.705h-2.645A3.05 3.05 0 0 0 11 47.404v4.536A3.05 3.05 0 0 0 14.042 55h3.745a1.4 1.4 0 0 0 0-2.799h-3.745a.275.275 0 0 1-.275-.276v-4.537c0-.153.122-.277.275-.277h3.745c.658 0 1.239-.476 1.361-1.122a18.59 18.59 0 0 1 2.797-6.781 1.424 1.424 0 0 0-.168-1.769l-2.66-2.675a.267.267 0 0 1-.076-.185c0-.046.015-.123.076-.184l3.195-3.214a.264.264 0 0 1 .184-.077c.046 0 .122.015.199.077l2.66 2.675a1.384 1.384 0 0 0 1.757.17 18.627 18.627 0 0 1 6.742-2.815 1.398 1.398 0 0 0 1.116-1.368V26.06c0-.154.122-.277.275-.277h4.51c.153 0 .275.123.275.277v3.767c0 .662.474 1.246 1.116 1.37a18.362 18.362 0 0 1 6.742 2.813c.55.37 1.284.292 1.758-.17l2.66-2.675a.267.267 0 0 1 .382 0l3.195 3.214a.267.267 0 0 1 .076.185.33.33 0 0 1-.076.2l-2.66 2.675a1.404 1.404 0 0 0-.168 1.769 18.858 18.858 0 0 1 2.797 6.78 1.394 1.394 0 0 0 1.36 1.123h3.746c.153 0 .275.124.275.277v4.537a.275.275 0 0 1-.275.276h-3.745a1.4 1.4 0 0 0 0 2.799h3.745A3.05 3.05 0 0 0 64 51.94v-4.536c0-1.723-1.36-3.091-3.027-3.091z"/>
        <path fill="#75C3B7" d="M12.5 9c.396 0 .775-.165 1.055-.445.28-.28.445-.66.445-1.055 0-.396-.165-.775-.445-1.055-.28-.28-.66-.445-1.055-.445-.396 0-.775.165-1.055.445-.28.28-.445.66-.445 1.055 0 .396.165.775.445 1.055.28.297.66.445 1.055.445zM17.5 9c.396 0 .775-.165 1.055-.445.28-.28.445-.66.445-1.055 0-.396-.165-.775-.445-1.055-.28-.28-.66-.445-1.055-.445-.396 0-.775.165-1.055.445-.28.28-.445.66-.445 1.055 0 .396.165.775.445 1.055.28.297.66.445 1.055.445zM7.5 9c.396 0 .775-.165 1.055-.445.28-.28.445-.66.445-1.055 0-.396-.165-.775-.445-1.055C8.275 6.165 7.895 6 7.5 6c-.396 0-.775.165-1.055.445-.28.28-.445.66-.445 1.055 0 .396.165.775.445 1.055.28.297.66.445 1.055.445z"/>
    </g>
</svg>
