<svg xmlns="http://www.w3.org/2000/svg" width="136" height="168" viewBox="0 0 136 168">
    <g fill="none" fill-rule="evenodd">
        <path fill="#FFF" d="M126.552 156.238c-.001.3-.057.529-.146.733a1.694 1.694 0 0 1-.655.746 1.875 1.875 0 0 1-.987.291c-.208 0-.405-.036-.597-.112a1.767 1.767 0 0 1-.585-.382l-3.161-3.001a17.143 17.143 0 0 0-5.645-3.733 17.209 17.209 0 0 0-6.476-1.263 17.183 17.183 0 0 0-12.172 5.044 11.665 11.665 0 0 1-8.28 3.43 11.652 11.652 0 0 1-8.276-3.43 17.145 17.145 0 0 0-5.695-3.781 17.215 17.215 0 0 0-6.477-1.263 17.174 17.174 0 0 0-12.171 5.044 11.659 11.659 0 0 1-8.278 3.43c-1.502 0-3-.288-4.406-.858a11.636 11.636 0 0 1-3.87-2.572 17.2 17.2 0 0 0-12.172-5.044 17.189 17.189 0 0 0-12.174 5.044l.004-.002-2.564 2.557a1.79 1.79 0 0 1-.598.406 1.65 1.65 0 0 1-.613.119 1.9 1.9 0 0 1-1.266-.502 1.613 1.613 0 0 1-.38-.532 1.781 1.781 0 0 1-.148-.735V68.267c.002-16.277 6.589-30.986 17.249-41.654C36.681 15.947 51.387 9.36 67.659 9.357c16.271.002 30.977 6.59 41.643 17.253 10.662 10.67 17.247 25.38 17.249 41.656v87.972h.001zM115.5 19.822C103.266 7.58 86.332-.002 67.66 0 48.984-.002 32.05 7.58 19.816 19.822 7.577 32.059-.002 48.998 0 67.677v92.038a7.648 7.648 0 0 0 .653 3.123 7.559 7.559 0 0 0 2.893 3.327 7.745 7.745 0 0 0 4.12 1.195c.939 0 1.9-.176 2.82-.549a7.666 7.666 0 0 0 2.538-1.69l2.692-2.687.003-.004a12.26 12.26 0 0 1 4.066-2.702c1.477-.6 3.053-.9 4.63-.9 1.575 0 3.15.3 4.628.9 1.478.6 2.861 1.497 4.068 2.702a17.99 17.99 0 0 0 5.984 3.974 18.098 18.098 0 0 0 6.802 1.326 18.06 18.06 0 0 0 12.789-5.3 12.254 12.254 0 0 1 4.064-2.702c1.479-.6 3.055-.9 4.63-.9 1.578 0 3.152.3 4.631.9 1.477.6 2.86 1.497 4.065 2.702a18.012 18.012 0 0 0 5.985 3.974 18.1 18.1 0 0 0 6.805 1.326 18.048 18.048 0 0 0 12.788-5.3 12.26 12.26 0 0 1 4.066-2.702c1.477-.6 3.053-.9 4.629-.9 1.577 0 3.152.3 4.63.9 1.48.6 2.86 1.497 4.068 2.702l.055.053 3.32 3.154a7.733 7.733 0 0 0 2.489 1.593c.893.35 1.826.516 2.738.516a7.742 7.742 0 0 0 5.276-2.087 7.539 7.539 0 0 0 1.736-2.439 7.69 7.69 0 0 0 .651-3.118V67.677c.007-18.68-7.573-35.618-19.812-47.855z"/>
        <path fill="#FFF" d="M67.945 110.376c-3.086 0-6.114-.83-8.753-2.398a2.502 2.502 0 0 1-.874-3.428 2.502 2.502 0 0 1 3.427-.872 12.142 12.142 0 0 0 6.2 1.697c2.134 0 4.233-.56 6.069-1.62a2.497 2.497 0 0 1 3.414.917 2.499 2.499 0 0 1-.917 3.415 17.16 17.16 0 0 1-8.566 2.289"/>
        <g fill="#732379">
            <path fill-rule="nonzero" d="M89.24 91.471c-11.092 0-20.084-8.994-20.084-20.09 0-11.095 8.992-20.089 20.084-20.089 11.093 0 20.085 8.994 20.085 20.09 0 11.095-8.992 20.089-20.085 20.089zm0-6.697c7.395 0 13.39-5.996 13.39-13.392 0-7.397-5.995-13.393-13.39-13.393-7.394 0-13.389 5.996-13.389 13.393 0 7.396 5.995 13.392 13.39 13.392zM44.609 91.471c-11.092 0-20.084-8.994-20.084-20.09 0-11.095 8.992-20.089 20.084-20.089 11.092 0 20.084 8.994 20.084 20.09 0 11.095-8.992 20.089-20.084 20.089zm0-6.697c7.395 0 13.39-5.996 13.39-13.392 0-7.397-5.995-13.393-13.39-13.393-7.395 0-13.39 5.996-13.39 13.393 0 7.396 5.995 13.392 13.39 13.392z"/>
            <path d="M61.346 68.033H73.62v6.696H61.346z"/>
        </g>
    </g>
</svg>
