<svg xmlns="http://www.w3.org/2000/svg" width="34" height="42" viewBox="0 0 34 42">
    <g fill="none" fill-rule="evenodd">
        <path fill="#75C3B7" d="M22.581 21.029a3.357 3.357 0 0 1-3.352-3.345 3.357 3.357 0 0 1 3.352-3.346 3.346 3.346 0 0 1 0 6.691zm-10.904 0a3.346 3.346 0 1 1 .014-6.691 3.346 3.346 0 0 1-.014 6.691zM22.58 13a4.694 4.694 0 0 0-4.637 4.014h-1.63A4.684 4.684 0 0 0 11.677 13 4.691 4.691 0 0 0 7 17.684a4.691 4.691 0 0 0 4.677 4.683 4.684 4.684 0 0 0 4.637-4.014h1.63a4.694 4.694 0 0 0 4.637 4.014 4.683 4.683 0 0 0 4.677-4.683A4.683 4.683 0 0 0 22.58 13z"/>
        <path fill="#FFFFFE" d="M31.003 38.263l-.04.18-.159.183-.238.07-.146-.026-.146-.094-.781-.735a4.221 4.221 0 0 0-1.378-.914 4.244 4.244 0 0 0-3.18 0 4.27 4.27 0 0 0-1.391.926c-.279.28-.597.49-.954.63a2.84 2.84 0 0 1-2.147 0 2.865 2.865 0 0 1-.954-.63c-.41-.41-.887-.721-1.39-.926a4.244 4.244 0 0 0-3.18 0 4.27 4.27 0 0 0-1.392.926 2.865 2.865 0 0 1-2.027.84 2.813 2.813 0 0 1-2.027-.84c-.41-.41-.888-.721-1.404-.926a4.202 4.202 0 0 0-4.558.926l-.636.626-.146.098-.145.03-.305-.122-.106-.131-.027-.18V16.72c0-3.987 1.617-7.589 4.227-10.202a14.371 14.371 0 0 1 10.202-4.225c3.988 0 7.578 1.614 10.201 4.225a14.385 14.385 0 0 1 4.227 10.202v21.544zM28.287 4.854A16.51 16.51 0 0 0 16.575 0 16.518 16.518 0 0 0 4.849 4.854 16.539 16.539 0 0 0 0 16.574v22.541c0 .272.053.534.159.765.146.348.41.627.702.815a1.9 1.9 0 0 0 1.71.159 1.92 1.92 0 0 0 .622-.415l.65-.659a3.049 3.049 0 0 1 2.132-.882c.385 0 .769.074 1.14.22.358.147.702.367.993.662.424.431.928.757 1.471.973a4.406 4.406 0 0 0 3.326 0 4.543 4.543 0 0 0 1.47-.973 2.997 2.997 0 0 1 4.253 0c.437.431.941.757 1.47.973a4.456 4.456 0 0 0 3.339 0 4.355 4.355 0 0 0 1.458-.973c.305-.295.636-.515.994-.662a3.11 3.11 0 0 1 1.14-.22c.383 0 .768.074 1.139.22.357.147.702.367.993.662l.014.014.808.772c.185.172.397.304.61.39.224.086.45.127.675.127.477-.001.94-.186 1.285-.512.186-.164.331-.367.437-.597.093-.232.16-.493.16-.763V16.575c0-4.575-1.856-8.724-4.863-11.72z"/>
        <path fill="#FFFFFE" d="M17.445 26.726a4.216 4.216 0 0 1-2.147-.587.611.611 0 0 1-.212-.839.61.61 0 0 1 .835-.214c.464.271.994.416 1.524.416s1.033-.138 1.484-.396a.608.608 0 0 1 .834.223.606.606 0 0 1-.212.836 4.219 4.219 0 0 1-2.106.56"/>
    </g>
</svg>
