<svg xmlns="http://www.w3.org/2000/svg" width="107" height="82" viewBox="0 0 107 82">
    <g fill="none" fill-rule="evenodd">
        <path fill="#75C3B7" d="M103.352 77.266a.632.632 0 0 1-.3.552.7.7 0 0 1-.368.109.597.597 0 0 1-.223-.042.66.66 0 0 1-.218-.143l-1.18-1.119a6.401 6.401 0 0 0-4.526-1.863 6.422 6.422 0 0 0-4.544 1.88 4.356 4.356 0 0 1-3.091 1.28 4.35 4.35 0 0 1-3.09-1.279 6.434 6.434 0 0 0-9.089 0 4.353 4.353 0 0 1-3.09 1.279 4.345 4.345 0 0 1-3.09-1.279 6.428 6.428 0 0 0-9.09 0h.001l-.957.953a.617.617 0 0 1-.452.196.71.71 0 0 1-.473-.188.602.602 0 0 1-.142-.198.664.664 0 0 1-.055-.274V44.46c.001-6.071 2.46-11.557 6.44-15.535a21.926 21.926 0 0 1 15.549-6.435 21.927 21.927 0 0 1 15.547 6.434 21.888 21.888 0 0 1 6.44 15.534v32.808zm-4.127-50.874A25.197 25.197 0 0 0 81.364 19a25.197 25.197 0 0 0-17.862 7.392 25.154 25.154 0 0 0-7.399 17.847v34.324a2.82 2.82 0 0 0 1.324 2.405c.457.288.988.446 1.538.446a2.808 2.808 0 0 0 2-.835l1.006-1.002v-.001a4.578 4.578 0 0 1 3.247-1.344 4.58 4.58 0 0 1 3.247 1.344 6.717 6.717 0 0 0 2.234 1.482 6.764 6.764 0 0 0 7.315-1.482 4.576 4.576 0 0 1 3.246-1.344 4.576 4.576 0 0 1 3.246 1.344 6.726 6.726 0 0 0 4.775 1.976 6.739 6.739 0 0 0 4.774-1.976 4.578 4.578 0 0 1 3.247-1.344 4.58 4.58 0 0 1 3.248 1.344l.02.02 1.24 1.176a2.812 2.812 0 0 0 1.952.786 2.892 2.892 0 0 0 1.97-.778 2.812 2.812 0 0 0 .89-2.073V44.24a25.144 25.144 0 0 0-7.397-17.847z"/>
        <g fill="#732379">
            <path fill-rule="nonzero" d="M89.62 53.11a7.495 7.495 0 0 1-7.498-7.491 7.495 7.495 0 0 1 7.499-7.492 7.495 7.495 0 0 1 7.498 7.492 7.495 7.495 0 0 1-7.498 7.492zm0-2.497a4.997 4.997 0 0 0 5-4.994 4.997 4.997 0 0 0-5-4.995 4.997 4.997 0 0 0-4.998 4.995 4.997 4.997 0 0 0 4.999 4.994zM72.957 53.11a7.495 7.495 0 0 1-7.498-7.491 7.495 7.495 0 0 1 7.498-7.492 7.495 7.495 0 0 1 7.499 7.492 7.495 7.495 0 0 1-7.499 7.492zm0-2.497a4.997 4.997 0 0 0 5-4.994 4.997 4.997 0 0 0-5-4.995 4.997 4.997 0 0 0-4.999 4.995 4.997 4.997 0 0 0 5 4.994z"/>
            <path d="M79.206 44.37h4.582v2.497h-4.582z"/>
        </g>
        <path fill="#75C3B7" d="M81.528 60c-1.091 0-2.162-.353-3.095-1.02-.42-.3-.558-.954-.309-1.46.25-.505.792-.67 1.212-.37a3.76 3.76 0 0 0 2.192.721c.755 0 1.497-.238 2.146-.689.423-.294.964-.12 1.207.39.245.51.1 1.16-.324 1.454-.917.637-1.965.974-3.029.974"/>
        <path fill="#75C3B7" fill-rule="nonzero" d="M70.29 21.811c3.007-1.202 6.401-1.923 10.113-1.923 3.718 0 7.152.763 10.222 2.035.762.315 1.463.647 2.1.985v-3.91a9.615 9.615 0 0 0-.234-.142 14.869 14.869 0 0 0-2.24-1.057c-2.585-.986-5.8-1.582-9.682-1.582-3.89 0-7.137.573-9.771 1.523-.908.328-1.672.676-2.295 1.02-.081.045-.158.088-.229.13v3.834c.612-.313 1.285-.62 2.017-.913zM66 24.677v-6.384c0-.344.163-.668.442-.878.054-.04.141-.101.263-.18.19-.125.416-.26.677-.404a18.27 18.27 0 0 1 2.627-1.17c2.885-1.04 6.4-1.661 10.56-1.661 4.167 0 7.662.648 10.51 1.735a17.15 17.15 0 0 1 2.589 1.224c.256.151.477.293.663.423.12.084.206.149.259.191.26.21.41.523.41.853v6.464c0 .913-1.069 1.434-1.819.887a14.258 14.258 0 0 0-.862-.544 21.548 21.548 0 0 0-2.583-1.27 24.285 24.285 0 0 0-9.333-1.858c-3.399 0-6.504.66-9.249 1.757-.957.383-1.798.792-2.515 1.198a13.393 13.393 0 0 0-.829.51c-.75.538-1.81.015-1.81-.893z"/>
        <path fill="#75C3B7" fill-rule="nonzero" d="M63.98 16.265c.004-.35.166-.68.442-.894.061-.047.166-.125.315-.227.237-.163.517-.342.84-.533a23.604 23.604 0 0 1 3.217-1.574c3.506-1.414 7.624-2.26 12.323-2.26 4.714 0 8.808.924 12.261 2.47a21.775 21.775 0 0 1 3.159 1.72c.315.21.588.406.819.584.145.112.247.197.307.25.242.211.383.516.389.838l.009.44 5.26-2.465L80.633 2.44 58.764 14.332l5.214 2.201.003-.268zm2.256 1.99A1.137 1.137 0 0 1 64.66 19.3l-8.964-3.784c-.88-.371-.94-1.602-.1-2.059L80.089.138a1.13 1.13 0 0 1 1.075-.003l25.235 13.54c.826.444.794 1.646-.055 2.044l-8.905 4.173a1.136 1.136 0 0 1-1.616-1.013l-.032-1.652c-.15-.11-.319-.228-.508-.354a19.518 19.518 0 0 0-2.828-1.539c-3.17-1.418-6.952-2.272-11.338-2.272-4.4 0-8.233.787-11.477 2.096a21.349 21.349 0 0 0-2.908 1.42 14.3 14.3 0 0 0-.484.3l-.012 1.378z"/>
        <g fill-rule="nonzero">
            <path fill="#75C3B7" d="M22.146 51.03h1.773c.28 1.363.837 2.62 1.604 3.733l-1.255 1.21a1.078 1.078 0 0 0 0 1.564l1.365 1.315a1.18 1.18 0 0 0 1.624 0l1.255-1.21a10.886 10.886 0 0 0 3.876 1.546v1.708c0 .615.518 1.104 1.146 1.104h1.932c.638 0 1.146-.5 1.146-1.104v-1.708a10.99 10.99 0 0 0 3.876-1.545l1.255 1.209a1.18 1.18 0 0 0 1.624 0l1.365-1.315a1.078 1.078 0 0 0 0-1.564l-1.255-1.21a10.067 10.067 0 0 0 1.604-3.733h1.773c.638 0 1.146-.5 1.146-1.104v-1.852c0-.614-.518-1.104-1.146-1.104h-1.773a10.163 10.163 0 0 0-1.604-3.733l1.255-1.21a1.078 1.078 0 0 0 0-1.564l-1.375-1.315a1.18 1.18 0 0 0-1.624 0l-1.255 1.21a10.886 10.886 0 0 0-3.876-1.546v-1.708c0-.615-.518-1.104-1.146-1.104h-1.932c-.638 0-1.146.5-1.146 1.104v1.708a10.99 10.99 0 0 0-3.876 1.545l-1.245-1.209a1.18 1.18 0 0 0-1.624 0l-1.365 1.315a1.078 1.078 0 0 0 0 1.564l1.255 1.21a10.067 10.067 0 0 0-1.604 3.733h-1.773c-.638 0-1.146.5-1.146 1.104v1.862c0 .604.508 1.094 1.146 1.094zm12.344-6.738c2.7 0 4.892 2.112 4.892 4.713 0 2.6-2.192 4.712-4.892 4.712s-4.892-2.111-4.892-4.712c0-2.601 2.192-4.713 4.892-4.713z"/>
            <path fill="#75C3B7" d="M35.075 71.685c-.142.336-.547.49-.891.355l-2.29-.902a.938.938 0 0 0-1.114.316 13.67 13.67 0 0 1-3.9 3.695.837.837 0 0 0-.334 1.055l.942 2.169a.635.635 0 0 1-.374.844l-2.492.989c-.345.134-.75-.02-.892-.355l-.952-2.169a.921.921 0 0 0-1.023-.518 14.78 14.78 0 0 1-5.51 0c-.426-.077-.861.134-1.023.518l-.952 2.169c-.142.326-.547.489-.892.355l-2.492-.98a.664.664 0 0 1-.374-.354.612.612 0 0 1 0-.5l.952-2.168a.837.837 0 0 0-.334-1.055 13.67 13.67 0 0 1-3.9-3.695.938.938 0 0 0-1.114-.316l-2.29.902c-.354.134-.75-.02-.891-.355l-1.033-2.36a.635.635 0 0 1 .375-.845l2.289-.902c.405-.163.638-.566.547-.97a12.59 12.59 0 0 1 0-5.22.858.858 0 0 0-.547-.969l-2.29-.902a.664.664 0 0 1-.374-.355.612.612 0 0 1 0-.499l1.033-2.36a.664.664 0 0 1 .375-.355.714.714 0 0 1 .526 0l2.29.902a.938.938 0 0 0 1.114-.317 13.67 13.67 0 0 1 3.9-3.694.837.837 0 0 0 .334-1.056l-.952-2.168a.612.612 0 0 1 0-.5.664.664 0 0 1 .375-.354l2.491-.979c.345-.134.75.02.892.355l.952 2.169c.192.441.73.652 1.195.47.466-.182.689-.691.496-1.132l-.952-2.169c-.537-1.219-2.005-1.794-3.292-1.295l-2.491.978c-.618.24-1.105.7-1.368 1.296a2.306 2.306 0 0 0 0 1.832l.669 1.526a15.55 15.55 0 0 0-3.353 3.176l-1.61-.633a2.69 2.69 0 0 0-1.935 0c-.618.24-1.105.7-1.368 1.295L.19 58.011a2.306 2.306 0 0 0 0 1.833c.253.585.74 1.046 1.367 1.295l1.61.633a13.917 13.917 0 0 0 0 4.491l-1.61.634c-1.286.508-1.894 1.9-1.367 3.118l1.033 2.332c.527 1.218 2.006 1.794 3.292 1.295l1.61-.633a15.55 15.55 0 0 0 3.353 3.176l-.668 1.526a2.306 2.306 0 0 0 0 1.833c.253.585.74 1.045 1.367 1.295l2.492.979c1.287.499 2.765-.077 3.292-1.296l.669-1.525c1.58.23 3.16.23 4.74 0l.669 1.525c.405.921 1.347 1.478 2.33 1.478.324 0 .648-.058.962-.182l2.492-.98c1.286-.508 1.894-1.899 1.367-3.118l-.668-1.525a15.55 15.55 0 0 0 3.352-3.176l1.61.633c1.287.508 2.766-.077 3.293-1.296l1.033-2.36a2.306 2.306 0 0 0 0-1.833 2.451 2.451 0 0 0-1.367-1.295l-2.29-.902c-.466-.183-1.002.029-1.195.47-.192.441.03.95.496 1.132l2.29.902a.664.664 0 0 1 .374.355c.071.163.071.336 0 .5l-1.043 2.36z"/>
            <path fill="#75C3B7" d="M18.965 57.698c.5 0 .9-.385.9-.854s-.41-.844-.91-.844h-.01c-2.141.019-4.142.807-5.643 2.233-1.501 1.426-2.322 3.32-2.302 5.319.02 2.007.86 3.883 2.382 5.29C14.892 70.24 16.884 71 18.995 71h.06c2.141-.019 4.142-.807 5.643-2.233 1.501-1.426 2.322-3.32 2.302-5.319 0-.469-.41-.844-.91-.844h-.01c-.501 0-.901.385-.901.854.01 1.548-.62 3.011-1.781 4.118-1.161 1.107-2.712 1.717-4.363 1.726h-.05c-1.631 0-3.182-.59-4.343-1.67-1.18-1.088-1.83-2.542-1.84-4.09-.01-1.548.62-3.011 1.78-4.118a6.464 6.464 0 0 1 4.383-1.726z"/>
            <path fill="#5EA79C" d="M46.932 51.924c1.134 0 2.068-.89 2.068-1.995v-1.868c0-1.094-.924-1.995-2.068-1.995h-1.054a11.076 11.076 0 0 0-1.184-2.759l.753-.726a1.949 1.949 0 0 0 0-2.818l-1.376-1.326a2.09 2.09 0 0 0-1.455-.58c-.552 0-1.074.202-1.456.58l-.753.726a11.723 11.723 0 0 0-2.86-1.142v-1.027c0-1.094-.924-1.994-2.068-1.994H33.53c-1.134 0-2.068.89-2.068 1.994v1.027a11.953 11.953 0 0 0-2.86 1.142l-.753-.726a2.09 2.09 0 0 0-1.456-.58c-.552 0-1.074.202-1.455.58l-1.375 1.326a1.949 1.949 0 0 0 0 2.818l.752.726a10.863 10.863 0 0 0-1.184 2.76h-1.064c-1.134 0-2.068.89-2.068 1.994v1.878c0 1.094.924 1.995 2.068 1.995h1.064c.27.968.662 1.897 1.184 2.759l-.752.726a1.949 1.949 0 0 0 0 2.818l1.375 1.326c.391.378.913.58 1.455.58.552 0 1.074-.202 1.456-.58l.753-.726c.903.503 1.857.89 2.86 1.142v1.027c0 1.094.924 1.994 2.068 1.994h1.948c1.134 0 2.068-.89 2.068-1.994V59.97a11.953 11.953 0 0 0 2.86-1.143l.753.726c.392.378.914.581 1.456.581.552 0 1.074-.203 1.455-.58l1.376-1.327a1.949 1.949 0 0 0 0-2.818l-.753-.726c.522-.871.923-1.79 1.184-2.76h1.054zm-2.67-1.046a9.252 9.252 0 0 1-1.486 3.457.855.855 0 0 0 .11 1.103l1.266 1.22c.1.097.1.242 0 .34l-1.376 1.326a.244.244 0 0 1-.17.067.23.23 0 0 1-.17-.067l-1.266-1.22a.925.925 0 0 0-1.144-.107 10.157 10.157 0 0 1-3.584 1.433.89.89 0 0 0-.732.862v1.723a.24.24 0 0 1-.241.233H33.52a.24.24 0 0 1-.24-.233v-1.723c0-.416-.312-.775-.733-.862a9.979 9.979 0 0 1-3.584-1.433.941.941 0 0 0-.502-.145.905.905 0 0 0-.642.261l-1.265 1.22a.244.244 0 0 1-.17.068.23.23 0 0 1-.171-.068l-1.376-1.326a.228.228 0 0 1 0-.339l1.265-1.22a.845.845 0 0 0 .11-1.104 9.417 9.417 0 0 1-1.485-3.456c-.08-.407-.462-.707-.893-.707h-1.787a.24.24 0 0 1-.241-.232V48.06a.24.24 0 0 1 .24-.233h1.788c.431 0 .803-.3.893-.706a9.252 9.252 0 0 1 1.486-3.457.855.855 0 0 0-.11-1.103l-1.266-1.22a.226.226 0 0 1-.07-.165c0-.048.01-.106.07-.165l1.366-1.336a.244.244 0 0 1 .17-.067c.05 0 .11.01.17.067l1.266 1.22c.31.3.793.34 1.144.107a10.157 10.157 0 0 1 3.584-1.433.89.89 0 0 0 .732-.862v-1.714a.24.24 0 0 1 .241-.232h1.948c.13 0 .24.107.24.232v1.724c0 .416.312.774.733.862a9.979 9.979 0 0 1 3.584 1.432.935.935 0 0 0 1.144-.106l1.265-1.22a.244.244 0 0 1 .17-.068c.05 0 .111.01.171.068l1.376 1.326c.1.097.1.242 0 .34l-1.265 1.22a.845.845 0 0 0-.11 1.103 9.417 9.417 0 0 1 1.485 3.456c.08.407.462.707.893.707h1.787c.13 0 .241.107.241.233v1.878a.24.24 0 0 1-.24.232h-1.788a.868.868 0 0 0-.883.697z"/>
            <path fill="#5EA79C" d="M34.5 43c-3.039 0-5.5 2.47-5.5 5.5 0 3.039 2.47 5.5 5.5 5.5 3.039 0 5.5-2.47 5.5-5.5S37.53 43 34.5 43zm0 9.287a3.786 3.786 0 0 1-3.787-3.787 3.786 3.786 0 0 1 3.787-3.787 3.786 3.786 0 1 1 0 7.574z"/>
        </g>
    </g>
</svg>
