<svg xmlns="http://www.w3.org/2000/svg" width="156" height="59" viewBox="0 0 156 59">
    <g fill="#FFFFFE" fill-rule="evenodd">
        <path d="M0 58.297l16.492-8.766 12.811-26.293L41.977 49.25l.136.281 16.492 8.766L29.303 0 0 58.297M127.737 32.768c-1.537 1.545-3.424 2.317-5.662 2.317-2.062 0-3.88-.758-5.454-2.276-1.58-1.515-2.372-3.446-2.375-5.793.004-2.237.767-4.118 2.292-5.641 1.528-1.545 3.402-2.318 5.62-2.318 2.228 0 4.097.773 5.607 2.318 1.515 1.533 2.274 3.432 2.278 5.696-.004 2.237-.772 4.137-2.306 5.697zm2.279-13.508c-2.173-2.173-4.778-3.26-7.816-3.26-3.075 0-5.708 1.078-7.899 3.232C112.1 21.386 111 23.964 111 26.965l.001.017-.001.01c0 3.422 1.206 6.183 3.618 8.291 2.191 1.906 4.663 2.859 7.416 2.859 1.191 0 2.315-.159 3.373-.473l.044-.046c1.687-.51 3.205-1.419 4.551-2.731 1.576-1.537 2.583-3.316 3.025-5.334l.009-.01.04-.215.016-.084c.027-.147.053-.294.074-.443l.019-.143c.018-.137.035-.274.049-.413l.013-.177c.011-.131.021-.26.027-.392.005-.108.006-.218.009-.327l.006-.232-.001-.016.001-.011c0-3.053-1.091-5.663-3.273-7.835zM73 17v21.329l.002-.004h3.26V20.07h7.419V17H73M92.266 31.242V16.896l-.002.004H89l.004 22.209v.076l14.391-15.318v.003l.003.006-.003-.006v-.001.007h-.008l.008 14.349h3.262V16L92.266 31.242M151.013 25.025V25l-.013.025h.013"/>
        <path d="M154.669 17h-3.262v8.313h-9.145V17H139v21.329h3.262v-9.945h9.145v9.928l3.253-.016.009-21.296M66.845 20.07V17H49l1.543 3.07h16.302M66.667 39.085v-3.056h-.048l.027-.029H58l1.545 3.073 7.122.012M66.233 29.056V26H53l1.537 3.056h11.696M66.517 54.154c.279.446.727.668 1.344.668.479 0 .872-.205 1.181-.619.308-.416.462-1.008.462-1.783 0-.78-.158-1.358-.477-1.734-.317-.375-.71-.563-1.177-.563-.521 0-.943.199-1.267.599-.324.402-.485.99-.485 1.767 0 .664.14 1.218.419 1.665zm2.32-4.639c.185.117.394.318.627.608V47h.999v8.51h-.935v-.86c-.242.38-.528.656-.857.824-.331.17-.708.255-1.134.255-.686 0-1.28-.288-1.783-.869-.503-.579-.754-1.35-.754-2.313 0-.9.23-1.68.688-2.341.458-.659 1.113-.99 1.964-.99.471 0 .867.101 1.185.299zM82 55.483h1.057v-6.155H82v6.155zm0-7.304h1.057V47H82v1.179zM97.976 50.472a1.512 1.512 0 0 0-1.201-.554c-.728 0-1.226.342-1.494 1.028-.142.367-.212.845-.212 1.436 0 .698.141 1.229.422 1.592.282.364.659.547 1.134.547.743 0 1.266-.337 1.569-1.012.168-.38.252-.825.252-1.334 0-.764-.156-1.334-.47-1.703zm-.128-1.114c.196.136.395.33.598.589v-.779h.959v5.623c0 .787-.115 1.405-.346 1.859-.429.84-1.241 1.26-2.434 1.26-.663 0-1.222-.15-1.674-.449-.453-.297-.706-.764-.76-1.398h1.057c.049.276.148.489.298.641.233.23.601.346 1.103.346.793 0 1.311-.282 1.556-.845.146-.33.213-.92.201-1.771-.207.315-.456.55-.747.703-.292.155-.677.233-1.157.233-.667 0-1.251-.239-1.751-.715-.501-.474-.751-1.26-.751-2.358 0-1.036.252-1.845.756-2.426.505-.58 1.114-.871 1.827-.871.483 0 .905.118 1.265.358zM111 55.483h1.057v-6.155H111v6.155zm0-7.304h1.057V47H111v1.179zM123.836 48h1.052v1.727h.987v.85h-.987v4.034c0 .218.073.363.22.434.08.042.214.065.403.065l.162-.005.202-.02v.827c-.119.036-.243.06-.372.076a4.164 4.164 0 0 1-.419.022c-.485 0-.814-.125-.987-.373-.173-.248-.261-.57-.261-.968v-4.092H123v-.85h.836V48M138.414 54.4c.22.172.479.259.78.259.365 0 .719-.085 1.062-.255.577-.279.866-.739.866-1.378v-.835a1.73 1.73 0 0 1-.49.203c-.2.053-.395.091-.587.116l-.628.08c-.378.05-.66.13-.85.237-.322.179-.482.467-.482.863 0 .301.11.536.329.71zm2.188-2.808c.239-.032.399-.132.479-.3a.91.91 0 0 0 .07-.4c0-.355-.125-.614-.378-.775-.251-.159-.611-.239-1.08-.239-.542 0-.926.147-1.153.44-.126.163-.209.404-.247.726h-.971c.02-.764.267-1.296.742-1.595.475-.3 1.025-.449 1.652-.449.727 0 1.318.138 1.771.416.45.276.675.708.675 1.293v3.564c0 .107.022.194.066.259.044.065.137.098.28.098l.156-.009.185-.027v.769a2.693 2.693 0 0 1-.37.087c-.085.012-.2.016-.346.016-.358 0-.618-.126-.78-.38-.085-.134-.144-.326-.179-.572-.212.277-.516.518-.913.721a2.82 2.82 0 0 1-1.31.307c-.574 0-1.042-.174-1.407-.523a1.733 1.733 0 0 1-.544-1.305c0-.574.178-1.016.537-1.332.357-.317.827-.511 1.409-.583l1.656-.207zM154 55.483h1.04V47H154z"/>
    </g>
</svg>
