<?xml version="1.0" encoding="utf-8"?>
<!-- Generator: Adobe Illustrator 18.0.0, SVG Export Plug-In . SVG Version: 6.00 Build 0)  -->
<!DOCTYPE svg PUBLIC "-//W3C//DTD SVG 1.1//EN" "http://www.w3.org/Graphics/SVG/1.1/DTD/svg11.dtd">
<svg version="1.1" id="Layer_1" xmlns="http://www.w3.org/2000/svg" xmlns:xlink="http://www.w3.org/1999/xlink" x="0px" y="0px"
	 viewBox="0 0 127 64" enable-background="new 0 0 127 64" xml:space="preserve">
<g>
	<g>
		<path fill="#FFFFFF" d="M58.9,21.1l18.4,0c0-2.8,0-5.6,0-8.4H49.8c0,2.8,0,5.6,0,8.5L58.9,21.1L58.9,21.1z"/>
		<path fill="#FFFFFF" d="M58.9,23.5v26.1c3.1,0,6.2,0,9.4,0V23.5L58.9,23.5z"/>
	</g>
	<path fill="#FFFFFF" d="M6.5,12.2H0v37.1c3.2,0,6.4,0,9.7,0V30.5l10.1,10.7l7.6-7.1L6.5,12.2z"/>
	<path fill="#FFFFFF" d="M34.5,12.3L22.8,25.9l6.2,6.5v17c3.2,0,6.4,0,9.7,0V12.3H34.5z"/>
	<path fill="#FFFFFF" d="M120.5,12.4h6.5v37.1c-3.2,0-6.4,0-9.7,0V30.7l-10.1,10.7l-7.6-7.1L120.5,12.4z"/>
	<path fill="#FFFFFF" d="M92.6,12.5l11.7,13.6l-6.2,6.5v17c-3.2,0-6.4,0-9.7,0V12.5H92.6z"/>
</g>
</svg>
