<?xml version="1.0" encoding="UTF-8"?>
<svg width="80px" height="67px" viewBox="0 0 80 67" version="1.1" xmlns="http://www.w3.org/2000/svg" xmlns:xlink="http://www.w3.org/1999/xlink">
    <!-- Generator: Sketch 46.2 (44496) - http://www.bohemiancoding.com/sketch -->
    <title>bars copy</title>
    <desc>Created with Sketch.</desc>
    <defs></defs>
    <g id="Desktop" stroke="none" stroke-width="1" fill="none" fill-rule="evenodd">
        <g id="Artboard-3" transform="translate(-4.000000, -5.000000)" fill-rule="nonzero" fill="#75C3B7">
            <g id="bars-copy" transform="translate(4.000000, 5.000000)">
                <g id="Group" transform="translate(55.000000, 0.000000)">
                    <path d="M11.3341176,0.00356582633 C5.23529412,0.00356582633 0.416470588,4.88311765 0.416470588,10.9637899 C0.416470588,17.0444622 5.31058824,21.848944 11.3341176,21.848944 C17.3576471,21.848944 22.3270588,16.9693922 22.3270588,10.8887199 C22.3270588,4.80804762 17.4329412,0.00356582633 11.3341176,0.00356582633 Z M11.3341176,19.4467031 C6.59058824,19.4467031 2.75058824,15.6181317 2.75058824,10.8887199 C2.75058824,6.15930812 6.66588235,2.40580672 11.3341176,2.40580672 C16.0776471,2.40580672 19.9176471,6.23437815 19.9176471,10.9637899 C19.9176471,15.6932017 16.0776471,19.4467031 11.3341176,19.4467031 Z" id="Shape"></path>
                    <path d="M14.7976471,12.6153305 C14.7223529,12.3901204 14.7223529,12.2399804 14.5717647,12.0147703 C14.4964706,11.8646303 14.4211765,11.6394202 14.2705882,11.4892801 C14.12,11.3391401 14.0447059,11.189 13.8941176,11.0388599 C13.7435294,10.8887199 13.5929412,10.7385798 13.3670588,10.6635098 C13.2164706,10.5133697 12.9905882,10.4382997 12.84,10.3632297 C12.6141176,10.2881597 12.4635294,10.1380196 12.2376471,10.0629496 C12.0117647,9.98787955 11.7858824,9.91280952 11.6352941,9.8377395 C11.56,9.8377395 11.4094118,9.76266947 11.3341176,9.68759944 C11.2588235,9.61252941 11.1082353,9.61252941 11.0329412,9.53745938 C10.9576471,9.46238936 10.8070588,9.46238936 10.7317647,9.38731933 C10.6564706,9.3122493 10.5811765,9.23717927 10.5058824,9.16210924 C10.4305882,9.08703922 10.3552941,9.01196919 10.3552941,8.86182913 C10.28,8.7867591 10.28,8.63661905 10.28,8.56154902 L10.28,8.18619888 C10.28,8.11112885 10.3552941,7.9609888 10.3552941,7.88591877 C10.4305882,7.81084874 10.4305882,7.66070868 10.5058824,7.58563866 C10.5811765,7.51056863 10.6564706,7.4354986 10.7317647,7.36042857 C10.8070588,7.28535854 10.9576471,7.21028852 11.1082353,7.21028852 C11.2588235,7.13521849 11.3341176,7.13521849 11.4847059,7.13521849 L11.7105882,7.13521849 L11.9364706,7.13521849 C12.0870588,7.13521849 12.1623529,7.13521849 12.3129412,7.21028852 C12.4635294,7.21028852 12.6141176,7.28535854 12.6894118,7.28535854 C12.7647059,7.28535854 12.9152941,7.36042857 12.9905882,7.36042857 C13.1411765,7.36042857 13.2164706,7.4354986 13.2917647,7.4354986 L13.6682353,7.58563866 L13.7435294,7.13521849 L13.8941176,5.93409804 L13.8941176,5.63381793 L13.5929412,5.5587479 C13.5176471,5.5587479 13.3670588,5.48367787 13.2917647,5.48367787 C13.2164706,5.48367787 13.1411765,5.40860784 12.9905882,5.40860784 C12.9152941,5.40860784 12.7647059,5.33353782 12.6141176,5.33353782 C12.4635294,5.33353782 12.3882353,5.25846779 12.2376471,5.25846779 L12.1623529,5.25846779 L12.1623529,4.20748739 L12.1623529,3.83213725 L11.7858824,3.83213725 L10.7317647,3.83213725 L10.3552941,3.83213725 L10.3552941,4.20748739 L10.3552941,5.33353782 L10.28,5.33353782 C10.0541176,5.40860784 9.82823529,5.48367787 9.60235294,5.63381793 C9.37647059,5.70888796 9.22588235,5.85902801 9.07529412,6.00916807 C8.92470588,6.15930812 8.77411765,6.30944818 8.62352941,6.53465826 C8.47294118,6.68479832 8.39764706,6.9100084 8.32235294,7.13521849 C8.24705882,7.36042857 8.17176471,7.58563866 8.09647059,7.81084874 C8.02117647,8.03605882 8.02117647,8.33633894 8.02117647,8.56154902 C8.02117647,8.7867591 8.02117647,8.93689916 8.09647059,9.16210924 C8.17176471,9.38731933 8.17176471,9.53745938 8.32235294,9.76266947 C8.39764706,9.91280952 8.54823529,10.1380196 8.62352941,10.2881597 C8.77411765,10.4382997 8.84941176,10.5884398 9,10.7385798 C9.15058824,10.8887199 9.30117647,11.0388599 9.52705882,11.11393 C9.67764706,11.26407 9.90352941,11.3391401 10.0541176,11.4142101 C10.28,11.4892801 10.5058824,11.6394202 10.6564706,11.7144902 C10.8823529,11.7895602 11.1082353,11.8646303 11.2588235,11.9397003 C11.3341176,11.9397003 11.4847059,12.0147703 11.56,12.0898403 C11.6352941,12.1649104 11.7858824,12.1649104 11.8611765,12.2399804 C11.9364706,12.3150504 12.0117647,12.3901204 12.0870588,12.3901204 C12.1623529,12.4651905 12.2376471,12.5402605 12.3129412,12.6153305 C12.3882353,12.6904006 12.3882353,12.7654706 12.4635294,12.9156106 C12.4635294,12.9906807 12.5388235,13.1408207 12.5388235,13.2909608 L12.5388235,13.6663109 C12.5388235,13.741381 12.4635294,13.891521 12.3882353,13.966591 C12.3129412,14.0416611 12.2376471,14.1167311 12.1623529,14.1918011 C12.0870588,14.2668711 12.0117647,14.3419412 11.8611765,14.4170112 C11.7858824,14.4920812 11.6352941,14.4920812 11.56,14.5671513 C11.4847059,14.5671513 11.3341176,14.6422213 11.1835294,14.6422213 L10.8823529,14.6422213 L10.5811765,14.6422213 L10.2047059,14.6422213 C10.0541176,14.6422213 9.90352941,14.5671513 9.82823529,14.5671513 C9.67764706,14.5671513 9.52705882,14.4920812 9.37647059,14.4170112 C9.22588235,14.3419412 9.07529412,14.3419412 8.92470588,14.2668711 C8.84941176,14.2668711 8.77411765,14.1918011 8.69882353,14.1918011 C8.62352941,14.1918011 8.54823529,14.1167311 8.47294118,14.1167311 L8.02117647,13.891521 L7.94588235,14.4170112 L7.79529412,15.7682717 L7.79529412,15.9934818 L8.02117647,16.0685518 C8.32235294,15.9934818 8.47294118,16.0685518 8.69882353,16.1436218 C8.84941176,16.2186919 9.07529412,16.2937619 9.22588235,16.2937619 C9.37647059,16.3688319 9.60235294,16.3688319 9.82823529,16.443902 C10.0541176,16.518972 10.2047059,16.518972 10.4305882,16.518972 L10.5811765,16.518972 L10.5811765,17.6450224 L10.5811765,18.0203725 L10.9576471,18.0203725 L12.0117647,18.0203725 L12.3882353,18.0203725 L12.3882353,17.6450224 L12.3882353,16.443902 L12.4635294,16.443902 C12.6894118,16.3688319 12.9152941,16.2937619 13.1411765,16.1436218 C13.3670588,16.0685518 13.5176471,15.9184118 13.7435294,15.7682717 C13.8941176,15.6181317 14.0447059,15.4679916 14.1952941,15.2427815 C14.3458824,15.0926415 14.4211765,14.8674314 14.5717647,14.6422213 C14.6470588,14.4170112 14.7223529,14.1918011 14.7976471,13.966591 C14.8729412,13.741381 14.8729412,13.5161709 14.8729412,13.2158908 C14.8729412,12.9906807 14.8729412,12.8405406 14.7976471,12.6153305 Z" id="Shape"></path>
                </g>
                <path d="M61.0635294,23.2752745 C60.6870588,22.7497843 59.8588235,22.6747143 59.3317647,23.0500644 L47.1341176,32.734098 L31.3976471,26.2030056 C31.0211765,26.0528655 30.5694118,26.1279356 30.2682353,26.3531457 L13.4023529,38.3643501 C12.8752941,38.7397003 12.7247059,39.4904006 13.1011765,40.0158908 C13.3270588,40.3912409 13.7035294,40.541381 14.08,40.541381 C14.3058824,40.541381 14.5317647,40.4663109 14.7576471,40.3161709 L31.0964706,28.6803165 L46.9082353,35.211409 C47.2847059,35.361549 47.8117647,35.286479 48.1129412,35.0612689 L60.8376471,25.0018852 C61.3647059,24.626535 61.44,23.8007647 61.0635294,23.2752745 Z" id="Shape"></path>
                <path d="M78.6823529,64.4136499 L73.1105882,64.4136499 L73.1105882,29.6562269 C73.1105882,28.9805966 72.5835294,28.4551064 71.9058824,28.4551064 L60.8376471,28.4551064 C60.16,28.4551064 59.6329412,28.9805966 59.6329412,29.6562269 L59.6329412,64.4136499 L55.5670588,64.4136499 L55.5670588,41.6674314 C55.5670588,40.9918011 55.04,40.4663109 54.3623529,40.4663109 L43.2188235,40.4663109 C42.5411765,40.4663109 42.0141176,40.9918011 42.0141176,41.6674314 L42.0141176,64.4136499 L37.9482353,64.4136499 L37.9482353,39.8657507 C37.9482353,39.1901204 37.4211765,38.6646303 36.7435294,38.6646303 L25.6752941,38.6646303 C24.9976471,38.6646303 24.4705882,39.1901204 24.4705882,39.8657507 L24.4705882,64.4136499 L20.4047059,64.4136499 L20.4047059,46.9223333 C20.4047059,46.2467031 19.8776471,45.7212129 19.2,45.7212129 L8.05647059,45.7212129 C7.37882353,45.7212129 6.85176471,46.2467031 6.85176471,46.9223333 L6.85176471,64.4136499 L1.20470588,64.4136499 C0.527058824,64.4136499 0,64.9391401 0,65.6147703 C0,66.2904006 0.527058824,66.8158908 1.20470588,66.8158908 L7.98117647,66.8158908 L19.0494118,66.8158908 L25.6752941,66.8158908 L36.7435294,66.8158908 L43.2188235,66.8158908 L54.2870588,66.8158908 L60.7623529,66.8158908 L71.8305882,66.8158908 L78.6070588,66.8158908 C79.2847059,66.8158908 79.8117647,66.2904006 79.8117647,65.6147703 C79.8870588,64.9391401 79.36,64.4136499 78.6823529,64.4136499 Z M17.92,64.4136499 L9.26117647,64.4136499 L9.26117647,48.1234538 L17.92,48.1234538 L17.92,64.4136499 Z M35.5388235,64.4136499 L26.88,64.4136499 L26.88,41.0668711 L35.5388235,41.0668711 L35.5388235,64.4136499 Z M53.0823529,64.4136499 L44.4235294,64.4136499 L44.4235294,42.8685518 L53.0823529,42.8685518 L53.0823529,64.4136499 Z M70.7011765,64.4136499 L62.0423529,64.4136499 L62.0423529,30.8573473 L70.7011765,30.8573473 L70.7011765,64.4136499 Z" id="Shape"></path>
            </g>
        </g>
    </g>
</svg>