<svg xmlns="http://www.w3.org/2000/svg" width="117" height="186" viewBox="0 0 117 186">
    <g fill="none" fill-rule="evenodd" opacity=".3">
        <path fill="#FFF" d="M140.242 173.093a1.99 1.99 0 0 1-.162.813 1.877 1.877 0 0 1-.725.826 2.078 2.078 0 0 1-1.095.323c-.23 0-.449-.04-.66-.124a1.958 1.958 0 0 1-.65-.424l-3.503-3.324a18.998 18.998 0 0 0-6.255-4.136 19.074 19.074 0 0 0-7.177-1.4 19.046 19.046 0 0 0-13.488 5.589 12.928 12.928 0 0 1-9.175 3.8 12.913 12.913 0 0 1-9.172-3.8 19 19 0 0 0-6.311-4.189c-2.3-.933-4.739-1.4-7.177-1.4a19.037 19.037 0 0 0-13.489 5.589 12.92 12.92 0 0 1-9.173 3.8c-1.665 0-3.325-.319-4.883-.95a12.895 12.895 0 0 1-4.29-2.85 19.065 19.065 0 0 0-13.488-5.588 19.053 19.053 0 0 0-13.49 5.588l.004-.002-2.84 2.833c-.229.227-.444.36-.664.45-.217.087-.442.13-.679.131a2.105 2.105 0 0 1-1.403-.555 1.787 1.787 0 0 1-.422-.59 1.973 1.973 0 0 1-.162-.815V75.632c.001-18.033 7.3-34.329 19.114-46.147 11.822-11.817 28.118-19.117 46.151-19.119 18.032.002 34.327 7.302 46.148 19.115 11.815 11.82 19.113 28.118 19.114 46.15v97.462h.002zM127.994 21.96C114.437 8.397 95.671-.002 74.978 0 54.284-.002 35.518 8.397 21.96 21.96 8.397 35.518-.002 54.284 0 74.978v101.968a8.471 8.471 0 0 0 .723 3.46 8.375 8.375 0 0 0 3.206 3.686 8.584 8.584 0 0 0 4.567 1.324c1.04 0 2.104-.195 3.124-.608a8.495 8.495 0 0 0 2.813-1.872l2.983-2.978.003-.003a13.587 13.587 0 0 1 4.507-2.994 13.638 13.638 0 0 1 5.13-.998 13.594 13.594 0 0 1 9.638 3.991 19.936 19.936 0 0 0 6.63 4.403 20.06 20.06 0 0 0 7.538 1.468 20.008 20.008 0 0 0 14.171-5.871 13.58 13.58 0 0 1 4.505-2.993 13.654 13.654 0 0 1 5.132-.998 13.58 13.58 0 0 1 9.636 3.991 19.961 19.961 0 0 0 6.632 4.403 20.063 20.063 0 0 0 7.54 1.468 20 20 0 0 0 14.171-5.871 13.587 13.587 0 0 1 4.508-2.993 13.638 13.638 0 0 1 5.129-.998 13.594 13.594 0 0 1 9.64 3.991l.06.059 3.679 3.494a8.57 8.57 0 0 0 2.758 1.765 8.34 8.34 0 0 0 3.034.572 8.581 8.581 0 0 0 5.847-2.313 8.352 8.352 0 0 0 1.924-2.702 8.517 8.517 0 0 0 .721-3.454V74.978c.008-20.694-8.392-39.46-21.955-53.018z"/>
        <path fill="#FFF" d="M74.057 122.808c-3.42 0-6.776-.918-9.7-2.656a2.772 2.772 0 0 1-.968-3.797 2.773 2.773 0 0 1 3.797-.967 13.459 13.459 0 0 0 6.87 1.88c2.366 0 4.692-.62 6.727-1.794a2.768 2.768 0 0 1 3.783 1.016 2.768 2.768 0 0 1-1.016 3.783 19.02 19.02 0 0 1-9.493 2.535"/>
        <g fill="#D9E021">
            <path fill-rule="nonzero" d="M97.717 101.514c-12.293 0-22.257-9.965-22.257-22.257C75.46 66.965 85.424 57 97.717 57c12.292 0 22.256 9.965 22.256 22.257 0 12.292-9.964 22.257-22.256 22.257zm0-7.42c8.194 0 14.837-6.642 14.837-14.837s-6.643-14.838-14.837-14.838c-8.195 0-14.838 6.643-14.838 14.838s6.643 14.838 14.838 14.838zM48.257 101.514C35.965 101.514 26 91.549 26 79.257 26 66.965 35.965 57 48.257 57c12.292 0 22.257 9.965 22.257 22.257 0 12.292-9.965 22.257-22.257 22.257zm0-7.42c8.195 0 14.838-6.642 14.838-14.837s-6.643-14.838-14.838-14.838-14.838 6.643-14.838 14.838 6.643 14.838 14.838 14.838z"/>
            <path d="M66.804 75.547h13.601v7.419H66.804z"/>
        </g>
    </g>
</svg>
