<svg xmlns="http://www.w3.org/2000/svg" width="753" height="182" viewBox="0 0 753 182">
    <g fill="none" fill-rule="evenodd">
        <path fill="#FFFFFE" d="M56.618 177.048c-16.162 0-29.64-5.126-40.43-15.39C5.395 151.398 0 138.188 0 122.024c0-16.159 5.395-29.37 16.188-39.633C26.978 72.132 40.456 67 56.618 67c19.883 0 34.713 8.666 44.497 25.998l-19.456 9.57c-2.34-4.466-5.77-8.16-10.288-11.084-4.521-2.924-9.437-4.388-14.753-4.388-9.676 0-17.65 3.297-23.922 9.89-6.276 6.592-9.41 14.938-9.41 25.038 0 10.103 3.134 18.449 9.41 25.04 6.273 6.594 14.246 9.89 23.922 9.89 5.316 0 10.232-1.436 14.753-4.305 4.519-2.872 7.948-6.592 10.288-11.166l19.456 9.41c-10.102 17.44-24.934 26.155-44.497 26.155M329.977 176.889c-18.929 0-33.92-5.633-44.977-16.905l12.28-17.224c9.143 9.567 20.414 14.352 33.81 14.352 5.85 0 10.394-1.14 13.638-3.428 3.243-2.286 4.865-5.077 4.865-8.374 0-2.87-1.516-5.263-4.546-7.176-3.031-1.914-6.806-3.296-11.324-4.147-4.519-.85-9.437-2.074-14.752-3.67-5.317-1.595-10.235-3.4-14.753-5.421-4.52-2.018-8.293-5.209-11.325-9.57-3.03-4.358-4.544-9.673-4.544-15.948 0-9.144 3.668-16.828 11.005-23.049C306.69 70.111 316.473 67 328.7 67c16.905 0 30.727 4.945 41.469 14.832L357.567 98.42c-8.4-7.76-18.714-11.643-30.94-11.643-4.784 0-8.51.959-11.165 2.872-2.659 1.913-3.986 4.52-3.986 7.815 0 2.551 1.515 4.705 4.545 6.459 3.031 1.755 6.803 3.056 11.323 3.907 4.518.854 9.41 2.102 14.672 3.75 5.263 1.648 10.153 3.508 14.674 5.58 4.519 2.073 8.293 5.318 11.325 9.73 3.03 4.412 4.544 9.703 4.544 15.87 0 10.207-3.643 18.447-10.925 24.721-7.283 6.273-17.837 9.408-31.657 9.408M461.729 117.645c4.57 0 8.313-1.301 11.253-3.907 2.91-2.605 4.373-6.085 4.373-10.447 0-4.36-1.463-7.84-4.373-10.447-2.94-2.603-6.682-3.908-11.253-3.908h-24.082v28.71h24.082zm-24.082 57.735H415V69h49.76c11.162 0 19.907 3.27 26.23 9.81 6.338 6.538 9.5 14.699 9.5 24.481 0 9.677-3.192 17.811-9.574 24.403-6.382 6.593-15.098 9.886-26.156 9.886h-27.113v37.8z"/>
        <g fill="#732379">
            <path d="M409.713 40.508H394V.658h15.713c12.487 0 21.15 7.945 21.15 19.954 0 12.01-8.663 19.896-21.15 19.896zm0-7.468c7.887 0 12.487-5.676 12.487-12.428 0-7.05-4.301-12.486-12.487-12.486h-7.229V33.04h7.23zM465.397 40.508V33.04H445.68v-9.022h19.298V16.55H445.68V8.126h19.716V.657h-28.2v39.851zM476.032 20.911c2.629 0 4.84-2.21 4.84-4.84 0-2.628-2.211-4.839-4.84-4.839-2.63 0-4.84 2.21-4.84 4.84 0 2.629 2.21 4.84 4.84 4.84zM476.032 41.165c2.629 0 4.84-2.21 4.84-4.84 0-2.628-2.211-4.839-4.84-4.839-2.63 0-4.84 2.21-4.84 4.84 0 2.629 2.21 4.84 4.84 4.84zM501.782 41.225c10.755 0 15.953-5.497 15.953-12.786 0-14.877-22.883-10.635-22.883-16.968 0-2.39 2.031-4.003 5.676-4.003 4.062 0 8.364 1.374 11.59 4.362l4.72-6.214c-3.943-3.644-9.2-5.556-15.534-5.556-9.38 0-15.115 5.496-15.115 12.128 0 14.997 22.942 10.157 22.942 17.207 0 2.27-2.27 4.421-6.93 4.421-5.497 0-9.859-2.45-12.667-5.377l-4.6 6.453c3.704 3.764 9.2 6.333 16.848 6.333zM540.737 40.508V8.126h11.59V.657h-31.784v7.469h11.65v32.382zM575.51 41.225c-12.01 0-20.792-8.604-20.792-20.613S563.5 0 575.509 0c12.07 0 20.852 8.603 20.852 20.612 0 12.01-8.783 20.613-20.852 20.613zm0-7.528c7.348 0 12.128-5.676 12.128-13.085 0-7.468-4.78-13.084-12.129-13.084-7.348 0-12.068 5.616-12.068 13.084 0 7.409 4.72 13.085 12.068 13.085zM634.897 40.508h-9.738l-7.827-14.16h-6.214v14.16h-8.484V.658h18.641c8.305 0 13.383 5.436 13.383 12.845 0 7.05-4.421 10.814-8.723 11.83l8.962 15.175zM620.02 18.88c3.406 0 5.975-2.032 5.975-5.377 0-3.346-2.57-5.377-5.975-5.377h-8.902V18.88h8.902zM678.512 40.508h-9.679l-2.45-6.751h-17.087l-2.51 6.751h-9.678L652.522.658h10.635l15.355 39.85zm-14.459-14.22L657.84 9.141l-6.214 17.147h12.427zM699.782 41.285c7.229 0 12.905-2.988 16.968-7.528V18.462h-19v7.408h10.516v4.78c-1.613 1.494-4.96 3.047-8.484 3.047-7.23 0-12.487-5.556-12.487-13.085 0-7.528 5.257-13.084 12.487-13.084 4.242 0 7.647 2.39 9.44 5.198l7.05-3.824C713.284 4.182 708.086 0 699.782 0c-11.65 0-21.21 8.006-21.21 20.612 0 12.547 9.56 20.673 21.21 20.673zM752 40.508V33.04h-19.716v-9.022h19.298V16.55h-19.298V8.126H752V.657h-28.2v39.851z"/>
        </g>
        <path fill="#FFFFFE" d="M619.284 175.38H544V69h75.284v19.936h-52.622v22.49h51.514v19.936h-51.514v24.082h52.622v19.936M243.42 170.988a1.61 1.61 0 0 1-.132.657c-.12.27-.32.498-.586.668a1.68 1.68 0 0 1-.885.261c-.187 0-.364-.032-.535-.1a1.584 1.584 0 0 1-.525-.343l-2.833-2.689a15.365 15.365 0 0 0-5.058-3.344 15.426 15.426 0 0 0-5.805-1.132 15.403 15.403 0 0 0-10.908 4.52 10.455 10.455 0 0 1-7.42 3.072 10.443 10.443 0 0 1-7.418-3.073 15.366 15.366 0 0 0-5.105-3.387 15.432 15.432 0 0 0-5.804-1.132 15.396 15.396 0 0 0-10.909 4.52 10.45 10.45 0 0 1-7.419 3.072 10.51 10.51 0 0 1-3.948-.768 10.429 10.429 0 0 1-3.47-2.305 15.419 15.419 0 0 0-10.909-4.52 15.409 15.409 0 0 0-10.909 4.52l.003-.001-2.297 2.291a1.604 1.604 0 0 1-.536.363 1.48 1.48 0 0 1-.55.107c-.402.003-.839-.17-1.134-.45a1.445 1.445 0 0 1-.342-.477c-.08-.18-.13-.387-.131-.658V92.167c.001-14.584 5.905-27.763 15.459-37.322 9.56-9.556 22.74-15.46 37.324-15.461 14.583.001 27.762 5.905 37.321 15.458 9.556 9.56 15.458 22.74 15.459 37.323v78.823h.001zM233.513 48.76C222.55 37.791 207.373 31 190.638 31c-16.737-.001-31.913 6.791-42.878 17.76C136.791 59.725 130 74.901 130 91.638v82.465a6.851 6.851 0 0 0 .585 2.798 6.773 6.773 0 0 0 2.593 2.981 6.943 6.943 0 0 0 3.693 1.072c.84 0 1.702-.159 2.526-.492a6.87 6.87 0 0 0 2.275-1.515l2.413-2.408.003-.003a10.989 10.989 0 0 1 7.793-3.228 10.994 10.994 0 0 1 7.794 3.228 16.123 16.123 0 0 0 5.363 3.56 16.224 16.224 0 0 0 6.096 1.188 16.19 16.19 0 0 0 11.461-4.748 10.983 10.983 0 0 1 3.643-2.421 11.043 11.043 0 0 1 4.15-.807 10.983 10.983 0 0 1 7.793 3.228 16.143 16.143 0 0 0 5.364 3.56 16.226 16.226 0 0 0 6.099 1.188 16.175 16.175 0 0 0 11.461-4.748 10.989 10.989 0 0 1 7.792-3.228 10.994 10.994 0 0 1 7.796 3.228l.049.048 2.975 2.826a6.745 6.745 0 0 0 4.685 1.89 6.94 6.94 0 0 0 4.729-1.871c.64-.6 1.18-1.339 1.555-2.185.376-.848.585-1.8.584-2.794V91.638c.006-16.737-6.787-31.913-17.756-42.878z"/>
        <path fill="#FFFFFE" d="M190.942 130.315c-2.766 0-5.48-.743-7.845-2.148a2.242 2.242 0 0 1 2.289-3.853 10.885 10.885 0 0 0 5.556 1.52c1.913 0 3.794-.502 5.44-1.45a2.238 2.238 0 0 1 3.059.821 2.238 2.238 0 0 1-.821 3.06 15.383 15.383 0 0 1-7.678 2.05M723.955 114.62c-2.984 2.607-6.81 4.131-11.493 4.131H688.16V89.205h24.302c4.683 0 8.509 1.498 11.493 4.103 2.97 2.607 4.462 6.297 4.462 10.656 0 4.36-1.492 8.052-4.462 10.657zm4.3 21.073c6.485-1.489 11.995-5.027 16.516-10.449 4.52-5.423 6.78-12.532 6.78-21.252 0-10.1-3.22-18.194-9.661-24.573C735.463 73.04 726.762 70 715.815 70H666v106.367h22.16v-38.41h17.137l20.889 38.41h26l-23.932-40.674z"/>
        <g transform="translate(155 80)">
            <circle cx="55" cy="15" r="15" stroke="#732379" stroke-width="6"/>
            <circle cx="15" cy="15" r="15" stroke="#732379" stroke-width="6"/>
            <path fill="#732379" d="M30 12h11v6H30z"/>
        </g>
    </g>
</svg>
