<?xml version="1.0" encoding="UTF-8"?>
<svg width="76px" height="78px" viewBox="0 0 76 78" version="1.1" xmlns="http://www.w3.org/2000/svg" xmlns:xlink="http://www.w3.org/1999/xlink">
    <!-- Generator: Sketch 43.1 (39012) - http://www.bohemiancoding.com/sketch -->
    <title>host</title>
    <desc>Created with Sketch.</desc>
    <defs></defs>
    <g id="Desktop" stroke="none" stroke-width="1" fill="none" fill-rule="evenodd">
        <g id="host" fill-rule="nonzero" fill="#75C3B7">
            <g id="server" transform="translate(11.000000, 12.000000)">
                <path d="M9.45,5.85 C7.2171,5.85 5.4,7.6671 5.4,9.9 C5.4,12.1329 7.2171,13.95 9.45,13.95 C11.6829,13.95 13.5,12.1329 13.5,9.9 C13.5,7.6671 11.6829,5.85 9.45,5.85 Z M9.45,12.15 C8.2098,12.15 7.2,11.1411 7.2,9.9 C7.2,8.6589 8.2098,7.65 9.45,7.65 C10.6902,7.65 11.7,8.6589 11.7,9.9 C11.7,11.1411 10.6902,12.15 9.45,12.15 Z" id="Shape"></path>
                <ellipse id="Oval" cx="45" cy="8.55" rx="1" ry="1"></ellipse>
                <ellipse id="Oval" cx="41.4" cy="8.55" rx="1" ry="1"></ellipse>
                <ellipse id="Oval" cx="46.8" cy="11.25" rx="1" ry="1"></ellipse>
                <ellipse id="Oval" cx="43.2" cy="11.25" rx="1" ry="1"></ellipse>
                <ellipse id="Oval" cx="37.8" cy="8.55" rx="1" ry="1"></ellipse>
                <ellipse id="Oval" cx="39.6" cy="11.25" rx="1" ry="1"></ellipse>
                <ellipse id="Oval" cx="34.2" cy="8.55" rx="1" ry="1"></ellipse>
                <ellipse id="Oval" cx="36" cy="11.25" rx="1" ry="1"></ellipse>
                <ellipse id="Oval" cx="30.6" cy="8.55" rx="1" ry="1"></ellipse>
                <ellipse id="Oval" cx="32.4" cy="11.25" rx="1" ry="1"></ellipse>
                <path d="M54,15.2028 L54,4.5972 C54,2.3103 52.1397,0.45 49.8528,0.45 L4.1472,0.45 C1.8603,0.45 0,2.3103 0,4.5972 L0,15.2019 C0,16.524 0.6327,17.6895 1.5993,18.4491 C0.6327,19.2096 0,20.376 0,21.6972 L0,32.3019 C0,33.624 0.6327,34.7895 1.5993,35.5491 C0.6327,36.3096 0,37.476 0,38.7972 L0,49.4019 C0,51.6897 1.8603,53.55 4.1472,53.55 L49.8519,53.55 C52.1388,53.55 53.9991,51.6897 53.9991,49.4028 L53.9991,38.7972 C53.9991,37.4751 53.3664,36.3096 52.3998,35.55 C53.3673,34.7904 54,33.624 54,32.3028 L54,21.6972 C54,20.3751 53.3673,19.2096 52.4007,18.45 C53.3673,17.6904 54,16.524 54,15.2028 Z M52.2,38.7972 L52.2,49.4019 C52.2,50.6961 51.147,51.7491 49.8528,51.7491 L4.1472,51.7491 C2.853,51.75 1.8,50.697 1.8,49.4028 L1.8,38.7972 C1.8,37.503 2.853,36.45 4.1472,36.45 L49.8519,36.45 C51.147,36.45 52.2,37.503 52.2,38.7972 Z M52.2,21.6972 L52.2,32.3019 C52.2,33.5961 51.147,34.6491 49.8528,34.6491 L4.1472,34.6491 C2.853,34.65 1.8,33.597 1.8,32.3028 L1.8,21.6972 C1.8,20.403 2.853,19.35 4.1472,19.35 L49.8519,19.35 C51.147,19.35 52.2,20.403 52.2,21.6972 Z M4.1472,17.55 C2.853,17.55 1.8,16.497 1.8,15.2028 L1.8,4.5972 C1.8,3.303 2.853,2.25 4.1472,2.25 L49.8519,2.25 C51.147,2.25 52.2,3.303 52.2,4.5972 L52.2,15.2019 C52.2,16.4961 51.147,17.5491 49.8528,17.5491 L4.1472,17.5491 L4.1472,17.55 Z" id="Shape"></path>
                <path d="M9.45,31.05 C11.6829,31.05 13.5,29.2329 13.5,27 C13.5,24.7671 11.6829,22.95 9.45,22.95 C7.2171,22.95 5.4,24.7671 5.4,27 C5.4,29.2329 7.2171,31.05 9.45,31.05 Z M9.45,24.75 C10.6902,24.75 11.7,25.7589 11.7,27 C11.7,28.2411 10.6902,29.25 9.45,29.25 C8.2098,29.25 7.2,28.2411 7.2,27 C7.2,25.7589 8.2098,24.75 9.45,24.75 Z" id="Shape"></path>
                <ellipse id="Oval" cx="45" cy="25.65" rx="1" ry="1"></ellipse>
                <circle id="Oval" cx="41.4" cy="25.65" r="1"></circle>
                <ellipse id="Oval" cx="46.8" cy="28.35" rx="1" ry="1"></ellipse>
                <circle id="Oval" cx="43.2" cy="28.35" r="1"></circle>
                <circle id="Oval" cx="37.8" cy="25.65" r="1"></circle>
                <circle id="Oval" cx="39.6" cy="28.35" r="1"></circle>
                <ellipse id="Oval" cx="34.2" cy="25.65" rx="1" ry="1"></ellipse>
                <ellipse id="Oval" cx="36" cy="28.35" rx="1" ry="1"></ellipse>
                <circle id="Oval" cx="30.6" cy="25.65" r="1"></circle>
                <circle id="Oval" cx="32.4" cy="28.35" r="1"></circle>
                <path d="M9.45,48.15 C11.6829,48.15 13.5,46.3329 13.5,44.1 C13.5,41.8671 11.6829,40.05 9.45,40.05 C7.2171,40.05 5.4,41.8671 5.4,44.1 C5.4,46.3329 7.2171,48.15 9.45,48.15 Z M9.45,41.85 C10.6902,41.85 11.7,42.8589 11.7,44.1 C11.7,45.3411 10.6902,46.35 9.45,46.35 C8.2098,46.35 7.2,45.3411 7.2,44.1 C7.2,42.8589 8.2098,41.85 9.45,41.85 Z" id="Shape"></path>
                <circle id="Oval" cx="45" cy="42.75" r="1"></circle>
                <ellipse id="Oval" cx="41.4" cy="42.75" rx="1" ry="1"></ellipse>
                <circle id="Oval" cx="46.8" cy="45.45" r="1"></circle>
                <ellipse id="Oval" cx="43.2" cy="45.45" rx="1" ry="1"></ellipse>
                <ellipse id="Oval" cx="37.8" cy="42.75" rx="1" ry="1"></ellipse>
                <ellipse id="Oval" cx="39.6" cy="45.45" rx="1" ry="1"></ellipse>
                <circle id="Oval" cx="34.2" cy="42.75" r="1"></circle>
                <circle id="Oval" cx="36" cy="45.45" r="1"></circle>
                <ellipse id="Oval" cx="30.6" cy="42.75" rx="1" ry="1"></ellipse>
                <ellipse id="Oval" cx="32.4" cy="45.45" rx="1" ry="1"></ellipse>
            </g>
        </g>
    </g>
</svg>