<svg xmlns="http://www.w3.org/2000/svg" width="74" height="101" viewBox="0 0 74 101">
    <path fill="#732379" fill-rule="evenodd" d="M70.26 101H48.76V90.855C18.17 88.28 0 73.895 0 50.575c0-23.167 18.17-37.553 48.759-40.278V0H70.26v10.297c30.588 2.725 48.758 16.96 48.758 40.279 0 23.32-18.17 37.704-48.758 40.279V101zm26.803-50.424c0-11.509-9.388-18.928-26.802-21.048v42.096c17.414-1.969 26.802-9.54 26.802-21.048zm-74.955 0c0 11.508 9.237 18.928 26.65 21.048V29.528c-17.413 2.12-26.65 9.69-26.65 21.048z"/>
</svg>
