<?xml version="1.0" encoding="UTF-8"?>
<svg width="50px" height="21px" viewBox="0 0 50 21" version="1.1" xmlns="http://www.w3.org/2000/svg" xmlns:xlink="http://www.w3.org/1999/xlink">
    <!-- Generator: Sketch 46.2 (44496) - http://www.bohemiancoding.com/sketch -->
    <title>line</title>
    <desc>Created with Sketch.</desc>
    <defs></defs>
    <g id="Desktop" stroke="none" stroke-width="1" fill="none" fill-rule="evenodd">
        <g id="line" fill-rule="nonzero" fill="#75C3B7">
            <g id="graph" transform="translate(0.000000, 1.000000)">
                <path d="M49.0635294,1.2752745 C48.6870588,0.7497843 47.8588235,0.6747143 47.3317647,1.0500644 L35.1341176,10.734098 L19.3976471,4.2030056 C19.0211765,4.0528655 18.5694118,4.1279356 18.2682353,4.3531457 L1.4023529,16.3643501 C0.8752941,16.7397003 0.7247059,17.4904006 1.1011765,18.0158908 C1.3270588,18.3912409 1.7035294,18.541381 2.08,18.541381 C2.3058824,18.541381 2.5317647,18.4663109 2.7576471,18.3161709 L19.0964706,6.6803165 L34.9082353,13.211409 C35.2847059,13.361549 35.8117647,13.286479 36.1129412,13.0612689 L48.8376471,3.0018852 C49.3647059,2.626535 49.44,1.8007647 49.0635294,1.2752745 Z" id="Shape"></path>
            </g>
        </g>
    </g>
</svg>