<svg xmlns="http://www.w3.org/2000/svg" width="165" height="40" viewBox="0 0 165 40">
    <g fill="none" fill-rule="evenodd">
        <path fill="#FFF" d="M12.406 38.912c-3.541 0-6.494-1.127-8.859-3.383C1.182 33.274 0 30.371 0 26.82c0-3.552 1.182-6.456 3.547-8.711s5.318-3.383 8.86-3.383c4.356 0 7.606 1.905 9.75 5.714l-4.264 2.103c-.512-.981-1.264-1.793-2.254-2.436a5.824 5.824 0 0 0-3.233-.964c-2.12 0-3.867.725-5.242 2.173-1.375 1.45-2.062 3.284-2.062 5.503 0 2.221.687 4.055 2.062 5.504 1.375 1.449 3.122 2.173 5.242 2.173a5.904 5.904 0 0 0 3.233-.946c.99-.631 1.742-1.449 2.254-2.454l4.264 2.068c-2.214 3.833-5.464 5.749-9.75 5.749M72.306 38.877c-4.148 0-7.433-1.238-9.856-3.716l2.69-3.785c2.004 2.102 4.474 3.154 7.41 3.154 1.281 0 2.277-.25 2.988-.753.71-.503 1.066-1.116 1.066-1.84 0-.631-.332-1.157-.996-1.578-.664-.42-1.491-.724-2.481-.911a31.702 31.702 0 0 1-3.233-.807 26.684 26.684 0 0 1-3.233-1.191c-.99-.444-1.817-1.145-2.481-2.104-.664-.957-.996-2.126-.996-3.505 0-2.01.804-3.698 2.411-5.065 1.608-1.367 3.752-2.05 6.431-2.05 3.704 0 6.733 1.086 9.087 3.26L78.35 21.63c-1.84-1.706-4.1-2.56-6.78-2.56-1.048 0-1.864.212-2.446.632-.582.42-.873.994-.873 1.718 0 .56.332 1.034.996 1.42.664.385 1.49.67 2.48.858.99.188 2.063.462 3.216.824 1.153.362 2.225.771 3.215 1.227.99.455 1.817 1.168 2.482 2.138.664.97.995 2.133.995 3.488 0 2.243-.798 4.054-2.393 5.433-1.596 1.379-3.909 2.068-6.937 2.068M101.176 25.856c1.001 0 1.821-.286 2.465-.859.638-.572.959-1.337.959-2.296 0-.958-.32-1.723-.959-2.296-.644-.572-1.464-.859-2.465-.859h-5.277v6.31h5.277zm-5.277 12.69h-4.963V15.164h10.904c2.446 0 4.362.718 5.747 2.156 1.39 1.437 2.082 3.23 2.082 5.38 0 2.127-.7 3.915-2.098 5.364-1.398 1.449-3.308 2.172-5.731 2.172h-5.941v8.308zM135.7 38.545h-16.497v-23.38H135.7v4.381h-11.531v4.943h11.288v4.382h-11.288v5.292h11.53v4.382M53.339 37.58a.333.333 0 0 1-.157.291.367.367 0 0 1-.194.057.313.313 0 0 1-.117-.022.347.347 0 0 1-.115-.075l-.621-.59a3.366 3.366 0 0 0-3.652-.736c-.408.166-.79.415-1.119.744a2.29 2.29 0 0 1-3.251 0 3.366 3.366 0 0 0-3.662-.744c-.407.166-.79.415-1.119.744a2.29 2.29 0 0 1-2.49.507 2.285 2.285 0 0 1-.76-.507 3.367 3.367 0 0 0-3.663-.744c-.407.166-.79.415-1.119.744l-.503.504a.323.323 0 0 1-.238.103.372.372 0 0 1-.248-.099.318.318 0 0 1-.075-.105.352.352 0 0 1-.029-.144V20.256a11.58 11.58 0 0 1 3.388-8.202 11.51 11.51 0 0 1 8.178-3.398c3.196 0 6.084 1.298 8.178 3.397a11.58 11.58 0 0 1 3.388 8.203V37.58zm-2.17-26.863a13.228 13.228 0 0 0-9.396-3.904 13.228 13.228 0 0 0-9.395 3.904 13.308 13.308 0 0 0-3.892 9.423v18.124a1.487 1.487 0 0 0 .696 1.27c.24.152.52.236.81.236a1.472 1.472 0 0 0 1.052-.44l.528-.53h.001a2.407 2.407 0 0 1 3.416 0 3.532 3.532 0 0 0 2.51 1.043 3.538 3.538 0 0 0 2.512-1.044 2.406 2.406 0 0 1 3.415 0 3.537 3.537 0 0 0 2.512 1.044 3.543 3.543 0 0 0 2.511-1.044 2.407 2.407 0 0 1 3.416 0l.01.01.653.622a1.474 1.474 0 0 0 1.026.415c.387 0 .755-.148 1.036-.411a1.485 1.485 0 0 0 .47-1.094v-18.2a13.303 13.303 0 0 0-3.892-9.424z"/>
        <path fill="#FFF" d="M41.84 28.64a3.36 3.36 0 0 1-1.72-.471.494.494 0 0 1-.17-.675.49.49 0 0 1 .672-.172 2.38 2.38 0 0 0 2.41.015.493.493 0 0 1 .49.853c-.51.295-1.091.45-1.682.45M158.636 25.191c-.654.573-1.493.908-2.519.908h-5.325v-6.493h5.325c1.026 0 1.865.329 2.519.901.65.573.977 1.384.977 2.342 0 .959-.327 1.77-.977 2.342zm.942 4.632c1.42-.328 2.628-1.105 3.619-2.297.99-1.192 1.486-2.754 1.486-4.67 0-2.22-.706-4-2.118-5.401-1.408-1.402-3.314-2.07-5.713-2.07h-10.916v23.377h4.856V30.32h3.755l4.577 8.442h5.698l-5.244-8.94z"/>
        <g fill="#D9E021">
            <path fill-rule="nonzero" d="M46.016 24.835a3.95 3.95 0 0 1-3.944-3.956 3.95 3.95 0 0 1 3.944-3.956 3.95 3.95 0 0 1 3.944 3.956 3.95 3.95 0 0 1-3.944 3.956zm0-1.319c1.452 0 2.63-1.18 2.63-2.637a2.633 2.633 0 0 0-2.63-2.637 2.633 2.633 0 0 0-2.63 2.637 2.633 2.633 0 0 0 2.63 2.637zM37.251 24.835a3.95 3.95 0 0 1-3.944-3.956 3.95 3.95 0 0 1 3.944-3.956 3.95 3.95 0 0 1 3.944 3.956 3.95 3.95 0 0 1-3.944 3.956zm0-1.319c1.452 0 2.63-1.18 2.63-2.637a2.633 2.633 0 0 0-2.63-2.637 2.633 2.633 0 0 0-2.63 2.637 2.633 2.633 0 0 0 2.63 2.637z"/>
            <path d="M40.538 20.22h2.41v1.32h-2.41z"/>
        </g>
        <path fill="#D9E021" d="M153.975 8.638h-2.098l-.531-1.463h-3.704l-.544 1.463H145L148.341 0h2.305l3.329 8.638zm-3.134-3.082l-1.347-3.717-1.347 3.717h2.694zm5.927 3.082h-1.84V0h4.041c1.878 0 2.901 1.27 2.901 2.784 0 1.503-1.036 2.785-2.9 2.785h-2.202v3.069zm1.955-4.688c.726 0 1.27-.453 1.27-1.166 0-.725-.544-1.165-1.27-1.165h-1.955v2.33h1.955zM165 8.638V0h-1.839v8.638H165z"/>
    </g>
</svg>
