<?xml version="1.0" encoding="UTF-8"?>
<svg width="233px" height="282px" viewBox="0 0 233 282" version="1.1" xmlns="http://www.w3.org/2000/svg" xmlns:xlink="http://www.w3.org/1999/xlink">
    <!-- Generator: Sketch 43.1 (39012) - http://www.bohemiancoding.com/sketch -->
    <title>Casper_1</title>
    <desc>Created with Sketch.</desc>
    <defs></defs>
    <g id="Desktop" stroke="none" stroke-width="1" fill="none" fill-rule="evenodd">
        <g id="Casper_1">
            <path d="M209.629471,255.391853 C209.62687,255.865093 209.538463,256.226524 209.398051,256.548952 C209.187433,257.024792 208.836403,257.425227 208.365763,257.724252 C207.897723,258.020677 207.333474,258.187092 206.80823,258.184491 C206.480602,258.184491 206.168575,258.127287 205.866949,258.007676 C205.565323,257.888066 205.261097,257.708651 204.94387,257.404425 L199.956644,252.67202 C197.33302,250.069198 194.29336,248.095629 191.053483,246.785117 C187.782404,245.456404 184.308507,244.793347 180.837211,244.793347 C177.365914,244.793347 173.894617,245.453804 170.620938,246.785117 C167.349858,248.111231 164.278996,250.105601 161.63717,252.747427 C159.822215,254.557182 157.749838,255.904097 155.526648,256.803774 C153.308658,257.70345 150.945056,258.155889 148.576254,258.155889 C146.210052,258.155889 143.84385,257.70345 141.62586,256.803774 C139.407871,255.904097 137.330293,254.557182 135.520539,252.747427 C132.878713,250.105601 129.80525,248.10603 126.536771,246.785117 C123.263091,245.456404 119.791795,244.793347 116.320498,244.793347 C112.851802,244.793347 109.377905,245.453804 106.106825,246.785117 C102.835746,248.111231 99.7622833,250.105601 97.1204576,252.747427 C95.3081027,254.557182 93.2331254,255.904097 91.0125357,256.803774 C88.791946,257.70345 86.428344,258.155889 84.0621418,258.155889 C81.6933394,258.155889 79.3297375,257.70345 77.111748,256.803774 C74.8911582,255.904097 72.8161809,254.557182 71.0064263,252.747427 C68.3620004,250.105601 65.291138,248.10603 62.0200585,246.785117 C58.748979,245.456404 55.2776824,244.793347 51.8063858,244.793347 C48.3376894,244.793347 44.8637926,245.453804 41.5901129,246.785117 C38.3190334,248.111231 35.248171,250.105601 32.6037451,252.747427 L32.6089455,252.744827 L28.5656,256.777771 C28.2405723,257.100199 27.933746,257.290015 27.6217194,257.417426 C27.3122929,257.542237 26.9924656,257.602042 26.6544367,257.604642 C25.9471763,257.609842 25.1775105,257.305616 24.6574661,256.814174 C24.3974439,256.572354 24.1972268,256.29153 24.0568148,255.974303 C23.9164028,255.657076 23.8279952,255.293044 23.825395,254.814604 L23.825395,116.659599 C23.8279952,90.9902059 34.218483,67.7936239 51.0341198,50.9701865 C67.8627577,34.1493493 91.0593397,23.7588615 116.728733,23.7562612 C142.395526,23.7588615 165.592108,34.1493493 182.418146,50.964986 C199.236383,67.7910237 209.62427,90.9902059 209.62687,116.656999 L209.62687,255.391853 L209.629471,255.391853 Z M192.194981,40.2598714 C172.896132,20.9532217 146.18405,8.9974002 116.728733,9.00000042 C87.270816,8.9974002 60.5587336,20.9532217 41.2598847,40.2598714 C21.9532351,59.5587203 9.99741351,86.2708027 10.0000137,115.72872 L10.0000137,260.875721 C9.99741351,262.625671 10.3640448,264.310615 11.0297017,265.800542 C12.0255868,268.044534 13.6637268,269.836087 15.5930916,271.047791 C17.5224565,272.262094 19.7664482,272.930351 22.0936471,272.932952 C23.5731735,272.932952 25.089103,272.654728 26.540027,272.067078 C27.9883507,271.484628 29.3638682,270.579751 30.5443691,269.40185 L34.7905319,265.163488 L34.7957324,265.158287 C36.699095,263.257525 38.8780812,261.843004 41.2104805,260.896523 C43.5402795,259.950042 46.0260919,259.476802 48.5119043,259.476802 C50.9977167,259.476802 53.4835291,259.950042 55.8133282,260.896523 C58.1457274,261.843004 60.3273138,263.257525 62.2306765,265.158287 C65.0025133,267.935325 68.2319892,270.033704 71.669483,271.424823 C75.1043764,272.818542 78.7550884,273.515401 82.4005999,273.515401 C86.0487116,273.515401 89.6968233,272.821142 93.1317168,271.424823 C96.5692105,270.031104 99.7960862,267.935325 102.573123,265.158287 C104.473886,263.257525 106.655472,261.843004 108.985271,260.896523 C111.317671,259.950042 113.803483,259.476802 116.289295,259.476802 C118.777708,259.476802 121.26092,259.950042 123.593319,260.896523 C125.923119,261.843004 128.104705,263.257525 130.005467,265.158287 C132.782505,267.935325 136.00678,270.033704 139.446874,271.424823 C142.884368,272.818542 146.529879,273.515401 150.180591,273.515401 C153.826103,273.515401 157.474214,272.821142 160.914308,271.424823 C164.349202,270.031104 167.578678,267.935325 170.353115,265.158287 C172.256477,263.257525 174.435464,261.843004 176.767863,260.896523 C179.097662,259.950042 181.583474,259.476802 184.069287,259.476802 C186.557699,259.476802 189.040912,259.950042 191.373311,260.896523 C193.70831,261.843004 195.884696,263.257525 197.790659,265.158287 L197.876466,265.241494 L203.113314,270.215719 C204.283414,271.326014 205.627729,272.173687 207.039649,272.727534 C208.44897,273.278781 209.920696,273.541404 211.358618,273.541404 C214.468484,273.536203 217.424937,272.353102 219.68193,270.249522 C220.807826,269.193832 221.759507,267.893721 222.419964,266.403794 C223.08042,264.911266 223.449652,263.234123 223.447051,261.486774 L223.447051,115.72872 C223.457452,86.2708027 211.501631,59.5587203 192.194981,40.2598714 L192.194981,40.2598714 Z" id="Fill-10-Copy" fill="#75C3B7"></path>
            <path d="M116.738727,183.115064 C111.871111,183.115064 107.094503,181.807152 102.931547,179.334341 C101.059387,178.221446 100.440534,175.800639 101.55343,173.928479 C102.666325,172.056319 105.087131,171.442667 106.959291,172.552962 C109.905343,174.302911 113.288232,175.22859 116.738727,175.22859 C120.106015,175.22859 123.416098,174.344515 126.312745,172.675172 C128.197906,171.585679 130.610912,172.233134 131.697805,174.120896 C132.787298,176.006057 132.139843,178.419063 130.252082,179.505956 C126.159332,181.866957 121.486733,183.115064 116.738727,183.115064" id="Fill-11-Copy" fill="#75C3B7"></path>
            <g id="Group-2-Copy" transform="translate(48.000000, 89.000000)" fill="#732379">
                <path d="M102.085705,63.3635409 C84.5883461,63.3635409 70.4039344,49.1791291 70.4039344,31.6817705 C70.4039344,14.1844118 84.5883461,0 102.085705,0 C119.583063,0 133.767475,14.1844118 133.767475,31.6817705 C133.767475,49.1791291 119.583063,63.3635409 102.085705,63.3635409 Z M102.085705,52.8029508 C113.750611,52.8029508 123.206885,43.3466762 123.206885,31.6817705 C123.206885,20.0168647 113.750611,10.5605902 102.085705,10.5605902 C90.420799,10.5605902 80.9645245,20.0168647 80.9645245,31.6817705 C80.9645245,43.3466762 90.420799,52.8029508 102.085705,52.8029508 Z" id="Oval-2" fill-rule="nonzero"></path>
                <path d="M31.6817705,63.3635409 C14.1844118,63.3635409 0,49.1791291 0,31.6817705 C0,14.1844118 14.1844118,0 31.6817705,0 C49.1791291,0 63.3635409,14.1844118 63.3635409,31.6817705 C63.3635409,49.1791291 49.1791291,63.3635409 31.6817705,63.3635409 Z M31.6817705,52.8029508 C43.3466762,52.8029508 52.8029508,43.3466762 52.8029508,31.6817705 C52.8029508,20.0168647 43.3466762,10.5605902 31.6817705,10.5605902 C20.0168647,10.5605902 10.5605902,20.0168647 10.5605902,31.6817705 C10.5605902,43.3466762 20.0168647,52.8029508 31.6817705,52.8029508 Z" id="Oval-2-Copy" fill-rule="nonzero"></path>
                <rect id="Rectangle-3" x="58.0832458" y="26.4014754" width="19.3610819" height="10.5605902"></rect>
            </g>
        </g>
    </g>
</svg>