<svg xmlns="http://www.w3.org/2000/svg" width="80" height="67" viewBox="0 0 80 67">
    <g fill="#75C3B7" fill-rule="nonzero">
        <path d="M66.334.004c-6.099 0-10.918 4.88-10.918 10.96 0 6.08 4.895 10.885 10.918 10.885 6.024 0 10.993-4.88 10.993-10.96 0-6.081-4.894-10.885-10.993-10.885zm0 19.443c-4.743 0-8.583-3.829-8.583-8.558 0-4.73 3.915-8.483 8.583-8.483 4.744 0 8.584 3.828 8.584 8.558s-3.84 8.483-8.584 8.483z"/>
        <path d="M69.798 12.615c-.076-.225-.076-.375-.226-.6-.076-.15-.15-.376-.301-.526-.151-.15-.226-.3-.377-.45-.15-.15-.301-.3-.527-.375-.15-.15-.376-.226-.527-.3-.226-.076-.376-.226-.602-.301a5.197 5.197 0 0 1-.603-.225c-.075 0-.226-.075-.3-.15-.076-.075-.227-.075-.302-.15-.075-.076-.226-.076-.301-.15l-.226-.226c-.075-.075-.15-.15-.15-.3-.076-.075-.076-.225-.076-.3v-.376c0-.075.075-.225.075-.3.076-.075.076-.225.15-.3l.227-.226a.576.576 0 0 1 .376-.15c.15-.075.226-.075.377-.075h.451c.151 0 .226 0 .377.075.15 0 .301.075.376.075.076 0 .226.075.302.075.15 0 .225.075.3.075l.377.15.076-.45.15-1.2v-.301l-.301-.075c-.075 0-.226-.075-.301-.075-.076 0-.15-.075-.301-.075-.076 0-.226-.075-.377-.075-.15 0-.226-.076-.376-.076h-.076V3.832H65.355v1.502h-.075c-.226.075-.452.15-.678.3-.226.075-.376.225-.527.375-.15.15-.3.3-.451.526-.151.15-.226.375-.302.6l-.226.676c-.075.225-.075.525-.075.75 0 .226 0 .376.075.601.076.225.076.375.226.6.076.15.226.376.302.526.15.15.225.3.376.45.15.15.301.3.527.376.15.15.377.225.527.3.226.075.452.225.602.3.226.076.452.15.603.226.075 0 .226.075.301.15.075.075.226.075.301.15.075.075.15.15.226.15l.226.225c.075.075.075.15.15.3 0 .076.076.226.076.376v.375c0 .075-.075.226-.15.3l-.227.226c-.075.075-.15.15-.3.225-.076.075-.227.075-.302.15-.075 0-.226.075-.376.075h-.979c-.15 0-.301-.075-.377-.075-.15 0-.3-.075-.452-.15-.15-.075-.3-.075-.451-.15-.076 0-.15-.075-.226-.075-.075 0-.15-.075-.226-.075l-.452-.225-.075.525-.15 1.351v.225l.225.076c.301-.076.452 0 .678.075.15.075.376.15.527.15.15.075.376.075.602.15.226.075.377.075.603.075h.15v1.501h1.807v-1.576h.076c.225-.075.451-.15.677-.3.226-.075.377-.226.603-.376.15-.15.3-.3.451-.525.15-.15.226-.376.377-.6l.226-.676c.075-.226.075-.45.075-.751 0-.225 0-.375-.075-.6zM61.064 23.275c-.377-.525-1.205-.6-1.732-.225l-12.198 9.684-15.736-6.531a1.204 1.204 0 0 0-1.13.15L13.402 38.364c-.527.376-.677 1.126-.3 1.652.225.375.602.525.978.525.226 0 .452-.075.678-.225L31.096 28.68l15.812 6.531c.377.15.904.075 1.205-.15l12.725-10.06c.527-.374.602-1.2.226-1.726z"/>
        <path d="M78.682 64.414h-5.571V29.656c0-.675-.527-1.2-1.205-1.2H60.838c-.678 0-1.205.525-1.205 1.2v34.758h-4.066V41.667c0-.675-.527-1.2-1.205-1.2H43.22c-.678 0-1.205.525-1.205 1.2v22.747h-4.066V39.866c0-.676-.527-1.201-1.204-1.201H25.675c-.677 0-1.204.525-1.204 1.2v24.549h-4.066V46.922c0-.675-.527-1.2-1.205-1.2H8.056c-.677 0-1.204.525-1.204 1.2v17.492H1.205c-.678 0-1.205.525-1.205 1.2 0 .676.527 1.202 1.205 1.202h77.402c.678 0 1.205-.526 1.205-1.201.075-.676-.452-1.201-1.13-1.201zm-60.762 0H9.261v-16.29h8.659v16.29zm17.619 0H26.88V41.067h8.659v23.347zm17.543 0h-8.658V42.869h8.658v21.545zm17.62 0h-8.66V30.857h8.66v33.557z"/>
    </g>
</svg>
