<svg width="82px" height="76px" viewBox="0 0 82 76" version="1.1" xmlns="http://www.w3.org/2000/svg" xmlns:xlink="http://www.w3.org/1999/xlink">
    <g id="Desktop" stroke="none" stroke-width="1" fill="none" fill-rule="evenodd">
        <g id="graph" fill-rule="nonzero" fill="#75C3B7">
            <g id="bars" transform="translate(1.000000, 4.000000)">
                <path d="M66.3341176,0.00356582633 C60.2352941,0.00356582633 55.4164706,4.88311765 55.4164706,10.9637899 C55.4164706,17.0444622 60.3105882,21.848944 66.3341176,21.848944 C72.3576471,21.848944 77.3270588,16.9693922 77.3270588,10.8887199 C77.3270588,4.80804762 72.4329412,0.00356582633 66.3341176,0.00356582633 Z M66.3341176,19.4467031 C61.5905882,19.4467031 57.7505882,15.6181317 57.7505882,10.8887199 C57.7505882,6.15930812 61.6658824,2.40580672 66.3341176,2.40580672 C71.0776471,2.40580672 74.9176471,6.23437815 74.9176471,10.9637899 C74.9176471,15.6932017 71.0776471,19.4467031 66.3341176,19.4467031 Z" id="Shape"></path>
                <path d="M69.7976471,12.6153305 C69.7223529,12.3901204 69.7223529,12.2399804 69.5717647,12.0147703 C69.4964706,11.8646303 69.4211765,11.6394202 69.2705882,11.4892801 C69.12,11.3391401 69.0447059,11.189 68.8941176,11.0388599 C68.7435294,10.8887199 68.5929412,10.7385798 68.3670588,10.6635098 C68.2164706,10.5133697 67.9905882,10.4382997 67.84,10.3632297 C67.6141176,10.2881597 67.4635294,10.1380196 67.2376471,10.0629496 C67.0117647,9.98787955 66.7858824,9.91280952 66.6352941,9.8377395 C66.56,9.8377395 66.4094118,9.76266947 66.3341176,9.68759944 C66.2588235,9.61252941 66.1082353,9.61252941 66.0329412,9.53745938 C65.9576471,9.46238936 65.8070588,9.46238936 65.7317647,9.38731933 C65.6564706,9.3122493 65.5811765,9.23717927 65.5058824,9.16210924 C65.4305882,9.08703922 65.3552941,9.01196919 65.3552941,8.86182913 C65.28,8.7867591 65.28,8.63661905 65.28,8.56154902 L65.28,8.18619888 C65.28,8.11112885 65.3552941,7.9609888 65.3552941,7.88591877 C65.4305882,7.81084874 65.4305882,7.66070868 65.5058824,7.58563866 C65.5811765,7.51056863 65.6564706,7.4354986 65.7317647,7.36042857 C65.8070588,7.28535854 65.9576471,7.21028852 66.1082353,7.21028852 C66.2588235,7.13521849 66.3341176,7.13521849 66.4847059,7.13521849 L66.7105882,7.13521849 L66.9364706,7.13521849 C67.0870588,7.13521849 67.1623529,7.13521849 67.3129412,7.21028852 C67.4635294,7.21028852 67.6141176,7.28535854 67.6894118,7.28535854 C67.7647059,7.28535854 67.9152941,7.36042857 67.9905882,7.36042857 C68.1411765,7.36042857 68.2164706,7.4354986 68.2917647,7.4354986 L68.6682353,7.58563866 L68.7435294,7.13521849 L68.8941176,5.93409804 L68.8941176,5.63381793 L68.5929412,5.5587479 C68.5176471,5.5587479 68.3670588,5.48367787 68.2917647,5.48367787 C68.2164706,5.48367787 68.1411765,5.40860784 67.9905882,5.40860784 C67.9152941,5.40860784 67.7647059,5.33353782 67.6141176,5.33353782 C67.4635294,5.33353782 67.3882353,5.25846779 67.2376471,5.25846779 L67.1623529,5.25846779 L67.1623529,4.20748739 L67.1623529,3.83213725 L66.7858824,3.83213725 L65.7317647,3.83213725 L65.3552941,3.83213725 L65.3552941,4.20748739 L65.3552941,5.33353782 L65.28,5.33353782 C65.0541176,5.40860784 64.8282353,5.48367787 64.6023529,5.63381793 C64.3764706,5.70888796 64.2258824,5.85902801 64.0752941,6.00916807 C63.9247059,6.15930812 63.7741176,6.30944818 63.6235294,6.53465826 C63.4729412,6.68479832 63.3976471,6.9100084 63.3223529,7.13521849 C63.2470588,7.36042857 63.1717647,7.58563866 63.0964706,7.81084874 C63.0211765,8.03605882 63.0211765,8.33633894 63.0211765,8.56154902 C63.0211765,8.7867591 63.0211765,8.93689916 63.0964706,9.16210924 C63.1717647,9.38731933 63.1717647,9.53745938 63.3223529,9.76266947 C63.3976471,9.91280952 63.5482353,10.1380196 63.6235294,10.2881597 C63.7741176,10.4382997 63.8494118,10.5884398 64,10.7385798 C64.1505882,10.8887199 64.3011765,11.0388599 64.5270588,11.11393 C64.6776471,11.26407 64.9035294,11.3391401 65.0541176,11.4142101 C65.28,11.4892801 65.5058824,11.6394202 65.6564706,11.7144902 C65.8823529,11.7895602 66.1082353,11.8646303 66.2588235,11.9397003 C66.3341176,11.9397003 66.4847059,12.0147703 66.56,12.0898403 C66.6352941,12.1649104 66.7858824,12.1649104 66.8611765,12.2399804 C66.9364706,12.3150504 67.0117647,12.3901204 67.0870588,12.3901204 C67.1623529,12.4651905 67.2376471,12.5402605 67.3129412,12.6153305 C67.3882353,12.6904006 67.3882353,12.7654706 67.4635294,12.9156106 C67.4635294,12.9906807 67.5388235,13.1408207 67.5388235,13.2909608 L67.5388235,13.6663109 C67.5388235,13.741381 67.4635294,13.891521 67.3882353,13.966591 C67.3129412,14.0416611 67.2376471,14.1167311 67.1623529,14.1918011 C67.0870588,14.2668711 67.0117647,14.3419412 66.8611765,14.4170112 C66.7858824,14.4920812 66.6352941,14.4920812 66.56,14.5671513 C66.4847059,14.5671513 66.3341176,14.6422213 66.1835294,14.6422213 L65.8823529,14.6422213 L65.5811765,14.6422213 L65.2047059,14.6422213 C65.0541176,14.6422213 64.9035294,14.5671513 64.8282353,14.5671513 C64.6776471,14.5671513 64.5270588,14.4920812 64.3764706,14.4170112 C64.2258824,14.3419412 64.0752941,14.3419412 63.9247059,14.2668711 C63.8494118,14.2668711 63.7741176,14.1918011 63.6988235,14.1918011 C63.6235294,14.1918011 63.5482353,14.1167311 63.4729412,14.1167311 L63.0211765,13.891521 L62.9458824,14.4170112 L62.7952941,15.7682717 L62.7952941,15.9934818 L63.0211765,16.0685518 C63.3223529,15.9934818 63.4729412,16.0685518 63.6988235,16.1436218 C63.8494118,16.2186919 64.0752941,16.2937619 64.2258824,16.2937619 C64.3764706,16.3688319 64.6023529,16.3688319 64.8282353,16.443902 C65.0541176,16.518972 65.2047059,16.518972 65.4305882,16.518972 L65.5811765,16.518972 L65.5811765,17.6450224 L65.5811765,18.0203725 L65.9576471,18.0203725 L67.0117647,18.0203725 L67.3882353,18.0203725 L67.3882353,17.6450224 L67.3882353,16.443902 L67.4635294,16.443902 C67.6894118,16.3688319 67.9152941,16.2937619 68.1411765,16.1436218 C68.3670588,16.0685518 68.5176471,15.9184118 68.7435294,15.7682717 C68.8941176,15.6181317 69.0447059,15.4679916 69.1952941,15.2427815 C69.3458824,15.0926415 69.4211765,14.8674314 69.5717647,14.6422213 C69.6470588,14.4170112 69.7223529,14.1918011 69.7976471,13.966591 C69.8729412,13.741381 69.8729412,13.5161709 69.8729412,13.2158908 C69.8729412,12.9906807 69.8729412,12.8405406 69.7976471,12.6153305 Z" id="Shape"></path>
                <path d="M61.0635294,23.2752745 C60.6870588,22.7497843 59.8588235,22.6747143 59.3317647,23.0500644 L47.1341176,32.734098 L31.3976471,26.2030056 C31.0211765,26.0528655 30.5694118,26.1279356 30.2682353,26.3531457 L13.4023529,38.3643501 C12.8752941,38.7397003 12.7247059,39.4904006 13.1011765,40.0158908 C13.3270588,40.3912409 13.7035294,40.541381 14.08,40.541381 C14.3058824,40.541381 14.5317647,40.4663109 14.7576471,40.3161709 L31.0964706,28.6803165 L46.9082353,35.211409 C47.2847059,35.361549 47.8117647,35.286479 48.1129412,35.0612689 L60.8376471,25.0018852 C61.3647059,24.626535 61.44,23.8007647 61.0635294,23.2752745 Z" id="Shape"></path>
                <path d="M78.6823529,64.4136499 L73.1105882,64.4136499 L73.1105882,29.6562269 C73.1105882,28.9805966 72.5835294,28.4551064 71.9058824,28.4551064 L60.8376471,28.4551064 C60.16,28.4551064 59.6329412,28.9805966 59.6329412,29.6562269 L59.6329412,64.4136499 L55.5670588,64.4136499 L55.5670588,41.6674314 C55.5670588,40.9918011 55.04,40.4663109 54.3623529,40.4663109 L43.2188235,40.4663109 C42.5411765,40.4663109 42.0141176,40.9918011 42.0141176,41.6674314 L42.0141176,64.4136499 L37.9482353,64.4136499 L37.9482353,39.8657507 C37.9482353,39.1901204 37.4211765,38.6646303 36.7435294,38.6646303 L25.6752941,38.6646303 C24.9976471,38.6646303 24.4705882,39.1901204 24.4705882,39.8657507 L24.4705882,64.4136499 L20.4047059,64.4136499 L20.4047059,46.9223333 C20.4047059,46.2467031 19.8776471,45.7212129 19.2,45.7212129 L8.05647059,45.7212129 C7.37882353,45.7212129 6.85176471,46.2467031 6.85176471,46.9223333 L6.85176471,64.4136499 L1.20470588,64.4136499 C0.527058824,64.4136499 0,64.9391401 0,65.6147703 C0,66.2904006 0.527058824,66.8158908 1.20470588,66.8158908 L7.98117647,66.8158908 L19.0494118,66.8158908 L25.6752941,66.8158908 L36.7435294,66.8158908 L43.2188235,66.8158908 L54.2870588,66.8158908 L60.7623529,66.8158908 L71.8305882,66.8158908 L78.6070588,66.8158908 C79.2847059,66.8158908 79.8117647,66.2904006 79.8117647,65.6147703 C79.8870588,64.9391401 79.36,64.4136499 78.6823529,64.4136499 Z M17.92,64.4136499 L9.26117647,64.4136499 L9.26117647,48.1234538 L17.92,48.1234538 L17.92,64.4136499 Z M35.5388235,64.4136499 L26.88,64.4136499 L26.88,41.0668711 L35.5388235,41.0668711 L35.5388235,64.4136499 Z M53.0823529,64.4136499 L44.4235294,64.4136499 L44.4235294,42.8685518 L53.0823529,42.8685518 L53.0823529,64.4136499 Z M70.7011765,64.4136499 L62.0423529,64.4136499 L62.0423529,30.8573473 L70.7011765,30.8573473 L70.7011765,64.4136499 Z" id="Shape"></path>
            </g>
        </g>
    </g>
</svg>