<svg xmlns="http://www.w3.org/2000/svg" width="67" height="105" viewBox="0 0 67 105">
    <g fill="none" fill-rule="evenodd">
        <path fill="#75C3B7" fill-rule="nonzero" d="M20.46 28.194c3.824-1.57 8.142-2.51 12.864-2.51a33.097 33.097 0 0 1 15.678 3.941v-5.101c-.093-.06-.192-.122-.299-.186a18.708 18.708 0 0 0-2.85-1.38c-3.289-1.287-7.379-2.065-12.318-2.065-4.948 0-9.08.749-12.431 1.988a20.085 20.085 0 0 0-2.92 1.33c-.103.06-.2.116-.29.17v5.005c.778-.408 1.634-.81 2.565-1.192zM15 31.934v-8.332c0-.448.208-.87.563-1.145.068-.052.18-.132.334-.236.242-.162.529-.338.86-.527a22.957 22.957 0 0 1 3.343-1.526C23.772 18.81 28.243 18 33.535 18c5.301 0 9.749.846 13.373 2.264a21.58 21.58 0 0 1 3.292 1.598c.326.197.607.382.844.552.153.109.262.194.33.25.33.274.521.682.521 1.112v8.436c0 1.191-1.36 1.872-2.314 1.158a7.49 7.49 0 0 0-.254-.178 18.068 18.068 0 0 0-.842-.532 27.136 27.136 0 0 0-3.287-1.657 30.225 30.225 0 0 0-11.874-2.426c-4.324 0-8.274.861-11.767 2.294a26.096 26.096 0 0 0-3.2 1.563c-.315.183-.586.352-.812.501-.129.085-.21.142-.242.165-.955.702-2.303.02-2.303-1.166z"/>
        <path fill="#75C3B7" fill-rule="nonzero" d="M11.434 20.593c.004-.444.211-.86.562-1.132.078-.06.212-.158.401-.287.302-.207.659-.434 1.07-.676a30.124 30.124 0 0 1 4.096-1.993c4.463-1.79 9.706-2.861 15.69-2.861 6.001 0 11.214 1.17 15.611 3.126 1.55.69 2.892 1.433 4.02 2.18.402.264.75.513 1.044.739.185.142.315.249.392.315.307.269.486.654.494 1.062l.011.557 6.698-3.12L32.636 3.089 4.792 18.145l6.64 2.787.002-.34zm2.872 2.52a1.447 1.447 0 0 1-2.007 1.32L.887 19.644c-1.12-.47-1.197-2.028-.128-2.606L31.943.174c.427-.23.941-.232 1.37-.004L65.44 17.314c1.053.561 1.012 2.084-.07 2.587l-11.337 5.283a1.447 1.447 0 0 1-2.058-1.283l-.04-2.09c-.191-.14-.406-.29-.647-.448-.999-.66-2.2-1.326-3.601-1.95-4.037-1.795-8.85-2.876-14.435-2.876-5.604 0-10.483.997-14.613 2.653a27.246 27.246 0 0 0-3.702 1.8c-.227.133-.433.26-.617.38l-.015 1.743z"/>
        <path fill="#75C3B7" d="M60.84 98.695a.799.799 0 0 1-.378.698.885.885 0 0 1-.467.138.754.754 0 0 1-.281-.053.834.834 0 0 1-.276-.18l-1.492-1.416a8.089 8.089 0 0 0-5.719-2.357 8.109 8.109 0 0 0-5.742 2.38 5.504 5.504 0 0 1-3.907 1.617 5.498 5.498 0 0 1-3.905-1.618 8.124 8.124 0 0 0-11.485 0 5.5 5.5 0 0 1-3.906 1.618 5.49 5.49 0 0 1-3.905-1.618 8.117 8.117 0 0 0-8.798-1.783 8.116 8.116 0 0 0-2.688 1.783h.002l-1.21 1.206a.779.779 0 0 1-.572.247.896.896 0 0 1-.597-.236.76.76 0 0 1-.18-.251.84.84 0 0 1-.069-.347V57.2c.001-7.678 3.109-14.616 8.139-19.648 5.033-5.03 11.971-8.139 19.649-8.14 7.677.001 14.615 3.11 19.647 8.139 5.03 5.032 8.138 11.971 8.138 19.648v41.495h.001zM55.624 34.35A31.828 31.828 0 0 0 33.053 25c-8.811 0-16.8 3.575-22.573 9.35a31.828 31.828 0 0 0-9.35 22.572v43.414c0 .523.11 1.027.308 1.473a3.566 3.566 0 0 0 1.365 1.569 3.655 3.655 0 0 0 1.944.564 3.545 3.545 0 0 0 2.528-1.056l1.27-1.268.002-.002a5.785 5.785 0 0 1 4.102-1.699 5.788 5.788 0 0 1 4.103 1.7 8.488 8.488 0 0 0 2.824 1.874 8.54 8.54 0 0 0 9.243-1.875 5.782 5.782 0 0 1 4.102-1.699 5.782 5.782 0 0 1 4.102 1.7 8.499 8.499 0 0 0 2.825 1.874 8.542 8.542 0 0 0 9.244-1.875 5.785 5.785 0 0 1 4.102-1.699 5.788 5.788 0 0 1 4.104 1.7l.026.024 1.566 1.488a3.55 3.55 0 0 0 2.466.995 3.653 3.653 0 0 0 2.49-.985 3.556 3.556 0 0 0 1.126-2.62V56.921c.003-8.81-3.573-16.8-9.347-22.572z"/>
        <g fill="#732379">
            <path fill-rule="nonzero" d="M43.487 68.144a9.476 9.476 0 1 1 0-18.952 9.476 9.476 0 0 1 0 18.952zm0-3.16a6.317 6.317 0 1 0 0-12.634 6.317 6.317 0 0 0 0 12.635zM22.43 68.144a9.476 9.476 0 1 1 0-18.952 9.476 9.476 0 0 1 0 18.952zm0-3.16a6.317 6.317 0 1 0 0-12.634 6.317 6.317 0 0 0 0 12.635z"/>
            <path d="M30.326 57.089h5.791v3.159h-5.79z"/>
        </g>
        <path fill="#75C3B7" d="M32.707 77.324a8.09 8.09 0 0 1-4.13-1.13 1.18 1.18 0 0 1 1.205-2.029 5.742 5.742 0 0 0 5.789.037 1.178 1.178 0 1 1 1.178 2.043 8.098 8.098 0 0 1-4.042 1.08"/>
    </g>
</svg>
