<svg xmlns="http://www.w3.org/2000/svg" width="56" height="56" viewBox="0 0 56 56">
    <path fill="#75C3B7" fill-rule="nonzero" d="M27.94.418c-1.438 0-2.816.2-4.143.548-7.17 1.847-12.48 8.343-12.48 16.088 0 4.836 2.094 9.181 5.398 12.226C6.748 33.692.187 43.639.187 54.68c0 .698.558 1.27 1.256 1.27h53.006c.17 0 .344-.043.495-.107.444-.191.761-.636.761-1.162 0-11.049-6.554-20.995-16.528-25.401 3.304-3.044 5.398-7.39 5.398-12.226 0-7.45-4.925-13.78-11.692-15.887A16.661 16.661 0 0 0 27.94.419zm.012 2.526c.288 0 .568.018.856.042 7.374.444 13.254 6.578 13.254 14.07 0 7.484-5.873 13.605-13.254 14.056-.288.012-.568.042-.856.042-.294 0-.581-.03-.868-.042-7.375-.452-13.241-6.572-13.241-14.056 0-7.492 5.86-13.619 13.24-14.07.288-.018.575-.042.87-.042zM19.04 31.057a16.467 16.467 0 0 0 4.182 1.924c.171.048.364.072.534.12 1.054.28 2.145.446 3.274.508.308.012.6.068.909.068.307 0 .607-.048.908-.068a15.919 15.919 0 0 0 3.047-.454c.253-.062.508-.1.762-.174a16.482 16.482 0 0 0 4.182-1.924c9.393 3.55 15.808 12.359 16.301 22.354h-50.4c.492-9.988 6.908-18.804 16.3-22.354h.001z"/>
</svg>
