<?xml version="1.0" encoding="UTF-8"?>
<svg width="76px" height="78px" viewBox="0 0 76 78" version="1.1" xmlns="http://www.w3.org/2000/svg" xmlns:xlink="http://www.w3.org/1999/xlink">
    <!-- Generator: Sketch 43.1 (39012) - http://www.bohemiancoding.com/sketch -->
    <title>Hand and coin</title>
    <desc>Created with Sketch.</desc>
    <defs></defs>
    <g id="Desktop" stroke="none" stroke-width="1" fill="none" fill-rule="evenodd">
        <g id="Hand-and-coin" fill-rule="nonzero" fill="#75C3B7">
            <g id="coin-(4)" transform="translate(4.000000, 4.000000)">
                <ellipse id="Oval" cx="10.9609091" cy="55.2876953" rx="1.36363636" ry="1.3671875"></ellipse>
                <path d="M68.5325455,45.8245703 C67.3535455,43.1477539 64.2220909,41.9313672 61.5522273,43.1131641 C61.5454091,43.1161719 61.5385909,43.1193164 61.5319091,43.1223242 L52.7353636,47.1895703 C52.0515,47.5058008 51.7527273,48.3180469 52.0681364,49.0036914 C52.3835455,49.6894727 53.1934091,49.9886133 53.8775455,49.672793 L62.6623636,45.6108789 C63.9548182,45.0443164 65.4675,45.6342578 66.0377727,46.9292578 C66.3145909,47.5580273 66.3306818,48.2570703 66.0831818,48.8977344 C65.8356818,49.5383984 65.3539091,50.0442578 64.7267727,50.3217969 L46.7254091,58.2905859 C43.8775909,59.5514062 40.6453636,59.478125 37.8572727,58.0891992 L31.2677727,54.8068555 C27.7521818,53.055625 23.6758636,52.9632031 20.0847273,54.552832 L19.971,54.6032812 L15.0602727,43.4520898 L21.8814545,40.4325195 C25.1344091,38.9921875 28.7645455,38.8759766 32.1023182,40.1050781 L45.3533182,44.9840234 C46.5534545,45.4258984 47.1931364,46.772168 46.7792727,47.985 C46.3575,49.2208008 45.0102273,49.8856641 43.7764091,49.4673047 L33.5292273,45.9921875 C32.8157727,45.7500586 32.0419091,46.1339648 31.8005455,46.8492773 C31.5591818,47.5645898 31.9419545,48.3404687 32.6554091,48.5824609 L42.9024545,52.0574414 C43.4410909,52.2400977 43.9891364,52.3267773 44.529,52.3267773 C46.6494545,52.3267773 48.6369545,50.9883008 49.3596818,48.8701172 C50.2494545,46.2623437 48.8739545,43.3675977 46.2935455,42.4174023 L33.0425455,37.538457 C29.0376818,36.0638086 24.6829091,36.2032617 20.7799091,37.9309766 L13.9123636,40.9710547 C13.5235909,40.3775586 12.9647727,39.9185937 12.2912727,39.6570508 C11.4372273,39.3250977 10.5057273,39.3466992 9.66804545,39.7176172 L0.895909091,43.6007031 C0.403090909,43.8189062 0.0845454545,44.3075391 0.0830454545,44.8475781 L0.0165,68.6289844 C0.0151363636,69.1046289 0.260454545,69.5466406 0.664090909,69.7962891 C0.882818182,69.9316406 1.13127273,70 1.38027273,70 C1.59054545,70 1.80122727,69.9513281 1.99513636,69.8531641 L19.1552727,61.1618164 C19.9752273,60.7877539 20.6048182,60.1191992 20.9308636,59.2755078 C21.2007273,58.5775586 21.2361818,57.8276562 21.0395455,57.1193164 L21.1862727,57.054375 C24.0342273,55.7935547 27.2663182,55.8669727 30.0544091,57.2558984 L36.6439091,60.5382422 C40.1597727,62.2894727 44.2358182,62.3816211 47.8269545,60.7921289 L65.8283182,52.8233398 C68.4983182,51.6412695 69.7115455,48.5016602 68.5325455,45.8245703 Z M18.3876818,58.2877148 C18.3200455,58.4627148 18.1884545,58.6008008 18.0171818,58.6766797 C17.9955,58.68625 2.75004545,66.4073047 2.75004545,66.4073047 L2.76654545,60.5293555 L6.71645455,58.584668 C7.39254545,58.2517578 7.67140909,57.4325391 7.33936364,56.7548242 C7.00745455,56.0768359 6.19022727,55.7973828 5.51427273,56.1301562 L2.775,57.47875 L2.80786364,45.7434961 L10.7695909,42.2190234 C10.9408636,42.143418 11.1313636,42.1387695 11.3059091,42.206582 C11.4805909,42.2743945 11.6184545,42.4064648 11.694,42.5781836 L18.3754091,57.75 C18.4509545,57.921582 18.4553182,58.1127148 18.3876818,58.2877148 Z" id="Shape"></path>
                <path d="M50.8235455,17.1612109 L49.8793636,17.1612109 L49.2668182,17.1612109 L48.3226364,17.1612109 C47.3859545,17.1612109 46.6238182,16.3970898 46.6238182,15.4579688 L46.6238182,13.9995898 C46.6238182,13.0604688 47.3858182,12.2963477 48.3226364,12.2963477 L51.0935455,12.2963477 C51.8814545,12.2963477 52.5223636,12.9389258 52.5223636,13.7288867 C52.5223636,14.4838477 53.1328636,15.0960742 53.886,15.0960742 C54.6391364,15.0960742 55.2496364,14.4838477 55.2496364,13.7288867 C55.2496364,11.4311914 53.3852727,9.56197266 51.0935455,9.56197266 L50.9368636,9.56197266 L50.9368636,7.89728516 C50.9368636,7.14232422 50.3263636,6.53009766 49.5732273,6.53009766 C48.8200909,6.53009766 48.2095909,7.14232422 48.2095909,7.89728516 L48.2095909,9.56484375 C45.8213182,9.62541016 43.8966818,11.5907422 43.8966818,13.9995898 L43.8966818,15.4579688 C43.8966818,17.9048242 45.8822727,19.8955859 48.3227727,19.8955859 L49.2669545,19.8955859 L49.8795,19.8955859 L50.8236818,19.8955859 C51.7603636,19.8955859 52.5225,20.6595703 52.5225,21.5986914 L52.5225,23.057207 C52.5225,23.9964648 51.7603636,24.7603125 50.8236818,24.7603125 L48.0527727,24.7603125 C47.2648636,24.7603125 46.6239545,24.1177344 46.6239545,23.3277734 C46.6239545,22.5728125 46.0134545,21.9605859 45.2603182,21.9605859 C44.5071818,21.9605859 43.8966818,22.5728125 43.8966818,23.3277734 C43.8966818,25.6254688 45.7610455,27.4946875 48.0527727,27.4946875 L48.2095909,27.4946875 L48.2095909,29.1596484 C48.2095909,29.9146094 48.8200909,30.5268359 49.5732273,30.5268359 C50.3263636,30.5268359 50.9368636,29.9146094 50.9368636,29.1596484 L50.9368636,27.4918164 C53.3251364,27.43125 55.2496364,25.465918 55.2496364,23.057207 L55.2496364,21.5986914 C55.2496364,19.1519727 53.2640455,17.1612109 50.8235455,17.1612109 Z" id="Shape"></path>
                <path d="M49.5732273,0 C39.3612273,0 31.0532727,8.32972656 31.0532727,18.5681836 C31.0532727,28.8066406 39.3613636,37.1365039 49.5732273,37.1365039 C59.7852273,37.1365039 68.0931818,28.8067773 68.0931818,18.5683203 C68.0931818,8.32986328 59.7852273,0 49.5732273,0 Z M49.5732273,34.4019922 C40.8650455,34.4019922 33.7805455,27.2989062 33.7805455,18.5681836 C33.7805455,9.83746094 40.8650455,2.734375 49.5732273,2.734375 C58.2812727,2.734375 65.3659091,9.83746094 65.3659091,18.5681836 C65.3659091,27.2989062 58.2812727,34.4019922 49.5732273,34.4019922 Z" id="Shape"></path>
            </g>
        </g>
    </g>
</svg>