<svg xmlns="http://www.w3.org/2000/svg" width="66" height="64" viewBox="0 0 66 64">
    <g fill="#75C3B7" fill-rule="nonzero">
        <path d="M63.863 5.609H52.028L42.532.252a1.234 1.234 0 0 0-1.224.01 1.233 1.233 0 0 0-.608 1.062v.974h-8.8v3.31H2.137A2.144 2.144 0 0 0 0 7.754v48.676c0 1.182.96 2.144 2.137 2.144H2.2v4.414h11v-4.414h18.7v3.31h8.8v.79c0 .438.233.845.61 1.065a1.23 1.23 0 0 0 1.222.01l9.172-5.175H52.8v4.414h11v-4.414h.063A2.144 2.144 0 0 0 66 56.43V7.753c0-1.182-.96-2.144-2.137-2.144zM11 60.78H4.4v-2.207H11v2.207zm2.2-4.374v-.04h-11v.063L2.137 7.816H31.9v2.207H6.98A2.587 2.587 0 0 0 4.4 12.61v38.962a2.588 2.588 0 0 0 2.58 2.589H31.9v2.209l-18.7.037zm11-4.453V50.85h4.4v1.104h-4.4zm-8.8-11.035v1.104H11v-1.104h4.4zm0 4.414H11V44.23h4.4v1.103zM11 47.54h4.4v1.103H11V47.54zm0 3.31h4.4v1.104H11V50.85zm6.6-9.93H22v11.034h-4.4V40.919zm11 4.413h-4.4V44.23h4.4v1.103zm-4.4 2.207h4.4v1.103h-4.4V47.54zm4.4-5.517h-4.4v-1.104h4.4v1.104zm2.2-2.207a1.1 1.1 0 0 0-1.1-1.104H9.9a1.1 1.1 0 0 0-1.1 1.104v12.138H6.98a.382.382 0 0 1-.38-.382V33.195h25.3v18.759h-1.1V39.816zm1.1-8.828h-1.1V18.85a1.1 1.1 0 0 0-1.1-1.103H9.9a1.1 1.1 0 0 0-1.1 1.103v12.138H6.6V12.61c0-.21.17-.382.38-.382H31.9v18.76zm-7.7 0v-1.103h4.4v1.103h-4.4zm-8.8-11.034v1.103H11v-1.103h4.4zm0 4.413H11v-1.103h4.4v1.103zM11 26.574h4.4v1.104H11v-1.104zm0 3.31h4.4v1.104H11v-1.103zm6.6-9.93H22v11.034h-4.4V19.954zm11 4.413h-4.4v-1.103h4.4v1.103zm-4.4 2.207h4.4v1.104h-4.4v-1.104zm4.4-5.517h-4.4v-1.103h4.4v1.103zm5.5 38.62V4.506h6.6v55.173h-6.6zM42.9 2.99l4.64 2.619h-.16l10.92 6.163v3.768a1.1 1.1 0 0 0-1.1 1.103 1.1 1.1 0 0 0 1.1 1.104v1.103a1.1 1.1 0 0 0-1.1 1.104 1.1 1.1 0 0 0 1.1 1.103v22.07a1.1 1.1 0 0 0-1.1 1.103 1.1 1.1 0 0 0 1.1 1.103v1.103a1.1 1.1 0 0 0-1.1 1.104 1.1 1.1 0 0 0 1.1 1.103v3.677l-15.4 8.69V2.99zm18.7 57.791H55v-2.207h6.6v2.207zm2.2-4.414h-8.023l4.723-2.664v-5.06h1.1a1.1 1.1 0 0 0 1.1-1.103 1.1 1.1 0 0 0-1.1-1.104h-1.1v-1.103h1.1a1.1 1.1 0 0 0 1.1-1.103 1.1 1.1 0 0 0-1.1-1.104h-1.1V21.057h1.1a1.1 1.1 0 0 0 1.1-1.103 1.1 1.1 0 0 0-1.1-1.104h-1.1v-1.103h1.1a1.1 1.1 0 0 0 1.1-1.104 1.1 1.1 0 0 0-1.1-1.103h-1.1v-5.151l-4.6-2.595 7.9-.041.063 48.614H63.8z"/>
        <ellipse cx="37.4" cy="6.62" rx="1.1" ry="1.103"/>
        <ellipse cx="37.4" cy="13.24" rx="1.1" ry="1.103"/>
        <ellipse cx="37.4" cy="50.758" rx="1.1" ry="1.103"/>
        <ellipse cx="37.4" cy="44.137" rx="1.1" ry="1.103"/>
        <ellipse cx="37.4" cy="19.861" rx="1.1" ry="1.103"/>
        <ellipse cx="37.4" cy="57.378" rx="1.1" ry="1.103"/>
        <path d="M45.1 37.517a1.1 1.1 0 0 0-1.1 1.104 1.1 1.1 0 0 0 1.1 1.103c2.433 0 4.412-1.985 4.412-4.426v-6.597c0-2.441-1.979-4.425-4.412-4.425a1.1 1.1 0 0 0-1.1 1.103 1.1 1.1 0 0 0 1.1 1.104c1.219 0 2.212.995 2.212 2.219v6.597a2.22 2.22 0 0 1-2.212 2.218z"/>
        <path d="M45.1 19.862a1.1 1.1 0 0 0-1.1 1.104 1.1 1.1 0 0 0 1.1 1.103c3.645 0 6.612 2.975 6.612 6.633v6.597c0 3.656-2.967 6.632-6.612 6.632a1.1 1.1 0 0 0-1.1 1.103 1.1 1.1 0 0 0 1.1 1.104c4.859 0 8.812-3.966 8.812-8.84v-6.597c0-4.874-3.953-8.839-8.812-8.839z"/>
    </g>
</svg>
