<svg xmlns="http://www.w3.org/2000/svg" width="60" height="60" viewBox="0 0 60 60">
    <g fill="#75C3B7" fill-rule="nonzero">
        <path d="M32.234 28.468h-4.455a3.362 3.362 0 0 1-3.358-3.357 3.362 3.362 0 0 1 3.358-3.358h7.864c.842 0 1.531-.69 1.531-1.532 0-.842-.689-1.532-1.531-1.532h-4.098v-3.127c0-.843-.69-1.532-1.532-1.532-.843 0-1.532.69-1.532 1.532v3.127h-.702c-3.536 0-6.422 2.885-6.422 6.422 0 3.536 2.886 6.42 6.422 6.42h4.455a3.362 3.362 0 0 1 3.357 3.358 3.362 3.362 0 0 1-3.357 3.358H24.23c-.843 0-1.532.69-1.532 1.532 0 .842.69 1.532 1.532 1.532h4.238v3.191c0 .843.69 1.532 1.532 1.532.843 0 1.532-.69 1.532-1.532v-3.191h.779c3.498-.051 6.332-2.911 6.332-6.422 0-3.549-2.873-6.42-6.409-6.42z"/>
        <path d="M51.217 8.783C45.549 3.115 38.017 0 30 0S14.451 3.115 8.783 8.783C3.115 14.451 0 21.983 0 30s3.115 15.549 8.783 21.217C14.451 56.885 21.983 60 30 60s15.549-3.115 21.217-8.783C56.885 45.549 60 38.017 60 30s-3.115-15.549-8.783-21.217zM30 56.936C15.153 56.936 3.064 44.846 3.064 30 3.064 15.153 15.154 3.064 30 3.064c14.847 0 26.936 12.09 26.936 26.936 0 14.847-12.09 26.936-26.936 26.936z"/>
    </g>
</svg>
