<?xml version="1.0" encoding="UTF-8"?>
<svg width="26px" height="39px" viewBox="0 0 26 39" version="1.1" xmlns="http://www.w3.org/2000/svg" xmlns:xlink="http://www.w3.org/1999/xlink">
    <!-- Generator: Sketch 46.2 (44496) - http://www.bohemiancoding.com/sketch -->
    <title>money</title>
    <desc>Created with Sketch.</desc>
    <defs>
        <rect id="path-1" x="0" y="0" width="22" height="17"></rect>
        <rect id="path-3" x="0" y="0" width="22" height="17"></rect>
    </defs>
    <g id="Desktop" stroke="none" stroke-width="1" fill="none" fill-rule="evenodd">
        <g id="money">
            <g id="safebox" transform="translate(2.000000, 0.000000)">
                <mask id="mask-2" fill="white">
                    <use xlink:href="#path-1"></use>
                </mask>
                <g id="Mask"></g>
                <g mask="url(#mask-2)" id="Shape" fill-rule="nonzero" fill="#75C3B7">
                    <g transform="translate(-9.000000, -16.000000)">
                        <path d="M63.8627,5.60882759 L52.0278,5.60882759 L42.5315,0.251586207 C42.152,0.0386206897 41.6845,0.0419310345 41.3083,0.261517241 C40.9332,0.48 40.7,0.887172414 40.7,1.32413793 L40.7,2.29848276 L31.9,2.29848276 L31.9,5.60882759 L2.1373,5.60882759 C0.9592,5.60882759 0,6.57103448 0,7.75282759 L0,56.4292414 C0,57.6110345 0.9592,58.5732414 2.1373,58.5732414 L2.2,58.5732414 L2.2,62.9870345 L13.2,62.9870345 L13.2,58.5732414 L31.9,58.5732414 L31.9,61.8835862 L40.7,61.8835862 L40.7,62.6736552 C40.7,63.1106207 40.9332,63.5177931 41.3094,63.7384828 C41.4997,63.8510345 41.7142,63.9062069 41.9287,63.9062069 C42.1366,63.9062069 42.3456,63.8532414 42.5315,63.7484138 L51.7044,58.5732414 L52.8,58.5732414 L52.8,62.9870345 L63.8,62.9870345 L63.8,58.5732414 L63.8627,58.5732414 C65.0408,58.5732414 66,57.6110345 66,56.4292414 L66,7.75282759 C66,6.57103448 65.0408,5.60882759 63.8627,5.60882759 Z M11,60.7812414 L4.4,60.7812414 L4.4,58.5743448 L11,58.5743448 L11,60.7812414 Z M13.2,56.4071724 L13.2,56.3674483 L2.2,56.3674483 L2.2,56.4303448 L2.1373,7.81572414 L31.9,7.81572414 L31.9,10.0226207 L6.9806,10.0226207 C5.5583,10.0226207 4.4,11.1834483 4.4,12.6102069 L4.4,51.5718621 C4.4,52.9986207 5.5583,54.1605517 6.9806,54.1605517 L15.4,54.1605517 L24.2,54.1605517 L31.9,54.1605517 L31.9,56.3696552 L13.2,56.4071724 Z M24.2,51.9536552 L24.2,50.8502069 L28.6,50.8502069 L28.6,51.9536552 L24.2,51.9536552 Z M15.4,40.9191724 L15.4,42.0226207 L11,42.0226207 L11,40.9191724 L15.4,40.9191724 Z M15.4,45.3329655 L11,45.3329655 L11,44.2295172 L15.4,44.2295172 L15.4,45.3329655 Z M11,47.5398621 L15.4,47.5398621 L15.4,48.6433103 L11,48.6433103 L11,47.5398621 Z M11,50.8502069 L15.4,50.8502069 L15.4,51.9536552 L11,51.9536552 L11,50.8502069 Z M17.6,40.9191724 L22,40.9191724 L22,51.9536552 L17.6,51.9536552 L17.6,40.9191724 Z M28.6,45.3329655 L24.2,45.3329655 L24.2,44.2295172 L28.6,44.2295172 L28.6,45.3329655 Z M24.2,47.5398621 L28.6,47.5398621 L28.6,48.6433103 L24.2,48.6433103 L24.2,47.5398621 Z M28.6,42.0226207 L24.2,42.0226207 L24.2,40.9191724 L28.6,40.9191724 L28.6,42.0226207 Z M30.8,39.8157241 C30.8,39.2055172 30.3083,38.7122759 29.7,38.7122759 L24.2,38.7122759 L23.1,38.7122759 L16.5,38.7122759 L15.4,38.7122759 L9.9,38.7122759 C9.2917,38.7122759 8.8,39.2055172 8.8,39.8157241 L8.8,51.9536552 L6.9806,51.9536552 C6.7705,51.9536552 6.6,51.7815172 6.6,51.5718621 L6.6,33.1950345 L15.4,33.1950345 L24.2,33.1950345 L31.9,33.1950345 L31.9,51.9536552 L30.8,51.9536552 L30.8,39.8157241 Z M31.9,30.9881379 L30.8,30.9881379 L30.8,18.8502069 C30.8,18.24 30.3083,17.7467586 29.7,17.7467586 L24.2,17.7467586 L23.1,17.7467586 L16.5,17.7467586 L15.4,17.7467586 L9.9,17.7467586 C9.2917,17.7467586 8.8,18.24 8.8,18.8502069 L8.8,30.9881379 L6.6,30.9881379 L6.6,12.6102069 C6.6,12.4005517 6.7705,12.2284138 6.9806,12.2284138 L31.9,12.2284138 L31.9,30.9881379 Z M24.2,30.9881379 L24.2,29.8846897 L28.6,29.8846897 L28.6,30.9881379 L24.2,30.9881379 Z M15.4,19.9536552 L15.4,21.0571034 L11,21.0571034 L11,19.9536552 L15.4,19.9536552 Z M15.4,24.3674483 L11,24.3674483 L11,23.264 L15.4,23.264 L15.4,24.3674483 Z M11,26.5743448 L15.4,26.5743448 L15.4,27.6777931 L11,27.6777931 L11,26.5743448 Z M11,29.8846897 L15.4,29.8846897 L15.4,30.9881379 L11,30.9881379 L11,29.8846897 Z M17.6,19.9536552 L22,19.9536552 L22,30.9881379 L17.6,30.9881379 L17.6,19.9536552 Z M28.6,24.3674483 L24.2,24.3674483 L24.2,23.264 L28.6,23.264 L28.6,24.3674483 Z M24.2,26.5743448 L28.6,26.5743448 L28.6,27.6777931 L24.2,27.6777931 L24.2,26.5743448 Z M28.6,21.0571034 L24.2,21.0571034 L24.2,19.9536552 L28.6,19.9536552 L28.6,21.0571034 Z M34.1,59.6777931 L34.1,58.5743448 L34.1,54.1605517 L34.1,10.0226207 L34.1,5.60882759 L34.1,4.50537931 L40.7,4.50537931 L40.7,59.6777931 L34.1,59.6777931 Z M42.9,2.99034483 L47.5409,5.60882759 L47.3792,5.60882759 L58.3,11.7715862 L58.3,15.5398621 C57.6917,15.5398621 57.2,16.0331034 57.2,16.6433103 C57.2,17.2535172 57.6917,17.7467586 58.3,17.7467586 L58.3,18.8502069 C57.6917,18.8502069 57.2,19.3434483 57.2,19.9536552 C57.2,20.5638621 57.6917,21.0571034 58.3,21.0571034 L58.3,43.126069 C57.6917,43.126069 57.2,43.6193103 57.2,44.2295172 C57.2,44.8397241 57.6917,45.3329655 58.3,45.3329655 L58.3,46.4364138 C57.6917,46.4364138 57.2,46.9296552 57.2,47.5398621 C57.2,48.150069 57.6917,48.6433103 58.3,48.6433103 L58.3,52.32 L42.9,61.0096552 L42.9,2.99034483 Z M61.6,60.7812414 L55,60.7812414 L55,58.5743448 L61.6,58.5743448 L61.6,60.7812414 Z M63.8,56.3674483 L55.7766,56.3674483 L60.5,53.7026207 L60.5,53.6110345 L60.5,48.6433103 L61.6,48.6433103 C62.2083,48.6433103 62.7,48.150069 62.7,47.5398621 C62.7,46.9296552 62.2083,46.4364138 61.6,46.4364138 L60.5,46.4364138 L60.5,45.3329655 L61.6,45.3329655 C62.2083,45.3329655 62.7,44.8397241 62.7,44.2295172 C62.7,43.6193103 62.2083,43.126069 61.6,43.126069 L60.5,43.126069 L60.5,21.0571034 L61.6,21.0571034 C62.2083,21.0571034 62.7,20.5638621 62.7,19.9536552 C62.7,19.3434483 62.2083,18.8502069 61.6,18.8502069 L60.5,18.8502069 L60.5,17.7467586 L61.6,17.7467586 C62.2083,17.7467586 62.7,17.2535172 62.7,16.6433103 C62.7,16.0331034 62.2083,15.5398621 61.6,15.5398621 L60.5,15.5398621 L60.5,10.4805517 L60.5,10.3889655 L55.8998,7.79365517 L63.8,7.75282759 L63.8627,56.3674483 L63.8,56.3674483 Z"></path>
                    </g>
                </g>
            </g>
            <g id="safebox" transform="translate(2.000000, 21.000000)">
                <mask id="mask-4" fill="white">
                    <use xlink:href="#path-3"></use>
                </mask>
                <g id="Mask"></g>
                <g mask="url(#mask-4)" id="Shape" fill-rule="nonzero" fill="#75C3B7">
                    <g transform="translate(-9.000000, -37.000000)">
                        <path d="M63.8627,5.60882759 L52.0278,5.60882759 L42.5315,0.251586207 C42.152,0.0386206897 41.6845,0.0419310345 41.3083,0.261517241 C40.9332,0.48 40.7,0.887172414 40.7,1.32413793 L40.7,2.29848276 L31.9,2.29848276 L31.9,5.60882759 L2.1373,5.60882759 C0.9592,5.60882759 0,6.57103448 0,7.75282759 L0,56.4292414 C0,57.6110345 0.9592,58.5732414 2.1373,58.5732414 L2.2,58.5732414 L2.2,62.9870345 L13.2,62.9870345 L13.2,58.5732414 L31.9,58.5732414 L31.9,61.8835862 L40.7,61.8835862 L40.7,62.6736552 C40.7,63.1106207 40.9332,63.5177931 41.3094,63.7384828 C41.4997,63.8510345 41.7142,63.9062069 41.9287,63.9062069 C42.1366,63.9062069 42.3456,63.8532414 42.5315,63.7484138 L51.7044,58.5732414 L52.8,58.5732414 L52.8,62.9870345 L63.8,62.9870345 L63.8,58.5732414 L63.8627,58.5732414 C65.0408,58.5732414 66,57.6110345 66,56.4292414 L66,7.75282759 C66,6.57103448 65.0408,5.60882759 63.8627,5.60882759 Z M11,60.7812414 L4.4,60.7812414 L4.4,58.5743448 L11,58.5743448 L11,60.7812414 Z M13.2,56.4071724 L13.2,56.3674483 L2.2,56.3674483 L2.2,56.4303448 L2.1373,7.81572414 L31.9,7.81572414 L31.9,10.0226207 L6.9806,10.0226207 C5.5583,10.0226207 4.4,11.1834483 4.4,12.6102069 L4.4,51.5718621 C4.4,52.9986207 5.5583,54.1605517 6.9806,54.1605517 L15.4,54.1605517 L24.2,54.1605517 L31.9,54.1605517 L31.9,56.3696552 L13.2,56.4071724 Z M24.2,51.9536552 L24.2,50.8502069 L28.6,50.8502069 L28.6,51.9536552 L24.2,51.9536552 Z M15.4,40.9191724 L15.4,42.0226207 L11,42.0226207 L11,40.9191724 L15.4,40.9191724 Z M15.4,45.3329655 L11,45.3329655 L11,44.2295172 L15.4,44.2295172 L15.4,45.3329655 Z M11,47.5398621 L15.4,47.5398621 L15.4,48.6433103 L11,48.6433103 L11,47.5398621 Z M11,50.8502069 L15.4,50.8502069 L15.4,51.9536552 L11,51.9536552 L11,50.8502069 Z M17.6,40.9191724 L22,40.9191724 L22,51.9536552 L17.6,51.9536552 L17.6,40.9191724 Z M28.6,45.3329655 L24.2,45.3329655 L24.2,44.2295172 L28.6,44.2295172 L28.6,45.3329655 Z M24.2,47.5398621 L28.6,47.5398621 L28.6,48.6433103 L24.2,48.6433103 L24.2,47.5398621 Z M28.6,42.0226207 L24.2,42.0226207 L24.2,40.9191724 L28.6,40.9191724 L28.6,42.0226207 Z M30.8,39.8157241 C30.8,39.2055172 30.3083,38.7122759 29.7,38.7122759 L24.2,38.7122759 L23.1,38.7122759 L16.5,38.7122759 L15.4,38.7122759 L9.9,38.7122759 C9.2917,38.7122759 8.8,39.2055172 8.8,39.8157241 L8.8,51.9536552 L6.9806,51.9536552 C6.7705,51.9536552 6.6,51.7815172 6.6,51.5718621 L6.6,33.1950345 L15.4,33.1950345 L24.2,33.1950345 L31.9,33.1950345 L31.9,51.9536552 L30.8,51.9536552 L30.8,39.8157241 Z M31.9,30.9881379 L30.8,30.9881379 L30.8,18.8502069 C30.8,18.24 30.3083,17.7467586 29.7,17.7467586 L24.2,17.7467586 L23.1,17.7467586 L16.5,17.7467586 L15.4,17.7467586 L9.9,17.7467586 C9.2917,17.7467586 8.8,18.24 8.8,18.8502069 L8.8,30.9881379 L6.6,30.9881379 L6.6,12.6102069 C6.6,12.4005517 6.7705,12.2284138 6.9806,12.2284138 L31.9,12.2284138 L31.9,30.9881379 Z M24.2,30.9881379 L24.2,29.8846897 L28.6,29.8846897 L28.6,30.9881379 L24.2,30.9881379 Z M15.4,19.9536552 L15.4,21.0571034 L11,21.0571034 L11,19.9536552 L15.4,19.9536552 Z M15.4,24.3674483 L11,24.3674483 L11,23.264 L15.4,23.264 L15.4,24.3674483 Z M11,26.5743448 L15.4,26.5743448 L15.4,27.6777931 L11,27.6777931 L11,26.5743448 Z M11,29.8846897 L15.4,29.8846897 L15.4,30.9881379 L11,30.9881379 L11,29.8846897 Z M17.6,19.9536552 L22,19.9536552 L22,30.9881379 L17.6,30.9881379 L17.6,19.9536552 Z M28.6,24.3674483 L24.2,24.3674483 L24.2,23.264 L28.6,23.264 L28.6,24.3674483 Z M24.2,26.5743448 L28.6,26.5743448 L28.6,27.6777931 L24.2,27.6777931 L24.2,26.5743448 Z M28.6,21.0571034 L24.2,21.0571034 L24.2,19.9536552 L28.6,19.9536552 L28.6,21.0571034 Z M34.1,59.6777931 L34.1,58.5743448 L34.1,54.1605517 L34.1,10.0226207 L34.1,5.60882759 L34.1,4.50537931 L40.7,4.50537931 L40.7,59.6777931 L34.1,59.6777931 Z M42.9,2.99034483 L47.5409,5.60882759 L47.3792,5.60882759 L58.3,11.7715862 L58.3,15.5398621 C57.6917,15.5398621 57.2,16.0331034 57.2,16.6433103 C57.2,17.2535172 57.6917,17.7467586 58.3,17.7467586 L58.3,18.8502069 C57.6917,18.8502069 57.2,19.3434483 57.2,19.9536552 C57.2,20.5638621 57.6917,21.0571034 58.3,21.0571034 L58.3,43.126069 C57.6917,43.126069 57.2,43.6193103 57.2,44.2295172 C57.2,44.8397241 57.6917,45.3329655 58.3,45.3329655 L58.3,46.4364138 C57.6917,46.4364138 57.2,46.9296552 57.2,47.5398621 C57.2,48.150069 57.6917,48.6433103 58.3,48.6433103 L58.3,52.32 L42.9,61.0096552 L42.9,2.99034483 Z M61.6,60.7812414 L55,60.7812414 L55,58.5743448 L61.6,58.5743448 L61.6,60.7812414 Z M63.8,56.3674483 L55.7766,56.3674483 L60.5,53.7026207 L60.5,53.6110345 L60.5,48.6433103 L61.6,48.6433103 C62.2083,48.6433103 62.7,48.150069 62.7,47.5398621 C62.7,46.9296552 62.2083,46.4364138 61.6,46.4364138 L60.5,46.4364138 L60.5,45.3329655 L61.6,45.3329655 C62.2083,45.3329655 62.7,44.8397241 62.7,44.2295172 C62.7,43.6193103 62.2083,43.126069 61.6,43.126069 L60.5,43.126069 L60.5,21.0571034 L61.6,21.0571034 C62.2083,21.0571034 62.7,20.5638621 62.7,19.9536552 C62.7,19.3434483 62.2083,18.8502069 61.6,18.8502069 L60.5,18.8502069 L60.5,17.7467586 L61.6,17.7467586 C62.2083,17.7467586 62.7,17.2535172 62.7,16.6433103 C62.7,16.0331034 62.2083,15.5398621 61.6,15.5398621 L60.5,15.5398621 L60.5,10.4805517 L60.5,10.3889655 L55.8998,7.79365517 L63.8,7.75282759 L63.8627,56.3674483 L63.8,56.3674483 Z"></path>
                    </g>
                </g>
            </g>
        </g>
    </g>
</svg>