<svg xmlns="http://www.w3.org/2000/svg" width="60" height="89" viewBox="0 0 60 89">
    <g fill="none" fill-rule="evenodd">
        <g stroke-linecap="round" stroke-linejoin="round" stroke-width="2">
            <path fill="#671C6C" stroke="#671C6C" d="M16.351 26.474s-10.92 6.933-13.1 13.54C1.07 46.62 1 50.424 1 50.424h11.193M42.115 25.985s11.566 7.422 13.747 14.029c2.18 6.606 2.285 10.807 2.285 10.807l-11.357-.095"/>
            <path fill="#732379" stroke="#732379" d="M19 50.673v9.894h21.648v-9.752"/>
            <path fill="#D9E021" stroke="#D9E021" d="M29.518 87.753l-7.426-13.31S20.606 65 29.572 65c8.967 0 7.75 8.993 7.75 8.993l-7.804 13.76z"/>
            <path fill="#732379" stroke="#732379" d="M29.424 1c9.134-.078 17.421 49.731 17.421 49.731L12 50.487S20.29 1.079 29.424 1z"/>
        </g>
        <path fill="#FFF" fill-rule="nonzero" d="M37.585 37.707l-7.092-7.292A1.378 1.378 0 0 0 29.5 30a1.32 1.32 0 0 0-.982.415l-7.103 7.292a1.409 1.409 0 0 0-.415 1.02c0 .402.138.738.415 1.007l.818.84c.262.284.59.426.982.426.393 0 .72-.142.982-.426l5.303-5.433 5.303 5.433c.262.284.59.426.982.426.386 0 .717-.142.993-.426l.818-.84c.27-.276.404-.612.404-1.008s-.138-.736-.415-1.02z"/>
    </g>
</svg>
