<svg xmlns="http://www.w3.org/2000/svg" width="84" height="56" viewBox="0 0 84 56">
    <g fill="none" fill-rule="evenodd" stroke-linecap="round" stroke-linejoin="round" stroke-width="2">
        <path fill="#5BA99D" stroke="#5BA99D" d="M58.696 15.793S52.218 5.626 46.044 3.596C39.871 1.566 36.316 1.5 36.316 1.5v10.421M59.153 39.78s-6.935 10.768-13.109 12.798c-6.173 2.03-10.098 2.128-10.098 2.128l.088-10.574"/>
        <path fill="#75C3B7" stroke="#75C3B7" d="M36.083 18.259H26.84v20.154h9.112"/>
        <path fill="#D6DD20" stroke="#D6DD20" d="M1.435 28.052l12.436-6.915s8.825-1.383 8.825 6.965c0 8.348-8.404 7.214-8.404 7.214L1.435 28.052z"/>
        <path fill="#75C3B7" stroke="#75C3B7" d="M82.5 27.964c.073 8.504-46.47 16.22-46.47 16.22l.228-32.443S82.427 19.46 82.5 27.964z"/>
    </g>
</svg>
