<?xml version="1.0" encoding="UTF-8"?>
<svg width="73px" height="66px" viewBox="0 0 73 66" version="1.1" xmlns="http://www.w3.org/2000/svg" xmlns:xlink="http://www.w3.org/1999/xlink">
    <!-- Generator: Sketch 46.2 (44496) - http://www.bohemiancoding.com/sketch -->
    <title>Artboard 2</title>
    <desc>Created with Sketch.</desc>
    <defs></defs>
    <g id="Desktop" stroke="none" stroke-width="1" fill="none" fill-rule="evenodd">
        <g id="Artboard-2" fill-rule="nonzero" fill="#75C3B7">
            <g id="safebox-copy" transform="translate(4.000000, 1.000000)">
                <path d="M63.8627,5.60882759 L52.0278,5.60882759 L42.5315,0.251586207 C42.152,0.0386206897 41.6845,0.0419310345 41.3083,0.261517241 C40.9332,0.48 40.7,0.887172414 40.7,1.32413793 L40.7,2.29848276 L31.9,2.29848276 L31.9,5.60882759 L2.1373,5.60882759 C0.9592,5.60882759 0,6.57103448 0,7.75282759 L0,56.4292414 C0,57.6110345 0.9592,58.5732414 2.1373,58.5732414 L2.2,58.5732414 L2.2,62.9870345 L13.2,62.9870345 L13.2,58.5732414 L31.9,58.5732414 L31.9,61.8835862 L40.7,61.8835862 L40.7,62.6736552 C40.7,63.1106207 40.9332,63.5177931 41.3094,63.7384828 C41.4997,63.8510345 41.7142,63.9062069 41.9287,63.9062069 C42.1366,63.9062069 42.3456,63.8532414 42.5315,63.7484138 L51.7044,58.5732414 L52.8,58.5732414 L52.8,62.9870345 L63.8,62.9870345 L63.8,58.5732414 L63.8627,58.5732414 C65.0408,58.5732414 66,57.6110345 66,56.4292414 L66,7.75282759 C66,6.57103448 65.0408,5.60882759 63.8627,5.60882759 Z M11,60.7812414 L4.4,60.7812414 L4.4,58.5743448 L11,58.5743448 L11,60.7812414 Z M13.2,56.4071724 L13.2,56.3674483 L2.2,56.3674483 L2.2,56.4303448 L2.1373,7.81572414 L31.9,7.81572414 L31.9,10.0226207 L6.9806,10.0226207 C5.5583,10.0226207 4.4,11.1834483 4.4,12.6102069 L4.4,51.5718621 C4.4,52.9986207 5.5583,54.1605517 6.9806,54.1605517 L15.4,54.1605517 L24.2,54.1605517 L31.9,54.1605517 L31.9,56.3696552 L13.2,56.4071724 Z M8.8,51.9536552 L6.9806,51.9536552 C6.7705,51.9536552 6.6,51.7815172 6.6,51.5718621 L6.6,33.1950345 L15.4,33.1950345 L24.2,33.1950345 L31.9,33.1950345 L31.9,51.9536552 L30.8,51.9536552 L8.8,51.9536552 Z M31.9,30.9881379 L30.8,30.9881379 L6.6,30.9881379 L6.6,12.6102069 C6.6,12.4005517 6.7705,12.2284138 6.9806,12.2284138 L31.9,12.2284138 L31.9,30.9881379 Z M34.1,59.6777931 L34.1,58.5743448 L34.1,54.1605517 L34.1,10.0226207 L34.1,5.60882759 L34.1,4.50537931 L40.7,4.50537931 L40.7,59.6777931 L34.1,59.6777931 Z M42.9,2.99034483 L47.5409,5.60882759 L47.3792,5.60882759 L58.3,11.7715862 L58.3,15.5398621 C57.6917,15.5398621 57.2,16.0331034 57.2,16.6433103 C57.2,17.2535172 57.6917,17.7467586 58.3,17.7467586 L58.3,18.8502069 C57.6917,18.8502069 57.2,19.3434483 57.2,19.9536552 C57.2,20.5638621 57.6917,21.0571034 58.3,21.0571034 L58.3,43.126069 C57.6917,43.126069 57.2,43.6193103 57.2,44.2295172 C57.2,44.8397241 57.6917,45.3329655 58.3,45.3329655 L58.3,46.4364138 C57.6917,46.4364138 57.2,46.9296552 57.2,47.5398621 C57.2,48.150069 57.6917,48.6433103 58.3,48.6433103 L58.3,52.32 L42.9,61.0096552 L42.9,2.99034483 Z M61.6,60.7812414 L55,60.7812414 L55,58.5743448 L61.6,58.5743448 L61.6,60.7812414 Z M63.8,56.3674483 L55.7766,56.3674483 L60.5,53.7026207 L60.5,53.6110345 L60.5,48.6433103 L61.6,48.6433103 C62.2083,48.6433103 62.7,48.150069 62.7,47.5398621 C62.7,46.9296552 62.2083,46.4364138 61.6,46.4364138 L60.5,46.4364138 L60.5,45.3329655 L61.6,45.3329655 C62.2083,45.3329655 62.7,44.8397241 62.7,44.2295172 C62.7,43.6193103 62.2083,43.126069 61.6,43.126069 L60.5,43.126069 L60.5,21.0571034 L61.6,21.0571034 C62.2083,21.0571034 62.7,20.5638621 62.7,19.9536552 C62.7,19.3434483 62.2083,18.8502069 61.6,18.8502069 L60.5,18.8502069 L60.5,17.7467586 L61.6,17.7467586 C62.2083,17.7467586 62.7,17.2535172 62.7,16.6433103 C62.7,16.0331034 62.2083,15.5398621 61.6,15.5398621 L60.5,15.5398621 L60.5,10.4805517 L60.5,10.3889655 L55.8998,7.79365517 L63.8,7.75282759 L63.8627,56.3674483 L63.8,56.3674483 Z" id="Shape"></path>
                <ellipse id="Oval" cx="37.4" cy="6.61958621" rx="1.1" ry="1.10344828"></ellipse>
                <ellipse id="Oval" cx="37.4" cy="13.2402759" rx="1.1" ry="1.10344828"></ellipse>
                <ellipse id="Oval" cx="37.4" cy="50.7575172" rx="1.1" ry="1.10344828"></ellipse>
                <ellipse id="Oval" cx="37.4" cy="44.1368276" rx="1.1" ry="1.10344828"></ellipse>
                <ellipse id="Oval" cx="37.4" cy="19.8609655" rx="1.1" ry="1.10344828"></ellipse>
                <ellipse id="Oval" cx="37.4" cy="57.3782069" rx="1.1" ry="1.10344828"></ellipse>
                <path d="M45.1,37.5172414 C44.4917,37.5172414 44,38.0104828 44,38.6206897 C44,39.2308966 44.4917,39.7241379 45.1,39.7241379 C47.5332,39.7241379 49.5121,37.7390345 49.5121,35.2982069 L49.5121,28.7006897 C49.5121,26.2598621 47.5332,24.2758621 45.1,24.2758621 C44.4917,24.2758621 44,24.7691034 44,25.3793103 C44,25.9895172 44.4917,26.4827586 45.1,26.4827586 C46.3188,26.4827586 47.3121,27.478069 47.3121,28.7017931 L47.3121,35.2993103 C47.3121,36.5208276 46.3188,37.5172414 45.1,37.5172414 Z" id="Shape"></path>
                <path d="M45.1,19.862069 C44.4917,19.862069 44,20.3553103 44,20.9655172 C44,21.5757241 44.4917,22.0689655 45.1,22.0689655 C48.7454,22.0689655 51.7121,25.0438621 51.7121,28.7017931 L51.7121,35.2993103 C51.7121,38.9550345 48.7454,41.9310345 45.1,41.9310345 C44.4917,41.9310345 44,42.4242759 44,43.0344828 C44,43.6446897 44.4917,44.137931 45.1,44.137931 C49.9587,44.137931 53.9121,40.1721379 53.9121,35.2982069 L53.9121,28.7006897 C53.9121,23.8267586 49.9587,19.862069 45.1,19.862069 Z" id="Shape"></path>
                <g id="Group" transform="translate(9.000000, 18.000000)">
                    <path d="M2,2 L2,12 L20,12 L20,2 L2,2 Z M1.01,0 L20.99,0 C21.7739038,0.226096201 21.7739038,0.226096201 22,1.01 L22,12.99 C21.7739038,13.7739038 21.7739038,13.7739038 20.99,14 L1.01,14 C0.226096201,13.7739038 0.226096201,13.7739038 0,12.99 L0,1.01 C0.226096201,0.226096201 0.226096201,0.226096201 1.01,0 Z" id="Rectangle-12"></path>
                    <polygon id="Line" points="6 1.5 6 14 8 14 8 1.5"></polygon>
                    <polygon id="Line-Copy" points="14 1.5 14 14 16 14 16 1.5"></polygon>
                    <polygon id="Line-2" points="0.5 5 7.59901951 5 7.59901951 3 0.5 3"></polygon>
                    <polygon id="Line-2-Copy-3" points="14.5 5 21.5990195 5 21.5990195 3 14.5 3"></polygon>
                    <polygon id="Line-2-Copy" points="0.5 8 7.59901951 8 7.59901951 6 0.5 6"></polygon>
                    <polygon id="Line-2-Copy-4" points="14.5 8 21.5990195 8 21.5990195 6 14.5 6"></polygon>
                    <polygon id="Line-2-Copy-2" points="0.5 11 7.59901951 11 7.59901951 9 0.5 9"></polygon>
                    <polygon id="Line-2-Copy-5" points="14.5 11 21.5990195 11 21.5990195 9 14.5 9"></polygon>
                </g>
                <g id="Group-Copy" transform="translate(10.000000, 40.000000)">
                    <path d="M1,1 L1,11 L19,11 L19,1 L1,1 Z M0.00999999978,-1 L19.99,-1 C20.7739038,-0.773903799 20.7739038,-0.773903799 21,0.00999999978 L21,11.99 C20.7739038,12.7739038 20.7739038,12.7739038 19.99,13 L0.00999999978,13 C-0.773903799,12.7739038 -0.773903799,12.7739038 -1,11.99 L-1,0.00999999978 C-0.773903799,-0.773903799 -0.773903799,-0.773903799 0.00999999978,-1 Z" id="Rectangle-12"></path>
                    <polygon id="Line" points="5 0.5 5 13 7 13 7 0.5"></polygon>
                    <polygon id="Line-Copy" points="13 0.5 13 13 15 13 15 0.5"></polygon>
                    <polygon id="Line-2" points="-0.5 4 6.59901951 4 6.59901951 2 -0.5 2"></polygon>
                    <polygon id="Line-2-Copy-3" points="13.5 4 20.5990195 4 20.5990195 2 13.5 2"></polygon>
                    <polygon id="Line-2-Copy" points="-0.5 7 6.59901951 7 6.59901951 5 -0.5 5"></polygon>
                    <polygon id="Line-2-Copy-4" points="13.5 7 20.5990195 7 20.5990195 5 13.5 5"></polygon>
                    <polygon id="Line-2-Copy-2" points="-0.5 10 6.59901951 10 6.59901951 8 -0.5 8"></polygon>
                    <polygon id="Line-2-Copy-5" points="13.5 10 20.5990195 10 20.5990195 8 13.5 8"></polygon>
                </g>
            </g>
        </g>
    </g>
</svg>