<svg xmlns="http://www.w3.org/2000/svg" width="74" height="71" viewBox="0 0 74 71">
    <path fill="#FFF" fill-rule="nonzero" d="M74 32.232C74 14.366 57.38 0 37 0S0 14.366 0 32.232c0 17.867 16.62 32.233 37 32.233 2.216 0 4.412-.173 6.572-.512 5.47 5.48 12.214 7.78 20.07 6.844 1.472-.176 2.15-1.923 1.183-3.045-2.806-3.256-4.6-6.546-5.411-9.879C68.504 51.841 74 42.453 74 32.232zM45.579 60.704a1.85 1.85 0 0 0-1.685-.559c-2.257.41-4.563.62-6.894.62-18.446 0-33.3-12.84-33.3-28.533C3.7 16.539 18.554 3.7 37 3.7c18.446 0 33.3 12.84 33.3 28.532 0 9.284-5.233 17.85-13.925 23.193a1.85 1.85 0 0 0-.854 1.89c.59 3.42 2.018 6.747 4.266 9.98-5.52-.126-10.221-2.31-14.208-6.59z" opacity=".6"/>
</svg>
