<?xml version="1.0" encoding="UTF-8"?>
<svg width="1028px" height="450px" viewBox="0 0 1028 450" version="1.1" xmlns="http://www.w3.org/2000/svg" xmlns:xlink="http://www.w3.org/1999/xlink">
    <!-- Generator: Sketch 46.2 (44496) - http://www.bohemiancoding.com/sketch -->
    <title>page_7 copy 12</title>
    <desc>Created with Sketch.</desc>
    <defs>
        <rect id="path-1" x="0" y="0" width="12" height="24"></rect>
        <rect id="path-3" x="0" y="0" width="12" height="24"></rect>
    </defs>
    <g id="Desktop" stroke="none" stroke-width="1" fill="none" fill-rule="evenodd">
        <g id="page_7-copy-12">
            <circle id="Oval-4-Copy-7" stroke="#D9E021" stroke-width="3" fill="#FFFFFF" cx="30" cy="194" r="9"></circle>
            <circle id="Oval-4-Copy-9" stroke="#D9E021" stroke-width="3" fill="#FFFFFF" cx="367" cy="381" r="9"></circle>
            <path d="M41,195.5 L172.378906,195.5" id="Path-19" stroke="#D9E021" stroke-width="3" stroke-linecap="round" stroke-linejoin="round"></path>
            <path id="Path-19-decoration-1" d="M172.378906,195.5 L161.578906,192.5 L161.578906,198.5 L172.378906,195.5 Z" stroke="#D9E021" stroke-width="3" stroke-linecap="round" stroke-linejoin="round"></path>
            <path d="M611,42.5 L773.512307,42.5" id="Path-19-Copy" stroke="#732379" stroke-width="3" stroke-linecap="round" stroke-linejoin="round"></path>
            <path id="Path-19-Copy-decoration-1" d="M773.512307,42.5 L762.712307,39.5 L762.712307,45.5 L773.512307,42.5 Z" stroke="#732379" stroke-width="3" stroke-linecap="round" stroke-linejoin="round"></path>
            <path d="M184,204 C184,204 184.593872,406.298663 355,383.155633" id="Path-20" stroke="#D9E021" stroke-width="3" stroke-linecap="round" stroke-linejoin="round"></path>
            <path id="Path-20-decoration-1" d="M355,383.155633 L343.894517,381.636339 L344.701971,387.581759 L355,383.155633 Z" stroke="#D9E021" stroke-width="3" stroke-linecap="round" stroke-linejoin="round"></path>
            <path d="M193,194.83654 C193,194.83654 268.425852,201.822863 269.206093,124.44797 C269.986333,47.0730764 350,42 350,42" id="Path-21" stroke="#D9E021" stroke-width="3" stroke-linecap="round" stroke-linejoin="round"></path>
            <path id="Path-21-decoration-1" d="M350,42 L339.2,39 L339.2,45 L350,42 Z" stroke="#D9E021" stroke-width="3" stroke-linecap="round" stroke-linejoin="round"></path>
            <path d="M374,42 L590,42" id="Path-22" stroke="#732379" stroke-width="3" stroke-linecap="round" stroke-linejoin="round"></path>
            <path id="Path-22-decoration-1" d="M590,42 L579.2,39 L579.2,45 L590,42 Z" stroke="#732379" stroke-width="3" stroke-linecap="round" stroke-linejoin="round"></path>
            <circle id="Oval-4-Copy-11" stroke="#732379" stroke-width="3" fill="#FFFFFF" cx="602" cy="42" r="9"></circle>
            <circle id="Oval-4-Copy-12" stroke="#732379" stroke-width="3" fill="#FFFFFF" cx="784" cy="42" r="9"></circle>
            <path d="M794,42.1086681 C794,42.1086681 859.884205,40.1007281 926.84528,53.3474007 C993.806355,66.5940732 1065.77722,152.255237 890.556489,161" id="Path-23" stroke="#732379" stroke-width="3" stroke-linecap="round" stroke-linejoin="round"></path>
            <path id="Path-23-decoration-1" d="M890.556489,161 L901.4926,163.457944 L901.193529,157.465402 L890.556489,161 Z" stroke="#732379" stroke-width="3" stroke-linecap="round" stroke-linejoin="round"></path>
            <path d="M998.739749,104 C998.739749,104 1051.35547,293 891,293" id="Path-24" stroke="#732379" stroke-width="3" stroke-linecap="round" stroke-linejoin="round"></path>
            <path id="Path-24-decoration-1" d="M891,293 L901.8,296 L901.8,290 L891,293 Z" stroke="#732379" stroke-width="3" stroke-linecap="round" stroke-linejoin="round"></path>
            <path d="M1004.24111,134 C1004.24111,134 1059.8134,428 891,428" id="Path-25" stroke="#732379" stroke-width="3" stroke-linecap="round" stroke-linejoin="round"></path>
            <path id="Path-25-decoration-1" d="M891,428 L901.8,431 L901.8,425 L891,428 Z" stroke="#732379" stroke-width="3" stroke-linecap="round" stroke-linejoin="round"></path>
            <path d="M865,423 C865,423 737.261842,399.288067 663,279" id="Path-28" stroke="#732379" stroke-width="3" stroke-linecap="round" stroke-linejoin="round" stroke-dasharray="7"></path>
            <path d="M853,432 C853,432 707.507812,398.404244 654,278" id="Path-28-Copy" stroke="#D9E021" stroke-width="3" stroke-linecap="round" stroke-linejoin="round" stroke-dasharray="7"></path>
            <path d="M363,57 L363.961697,58.4968293 C363.961697,58.4968293 450.865902,271.073556 640,273" id="Path-29" stroke="#D9E021" stroke-width="3" stroke-linecap="round" stroke-linejoin="round"></path>
            <path id="Path-29-decoration-1" d="M640,273 L629.231115,269.890157 L629.170005,275.889846 L640,273 Z" stroke="#D9E021" stroke-width="3" stroke-linecap="round" stroke-linejoin="round"></path>
            <path d="M373,53.0450193 C374.571564,56.3754699 373.11442,53 373.11442,53 C373.11442,53 451.747002,259.071586 641,261" id="Path-29-Copy" stroke="#732379" stroke-width="3" stroke-linecap="round" stroke-linejoin="round"></path>
            <path id="Path-29-Copy-decoration-1" d="M373,53.0450193 L380.322019,61.5319523 L374.895805,64.092459 L373,53.0450193 Z" stroke="#732379" stroke-width="3" stroke-linecap="round" stroke-linejoin="round"></path>
            <circle id="Oval-4-Copy-10" stroke="#732379" stroke-width="3" fill="#FFFFFF" cx="363" cy="42" r="9"></circle>
            <circle id="Oval-4-Copy-16" stroke="#732379" stroke-width="3" fill="#FFFFFF" cx="657" cy="263" r="9"></circle>
            <circle id="Oval-4-Copy-13" stroke="#732379" stroke-width="3" fill="#FFFFFF" cx="878" cy="160" r="9"></circle>
            <circle id="Oval-4-Copy-14" stroke="#732379" stroke-width="3" fill="#FFFFFF" cx="878" cy="292" r="9"></circle>
            <circle id="Oval-4-Copy-15" stroke="#732379" stroke-width="3" fill="#FFFFFF" cx="878" cy="428" r="9"></circle>
            <circle id="Oval-4-Copy-8" stroke="#D9E021" stroke-width="3" fill="#FFFFFF" cx="183" cy="194" r="9"></circle>
            <path d="M664.5,280.5 L662,276" id="Path-37" stroke="#732379" stroke-width="3" fill="#732379" stroke-linecap="round" stroke-linejoin="round"></path>
            <path id="Path-37-decoration-1" d="M662,276 L664.622472,286.897827 L669.867415,283.98397 L662,276 Z" stroke="#732379" stroke-width="3" fill="#732379" stroke-linecap="round" stroke-linejoin="round"></path>
            <path d="M859.5,433.5 L864.5,434.5" id="Path-37-Copy-4" stroke="#D9E021" stroke-width="3" fill="#D9E021" stroke-linecap="round" stroke-linejoin="round"></path>
            <path id="Path-37-Copy-4-decoration-1" d="M864.5,434.5 L854.498077,429.440204 L853.32138,435.323688 L864.5,434.5 Z" stroke="#D9E021" stroke-width="3" fill="#D9E021" stroke-linecap="round" stroke-linejoin="round"></path>
            <g id="Group-5" transform="translate(670.000000, 268.000000)" stroke="#732379" stroke-width="3" stroke-linecap="round" stroke-linejoin="round">
                <path d="M193.515625,25.7402344 C193.515625,25.7402344 99.0395274,54.232056 7.20410156,5.07617188" id="Path-27" stroke-dasharray="7"></path>
                <path d="M5.5,3.5 L0.5,0.5" id="Path-37-Copy" fill="#732379"></path>
                <path id="Path-37-Copy-decoration-1" d="M0.5,0.5 L8.21743633,8.62903294 L11.3044109,3.48407538 L0.5,0.5 Z" fill="#732379"></path>
            </g>
            <g id="Group-5-Copy" transform="translate(665.000000, 274.000000)" stroke="#D9E021" stroke-width="3" stroke-linecap="round" stroke-linejoin="round">
                <path d="M200.515625,31.7402344 C193.494141,35.9121094 79.6386719,60.6152344 0.66015625,0.37109375" id="Path-27" stroke-dasharray="7"></path>
                <path d="M193.5,33.5 L203.5,29.5" id="Path-37-Copy" fill="#D9E021"></path>
                <path id="Path-37-Copy-decoration-1" d="M203.5,29.5 L192.35828,30.7255892 L194.586624,36.2964494 L203.5,29.5 Z" fill="#D9E021"></path>
            </g>
            <g id="Group-2" transform="translate(671.000000, 161.000000)" stroke="#732379" stroke-width="3" stroke-linecap="round" stroke-linejoin="round">
                <path d="M194.666016,0.556640625 C194.666016,0.556640625 90.1992188,94.1894531 4,93.1228027" id="Path-26" stroke-dasharray="7"></path>
                <path d="M5.5,93.5 L0.5,94.5" id="Path-37-Copy-2" fill="#732379"></path>
                <path id="Path-37-Copy-2-decoration-1" d="M0.5,94.5 L11.6786197,95.3236878 L10.5019229,89.4402037 L0.5,94.5 Z" fill="#732379"></path>
            </g>
            <g id="Group-4" transform="translate(674.000000, 170.000000)" stroke="#D9E021" stroke-width="3" stroke-linecap="round" stroke-linejoin="round">
                <path d="M192.242187,2.05273438 C192.242187,2.05273438 100.492187,88.0058594 0,94" id="Path-26-Copy" stroke-dasharray="7"></path>
                <path d="M189.5,5.5 L195.5,0.5" id="Path-37-Copy-3" fill="#D9E021"></path>
                <path id="Path-37-Copy-3-decoration-1" d="M195.5,0.5 L185.282657,5.10932768 L189.123763,9.71865536 L195.5,0.5 Z" fill="#D9E021"></path>
            </g>
            <g id="Oval-4-Copy-17" transform="translate(357.000000, 42.000000) rotate(180.000000) translate(-357.000000, -42.000000) translate(351.000000, 30.000000)">
                <mask id="mask-2" fill="white">
                    <use xlink:href="#path-1"></use>
                </mask>
                <g id="Mask"></g>
                <circle stroke="#D9E021" stroke-width="3" fill="#FFFFFF" mask="url(#mask-2)" cx="0" cy="12" r="9"></circle>
            </g>
            <g id="Oval-4-Copy-18" transform="translate(651.000000, 263.000000) rotate(180.000000) translate(-651.000000, -263.000000) translate(645.000000, 251.000000)">
                <mask id="mask-4" fill="white">
                    <use xlink:href="#path-3"></use>
                </mask>
                <g id="Mask"></g>
                <circle id="Oval-4-Copy-17" stroke="#D9E021" stroke-width="3" fill="#FFFFFF" mask="url(#mask-4)" cx="0" cy="12" r="9"></circle>
            </g>
        </g>
    </g>
</svg>