<svg xmlns="http://www.w3.org/2000/svg" width="69" height="85" viewBox="0 0 69 85">
    <g fill="none" fill-rule="evenodd">
        <path fill="#75C3B7" d="M64.072 78.727c-.001.151-.03.266-.074.37a.854.854 0 0 1-.331.375.949.949 0 0 1-.499.147.81.81 0 0 1-.301-.056.893.893 0 0 1-.296-.193l-1.597-1.512a8.662 8.662 0 0 0-2.851-1.881 8.713 8.713 0 0 0-6.544 0 8.68 8.68 0 0 0-2.877 1.905 5.894 5.894 0 0 1-4.183 1.728 5.888 5.888 0 0 1-4.181-1.728 8.663 8.663 0 0 0-2.877-1.905 8.716 8.716 0 0 0-9.42 1.905 5.891 5.891 0 0 1-4.183 1.728 5.936 5.936 0 0 1-2.226-.432 5.88 5.88 0 0 1-1.955-1.296 8.709 8.709 0 0 0-6.149-2.541 8.703 8.703 0 0 0-6.15 2.54h.002L6.085 79.17a.835.835 0 0 1-.612.264.961.961 0 0 1-.64-.253.813.813 0 0 1-.192-.268.896.896 0 0 1-.074-.37V34.398c.001-8.202 3.329-15.613 8.714-20.989 5.39-5.374 12.818-8.694 21.039-8.695 8.22 0 15.649 3.32 21.037 8.694 5.386 5.376 8.713 12.788 8.714 20.99v44.328zM58.488 9.988A34.118 34.118 0 0 0 34.32 0a34.119 34.119 0 0 0-24.17 9.988C3.969 16.154.14 24.69.14 34.102v46.377c-.001.56.116 1.098.33 1.574.318.717.843 1.289 1.46 1.676a3.92 3.92 0 0 0 2.083.603 3.804 3.804 0 0 0 2.706-1.129l1.36-1.354.001-.002a6.195 6.195 0 0 1 4.393-1.815 6.198 6.198 0 0 1 4.393 1.815 9.09 9.09 0 0 0 3.023 2.003 9.163 9.163 0 0 0 9.897-2.003 6.192 6.192 0 0 1 4.393-1.815 6.192 6.192 0 0 1 4.393 1.815 9.101 9.101 0 0 0 3.023 2.003 9.164 9.164 0 0 0 9.898-2.003 6.195 6.195 0 0 1 4.393-1.815 6.198 6.198 0 0 1 4.394 1.815l.028.027 1.677 1.59a3.81 3.81 0 0 0 2.64 1.063 3.917 3.917 0 0 0 2.666-1.053 3.799 3.799 0 0 0 1.206-2.8V34.102c.003-9.413-3.826-17.948-10.009-24.114z"/>
        <path fill="#75C3B7" d="M34.588 55.627a8.678 8.678 0 0 1-4.421-1.208 1.26 1.26 0 0 1-.442-1.728 1.266 1.266 0 0 1 1.731-.44 6.159 6.159 0 0 0 6.198.039 1.263 1.263 0 0 1 1.725.463 1.257 1.257 0 0 1-.463 1.72 8.686 8.686 0 0 1-4.328 1.154"/>
        <g fill="#732379">
            <path fill-rule="nonzero" d="M45.492 46.09c-5.603 0-10.146-4.533-10.146-10.124 0-5.59 4.543-10.123 10.146-10.123 5.604 0 10.146 4.533 10.146 10.123 0 5.591-4.542 10.123-10.146 10.123zm0-3.375c3.736 0 6.764-3.022 6.764-6.749s-3.028-6.748-6.764-6.748-6.764 3.021-6.764 6.748c0 3.727 3.028 6.749 6.764 6.749zM22.945 46.09c-5.604 0-10.146-4.533-10.146-10.124 0-5.59 4.542-10.123 10.146-10.123 5.604 0 10.146 4.533 10.146 10.123 0 5.591-4.542 10.123-10.146 10.123zm0-3.375c3.736 0 6.764-3.022 6.764-6.749s-3.028-6.748-6.764-6.748-6.764 3.021-6.764 6.748c0 3.727 3.028 6.749 6.764 6.749z"/>
            <path d="M31.4 34.28h6.2v3.373h-6.2z"/>
        </g>
    </g>
</svg>
