<?xml version="1.0" encoding="UTF-8"?>
<svg width="1153px" height="391px" viewBox="0 0 1153 391" version="1.1" xmlns="http://www.w3.org/2000/svg" xmlns:xlink="http://www.w3.org/1999/xlink" style="background: #FFFFFF;">
    <!-- Generator: Sketch 47 (45396) - http://www.bohemiancoding.com/sketch -->
    <title>page_6_1 copy</title>
    <desc>Created with Sketch.</desc>
    <defs></defs>
    <g id="Desktop" stroke="none" stroke-width="1" fill="none" fill-rule="evenodd">
        <g id="page_6_1-copy">
            <circle id="Oval-3" stroke="#732379" stroke-width="3" cx="1119" cy="237" r="23"></circle>
            <circle id="Oval-3-Copy" stroke="#732379" stroke-width="3" cx="1041" cy="81" r="23"></circle>
            <circle id="Oval-3-Copy-2" stroke="#732379" stroke-width="3" cx="930" cy="166" r="23"></circle>
            <circle id="Oval-3-Copy-3" stroke="#732379" stroke-width="3" cx="784" cy="116" r="23"></circle>
            <path d="M36.3789063,117.495015 L36.3789063,243.569584" id="Path-19" stroke="#75C3B7" stroke-width="3" stroke-linecap="round" stroke-linejoin="round"></path>
            <path id="Path-19-decoration-1" d="M36.3789063,117.495015 L39.3789063,128.295015 L33.3789063,128.295015 L36.3789063,117.495015 Z" stroke="#75C3B7" stroke-width="3" stroke-linecap="round" stroke-linejoin="round"></path>
            <path id="Path-19-decoration-2" d="M36.3789063,243.569584 L39.3789063,232.769584 L33.3789063,232.769584 L36.3789063,243.569584 Z" stroke="#75C3B7" stroke-width="3" stroke-linecap="round" stroke-linejoin="round"></path>
            <path d="M399.505966,98.5230273 L56.4987111,98.5230273" id="Path-19-Copy" stroke="#75C3B7" stroke-width="3" stroke-linecap="round" stroke-linejoin="round"></path>
            <path id="Path-19-Copy-decoration-1" d="M399.505966,98.5230273 L388.705966,101.523027 L388.705966,95.5230273 L399.505966,98.5230273 Z" stroke="#75C3B7" stroke-width="3" stroke-linecap="round" stroke-linejoin="round"></path>
            <path id="Path-19-Copy-decoration-2" d="M56.4987111,98.5230273 L67.2987111,101.523027 L67.2987111,95.5230273 L56.4987111,98.5230273 Z" stroke="#75C3B7" stroke-width="3" stroke-linecap="round" stroke-linejoin="round"></path>
            <path d="M467,358 L54,358" id="Path-19-Copy-2" stroke="#75C3B7" stroke-width="3" stroke-linecap="round" stroke-linejoin="round"></path>
            <path id="Path-19-Copy-2-decoration-1" d="M467,358 L456.2,361 L456.2,355 L467,358 Z" stroke="#75C3B7" stroke-width="3" stroke-linecap="round" stroke-linejoin="round"></path>
            <path d="M419,116 C354.038044,241.650035 236.038044,316.650035 65,341" id="Path-14" stroke="#75C3B7" stroke-width="3" stroke-linecap="round" stroke-linejoin="round" stroke-dasharray="7"></path>
            <path d="M54,343 C58.8512829,341.940275 66.5179496,340.606942 77,339" id="Path-15" stroke="#75C3B7" stroke-width="3" stroke-linecap="round" stroke-linejoin="round"></path>
            <path id="Path-15-decoration-1" d="M54,343 L63.9109684,337.764286 L65.1914274,343.626062 L54,343 Z" stroke="#75C3B7" stroke-width="3" stroke-linecap="round" stroke-linejoin="round"></path>
            <path d="M56,351 C59.1797239,350.682436 66.1797239,350.015769 77,349" id="Path-15-Copy" stroke="#75C3B7" stroke-width="3" stroke-linecap="round" stroke-linejoin="round"></path>
            <path id="Path-15-Copy-decoration-1" d="M56,351 L66.4484062,346.941576 L67.04467,352.911875 L56,351 Z" stroke="#75C3B7" stroke-width="3" stroke-linecap="round" stroke-linejoin="round"></path>
            <path d="M419,115 C415.774617,123.277209 412.441284,129.610542 409,134" id="Path-16" stroke="#75C3B7" stroke-width="3" stroke-linecap="round" stroke-linejoin="round"></path>
            <path id="Path-16-decoration-1" d="M419,115 L417.874026,126.152228 L412.283475,123.973756 L419,115 Z" stroke="#75C3B7" stroke-width="3" stroke-linecap="round" stroke-linejoin="round"></path>
            <path d="M765,127 C761.374636,129.2762 755.70797,132.609533 748,137" id="Path-16-Copy" stroke="#75C3B7" stroke-width="3" stroke-linecap="round" stroke-linejoin="round"></path>
            <path id="Path-16-Copy-decoration-1" d="M765,127 L757.44858,135.283481 L754.258163,130.20202 L765,127 Z" stroke="#75C3B7" stroke-width="3" stroke-linecap="round" stroke-linejoin="round"></path>
            <path d="M57,352 C299.464476,329.17931 535.131143,254.512643 764,128" id="Path-17" stroke="#75C3B7" stroke-width="3" stroke-linecap="round" stroke-linejoin="round" stroke-dasharray="7"></path>
            <path d="M759,111 C658.213381,55.8519062 558.546714,44.5688929 460,77.1509602" id="Path-18" stroke="#75C3B7" stroke-dasharray="7"></path>
            <path d="M1019,66.1509131 C772.053147,8.29368302 575.719814,16.2433787 430,90" id="Path-39" stroke="#75C3B7" stroke-dasharray="7"></path>
            <path id="Path-39-decoration-1" d="M438.281177,82.4460533 L430,90 L440.99078,87.7993746" stroke="#75C3B7" stroke-dasharray="7"></path>
            <path d="M1107,214 C916.574447,34.631017 700.241113,-10.6828324 458,78.0584518" id="Path-41" stroke="#75C3B7" stroke-dasharray="7"></path>
            <path d="M507,356 C725.232701,356 865.566034,300.666667 928,190" id="Path-42" stroke="#75C3B7" stroke-width="3" stroke-linecap="round" stroke-linejoin="round"></path>
            <path id="Path-42-decoration-1" d="M928,190 L920.080436,197.932245 L925.306173,200.880409 L928,190 Z" stroke="#75C3B7" stroke-width="3" stroke-linecap="round" stroke-linejoin="round"></path>
            <path d="M506,347 C682.419422,343.100231 775.086089,274.433565 784,141" id="Path-44" stroke="#75C3B7" stroke-width="3" stroke-linecap="round" stroke-linejoin="round"></path>
            <path id="Path-44-decoration-1" d="M784,141 L780.286792,151.576015 L786.273448,151.975948 L784,141 Z" stroke="#75C3B7" stroke-width="3" stroke-linecap="round" stroke-linejoin="round"></path>
            <path d="M799,113 L1023,82" id="Path-46" stroke="#75C3B7" stroke-linecap="round" stroke-linejoin="round"></path>
            <path id="Path-46-decoration-1" d="M810.109297,114.491145 L799,113 L809.286779,108.547791" stroke="#75C3B7" stroke-linecap="round" stroke-linejoin="round"></path>
            <path id="Path-46-decoration-2" d="M1012.71322,86.4522094 L1023,82 L1011.8907,80.5088548" stroke="#75C3B7" stroke-linecap="round" stroke-linejoin="round"></path>
            <path d="M914,164 L802,123" id="Path-48" stroke="#75C3B7" stroke-linecap="round" stroke-linejoin="round"></path>
            <path id="Path-48-decoration-1" d="M904.889472,157.470201 L914,164 L902.8269,163.104542" stroke="#75C3B7" stroke-linecap="round" stroke-linejoin="round"></path>
            <path id="Path-48-decoration-2" d="M813.1731,123.895458 L802,123 L811.110528,129.529799" stroke="#75C3B7" stroke-linecap="round" stroke-linejoin="round"></path>
            <path d="M815,117.178882 C818.597776,117.178882 998.981262,92.1152236 1103,212" id="Path-50" stroke="#75C3B7" stroke-linecap="round" stroke-linejoin="round"></path>
            <path id="Path-50-decoration-1" d="M825.8,120.178882 L815,117.178882 L825.8,114.178882" stroke="#75C3B7" stroke-linecap="round" stroke-linejoin="round"></path>
            <path id="Path-50-decoration-2" d="M1093.65619,205.808625 L1103,212 L1098.1881,201.876482" stroke="#75C3B7" stroke-linecap="round" stroke-linejoin="round"></path>
            <path d="M923,150 C784.47101,47.0018129 630.137677,22.7805556 460,77.3362282" id="Path-38" stroke="#75C3B7" stroke-dasharray="7"></path>
            <path d="" id="Path-40" stroke="#979797"></path>
            <path d="" id="Path-43" stroke="#979797"></path>
            <path d="M508,365 C898.578419,358.086823 1100.57842,324.75349 1114,265" id="Path-45" stroke="#75C3B7" stroke-width="3" stroke-linecap="round" stroke-linejoin="round"></path>
            <path id="Path-45-decoration-1" d="M1114,265 L1108.70605,274.879985 L1114.56019,276.194918 L1114,265 Z" stroke="#75C3B7" stroke-width="3" stroke-linecap="round" stroke-linejoin="round"></path>
            <path d="M1059,91 L1117,216" id="Path-47" stroke="#75C3B7" stroke-linecap="round" stroke-linejoin="round"></path>
            <path id="Path-47-decoration-1" d="M1060.82438,102.05946 L1059,91 L1066.26702,99.5340714" stroke="#75C3B7" stroke-linecap="round" stroke-linejoin="round"></path>
            <path id="Path-47-decoration-2" d="M1109.73298,207.465929 L1117,216 L1115.17562,204.94054" stroke="#75C3B7" stroke-linecap="round" stroke-linejoin="round"></path>
            <path d="M1101.5,236.5 L947.5,170.5" id="Line-2" stroke="#75C3B7" stroke-linecap="round" stroke-linejoin="round"></path>
            <path id="Line-2-decoration-1" d="M1092.75499,229.488236 L1101.5,236.5 L1090.39148,235.003107" stroke="#75C3B7" stroke-linecap="round" stroke-linejoin="round"></path>
            <path id="Line-2-decoration-2" d="M958.608524,171.996893 L947.5,170.5 L956.245008,177.511764" stroke="#75C3B7" stroke-linecap="round" stroke-linejoin="round"></path>
            <path d="M936,149 L1028,99" id="Path-49" stroke="#75C3B7" stroke-linecap="round" stroke-linejoin="round"></path>
            <path id="Path-49-decoration-1" d="M946.921685,146.47873 L936,149 L944.056605,141.206983" stroke="#75C3B7" stroke-linecap="round" stroke-linejoin="round"></path>
            <path id="Path-49-decoration-2" d="M1019.9434,106.793017 L1028,99 L1017.07832,101.52127" stroke="#75C3B7" stroke-linecap="round" stroke-linejoin="round"></path>
            <circle id="Oval-4-Copy-7" stroke="#732379" stroke-width="3" fill="#FFFFFF" cx="36" cy="349" r="9"></circle>
            <circle id="Oval-4-Copy-8" stroke="#732379" stroke-width="3" fill="#FFFFFF" cx="289" cy="258" r="9"></circle>
            <circle id="Oval-4-Copy-9" stroke="#732379" stroke-width="3" fill="#FFFFFF" cx="486" cy="357" r="9"></circle>
            <circle id="Oval-4-Copy-10" stroke="#732379" stroke-width="3" fill="#FFFFFF" cx="555" cy="226" r="9"></circle>
            <circle id="Oval-4-Copy-11" stroke="#732379" stroke-width="3" fill="#FFFFFF" cx="418" cy="97" r="9"></circle>
            <circle id="Oval-4-Copy-12" stroke="#732379" stroke-width="3" fill="#FFFFFF" cx="38" cy="97" r="9"></circle>
            <path d="M430,91 L449,82" id="Path-51" stroke="#75C3B7" stroke-linecap="round" stroke-linejoin="round"></path>
            <path id="Path-51-decoration-1" d="M441.044628,89.087881 L430,91 L438.47611,83.665454" stroke="#75C3B7" stroke-linecap="round" stroke-linejoin="round"></path>
        </g>
    </g>
</svg>