<svg xmlns="http://www.w3.org/2000/svg" width="96" height="44" viewBox="0 0 96 44">
    <g fill="none" fill-rule="evenodd" transform="translate(3 3)">
        <rect width="93" height="41" x="-1.5" y="-1.5" stroke="#75C3B7" stroke-width="3" rx="8"/>
        <path fill="#75C3B7" d="M10.002 26.31H7V12.211h6.595c3.065 0 4.735 2.072 4.735 4.545 0 2.452-1.691 4.544-4.735 4.544h-3.593v5.01zm3.191-7.652c1.184 0 2.072-.74 2.072-1.902 0-1.184-.888-1.902-2.072-1.902h-3.191v3.804h3.191zm17.26 7.652v-2.642h-5.748c3.656-2.663 5.643-4.756 5.643-7.166 0-2.811-2.388-4.502-5.39-4.502-1.966 0-4.058.719-5.432 2.304l1.712 1.987c.951-.994 2.177-1.628 3.784-1.628 1.162 0 2.282.613 2.282 1.84 0 1.733-1.69 3.191-7.461 7.46v2.347h10.61zm5.53 0h-3.001V12.211h6.595c3.065 0 4.734 2.072 4.734 4.545 0 2.452-1.69 4.544-4.734 4.544h-3.594v5.01zm3.192-7.652c1.184 0 2.071-.74 2.071-1.902 0-1.184-.887-1.902-2.071-1.902h-3.192v3.804h3.192zM64.84 26.31h-3.425l-.866-2.389h-6.045l-.888 2.389H50.19l5.454-14.099h3.762L64.84 26.31zm-5.116-5.03l-2.198-6.067-2.198 6.066h4.396zm9.483 5.03h-3.002V12.211H72.8c3.065 0 4.735 2.072 4.735 4.545 0 2.452-1.691 4.544-4.735 4.544h-3.593v5.01zm3.191-7.652c1.184 0 2.072-.74 2.072-1.902 0-1.184-.888-1.902-2.072-1.902h-3.191v3.804h3.191zm10.053 7.652V12.211H79.45V26.31h3.001z"/>
    </g>
</svg>
