<svg xmlns="http://www.w3.org/2000/svg" width="62" height="81" viewBox="0 0 62 81">
    <g fill="#75C3B7" fill-rule="nonzero">
        <path d="M61.317 76.182V21.616a1.482 1.482 0 0 0 0-.282 1.489 1.489 0 0 0-.133-.373v-.08a1.514 1.514 0 0 0-.245-.323L40.459.444a1.521 1.521 0 0 0-.327-.242h-.082A1.52 1.52 0 0 0 39.672 0H4.456C1.999 0 .006 1.962 0 4.386v71.796c.011 2.43 2.014 4.391 4.476 4.386h52.365a4.477 4.477 0 0 0 3.163-1.274 4.356 4.356 0 0 0 1.313-3.112zM40.878 5.162l15.176 14.942H42.288a1.39 1.39 0 0 1-.995-.388 1.352 1.352 0 0 1-.415-.973V5.163zM3.066 76.182V4.386a1.38 1.38 0 0 1 1.39-1.361h33.356v15.718c0 2.422 1.99 4.386 4.446 4.386H58.25v53.053a1.37 1.37 0 0 1-1.38 1.361H4.476c-.77.006-1.399-.602-1.41-1.361z"/>
        <path d="M48.752 31.665h-34.94c-.848 0-1.534.677-1.534 1.512s.686 1.512 1.533 1.512h34.94c.847 0 1.533-.677 1.533-1.512s-.686-1.512-1.532-1.512zM48.752 43.297h-34.94c-.848 0-1.534.677-1.534 1.512s.686 1.512 1.533 1.512h34.94c.847 0 1.533-.677 1.533-1.512s-.686-1.512-1.532-1.512zM13.811 22.411h14.563c.846 0 1.533-.677 1.533-1.512s-.687-1.512-1.533-1.512H13.81c-.847 0-1.533.677-1.533 1.512s.686 1.512 1.533 1.512zM48.752 54.282h-34.94c-.848 0-1.534.678-1.534 1.513 0 .835.686 1.512 1.533 1.512h34.94c.847 0 1.533-.677 1.533-1.512s-.686-1.513-1.532-1.513zM48.752 65.914h-34.94c-.848 0-1.534.677-1.534 1.513 0 .835.686 1.512 1.533 1.512h34.94c.847 0 1.533-.677 1.533-1.512 0-.836-.686-1.513-1.532-1.513z"/>
    </g>
</svg>
