<svg xmlns="http://www.w3.org/2000/svg" width="73" height="115" viewBox="0 0 73 115">
    <g fill="none" fill-rule="evenodd">
        <path fill="#75C3B7" d="M68 108.282a.881.881 0 0 1-.417.77.976.976 0 0 1-.514.151.832.832 0 0 1-.31-.058.92.92 0 0 1-.305-.2l-1.646-1.56a8.921 8.921 0 0 0-6.307-2.6 8.944 8.944 0 0 0-6.334 2.625 6.07 6.07 0 0 1-4.308 1.784 6.064 6.064 0 0 1-4.307-1.784 8.922 8.922 0 0 0-2.964-1.967 8.96 8.96 0 0 0-9.704 1.967 6.067 6.067 0 0 1-4.308 1.784 6.055 6.055 0 0 1-4.307-1.784 8.953 8.953 0 0 0-9.704-1.967A8.952 8.952 0 0 0 9.6 107.41l.002-.001-1.334 1.33a.859.859 0 0 1-.63.273.989.989 0 0 1-.659-.26.84.84 0 0 1-.198-.278.927.927 0 0 1-.076-.382V62.516c0-8.468 3.428-16.12 8.975-21.67 5.552-5.55 13.204-8.977 21.672-8.978 8.468 0 16.12 3.428 21.67 8.976 5.549 5.55 8.976 13.204 8.976 21.67v45.768H68zm-5.752-70.97C55.88 30.943 47.069 27 37.352 27c-9.717 0-18.53 3.943-24.896 10.312C6.087 43.68 2.143 52.491 2.144 62.21v47.882a3.933 3.933 0 0 0 1.845 3.356c.636.4 1.377.62 2.144.622a3.91 3.91 0 0 0 1.467-.286 3.99 3.99 0 0 0 1.321-.88l1.4-1.397.003-.002a6.38 6.38 0 0 1 4.524-1.874 6.384 6.384 0 0 1 4.526 1.874 9.361 9.361 0 0 0 3.114 2.067 9.42 9.42 0 0 0 10.195-2.067 6.377 6.377 0 0 1 4.524-1.874 6.377 6.377 0 0 1 4.525 1.874 9.373 9.373 0 0 0 3.115 2.067 9.421 9.421 0 0 0 10.195-2.067 6.38 6.38 0 0 1 4.525-1.874 6.384 6.384 0 0 1 4.527 1.874l.028.027 1.728 1.641a3.916 3.916 0 0 0 2.72 1.097 4.03 4.03 0 0 0 2.746-1.086 3.922 3.922 0 0 0 1.242-2.89V62.209c.003-9.718-3.941-18.53-10.31-24.897z"/>
        <g fill="#732379">
            <path fill-rule="nonzero" d="M48.86 74.585c-5.771 0-10.45-4.68-10.45-10.451 0-5.773 4.679-10.452 10.45-10.452 5.773 0 10.452 4.68 10.452 10.452s-4.679 10.451-10.451 10.451zm0-3.484a6.968 6.968 0 1 0 0-13.935 6.968 6.968 0 0 0 0 13.935zM25.635 74.585c-5.772 0-10.451-4.68-10.451-10.451 0-5.773 4.68-10.452 10.451-10.452 5.773 0 10.452 4.68 10.452 10.452s-4.68 10.451-10.452 10.451zm0-3.484a6.968 6.968 0 1 0 0-13.935 6.968 6.968 0 0 0 0 13.935z"/>
            <path d="M34.345 62.392h6.387v3.484h-6.387z"/>
        </g>
        <path fill="#75C3B7" d="M37.192 83.667a8.924 8.924 0 0 1-4.555-1.247 1.302 1.302 0 0 1 1.329-2.238 6.333 6.333 0 0 0 6.384.04 1.3 1.3 0 1 1 1.3 2.254 8.932 8.932 0 0 1-4.458 1.19"/>
        <path fill="#75C3B7" fill-rule="nonzero" d="M22.021 30.244c4.219-1.731 8.981-2.769 14.19-2.769a36.504 36.504 0 0 1 17.291 4.347v-5.626a13.432 13.432 0 0 0-.33-.206c-.848-.513-1.894-1.032-3.142-1.521-3.628-1.42-8.14-2.278-13.587-2.278-5.457 0-10.014.826-13.71 2.193a22.153 22.153 0 0 0-3.221 1.467c-.114.065-.221.127-.32.187v5.52c.858-.45 1.803-.893 2.83-1.314zM16 34.369v-9.19c0-.494.23-.96.62-1.263.076-.058.198-.146.37-.26.266-.179.583-.374.949-.581a25.32 25.32 0 0 1 3.686-1.684C25.675 19.893 30.605 19 36.443 19c5.847 0 10.752.933 14.75 2.497 1.42.556 2.629 1.156 3.63 1.762.36.218.67.422.932.61.168.12.289.213.363.275.364.303.575.752.575 1.227v9.304c0 1.314-1.5 2.065-2.552 1.277a8.262 8.262 0 0 0-.28-.196c-.26-.175-.57-.373-.929-.587a29.93 29.93 0 0 0-3.625-1.828 33.336 33.336 0 0 0-13.096-2.675c-4.77 0-9.127.95-12.979 2.53a28.782 28.782 0 0 0-3.53 1.724c-.347.202-.646.388-.895.553a7.638 7.638 0 0 0-.267.182c-1.054.774-2.54.021-2.54-1.286z"/>
        <path fill="#75C3B7" fill-rule="nonzero" d="M12.612 22.712c.004-.489.232-.949.619-1.248.086-.066.234-.174.443-.317.333-.227.726-.477 1.178-.745a33.225 33.225 0 0 1 4.519-2.198c4.923-1.974 10.705-3.156 17.305-3.156 6.62 0 12.368 1.291 17.218 3.449 1.71.76 3.19 1.58 4.435 2.403.443.293.826.567 1.15.815.204.157.348.275.433.349.338.296.536.72.545 1.17l.012.615 7.388-3.442-31.861-17-30.71 16.606 7.322 3.074.004-.375zm3.166 2.78a1.596 1.596 0 0 1-2.213 1.457L.978 21.665c-1.236-.518-1.32-2.237-.141-2.875L35.232.192a1.596 1.596 0 0 1 1.51-.004l35.436 18.908c1.161.62 1.116 2.299-.077 2.854l-12.505 5.827a1.596 1.596 0 0 1-2.269-1.415l-.045-2.306c-.21-.153-.448-.319-.713-.494a27.457 27.457 0 0 0-3.972-2.15c-4.452-1.98-9.762-3.173-15.921-3.173-6.18 0-11.562 1.1-16.118 2.927a30.05 30.05 0 0 0-4.083 1.984c-.25.148-.477.288-.68.419l-.017 1.923z"/>
    </g>
</svg>
