<?xml version="1.0" encoding="UTF-8"?>
<svg width="590px" height="631px" viewBox="0 0 590 631" version="1.1" xmlns="http://www.w3.org/2000/svg" xmlns:xlink="http://www.w3.org/1999/xlink" style="background: #FFFFFF;">
    <!-- Generator: Sketch 47 (45396) - http://www.bohemiancoding.com/sketch -->
    <title>Page_6_1_768 Copy</title>
    <desc>Created with Sketch.</desc>
    <defs></defs>
    <g id="768" stroke="none" stroke-width="1" fill="none" fill-rule="evenodd">
        <g id="Page_6_1_768-Copy">
            <path d="M406.505966,62.5230273 L63.4987111,62.5230273" id="Path-19-Copy-3" stroke="#75C3B7" stroke-width="3" stroke-linecap="round" stroke-linejoin="round"></path>
            <path id="Path-19-Copy-3-decoration-1" d="M406.505966,62.5230273 L395.705966,65.5230273 L395.705966,59.5230273 L406.505966,62.5230273 Z" stroke="#75C3B7" stroke-width="3" stroke-linecap="round" stroke-linejoin="round"></path>
            <path id="Path-19-Copy-3-decoration-2" d="M63.4987111,62.5230273 L74.2987111,65.5230273 L74.2987111,59.5230273 L63.4987111,62.5230273 Z" stroke="#75C3B7" stroke-width="3" stroke-linecap="round" stroke-linejoin="round"></path>
            <circle id="Oval-4-Copy-13" stroke="#732379" stroke-width="3" fill="#FFFFFF" cx="425" cy="61" r="9"></circle>
            <circle id="Oval-4-Copy-14" stroke="#732379" stroke-width="3" fill="#FFFFFF" cx="45" cy="61" r="9"></circle>
            <path d="M43.3789063,81.4950153 L43.3789063,160.561625" id="Path-19-Copy-3" stroke="#75C3B7" stroke-width="3" stroke-linecap="round" stroke-linejoin="round"></path>
            <path id="Path-19-Copy-3-decoration-1" d="M43.3789063,81.4950153 L46.3789063,92.2950153 L40.3789063,92.2950153 L43.3789063,81.4950153 Z" stroke="#75C3B7" stroke-width="3" stroke-linecap="round" stroke-linejoin="round"></path>
            <path id="Path-19-Copy-3-decoration-2" d="M43.3789063,160.561625 L46.3789063,149.761625 L40.3789063,149.761625 L43.3789063,160.561625 Z" stroke="#75C3B7" stroke-width="3" stroke-linecap="round" stroke-linejoin="round"></path>
            <circle id="Oval-4-Copy-13" stroke="#732379" stroke-width="3" fill="#FFFFFF" cx="43" cy="259" r="9"></circle>
            <path d="M420,84 C354.286043,175.626677 235.95271,233.626677 65,258" id="Path-14-Copy" stroke="#75C3B7" stroke-width="3" stroke-linecap="round" stroke-linejoin="round" stroke-dasharray="7"></path>
            <circle id="Oval-4-Copy-13" stroke="#732379" stroke-width="3" fill="#FFFFFF" cx="271" cy="200" r="9"></circle>
            <path d="M70,258 C74.8512829,256.940275 82.5179496,255.606942 93,254" id="Path-15-Copy-2" stroke="#75C3B7" stroke-width="3" stroke-linecap="round" stroke-linejoin="round"></path>
            <path id="Path-15-Copy-2-decoration-1" d="M70,258 L79.9109684,252.764286 L81.1914274,258.626062 L70,258 Z" stroke="#75C3B7" stroke-width="3" stroke-linecap="round" stroke-linejoin="round"></path>
            <circle id="Oval-3-Copy-4" stroke="#732379" stroke-width="3" cx="451" cy="588" r="23"></circle>
            <circle id="Oval-3-Copy-5" stroke="#732379" stroke-width="3" cx="373" cy="432" r="23"></circle>
            <circle id="Oval-3-Copy-6" stroke="#732379" stroke-width="3" cx="262" cy="517" r="23"></circle>
            <circle id="Oval-3-Copy-7" stroke="#732379" stroke-width="3" cx="116" cy="467" r="23"></circle>
            <path d="M131,464 L355,433" id="Path-46-Copy" stroke="#75C3B7" stroke-linecap="round" stroke-linejoin="round"></path>
            <path id="Path-46-Copy-decoration-1" d="M142.109297,465.491145 L131,464 L141.286779,459.547791" stroke="#75C3B7" stroke-linecap="round" stroke-linejoin="round"></path>
            <path id="Path-46-Copy-decoration-2" d="M344.713221,437.452209 L355,433 L343.890703,431.508855" stroke="#75C3B7" stroke-linecap="round" stroke-linejoin="round"></path>
            <path d="M246,515 L134,474" id="Path-48-Copy" stroke="#75C3B7" stroke-linecap="round" stroke-linejoin="round"></path>
            <path id="Path-48-Copy-decoration-1" d="M236.889472,508.470201 L246,515 L234.8269,514.104542" stroke="#75C3B7" stroke-linecap="round" stroke-linejoin="round"></path>
            <path id="Path-48-Copy-decoration-2" d="M145.1731,474.895458 L134,474 L143.110528,480.529799" stroke="#75C3B7" stroke-linecap="round" stroke-linejoin="round"></path>
            <path d="M147,468.178882 C150.597776,468.178882 330.981262,443.115224 435,563" id="Path-50-Copy" stroke="#75C3B7" stroke-linecap="round" stroke-linejoin="round"></path>
            <path id="Path-50-Copy-decoration-1" d="M157.8,471.178882 L147,468.178882 L157.8,465.178882" stroke="#75C3B7" stroke-linecap="round" stroke-linejoin="round"></path>
            <path id="Path-50-Copy-decoration-2" d="M425.656185,556.808625 L435,563 L430.1881,552.876482" stroke="#75C3B7" stroke-linecap="round" stroke-linejoin="round"></path>
            <path d="" id="Path-40-Copy" stroke="#979797"></path>
            <path d="M391,442 L449,567" id="Path-47-Copy" stroke="#75C3B7" stroke-linecap="round" stroke-linejoin="round"></path>
            <path id="Path-47-Copy-decoration-1" d="M392.824375,453.05946 L391,442 L398.267023,450.534071" stroke="#75C3B7" stroke-linecap="round" stroke-linejoin="round"></path>
            <path id="Path-47-Copy-decoration-2" d="M441.732977,558.465929 L449,567 L447.175625,555.94054" stroke="#75C3B7" stroke-linecap="round" stroke-linejoin="round"></path>
            <path d="M433.5,587.5 L279.5,521.5" id="Line-2-Copy" stroke="#75C3B7" stroke-linecap="round" stroke-linejoin="round"></path>
            <path id="Line-2-Copy-decoration-1" d="M424.754992,580.488236 L433.5,587.5 L422.391476,586.003107" stroke="#75C3B7" stroke-linecap="round" stroke-linejoin="round"></path>
            <path id="Line-2-Copy-decoration-2" d="M290.608524,522.996893 L279.5,521.5 L288.245008,528.511764" stroke="#75C3B7" stroke-linecap="round" stroke-linejoin="round"></path>
            <path d="M268,500 L360,450" id="Path-49-Copy" stroke="#75C3B7" stroke-linecap="round" stroke-linejoin="round"></path>
            <path id="Path-49-Copy-decoration-1" d="M278.921685,497.47873 L268,500 L276.056605,492.206983" stroke="#75C3B7" stroke-linecap="round" stroke-linejoin="round"></path>
            <path id="Path-49-Copy-decoration-2" d="M351.943395,457.793017 L360,450 L349.078315,452.52127" stroke="#75C3B7" stroke-linecap="round" stroke-linejoin="round"></path>
            <path d="M362.021258,265 L68,265" id="Path-19-Copy-3" stroke="#75C3B7" stroke-width="3" stroke-linecap="round" stroke-linejoin="round"></path>
            <path id="Path-19-Copy-3-decoration-1" d="M362.021258,265 L351.221258,268 L351.221258,262 L362.021258,265 Z" stroke="#75C3B7" stroke-width="3" stroke-linecap="round" stroke-linejoin="round"></path>
            <circle id="Oval-4-Copy-13" stroke="#732379" stroke-width="3" fill="#FFFFFF" cx="380" cy="264" r="9"></circle>
            <path d="" id="Path-20" stroke="#979797"></path>
            <path d="M475.232429,585 C535.744143,523.987813 566,435.605673 566,319.85358 C566,204.101487 522.333333,119.483627 435,66" id="Path-22" stroke="#75C3B7" stroke-linecap="round" stroke-linejoin="round" stroke-dasharray="7"></path>
            <path d="M370,275 L125,441" id="Path-25" stroke="#75C3B7" stroke-width="3" stroke-linecap="round" stroke-linejoin="round"></path>
            <path id="Path-25-decoration-1" d="M125,441 L135.623744,437.425637 L132.258207,432.458429 L125,441 Z" stroke="#75C3B7" stroke-width="3" stroke-linecap="round" stroke-linejoin="round"></path>
            <path d="M380,277 L377,404" id="Path-29" stroke="#75C3B7" stroke-width="3" stroke-linecap="round" stroke-linejoin="round"></path>
            <path id="Path-29-decoration-1" d="M377,404 L380.25421,393.273858 L374.255884,393.132166 L377,404 Z" stroke="#75C3B7" stroke-width="3" stroke-linecap="round" stroke-linejoin="round"></path>
            <path d="M34.994488,273 C14.5850823,360.265992 33.2535863,423.265992 91,462" id="Path-58" stroke="#75C3B7" stroke-width="3" stroke-linecap="round" stroke-linejoin="round" stroke-dasharray="7"></path>
            <path d="M92,462 C82.1808168,454.894141 75.5141502,449.560807 72,446" id="Path-60" stroke="#75C3B7" stroke-width="3" stroke-linecap="round" stroke-linejoin="round"></path>
            <path id="Path-60-decoration-1" d="M92,462 L81.4919002,458.098739 L85.0094703,453.238008 L92,462 Z" stroke="#75C3B7" stroke-width="3" stroke-linecap="round" stroke-linejoin="round"></path>
            <circle id="Oval-4-Copy-13" stroke="#732379" stroke-width="3" fill="#FFFFFF" cx="34" cy="390" r="9"></circle>
            <path d="M396,429 C473.009561,393.324228 512.633083,332.086077 514.870567,245.285545 C517.108051,158.485014 490.336386,98.3898323 434.555573,65" id="Path-21" stroke="#75C3B7" stroke-linecap="round" stroke-linejoin="round" stroke-dasharray="7"></path>
            <path d="M127,446 C305.062611,416.064169 418.860397,364.167409 468.393358,290.30972 C542.692799,179.523186 461.655485,77.3021173 435.580085,66" id="Path-23" stroke="#75C3B7" stroke-linecap="round" stroke-linejoin="round" stroke-dasharray="7"></path>
            <path d="M435,66 C441.687553,70.2587435 446.020887,73.2587435 448,75" id="Path-24" stroke="#75C3B7" stroke-linecap="round"></path>
            <path id="Path-24-decoration-1" d="M442.498234,74.3316561 L435,66 L445.721117,69.2707253" stroke="#75C3B7" stroke-linecap="round"></path>
            <path d="M387,276 L460,561" id="Path-57" stroke="#75C3B7" stroke-width="3" stroke-linecap="round" stroke-linejoin="round"></path>
            <path id="Path-57-decoration-1" d="M460,561 L460.226376,549.793361 L454.414016,551.282141 L460,561 Z" stroke="#75C3B7" stroke-width="3" stroke-linecap="round" stroke-linejoin="round"></path>
            <path d="M35,273 C31.9956913,285.440591 30.3290247,293.107258 30,296" id="Path-59" stroke="#75C3B7" stroke-width="3" stroke-linecap="round" stroke-linejoin="round"></path>
            <path id="Path-59-decoration-1" d="M35,273 L35.3809313,284.20245 L29.5485886,282.793984 L35,273 Z" stroke="#75C3B7" stroke-width="3" stroke-linecap="round" stroke-linejoin="round"></path>
            <path d="M424,76 C419.115107,85.0461847 415.448441,90.7128514 413,93" id="Path-14" stroke="#75C3B7" stroke-width="3" stroke-linecap="round" stroke-linejoin="round"></path>
            <path id="Path-14-decoration-1" d="M424,76 L421.508152,86.9284351 L416.228708,84.077563 L424,76 Z" stroke="#75C3B7" stroke-width="3" stroke-linecap="round" stroke-linejoin="round"></path>
        </g>
    </g>
</svg>