<?xml version="1.0" encoding="UTF-8"?>
<svg width="580px" height="800px" viewBox="0 0 580 800" version="1.1" xmlns="http://www.w3.org/2000/svg" xmlns:xlink="http://www.w3.org/1999/xlink">
    <!-- Generator: Sketch 46.2 (44496) - http://www.bohemiancoding.com/sketch -->
    <title>Group 4</title>
    <desc>Created with Sketch.</desc>
    <defs></defs>
    <g id="Desktop" stroke="none" stroke-width="1" fill="none" fill-rule="evenodd" opacity="0.4">
        <g id="page_3-copy" transform="translate(-818.000000, -100.000000)" fill="#732379">
            <g id="Group-4" transform="translate(818.000000, 100.000000)">
                <path d="M393.396857,436.437224 C393.497668,436.332274 393.691727,436.128822 393.973921,435.830785 C394.442761,435.335623 394.989496,434.75372 395.609011,434.088993 C397.377384,432.191569 399.375443,430.00991 401.562281,427.575336 C402.115871,426.959033 402.065031,426.010647 401.448728,425.457057 C400.832424,424.903467 399.884039,424.954307 399.330449,425.57061 C397.156216,427.991151 395.170528,430.159302 393.414371,432.04362 C392.800301,432.702503 392.258967,433.278658 391.795489,433.768157 C391.518293,434.060916 391.329189,434.259173 391.233299,434.359 C390.659413,434.956451 390.678516,435.906006 391.275966,436.479892 C391.873416,437.053777 392.822972,437.034674 393.396857,436.437224 Z" id="Path"></path>
                <path d="M409.510167,418.537531 C412.099882,415.530662 414.691677,412.459882 417.267735,409.338808 C417.795075,408.699899 417.70463,407.754468 417.065721,407.227128 C416.426812,406.699789 415.481381,406.790234 414.954041,407.429142 C412.391669,410.533636 409.813372,413.588423 407.237035,416.579758 C406.696411,417.207466 406.767007,418.154586 407.394715,418.69521 C408.022423,419.235834 408.969543,419.165239 409.510167,418.537531 Z" id="Path"></path>
                <path d="M424.817034,399.980578 C427.332995,396.7864 429.778635,393.600819 432.142982,390.432182 C432.63841,389.768222 432.501787,388.828353 431.837828,388.332925 C431.173868,387.837497 430.233998,387.974119 429.73857,388.638079 C427.390249,391.785239 424.960485,394.950141 422.460321,398.124264 C421.947714,398.775052 422.059732,399.718171 422.71052,400.230778 C423.361308,400.743385 424.304427,400.631367 424.817034,399.980578 Z" id="Path"></path>
                <path d="M439.211001,380.65568 C438.736496,381.33475 437.801338,381.500582 437.122268,381.026077 C436.443198,380.551571 436.277366,379.616414 436.751871,378.937344 C439.101281,375.575076 441.323288,372.268626 443.407779,369.02589 C443.855738,368.329023 444.783804,368.127243 445.480671,368.575202 C446.177538,369.023161 446.379318,369.951227 445.931359,370.648094 C443.825378,373.924261 441.581919,377.262633 439.211001,380.65568 Z" id="Path"></path>
                <path d="M452.214489,360.339923 C454.327691,356.658195 456.224457,353.092119 457.892516,349.650496 C458.25383,348.905014 457.942401,348.007778 457.196919,347.646463 C456.451437,347.285149 455.554201,347.596579 455.192886,348.342061 C453.55649,351.718357 451.692301,355.223186 449.612613,358.846524 C449.200222,359.565012 449.448363,360.48177 450.166851,360.894161 C450.885339,361.306552 451.802098,361.058411 452.214489,360.339923 Z" id="Path"></path>
                <path d="M462.660809,338.447907 C464.176308,334.235816 465.249187,330.281361 465.855216,326.598159 C465.989715,325.780723 465.436086,325.009027 464.61865,324.874527 C463.801215,324.740027 463.029518,325.293656 462.895019,326.111092 C462.320535,329.60257 461.294859,333.383044 459.837964,337.432255 C459.5575,338.211762 459.962054,339.071039 460.741561,339.351503 C461.521068,339.631968 462.380344,339.227414 462.660809,338.447907 Z" id="Path"></path>
                <path d="M465.890252,314.108754 C464.993943,309.665731 462.989696,305.897108 459.834172,302.88363 C459.235056,302.311484 458.285561,302.333347 457.713414,302.932462 C457.141267,303.531578 457.16313,304.481074 457.762246,305.053221 C460.461799,307.631253 462.171684,310.846382 462.949495,314.702005 C463.113316,315.514073 463.904431,316.03958 464.716499,315.875758 C465.528566,315.711937 466.054074,314.920822 465.890252,314.108754 Z" id="Path"></path>
                <path d="M448.787395,296.730911 C444.32516,295.311531 440.156892,294.811108 436.330912,295.205023 C435.506841,295.289868 434.90758,296.02669 434.992425,296.850761 C435.077269,297.674832 435.814091,298.274093 436.638162,298.189248 C440.035957,297.839418 443.793508,298.290532 447.878029,299.589766 C448.66748,299.840881 449.511025,299.404473 449.76214,298.615022 C450.013254,297.82557 449.576846,296.982025 448.787395,296.730911 Z" id="Path"></path>
                <path d="M424.572171,300.132896 C421.498311,302.710259 419.023587,306.190787 417.21997,310.381485 C416.892471,311.142429 417.243847,312.024786 418.004791,312.352286 C418.765734,312.679785 419.648092,312.328409 419.975592,311.567465 C421.601816,307.788938 423.803482,304.692447 426.499695,302.431734 C427.134501,301.899463 427.217622,300.95336 426.685351,300.318553 C426.15308,299.683747 425.206977,299.600625 424.572171,300.132896 Z" id="Path"></path>
                <path d="M414.145865,322.396056 C413.695887,326.34219 413.687722,330.500762 414.121826,334.719466 C414.206623,335.543541 414.94341,336.142845 415.767486,336.058048 C416.591562,335.973251 417.190865,335.236464 417.106068,334.412388 C416.693752,330.405417 416.701491,326.463535 417.126548,322.735943 C417.220406,321.91285 416.629243,321.169515 415.80615,321.075657 C414.983057,320.9818 414.239722,321.572962 414.145865,322.396056 Z" id="Path"></path>
                <path d="M416.572904,346.829581 C417.776429,350.78014 419.353982,354.598265 421.279445,358.187027 C421.671106,358.917022 422.580388,359.191296 423.310383,358.799635 C424.040379,358.407973 424.314653,357.498691 423.922991,356.768696 C422.091711,353.355475 420.589483,349.719658 419.442687,345.955311 C419.201264,345.162842 418.363129,344.716131 417.57066,344.957554 C416.778192,345.198977 416.331481,346.037112 416.572904,346.829581 Z" id="Path"></path>
                <path d="M428.22789,368.354199 C427.687211,367.726539 427.757723,366.779412 428.385384,366.238733 C429.013044,365.698054 429.96017,365.768566 430.50085,366.396226 C433.071386,369.380295 435.946501,372.006271 439.100601,374.22449 C439.778229,374.701053 439.941224,375.63671 439.464661,376.314337 C438.988098,376.991965 438.052442,377.15496 437.374814,376.678397 C434.01535,374.315749 430.957263,371.522657 428.22789,368.354199 Z" id="Path"></path>
                <path d="M448.2417,382.388485 C452.027265,383.790541 456.04603,384.738232 460.281073,385.208365 C461.104442,385.299768 461.846011,384.706391 461.937414,383.883022 C462.028816,383.059653 461.43544,382.318083 460.612071,382.226681 C456.618948,381.783403 452.838975,380.892024 449.283639,379.575238 C448.506782,379.287514 447.643769,379.684035 447.356046,380.460891 C447.068322,381.237748 447.464843,382.100761 448.2417,382.388485 Z" id="Path"></path>
                <path d="M472.646553,385.262009 C476.531778,384.893827 480.54908,384.174699 484.692967,383.096678 C485.494709,382.888107 485.975568,382.069086 485.766997,381.267345 C485.558426,380.465603 484.739406,379.984743 483.937664,380.193314 C479.946256,381.231669 476.086639,381.92257 472.363527,382.27539 C471.538794,382.353545 470.933575,383.08548 471.01173,383.910213 C471.089886,384.734945 471.821821,385.340165 472.646553,385.262009 Z" id="Path"></path>
                <path d="M496.303829,379.106535 C499.940837,377.551755 503.574742,375.714291 507.184699,373.608739 C507.900299,373.191357 508.142052,372.272893 507.72467,371.557293 C507.307287,370.841693 506.388823,370.59994 505.673223,371.017322 C502.168654,373.061406 498.645456,374.842891 495.124594,376.34802 C494.362852,376.673657 494.009317,377.555152 494.334954,378.316895 C494.660591,379.078638 495.542086,379.432172 496.303829,379.106535 Z" id="Path"></path>
                <path d="M517.360915,366.915702 C520.559122,364.569796 523.710715,362.024477 526.797919,359.29586 C527.418645,358.747234 527.477093,357.799286 526.928466,357.178561 C526.379839,356.557835 525.431892,356.499387 524.811166,357.048014 C521.791368,359.717054 518.710549,362.205214 515.586551,364.496687 C514.918559,364.986663 514.774248,365.925383 515.264225,366.593376 C515.754202,367.261368 516.692922,367.405679 517.360915,366.915702 Z" id="Path"></path>
                <path d="M535.535425,350.902981 C538.303636,348.021078 540.991346,344.999664 543.583769,341.855634 C544.110797,341.216467 544.01989,340.271081 543.380724,339.744053 C542.741557,339.217026 541.796171,339.307933 541.269143,339.947099 C538.724664,343.032983 536.087316,345.997783 533.371857,348.824767 C532.797974,349.42222 532.817082,350.371775 533.414534,350.945658 C534.011987,351.519541 534.961543,351.500434 535.535425,350.902981 Z" id="Path"></path>
                <path d="M550.960195,332.213967 C553.291819,328.927016 555.512656,325.547979 557.610796,322.093822 C558.040878,321.385781 557.815547,320.463151 557.107507,320.033069 C556.399466,319.602988 555.476836,319.828319 555.046754,320.536359 C552.985553,323.929704 550.803793,327.249285 548.513304,330.478246 C548.033998,331.153936 548.193199,332.090245 548.868889,332.569552 C549.544579,333.048858 550.480889,332.889657 550.960195,332.213967 Z" id="Path"></path>
                <path d="M563.505447,311.561581 C565.360455,307.948989 567.074772,304.285744 568.639175,300.588274 C568.961979,299.825326 568.605172,298.94515 567.842224,298.622347 C567.079276,298.299543 566.199101,298.65635 565.876297,299.419297 C564.340928,303.048145 562.658037,306.644238 560.836714,310.19123 C560.458302,310.92818 560.748955,311.83236 561.485905,312.210772 C562.222855,312.589184 563.127035,312.298532 563.505447,311.561581 Z" id="Path"></path>
                <path d="M572.935636,289.223632 C574.228893,285.344392 575.34925,281.454318 576.289865,277.568887 C576.484787,276.763718 575.990084,275.952985 575.184915,275.758063 C574.379746,275.563141 573.569012,276.057845 573.374091,276.863014 C572.453489,280.665772 571.356462,284.474843 570.089625,288.274832 C569.827622,289.060736 570.252327,289.910233 571.038231,290.172237 C571.824135,290.434241 572.673632,290.009536 572.935636,289.223632 Z" id="Path"></path>
                <path d="M578.613572,265.617438 C579.207813,261.550535 579.593812,257.513876 579.766739,253.521703 C579.80259,252.694052 579.160709,251.994045 578.333058,251.958194 C577.505407,251.922343 576.8054,252.564224 576.769549,253.391875 C576.60108,257.281152 576.224774,261.216436 575.645093,265.183695 C575.525318,266.003418 576.092738,266.765031 576.912461,266.884806 C577.732184,267.004581 578.493797,266.437161 578.613572,265.617438 Z" id="Path"></path>
                <path d="M579.620055,241.377222 C579.334984,237.271345 578.807155,233.238421 578.033414,229.29112 C577.87406,228.478164 577.085847,227.948314 576.272891,228.107668 C575.459935,228.267022 574.930085,229.055235 575.089439,229.868191 C575.839017,233.692223 576.350709,237.601848 576.627259,241.585011 C576.684639,242.411449 577.401114,243.034894 578.227552,242.977514 C579.053989,242.920135 579.677434,242.20366 579.620055,241.377222 Z" id="Path"></path>
                <path d="M574.917512,217.559934 C573.605511,213.692507 572.032239,209.93546 570.196075,206.299083 C569.822669,205.559584 568.920482,205.262806 568.180982,205.636211 C567.441482,206.009617 567.144704,206.911805 567.51811,207.651304 C569.290556,211.161493 570.809463,214.788715 572.07654,218.523716 C572.342681,219.308229 573.194404,219.728452 573.978917,219.462311 C574.76343,219.19617 575.183653,218.344447 574.917512,217.559934 Z" id="Path"></path>
                <path d="M563.906132,195.775186 C561.603359,192.476435 559.052521,189.306572 556.253082,186.272613 C555.691299,185.663768 554.742319,185.625616 554.133474,186.187398 C553.524629,186.749181 553.486477,187.698161 554.048259,188.307006 C556.755777,191.241343 559.221357,194.305259 561.446213,197.492392 C561.920406,198.17168 562.855488,198.337942 563.534776,197.863749 C564.214064,197.389556 564.380326,196.454474 563.906132,195.775186 Z" id="Path"></path>
                <path d="M547.399725,177.829935 C544.363173,175.273511 541.116217,172.841584 537.658637,170.538271 C536.969184,170.078982 536.037945,170.265567 535.578656,170.95502 C535.119368,171.644474 535.305953,172.575713 535.995406,173.035001 C539.360362,175.276612 542.517514,177.641277 545.467615,180.124919 C546.101357,180.658456 547.047624,180.577224 547.581162,179.943481 C548.114699,179.309739 548.033467,178.363472 547.399725,177.829935 Z" id="Path"></path>
                <path d="M527.216759,164.316431 C523.738755,162.464334 520.091435,160.720997 516.274595,159.08879 C515.512892,158.763061 514.631353,159.116488 514.305624,159.878191 C513.979894,160.639894 514.333321,161.521433 515.095024,161.847162 C518.834247,163.446177 522.404659,165.152753 525.806678,166.964387 C526.537891,167.35377 527.446313,167.076662 527.835696,166.345449 C528.22508,165.614237 527.947972,164.705814 527.216759,164.316431 Z" id="Path"></path>
                <path d="M504.977802,154.753811 C501.259165,153.478077 497.404878,152.294416 493.414747,151.204274 C492.615608,150.985942 491.790785,151.456778 491.572453,152.255917 C491.35412,153.055056 491.824957,153.879879 492.624095,154.098211 C496.553292,155.171705 500.34661,156.336642 504.004301,157.591468 C504.787898,157.860293 505.641055,157.442988 505.909879,156.65939 C506.178704,155.875793 505.761399,155.022636 504.977802,154.753811 Z" id="Path"></path>
                <path d="M481.675056,148.343932 C477.709373,147.475297 473.77023,146.691505 469.856841,145.991499 C469.041357,145.84563 468.262026,146.388459 468.116157,147.203943 C467.970288,148.019427 468.513118,148.798757 469.328601,148.944627 C473.203871,149.637814 477.105124,150.414066 481.033159,151.274456 C481.842401,151.45171 482.642115,150.939384 482.819369,150.130142 C482.996624,149.3209 482.484297,148.521187 481.675056,148.343932 Z" id="Path"></path>
                <path d="M457.915571,144.103613 C453.890994,143.55175 449.894248,143.089854 445.924273,142.716679 C445.099482,142.639149 444.368006,143.244924 444.290476,144.069715 C444.212946,144.894507 444.818721,145.625982 445.643512,145.703512 C449.571065,146.0727 453.525536,146.52971 457.508015,147.0758 C458.328761,147.188344 459.085343,146.614231 459.197886,145.793485 C459.31043,144.972738 458.736317,144.216156 457.915571,144.103613 Z" id="Path"></path>
                <path d="M433.891289,141.852014 C429.845833,141.651705 425.828696,141.54478 421.83843,141.529819 C421.010009,141.526713 420.335922,142.195763 420.332816,143.024184 C420.32971,143.852606 420.99876,144.526692 421.827182,144.529798 C425.771722,144.544588 429.743143,144.650295 433.742927,144.848343 C434.57034,144.889312 435.274303,144.251773 435.315272,143.424359 C435.356241,142.596946 434.718702,141.892983 433.891289,141.852014 Z" id="Path"></path>
                <path d="M409.765389,141.767243 C405.722834,141.942181 401.708179,142.212551 397.719394,142.576793 C396.894399,142.652129 396.286681,143.38199 396.362016,144.206985 C396.437352,145.03198 397.167214,145.639698 397.992209,145.564363 C401.933461,145.204461 405.900398,144.937304 409.89509,144.764437 C410.722743,144.728622 411.364653,144.028642 411.328837,143.200989 C411.293021,142.373337 410.593042,141.731427 409.765389,141.767243 Z" id="Path"></path>
                <path d="M385.7015,143.967452 C381.70667,144.527833 377.737684,145.183041 373.791623,145.93152 C372.977708,146.085901 372.44305,146.87086 372.597431,147.684776 C372.751813,148.498691 373.536772,149.033349 374.350687,148.878967 C378.249697,148.139413 382.171236,147.492037 386.118249,146.938364 C386.938644,146.823282 387.510413,146.064928 387.39533,145.244534 C387.280248,144.424139 386.521895,143.85237 385.7015,143.967452 Z" id="Path"></path>
                <path d="M362.014158,148.456537 C358.104238,149.3918 354.215935,150.4188 350.344886,151.536275 C349.548959,151.766039 349.089993,152.597526 349.319757,153.393453 C349.549521,154.18938 350.381009,154.648346 351.176936,154.418582 C355.003852,153.313847 358.847445,152.298656 362.712077,151.374225 C363.517775,151.1815 364.014687,150.372119 363.821962,149.566421 C363.629237,148.760724 362.819856,148.263811 362.014158,148.456537 Z" id="Path"></path>
                <path d="M338.823564,155.14399 C335.031819,156.423954 331.254299,157.79038 327.484047,159.242973 C326.711009,159.540807 326.325781,160.408919 326.623615,161.181957 C326.921449,161.954994 327.789561,162.340222 328.562598,162.042388 C332.293868,160.604814 336.031718,159.252738 339.783068,157.986411 C340.567981,157.721451 340.989486,156.870361 340.724526,156.085449 C340.459567,155.300536 339.608477,154.879031 338.823564,155.14399 Z" id="Path"></path>
                <path d="M316.294662,163.813137 C312.636996,165.390972 308.981118,167.049376 305.31448,168.790775 C304.56616,169.146175 304.247636,170.040917 304.603036,170.789237 C304.958436,171.537556 305.853178,171.856081 306.601497,171.500681 C310.235969,169.774558 313.858969,168.131068 317.482947,166.567765 C318.243616,166.239629 318.594254,165.356978 318.266118,164.596308 C317.937983,163.835639 317.055331,163.485001 316.294662,163.813137 Z" id="Path"></path>
                <path d="M294.50554,174.14493 C290.994574,175.953941 287.462873,177.839718 283.882111,179.813581 C283.156611,180.213506 282.89268,181.125845 283.292606,181.851345 C283.692531,182.576846 284.604869,182.840776 285.33037,182.440851 C288.887138,180.480215 292.39417,178.607609 295.879609,176.811751 C296.616031,176.432312 296.905424,175.527728 296.525985,174.791306 C296.146546,174.054884 295.241962,173.765491 294.50554,174.14493 Z" id="Path"></path>
                <path d="M273.433329,185.737539 C270.09089,187.681869 266.680973,189.709277 263.094693,191.87997 C262.385977,192.308939 262.159198,193.231214 262.588167,193.939929 C263.017136,194.648644 263.939411,194.875423 264.648127,194.446454 C268.220136,192.284399 271.615211,190.265816 274.9418,188.330705 C275.657883,187.914152 275.900701,186.995969 275.484148,186.279886 C275.067595,185.563803 274.149412,185.320986 273.433329,185.737539 Z" id="Path"></path>
                <path d="M252.849237,198.165086 C251.285019,199.134882 249.674207,200.136859 247.698311,201.368427 C246.768052,201.948253 243.391153,204.054602 242.658422,204.511368 C241.955404,204.949612 241.740762,205.874787 242.179006,206.577805 C242.61725,207.280823 243.542425,207.495464 244.245443,207.05722 C244.978661,206.60015 248.355463,204.493862 249.285186,203.91437 C251.259223,202.683961 252.86813,201.683169 254.430033,200.714808 C255.134119,200.278283 255.351021,199.353635 254.914496,198.649549 C254.477971,197.945463 253.553323,197.728561 252.849237,198.165086 Z" id="Path"></path>
                <path d="M232.454258,210.829213 C228.659597,213.152129 225.323289,215.152328 222.188146,216.976616 C221.472117,217.393261 221.229419,218.311476 221.646064,219.027505 C222.06271,219.743534 222.980924,219.986233 223.696954,219.569587 C226.853288,217.732968 230.208152,215.721644 234.02055,213.387871 C234.727104,212.955351 234.949252,212.03195 234.516733,211.325396 C234.084213,210.618842 233.160812,210.396693 232.454258,210.829213 Z" id="Path"></path>
                <path d="M211.762207,222.778033 C207.975452,224.771106 204.433683,226.490597 201.061567,227.962565 C200.302322,228.293985 199.955501,229.178143 200.28692,229.937388 C200.61834,230.696632 201.502498,231.043453 202.261743,230.712034 C205.704647,229.209165 209.311257,227.458195 213.159471,225.432775 C213.892557,225.046932 214.174054,224.139859 213.78821,223.406773 C213.402367,222.673686 212.495294,222.39219 211.762207,222.778033 Z" id="Path"></path>
                <path d="M189.971738,232.090342 C187.055676,232.964261 184.249087,233.618667 181.531516,234.052376 C180.468424,234.221895 179.440534,234.384107 178.4321,234.541402 C177.61357,234.669075 177.053521,235.436125 177.181195,236.254655 C177.308868,237.073184 178.075918,237.633234 178.894448,237.50556 C179.906329,237.347727 180.937562,237.184988 182.004119,237.014916 C184.857766,236.55949 187.793431,235.874988 190.832968,234.964065 C191.626525,234.726243 192.077037,233.890145 191.839214,233.096589 C191.601392,232.303032 190.765295,231.85252 189.971738,232.090342 Z" id="Path"></path>
                <path d="M166.585826,236.283445 C162.465985,236.846035 158.533973,237.331269 154.713266,237.743495 C153.889619,237.83236 153.293961,238.572098 153.382826,239.395745 C153.471691,240.219392 154.211429,240.81505 155.035076,240.726185 C158.885134,240.310792 162.844976,239.822124 166.991728,239.255858 C167.812538,239.143772 168.387071,238.38751 168.274984,237.566701 C168.162898,236.745891 167.406636,236.171358 166.585826,236.283445 Z" id="Path"></path>
                <path d="M142.82305,238.810796 C138.744943,239.096666 134.781426,239.285512 130.90999,239.373327 C130.081775,239.392114 129.425605,240.078743 129.444391,240.906957 C129.463177,241.735171 130.149806,242.391342 130.978021,242.372556 C134.898096,242.283638 138.908735,242.092546 143.032832,241.803452 C143.859231,241.745523 144.482199,241.028633 144.424269,240.202233 C144.36634,239.375834 143.64945,238.752866 142.82305,238.810796 Z" id="Path"></path>
                <path d="M118.985784,239.30902 C114.929043,239.165626 110.975356,238.893822 107.115594,238.487536 C106.291719,238.400813 105.553533,238.998393 105.46681,239.822268 C105.380088,240.646144 105.977668,241.38433 106.801543,241.471052 C110.73199,241.884779 114.754962,242.161346 118.879809,242.307148 C119.707719,242.336412 120.402596,241.688981 120.43186,240.861071 C120.461124,240.033161 119.813694,239.338284 118.985784,239.30902 Z" id="Path"></path>
                <path d="M95.3529411,236.772747 C91.4010749,236.026033 87.5563671,235.116491 83.8150342,234.037236 C83.0190632,233.807624 82.1876639,234.266749 81.9580518,235.06272 C81.7284397,235.858691 82.1875643,236.69009 82.9835352,236.919702 C86.8167768,238.025469 90.7530252,238.956667 94.7959404,239.720585 C95.6099634,239.874397 96.3945483,239.339189 96.5483599,238.525166 C96.7021714,237.711143 96.1669642,236.926558 95.3529411,236.772747 Z" id="Path"></path>
                <path d="M72.6264488,230.17297 C68.9492221,228.678947 65.3845778,226.994221 61.9313487,225.111807 C61.203973,224.715302 60.2928878,224.983526 59.896383,225.710901 C59.4998781,226.438277 59.7681019,227.349362 60.4954776,227.745867 C64.0489893,229.682947 67.7160282,231.416067 71.4972207,232.95233 C72.2647198,233.264158 73.1396872,232.894763 73.4515149,232.127264 C73.7633426,231.359765 73.3939479,230.484798 72.6264488,230.17297 Z" id="Path"></path>
                <path d="M51.8787056,218.845406 C48.686869,216.586487 45.6050149,214.128657 42.6333755,211.465764 C42.0164162,210.912905 41.0680913,210.964869 40.5152326,211.581828 C39.9623739,212.198787 40.0143378,213.147112 40.6312971,213.699971 C43.6884691,216.43951 46.8601511,218.968979 50.1456578,221.29419 C50.8218709,221.772758 51.7580059,221.612535 52.2365739,220.936322 C52.7151418,220.260109 52.5549187,219.323974 51.8787056,218.845406 Z" id="Path"></path>
                <path d="M34.268444,203.099767 C31.6798433,200.218484 29.1899744,197.152041 26.7996557,193.895848 C26.3094282,193.228039 25.3706543,193.084081 24.7028456,193.574309 C24.0350369,194.064536 23.8910789,195.00331 24.3813064,195.671119 C26.8297009,199.006426 29.3818295,202.149545 32.0368087,205.104711 C32.5904589,205.72096 33.5388497,205.771707 34.1550988,205.218057 C34.7713479,204.664406 34.8220943,203.716016 34.268444,203.099767 Z" id="Path"></path>
                <path d="M20.2141202,184.026255 C18.2093664,180.722727 16.2888043,177.258803 14.4532804,173.631371 C14.0792456,172.89219 13.1768054,172.59618 12.4376238,172.970215 C11.6984422,173.344249 11.4024322,174.24669 11.776467,174.985871 C13.6464518,178.681406 15.6043563,182.212681 17.6494272,185.582645 C18.0792125,186.290866 19.0017483,186.516582 19.7099687,186.086797 C20.4181891,185.657012 20.6439054,184.734476 20.2141202,184.026255 Z" id="Path"></path>
                <path d="M9.48863475,162.847652 C8.02583376,159.190298 6.83180098,155.446327 5.90551841,151.627099 C5.71025949,150.822012 4.89931871,150.327648 4.09423147,150.522907 C3.28914424,150.718166 2.79478071,151.529107 2.99003963,152.334194 C3.9498191,156.291536 5.18723193,160.171528 6.70316778,163.961731 C7.01081242,164.730917 7.8837557,165.10507 8.65294116,164.797425 C9.42212663,164.48978 9.79627939,163.616837 9.48863475,162.847652 Z" id="Path"></path>
                <path d="M3.93283419,139.990193 C3.54721486,136.105421 3.42000286,132.167594 3.54822496,128.191204 C3.57492443,127.363207 2.92534463,126.670339 2.09734786,126.64364 C1.2693511,126.61694 0.576482906,127.26652 0.549783439,128.094517 C0.41736581,132.201017 0.548818194,136.270105 0.947505968,140.286529 C1.02933708,141.110905 1.76396279,141.712856 2.58833841,141.631025 C3.41271404,141.549194 4.0146653,140.814568 3.93283419,139.990193 Z" id="Path"></path>
                <path d="M4.65345987,116.437043 C5.24935173,112.587273 6.07378729,108.725034 7.12116508,104.866189 C7.33816768,104.066688 6.86595966,103.24265 6.06645896,103.025647 C5.26695826,102.808645 4.44291952,103.280853 4.22591692,104.080353 C3.14959061,108.045853 2.30186833,112.017183 1.68876495,115.978148 C1.56204478,116.796826 2.12298734,117.563223 2.94166524,117.689943 C3.76034313,117.816663 4.5267397,117.255721 4.65345987,116.437043 Z" id="Path"></path>
                <path d="M10.8304735,93.5647989 C12.2366116,89.9156428 13.8361452,86.2930478 15.6209796,82.7126415 C15.9905739,81.9712296 15.6891561,81.0705812 14.9477442,80.7009869 C14.2063323,80.3313927 13.3056838,80.6328105 12.9360896,81.3742224 C11.1093184,85.0387545 9.47153333,88.7479808 8.03110971,92.4861133 C7.73323891,93.2591362 8.11842583,94.1272671 8.89144878,94.425138 C9.66447173,94.7230088 10.5326026,94.3378218 10.8304735,93.5647989 Z" id="Path"></path>
                <path d="M21.3654589,72.3702453 C23.420995,69.0225736 25.6355463,65.7361617 27.999176,62.5252727 C28.49029,61.8581156 28.3475788,60.9191514 27.6804217,60.4280375 C27.0132646,59.9369235 26.0743004,60.0796347 25.5831865,60.7467918 C23.1700142,64.0249821 20.9085535,67.3810078 18.8089275,70.8004849 C18.3754502,71.5064516 18.5963464,72.4301534 19.302313,72.8636308 C20.0082797,73.2971081 20.9319815,73.0762119 21.3654589,72.3702453 Z" id="Path"></path>
                <path d="M35.4477681,53.2249627 C38.0380961,50.2451955 40.7558133,47.3578057 43.5898807,44.5750861 C44.1809976,43.9946791 44.1896797,43.0449713 43.6092727,42.4538544 C43.0288657,41.8627375 42.0791579,41.8540554 41.488041,42.4344624 C38.5976853,45.2724504 35.8258329,48.2173553 33.1836604,51.2567614 C32.6401567,51.8819775 32.7063976,52.8294121 33.3316136,53.3729159 C33.9568297,53.9164196 34.9042644,53.8501787 35.4477681,53.2249627 Z" id="Path"></path>
                <path d="M52.4277853,36.5551341 C55.4656432,34.0088835 58.6015254,31.5832557 61.8240592,29.2882691 C62.4988532,28.8077022 62.6563053,27.8710971 62.1757384,27.1963031 C61.6951714,26.5215091 60.7585664,26.364057 60.0837724,26.8446239 C56.7969606,29.1853874 53.5987636,31.659216 50.5006729,34.2559521 C49.8657713,34.7881095 49.7824807,35.7341977 50.3146381,36.3690993 C50.8467955,37.0040008 51.7928837,37.0872915 52.4277853,36.5551341 Z" id="Path"></path>
                <path d="M71.7486465,22.8001695 C75.1607297,20.7602055 78.6433226,18.8666662 82.1853891,17.1272843 C82.9289957,16.7621258 83.2357885,15.8632941 82.8706299,15.1196875 C82.5054714,14.3760809 81.6066397,14.0692882 80.8630331,14.4344467 C77.2467035,16.2102965 73.6917057,18.1432035 70.2092041,20.2252681 C69.4981647,20.6503734 69.2663693,21.5714007 69.6914746,22.28244 C70.1165799,22.9934794 71.0376072,23.2252748 71.7486465,22.8001695 Z" id="Path"></path>
                <path d="M92.993594,12.3735906 C96.6984389,10.9292755 100.447534,9.65381733 104.230783,8.55282782 C105.026212,8.32134459 105.48338,7.48886789 105.251897,6.69343906 C105.020414,5.89801024 104.187937,5.44084201 103.392508,5.67232524 C99.5237948,6.79818618 95.6908455,8.10217206 91.9039343,9.57848029 C91.1320859,9.8793815 90.7503078,10.7490169 91.051209,11.5208653 C91.3521102,12.2927137 92.2217456,12.6744918 92.993594,12.3735906 Z" id="Path"></path>
                <path d="M115.770991,5.75982292 C119.665194,5.00626464 123.578971,4.43863271 127.503655,4.06074261 C128.328269,3.9813443 128.932385,3.24849794 128.852986,2.42388445 C128.773588,1.59927096 128.040742,0.995154691 127.216128,1.074553 C123.196243,1.46160957 119.188233,2.04290846 115.201041,2.81446103 C114.387702,2.97184846 113.855948,3.7587779 114.013335,4.57211713 C114.170723,5.38545636 114.957652,5.91721035 115.770991,5.75982292 Z" id="Path"></path>
                <path d="M139.389248,3.50026396 C143.339086,3.50854119 147.286844,3.71149259 151.225564,4.1115833 C152.04975,4.19530317 152.785753,3.5950368 152.869473,2.77085085 C152.953193,1.9466649 152.352927,1.21066181 151.528741,1.12694195 C147.491071,0.716800118 143.44423,0.508754944 139.395535,0.500270544 C138.56711,0.498534505 137.894131,1.16869857 137.892395,1.99712387 C137.890659,2.82554918 138.560823,3.49852792 139.389248,3.50026396 Z" id="Path"></path>
                <path d="M162.982265,5.90060725 C166.831525,6.68347806 170.661933,7.65870515 174.468268,8.82784607 C175.26018,9.0710872 176.099338,8.62630125 176.342579,7.83438884 C176.58582,7.04247644 176.141034,6.2033187 175.349122,5.96007757 C171.449674,4.76233646 167.524838,3.76306777 163.58017,2.96079286 C162.768363,2.79568574 161.976417,3.31993984 161.81131,4.13174716 C161.646203,4.94355449 162.170457,5.73550013 162.982265,5.90060725 Z" id="Path"></path>
                <path d="M185.661395,12.8570973 C188.365009,13.9759447 191.052112,15.1956379 193.721119,16.5165995 C194.658047,16.9805934 195.559512,17.4370935 196.45489,17.9008507 C197.190502,18.2818578 198.095701,17.9943938 198.476708,17.2587818 C198.857715,16.5231697 198.570251,15.617971 197.834639,15.2369639 C196.92311,14.7648415 196.005519,14.3001755 195.052162,13.8280452 C192.322697,12.4771616 189.574376,11.229681 186.808547,10.0850868 C186.043077,9.7683095 185.165743,10.1320464 184.848965,10.897516 C184.532188,11.6629855 184.895925,12.5403199 185.661395,12.8570973 Z" id="Path"></path>
                <path d="M206.785259,23.7534946 C210.229232,25.8870644 213.499062,28.111997 216.594728,30.4246339 C217.258406,30.920439 218.198353,30.784351 218.694158,30.1206727 C219.189963,29.4569945 219.053875,28.5170475 218.390197,28.0212424 C215.224315,25.6561503 211.88255,23.3822696 208.365173,21.2032252 C207.660935,20.7669442 206.736362,20.9841658 206.300081,21.6884033 C205.8638,22.3926407 206.081022,23.3172136 206.785259,23.7534946 Z" id="Path"></path>
                <path d="M225.755554,37.9824397 C228.733426,40.7011172 231.499641,43.5159541 234.054213,46.4207678 C234.601294,47.042856 235.549093,47.1036612 236.171181,46.5565801 C236.793269,46.0094989 236.854075,45.0616999 236.306994,44.4396117 C233.679676,41.4520783 230.836617,38.5590473 227.778261,35.7668909 C227.166454,35.2083358 226.217688,35.2515049 225.659133,35.8633118 C225.100578,36.4751187 225.143747,37.4238845 225.755554,37.9824397 Z" id="Path"></path>
                <path d="M241.325135,55.7511647 C243.583535,59.0458693 245.595449,62.4294342 247.361182,65.8914376 C247.737577,66.6294202 248.640959,66.9225448 249.378941,66.5461498 C250.116924,66.1697548 250.410049,65.2663733 250.033654,64.5283907 C248.209088,60.951039 246.13102,57.4562157 243.799611,54.0550014 C243.331228,53.3716938 242.397599,53.1974626 241.714291,53.6658452 C241.030983,54.1342278 240.856752,55.0678571 241.325135,55.7511647 Z" id="Path"></path>
                <path d="M251.991639,76.7077373 C253.298053,80.4411726 254.336899,84.2363311 255.109795,88.0763743 C255.273257,88.8885145 256.064139,89.4143723 256.876279,89.2509105 C257.688419,89.0874487 258.214277,88.296567 258.050815,87.4844268 C257.250765,83.5094741 256.175432,79.5810185 254.823282,75.7168804 C254.549664,74.9349437 253.693968,74.5228697 252.912032,74.7964873 C252.130095,75.0701049 251.718021,75.9258007 251.991639,76.7077373 Z" id="Path"></path>
                <path d="M256.637232,99.8099795 C256.875453,103.738584 256.845003,107.678925 256.551339,111.606166 C256.489565,112.432286 257.10919,113.152067 257.935311,113.213841 C258.761431,113.275616 259.481212,112.65599 259.542987,111.829869 C259.846685,107.768437 259.878182,103.692708 259.631732,99.6284004 C259.581591,98.8014921 258.870601,98.1717984 258.043693,98.2219401 C257.216785,98.2720817 256.587091,98.9830712 256.637232,99.8099795 Z" id="Path"></path>
                <path d="M254.885324,123.323122 C254.073321,127.18158 253.008909,130.980927 251.705024,134.688721 C251.430197,135.470234 251.840947,136.326566 252.622459,136.601393 C253.403971,136.87622 254.260304,136.465471 254.535131,135.683958 C255.88228,131.853136 256.982009,127.927727 257.82102,123.940932 C257.991624,123.130262 257.472747,122.334783 256.662077,122.164179 C255.851407,121.993576 255.055928,122.512452 254.885324,123.323122 Z" id="Path"></path>
                <path d="M247.06919,145.540108 C245.270945,149.082255 243.250143,152.472715 241.030597,155.674564 C240.558634,156.355403 240.727962,157.289934 241.408801,157.761897 C242.089641,158.23386 243.024172,158.064533 243.496135,157.383693 C245.79368,154.069324 247.884415,150.561532 249.744214,146.89814 C250.119224,146.159453 249.824405,145.256623 249.085718,144.881613 C248.347031,144.506603 247.444201,144.801421 247.06919,145.540108 Z" id="Path"></path>
                <path d="M233.683941,164.800824 C230.951626,167.724501 228.044825,170.377479 224.998974,172.72515 C224.342833,173.230887 224.220907,174.172776 224.726645,174.828917 C225.232383,175.485058 226.174272,175.606983 226.830412,175.101245 C230.006571,172.653137 233.03364,169.890393 235.875779,166.849201 C236.441422,166.243941 236.409307,165.294737 235.804048,164.729093 C235.198788,164.16345 234.249584,164.195565 233.683941,164.800824 Z" id="Path"></path>
                <path d="M215.074901,179.025826 C211.522414,180.830921 207.873049,182.229906 204.167233,183.199754 C203.365797,183.409497 202.886136,184.22922 203.095879,185.030656 C203.305623,185.832091 204.125345,186.311753 204.926781,186.102009 C208.842997,185.077098 212.692933,183.601224 216.433891,181.700363 C217.172444,181.325088 217.466939,180.422152 217.091665,179.683599 C216.71639,178.945046 215.813454,178.650551 215.074901,179.025826 Z" id="Path"></path>
                <path d="M201.512748,756.968263 L193.258848,765.678781 C192.689035,766.280117 192.714589,767.229521 193.315925,767.799334 C193.917261,768.369147 194.866665,768.343592 195.436478,767.742256 L203.690377,759.031737 C204.26019,758.430402 204.234636,757.480998 203.6333,756.911185 C203.031964,756.341372 202.082561,756.366927 201.512748,756.968263 Z" id="Path"></path>
                <path d="M185.004948,774.3893 L176.751048,783.099819 C176.181236,783.701155 176.20679,784.650559 176.808126,785.220372 C177.409462,785.790184 178.358865,785.76463 178.928678,785.163294 L187.182578,776.452775 C187.752391,775.851439 187.726836,774.902036 187.125501,774.332223 C186.524165,773.76241 185.574761,773.787964 185.004948,774.3893 Z" id="Path"></path>
                <path d="M168.497149,791.810338 L160.243249,800.520857 C159.673436,801.122193 159.698991,802.071596 160.300326,802.641409 C160.901662,803.211222 161.851066,803.185668 162.420879,802.584332 L170.674779,793.873813 C171.244591,793.272477 171.219037,792.323074 170.617701,791.753261 C170.016365,791.183448 169.066962,791.209002 168.497149,791.810338 Z" id="Path"></path>
            </g>
        </g>
    </g>
</svg>