<svg width="45" height="36" viewBox="0 0 45 36" fill="none" xmlns="http://www.w3.org/2000/svg">
<path d="M18.6667 21.5C18.6667 19.567 17.025 18 15 18L7.66667 18C5.64162 18 4 19.567 4 21.5L4 28.5C4 30.433 5.64162 32 7.66667 32H15V31.9927C15.8762 31.985 16.6785 31.9694 17.4076 31.9376C18.8342 31.8753 20.048 31.749 21.0295 31.4719C22.0263 31.1905 22.8576 30.7324 23.4169 29.9624C23.9672 29.2048 24.1667 28.2643 24.1667 27.1875V23.6124L24.4352 23.8687C24.7931 24.2104 25.3735 24.2104 25.7315 23.8687C26.0895 23.527 26.0895 22.973 25.7315 22.6313L23.8982 20.8813C23.5402 20.5396 22.9598 20.5396 22.6018 20.8813L20.7685 22.6313C20.4105 22.973 20.4105 23.527 20.7685 23.8687C21.1265 24.2104 21.7069 24.2104 22.0648 23.8687L22.3333 23.6124V27.1875C22.3333 28.0796 22.1643 28.6155 21.9103 28.9653C21.6652 29.3027 21.2562 29.583 20.5095 29.7937C19.7475 30.0089 18.7145 30.1287 17.3238 30.1894C15.9406 30.2498 14.2702 30.25 12.25 30.25C12.2497 30.25 12.2503 30.25 12.25 30.25H7.66667C6.65414 30.25 5.83333 29.4665 5.83333 28.5V21.5C5.83333 20.5335 6.65415 19.75 7.66667 19.75L15 19.75C16.0125 19.75 16.8333 20.5335 16.8333 21.5V25C16.8333 25.4832 17.2437 25.875 17.75 25.875C18.2563 25.875 18.6667 25.4832 18.6667 25V21.5Z" fill="#7E7CE0"/>
<path d="M38 4.83337C37.7239 4.83337 37.5 5.05723 37.5 5.33337C37.5 5.60952 37.7239 5.83337 38 5.83337H39.4167C39.6928 5.83337 39.9167 6.05723 39.9167 6.33337V7.75004C39.9167 8.02618 40.1405 8.25004 40.4167 8.25004C40.6928 8.25004 40.9167 8.02618 40.9167 7.75004V6.33337C40.9167 5.50495 40.2451 4.83337 39.4167 4.83337H38Z" fill="#3B3D46"/>
<path d="M18 6.5C18 6.22386 18.2239 6 18.5 6H26.5C26.7761 6 27 6.22386 27 6.5C27 6.77614 26.7761 7 26.5 7H18.5C18.2239 7 18 6.77614 18 6.5Z" fill="#3B3D46"/>
<path d="M18.5 9C18.2239 9 18 9.22386 18 9.5C18 9.77614 18.2239 10 18.5 10H31.5C31.7761 10 32 9.77614 32 9.5C32 9.22386 31.7761 9 31.5 9H18.5Z" fill="#3B3D46"/>
<path d="M40.417 28.3334C40.6931 28.3334 40.917 28.5572 40.917 28.8334V30.25C40.917 31.0785 40.2454 31.75 39.417 31.75H38.0003C37.7242 31.75 37.5003 31.5262 37.5003 31.25C37.5003 30.9739 37.7242 30.75 38.0003 30.75H39.417C39.6931 30.75 39.917 30.5262 39.917 30.25V28.8334C39.917 28.5572 40.1409 28.3334 40.417 28.3334Z" fill="#3B3D46"/>
<path fill-rule="evenodd" clip-rule="evenodd" d="M45 29.6667V6.91669C45 3.60298 42.3137 0.916687 39 0.916687H6C2.68629 0.916687 0 3.60297 0 6.91668V29.6667C0 32.9804 2.68629 35.6667 6 35.6667H39C42.3137 35.6667 45 32.9804 45 29.6667ZM2 6.91668C2 4.70754 3.79086 2.91669 6 2.91669H39C41.2091 2.91669 43 4.70755 43 6.91669V29.6667C43 31.8758 41.2091 33.6667 39 33.6667H6C3.79086 33.6667 2 31.8758 2 29.6667V6.91668Z" fill="#3B3D46"/>
</svg>
