<svg width="48" height="47" viewBox="0 0 48 47" fill="none" xmlns="http://www.w3.org/2000/svg">
<path fill-rule="evenodd" clip-rule="evenodd" d="M34.4532 10.6404C34.4532 11.191 34.3733 11.723 34.2244 12.2253H42.3817C44.1823 12.2253 45.6419 13.6849 45.6419 15.4855V40.4798C45.6419 42.2803 44.1823 43.7399 42.3817 43.7399H12.1682C12.723 42.7809 13.0405 41.6674 13.0405 40.4798V12.2253H23.5432C23.3943 11.723 23.3144 11.191 23.3144 10.6404C23.3144 10.4416 23.3248 10.2453 23.3451 10.0519H12.6695C11.7744 7.51947 9.35922 5.70508 6.52026 5.70508C2.91922 5.70508 0 8.6243 0 12.2253V40.4798C0 44.0809 2.91922 47.0001 6.52026 47.0001C7.85337 47.0001 9.09304 46.6 10.1257 45.9134H42.3817C45.3826 45.9134 47.8153 43.4807 47.8153 40.4798V15.4855C47.8153 12.4846 45.3826 10.0519 42.3817 10.0519H34.4225C34.4428 10.2453 34.4532 10.4416 34.4532 10.6404ZM10.8671 12.2253V35.6198C9.71355 34.5873 8.19022 33.9595 6.52026 33.9595C4.8503 33.9595 3.32698 34.5873 2.17342 35.6198V12.2253C2.17342 9.82465 4.11957 7.8785 6.52026 7.8785C8.92096 7.8785 10.8671 9.82465 10.8671 12.2253ZM6.52026 44.8266C4.11957 44.8266 2.17342 42.8805 2.17342 40.4798C2.17342 38.0791 4.11957 36.133 6.52026 36.133C8.92096 36.133 10.8671 38.0791 10.8671 40.4798C10.8671 42.8805 8.92096 44.8266 6.52026 44.8266Z" fill="#3B3D46"/>
<path d="M41.295 13.1311C40.9949 13.1311 40.7516 13.3744 40.7516 13.6745C40.7516 13.9746 40.9949 14.2178 41.295 14.2178H42.8345C43.1346 14.2178 43.3778 14.4611 43.3778 14.7612V16.3007C43.3778 16.6008 43.6211 16.844 43.9212 16.844C44.2213 16.844 44.4646 16.6008 44.4646 16.3007V14.7612C44.4646 13.8609 43.7348 13.1311 42.8345 13.1311H41.295Z" fill="#3B3D46"/>
<path d="M20.6475 38.8497C20.6475 38.5497 20.8908 38.3064 21.1909 38.3064H29.8845C30.1846 38.3064 30.4279 38.5497 30.4279 38.8497C30.4279 39.1498 30.1846 39.3931 29.8845 39.3931H21.1909C20.8908 39.3931 20.6475 39.1498 20.6475 38.8497Z" fill="#3B3D46"/>
<path d="M21.1909 41.5665C20.8908 41.5665 20.6475 41.8098 20.6475 42.1099C20.6475 42.41 20.8908 42.6532 21.1909 42.6532H35.3181C35.6182 42.6532 35.8614 42.41 35.8614 42.1099C35.8614 41.8098 35.6182 41.5665 35.3181 41.5665H21.1909Z" fill="#3B3D46"/>
<path d="M43.9216 38.6688C44.2216 38.6688 44.4649 38.9121 44.4649 39.2122V40.7517C44.4649 41.6519 43.7351 42.3817 42.8349 42.3817H41.2953C40.9953 42.3817 40.752 42.1385 40.752 41.8384C40.752 41.5383 40.9953 41.295 41.2953 41.295H42.8349C43.1349 41.295 43.3782 41.0518 43.3782 40.7517V39.2122C43.3782 38.9121 43.6215 38.6688 43.9216 38.6688Z" fill="#3B3D46"/>
<path d="M28.8839 12.2257C29.9091 12.2257 30.7403 11.3945 30.7403 10.3692C30.7403 9.34391 29.9091 8.51274 28.8839 8.51274C27.8586 8.51274 27.0274 9.34391 27.0274 10.3692C27.0274 11.3945 27.8586 12.2257 28.8839 12.2257Z" fill="#7E7CE0"/>
<path fill-rule="evenodd" clip-rule="evenodd" d="M28.8837 0C30.5091 0 31.8268 1.3177 31.8268 2.94317V5.63955C33.404 6.62298 34.4534 8.37336 34.4534 10.3689C34.4534 13.4447 31.9599 15.9382 28.884 15.9382C25.8081 15.9382 23.3146 13.4447 23.3146 10.3689C23.3146 8.37366 24.3638 6.62351 25.9405 5.63999V2.94317C25.9405 1.3177 27.2582 0 28.8837 0ZM28.1139 4.85227C28.3656 4.81745 28.6227 4.79946 28.884 4.79946C29.1451 4.79946 29.4019 4.81742 29.6534 4.85217V2.94317C29.6534 2.51805 29.3088 2.17342 28.8837 2.17342C28.4586 2.17342 28.1139 2.51805 28.1139 2.94317V4.85227ZM33.3667 10.3689C33.3667 12.8446 31.3597 14.8515 28.884 14.8515C26.4083 14.8515 24.4013 12.8446 24.4013 10.3689C24.4013 7.89314 26.4083 5.88617 28.884 5.88617C31.3597 5.88617 33.3667 7.89314 33.3667 10.3689Z" fill="#7E7CE0"/>
<path d="M27.937 15.8581C27.2015 15.7321 26.5153 15.4619 25.9085 15.0776L20.9355 28.0074C20.0887 27.3075 19.7533 26.1111 20.1958 25.0382L24.7201 14.0676C24.4348 13.7466 24.186 13.3923 23.9802 13.0114L19.1912 24.6238C18.5141 26.2655 19.1181 28.1104 20.5306 29.0601L18.5874 34.1126C18.3719 34.6727 18.6514 35.3015 19.2115 35.5169C19.7717 35.7324 20.4005 35.4529 20.6159 34.8928L24.8172 23.9694C25.798 25.0697 27.1583 25.7637 28.6852 25.7637C30.3585 25.7637 31.8319 24.9301 32.8248 23.6416L37.1522 34.8928C37.3676 35.4529 37.9964 35.7324 38.5566 35.5169C39.1167 35.3015 39.3962 34.6727 39.1807 34.1126L37.2375 29.0601C38.65 28.1104 39.254 26.2655 38.577 24.6238L33.7879 13.0113C33.5821 13.3923 33.3333 13.7466 33.048 14.0676L37.5723 25.0382C38.0148 26.1111 37.6794 27.3075 36.8326 28.0074L31.8596 15.0776C31.2528 15.4619 30.5666 15.7321 29.8311 15.8581L32.3485 22.4033C31.5559 23.7912 30.1927 24.677 28.6852 24.677C27.3244 24.677 26.0813 23.9553 25.2692 22.7942L27.937 15.8581Z" fill="#7E7CE0"/>
</svg>
