<svg width="45" height="36" viewBox="0 0 45 36" fill="none" xmlns="http://www.w3.org/2000/svg">
<path d="M16.5744 28.0407C17.0822 29.2721 16.4766 30.6802 15.2334 31.1584C14.9756 31.2575 14.8471 31.5468 14.9462 31.8045C15.0453 32.0623 15.3346 32.1908 15.5924 32.0917C17.3598 31.4119 18.2209 29.4101 17.4989 27.6595L12.6506 15.9036L12.0004 16.9498L16.5744 28.0407Z" fill="#7E7CE0"/>
<path d="M5.26249 16.6965L4.50781 15.9036L0.842773 24.7904V27.4133L5.26249 16.6965Z" fill="#7E7CE0"/>
<path fill-rule="evenodd" clip-rule="evenodd" d="M45 29.6667V6.91675C45 3.60304 42.3137 0.916748 39 0.916748H6C2.68629 0.916748 0 3.60303 0 6.91674V29.6667C0 32.9805 2.68629 35.6667 6 35.6667H39C42.3137 35.6667 45 32.9805 45 29.6667ZM2 6.91674C2 4.70761 3.79086 2.91675 6 2.91675H39C41.2091 2.91675 43 4.70761 43 6.91675V29.6667C43 31.8759 41.2091 33.6667 39 33.6667H17.0061L11.3169 18.8749C12.7516 17.9666 13.7041 16.3654 13.7041 14.5417C13.7041 12.7055 12.7383 11.0947 11.287 10.1898V7.70839C11.287 6.21262 10.0745 5.00006 8.57871 5.00006C7.08294 5.00006 5.87037 6.21262 5.87037 7.70839V10.1902C4.4195 11.0953 3.45409 12.7058 3.45409 14.5417C3.45409 16.3652 4.40639 17.9663 5.84079 18.8747L2 28.8607V6.91674ZM2.87323 32.1616C3.60619 33.079 4.73446 33.6667 6 33.6667H14.8633L12.2052 26.7557C11.2915 27.9414 9.93568 28.7084 8.39586 28.7084C6.99082 28.7084 5.73901 28.0698 4.83648 27.0572L2.87323 32.1616ZM38 4.83344C37.7239 4.83344 37.5 5.05729 37.5 5.33344C37.5 5.60958 37.7239 5.83344 38 5.83344H39.4167C39.6928 5.83344 39.9167 6.05729 39.9167 6.33344V7.7501C39.9167 8.02624 40.1405 8.2501 40.4167 8.2501C40.6928 8.2501 40.9167 8.02624 40.9167 7.7501V6.33344C40.9167 5.50501 40.2451 4.83344 39.4167 4.83344H38ZM18.5 6.00006C18.2239 6.00006 18 6.22392 18 6.50006C18 6.7762 18.2239 7.00006 18.5 7.00006H26.5C26.7761 7.00006 27 6.7762 27 6.50006C27 6.22392 26.7761 6.00006 26.5 6.00006H18.5ZM18 9.50006C18 9.22392 18.2239 9.00006 18.5 9.00006H31.5C31.7761 9.00006 32 9.22392 32 9.50006C32 9.7762 31.7761 10.0001 31.5 10.0001H18.5C18.2239 10.0001 18 9.7762 18 9.50006ZM40.917 28.8334C40.917 28.5573 40.6931 28.3334 40.417 28.3334C40.1409 28.3334 39.917 28.5573 39.917 28.8334V30.2501C39.917 30.5262 39.6931 30.7501 39.417 30.7501H38.0003C37.7242 30.7501 37.5003 30.974 37.5003 31.2501C37.5003 31.5262 37.7242 31.7501 38.0003 31.7501H39.417C40.2454 31.7501 40.917 31.0785 40.917 30.2501V28.8334ZM9.45027 19.593L11.7669 25.6162C11.0375 26.8933 9.78311 27.7084 8.39586 27.7084C7.14367 27.7084 5.99972 27.0443 5.25242 25.9758L7.70737 19.5929C7.99067 19.6415 8.28193 19.6667 8.57909 19.6667C8.87606 19.6667 9.16713 19.6415 9.45027 19.593ZM8.57909 9.41675C8.33862 9.41675 8.10202 9.43331 7.87037 9.46535V7.70839C7.87037 7.31719 8.1875 7.00006 8.57871 7.00006C8.96991 7.00006 9.28704 7.31719 9.28704 7.70839V9.46525C9.05563 9.43327 8.81929 9.41675 8.57909 9.41675ZM8.57909 18.2667C10.6363 18.2667 12.3041 16.599 12.3041 14.5417C12.3041 12.4845 10.6363 10.8167 8.57909 10.8167C6.52182 10.8167 4.85408 12.4845 4.85408 14.5417C4.85408 16.599 6.52182 18.2667 8.57909 18.2667ZM10.2872 14.5417C10.2872 15.4852 9.52238 16.25 8.5789 16.25C7.63541 16.25 6.87056 15.4852 6.87056 14.5417C6.87056 13.5982 7.63541 12.8334 8.5789 12.8334C9.52238 12.8334 10.2872 13.5982 10.2872 14.5417Z" fill="#3B3D46"/>
</svg>
