<svg width="16" height="16" viewBox="0 0 16 16" fill="none" xmlns="http://www.w3.org/2000/svg">
<path d="M1.66667 14.3333L1.66667 7.66667H3.33333V6H1.66667C0.746192 6 0 6.74619 0 7.66667V14.3333C0 15.2538 0.746192 16 1.66667 16H8.33333C9.25381 16 10 15.2538 10 14.3333V12.6667H8.33333V14.3333H1.66667Z" fill="#989EAC"/>
<path fill-rule="evenodd" clip-rule="evenodd" d="M14.1667 1.83333H6.83333L6.83333 9.16667H14.1667V1.83333ZM6.83333 0C5.82081 0 5 0.820812 5 1.83333V9.16667C5 10.1792 5.82081 11 6.83333 11H14.1667C15.1792 11 16 10.1792 16 9.16667V1.83333C16 0.820811 15.1792 0 14.1667 0H6.83333Z" fill="white"/>
</svg>
