<svg width="45" height="36" viewBox="0 0 45 36" fill="none" xmlns="http://www.w3.org/2000/svg">
<path d="M11.6508 18.2407C11.2763 17.9198 10.7237 17.9198 10.3492 18.2407L3.34923 24.2407C2.9299 24.6002 2.88134 25.2315 3.24076 25.6508C3.60018 26.0701 4.23148 26.1187 4.65081 25.7593L11 20.3171L17.3492 25.7593C17.7686 26.1187 18.3999 26.0701 18.7593 25.6508C19.1187 25.2315 19.0701 24.6002 18.6508 24.2407L11.6508 18.2407Z" fill="#7E7CE0"/>
<path d="M8.00002 28C8.00002 27.4477 7.5523 27 7.00002 27C6.44773 27 6.00002 27.4477 6.00002 28L6.00002 32C6.00002 32.5523 6.44773 33 7.00001 33C7.5523 33 8.00001 32.5523 8.00001 32L8.00002 28Z" fill="#7E7CE0"/>
<path d="M10 34L10 26C10 25.4477 10.4477 25 11 25C11.5523 25 12 25.4477 12 26V34C12 34.5523 11.5523 35 11 35C10.4477 35 10 34.5523 10 34Z" fill="#7E7CE0"/>
<path d="M16 28C16 27.4477 15.5523 27 15 27C14.4477 27 14 27.4477 14 28V32C14 32.5523 14.4477 33 15 33C15.5523 33 16 32.5523 16 32V28Z" fill="#7E7CE0"/>
<path d="M25 31.9998V28.7069L22.6464 26.3534C22.4512 26.1581 22.4512 25.8415 22.6464 25.6463C22.8417 25.451 23.1583 25.451 23.3536 25.6463L25 27.2927V25.7069L23.6464 24.3534C23.4512 24.1581 23.4512 23.8415 23.6464 23.6463C23.8417 23.451 24.1583 23.451 24.3536 23.6463L25 24.2927V22.9998C25 22.4475 25.4477 21.9998 26 21.9998C26.5523 21.9998 27 22.4475 27 22.9998V24.2927L27.6464 23.6463C27.8417 23.451 28.1583 23.451 28.3536 23.6463C28.5488 23.8415 28.5488 24.1581 28.3536 24.3534L27 25.7069V27.2927L28.6464 25.6463C28.8417 25.451 29.1583 25.451 29.3536 25.6463C29.5488 25.8415 29.5488 26.1581 29.3536 26.3534L27 28.7069V31.9998C27 32.5521 26.5523 32.9998 26 32.9998C25.4477 32.9998 25 32.5521 25 31.9998Z" fill="#3B3D46"/>
<path d="M38 4.83319C37.7239 4.83319 37.5 5.05705 37.5 5.33319C37.5 5.60933 37.7239 5.83319 38 5.83319H39.4167C39.6928 5.83319 39.9167 6.05705 39.9167 6.33319V7.74986C39.9167 8.026 40.1405 8.24986 40.4167 8.24986C40.6928 8.24986 40.9167 8.026 40.9167 7.74986V6.33319C40.9167 5.50476 40.2451 4.83319 39.4167 4.83319H38Z" fill="#3B3D46"/>
<path d="M18 6.49982C18 6.22367 18.2239 5.99982 18.5 5.99982H26.5C26.7761 5.99982 27 6.22367 27 6.49982C27 6.77596 26.7761 6.99982 26.5 6.99982H18.5C18.2239 6.99982 18 6.77596 18 6.49982Z" fill="#3B3D46"/>
<path d="M18.5 8.99982C18.2239 8.99982 18 9.22367 18 9.49982C18 9.77596 18.2239 9.99982 18.5 9.99982H31.5C31.7761 9.99982 32 9.77596 32 9.49982C32 9.22367 31.7761 8.99982 31.5 8.99982H18.5Z" fill="#3B3D46"/>
<path d="M40.417 28.3332C40.6931 28.3332 40.917 28.557 40.917 28.8332V30.2499C40.917 31.0783 40.2454 31.7499 39.417 31.7499H38.0003C37.7242 31.7499 37.5003 31.526 37.5003 31.2499C37.5003 30.9737 37.7242 30.7499 38.0003 30.7499H39.417C39.6931 30.7499 39.917 30.526 39.917 30.2499V28.8332C39.917 28.557 40.1409 28.3332 40.417 28.3332Z" fill="#3B3D46"/>
<path fill-rule="evenodd" clip-rule="evenodd" d="M45 29.6665V6.9165C45 3.6028 42.3137 0.916504 39 0.916504H6C2.68629 0.916504 0 3.60279 0 6.9165V29.6665C0 32.9802 2.68629 35.6665 6 35.6665H39C42.3137 35.6665 45 32.9802 45 29.6665ZM39 2.9165H10.3962C11.1764 3.75611 11.719 4.81954 11.917 5.99982H14C14.5523 5.99982 15 6.44753 15 6.99982C15 7.5521 14.5523 7.99982 14 7.99982H11.917C11.7641 8.91147 11.4056 9.75342 10.8907 10.4764L12.7071 12.2927C13.0976 12.6832 13.0976 13.3164 12.7071 13.7069C12.3166 14.0974 11.6834 14.0974 11.2929 13.7069L9.47653 11.8906C8.7536 12.4054 7.91166 12.7639 7 12.9169L7 14.9998C7 15.5521 6.55228 15.9998 6 15.9998C5.44771 15.9998 5 15.5521 5 14.9998V12.9169C3.85843 12.7253 2.82616 12.2115 2 11.472V29.6665C2 31.8756 3.79086 33.6665 6 33.6665H39C41.2091 33.6665 43 31.8756 43 29.6665V6.9165C43 4.70737 41.2091 2.9165 39 2.9165ZM6 10.9998C3.79086 10.9998 2 9.20896 2 6.99982C2 4.79068 3.79086 2.99982 6 2.99982C8.20914 2.99982 10 4.79068 10 6.99982C10 9.20896 8.20914 10.9998 6 10.9998Z" fill="#3B3D46"/>
</svg>
