<svg width="175" height="180" viewBox="0 0 175 180" fill="none" xmlns="http://www.w3.org/2000/svg">
<path fill-rule="evenodd" clip-rule="evenodd" d="M136.743 4.66667C138.711 -7.06255 148.912 -16 161.2 -16C174.897 -16 186 -4.89666 186 8.8C186 21.0884 177.063 31.2893 165.333 33.2571V41.8667C165.333 44.1494 163.483 46 161.2 46C158.917 46 157.067 44.1494 157.067 41.8667L157.067 33.2571C153.298 32.6249 149.818 31.143 146.83 29.0151L139.323 36.5227C137.709 38.1369 135.091 38.1369 133.477 36.5227C131.863 34.9085 131.863 32.2915 133.477 30.6773L140.985 23.1697C138.857 20.1815 137.375 16.7015 136.743 12.9333H128.133C125.851 12.9333 124 11.0828 124 8.8C124 6.51722 125.851 4.66667 128.133 4.66667H136.743ZM144.667 8.8C144.667 17.9311 152.069 25.3333 161.2 25.3333C170.331 25.3333 177.733 17.9311 177.733 8.8C177.733 -0.331109 170.331 -7.73333 161.2 -7.73333C152.069 -7.73333 144.667 -0.331109 144.667 8.8Z" fill="#3B3D46"/>
<path d="M115.271 68.5528C112.965 66.4824 109.562 66.4824 107.256 68.5528L64.1505 107.253C61.5683 109.571 61.2693 113.643 63.4826 116.348C65.6959 119.052 69.5833 119.365 72.1655 117.047L111.263 81.9452L150.361 117.047C152.943 119.365 156.831 119.052 159.044 116.348C161.257 113.643 160.958 109.571 158.376 107.253L115.271 68.5528Z" fill="#7E7CE0"/>
<path d="M92.7895 131.5C92.7895 127.938 90.0326 125.05 86.6316 125.05C83.2307 125.05 80.4738 127.938 80.4738 131.5V157.3C80.4738 160.862 83.2307 163.75 86.6316 163.75C90.0326 163.75 92.7895 160.862 92.7895 157.3L92.7895 131.5Z" fill="#7E7CE0"/>
<path d="M142.053 131.5C142.053 127.938 139.296 125.05 135.895 125.05C132.494 125.05 129.737 127.938 129.737 131.5V157.3C129.737 160.862 132.494 163.75 135.895 163.75C139.296 163.75 142.053 160.862 142.053 157.3V131.5Z" fill="#7E7CE0"/>
<path d="M17.1429 157.73L17.1429 180.182C17.1429 183.947 20.2129 187 24 187C27.7871 187 30.8571 183.947 30.8571 180.182V157.73L46.9958 141.683C48.3347 140.352 48.3347 138.194 46.9958 136.862C45.6569 135.531 43.486 135.531 42.1471 136.862L30.8571 148.088V137.276L40.1387 128.047C41.4776 126.716 41.4776 124.557 40.1386 123.226C38.7997 121.895 36.6289 121.895 35.2899 123.226L30.8571 127.633V118.818C30.8571 115.053 27.7871 112 24 112C20.2129 112 17.1429 115.053 17.1429 118.818V127.633L12.7101 123.226C11.3711 121.895 9.20029 121.895 7.86135 123.226C6.52241 124.557 6.52241 126.716 7.86135 128.047L17.1429 137.276V148.088L5.85294 136.862C4.514 135.531 2.34314 135.531 1.00421 136.862C-0.334736 138.194 -0.334735 140.352 1.0042 141.683L17.1429 157.73Z" fill="#3B3D46"/>
</svg>
