<svg width="24" height="16" viewBox="0 0 24 16" fill="none" xmlns="http://www.w3.org/2000/svg">
<path d="M16 4C16 1.79086 14.2091 5.07419e-07 12 6.03983e-07L4 0C1.79086 9.65645e-08 -9.65645e-08 1.79086 0 4L3.49692e-07 12C4.46256e-07 14.2091 1.79086 16 4 16H12V15.9916C12.9558 15.9829 13.8311 15.965 14.6265 15.9286C16.1828 15.8574 17.5069 15.7131 18.5776 15.3965C19.665 15.0749 20.5719 14.5514 21.182 13.6714C21.7824 12.8055 22 11.7306 22 10.5001V6.41421L22.2929 6.70711C22.6834 7.09763 23.3166 7.09763 23.7071 6.70711C24.0976 6.31658 24.0976 5.68342 23.7071 5.29289L21.7071 3.29289C21.3166 2.90237 20.6834 2.90237 20.2929 3.29289L18.2929 5.29289C17.9024 5.68342 17.9024 6.31658 18.2929 6.70711C18.6834 7.09763 19.3166 7.09763 19.7071 6.70711L20 6.41421V10.5001C20 11.5195 19.8156 12.132 19.5385 12.5318C19.2711 12.9174 18.825 13.2377 18.0104 13.4786C17.1791 13.7244 16.0522 13.8613 14.535 13.9307C13.0261 13.9998 11.2039 14 9 14C8.99972 14 9.00028 14 9 14H4C2.89543 14 2 13.1046 2 12V4C2 2.89543 2.89543 2 4 2L12 2C13.1046 2 14 2.89543 14 4V8C14 8.55228 14.4477 9 15 9C15.5523 9 16 8.55228 16 8V4Z" fill="#3B3D46"/>
</svg>
