<svg width="43" height="46" viewBox="0 0 43 46" fill="none" xmlns="http://www.w3.org/2000/svg">
<path d="M13.3806 18.7965C12.8744 19.3027 12.8744 20.1145 13.3806 20.6207L20.2192 27.4593C20.4675 27.7076 20.8018 27.8413 21.1265 27.8413C21.4513 27.8413 21.7856 27.7172 22.0339 27.4593L28.8724 20.6207C29.3787 20.1145 29.3787 19.3027 28.8724 18.7965C28.3662 18.2903 27.5544 18.2903 27.0482 18.7965L22.4159 23.4287V1.28939C22.4159 0.573063 21.8429 0 21.1265 0C20.4102 0 19.8371 0.573063 19.8371 1.28939V23.4287L15.2049 18.7965C14.6987 18.2903 13.8773 18.2903 13.3806 18.7965Z" fill="#7E7CE0"/>
<path d="M42.2061 29.36L37.7171 13.1232C37.6121 12.7507 37.3542 12.4546 37.0103 12.2922L36.8862 12.2349C36.7143 12.1585 36.5328 12.1203 36.3513 12.1203H28.2616C27.5452 12.1203 26.9722 12.6934 26.9722 13.4097C26.9722 14.126 27.5452 14.6991 28.2616 14.6991H35.4822L39.2739 28.4335H29.2453C28.529 28.4335 27.9559 29.0066 27.9559 29.7229V30.8881C27.9559 32.5978 26.571 33.9827 24.8614 33.9827H16.9913C15.2817 33.9827 13.8968 32.5978 13.8968 30.8881V29.7229C13.8968 29.0066 13.3237 28.4335 12.6074 28.4335H2.97038L6.78125 14.6705H14.0018C14.7182 14.6705 15.2912 14.0974 15.2912 13.3811C15.2912 12.6647 14.7182 12.0917 14.0018 12.0917H5.90255C5.72108 12.0917 5.53961 12.1299 5.36769 12.2063L5.24353 12.2636C4.89969 12.426 4.63226 12.722 4.53675 13.0945L0.0477553 29.3313C0.0191021 29.4459 0 29.5606 0 29.6752V36.4469C0 41.5758 4.17381 45.7496 9.30273 45.7496H32.9511C38.0801 45.7496 42.2539 41.5758 42.2539 36.4469V29.7038C42.2539 29.5797 42.2443 29.465 42.2061 29.36ZM39.6751 36.4469C39.6751 40.1527 36.6569 43.1708 32.9511 43.1708H9.30273C5.59692 43.1708 2.57878 40.1527 2.57878 36.4469V31.0123H11.3371C11.404 34.0782 13.9254 36.5519 17.0104 36.5519H24.8805C27.9655 36.5519 30.487 34.0782 30.5538 31.0123H39.6942V36.4469H39.6751Z" fill="#3B3D46"/>
</svg>
