<svg width="45" height="36" viewBox="0 0 45 36" fill="none" xmlns="http://www.w3.org/2000/svg">
<path d="M6 1.91675C3.23858 1.91675 1 4.15532 1 6.91674V24.2709V29.6667C1 32.4282 3.23858 34.6667 6 34.6667H39C41.7614 34.6667 44 32.4282 44 29.6667V6.91675C44 4.15532 41.7614 1.91675 39 1.91675H12.25H6Z" stroke="#3B3D46" stroke-width="2"/>
<mask id="mask0" mask-type="alpha" maskUnits="userSpaceOnUse" x="2" y="2" width="41" height="32">
<path d="M2 6.91674C2 4.70761 3.79086 2.91675 6 2.91675H12.25H39C41.2091 2.91675 43 4.70761 43 6.91675V29.6667C43 31.8759 41.2091 33.6667 39 33.6667H6C3.79086 33.6667 2 31.8759 2 29.6667V24.2709V6.91674Z" fill="#C4C4C4"/>
</mask>
<g mask="url(#mask0)">
<path d="M19.1775 34.873C20.1215 33.4561 20.5938 31.6883 20.5938 30.1565C20.5938 27.8472 19.5679 25.7017 17.8076 24.2468C18.1971 23.3159 18.394 22.3477 18.394 21.3576C18.394 18.2939 16.6061 15.44 13.9478 14.1073C14.3511 10.7622 12.1714 7.69598 8.94124 6.91386C7.67694 3.99119 4.86294 2 1.89606 2C-0.8657 2 -3.3427 3.61086 -4.70312 5.96127C-6.06366 3.61086 -8.54066 2 -11.3023 2C-14.2694 2 -17.0834 3.99119 -18.3475 6.91397C-21.597 7.70104 -23.7563 10.7825 -23.3541 14.1073C-26.0122 15.4399 -27.8003 18.2939 -27.8003 21.3576C-27.8003 22.3477 -27.6034 23.3159 -27.2138 24.2468C-28.9742 25.7018 -30 27.8472 -30 30.1565C-30 31.6963 -29.5238 33.4618 -28.5837 34.8728C-29.5023 36.1696 -30 37.7064 -30 39.2854C-30 41.3329 -29.1698 43.2834 -27.7014 44.7317C-28.4563 49.2953 -24.8169 53.9136 -20.1012 53.9136C-20.0671 53.9136 -20.0336 53.913 -20.0007 53.912C-18.4372 56.6091 -15.5351 58.313 -12.4022 58.313C-9.1369 58.313 -6.21918 56.3531 -4.70312 53.5293C-3.18707 56.3531 -0.269354 58.313 2.99592 58.313C6.12889 58.313 9.03099 56.6091 10.5944 53.912C10.6274 53.913 10.6609 53.9136 10.695 53.9136C14.8683 53.9136 18.394 50.2367 18.394 45.8846C18.394 45.514 18.3615 45.1329 18.2951 44.7317C19.7636 43.2834 20.5938 41.333 20.5938 39.2854C20.5938 37.7064 20.0961 36.1696 19.1775 34.873ZM-5.80299 18.6499C-6.45059 18.2742 -7.20169 18.058 -8.00272 18.058C-8.61017 18.058 -9.10258 18.5504 -9.10258 19.1579C-9.10258 19.7653 -8.61017 20.2577 -8.00272 20.2577C-6.78979 20.2577 -5.80299 21.2445 -5.80299 22.4575V43.3735C-7.4166 41.5432 -9.77603 40.3853 -12.4022 40.3853C-13.0096 40.3853 -13.502 40.8777 -13.502 41.4851C-13.502 42.0926 -13.0096 42.585 -12.4022 42.585C-8.76338 42.585 -5.80299 45.5454 -5.80299 49.1842C-5.80299 52.9401 -8.82509 56.1133 -12.4022 56.1133C-14.9486 56.1133 -17.2927 54.6075 -18.3743 52.277C-18.5737 51.8475 -19.0253 51.5942 -19.4962 51.6472C-19.5739 51.6561 -19.6513 51.6665 -19.7286 51.677C-22.8588 52.1051 -26.3839 48.5605 -25.4296 44.5953C-25.3316 44.188 -25.4735 43.7606 -25.7954 43.4927C-27.0695 42.4325 -27.8003 40.899 -27.8003 39.2854C-27.8003 38.2877 -27.5182 37.3114 -26.9932 36.4552C-25.674 37.5364 -24.0331 38.1855 -22.301 38.1855C-21.6935 38.1855 -21.2011 37.6931 -21.2011 37.0857C-21.2011 36.4782 -21.6935 35.9858 -22.301 35.9858C-25.2859 35.9858 -27.8003 33.2614 -27.8003 30.1565C-27.8003 28.273 -26.8402 26.5403 -25.2319 25.5215C-24.7364 25.2076 -24.5744 24.5601 -24.8637 24.0499C-25.3526 23.1877 -25.6005 22.2818 -25.6005 21.3576C-25.6005 18.3891 -23.1806 15.5283 -20.1012 15.5283C-17.1716 15.5283 -14.6019 18.2524 -14.6019 21.3576C-14.6019 21.9651 -14.1095 22.4575 -13.502 22.4575C-12.8946 22.4575 -12.4022 21.9651 -12.4022 21.3576C-12.4022 17.0054 -15.9279 13.3286 -20.1012 13.3286C-20.4695 13.3286 -20.8357 13.3584 -21.1983 13.4148C-21.1989 13.3859 -21.2011 13.3577 -21.2011 13.3286C-21.2011 10.874 -19.2085 8.92914 -16.8016 8.92914C-15.6268 8.92914 -14.5216 9.3868 -13.6899 10.2176C-13.2602 10.6469 -12.5639 10.6465 -12.1345 10.2169C-11.7052 9.78704 -11.7055 9.09071 -12.1352 8.66144C-13.1386 7.65913 -14.4078 7.01989 -15.7832 6.80806C-14.8132 5.36822 -13.2002 4.19973 -11.3023 4.19973C-8.37271 4.19973 -5.80299 6.92365 -5.80299 10.029V18.6499ZM12.8947 38.1855C14.627 38.1855 16.2679 37.5363 17.587 36.4556C18.1119 37.3116 18.394 38.2878 18.394 39.2854C18.394 40.899 17.6633 42.4325 16.3893 43.4927C16.0673 43.7606 15.9255 44.1881 16.0235 44.5953C16.1401 45.0796 16.1943 45.4893 16.1943 45.8845C16.1943 49.2984 13.1064 52.0576 10.3224 51.677C10.2451 51.6665 10.1677 51.656 10.0899 51.6472C9.61842 51.5939 9.16737 51.8475 8.96819 52.277C7.88658 54.6075 5.54222 56.1133 2.99592 56.1133C-0.581165 56.1133 -3.60326 52.9401 -3.60326 49.1842C-3.60326 45.5454 -0.642868 42.585 2.99592 42.585C3.60327 42.585 4.09579 42.0926 4.09579 41.4851C4.09579 40.8777 3.60327 40.3853 2.99592 40.3853C0.369778 40.3853 -1.98965 41.5432 -3.60326 43.3735V22.4575C-3.60326 21.2445 -2.61646 20.2577 -1.40353 20.2577C-0.796188 20.2577 -0.303669 19.7653 -0.303669 19.1579C-0.303669 18.5504 -0.796188 18.058 -1.40353 18.058C-2.20457 18.058 -2.95566 18.2742 -3.60326 18.6499V10.029C-3.60326 6.92365 -1.03354 4.19973 1.89606 4.19973C3.79398 4.19973 5.40683 5.36822 6.3768 6.80795C5.00153 7.01978 3.7325 7.65902 2.72898 8.66133C2.29916 9.0906 2.29872 9.78693 2.728 10.2168C3.15727 10.6466 3.85382 10.6469 4.28342 10.2176C5.11547 9.3868 6.2205 8.92914 7.39538 8.92914C9.81431 8.92914 11.7948 10.8855 11.7948 13.3286C11.7948 13.3576 11.7926 13.3859 11.7921 13.4148C11.4295 13.3584 11.0632 13.3286 10.695 13.3286C6.52165 13.3286 2.99592 17.0054 2.99592 21.3576C2.99592 21.9651 3.48844 22.4575 4.09579 22.4575C4.70313 22.4575 5.19565 21.9651 5.19565 21.3576C5.19565 18.2524 7.76537 15.5283 10.695 15.5283C13.7726 15.5283 16.1943 18.3876 16.1943 21.3576C16.1943 22.2818 15.9464 23.1877 15.4575 24.0499C15.1682 24.5601 15.3302 25.2076 15.8257 25.5215C17.4339 26.5403 18.394 28.273 18.394 30.1565C18.394 33.2725 15.8708 35.9858 12.8947 35.9858C12.2874 35.9858 11.7948 36.4782 11.7948 37.0857C11.7948 37.6931 12.2874 38.1855 12.8947 38.1855Z" fill="#3B3D46"/>
<path d="M8.49548 31.2565C7.0232 31.2565 5.77331 30.2869 5.34987 28.953C9.00065 28.3523 11.7951 25.1759 11.7951 21.3577C11.7951 20.7502 11.3026 20.2578 10.6952 20.2578C10.0879 20.2578 9.59534 20.7502 9.59534 21.3577C9.59534 24.39 7.12835 26.857 4.09602 26.857C2.74143 26.857 1.43952 26.3596 0.429845 25.4565C-0.0227493 25.0516 -0.718193 25.0902 -1.12316 25.543C-1.52824 25.9957 -1.48942 26.691 -1.03671 27.096C0.125734 28.1359 1.56546 28.7904 3.09493 28.9905C3.58019 31.5303 5.81654 33.4562 8.49548 33.4562C9.10282 33.4562 9.59534 32.9638 9.59534 32.3563C9.59534 31.7489 9.10282 31.2565 8.49548 31.2565Z" fill="#7E7CE0"/>
<circle cx="31.5" cy="26.5" r="1.8" stroke="#3B3D46" stroke-width="1.4"/>
<path d="M21.7324 15.3093C24.7847 16.6698 27.8782 19.7996 29.5333 23.0001" stroke="#3B3D46" stroke-width="1.4" stroke-linecap="round"/>
<path d="M34.8281 17L31.9997 19.8284" stroke="#3B3D46" stroke-width="1.4" stroke-linecap="round"/>
<path d="M34.8281 19.8284L31.9997 16.9999" stroke="#3B3D46" stroke-width="1.4" stroke-linecap="round"/>
<path d="M23.7735 14.732L21.7323 15.3093L22.3096 17.3506" stroke="#3B3D46" stroke-width="1.4" stroke-linecap="round" stroke-linejoin="round"/>
<line x1="18.5" y1="9.5" x2="31.5" y2="9.5" stroke="#3B3D46" stroke-linecap="round"/>
<line x1="18.5" y1="6.5" x2="26.5" y2="6.5" stroke="#3B3D46" stroke-linecap="round"/>
<path d="M38 5.3335H39.4167C39.969 5.3335 40.4167 5.78121 40.4167 6.3335V7.75016" stroke="#3B3D46" stroke-linecap="round"/>
<path d="M40.417 28.8335L40.417 30.2502C40.417 30.8024 39.9693 31.2502 39.417 31.2502L38.0003 31.2502" stroke="#3B3D46" stroke-linecap="round"/>
</g>
</svg>
