<?xml version="1.0" encoding="utf-8"?>
<!-- Generator: Adobe Illustrator 22.0.1, SVG Export Plug-In . SVG Version: 6.00 Build 0)  -->
<svg version="1.1" id="Ebene_1" xmlns="http://www.w3.org/2000/svg" xmlns:xlink="http://www.w3.org/1999/xlink" x="0px" y="0px"
	 viewBox="0 0 869.9 133.3" style="enable-background:new 0 0 869.9 133.3;" xml:space="preserve">
<style type="text/css">
	.st0{fill:#040506;}
	.st1{fill:#FFFFFF;}
	.st2{fill:#575756;}
</style>
<g>
	<g>
		<g>
			<path d="M523.8,68.8H537v14.4c-0.7,0.6-1.5,1-2.3,1.4s-1.7,0.7-2.7,1c-0.9,0.3-1.9,0.5-2.9,0.6s-1.9,0.2-2.9,0.2
				c-2.2,0-4.3-0.3-6.2-1c-1.9-0.6-3.6-1.6-5-3s-2.5-3.1-3.4-5.2c-0.8-2.1-1.2-4.6-1.2-7.5c0-3,0.5-5.6,1.5-7.8
				c1-2.1,2.3-3.9,3.8-5.2c1.6-1.3,3.3-2.3,5.3-2.9c1.9-0.6,3.9-0.9,5.8-0.9c2,0,3.7,0.1,5.3,0.4c1.5,0.3,2.7,0.6,3.6,0.9l-1.4,5.7
				c-0.8-0.3-1.8-0.5-2.8-0.7s-2.3-0.3-3.9-0.3c-1.4,0-2.8,0.2-4,0.6c-1.2,0.4-2.2,1-3.1,1.9c-0.9,0.9-1.6,2-2.1,3.4
				c-0.5,1.4-0.7,3.1-0.7,5s0.2,3.5,0.7,4.9c0.5,1.3,1.2,2.5,2,3.3c0.8,0.9,1.8,1.5,2.9,1.9s2.3,0.6,3.5,0.6c0.8,0,1.7-0.1,2.5-0.3
				c0.8-0.2,1.6-0.5,2.1-0.9v-5.6l-7.6-0.7L523.8,68.8L523.8,68.8z"/>
			<path d="M541.9,53.9c0.7-0.1,1.5-0.2,2.4-0.3s1.8-0.2,2.6-0.3c0.9-0.1,1.8-0.1,2.6-0.1s1.6,0,2.3,0c1.6,0,3.2,0.1,4.8,0.4
				c1.6,0.3,3,0.8,4.2,1.4c1.2,0.7,2.2,1.6,3,2.8s1.1,2.7,1.1,4.4c0,2.6-0.7,4.8-2,6.5c-1.3,1.7-3.1,2.9-5.4,3.5l2.4,1.4l8.1,12.2
				h-7.9l-8-12.5l-3.6-0.6v13h-6.8V53.9H541.9z M552.4,59.1c-0.7,0-1.4,0-2,0c-0.7,0-1.2,0.1-1.6,0.2v8.9h2.9c1.9,0,3.5-0.4,4.6-1.1
				s1.7-2,1.7-3.8c0-1.3-0.5-2.4-1.4-3.1C555.5,59.4,554.2,59.1,552.4,59.1z"/>
			<path d="M587.3,78.9h-10.9l-2.6,6.9H567l12.6-32.4h5l12.7,32.4h-7.2L587.3,78.9z M578.4,73.5h7.4l-2.5-6.7l-1.1-5.1H582l-1.1,5.2
				L578.4,73.5z"/>
			<path d="M600.3,53.6c0.7-0.1,1.4-0.2,2.3-0.2c0.9-0.1,1.8-0.1,2.7-0.1s1.8-0.1,2.7-0.1s1.7,0,2.4,0c3.1,0,5.7,0.4,7.9,1.2
				s4,1.9,5.4,3.4c1.4,1.4,2.4,3.2,3.1,5.2c0.6,2,1,4.2,1,6.5c0,2.1-0.3,4.2-0.9,6.3c-0.6,2-1.6,3.8-3.1,5.4
				c-1.4,1.6-3.3,2.8-5.5,3.8s-5.1,1.4-8.4,1.4c-0.5,0-1.2,0-2.1,0c-0.9,0-1.8-0.1-2.8-0.1s-1.9-0.1-2.7-0.1s-1.5-0.1-1.9-0.2V53.6
				H600.3z M611,59.1c-0.7,0-1.4,0-2.2,0c-0.7,0-1.3,0.1-1.7,0.1v20.9c0.2,0,0.4,0.1,0.7,0.1s0.7,0,1,0c0.4,0,0.7,0,1,0s0.6,0,0.7,0
				c2,0,3.6-0.3,4.9-0.9s2.3-1.4,3.1-2.4s1.3-2.2,1.6-3.5s0.5-2.6,0.5-4c0-1.1-0.1-2.3-0.4-3.5c-0.3-1.2-0.8-2.3-1.5-3.4
				c-0.7-1-1.7-1.8-2.9-2.5C614.5,59.4,612.9,59.1,611,59.1z"/>
			<path d="M667.6,59.5h-10.2v26.2h-6.8V59.5h-10.2v-6h27.2V59.5z"/>
			<path d="M668,69.7c0-2.6,0.3-5,1-7.1s1.6-3.8,2.9-5.3c1.3-1.4,2.8-2.5,4.7-3.3s3.9-1.1,6.3-1.1c2.5,0,4.7,0.4,6.5,1.2
				c1.9,0.8,3.4,2,4.6,3.4c1.2,1.5,2.2,3.2,2.8,5.3s0.9,4.3,0.9,6.8c0,2.6-0.3,5-1,7.1s-1.7,3.8-3,5.3s-2.9,2.5-4.7,3.3
				s-3.9,1.1-6.2,1.1c-2.5,0-4.7-0.4-6.5-1.2c-1.9-0.8-3.4-2-4.6-3.4c-1.2-1.5-2.2-3.2-2.8-5.3C668.3,74.4,668,72.1,668,69.7z
				 M675.3,69.7c0,1.6,0.2,3.1,0.5,4.4s0.8,2.5,1.4,3.4c0.6,1,1.4,1.7,2.4,2.2s2.1,0.8,3.4,0.8c2.4,0,4.3-0.8,5.7-2.5
				c1.3-1.7,2-4.4,2-8.3c0-1.5-0.1-3-0.4-4.3c-0.3-1.3-0.7-2.5-1.4-3.4c-0.6-1-1.4-1.7-2.4-2.3c-1-0.5-2.1-0.8-3.5-0.8
				c-2.4,0-4.3,0.9-5.6,2.6C675.9,63.2,675.3,65.9,675.3,69.7z"/>
			<path d="M721.6,53.6h6.4v20.7c0,2.1-0.3,3.9-0.9,5.4c-0.6,1.5-1.4,2.8-2.5,3.8s-2.4,1.7-3.9,2.2s-3.2,0.7-5,0.7
				c-4.3,0-7.6-0.9-9.9-2.8c-2.3-1.9-3.4-4.7-3.4-8.5V53.6h6.8v20.2c0,2.5,0.5,4.2,1.6,5.1c1.1,1,2.7,1.4,4.8,1.4
				c2,0,3.5-0.5,4.5-1.5s1.5-2.7,1.5-5L721.6,53.6L721.6,53.6z"/>
			<path d="M733.9,53.9c0.7-0.1,1.5-0.2,2.4-0.3s1.8-0.2,2.6-0.3c0.9-0.1,1.8-0.1,2.6-0.1s1.6,0,2.3,0c1.6,0,3.2,0.1,4.8,0.4
				s3,0.8,4.2,1.4c1.2,0.7,2.2,1.6,3,2.8s1.2,2.7,1.2,4.4c0,2.6-0.7,4.8-2,6.5c-1.3,1.7-3.1,2.9-5.4,3.5l2.4,1.4l8,12.2h-7.9
				l-8-12.5l-3.6-0.6v13h-6.8V53.9H733.9z M744.3,59.1c-0.7,0-1.4,0-2,0c-0.7,0-1.2,0.1-1.6,0.2v8.9h2.9c1.9,0,3.5-0.4,4.6-1.1
				s1.7-2,1.7-3.8c0-1.3-0.5-2.4-1.4-3.1C747.4,59.4,746.1,59.1,744.3,59.1z"/>
		</g>
	</g>
	<g>
		<path class="st0" d="M387.2,65.9h0.5c0-14.5,5.9-27.7,15.4-37.2s22.7-15.4,37.2-15.4s27.7,5.9,37.2,15.4s15.4,22.7,15.4,37.2
			s-5.9,27.7-15.4,37.2s-22.7,15.4-37.2,15.4s-27.7-5.9-37.2-15.4s-15.4-22.7-15.4-37.2L387.2,65.9h-0.5c0,29.6,24,53.6,53.6,53.6
			s53.6-24,53.6-53.6s-24-53.6-53.6-53.6s-53.6,24-53.6,53.6H387.2z"/>
	</g>
	<g>
		<path class="st0" d="M485.5,42.1c-2.4,0-4.4-2-4.4-4.4s2-4.4,4.4-4.4s4.4,2,4.4,4.4C489.8,40.2,487.9,42.1,485.5,42.1L485.5,42.1z
			 M485.5,37.3c-0.2,0-0.4,0.2-0.4,0.4s0.2,0.4,0.4,0.4c0.2,0,0.4-0.2,0.4-0.4S485.7,37.3,485.5,37.3z"/>
		<path class="st1" d="M485.5,34.9c1.6,0,2.9,1.3,2.9,2.9s-1.3,2.9-2.9,2.9s-2.9-1.3-2.9-2.9S483.9,34.9,485.5,34.9 M485.5,39.7
			c1.1,0,1.9-0.9,1.9-1.9c0-1.1-0.9-1.9-1.9-1.9c-1.1,0-1.9,0.9-1.9,1.9C483.5,38.8,484.4,39.7,485.5,39.7 M485.5,31.9L485.5,31.9
			L485.5,31.9c-3.2,0-5.9,2.6-5.9,5.9c0,3.2,2.6,5.9,5.9,5.9c3.2,0,5.9-2.6,5.9-5.9C491.3,34.5,488.7,31.9,485.5,31.9L485.5,31.9z"
			/>
	</g>
	<g>
		<path d="M427.4,80.9c0,3.5-1.1,6.2-3.3,8.1c-2.2,1.9-4.9,2.9-8.3,2.9c-3.2,0-6-0.9-8.1-2.7c-2.2-1.8-3.3-4.4-3.4-7.9h5.4
			c0.1,1.9,0.7,3.3,1.9,4.3c1.1,1,2.6,1.4,4.3,1.4c1.8,0,3.3-0.6,4.4-1.7s1.7-2.6,1.7-4.6c0-1.9-0.5-3.5-1.6-4.6s-2.6-1.6-4.7-1.6
			h-0.9v-4.7h0.9c1.9,0,3.3-0.5,4.3-1.5s1.4-2.4,1.4-4.2c0-1.8-0.5-3.3-1.6-4.3s-2.4-1.5-4-1.5s-2.9,0.5-3.9,1.5s-1.6,2.3-1.7,3.9
			h-5.4c0.1-3.1,1.3-5.6,3.3-7.5c2.1-1.9,4.7-2.8,7.7-2.8c3.2,0,5.8,1,7.9,2.9c2,2,3.1,4.5,3.1,7.6c0,3.8-1.6,6.5-4.7,8
			C425.7,73.6,427.4,76.5,427.4,80.9z"/>
		<path d="M452.6,64.4c0,3.5-1,6.2-3.1,8.3c-2.1,2.1-4.7,3.1-8,3.1s-6-1-8.1-3s-3.1-4.8-3.1-8.2c0-2.4,0.9-5.5,2.8-9.3l8.6-17.5h5.8
			L439.4,54c0.9-0.4,2-0.6,3.3-0.6c2.8,0,5.1,1,7,3S452.6,61.2,452.6,64.4z M447.2,64.5c0-1.9-0.5-3.5-1.6-4.7
			c-1-1.2-2.4-1.8-4.2-1.8c-1.7,0-3.1,0.6-4.2,1.7c-1,1.2-1.6,2.8-1.6,4.8c0,2,0.5,3.6,1.6,4.8c1.1,1.2,2.4,1.8,4.1,1.8
			s3.1-0.6,4.2-1.8C446.7,68.1,447.2,66.5,447.2,64.5z"/>
	</g>
	<g>
		<path d="M466.9,58c1.5,0,3,0.5,4.2,1.6c2.6,2.3,2.8,6.3,0.5,8.9c-1.2,1.4-3,2.1-4.7,2.1c-1.5,0-3-0.5-4.2-1.6
			c-2.6-2.3-2.8-6.3-0.5-8.9C463.5,58.7,465.2,58,466.9,58 M466.9,53L466.9,53c-3.2,0-6.2,1.4-8.4,3.7c-2,2.2-3.1,5.1-2.9,8.1
			s1.5,5.8,3.7,7.8c2.1,1.9,4.8,2.9,7.6,2.9c3.2,0,6.2-1.4,8.4-3.7c4.2-4.6,3.8-11.8-0.8-16C472.4,54,469.7,53,466.9,53z"/>
	</g>
</g>
<g>
	<path class="st2" d="M142.3,66.8c0-0.2-0.1-0.4-0.3-0.6c-0.2-0.1-0.5-0.3-0.8-0.4s-0.6-0.2-1-0.4c-0.4-0.1-0.7-0.3-1-0.5
		s-0.6-0.5-0.8-0.8c-0.2-0.3-0.3-0.7-0.3-1.2c0-0.4,0.1-0.8,0.2-1.1c0.1-0.3,0.4-0.6,0.6-0.8c0.3-0.2,0.6-0.4,1-0.5s0.8-0.2,1.3-0.2
		s1,0,1.5,0.1s0.9,0.2,1.2,0.4l-0.6,1.5c-0.1-0.1-0.2-0.1-0.4-0.2c-0.1-0.1-0.3-0.1-0.5-0.2c-0.2,0-0.4-0.1-0.6-0.1
		c-0.2,0-0.4,0-0.7,0c-0.4,0-0.7,0.1-0.9,0.2c-0.2,0.1-0.3,0.3-0.3,0.6c0,0.2,0.1,0.4,0.3,0.6s0.5,0.3,0.8,0.4s0.6,0.2,1,0.4
		c0.4,0.1,0.7,0.3,1,0.5s0.6,0.4,0.8,0.7s0.3,0.7,0.3,1.1s-0.1,0.9-0.2,1.2c-0.2,0.3-0.4,0.6-0.7,0.8s-0.6,0.4-1.1,0.5
		c-0.4,0.1-0.9,0.2-1.3,0.2c-0.3,0-0.6,0-0.9-0.1c-0.3,0-0.6-0.1-0.8-0.1s-0.5-0.1-0.7-0.2s-0.3-0.1-0.4-0.2l0.6-1.5
		c0.1,0,0.2,0.1,0.4,0.2s0.3,0.1,0.5,0.2s0.4,0.1,0.6,0.1c0.2,0,0.4,0,0.7,0c0.5,0,0.9-0.1,1.2-0.2
		C142.1,67.4,142.3,67.1,142.3,66.8z"/>
	<path class="st2" d="M145.5,60.7h5.4v1.6h-3.6v1.8h3.3v1.6h-3.3v1.9h3.7v1.6h-5.5L145.5,60.7L145.5,60.7z"/>
	<path class="st2" d="M157.6,65.7h-3.4v3.5h-1.8v-8.4h1.8v3.4h3.4v-3.4h1.8v8.4h-1.8V65.7z"/>
	<path class="st2" d="M161.2,60.7h5.4v1.6H163v1.8h3.3v1.6H163v1.9h3.7v1.6h-5.5V60.7z"/>
	<path class="st2" d="M170.5,64.7l-0.7-1.3h-0.1l0.2,1.3v4.4h-1.7v-8.5h1.3l3.5,4.5l0.7,1.2h0.1l-0.2-1.2v-4.4h1.7v8.5H174
		L170.5,64.7z"/>
	<path class="st2" d="M184.5,66.8c0-0.2-0.1-0.4-0.3-0.6s-0.5-0.3-0.8-0.4s-0.6-0.2-1-0.4s-0.7-0.3-1-0.5s-0.6-0.5-0.8-0.8
		c-0.2-0.3-0.3-0.7-0.3-1.2c0-0.4,0.1-0.8,0.2-1.1c0.1-0.3,0.4-0.6,0.6-0.8c0.3-0.2,0.6-0.4,1-0.5s0.8-0.2,1.3-0.2s1,0,1.5,0.1
		s0.9,0.2,1.2,0.4l-0.6,1.5c-0.1-0.1-0.2-0.1-0.4-0.2s-0.3-0.1-0.5-0.2c-0.2,0-0.4-0.1-0.6-0.1c-0.2,0-0.4,0-0.7,0
		c-0.4,0-0.7,0.1-0.9,0.2c-0.2,0.1-0.3,0.3-0.3,0.6c0,0.2,0.1,0.4,0.3,0.6s0.5,0.3,0.8,0.4c0.3,0.1,0.6,0.2,1,0.4
		c0.4,0.1,0.7,0.3,1,0.5s0.6,0.4,0.8,0.7s0.3,0.7,0.3,1.1s-0.1,0.9-0.2,1.2c-0.2,0.3-0.4,0.6-0.7,0.8s-0.6,0.4-1,0.5
		s-0.9,0.2-1.3,0.2c-0.3,0-0.6,0-0.9-0.1c-0.3,0-0.6-0.1-0.8-0.1s-0.5-0.1-0.7-0.2s-0.3-0.1-0.4-0.2l0.6-1.5c0.1,0,0.2,0.1,0.4,0.2
		s0.3,0.1,0.5,0.2s0.4,0.1,0.6,0.1c0.2,0,0.4,0,0.7,0c0.5,0,0.9-0.1,1.2-0.2C184.4,67.4,184.5,67.1,184.5,66.8z"/>
	<path class="st2" d="M188.4,61.7h-1v-1h3.7v1h-1v6.5h1v1h-3.7v-1h1V61.7z"/>
	<path class="st2" d="M192.6,60.7h5.4v1.6h-3.6v1.8h3.3v1.6h-3.3v1.9h3.7v1.6h-5.5L192.6,60.7L192.6,60.7z"/>
	<path class="st2" d="M207.1,66.8c0-0.2-0.1-0.4-0.3-0.6c-0.2-0.1-0.5-0.3-0.8-0.4s-0.6-0.2-1-0.4c-0.4-0.1-0.7-0.3-1-0.5
		s-0.6-0.5-0.8-0.8c-0.2-0.3-0.3-0.7-0.3-1.2c0-0.4,0.1-0.8,0.2-1.1c0.1-0.3,0.4-0.6,0.6-0.8c0.3-0.2,0.6-0.4,1-0.5s0.8-0.2,1.3-0.2
		s1,0,1.5,0.1s0.9,0.2,1.2,0.4l-0.6,1.5c-0.1-0.1-0.2-0.1-0.4-0.2s-0.3-0.1-0.5-0.2c-0.2,0-0.4-0.1-0.6-0.1c-0.2,0-0.4,0-0.7,0
		c-0.4,0-0.7,0.1-0.9,0.2c-0.2,0.1-0.3,0.3-0.3,0.6c0,0.2,0.1,0.4,0.3,0.6s0.5,0.3,0.8,0.4c0.3,0.1,0.6,0.2,1,0.4
		c0.4,0.1,0.7,0.3,1,0.5s0.6,0.4,0.8,0.7s0.3,0.7,0.3,1.1s-0.1,0.9-0.2,1.2c-0.2,0.3-0.4,0.6-0.7,0.8s-0.6,0.4-1.1,0.5
		c-0.4,0.1-0.9,0.2-1.3,0.2c-0.3,0-0.6,0-0.9-0.1s-0.6-0.1-0.8-0.1s-0.5-0.1-0.7-0.2s-0.3-0.1-0.5-0.2l0.6-1.5
		c0.1,0,0.2,0.1,0.4,0.2s0.3,0.1,0.5,0.2s0.4,0.1,0.6,0.1c0.2,0,0.4,0,0.7,0c0.5,0,0.9-0.1,1.2-0.2C207,67.4,207.1,67.1,207.1,66.8z
		"/>
	<path class="st2" d="M211,61.7h-1v-1h3.7v1h-1v6.5h1v1H210v-1h1V61.7z"/>
	<path class="st2" d="M221.4,68.8c-0.3,0.2-0.6,0.3-1,0.4s-0.9,0.1-1.3,0.1c-0.5,0-1.1-0.1-1.5-0.2c-0.5-0.2-0.9-0.4-1.3-0.8
		c-0.4-0.4-0.7-0.8-0.9-1.4s-0.3-1.2-0.3-2s0.1-1.5,0.4-2.1c0.3-0.6,0.6-1,1-1.3s0.8-0.6,1.3-0.7s1-0.2,1.4-0.2c0.5,0,1,0,1.3,0.1
		c0.4,0.1,0.7,0.1,0.9,0.2l-0.3,1.5c-0.2-0.1-0.4-0.2-0.7-0.2s-0.6-0.1-1-0.1s-0.7,0.1-1,0.2c-0.3,0.1-0.5,0.3-0.8,0.5
		s-0.4,0.5-0.5,0.9s-0.2,0.8-0.2,1.2c0,0.4,0.1,0.8,0.2,1.1c0.1,0.3,0.3,0.6,0.5,0.9c0.2,0.2,0.5,0.4,0.8,0.6
		c0.3,0.1,0.7,0.2,1.1,0.2c0.4,0,0.7,0,1-0.1s0.5-0.2,0.7-0.3L221.4,68.8z"/>
	<path class="st2" d="M227.9,65.7h-3.4v3.5h-1.8v-8.4h1.8v3.4h3.4v-3.4h1.8v8.4h-1.8V65.7z"/>
	<path class="st2" d="M240,60.7h1.7v5.4c0,0.5-0.1,1-0.2,1.4s-0.4,0.7-0.7,1s-0.6,0.4-1,0.6c-0.4,0.1-0.8,0.2-1.3,0.2
		c-1.1,0-2-0.2-2.6-0.7s-0.9-1.2-0.9-2.2v-5.6h1.8V66c0,0.6,0.1,1.1,0.4,1.3s0.7,0.4,1.2,0.4s0.9-0.1,1.2-0.4s0.4-0.7,0.4-1.3
		L240,60.7L240,60.7z"/>
	<path class="st2" d="M245.7,64.7l-0.7-1.3h-0.1l0.2,1.3v4.4h-1.7v-8.5h1.3l3.5,4.5l0.7,1.2h0.1l-0.2-1.2v-4.4h1.7v8.5h-1.3
		L245.7,64.7z"/>
	<path class="st2" d="M256.2,66.8c0-0.2-0.1-0.4-0.3-0.6s-0.5-0.3-0.8-0.4s-0.6-0.2-1-0.4c-0.4-0.1-0.7-0.3-1-0.5s-0.6-0.5-0.8-0.8
		c-0.2-0.3-0.3-0.7-0.3-1.2c0-0.4,0.1-0.8,0.2-1.1c0.1-0.3,0.4-0.6,0.6-0.8c0.3-0.2,0.6-0.4,1-0.5s0.8-0.2,1.3-0.2s1,0,1.5,0.1
		s0.9,0.2,1.2,0.4l-0.6,1.5c-0.1-0.1-0.2-0.1-0.4-0.2s-0.3-0.1-0.5-0.2c-0.2,0-0.4-0.1-0.6-0.1s-0.4,0-0.7,0c-0.4,0-0.7,0.1-0.9,0.2
		c-0.2,0.1-0.3,0.3-0.3,0.6c0,0.2,0.1,0.4,0.3,0.6c0.2,0.1,0.5,0.3,0.8,0.4c0.3,0.1,0.6,0.2,1,0.4c0.4,0.1,0.7,0.3,1,0.5
		s0.6,0.4,0.8,0.7s0.3,0.7,0.3,1.1s-0.1,0.9-0.2,1.2c-0.2,0.3-0.4,0.6-0.7,0.8s-0.6,0.4-1,0.5s-0.9,0.2-1.3,0.2
		c-0.3,0-0.6,0-0.9-0.1c-0.3,0-0.6-0.1-0.8-0.1s-0.5-0.1-0.7-0.2s-0.3-0.1-0.4-0.2l0.6-1.5c0.1,0,0.2,0.1,0.4,0.2s0.3,0.1,0.5,0.2
		s0.4,0.1,0.6,0.1s0.4,0,0.7,0c0.5,0,0.9-0.1,1.2-0.2C256,67.4,256.2,67.1,256.2,66.8z"/>
	<path class="st2" d="M259.4,60.7h5.4v1.6h-3.6v1.8h3.3v1.6h-3.3v1.9h3.7v1.6h-5.5V60.7z"/>
	<path class="st2" d="M266.4,60.8c0.2,0,0.4-0.1,0.6-0.1s0.5-0.1,0.7-0.1s0.5,0,0.7,0s0.4,0,0.6,0c0.4,0,0.8,0,1.3,0.1
		c0.4,0.1,0.8,0.2,1.1,0.4c0.3,0.2,0.6,0.4,0.8,0.7s0.3,0.7,0.3,1.2c0,0.7-0.2,1.3-0.5,1.7s-0.8,0.7-1.4,0.9l0.6,0.4l2.1,3.2h-2.1
		l-2.1-3.3l-0.9-0.1v3.4h-1.8L266.4,60.8L266.4,60.8z M269.1,62.2c-0.2,0-0.4,0-0.5,0c-0.2,0-0.3,0-0.4,0v2.3h0.8
		c0.5,0,0.9-0.1,1.2-0.3c0.3-0.2,0.4-0.5,0.4-1c0-0.4-0.1-0.6-0.4-0.8S269.6,62.2,269.1,62.2z"/>
	<path class="st2" d="M274.5,60.7h5.4v1.6h-3.6v1.8h3.3v1.6h-3.3v1.9h3.7v1.6h-5.5V60.7z"/>
	<path class="st2" d="M283.8,64.7l-0.7-1.3H283l0.2,1.3v4.4h-1.7v-8.5h1.3l3.5,4.5l0.7,1.2h0.1l-0.2-1.2v-4.4h1.7v8.5h-1.3
		L283.8,64.7z"/>
	<path class="st2" d="M297.8,66.8c0-0.2-0.1-0.4-0.3-0.6c-0.2-0.1-0.5-0.3-0.8-0.4s-0.6-0.2-1-0.4c-0.4-0.1-0.7-0.3-1-0.5
		s-0.6-0.5-0.8-0.8c-0.2-0.3-0.3-0.7-0.3-1.2c0-0.4,0.1-0.8,0.2-1.1s0.4-0.6,0.6-0.8c0.3-0.2,0.6-0.4,1-0.5s0.8-0.2,1.3-0.2
		s1,0,1.5,0.1s0.9,0.2,1.2,0.4l-0.6,1.5c-0.1-0.1-0.2-0.1-0.4-0.2c-0.1-0.1-0.3-0.1-0.5-0.2c-0.2,0-0.4-0.1-0.6-0.1s-0.4,0-0.7,0
		c-0.4,0-0.7,0.1-0.9,0.2c-0.2,0.1-0.3,0.3-0.3,0.6c0,0.2,0.1,0.4,0.3,0.6s0.5,0.3,0.8,0.4s0.6,0.2,1,0.4c0.4,0.1,0.7,0.3,1,0.5
		s0.6,0.4,0.8,0.7s0.3,0.7,0.3,1.1s-0.1,0.9-0.2,1.2c-0.2,0.3-0.4,0.6-0.7,0.8s-0.6,0.4-1.1,0.5c-0.4,0.1-0.9,0.2-1.3,0.2
		c-0.3,0-0.6,0-0.9-0.1c-0.3,0-0.6-0.1-0.8-0.1s-0.5-0.1-0.7-0.2s-0.3-0.1-0.4-0.2l0.6-1.5c0.1,0,0.2,0.1,0.4,0.2
		c0.2,0.1,0.3,0.1,0.5,0.2s0.4,0.1,0.6,0.1s0.4,0,0.7,0c0.5,0,0.9-0.1,1.2-0.2C297.6,67.4,297.8,67.1,297.8,66.8z"/>
	<path class="st2" d="M306.1,65.7h-3.4v3.5H301v-8.4h1.8v3.4h3.4v-3.4h1.8v8.4h-1.8L306.1,65.7L306.1,65.7z"/>
	<path class="st2" d="M309.4,64.9c0-0.7,0.1-1.3,0.3-1.8c0.2-0.5,0.4-1,0.8-1.4s0.7-0.7,1.2-0.9s1-0.3,1.6-0.3s1.2,0.1,1.7,0.3
		s0.9,0.5,1.2,0.9c0.3,0.4,0.6,0.8,0.7,1.4c0.2,0.5,0.2,1.1,0.2,1.8s-0.1,1.3-0.3,1.8s-0.4,1-0.8,1.4s-0.7,0.7-1.2,0.9
		c-0.5,0.2-1,0.3-1.6,0.3s-1.2-0.1-1.7-0.3c-0.5-0.2-0.9-0.5-1.2-0.9c-0.3-0.4-0.6-0.8-0.7-1.4S309.4,65.6,309.4,64.9z M311.3,64.9
		c0,0.4,0,0.8,0.1,1.1c0.1,0.3,0.2,0.6,0.4,0.9s0.4,0.4,0.6,0.6c0.3,0.1,0.5,0.2,0.9,0.2c0.6,0,1.1-0.2,1.5-0.6s0.5-1.2,0.5-2.2
		c0-0.4,0-0.8-0.1-1.1s-0.2-0.6-0.4-0.9c-0.2-0.3-0.4-0.4-0.6-0.6s-0.6-0.2-0.9-0.2c-0.6,0-1.1,0.2-1.5,0.7S311.3,63.9,311.3,64.9z"
		/>
	<path class="st2" d="M320.7,65.3l0.2,1.5l0,0l0.2-1.5l1.6-4.6h1.2l1.6,4.6l0.2,1.5h0.1l0.2-1.5l1.1-4.6h1.8l-2.5,8.5H325l-1.6-4.6
		l-0.2-1.3h-0.1l-0.2,1.3l-1.6,4.6H320l-2.5-8.5h1.9L320.7,65.3z"/>
	<path class="st2" d="M329.8,60.8c0.2,0,0.4-0.1,0.6-0.1s0.5-0.1,0.7-0.1s0.5,0,0.7,0s0.4,0,0.6,0c0.4,0,0.8,0,1.3,0.1
		c0.4,0.1,0.8,0.2,1.1,0.4c0.3,0.2,0.6,0.4,0.8,0.7c0.2,0.3,0.3,0.7,0.3,1.2c0,0.7-0.2,1.3-0.5,1.7s-0.8,0.7-1.4,0.9l0.6,0.4
		l2.1,3.2h-2.1l-2.1-3.3l-0.9-0.1v3.4h-1.8L329.8,60.8L329.8,60.8z M332.5,62.2c-0.2,0-0.4,0-0.5,0c-0.2,0-0.3,0-0.4,0v2.3h0.8
		c0.5,0,0.9-0.1,1.2-0.3c0.3-0.2,0.4-0.5,0.4-1c0-0.4-0.1-0.6-0.4-0.8C333.3,62.3,333,62.2,332.5,62.2z"/>
	<path class="st2" d="M337.1,64.9c0-0.7,0.1-1.3,0.3-1.8s0.4-1,0.8-1.4c0.3-0.4,0.7-0.7,1.2-0.9s1-0.3,1.6-0.3s1.2,0.1,1.7,0.3
		s0.9,0.5,1.2,0.9c0.3,0.4,0.6,0.8,0.7,1.4c0.2,0.5,0.2,1.1,0.2,1.8s-0.1,1.3-0.3,1.8c-0.2,0.5-0.4,1-0.8,1.4s-0.7,0.7-1.2,0.9
		c-0.5,0.2-1,0.3-1.6,0.3s-1.2-0.1-1.7-0.3c-0.5-0.2-0.9-0.5-1.2-0.9s-0.6-0.8-0.7-1.4C337.2,66.2,337.1,65.6,337.1,64.9z M339,64.9
		c0,0.4,0,0.8,0.1,1.1c0.1,0.3,0.2,0.6,0.4,0.9c0.2,0.2,0.4,0.4,0.6,0.6c0.3,0.1,0.6,0.2,0.9,0.2c0.6,0,1.1-0.2,1.5-0.6
		s0.5-1.2,0.5-2.2c0-0.4,0-0.8-0.1-1.1c-0.1-0.3-0.2-0.6-0.4-0.9c-0.2-0.3-0.4-0.4-0.6-0.6s-0.6-0.2-0.9-0.2c-0.6,0-1.1,0.2-1.5,0.7
		C339.2,63.2,339,63.9,339,64.9z"/>
	<path class="st2" d="M346.1,64.9c0-0.7,0.1-1.3,0.3-1.8s0.4-1,0.8-1.4c0.3-0.4,0.7-0.7,1.2-0.9s1-0.3,1.6-0.3s1.2,0.1,1.7,0.3
		s0.9,0.5,1.2,0.9c0.3,0.4,0.6,0.8,0.7,1.4c0.2,0.5,0.2,1.1,0.2,1.8s-0.1,1.3-0.3,1.8c-0.2,0.5-0.4,1-0.8,1.4s-0.7,0.7-1.2,0.9
		c-0.5,0.2-1,0.3-1.6,0.3s-1.2-0.1-1.7-0.3c-0.5-0.2-0.9-0.5-1.2-0.9s-0.6-0.8-0.7-1.4C346.1,66.2,346.1,65.6,346.1,64.9z M348,64.9
		c0,0.4,0,0.8,0.1,1.1c0.1,0.3,0.2,0.6,0.4,0.9c0.2,0.2,0.4,0.4,0.6,0.6c0.3,0.1,0.6,0.2,0.9,0.2c0.6,0,1.1-0.2,1.5-0.6
		s0.5-1.2,0.5-2.2c0-0.4,0-0.8-0.1-1.1c-0.1-0.3-0.2-0.6-0.4-0.9c-0.2-0.3-0.4-0.4-0.6-0.6s-0.6-0.2-0.9-0.2c-0.6,0-1.1,0.2-1.5,0.7
		C348.1,63.2,348,63.9,348,64.9z"/>
	<path class="st2" d="M362.4,64.9l0.2-1.7h-0.1l-0.6,1.3l-1.9,3.1h-0.6l-2.1-3.1l-0.6-1.3h-0.1l0.3,1.7v4.2h-1.7v-8.4h1.6l2.4,3.9
		l0.5,0.9h0.1l0.4-0.9l2.3-3.9h1.6v8.4h-1.8v-4.2H362.4z"/>
	<path class="st2" d="M197.8,76.7h1.8v6.1c0,0.3,0,0.6-0.1,0.9s-0.2,0.5-0.4,0.8c-0.2,0.2-0.4,0.4-0.7,0.6c-0.3,0.1-0.6,0.2-1,0.2
		c-0.3,0-0.5,0-0.8-0.1s-0.6-0.1-0.8-0.2l0.4-1.4c0.2,0.1,0.5,0.2,0.8,0.2c0.2,0,0.3,0,0.4-0.1c0.1-0.1,0.2-0.2,0.3-0.3
		c0.1-0.1,0.1-0.3,0.1-0.4c0-0.2,0-0.3,0-0.5V76.7z"/>
	<path class="st2" d="M201.4,76.7h5.4v1.6h-3.6v1.8h3.3v1.6h-3.3v1.9h3.7v1.6h-5.5L201.4,76.7L201.4,76.7z"/>
	<path class="st2" d="M214.9,78.2h-2.7V85h-1.8v-6.8h-2.7v-1.6h7.1L214.9,78.2L214.9,78.2z"/>
	<path class="st2" d="M215,83.5l3.9-4.8l0.7-0.5H215v-1.6h6.3v1.6l-3.9,4.8l-0.7,0.5h4.5v1.6H215V83.5z"/>
	<path class="st2" d="M228.8,78.2h-2.7V85h-1.8v-6.8h-2.7v-1.6h7.1L228.8,78.2L228.8,78.2z"/>
	<path class="st2" d="M233.7,77.6h-1v-1h3.7v1h-1v6.5h1v1h-3.7v-1h1V77.6z"/>
	<path class="st2" d="M240.2,80.7l-0.7-1.3h-0.1l0.2,1.3v4.4h-1.7v-8.5h1.3l3.5,4.5l0.7,1.2h0.1l-0.2-1.2v-4.4h1.7v8.5h-1.3
		L240.2,80.7z"/>
	<path class="st2" d="M250.3,76.7c0.2,0,0.4,0,0.6-0.1c0.2,0,0.5,0,0.7,0s0.5,0,0.7,0s0.4,0,0.6,0c0.8,0,1.5,0.1,2.1,0.3
		c0.6,0.2,1,0.5,1.4,0.9s0.6,0.8,0.8,1.3c0.2,0.5,0.3,1.1,0.3,1.7s-0.1,1.1-0.2,1.6s-0.4,1-0.8,1.4s-0.8,0.7-1.4,1
		c-0.6,0.2-1.3,0.4-2.2,0.4c-0.1,0-0.3,0-0.6,0c-0.2,0-0.5,0-0.7,0c-0.3,0-0.5,0-0.7,0s-0.4,0-0.5,0L250.3,76.7L250.3,76.7z
		 M253.1,78.1c-0.2,0-0.4,0-0.6,0c-0.2,0-0.3,0-0.4,0v5.4c0,0,0.1,0,0.2,0s0.2,0,0.3,0s0.2,0,0.3,0s0.1,0,0.2,0
		c0.5,0,0.9-0.1,1.3-0.2c0.3-0.2,0.6-0.4,0.8-0.6s0.3-0.6,0.4-0.9s0.1-0.7,0.1-1s0-0.6-0.1-0.9s-0.2-0.6-0.4-0.9s-0.4-0.5-0.8-0.7
		C254,78.2,253.6,78.1,253.1,78.1z"/>
	<path class="st2" d="M258.9,76.7h5.4v1.6h-3.6v1.8h3.3v1.6h-3.3v1.9h3.7v1.6h-5.5V76.7z"/>
	<path class="st2" d="M266,76.8c0.2,0,0.4-0.1,0.6-0.1s0.5-0.1,0.7-0.1s0.5,0,0.7,0s0.4,0,0.6,0c0.4,0,0.8,0,1.3,0.1
		c0.4,0.1,0.8,0.2,1.1,0.4c0.3,0.2,0.6,0.4,0.8,0.7c0.2,0.3,0.3,0.7,0.3,1.2c0,0.7-0.2,1.3-0.5,1.7c-0.3,0.4-0.8,0.7-1.4,0.9
		l0.6,0.4l2.1,3.2h-2.1l-2.1-3.3l-0.9-0.1v3.4H266V76.8z M268.7,78.1c-0.2,0-0.4,0-0.5,0c-0.2,0-0.3,0-0.4,0v2.3h0.8
		c0.5,0,0.9-0.1,1.2-0.3s0.4-0.5,0.4-1c0-0.4-0.1-0.6-0.4-0.8C269.5,78.2,269.2,78.1,268.7,78.1z"/>
	<path class="st2" d="M279.8,83.8c0.3,0,0.5,0,0.7-0.1s0.4-0.2,0.5-0.3s0.2-0.3,0.3-0.4c0.1-0.2,0.1-0.3,0.1-0.5
		c0-0.4-0.1-0.8-0.4-1s-0.8-0.3-1.4-0.3h-0.9v-0.9l1.5-1.9l0.8-0.6l-1,0.1h-2.2v-1.4h5v0.9l-1.8,2.2l-0.6,0.3V80l0.6-0.1
		c0.3,0,0.6,0.1,0.8,0.2c0.3,0.1,0.5,0.3,0.7,0.5s0.4,0.4,0.5,0.7s0.2,0.6,0.2,1c0,0.5-0.1,0.9-0.3,1.2c-0.2,0.3-0.4,0.6-0.7,0.9
		c-0.3,0.2-0.6,0.4-1,0.5s-0.8,0.2-1.3,0.2c-0.2,0-0.4,0-0.6,0s-0.4,0-0.6-0.1c-0.2,0-0.4-0.1-0.5-0.1s-0.3-0.1-0.5-0.2l0.5-1.4
		c0.2,0.1,0.5,0.2,0.8,0.3C279.2,83.8,279.5,83.8,279.8,83.8z"/>
	<path class="st2" d="M290.8,82.5c0,0.4-0.1,0.7-0.2,1.1s-0.3,0.6-0.6,0.9c-0.3,0.3-0.6,0.5-0.9,0.6c-0.4,0.1-0.8,0.2-1.2,0.2
		c-0.4,0-0.9-0.1-1.2-0.2c-0.4-0.1-0.7-0.3-1-0.6c-0.3-0.3-0.5-0.6-0.7-1s-0.2-0.9-0.2-1.4c0-0.8,0.1-1.5,0.4-2.1
		c0.2-0.6,0.6-1.2,1-1.7s0.9-0.9,1.5-1.2c0.6-0.3,1.2-0.5,1.8-0.6l0.3,1.3c-0.4,0.1-0.8,0.2-1.2,0.4c-0.4,0.2-0.7,0.4-1,0.6
		c-0.3,0.3-0.5,0.5-0.7,0.8s-0.3,0.6-0.4,0.9c0.2-0.2,0.4-0.4,0.7-0.5c0.3-0.1,0.6-0.2,1-0.2s0.8,0.1,1.1,0.2
		c0.3,0.1,0.6,0.3,0.9,0.5s0.4,0.5,0.5,0.8C290.7,81.7,290.8,82.1,290.8,82.5z M289.1,82.5c0-0.8-0.5-1.3-1.4-1.3
		c-0.4,0-0.6,0.1-0.9,0.2s-0.4,0.3-0.5,0.5c0,0.1,0,0.2,0,0.2v0.1c0,0.2,0,0.4,0.1,0.5c0.1,0.2,0.1,0.3,0.3,0.5
		c0.1,0.1,0.3,0.3,0.5,0.3c0.2,0.1,0.4,0.1,0.6,0.1s0.4,0,0.6-0.1s0.3-0.2,0.4-0.3c0.1-0.1,0.2-0.3,0.3-0.4
		C289.1,82.9,289.1,82.7,289.1,82.5z"/>
	<path class="st2" d="M291.8,80.9c0-1.4,0.3-2.5,0.8-3.3c0.5-0.7,1.3-1.1,2.4-1.1s1.9,0.4,2.4,1.1s0.8,1.8,0.8,3.3
		c0,1.4-0.3,2.5-0.8,3.3s-1.3,1.1-2.4,1.1c-0.5,0-1-0.1-1.4-0.3c-0.4-0.2-0.7-0.5-1-0.9s-0.5-0.8-0.6-1.4
		C291.9,82.1,291.8,81.5,291.8,80.9z M293.6,80.9c0,0.9,0.1,1.6,0.3,2.2c0.2,0.5,0.6,0.8,1.1,0.8s0.9-0.2,1.1-0.7s0.3-1.2,0.3-2.3
		c0-0.5,0-0.9-0.1-1.2s-0.1-0.7-0.2-0.9c-0.1-0.3-0.3-0.5-0.4-0.6c-0.2-0.1-0.4-0.2-0.7-0.2c-0.5,0-0.9,0.2-1.1,0.8
		S293.6,79.9,293.6,80.9z"/>
	<path class="st2" d="M299.5,78.5c0-0.3,0.1-0.6,0.2-0.8c0.1-0.2,0.3-0.5,0.5-0.6c0.2-0.2,0.4-0.3,0.7-0.4c0.3-0.1,0.5-0.1,0.8-0.1
		s0.6,0,0.8,0.1s0.5,0.2,0.7,0.4c0.2,0.2,0.4,0.4,0.5,0.6s0.2,0.5,0.2,0.9c0,0.3-0.1,0.6-0.2,0.8c-0.1,0.2-0.3,0.5-0.5,0.6
		c-0.2,0.2-0.4,0.3-0.7,0.4s-0.5,0.1-0.8,0.1s-0.5,0-0.8-0.1s-0.5-0.2-0.7-0.4c-0.2-0.2-0.4-0.4-0.5-0.6
		C299.6,79.1,299.5,78.8,299.5,78.5z M300.8,78.5c0,0.2,0.1,0.4,0.3,0.6s0.4,0.2,0.6,0.2s0.4-0.1,0.6-0.2s0.3-0.3,0.3-0.6
		s-0.1-0.4-0.3-0.6c-0.2-0.1-0.4-0.2-0.6-0.2s-0.4,0.1-0.6,0.2C300.9,78.1,300.8,78.3,300.8,78.5z"/>
	<path class="st2" d="M305.4,80.9h3.3v1.5h-3.3V80.9z"/>
	<path class="st2" d="M316,78.2h-2.7V85h-1.8v-6.8h-2.7v-1.6h7.1v1.6H316z"/>
	<path class="st2" d="M316.3,80.9c0-0.7,0.1-1.3,0.3-1.8c0.2-0.5,0.4-1,0.8-1.4c0.3-0.4,0.7-0.7,1.2-0.9c0.5-0.2,1-0.3,1.6-0.3
		s1.2,0.1,1.7,0.3c0.5,0.2,0.9,0.5,1.2,0.9c0.3,0.4,0.6,0.8,0.7,1.4c0.2,0.5,0.2,1.1,0.2,1.8c0,0.7-0.1,1.3-0.3,1.8
		c-0.2,0.5-0.4,1-0.8,1.4s-0.7,0.7-1.2,0.9c-0.5,0.2-1,0.3-1.6,0.3s-1.2-0.1-1.7-0.3c-0.5-0.2-0.9-0.5-1.2-0.9
		c-0.3-0.4-0.6-0.8-0.7-1.4C316.4,82.1,316.3,81.5,316.3,80.9z M318.2,80.9c0,0.4,0,0.8,0.1,1.1s0.2,0.6,0.4,0.9
		c0.2,0.2,0.4,0.4,0.6,0.6c0.3,0.1,0.6,0.2,0.9,0.2c0.6,0,1.1-0.2,1.5-0.6s0.5-1.2,0.5-2.2c0-0.4,0-0.8-0.1-1.1s-0.2-0.6-0.4-0.9
		s-0.4-0.4-0.6-0.6c-0.3-0.1-0.6-0.2-0.9-0.2c-0.6,0-1.1,0.2-1.5,0.7C318.4,79.2,318.2,79.9,318.2,80.9z"/>
	<path class="st2" d="M330.5,76.7h1.7v5.4c0,0.5-0.1,1-0.2,1.4s-0.4,0.7-0.7,1c-0.3,0.3-0.6,0.4-1,0.6c-0.4,0.1-0.8,0.2-1.3,0.2
		c-1.1,0-2-0.2-2.6-0.7s-0.9-1.2-0.9-2.2v-5.6h1.8v5.3c0,0.6,0.1,1.1,0.4,1.3s0.7,0.4,1.2,0.4s0.9-0.1,1.2-0.4
		c0.3-0.3,0.4-0.7,0.4-1.3V76.7z"/>
	<path class="st2" d="M334,76.8c0.2,0,0.4-0.1,0.6-0.1s0.5-0.1,0.7-0.1s0.5,0,0.7,0s0.4,0,0.6,0c0.4,0,0.8,0,1.3,0.1
		c0.4,0.1,0.8,0.2,1.1,0.4c0.3,0.2,0.6,0.4,0.8,0.7c0.2,0.3,0.3,0.7,0.3,1.2c0,0.7-0.2,1.3-0.5,1.7c-0.3,0.4-0.8,0.7-1.4,0.9
		l0.6,0.4l2.1,3.2h-2.1l-2.1-3.3l-0.9-0.1v3.4H334V76.8z M336.7,78.1c-0.2,0-0.4,0-0.5,0c-0.2,0-0.3,0-0.4,0v2.3h0.8
		c0.5,0,0.9-0.1,1.2-0.3s0.4-0.5,0.4-1c0-0.4-0.1-0.6-0.4-0.8C337.5,78.2,337.1,78.1,336.7,78.1z"/>
	<path class="st2" d="M349.6,83.3h-2.8l-0.7,1.8h-1.8l3.3-8.5h1.3l3.3,8.5h-1.9L349.6,83.3z M347.2,81.9h1.9l-0.6-1.8l-0.3-1.3h-0.1
		l-0.3,1.3L347.2,81.9z"/>
	<path class="st2" d="M355.5,80.7l-0.7-1.3h-0.1l0.2,1.3v4.4h-1.7v-8.5h1.3l3.5,4.5l0.7,1.2h0.1l-0.2-1.2v-4.4h1.7v8.5H359
		L355.5,80.7z"/>
	<path class="st2" d="M362.3,84.3c0-0.3,0.1-0.5,0.3-0.7c0.2-0.2,0.4-0.3,0.8-0.3c0.3,0,0.6,0.1,0.8,0.3s0.3,0.4,0.3,0.7
		c0,0.3-0.1,0.5-0.3,0.7s-0.4,0.3-0.8,0.3c-0.3,0-0.6-0.1-0.8-0.3C362.4,84.8,362.3,84.5,362.3,84.3z M362.5,76.7h1.8v3.9l-0.3,1.9
		h-1.1l-0.3-1.9v-3.9H362.5z"/>
</g>
</svg>
