<svg xmlns="http://www.w3.org/2000/svg" viewBox="0 0 95.3 71.66"><defs><style>.cls-1{opacity:0.4;}.cls-2{fill:#3eb5f1;}.cls-3{fill:#f3f2f2;}.cls-4{fill:none;stroke:#3eb5f1;stroke-miterlimit:10;}</style></defs><title>Ресурс 5</title><g id="Слой_2" data-name="Слой 2"><g id="_11" data-name="11"><g class="cls-1"><path class="cls-2" d="M0,42.13,11.39,59.8c4.86,7.66,8.4,11.86,15.45,11.86h1.9c9.83,0,19-5.34,19-11.86L59.43,71.58c-13,0-16.81-4.19-23.45-13.73L25.81,42.21Z"/></g><path class="cls-2" d="M64.17,19.26,43.42,54.16C33.5,69.64,31.21,71.66,25.29,71.66H55.35c10.75,0,11.18-3.09,16.93-12.59L87.52,31.42l7.78,4.44L93.12,0,55.89,14.48Z"/><path class="cls-3" d="M86.35,6.59l-8.9,14.89L50.46,66C48.3,69,46,71.63,41.06,71.66H50c1.24,0,2.73-2.24,4-4.33L89.29,9.87V5.13Z"/><line class="cls-4" x1="62.65" y1="41.04" x2="73.34" y2="47.1"/><line class="cls-4" x1="73.6" y1="22.23" x2="84.29" y2="28.3"/><line class="cls-4" x1="51.47" y1="57.33" x2="62.16" y2="63.39"/><path class="cls-4" d="M90,17.55"/><path class="cls-4" d="M79.27,11.48"/></g></g></svg>