<svg xmlns="http://www.w3.org/2000/svg" viewBox="0 0 107.3 107.3"><defs><style>.cls-1{fill:none;stroke:#000;stroke-miterlimit:10;}.cls-2{fill:#fff;}.cls-3{font-size:52.91px;font-family:DINAlternate-Bold, DIN Alternate;letter-spacing:-0.06em;}.cls-3,.cls-5{fill:#201600;}.cls-3,.cls-6{font-weight:700;}.cls-4{letter-spacing:-0.06em;}.cls-6{font-size:8.01px;fill:#48443e;font-family:PTSans-CaptionBold, PT Sans Caption;letter-spacing:0.02em;}</style></defs><title>Ресурс 3</title><g id="Слой_2" data-name="Слой 2"><g id="_3" data-name="3"><circle class="cls-1" cx="53.65" cy="53.65" r="53.15"/><path d="M98.79,29.84a4.36,4.36,0,1,1,4.36-4.36A4.37,4.37,0,0,1,98.79,29.84Zm-.43-4.36a.43.43,0,1,0,.43-.43A.43.43,0,0,0,98.36,25.48Z"/><path class="cls-2" d="M98.79,22.61a2.86,2.86,0,1,1-2.86,2.86h.93a1.93,1.93,0,1,0,1.93-1.93,1.93,1.93,0,0,0-1.93,1.93h-.93a2.86,2.86,0,0,1,2.86-2.86m0-3h0a5.87,5.87,0,0,0-5,2.86h-.83v6h.83a5.86,5.86,0,1,0,5-8.86Z"/><text class="cls-3" transform="translate(14.46 78.21)">3<tspan class="cls-4" x="22.43" y="-15.9">6</tspan></text><path class="cls-5" d="M78.88,44.46a6.3,6.3,0,1,1-6.3,6.3,6.3,6.3,0,0,1,6.3-6.3m0-5a11.3,11.3,0,1,0,11.3,11.3,11.31,11.31,0,0,0-11.3-11.3Z"/><text class="cls-6" transform="translate(46.31 74.94)">DREH</text></g></g></svg>