<svg xmlns="http://www.w3.org/2000/svg" viewBox="0 0 88.17 74.15"><defs><style>.cls-1,.cls-2{fill:#fff;}.cls-1{opacity:0.4;}.cls-3{fill:#fafbfb;}</style></defs><title>Ресурс 3</title><g id="Слой_2" data-name="Слой 2"><g id="_1" data-name="1"><rect class="cls-1" x="16.28" width="71.89" height="62.98"/><path class="cls-2" d="M49.32,20.3c0-2.76,0-3.76,0-4.35h4.18a7.8,7.8,0,0,1,.13,1.29,4.26,4.26,0,0,1,3.48-1.52,3.49,3.49,0,0,1,3.38,1.71,4.54,4.54,0,0,1,3.8-1.71A3.86,3.86,0,0,1,68.42,20V30H64.1V20.44A1.39,1.39,0,0,0,62.66,19a1.42,1.42,0,0,0-1.55,1.51V30H56.77V20.46A1.45,1.45,0,0,0,55.21,19a1.43,1.43,0,0,0-1.54,1.44V30H49.32Z"/><path class="cls-2" d="M72.07,22.64v-.15a4.92,4.92,0,0,1,2.38-4.34c1.15-.87,1.67-1.22,1.67-1.93,0-.42,0-.74-.46-.74s-.55.39-.58,1.35H71.94c.06-1,.24-3.32,4-3.32,2.51,0,3.74,1.19,3.74,2.81,0,1.1-.35,1.77-2,2.85a4.76,4.76,0,0,0-1.38,1.18h3.59l-.4,2.28Z"/><path class="cls-3" d="M47.36,42.2H68.76A1.28,1.28,0,0,1,70,43.48v24a1.19,1.19,0,0,1-1.19,1.19H6.55a1.19,1.19,0,0,1-1.19-1.19V12.71a1.19,1.19,0,0,1,1.19-1.19H22.62a1.19,1.19,0,0,1,.81.32L35.62,23.06a1.19,1.19,0,0,1,0,1.75L23.07,36.88V38.2c0,2.43-.06,6.72-.06,6.72L42.93,25.61a2.2,2.2,0,0,0,0-3.17L26.63,6.54a2.2,2.2,0,0,0-1.54-.63H2.2A2.2,2.2,0,0,0,0,8.12V71.94a2.2,2.2,0,0,0,2.2,2.2H73.31a2.2,2.2,0,0,0,2.2-2.2V39a2.2,2.2,0,0,0-2.2-2.2h-26Z"/></g></g></svg>