<svg xmlns="http://www.w3.org/2000/svg" viewBox="0 0 183.94 157.89"><defs><style>.cls-1{fill:#f3f2f2;}.cls-2{fill:#009FE3;}</style></defs><title>Ресурс 14</title><g id="Слой_2" data-name="Слой 2"><g id="_3" data-name="3"><path class="cls-1" d="M124.51,0c-3.54.95-7.07,1.93-10.6,2.91A77.15,77.15,0,1,1,6.51,87C4.39,88.78,2.18,90.46,0,92.14A84.55,84.55,0,1,0,124.51,0Z"/><rect class="cls-2" x="88.55" y="63.01" width="85.66" height="67.96"/><path class="cls-1" d="M115.92,66.76v47l9.37.76a3.18,3.18,0,0,1,.76.09,2.2,2.2,0,0,1,1.8,2.46H94.62v-2.46l12.78-.85V72.91L92.83,82.1l-1.7-2.75,19.22-12.59Z"/><path class="cls-1" d="M134.69,126.68l-2-1.42q4-4.17,4.07-6.82-.1-1.23-2.27-1.8a5.21,5.21,0,0,1-.95-.28,4.46,4.46,0,0,1-3.12-4.45,5.19,5.19,0,0,1,.47-2.18,4.56,4.56,0,0,1,4.45-3,5.37,5.37,0,0,1,1.7.28q3.88,1.14,3.88,6.34Q140.56,120,134.69,126.68Z"/><path class="cls-1" d="M180.34,116.93q-5.87,7.76-17.8,7.76A21.58,21.58,0,0,1,151.66,122q-6-3.5-6-9.18a5.22,5.22,0,0,1,4.73-4.92,5.14,5.14,0,0,1,3.22.95q1.51,1.23,2,5.87a19.43,19.43,0,0,0,.47,3.12q1,4.45,6.06,4.45A13.79,13.79,0,0,0,168,121.1q7.1-3.41,7.1-14.39a22.39,22.39,0,0,0-.76-6q-2.56-8.61-11.45-8.61a16.3,16.3,0,0,0-10.22,3.69l-3.12-2.37V66.76q15,.76,17.89.76a25.92,25.92,0,0,0,6.91-.66A5.05,5.05,0,0,0,178.07,63h2.27q0,7.1-2.27,9.56-2.56,2.56-12.4,2.56-5.21,0-13-.76V92.42a23.06,23.06,0,0,1,12.78-3.69,19.1,19.1,0,0,1,11.74,3.6q6.72,4.92,6.72,13.92A17,17,0,0,1,180.34,116.93Z"/><path class="cls-1" d="M49.81,105.13h2v-2.75l2.47-.61v3.36h4.38v.73H54.31v8.82q0,2.18,1.57,2.23T58,114.29l.78.15v.06q-.67,3.28-3.39,3.28-3.31-.12-3.51-3.92v-8h-2Z"/><path class="cls-1" d="M64.43,117A2.61,2.61,0,0,0,67,115.72a1.86,1.86,0,0,0,.2-.84q0-1.28-1.8-2.17-.38-.2-1.25-.58a9.23,9.23,0,0,1-3.1-1.86,3.2,3.2,0,0,1-.81-2.18,3,3,0,0,1,2.26-2.93,7,7,0,0,1,2.32-.38,6.41,6.41,0,0,1,3.33.81q0-.84.41-1a2,2,0,0,1,.38,0v3.63H68.2q-.06-2.67-3-2.7-2.09,0-2.61,1.28a2.19,2.19,0,0,0-.12.7q0,1.25,1.77,2.12.41.2,1.25.55a9.33,9.33,0,0,1,3.13,1.8,3.32,3.32,0,0,1,.84,2.26A3.14,3.14,0,0,1,67,117.43a7,7,0,0,1-2.15.32,7.21,7.21,0,0,1-3.77-1q0,.75-.38.87a2.53,2.53,0,0,1-.41,0v-4.41h.84Q61.18,116.93,64.43,117Z"/><path class="cls-1" d="M81.37,114.44A4.77,4.77,0,0,1,74,116.82a6.08,6.08,0,0,1-2.29-5.25,7.87,7.87,0,0,1,1.1-4.15,5.26,5.26,0,0,1,4.73-2.64,5,5,0,0,1,3.77,1.48V99.33H78.58v-.72H83.8l0,18.12h1.45a1.65,1.65,0,0,1,.32,0q.38.09.38.7H81.63Zm-6.61-.73q.72,2.84,3,2.84a2.92,2.92,0,0,0,1.91-.7q1.77-1.54,1.77-5.19a8.45,8.45,0,0,0-.43-2.84,3,3,0,0,0-2.9-2.29,2.84,2.84,0,0,0-1.51.41q-2.09,1.22-2.09,5.28A9.81,9.81,0,0,0,74.75,113.71Z"/><path class="cls-1" d="M91,116.67a1.49,1.49,0,0,1-1.45.93,1.59,1.59,0,0,1-.67-.15,1.49,1.49,0,0,1-.93-1.45,1.73,1.73,0,0,1,.17-.72,1.47,1.47,0,0,1,1.42-.9,1.54,1.54,0,0,1,.7.17,1.49,1.49,0,0,1,.9,1.45A1.6,1.6,0,0,1,91,116.67Z"/></g></g></svg>