<svg xmlns="http://www.w3.org/2000/svg" viewBox="0 0 55.44 83.39"><defs><style>.cls-1,.cls-2{fill:#f7f9fa;}.cls-2{opacity:0.5;}</style></defs><title>Ресурс 5</title><g id="Слой_2" data-name="Слой 2"><g id="_1" data-name="1"><path class="cls-1" d="M27.72,55.44A27.69,27.69,0,1,0,1,35.13l6.68-1.85a20.8,20.8,0,1,1,20,15.23v6.93Z"/><path class="cls-1" d="M15.76,56.09V47.64a8,8,0,0,1,.57-3.2,4.59,4.59,0,0,1,.89-1.37,5,5,0,0,1,2-1.25,8.17,8.17,0,0,1,2.72-.44h5.75a13.44,13.44,0,0,0,5.52-1.14,12.61,12.61,0,0,0,5.74-5.19,14.54,14.54,0,0,0,1.94-7.34,13.2,13.2,0,1,0-26.4,0,3.47,3.47,0,0,0,6.93,0,6.27,6.27,0,1,1,12.54,0,7.26,7.26,0,0,1-1.7,4.82,5.51,5.51,0,0,1-1.88,1.39,6.5,6.5,0,0,1-2.69.54H21.92a15.27,15.27,0,0,0-4.48.65,12.65,12.65,0,0,0-3.28,1.54,11.38,11.38,0,0,0-3.9,4.4,14.51,14.51,0,0,0-1.44,6.59c0,.6,0,7.81,0,8.44a3.47,3.47,0,0,0,6.93,0Z"/><path class="cls-2" d="M39.53,65.58a35.71,35.71,0,0,0-.42-5.88A18.55,18.55,0,0,0,38,55.56a12.48,12.48,0,0,0-1.63-2.83,10.5,10.5,0,0,0-4-3.18,13.25,13.25,0,0,0-5.45-1.07h0a3.5,3.5,0,1,0,0,7,5.83,5.83,0,0,1,2.91.61,3.51,3.51,0,0,1,1.14,1,8.28,8.28,0,0,1,1.24,3.23,27.17,27.17,0,0,1,.42,5.22c0,.05,0,.13,0,.24a17.52,17.52,0,0,1-.46,4,9.69,9.69,0,0,1-2.22,4.43,6.36,6.36,0,0,1-1.73,1.31,7.52,7.52,0,0,1-2.42.74,10.09,10.09,0,0,1-1.42.1,8,8,0,0,1-7-4A10.41,10.41,0,0,1,15.85,67a3.5,3.5,0,1,0-7,0,17,17,0,0,0,4.21,11.39A14.87,14.87,0,0,0,18,82.06a15.21,15.21,0,0,0,6.28,1.33h0a17.05,17.05,0,0,0,2.41-.17,14.22,14.22,0,0,0,6-2.23,13.69,13.69,0,0,0,3.25-3.06,17,17,0,0,0,2.8-5.78,24.08,24.08,0,0,0,.83-6.33v-.23Z"/></g></g></svg>