<svg xmlns="http://www.w3.org/2000/svg" viewBox="0 0 85.54 82.02"><defs><style>.cls-1{isolation:isolate;}.cls-2,.cls-3{fill:#3eb5f1;}.cls-3{opacity:0.4;mix-blend-mode:color-burn;}.cls-4{fill:#7cc5e4;mix-blend-mode:lighten;}.cls-5{fill:#fff;}</style></defs><title>Ресурс 5</title><g class="cls-1"><g id="Слой_2" data-name="Слой 2"><g id="_2" data-name="2"><path class="cls-2" d="M36.3,1.9C35.42.38,33.42-.37,31.12.18L5.67,6C2.55,6.72,0,9.55,0,12.26v52C0,67,2.55,68.63,5.67,67.89L11,66.74l20.15-4.66c3.12-.74,5.67-3.56,5.67-6.27v-52A3.68,3.68,0,0,0,36.3,1.9Z"/><path class="cls-3" d="M49.68,2.44,42.41,4.22h0L19.54,9.87c-3.12.76-5.67,3.68-5.67,6.49V71.29a3.92,3.92,0,0,0,.48,1.93h0A4.83,4.83,0,0,0,20,75.42l30.32-10a6.46,6.46,0,0,0,5-6.22v-53C55.34,3.35,52.79,1.68,49.68,2.44ZM42.89,6.19v0h0Z"/><path class="cls-4" d="M36.78,55.72V7.43c0-.7-.07-1.8-.07-1.8l-17,4.62C16.6,11,14,13.81,14,16.52l-.1,47.56c0,.7,0,2,0,2L31.12,62C34.23,61.25,36.78,58.43,36.78,55.72Z"/><path class="cls-4" d="M28.54,13.75v49l2.58-.62c3.12-.75,5.67-3,5.67-6.34V9.94l-5.64,1.35A3.47,3.47,0,0,0,28.54,13.75Z"/><path class="cls-2" d="M62.12,6.24C60.33,6.67,32.27,14,32.27,14c-3.12.77-5.67,3.7-5.67,6.52V78.11A3.88,3.88,0,0,0,30.79,82a5.83,5.83,0,0,0,2.12-.47L63.41,70c2.3-1.13,4.18-1.7,4.09-5.94V10.53A4.3,4.3,0,0,0,62.12,6.24Zm2.23,57c0,1.74-.1,3-2.75,4.11L32.84,78c-2.34.41-2.52-.74-2.52-2.41V20.1A3.58,3.58,0,0,1,33,17.53L61.88,9.68c1.19-.37,2.63.11,2.48,3Z"/><path class="cls-2" d="M80.91,56c-2.6.31-4-1.43-4.45-5l-.13,0c-.35,3.86-1.76,6.43-4.38,7.65,0,0,0,.05,0,.08,2.68-.34,4.1,1.47,4.5,5.16l.1,0c.33-3.93,1.74-6.49,4.36-7.74C80.93,56.1,80.91,56.07,80.91,56Z"/><path class="cls-2" d="M81.13,47.73l.14,0a12.93,12.93,0,0,1,1-4,6.1,6.1,0,0,1,3.29-3.31v-.06c-2.53.23-3.87-1.55-4.3-4.95l-.13,0h0A9.53,9.53,0,0,1,76,43.15C78.7,42.83,80.93,44.12,81.13,47.73Z"/><path class="cls-5" d="M67.8,16.75l1.67-1.54a16.59,16.59,0,0,0-1.83-2c-.15.06.73,16.77-11.47,19.46-.18,0-.61,1.24-.61,1.24v.43l1.08,1.06a11.61,11.61,0,0,1,6.86,2C67,39.5,67.86,49.51,67.35,50.22a14.8,14.8,0,0,1,1.63-3c.59-.55,4.18-14.07,4.18-14.07Z"/><path class="cls-2" d="M76,30.13c-4,0-6.57-2.93-7.2-8.75l-.13,0c-.45,2.77-.89,5.45-2.5,7.8A12.8,12.8,0,0,1,60,33.67v.09c2.27,0,4.48.14,6.17,1.84s2.09,4.07,2.59,6.55l.16,0c.48-6.06,2.21-9.66,7-11.75Z"/></g></g></g></svg>