<?xml version="1.0" encoding="utf-8"?>
<!-- Generator: Adobe Illustrator 22.0.1, SVG Export Plug-In . SVG Version: 6.00 Build 0)  -->
<svg version="1.1" id="Ebene_1" xmlns="http://www.w3.org/2000/svg" xmlns:xlink="http://www.w3.org/1999/xlink" x="0px" y="0px"
	 viewBox="0 0 95.3 71.7" style="enable-background:new 0 0 95.3 71.7;" xml:space="preserve">
<style type="text/css">
	.st0{opacity:0.4;fill:#FFFFFF;enable-background:new    ;}
	.st1{fill:#1A9DD9;}
	.st2{fill:#FFFFFF;}
</style>
<g>
	<path class="st0" d="M2.6,46.1v-43c0-1.8,1.2-3.4,4-2.3L31.4,8c1.1,0.4,1.8,1.9,1.8,2.6v29.6c0,0.8,0.1,2-1.5,2.4L20,45L9.1,55.3
		l-0.1-8.1c0,0-1.9,0.3-3.6,0.5C4.3,47.9,2.6,46.9,2.6,46.1z"/>
	<g>
		<path class="st1" d="M32.4,62.2L26.3,64c-0.1,0-0.4,0-0.5,0c-1.6,0-1.8-1.9-1.8-2.2V21.1c0-0.5,0.4-1.1,0.8-1.1c0.1,0,0.1,0,0.3,0
			h0.1l24,5.1c0.9,0.3,1.3,0.5,1.3,2.6l0.3,27.5v0.3c0,0.9,0,1.2-0.8,1.3l-9,2.7l-8.5,9.3L32.4,62.2z"/>
		<path class="st2" d="M25,21.1l23.7,5c0.7,0.1,0.7,0.3,0.7,1.6l0.3,27.5v0.3c0,0.1,0,0.3,0,0.4l0,0h-0.1h-0.1l-8.8,2.7L40,58.6
			l-0.4,0.4l-6.5,7.3l0.1-3l-0.1-2.4l-2.3,0.7l-4.7,1.5c-0.1,0-0.3,0-0.4,0c-0.7,0-0.8-0.8-0.8-1.2V21.1L25,21.1 M24.7,19
			c-0.9,0-1.8,0.9-1.8,2v40.8c0,1.2,0.5,3.1,2.7,3.1c0.3,0,0.5,0,0.8-0.1l4.8-1.5l0.3,7.7l9.6-10.9l8.8-2.7c1.6-0.4,1.5-1.5,1.6-2.6
			l-0.3-27.5c0-2.2-0.4-3-2.2-3.4l-23.8-5.1C25.1,19.2,25,19,24.7,19L24.7,19z"/>
	</g>
	<path class="st2" d="M3.3,44c0-3.8,0-37.5,0-41.2c0-1.9,2-2.2,2-2.2C4.7,0.6,3.1,0.9,2.6,1c-2,0.3-2.4,1.8-2.4,3.9v38.5
		c0,2,0.1,3.1,2.4,3.8l2.7,0.5C5.3,47.7,3.3,47.5,3.3,44z"/>
	<path class="st0" d="M23.6,62.7c0-3.8,0-37.5,0-41.2c0-1.9,1.1-2.3,1.1-2.3c-0.5,0-1.3,0.1-2.6,0.4c-1.6,0.3-1.9,2.4-1.9,3.6v37.3
		c0,1.2,0.1,3,1.8,3.6c0.9,0.4,2.4,0.8,3,0.8C25,65,23.6,64.6,23.6,62.7z"/>
	<g>
		<path class="st2" d="M14.9,32.6v6.6l-5,0.7v-7.1L14.9,32.6z M14.9,30.4l-5-0.1V8.9L15,10L14.9,30.4z"/>
	</g>
	<g>
		<polygon class="st2" points="36.5,50.3 36.5,55.3 40.3,54.2 40.3,49.6 		"/>
		<path class="st2" d="M44.8,34c-0.3-0.8-0.5-1.6-1.1-2.4c-0.5-0.8-2.2-3.1-5.8-3.1c-1.1,0-2,0.1-3,0.5c-0.8,0.4-1.6,0.9-2.2,1.8
			c-0.7,0.8-1.1,1.5-1.3,2.6c-0.4,1.1-0.5,3-0.1,5l3.9-0.7c0-0.7-0.1-1.2,0-1.8c0.1-0.5,0.3-1.2,0.4-1.6c0.3-0.4,0.7-0.8,0.9-1.1
			c2.2-1.5,5,0.1,4.7,3.5c0,0.7-0.3,1.1-0.4,1.5c-0.1,0.3-0.3,0.4-0.4,0.7c-0.1,0.1-2.3,2.6-2.7,3.1s-0.7,1.1-0.9,1.8
			c-0.3,0.7-0.4,1.6-0.5,2.7l0.3,2.3l3.8-0.5c0,0,0-3.1,0.8-4c0.3-0.4,0.5-0.9,0.8-1.2c0.3-0.4,0.7-0.7,1.1-1.1s0.7-0.8,0.9-1.3
			c0.3-0.5,0.5-1.2,0.8-1.9c0.3-0.8,0.3-1.1,0.3-2.3C45,35.6,45,34.8,44.8,34z"/>
	</g>
</g>
</svg>
