<svg xmlns="http://www.w3.org/2000/svg" viewBox="0 0 131.74 163.45"><defs><style>.cls-1,.cls-3{fill:#f3f2f2;}.cls-2{fill:#009FE3;}.cls-3{font-size:30.21px;font-family:AbhayaLibre-Medium, Abhaya Libre Medium;letter-spacing:-0.05em;}.cls-4{font-size:18.23px;letter-spacing:-0.05em;}</style></defs><title>Ресурс 11</title><g id="Слой_2" data-name="Слой 2"><g id="_3" data-name="3"><path class="cls-1" d="M116.43,7V158.7H70.63V7h45.79m4.93-7H65.7V163.45h55.65Z"/><rect class="cls-2" x="61.18" y="66.66" width="63.18" height="62.39"/><rect class="cls-2" x="105.15" y="42.33" width="26.59" height="25.13"/><path class="cls-1" d="M35.24,123.15q-6,7.89-18.1,7.9a22,22,0,0,1-11.07-2.7Q0,124.78,0,119a5.31,5.31,0,0,1,4.81-5,5.23,5.23,0,0,1,3.27,1q1.54,1.25,2,6a19.81,19.81,0,0,0,.48,3.18q1.06,4.52,6.16,4.53a14,14,0,0,0,6-1.25q7.22-3.47,7.22-14.64a22.77,22.77,0,0,0-.77-6.07q-2.6-8.76-11.65-8.76a16.57,16.57,0,0,0-10.4,3.76L3.95,99.27V72.11q15.21.77,18.2.77a26.35,26.35,0,0,0,7-.67,5.14,5.14,0,0,0,3.76-3.95h2.31q0,7.22-2.31,9.73-2.6,2.6-12.61,2.6-5.3,0-13.19-.77V98.21a23.45,23.45,0,0,1,13-3.76,19.43,19.43,0,0,1,11.94,3.66q6.84,5,6.84,14.16A17.27,17.27,0,0,1,35.24,123.15Z"/><path class="cls-1" d="M74.42,74.33q9.92,6.55,9.92,23.4,0,10.59-4.81,17.72a19.08,19.08,0,0,1-16.75,8.86,19.67,19.67,0,0,1-12-3.85q-9.34-7-9.34-23.11,0-10.49,4.91-17.53,6.07-8.67,16.95-8.67A19.81,19.81,0,0,1,74.42,74.33Zm-7.51,46.8q7.89-3.18,7.9-23.78,0-9.53-1.64-15Q70.66,73.65,63,73.65a10.85,10.85,0,0,0-3.95.67q-8.09,3.18-8.09,23.4a61,61,0,0,0,1.35,14.16q2.6,9.92,10.78,9.92A10.54,10.54,0,0,0,66.91,121.13Z"/><path class="cls-1" d="M120.71,74.33q9.92,6.55,9.92,23.4,0,10.59-4.81,17.72a19.07,19.07,0,0,1-16.75,8.86,19.68,19.68,0,0,1-12-3.85q-9.34-7-9.34-23.11,0-10.49,4.91-17.53,6.07-8.67,16.95-8.67A19.81,19.81,0,0,1,120.71,74.33Zm-7.51,46.8q7.89-3.18,7.9-23.78,0-9.53-1.64-15-2.5-8.67-10.21-8.67a10.85,10.85,0,0,0-3.95.67q-8.09,3.18-8.09,23.4a61,61,0,0,0,1.35,14.16q2.6,9.92,10.78,9.92A10.54,10.54,0,0,0,113.2,121.13Z"/><text class="cls-3" transform="translate(100.8 65.81)">m<tspan class="cls-4" x="22.5" y="-4.56">2</tspan></text></g></g></svg>