<svg xmlns="http://www.w3.org/2000/svg" viewBox="0 0 58.77 86.69"><defs><style>.cls-1{fill:#3eb5f1;}.cls-2{fill:none;stroke:#3eb5f1;stroke-linecap:round;stroke-miterlimit:10;stroke-width:4px;opacity:0.5;}.cls-3{fill:none;}</style></defs><title>Ресурс 2</title><g id="Слой_2" data-name="Слой 2"><g id="_2" data-name="2"><path class="cls-1" d="M29.39,58.77A29.36,29.36,0,1,0,1.06,37.24l7.08-2A22,22,0,1,1,29.39,51.43v7.35Z"/><path class="cls-1" d="M16.7,59.46V50.51a8.49,8.49,0,0,1,.6-3.39,4.86,4.86,0,0,1,.95-1.45,5.33,5.33,0,0,1,2.11-1.32,8.66,8.66,0,0,1,2.88-.46h6.1a14.25,14.25,0,0,0,5.85-1.21,13.37,13.37,0,0,0,6.08-5.5,15.42,15.42,0,0,0,2.06-7.78,14,14,0,1,0-28,0,3.67,3.67,0,0,0,7.35,0,6.65,6.65,0,1,1,13.29,0,7.69,7.69,0,0,1-1.8,5.11,5.84,5.84,0,0,1-2,1.47,6.9,6.9,0,0,1-2.85.57h-6.1a16.19,16.19,0,0,0-4.75.69A13.41,13.41,0,0,0,15,38.86a12.07,12.07,0,0,0-4.14,4.67,15.39,15.39,0,0,0-1.52,7c0,.64,0,8.27,0,8.95a3.67,3.67,0,0,0,7.35,0Z"/><path class="cls-2" d="M28.44,55.1c8.09,0,9.8,6.56,9.77,14.65,0,7-3,13.73-10.43,14.8-8.58,1.22-14.68-5.38-14.68-13.47"/><rect class="cls-3" x="23.49" y="48.89" width="5.89" height="15.13"/><circle class="cls-1" cx="13.09" cy="71.08" r="3.71"/></g></g></svg>