<svg xmlns="http://www.w3.org/2000/svg" viewBox="0 0 77.48 104.87"><defs><style>.cls-1,.cls-3{fill:#3eb5f1;}.cls-1{opacity:0.4;}.cls-2{fill:#f3f2f2;}</style></defs><title>Ресурс 3</title><g id="Слой_2" data-name="Слой 2"><g id="_10" data-name="10"><path class="cls-1" d="M65.7,35.33a20.12,20.12,0,0,1-37-1.22H60V28.38H27.4c0-.51-.08-1-.08-1.55a20.2,20.2,0,0,1,.3-3.34H60V17.75H29.5a20.11,20.11,0,0,1,35.18-1.34h7.51a26.8,26.8,0,0,0-49.94,1.34H10.79v5.73H20.87a27,27,0,0,0-.23,3.34c0,.52,0,1,.08,1.55H10.79v5.73H21.67A26.81,26.81,0,0,0,72.9,35.33Z"/><circle class="cls-2" cx="27.98" cy="56.3" r="23.19"/><path class="cls-3" d="M28.48,33.18A22.23,22.23,0,1,1,6.25,55.42,22.23,22.23,0,0,1,28.48,33.18m0-6.25A28.48,28.48,0,1,0,57,55.42,28.51,28.51,0,0,0,28.48,26.93Z"/><polygon class="cls-3" points="70.42 104.87 48.52 82.79 55.58 75.74 77.48 97.82 70.42 104.87"/><path class="cls-3" d="M17.39,63.18A4.31,4.31,0,0,1,13.65,61H19V59.57H13.13a3.48,3.48,0,0,1,0-1.39H19V56.63H13.69a4.31,4.31,0,0,1,7.3-.17h3.28a7.23,7.23,0,0,0-13.74.17H9v1.54h1.24c0,.23-.07.45-.07.68s0,.48.07.71H9V61h1.53a7.23,7.23,0,0,0,13.75.29H21A4.32,4.32,0,0,1,17.39,63.18Z"/><path class="cls-3" d="M33.07,45.74a6.71,6.71,0,0,1-5.82-3.41h8.41V40.11H26.44a5.42,5.42,0,0,1,0-2.17h9.22v-2.4H27.31a6.71,6.71,0,0,1,11.37-.27h5.11a11.27,11.27,0,0,0-21.4.27H20v2.4H21.9c0,.35-.11.69-.11,1.05s.08.74.11,1.11H20v2.22h2.38a11.27,11.27,0,0,0,21.41.45H38.64A6.73,6.73,0,0,1,33.07,45.74Z"/><path class="cls-3" d="M42.37,69a6.85,6.85,0,0,1-5.95-3.48H45V63.3H35.6a5.54,5.54,0,0,1,0-2.21H45V58.64H36.49a6.85,6.85,0,0,1,11.61-.27h5.22a11.51,11.51,0,0,0-21.86.27H29v2.45h2c0,.36-.11.71-.11,1.08s.08.76.11,1.14H29v2.26h2.43A11.51,11.51,0,0,0,53.3,66H48.06A6.87,6.87,0,0,1,42.37,69Z"/></g></g></svg>