<svg xmlns="http://www.w3.org/2000/svg" viewBox="0 0 137.5 83.94"><defs><style>.cls-1,.cls-2{fill:#3eb5f1;}.cls-1{opacity:0.4;}</style></defs><title>Ресурс 3</title><g id="Слой_2" data-name="Слой 2"><g id="_2" data-name="2"><path class="cls-1" d="M106,77.67H4.35A4.3,4.3,0,0,1,.94,70.73L20.85,45a4.3,4.3,0,0,1,3.41-1.67h70.8a4.3,4.3,0,0,1,4,2.62l11,25.74A4.3,4.3,0,0,1,106,77.67Z"/><path class="cls-2" d="M113.6,31.19a1.73,1.73,0,0,1,1.23.51l20.69,21a1.72,1.72,0,0,1-1.23,2.93h-101a1.72,1.72,0,0,1-1.43-2.67L45.82,32a1.72,1.72,0,0,1,1.43-.77H113.6m0-1.4H47.26a3.12,3.12,0,0,0-2.6,1.39l-13.93,21A3.12,3.12,0,0,0,33.33,57h101a3.12,3.12,0,0,0,2.22-5.31l-20.69-21a3.12,3.12,0,0,0-2.22-.93Z"/><rect class="cls-2" x="21.52" width="19.93" height="19.93" rx="1.01" ry="1.01"/><path class="cls-2" d="M106,77.65H4.35c-3.88,0-4.35-4-4.35-4,0,1,.07,2.49.09,3.62.09,5.31,3.1,6.7,5.45,6.7h99.24c2.35,0,5.36-1.39,5.45-6.7,0-1.13.1-2.6.09-3.62C110.33,73.62,109.86,77.65,106,77.65Z"/><path class="cls-1" d="M133.15,56.89H34.49c-3.88,0-4.35-3.11-4.35-3.11,0,1,.09,5,.09,6.15,0,2.95,3.1,3.26,5.45,3.26h96.26c2.35,0,5.45,0,5.45-3.26,0-1.13.1-5.13.09-6.15C137.5,53.78,137,56.89,133.15,56.89Z"/></g></g></svg>