<svg xmlns="http://www.w3.org/2000/svg" viewBox="0 0 133.5 9.32"><defs><style>.cls-1{fill:#009de0;}.cls-2{fill:#343739;}</style></defs><title>Ресурс 5</title><g id="Слой_2" data-name="Слой 2"><g id="Ebene_1" data-name="Ebene 1"><path class="cls-1" d="M79.67,2.49a3.62,3.62,0,0,0,.36.58l3.72,4.78h.46L87.8,3a2.62,2.62,0,0,0,.3-.51,7.4,7.4,0,0,0,.31-.78q-.05.3-.08.62c0,.21,0,.44,0,.67V9.32h1.63V0H88.3L84,6,79.4,0H77.95V9.32H79.4V3q0-.16,0-.74c0-.24,0-.42,0-.56a5,5,0,0,0,.31.76M94.27,0V7.12a2.41,2.41,0,0,0,.48,1.74,2.64,2.64,0,0,0,1.81.46h5.78a2.66,2.66,0,0,0,1.81-.46,2.41,2.41,0,0,0,.48-1.75V0h-1.78V7.91H96V0Zm22.18,1.58a1,1,0,0,1,.21.73V3.43a1,1,0,0,1-.2.75,1.19,1.19,0,0,1-.8.19h-5v-3h5a1.11,1.11,0,0,1,.78.21M124,1.39h7.79V7.91H124ZM110.7,9.32V5.67h2.55L117,9.32h2.35L115.2,5.67h1.24a2.18,2.18,0,0,0,1.5-.42,1.77,1.77,0,0,0,.46-1.36V1.8a1.81,1.81,0,0,0-.46-1.38,2.17,2.17,0,0,0-1.5-.42h-7.5V9.32Zm11.49-2.2a2.43,2.43,0,0,0,.47,1.75,2.65,2.65,0,0,0,1.81.46h6.73A2.64,2.64,0,0,0,133,8.86a2.41,2.41,0,0,0,.48-1.74V2.21A2.42,2.42,0,0,0,133,.47a2.62,2.62,0,0,0-1.8-.47h-6.73a2.62,2.62,0,0,0-1.8.47,2.42,2.42,0,0,0-.48,1.75Z"/><path class="cls-2" d="M10.58,1.39V0H0V1.39H4.4V9.32H6.15V1.39ZM22.69,9.32V8H15V5.17h4.6V3.78H15V1.39h7.62V0H13.22V9.32ZM33.51,1.58a1,1,0,0,1,.21.73V3.43a1,1,0,0,1-.2.75,1.19,1.19,0,0,1-.8.19h-5v-3h5a1.1,1.1,0,0,1,.78.21M27.76,9.32V5.67h2.54L34,9.32h2.35L32.26,5.67H33.5A2.18,2.18,0,0,0,35,5.25a1.77,1.77,0,0,0,.46-1.36V1.8A1.81,1.81,0,0,0,35,.42,2.17,2.17,0,0,0,33.5,0H26V9.32ZM47,1.58a1,1,0,0,1,.21.73V3.43a1,1,0,0,1-.2.75,1.19,1.19,0,0,1-.79.19h-5v-3h5a1.11,1.11,0,0,1,.78.21M41.24,9.32V5.67h2.54L47.5,9.32h2.35L45.74,5.67H47a2.18,2.18,0,0,0,1.5-.42,1.77,1.77,0,0,0,.46-1.36V1.8A1.81,1.81,0,0,0,48.47.42,2.17,2.17,0,0,0,47,0h-7.5V9.32Zm12.36,0,1.19-2.18h6.44l1.21,2.18h1.91L58.84,0H57.23L51.84,9.32Zm4.4-8L60.48,5.8h-5Z"/><polygon class="cls-2" points="73.2 7.19 73.2 6.53 69.32 6.53 69.32 4.99 71.67 4.99 71.67 4.35 69.32 4.35 69.32 3.01 73.16 3.01 73.16 2.36 68.51 2.36 68.51 7.19 73.2 7.19"/></g></g></svg>