<svg xmlns="http://www.w3.org/2000/svg" viewBox="0 0 223.72 37.92"><defs><style>.cls-1{fill:#009fe3;}.cls-2{fill:#2f3537;}</style></defs><title>Ресурс 16</title><g id="Слой_2" data-name="Слой 2"><g id="_1" data-name="1"><path class="cls-1" d="M133.51,4.18a6.07,6.07,0,0,0,.61,1l6.23,8h.77l6-8.08a4.39,4.39,0,0,0,.5-.85,12.41,12.41,0,0,0,.52-1.31q-.09.5-.13,1c0,.36,0,.73,0,1.12V15.62h2.74V0H148l-7.15,10.13L133.06,0h-2.43V15.62h2.43V5.07q0-.27,0-1.24c0-.4,0-.71,0-.94a8.45,8.45,0,0,0,.52,1.28M158,0V11.93a4,4,0,0,0,.8,2.91,4.42,4.42,0,0,0,3,.78h9.68a4.46,4.46,0,0,0,3-.77,4,4,0,0,0,.8-2.92V0h-3V13.26H160.93V0Zm37.16,2.65a1.69,1.69,0,0,1,.36,1.22V5.74A1.74,1.74,0,0,1,195.16,7a2,2,0,0,1-1.33.32h-8.31v-5h8.31a1.85,1.85,0,0,1,1.31.36m-9.63,13V9.5h4.27L196,15.62H200L193.06,9.5h2.07a3.66,3.66,0,0,0,2.51-.7,3,3,0,0,0,.77-2.29V3a3,3,0,0,0-.77-2.31A3.63,3.63,0,0,0,195.13,0H182.57V15.62Zm22.21-13.3h13V13.26h-13Zm-3,9.61a4.07,4.07,0,0,0,.79,2.92,4.45,4.45,0,0,0,3,.77h11.28a4.42,4.42,0,0,0,3-.78,4,4,0,0,0,.8-2.91V3.71a4.05,4.05,0,0,0-.81-2.92,4.4,4.4,0,0,0-3-.78H208.61a4.39,4.39,0,0,0-3,.78,4,4,0,0,0-.81,2.92Z"/><path class="cls-2" d="M17.73,2.32V0H0V2.32H7.38v13.3h2.93V2.32ZM38,15.62V13.34H25.11V8.66h7.7V6.34h-7.7v-4H37.88V0H22.15V15.62Zm18.12-13a1.7,1.7,0,0,1,.36,1.22V5.74A1.75,1.75,0,0,1,56.17,7a2,2,0,0,1-1.33.32H46.52v-5h8.31a1.85,1.85,0,0,1,1.31.36m-9.63,13V9.5h4.26L57,15.62H61L54.06,9.5h2.07a3.66,3.66,0,0,0,2.51-.7,3,3,0,0,0,.77-2.29V3A3,3,0,0,0,58.64.71,3.63,3.63,0,0,0,56.13,0H43.57V15.62Zm32.21-13a1.7,1.7,0,0,1,.36,1.22V5.74A1.74,1.74,0,0,1,78.75,7a2,2,0,0,1-1.33.32H69.11v-5h8.31a1.85,1.85,0,0,1,1.31.36m-9.63,13V9.5h4.26l6.23,6.12h3.94L76.65,9.5h2.07a3.66,3.66,0,0,0,2.51-.7A3,3,0,0,0,82,6.51V3A3,3,0,0,0,81.23.71,3.63,3.63,0,0,0,78.72,0H66.16V15.62Zm20.71,0,2-3.65h10.8l2,3.65h3.2L98.6,0H95.9l-9,15.62ZM97.2,2.29l4.16,7.43h-8.3Z"/><polygon class="cls-2" points="122.67 12.04 122.67 10.94 116.17 10.94 116.17 8.37 120.1 8.37 120.1 7.29 116.17 7.29 116.17 5.05 122.61 5.05 122.61 3.96 114.82 3.96 114.82 12.04 122.67 12.04"/><path class="cls-2" d="M31.23,37.92v-3.4H35V33.4H31.23V30.64h6.62V29.49h-8v8.44Zm16.8,0V36.75H41.64V29.49H40.23v8.44Zm4.29-8.44H50.9v8.44h1.41Zm12.56,8.44V36.77H58.1V34.08h4.1V33H58.1V30.62h6.71V29.49H56.68v8.44Zm10.55-6.07,1.21-.34v-.18a2,2,0,0,0-.43-1.44,2.25,2.25,0,0,0-1.55-.41H70.15a2.18,2.18,0,0,0-1.56.42,2.29,2.29,0,0,0-.41,1.58v.73a2.29,2.29,0,0,0,.41,1.58,2.18,2.18,0,0,0,1.56.42h5.3v2.54H69.17V35.39l-1.31.3v.23a2.25,2.25,0,0,0,.41,1.58,2.2,2.2,0,0,0,1.56.42h4.93a2.17,2.17,0,0,0,1.55-.42,2.28,2.28,0,0,0,.41-1.58V35a2.24,2.24,0,0,0-.41-1.57A2.18,2.18,0,0,0,74.77,33H69.45V30.64h6Zm13.75,6.07V36.77H82.4V34.08h4.1V33H82.4V30.62h6.71V29.49H81v8.44Zm9.46-8.44v6.44a2.25,2.25,0,0,0,.41,1.57,2.2,2.2,0,0,0,1.56.42h5a2.19,2.19,0,0,0,1.55-.42,2.27,2.27,0,0,0,.41-1.58V29.49H106.2v7.26h-6.14V29.49Zm14.63,8.44v-5c0-.39,0-.73,0-1s0-.56-.07-.82a3.69,3.69,0,0,0,.71.82l.14.13,6.48,5.87h.79V29.49H120v4.63q0,.78,0,1.22c0,.3.05.58.1.85-.17-.22-.34-.42-.5-.6a5.71,5.71,0,0,0-.46-.46l-6.31-5.64H112v8.44ZM133,31.34a2.82,2.82,0,0,1,.86,2.31A3,3,0,0,1,133,36a4.52,4.52,0,0,1-2.9.72h-3V30.64h3a4.58,4.58,0,0,1,2.88.71m-7.33-1.86v8.44h4.65a9.86,9.86,0,0,0,1.95-.16,3.79,3.79,0,0,0,1.29-.49,3.62,3.62,0,0,0,1.29-1.49,4.79,4.79,0,0,0,.46-2.13,4.5,4.5,0,0,0-.47-2,3.69,3.69,0,0,0-1.28-1.47,3.74,3.74,0,0,0-1.31-.5,10,10,0,0,0-1.93-.16Zm26.52,2.37,1.2-.34v-.18A2,2,0,0,0,153,29.9a2.24,2.24,0,0,0-1.55-.41h-4.49a2.18,2.18,0,0,0-1.56.42,2.29,2.29,0,0,0-.41,1.58v.73a2.29,2.29,0,0,0,.41,1.58,2.18,2.18,0,0,0,1.56.42h5.3v2.54h-6.28V35.39l-1.31.3v.23A2.26,2.26,0,0,0,145,37.5a2.21,2.21,0,0,0,1.56.42h4.92a2.18,2.18,0,0,0,1.55-.42,2.29,2.29,0,0,0,.41-1.58V35a2.24,2.24,0,0,0-.42-1.57,2.18,2.18,0,0,0-1.54-.41h-5.32V30.64h6Zm12.7-1.22V29.49h-9.13v1.15h3.85v7.29H161V30.64Zm10.56,7.29V36.77h-6.78V34.08h4.1V33h-4.1V30.62h6.71V29.49h-8.12v8.44Zm4.76-8.44h-1.41v8.44h1.41Zm5.67,8.44v-5c0-.39,0-.73,0-1s0-.56-.07-.82a3.69,3.69,0,0,0,.71.82l.14.13,6.48,5.87h.79V29.49h-1.29v4.63q0,.78,0,1.22t.1.85c-.17-.22-.34-.42-.5-.6a5.88,5.88,0,0,0-.46-.46l-6.31-5.64h-.89v8.44Z"/></g></g></svg>