<svg width="128" height="57" viewBox="0 0 128 57" fill="none" xmlns="http://www.w3.org/2000/svg">
<path d="M42.4461 35.1359V45.4628H37.6623V55.9915H26.5136V45.4628H0V43.3248L18.2028 1.04883H29.919L15.2433 35.1359H26.7974L28.7028 22.0658H37.6623V35.1359H42.4461Z" fill="#2C2C2C"/>
<path d="M80.8447 49.3355C76.8176 54.4452 71.3717 57 64.5068 57C57.6419 57 52.1959 54.4452 48.1689 49.3355C44.1418 44.1989 42.1283 37.247 42.1283 28.4798C42.1283 19.6858 44.1283 12.7473 48.1283 7.66454C52.1283 2.55485 57.5878 0 64.5068 0C71.4257 0 76.8852 2.55485 80.8852 7.66454C84.8852 12.7473 86.8852 19.6858 86.8852 28.4798C86.8852 37.247 84.8717 44.1989 80.8447 49.3355ZM56.7635 41.4692C58.5473 44.4812 61.1284 45.9873 64.5068 45.9873C67.8852 45.9873 70.4662 44.4947 72.25 41.5096C74.0338 38.5244 74.9257 34.2081 74.9257 28.5605C74.9257 22.913 74.0203 18.5832 72.2095 15.5711C70.3987 12.5322 67.8311 11.0127 64.5068 11.0127C61.1284 11.0127 58.5473 12.5188 56.7635 15.5308C54.9797 18.5159 54.0878 22.8323 54.0878 28.4798C54.0878 34.1274 54.9797 38.4572 56.7635 41.4692Z" fill="#2C2C2C"/>
<path d="M128 35.1359V45.4628H123.216V55.9915H112.068V45.4628H85.5539V43.3248L103.757 1.04883H115.473L100.797 35.1359H112.351L114.257 22.0658H123.216V35.1359H128Z" fill="#2C2C2C"/>
</svg>
