<svg width="74" height="74" viewBox="0 0 74 74" fill="none" xmlns="http://www.w3.org/2000/svg">
<circle cx="37" cy="37" r="37" fill="#F6F6F6"/>
<path d="M48.9999 40L50.599 41.2012V41.2012L48.9999 40ZM52.5845 37.8007C53.0267 36.7886 52.5647 35.6095 51.5525 35.1673C50.5404 34.7251 49.3613 35.1871 48.9191 36.1993L52.5845 37.8007ZM24.9999 40L23.4008 41.2012L23.4008 41.2012L24.9999 40ZM25.0808 36.1993C24.6385 35.1871 23.4595 34.7251 22.4473 35.1673C21.4351 35.6095 20.9731 36.7886 21.4153 37.8007L25.0808 36.1993ZM48.9191 36.1993C48.5142 37.1259 48.003 37.9972 47.4008 38.7988L50.599 41.2012C51.3841 40.1561 52.0533 39.0166 52.5845 37.8007L48.9191 36.1993ZM47.4008 38.7988C45.0255 41.9608 41.2513 44 36.9999 44V48C42.563 48 47.501 45.3253 50.599 41.2012L47.4008 38.7988ZM21.4153 37.8007C21.9466 39.0166 22.6157 40.1561 23.4008 41.2012L26.599 38.7988C25.9969 37.9972 25.4856 37.1259 25.0808 36.1993L21.4153 37.8007ZM23.4008 41.2012C26.4988 45.3253 31.4369 48 36.9999 48V44C32.7485 44 28.9743 41.9608 26.599 38.7988L23.4008 41.2012Z" fill="#B3B3B3"/>
<circle cx="37" cy="37" r="4" fill="#B3B3B3"/>
<path d="M51.8 29.4C52.6837 28.7373 53.9373 28.9163 54.6 29.8C55.2627 30.6837 55.0837 31.9373 54.2 32.6L51.8 29.4ZM41.7997 23.0568C42.0445 21.9797 43.1161 21.3049 44.1932 21.5497C45.2703 21.7945 45.9451 22.8661 45.7003 23.9432L41.7997 23.0568ZM44.4503 29.4432C44.2055 30.5203 43.1339 31.1951 42.0568 30.9503C40.9797 30.7055 40.3049 29.6339 40.5497 28.5568L44.4503 29.4432ZM52.5846 36.1993C53.0268 37.2114 52.5648 38.3905 51.5526 38.8327C50.5404 39.2749 49.3614 38.8129 48.9192 37.8007L52.5846 36.1993ZM19.8 32.6C18.9163 31.9373 18.7373 30.6837 19.4 29.8C20.0627 28.9163 21.3163 28.7373 22.2 29.4L19.8 32.6ZM28.2997 23.9432C28.0549 22.8661 28.7297 21.7945 29.8068 21.5497C30.8839 21.3049 31.9555 21.9797 32.2003 23.0568L28.2997 23.9432ZM33.4503 28.5568C33.6951 29.6339 33.0203 30.7055 31.9432 30.9503C30.8661 31.1951 29.7945 30.5203 29.5497 29.4432L33.4503 28.5568ZM25.0808 37.8007C24.6386 38.8129 23.4596 39.2749 22.4474 38.8327C21.4352 38.3905 20.9732 37.2114 21.4154 36.1993L25.0808 37.8007ZM47.8 32.4L51.8 29.4L54.2 32.6L50.2 35.6L47.8 32.4ZM45.7003 23.9432L44.4503 29.4432L40.5497 28.5568L41.7997 23.0568L45.7003 23.9432ZM48.9192 37.8007C48.5143 36.8741 48.003 36.0028 47.4009 35.2012L50.5991 32.7988C51.3842 33.8439 52.0534 34.9834 52.5846 36.1993L48.9192 37.8007ZM47.4009 35.2012C45.0256 32.0392 41.2514 30 37 30V26C42.5631 26 47.5011 28.6747 50.5991 32.7988L47.4009 35.2012ZM23.8 35.6L19.8 32.6L22.2 29.4L26.2 32.4L23.8 35.6ZM32.2003 23.0568L33.4503 28.5568L29.5497 29.4432L28.2997 23.9432L32.2003 23.0568ZM21.4154 36.1993C21.9466 34.9834 22.6158 33.8439 23.4009 32.7988L26.5991 35.2012C25.997 36.0028 25.4857 36.8741 25.0808 37.8007L21.4154 36.1993ZM23.4009 32.7988C26.4989 28.6747 31.4369 26 37 26V30C32.7486 30 28.9744 32.0392 26.5991 35.2012L23.4009 32.7988Z" fill="#2C2C2C"/>
</svg>
