<svg width="74" height="74" viewBox="0 0 74 74" fill="none" xmlns="http://www.w3.org/2000/svg">
<circle cx="37" cy="37" r="37" fill="#F6F6F6"/>
<path d="M51.8 44.6C52.6837 45.2627 53.9373 45.0837 54.6 44.2C55.2627 43.3163 55.0837 42.0627 54.2 41.4L51.8 44.6ZM41.7997 50.9432C42.0445 52.0203 43.1161 52.6951 44.1932 52.4503C45.2703 52.2055 45.9451 51.1339 45.7003 50.0568L41.7997 50.9432ZM44.4503 44.5568C44.2055 43.4797 43.1339 42.8049 42.0568 43.0497C40.9797 43.2945 40.3049 44.3661 40.5497 45.4432L44.4503 44.5568ZM52.5846 37.8007C53.0268 36.7886 52.5648 35.6095 51.5526 35.1673C50.5404 34.7251 49.3614 35.1871 48.9192 36.1993L52.5846 37.8007ZM19.8 41.4C18.9163 42.0627 18.7373 43.3163 19.4 44.2C20.0627 45.0837 21.3163 45.2627 22.2 44.6L19.8 41.4ZM28.2997 50.0568C28.0549 51.1339 28.7297 52.2055 29.8068 52.4503C30.8839 52.6951 31.9555 52.0203 32.2003 50.9432L28.2997 50.0568ZM33.4503 45.4432C33.6951 44.3661 33.0203 43.2945 31.9432 43.0497C30.8661 42.8049 29.7945 43.4797 29.5497 44.5568L33.4503 45.4432ZM25.0808 36.1993C24.6386 35.1871 23.4596 34.7251 22.4474 35.1673C21.4352 35.6095 20.9732 36.7886 21.4154 37.8007L25.0808 36.1993ZM47.8 41.6L51.8 44.6L54.2 41.4L50.2 38.4L47.8 41.6ZM45.7003 50.0568L44.4503 44.5568L40.5497 45.4432L41.7997 50.9432L45.7003 50.0568ZM48.9192 36.1993C48.5143 37.1259 48.003 37.9972 47.4009 38.7988L50.5991 41.2012C51.3842 40.1561 52.0534 39.0166 52.5846 37.8007L48.9192 36.1993ZM47.4009 38.7988C45.0256 41.9608 41.2514 44 37 44V48C42.5631 48 47.5011 45.3253 50.5991 41.2012L47.4009 38.7988ZM23.8 38.4L19.8 41.4L22.2 44.6L26.2 41.6L23.8 38.4ZM32.2003 50.9432L33.4503 45.4432L29.5497 44.5568L28.2997 50.0568L32.2003 50.9432ZM21.4154 37.8007C21.9466 39.0166 22.6158 40.1561 23.4009 41.2012L26.5991 38.7988C25.997 37.9972 25.4857 37.1259 25.0808 36.1993L21.4154 37.8007ZM23.4009 41.2012C26.4989 45.3253 31.4369 48 37 48V44C32.7486 44 28.9744 41.9608 26.5991 38.7988L23.4009 41.2012Z" fill="#2C2C2C"/>
</svg>
