<svg width="253" height="204" viewBox="0 0 253 204" fill="none" xmlns="http://www.w3.org/2000/svg">
<circle cx="194.5" cy="94.5" r="54.5" stroke="#8FB7A1" stroke-width="8"/>
<line x1="195" y1="180" x2="195" y2="95" stroke="#2C2C2C" stroke-width="8" stroke-linecap="round"/>
<path d="M195 135.456L213.457 117" stroke="#2C2C2C" stroke-width="8" stroke-linecap="round"/>
<path d="M195 125.657L177.001 107.657" stroke="#2C2C2C" stroke-width="8" stroke-linecap="round"/>
<path d="M86 129H4L45.764 4L86 129Z" stroke="#8FB7A1" stroke-width="8" stroke-linecap="round" stroke-linejoin="round"/>
<line x1="45" y1="170" x2="45" y2="75" stroke="#2C2C2C" stroke-width="8" stroke-linecap="round"/>
<path d="M45 116.456L54.4583 107" stroke="#2C2C2C" stroke-width="8" stroke-linecap="round"/>
<path d="M44.8438 106.5L32.0018 93.6569" stroke="#2C2C2C" stroke-width="8" stroke-linecap="round"/>
<path d="M164 115.5C164 145.881 142.328 170 112.5 170C82.7647 170 62 145.982 62 115.5C62 99.9758 67.3999 73.1204 76.8342 50.1542C81.5438 38.6896 87.1532 28.4596 93.3935 21.1665C99.679 13.8204 106.113 10 112.5 10C118.897 10 125.397 13.8307 131.781 21.1875C138.116 28.4878 143.848 38.7236 148.68 50.1879C158.363 73.1609 164 100.003 164 115.5Z" fill="#F6F6F6" stroke="#5EAF84" stroke-width="8"/>
<path d="M113 200L113 101" stroke="#2C2C2C" stroke-width="8" stroke-linecap="round"/>
<path d="M113 156.456L131.457 138" stroke="#2C2C2C" stroke-width="8" stroke-linecap="round"/>
<path d="M112.957 124.5L126.458 111" stroke="#2C2C2C" stroke-width="8" stroke-linecap="round"/>
<path d="M112.844 146.5L95.0012 128.657" stroke="#2C2C2C" stroke-width="8" stroke-linecap="round"/>
</svg>
