<svg width="44" height="44" viewBox="0 0 44 44" fill="none" xmlns="http://www.w3.org/2000/svg">
<circle cx="22" cy="22" r="22" fill="#F6F6F6"/>
<path d="M25.1727 9C26.9195 9 27.7926 10.1874 27.7926 11.5451C27.7926 13.2409 26.2759 14.8094 24.2993 14.8094C22.6443 14.8094 21.6789 13.8339 21.7248 12.2232C21.7248 10.8658 22.8739 9 25.1727 9ZM19.7938 35C18.4146 35 17.4032 34.1519 18.3687 30.4201L19.9522 23.8013C20.2279 22.7413 20.273 22.3175 19.9522 22.3175C19.5379 22.3175 17.7476 23.0496 16.6887 23.7709L16 22.6256C19.3556 19.7848 23.2162 18.1187 24.8706 18.1187C26.2493 18.1187 26.4797 19.7726 25.7902 22.3172L23.9774 29.2748C23.6555 30.5043 23.794 30.9281 24.1149 30.9281C24.5286 30.9281 25.8854 30.4178 27.2182 29.3575L28 30.418C24.736 33.726 21.173 35 19.7938 35Z" fill="#2C2C2C"/>
</svg>
