<svg width="246" height="64" viewBox="0 0 246 64" fill="none" xmlns="http://www.w3.org/2000/svg">
<path d="M4.40334 0C1.76126 0 0 1.78572 0 4.46447V48.5139C0 51.1926 1.76126 52.9784 4.40334 52.9784C7.04541 52.9784 8.80667 51.1926 8.80667 48.5139V4.16691C8.80667 1.48816 7.04541 0 4.40334 0Z" fill="#2C2C2C"/>
<path fill-rule="evenodd" clip-rule="evenodd" d="M23.1906 4.16691C23.1906 1.78572 24.9519 0 27.594 0V0.297559H63.1141C71.6273 0.297559 80.434 1.1906 85.7179 6.54793C88.9472 9.52424 91.0019 14.2863 91.0019 21.1318V48.8116L98.928 56.8475C100.396 58.3357 100.396 60.4191 98.3408 62.5026C96.5795 64.2883 94.2311 64.5861 92.4697 62.8002L82.7824 52.9784H51.0784C42.5652 52.9784 33.7585 52.0855 28.4746 46.7282C25.2455 43.7519 23.1906 38.9896 23.1906 32.1442V4.16691ZM35.2263 41.6684C35.2263 41.966 35.8135 42.2637 35.8135 42.2637C38.1619 44.0494 41.6846 44.9423 46.0879 45.24H81.3146V20.8342C81.3146 16.0722 80.1405 13.0959 78.0856 11.0124C78.0856 10.7147 77.4984 10.4171 77.4984 10.4171C75.15 8.63138 71.9208 7.73835 67.224 7.44079H31.9973V31.8466C31.9973 36.6086 33.1716 39.5849 35.2263 41.6684Z" fill="#2C2C2C"/>
<path fill-rule="evenodd" clip-rule="evenodd" d="M103.625 20.8342C103.625 2.38102 117.422 0 131.22 0H143.255C157.052 0 171.143 2.38102 171.143 20.8342V31.8466C171.143 50.2998 157.052 52.6808 143.255 52.6808H131.22C117.716 52.6808 103.625 50.2998 103.625 31.8466V20.8342ZM112.432 21.1318V31.2513C112.432 42.859 118.89 45.24 128.871 45.24H145.897C155.878 45.24 162.336 42.859 162.336 31.2513V21.1318C162.336 9.52424 155.585 7.14323 145.897 7.14323H128.871C118.89 7.14323 112.432 9.52424 112.432 21.1318Z" fill="#2C2C2C"/>
<path d="M184.06 13.0959C184.06 5.05977 188.169 0 208.718 0H223.103C239.542 0 243.064 4.46447 243.945 9.8218V10.4171C243.945 12.5006 242.477 13.9887 239.835 13.9887C237.487 13.9887 236.019 12.7981 235.432 11.31C235.432 11.31 235.348 11.2253 235.27 11.1009C235.202 10.9922 235.138 10.8534 235.138 10.7147C233.377 7.73835 229.267 7.44079 222.222 7.44079H207.838C195.802 7.44079 193.453 8.63138 193.453 14.2863V16.0722C193.453 20.2389 194.921 22.3224 203.141 22.3224H224.864C236.9 22.3224 246 23.2152 246 37.5015V37.7992C246 52.6808 231.909 52.6808 222.809 52.6808H202.26C187.876 52.0855 184.647 47.9186 183.766 42.859V42.2637C183.766 40.1802 185.234 38.6921 187.876 38.6921C190.224 38.6921 191.692 39.8827 192.279 41.3708C192.279 41.3708 192.366 41.459 192.445 41.5872C192.512 41.6946 192.573 41.8303 192.573 41.966C194.041 44.6447 196.976 45.24 201.967 45.24H221.048C235.726 45.24 237.193 43.7519 237.193 37.5015V37.2039C237.193 32.7395 236.313 29.7631 226.038 29.7631H200.205C188.757 29.7631 184.06 25.894 184.06 16.0722V13.0959Z" fill="#2C2C2C"/>
</svg>
