<svg width="80" height="80" viewBox="0 0 80 80" fill="none" xmlns="http://www.w3.org/2000/svg">
<circle cx="40" cy="40" r="40" fill="#F6F6F6"/>
<path d="M44 56H46C49.3137 56 52 53.3137 52 50V30C52 26.6863 49.3137 24 46 24H44" stroke="#2C2C2C" stroke-width="4" stroke-linecap="round" stroke-linejoin="round"/>
<path d="M42 41.9625C43.1046 41.9625 44 41.0671 44 39.9625C44 38.858 43.1046 37.9625 42 37.9625L42 41.9625ZM22 39.9626L20.6593 38.4785C20.2406 38.8567 20.0012 39.3942 20 39.9584C19.9988 40.5226 20.236 41.0611 20.6531 41.4411L22 39.9626ZM30.574 50.4785C31.3905 51.2224 32.6555 51.1634 33.3993 50.3469C34.1432 49.5303 34.0842 48.2653 33.2677 47.5215L30.574 50.4785ZM33.2615 32.4841C34.0812 31.7436 34.1453 30.4789 33.4049 29.6593C32.6644 28.8396 31.3997 28.7755 30.5801 29.5159L33.2615 32.4841ZM42 37.9625L22 37.9626L22 41.9625L42 41.9625L42 37.9625ZM33.2677 47.5215L23.3469 38.484L20.6531 41.4411L30.574 50.4785L33.2677 47.5215ZM30.5801 29.5159L20.6593 38.4785L23.3407 41.4466L33.2615 32.4841L30.5801 29.5159Z" fill="#2C2C2C"/>
</svg>
