<svg width="1092" height="164" viewBox="0 0 1092 164" fill="none" xmlns="http://www.w3.org/2000/svg">
<path d="M436.89 136H426.57V133.92L429.93 133.16V110.32L426.57 109.52V107.44H436.89V109.52L433.53 110.32V133.16L436.89 133.92V136ZM466.524 121.68C466.524 125.173 465.818 128.147 464.404 130.6C463.018 133.053 460.951 134.747 458.204 135.68L465.044 142.8H459.884L454.364 136.36C454.204 136.36 454.031 136.36 453.844 136.36C453.684 136.387 453.524 136.4 453.364 136.4C450.404 136.4 447.938 135.787 445.964 134.56C444.018 133.333 442.564 131.613 441.604 129.4C440.644 127.187 440.164 124.6 440.164 121.64C440.164 118.707 440.644 116.147 441.604 113.96C442.564 111.773 444.018 110.067 445.964 108.84C447.938 107.613 450.418 107 453.404 107C456.258 107 458.658 107.613 460.604 108.84C462.551 110.04 464.018 111.747 465.004 113.96C466.018 116.147 466.524 118.72 466.524 121.68ZM443.964 121.68C443.964 125.28 444.724 128.12 446.244 130.2C447.764 132.253 450.138 133.28 453.364 133.28C456.618 133.28 458.991 132.253 460.484 130.2C461.978 128.12 462.724 125.28 462.724 121.68C462.724 118.08 461.978 115.267 460.484 113.24C458.991 111.187 456.631 110.16 453.404 110.16C450.178 110.16 447.791 111.187 446.244 113.24C444.724 115.267 443.964 118.08 443.964 121.68ZM496.974 121.68C496.974 124.64 496.468 127.227 495.454 129.44C494.468 131.627 493.001 133.333 491.054 134.56C489.108 135.787 486.694 136.4 483.814 136.4C480.854 136.4 478.388 135.787 476.414 134.56C474.468 133.333 473.014 131.613 472.054 129.4C471.094 127.187 470.614 124.6 470.614 121.64C470.614 118.707 471.094 116.147 472.054 113.96C473.014 111.773 474.468 110.067 476.414 108.84C478.388 107.613 480.868 107 483.854 107C486.708 107 489.108 107.613 491.054 108.84C493.001 110.04 494.468 111.747 495.454 113.96C496.468 116.147 496.974 118.72 496.974 121.68ZM474.414 121.68C474.414 125.28 475.174 128.12 476.694 130.2C478.214 132.253 480.588 133.28 483.814 133.28C487.068 133.28 489.441 132.253 490.934 130.2C492.428 128.12 493.174 125.28 493.174 121.68C493.174 118.08 492.428 115.267 490.934 113.24C489.441 111.187 487.081 110.16 483.854 110.16C480.628 110.16 478.241 111.187 476.694 113.24C475.174 115.267 474.414 118.08 474.414 121.68ZM518.704 128.36C518.704 130.893 517.784 132.867 515.944 134.28C514.104 135.693 511.624 136.4 508.504 136.4C506.904 136.4 505.424 136.28 504.064 136.04C502.704 135.8 501.571 135.467 500.664 135.04V131.6C501.624 132.027 502.811 132.413 504.224 132.76C505.664 133.107 507.144 133.28 508.664 133.28C510.798 133.28 512.398 132.867 513.464 132.04C514.558 131.213 515.104 130.093 515.104 128.68C515.104 127.747 514.904 126.96 514.504 126.32C514.104 125.68 513.411 125.093 512.424 124.56C511.464 124 510.118 123.413 508.384 122.8C505.958 121.92 504.118 120.84 502.864 119.56C501.638 118.28 501.024 116.533 501.024 114.32C501.024 112.8 501.411 111.507 502.184 110.44C502.958 109.347 504.024 108.507 505.384 107.92C506.771 107.333 508.358 107.04 510.144 107.04C511.718 107.04 513.158 107.187 514.464 107.48C515.771 107.773 516.958 108.16 518.024 108.64L516.904 111.72C515.918 111.293 514.838 110.933 513.664 110.64C512.518 110.347 511.318 110.2 510.064 110.2C508.278 110.2 506.931 110.587 506.024 111.36C505.118 112.107 504.664 113.107 504.664 114.36C504.664 115.32 504.864 116.12 505.264 116.76C505.664 117.4 506.318 117.973 507.224 118.48C508.131 118.987 509.358 119.533 510.904 120.12C512.584 120.733 513.998 121.4 515.144 122.12C516.318 122.813 517.198 123.653 517.784 124.64C518.398 125.627 518.704 126.867 518.704 128.36ZM541.128 107.44C544.675 107.44 547.288 108.12 548.968 109.48C550.675 110.813 551.528 112.84 551.528 115.56C551.528 117.08 551.248 118.347 550.688 119.36C550.128 120.373 549.408 121.187 548.528 121.8C547.675 122.387 546.768 122.853 545.808 123.2L553.648 136H549.448L542.528 124.2H536.848V136H533.248V107.44H541.128ZM540.928 110.56H536.848V121.16H541.128C543.448 121.16 545.141 120.707 546.208 119.8C547.275 118.867 547.808 117.507 547.808 115.72C547.808 113.853 547.248 112.533 546.128 111.76C545.008 110.96 543.275 110.56 540.928 110.56ZM565.131 114.16C566.971 114.16 568.544 114.56 569.851 115.36C571.184 116.16 572.197 117.293 572.891 118.76C573.611 120.2 573.971 121.893 573.971 123.84V125.96H559.291C559.344 128.387 559.957 130.24 561.131 131.52C562.331 132.773 563.997 133.4 566.131 133.4C567.491 133.4 568.691 133.28 569.731 133.04C570.797 132.773 571.891 132.4 573.011 131.92V135C571.917 135.48 570.837 135.827 569.771 136.04C568.704 136.28 567.437 136.4 565.971 136.4C563.944 136.4 562.144 135.987 560.571 135.16C559.024 134.333 557.811 133.107 556.931 131.48C556.077 129.827 555.651 127.813 555.651 125.44C555.651 123.093 556.037 121.08 556.811 119.4C557.611 117.72 558.717 116.427 560.131 115.52C561.571 114.613 563.237 114.16 565.131 114.16ZM565.091 117.04C563.411 117.04 562.077 117.587 561.091 118.68C560.131 119.747 559.557 121.24 559.371 123.16H570.291C570.264 121.347 569.837 119.88 569.011 118.76C568.184 117.613 566.877 117.04 565.091 117.04ZM585.789 133.52C586.322 133.52 586.869 133.48 587.429 133.4C587.989 133.293 588.442 133.187 588.789 133.08V135.76C588.416 135.947 587.882 136.093 587.189 136.2C586.496 136.333 585.829 136.4 585.189 136.4C584.069 136.4 583.029 136.213 582.069 135.84C581.136 135.44 580.376 134.76 579.789 133.8C579.202 132.84 578.909 131.493 578.909 129.76V117.28H575.869V115.6L578.949 114.2L580.349 109.64H582.429V114.56H588.629V117.28H582.429V129.68C582.429 130.987 582.736 131.96 583.349 132.6C583.989 133.213 584.802 133.52 585.789 133.52ZM600.402 114.2C603.015 114.2 604.949 114.773 606.202 115.92C607.455 117.067 608.082 118.893 608.082 121.4V136H605.522L604.842 132.96H604.682C603.749 134.133 602.762 135 601.722 135.56C600.709 136.12 599.295 136.4 597.482 136.4C595.535 136.4 593.922 135.893 592.642 134.88C591.362 133.84 590.722 132.227 590.722 130.04C590.722 127.907 591.562 126.267 593.242 125.12C594.922 123.947 597.509 123.307 601.002 123.2L604.642 123.08V121.8C604.642 120.013 604.255 118.773 603.482 118.08C602.709 117.387 601.615 117.04 600.202 117.04C599.082 117.04 598.015 117.213 597.002 117.56C595.989 117.88 595.042 118.253 594.162 118.68L593.082 116.04C594.015 115.533 595.122 115.107 596.402 114.76C597.682 114.387 599.015 114.2 600.402 114.2ZM604.602 125.52L601.442 125.64C598.775 125.747 596.922 126.173 595.882 126.92C594.869 127.667 594.362 128.72 594.362 130.08C594.362 131.28 594.722 132.16 595.442 132.72C596.189 133.28 597.135 133.56 598.282 133.56C600.095 133.56 601.602 133.067 602.802 132.08C604.002 131.067 604.602 129.52 604.602 127.44V125.52ZM615.704 106.52C616.237 106.52 616.704 106.707 617.104 107.08C617.531 107.427 617.744 107.987 617.744 108.76C617.744 109.507 617.531 110.067 617.104 110.44C616.704 110.813 616.237 111 615.704 111C615.117 111 614.624 110.813 614.224 110.44C613.824 110.067 613.624 109.507 613.624 108.76C613.624 107.987 613.824 107.427 614.224 107.08C614.624 106.707 615.117 106.52 615.704 106.52ZM617.424 114.56V136H613.904V114.56H617.424ZM626.936 136H623.416V105.6H626.936V136ZM641.209 114.16C643.049 114.16 644.622 114.56 645.929 115.36C647.262 116.16 648.276 117.293 648.969 118.76C649.689 120.2 650.049 121.893 650.049 123.84V125.96H635.369C635.422 128.387 636.036 130.24 637.209 131.52C638.409 132.773 640.076 133.4 642.209 133.4C643.569 133.4 644.769 133.28 645.809 133.04C646.876 132.773 647.969 132.4 649.089 131.92V135C647.996 135.48 646.916 135.827 645.849 136.04C644.782 136.28 643.516 136.4 642.049 136.4C640.022 136.4 638.222 135.987 636.649 135.16C635.102 134.333 633.889 133.107 633.009 131.48C632.156 129.827 631.729 127.813 631.729 125.44C631.729 123.093 632.116 121.08 632.889 119.4C633.689 117.72 634.796 116.427 636.209 115.52C637.649 114.613 639.316 114.16 641.209 114.16ZM641.169 117.04C639.489 117.04 638.156 117.587 637.169 118.68C636.209 119.747 635.636 121.24 635.449 123.16H646.369C646.342 121.347 645.916 119.88 645.089 118.76C644.262 117.613 642.956 117.04 641.169 117.04ZM664.707 114.16C665.107 114.16 665.534 114.187 665.987 114.24C666.467 114.267 666.88 114.32 667.227 114.4L666.787 117.64C666.44 117.56 666.054 117.493 665.627 117.44C665.227 117.387 664.84 117.36 664.467 117.36C663.374 117.36 662.347 117.667 661.387 118.28C660.427 118.867 659.654 119.707 659.067 120.8C658.507 121.867 658.227 123.12 658.227 124.56V136H654.707V114.56H657.587L657.987 118.48H658.147C658.84 117.307 659.734 116.293 660.827 115.44C661.92 114.587 663.214 114.16 664.707 114.16Z" fill="#2C2C2C"/>
<path d="M418.726 7C415.89 7 414 8.89732 414 11.7435V58.546C414 61.3922 415.89 63.2895 418.726 63.2895C421.561 63.2895 423.451 61.3922 423.451 58.546V11.4273C423.451 8.58117 421.561 7 418.726 7Z" fill="#2C2C2C"/>
<path fill-rule="evenodd" clip-rule="evenodd" d="M438.887 11.4273C438.887 8.89732 440.778 7 443.613 7V7.31616H481.732C490.868 7.31616 500.319 8.26501 505.99 13.9572C509.455 17.1195 511.661 22.1792 511.661 29.4525V58.8624L520.167 67.4005C521.742 68.9817 521.742 71.1953 519.536 73.409C517.646 75.3063 515.126 75.6227 513.236 73.7252L502.84 63.2895H468.816C459.68 63.2895 450.229 62.3408 444.558 56.6487C441.093 53.4864 438.887 48.4265 438.887 41.1532V11.4273ZM451.804 51.2727C451.804 51.5888 452.434 51.9052 452.434 51.9052C454.954 53.8025 458.735 54.7512 463.46 55.0675H501.264V29.1363C501.264 24.0767 500.004 20.9143 497.799 18.7007C497.799 18.3843 497.169 18.0682 497.169 18.0682C494.649 16.1708 491.183 15.222 486.143 14.9058H448.339V40.837C448.339 45.8967 449.599 49.059 451.804 51.2727Z" fill="#2C2C2C"/>
<path fill-rule="evenodd" clip-rule="evenodd" d="M525.208 29.1363C525.208 9.52983 540.014 7 554.821 7H567.737C582.544 7 597.666 9.52983 597.666 29.1363V40.837C597.666 60.4435 582.544 62.9734 567.737 62.9734H554.821C540.329 62.9734 525.208 60.4435 525.208 40.837V29.1363ZM534.659 29.4525V40.2045C534.659 52.5377 541.59 55.0675 552.301 55.0675H570.573C581.284 55.0675 588.215 52.5377 588.215 40.2045V29.4525C588.215 17.1195 580.969 14.5897 570.573 14.5897H552.301C541.59 14.5897 534.659 17.1195 534.659 29.4525Z" fill="#2C2C2C"/>
<path d="M611.527 20.9143C611.527 12.376 615.938 7 637.99 7H653.427C671.069 7 674.85 11.7435 675.795 17.4357V18.0682C675.795 20.2818 674.22 21.863 671.384 21.863C668.864 21.863 667.289 20.598 666.659 19.0168C666.659 19.0168 666.569 18.9269 666.485 18.7947C666.412 18.6793 666.344 18.5318 666.344 18.3843C664.454 15.222 660.043 14.9058 652.482 14.9058H637.045C624.129 14.9058 621.609 16.1708 621.609 22.1792V24.0767C621.609 28.5038 623.184 30.7175 632.005 30.7175H655.317C668.234 30.7175 678 31.6662 678 46.8453V47.1617C678 62.9734 662.878 62.9734 653.112 62.9734H631.06C615.623 62.3408 612.158 57.9135 611.212 52.5377V51.9052C611.212 49.6915 612.788 48.1103 615.623 48.1103C618.143 48.1103 619.718 49.3754 620.349 50.9565C620.349 50.9565 620.442 51.0501 620.527 51.1864C620.598 51.3005 620.664 51.4447 620.664 51.5888C622.239 54.435 625.389 55.0675 630.745 55.0675H651.222C666.974 55.0675 668.549 53.4864 668.549 46.8453V46.5292C668.549 41.7857 667.604 38.6233 656.578 38.6233H628.854C616.568 38.6233 611.527 34.5123 611.527 24.0767V20.9143Z" fill="#2C2C2C"/>
</svg>
