<svg width="268" height="268" viewBox="0 0 268 268" fill="none" xmlns="http://www.w3.org/2000/svg">
<path fill-rule="evenodd" clip-rule="evenodd" d="M71.4672 116.309V72H128.307V116.309H116.939V83.2763H82.8344V116.309H71.4672ZM71.4668 151.757V196.048H128.307V151.757H116.939V184.684H82.834V151.757H71.4668ZM139.676 151.757V196.048H151.045V162.216H162.411V173.494H196.517V151.757H139.676ZM196.517 116.309V72.0001H139.676V116.309H151.045V83.2763H185.148V116.309H196.517ZM94.2017 162.216H105.569V173.494H94.2017V162.216ZM173.781 184.771H162.41V196.049H173.781V184.771ZM185.145 184.771H196.515V196.049H185.145V184.771ZM105.569 94.5544H94.2017V105.832H105.569V94.5544ZM173.781 94.5544H162.41V105.832H173.781V94.5544Z" fill="#2C2C2C"/>
<rect x="38" y="127.533" width="192" height="12" fill="#FFCC68"/>
</svg>
