<svg width="80" height="80" viewBox="0 0 80 80" fill="none" xmlns="http://www.w3.org/2000/svg">
<circle cx="40" cy="40" r="40" fill="#DCE5F3"/>
<path d="M52.0974 35.145C53.282 33.9866 53.3033 32.0872 52.145 30.9026C50.9866 29.718 49.0872 29.6967 47.9026 30.855L52.0974 35.145ZM35.6824 47L33.4734 49.0299C34.0227 49.6276 34.7908 49.9773 35.6022 49.9989C36.4137 50.0206 37.1993 49.7125 37.7798 49.145L35.6824 47ZM32.2089 38.7866C31.0878 37.5667 29.19 37.4865 27.9701 38.6076C26.7501 39.7287 26.67 41.6265 27.7911 42.8465L32.2089 38.7866ZM47.9026 30.855L33.585 44.855L37.7798 49.145L52.0974 35.145L47.9026 30.855ZM27.7911 42.8465L33.4734 49.0299L37.8913 44.9701L32.2089 38.7866L27.7911 42.8465Z" fill="#687BFF"/>
</svg>
