<svg width="80" height="80" viewBox="0 0 80 80" fill="none" xmlns="http://www.w3.org/2000/svg">
<circle cx="40" cy="40" r="40" fill="#F6F6F6"/>
<path d="M25.18 47.9772L26.6346 47.6109C26.5182 47.1489 26.1893 46.7696 25.7483 46.589C25.3074 46.4085 24.8069 46.4482 24.3999 46.696L25.18 47.9772ZM55.3788 47.7022L56.1589 46.421C55.7519 46.1732 55.2514 46.1335 54.8105 46.314C54.3695 46.4946 54.0406 46.8739 53.9242 47.3359L55.3788 47.7022ZM22.1177 40.0002L21.1229 41.1229C21.3973 41.3659 21.7511 41.5002 22.1177 41.5002V40.0002ZM25.4706 40.0002V41.5002C26.2839 41.5002 26.949 40.852 26.9701 40.039L25.4706 40.0002ZM38.1471 26.8002C38.1471 25.9717 37.4755 25.3002 36.6471 25.3002C35.8186 25.3002 35.1471 25.9717 35.1471 26.8002H38.1471ZM52.2941 35.6002H53.7941C53.7941 34.7717 53.1226 34.1002 52.2941 34.1002V35.6002ZM54.5294 40.0002L53.5311 41.1197C53.8059 41.3647 54.1612 41.5002 54.5294 41.5002V40.0002ZM57.8824 40.0002V41.5002C58.2489 41.5002 58.6028 41.3659 58.8771 41.1229L57.8824 40.0002ZM32.1762 40.6998C31.3478 40.6998 30.6762 41.3714 30.6762 42.1998C30.6762 43.0282 31.3478 43.6998 32.1762 43.6998V40.6998ZM34.4115 43.6998C35.24 43.6998 35.9115 43.0282 35.9115 42.1998C35.9115 41.3714 35.24 40.6998 34.4115 40.6998V43.6998ZM45.5888 40.6998C44.7604 40.6998 44.0888 41.3714 44.0888 42.1998C44.0888 43.0282 44.7604 43.6998 45.5888 43.6998V40.6998ZM47.8241 43.6998C48.6526 43.6998 49.3241 43.0282 49.3241 42.1998C49.3241 41.3714 48.6526 40.6998 47.8241 40.6998V43.6998ZM60.5 35.6C60.5 24.7374 50.406 16.5 39.7206 16.5V19.5C49.0947 19.5 57.5 26.7198 57.5 35.6H60.5ZM39.7206 16.5C28.9762 16.5 19.5 24.7908 19.5 35.6H22.5C22.5 26.6664 30.4054 19.5 39.7206 19.5V16.5ZM19.5 35.6C19.5 37.0666 19.7161 38.4493 20.0051 39.7509L22.9338 39.1007C22.6728 37.9251 22.5 36.7734 22.5 35.6H19.5ZM20.0483 38.9457C19.6966 39.987 19.5 41.1977 19.5 42.475H22.5C22.5 41.4951 22.6522 40.6114 22.8905 39.9059L20.0483 38.9457ZM19.5 42.475C19.5 44.1799 19.848 45.7974 20.4814 47.0439C21.0726 48.2072 22.1613 49.475 23.7941 49.475V46.475C23.8846 46.475 23.5763 46.5119 23.1559 45.6848C22.7779 44.9408 22.5 43.8083 22.5 42.475H19.5ZM23.7941 49.475C23.7731 49.475 23.7954 49.4748 23.9414 49.4899C24.0511 49.5013 24.2195 49.5198 24.3858 49.5322C24.549 49.5443 24.765 49.5553 24.9847 49.5418C25.1494 49.5317 25.5644 49.4993 25.9601 49.2584L24.3999 46.696C24.5538 46.6023 24.6819 46.57 24.7275 46.5598C24.7805 46.5479 24.8094 46.5469 24.8014 46.5474C24.7819 46.5486 24.7224 46.5489 24.6084 46.5405C24.4976 46.5322 24.3871 46.5201 24.2509 46.5059C24.1885 46.4995 24.1167 46.4922 24.0474 46.4866C23.9827 46.4813 23.8909 46.475 23.7941 46.475V49.475ZM23.7254 48.3435C25.8695 56.8582 32.0015 63.5 39.7206 63.5V60.5C33.9116 60.5 28.5945 55.3938 26.6346 47.6109L23.7254 48.3435ZM39.7206 63.5C47.3541 63.5 54.6626 56.6892 56.8334 48.0685L53.9242 47.3359C51.9911 55.0128 45.6151 60.5 39.7206 60.5V63.5ZM54.5987 48.9834C54.9727 49.2111 55.5236 49.475 56.2059 49.475V46.475C56.257 46.475 56.2845 46.4854 56.2779 46.4831C56.2739 46.4817 56.262 46.4772 56.2413 46.467C56.2206 46.4568 56.1935 46.442 56.1589 46.421L54.5987 48.9834ZM56.2059 49.475C57.8387 49.475 58.9274 48.2072 59.5186 47.0439C60.152 45.7974 60.5 44.1799 60.5 42.475H57.5C57.5 43.8083 57.2221 44.9408 56.8441 45.6848C56.4237 46.5119 56.1154 46.475 56.2059 46.475V49.475ZM60.5 42.475C60.5 41.1977 60.3034 39.987 59.9517 38.9457L57.1095 39.9059C57.3478 40.6114 57.5 41.4951 57.5 42.475H60.5ZM59.9949 39.7509C60.2839 38.4493 60.5 37.0666 60.5 35.6H57.5C57.5 36.7734 57.3272 37.9251 57.0662 39.1007L59.9949 39.7509ZM22.1177 41.5002H25.4706V38.5002H22.1177V41.5002ZM25.4706 40.0002C26.9701 40.039 26.9701 40.0391 26.9701 40.0392C26.9701 40.0392 26.9701 40.0393 26.9701 40.0393C26.9701 40.0392 26.9701 40.0391 26.9701 40.0387C26.9701 40.0381 26.9702 40.037 26.9702 40.0353C26.9703 40.032 26.9704 40.0267 26.9707 40.0193C26.9711 40.0045 26.9718 39.9818 26.9728 39.9516C26.9748 39.8911 26.9781 39.801 26.983 39.6853C26.9928 39.4538 27.009 39.121 27.0345 38.7208C27.0859 37.9172 27.1741 36.8576 27.321 35.8081C27.4708 34.7377 27.6702 33.7651 27.9175 33.0933C28.0436 32.7507 28.1469 32.5859 28.191 32.5323C28.2292 32.486 28.0679 32.7002 27.7059 32.7002V29.7002C26.8421 29.7002 26.2346 30.1893 25.8761 30.6242C25.5235 31.0519 25.2797 31.5746 25.1021 32.057C24.7421 33.0353 24.5081 34.2626 24.35 35.3922C24.189 36.5427 24.0948 37.6831 24.0406 38.5295C24.0135 38.9544 23.9962 39.3091 23.9857 39.5588C23.9804 39.6837 23.9768 39.7826 23.9745 39.8511C23.9733 39.8853 23.9725 39.912 23.972 39.9305C23.9717 39.9398 23.9715 39.9471 23.9714 39.9522C23.9713 39.9548 23.9712 39.9568 23.9712 39.9584C23.9712 39.9591 23.9711 39.9597 23.9711 39.9602C23.9711 39.9605 23.9711 39.9607 23.9711 39.9609C23.9711 39.9611 23.9711 39.9613 25.4706 40.0002ZM27.7059 32.7002C27.8955 32.7002 28.1681 32.7169 28.565 32.7438C28.9414 32.7693 29.3989 32.8014 29.8898 32.8211C30.8642 32.8601 32.0525 32.8545 33.2116 32.6324C34.3651 32.4113 35.6205 31.951 36.5937 30.9765C37.6033 29.9655 38.1471 28.5646 38.1471 26.8002H35.1471C35.1471 27.9144 34.8241 28.5029 34.4709 28.8566C34.0812 29.2468 33.4778 29.5267 32.6469 29.686C31.8215 29.8442 30.9 29.8591 30.0097 29.8235C29.5684 29.8058 29.1548 29.7769 28.7678 29.7507C28.4013 29.7258 28.0181 29.7002 27.7059 29.7002V32.7002ZM35.1471 26.8002C35.1471 27.4419 35.3663 28.0565 35.6335 28.5779C35.9098 29.1173 36.2926 29.6636 36.7444 30.1967C37.649 31.2637 38.9145 32.3762 40.4317 33.3842C43.4609 35.3969 47.6568 37.1002 52.2941 37.1002V34.1002C48.3748 34.1002 44.7471 32.6497 42.092 30.8855C40.767 30.0052 39.7251 29.0734 39.0328 28.2568C38.6863 27.848 38.4482 27.4926 38.3034 27.2099C38.1494 26.9093 38.1471 26.7815 38.1471 26.8002H35.1471ZM50.7941 35.6002C50.7941 37.2486 51.5474 38.6541 52.1825 39.5623C52.5111 40.0321 52.8378 40.4113 53.0837 40.6747C53.2074 40.8072 53.3125 40.9124 53.3898 40.9872C53.4285 41.0247 53.4603 41.0547 53.4842 41.0769C53.4962 41.088 53.5062 41.0971 53.514 41.1043C53.518 41.1079 53.5214 41.1109 53.5242 41.1135C53.5256 41.1148 53.5269 41.116 53.5281 41.117C53.5287 41.1175 53.5292 41.118 53.5297 41.1184C53.53 41.1187 53.5303 41.119 53.5304 41.1191C53.5308 41.1194 53.5311 41.1197 54.5294 40.0002C55.5277 38.8806 55.528 38.8809 55.5284 38.8812C55.5285 38.8812 55.5288 38.8815 55.5289 38.8817C55.5293 38.882 55.5296 38.8823 55.53 38.8826C55.5306 38.8831 55.531 38.8836 55.5314 38.8839C55.5321 38.8845 55.5323 38.8847 55.532 38.8844C55.5314 38.8839 55.5288 38.8815 55.5244 38.8775C55.5156 38.8693 55.4994 38.8541 55.477 38.8324C55.432 38.7888 55.3625 38.7195 55.2766 38.6275C55.1034 38.442 54.8713 38.1724 54.641 37.8431C54.1585 37.153 53.7941 36.3585 53.7941 35.6002H50.7941ZM54.5294 41.5002H57.8824V38.5002H54.5294V41.5002ZM23.1124 38.8774L22.4641 38.3031L20.4747 40.5485L21.1229 41.1229L23.1124 38.8774ZM58.8771 41.1229L59.5253 40.5485L57.5358 38.3031L56.8876 38.8775L58.8771 41.1229ZM32.1762 43.6998H34.4115V40.6998H32.1762V43.6998ZM45.5888 43.6998H47.8241V40.6998H45.5888V43.6998Z" fill="#2C2C2C"/>
</svg>
