<svg width="19" height="19" viewBox="0 0 19 19" xmlns="http://www.w3.org/2000/svg"><title>6D477CF5-F04D-423F-99BF-76F23E8E441C</title><path d="M17.505 15.773c-.004 0-.004.004 0 0-.166.179-.337.34-.52.518-.278.264-.56.54-.825.85-.431.458-.94.675-1.606.675-.064 0-.132 0-.196-.004-1.268-.081-2.447-.574-3.331-.994a18.957 18.957 0 0 1-6.303-4.91c-1.456-1.745-2.43-3.358-3.075-5.091-.397-1.057-.542-1.881-.478-2.658.042-.497.234-.91.589-1.262L3.216 1.45c.21-.195.431-.301.65-.301.268 0 .486.161.623.297l.013.013c.26.242.508.492.768.76.133.136.27.272.406.412l1.166 1.16c.453.45.453.865 0 1.316-.124.123-.244.246-.367.365-.36.365-.7.705-1.072 1.036-.009.008-.017.013-.022.021-.367.365-.298.722-.222.964l.013.038c.303.73.73 1.419 1.38 2.238l.004.005c1.179 1.443 2.421 2.569 3.792 3.431.175.11.354.2.525.284.154.077.3.15.423.226.017.008.034.02.051.03a.93.93 0 0 0 .423.105c.355 0 .577-.22.65-.293l1.46-1.452c.145-.144.376-.318.645-.318.264 0 .482.165.614.31l2.362 2.348c.44.433.44.88.004 1.33zm-1.528-4.472c-.415-.428-.914-.658-1.444-.658-.525 0-1.03.225-1.46.654l-1.35 1.338c-.111-.06-.222-.115-.329-.17-.153-.076-.299-.149-.423-.225-1.264-.798-2.412-1.839-3.514-3.185-.534-.671-.893-1.236-1.153-1.809.35-.319.675-.65.99-.968l.36-.361c.896-.892.896-2.047 0-2.94L6.486 1.82c-.132-.132-.269-.268-.397-.404a20.182 20.182 0 0 0-.802-.79C4.873.218 4.378.001 3.857.001S2.832.218 2.405.625l-.009.009L.944 2.09a3.1 3.1 0 0 0-.926 1.975c-.103 1.24.264 2.395.546 3.151.692 1.856 1.726 3.576 3.267 5.419a20.08 20.08 0 0 0 6.692 5.21c.982.463 2.293 1.011 3.758 1.105.09.004.184.008.27.008.986 0 1.814-.352 2.463-1.053.005-.009.013-.013.017-.021.223-.268.479-.51.748-.769.183-.174.371-.357.555-.548.423-.437.645-.947.645-1.469 0-.527-.227-1.032-.658-1.457l-2.344-2.34z" fill="#665600" fill-rule="evenodd"/></svg>