<?xml version="1.0" standalone="no"?>
<!DOCTYPE svg PUBLIC "-//W3C//DTD SVG 1.1//EN" "http://www.w3.org/Graphics/SVG/1.1/DTD/svg11.dtd" >
<svg xmlns="http://www.w3.org/2000/svg">
<metadata>Generated by IcoMoon</metadata>
<defs>
<font id="icomoon" horiz-adv-x="1024">
<font-face units-per-em="1024" ascent="960" descent="-64" />
<missing-glyph horiz-adv-x="1024" />
<glyph unicode="&#x20;" horiz-adv-x="512" d="" />
<glyph unicode="&#xe900;" glyph-name="check-green" d="M458.68 947.118c-145.254-15.299-281.334-97.608-363.397-220.18-101.417-151.624-112.886-343.255-30.321-505.846 49.695-97.597 123.853-171.5 221.45-220.426 84.603-42.301 173.537-60.14 262.994-52.746 70.328 5.857 125.379 21.412 188.068 52.746 98.365 49.183 172.268 123.341 221.706 221.706 60.908 121.303 71.096 253.819 29.307 380.979-10.957 33.894-31.089 79.258-36.7 82.565-4.833 3.318-16.814-2.038-16.814-7.393 0-2.038 5.345-15.544 11.725-29.819 50.708-112.886 57.088-233.933 18.606-349.891-57.088-171.5-204.882-294.84-384.799-321.085-35.164-5.1-99.389-5.1-134.554 0.256-191.14 28.027-344.801 165.642-393.728 352.686-19.118 73.144-19.374 161.055-0.256 236.995 33.382 133.53 127.16 248.719 252.283 309.873 75.428 36.946 163.86 54.026 243.876 47.145 111.616-9.175 206.674-50.452 288.215-124.867 10.701-9.943 21.146-18.094 23.194-18.094 4.332 0 11.725 8.151 11.725 13.251 0 7.649-49.695 49.695-88.678 75.172-28.549 18.862-82.309 44.083-116.46 55.040-66.775 21.422-138.639 29.071-207.442 21.934zM935.977 789.371c-11.213-6.881-12.493-8.151-236.483-271.401-115.692-135.823-211.507-247.183-212.531-247.183-1.27 0-38.738 38.994-83.077 86.641-44.595 47.657-83.835 88.177-87.153 89.702-12.739 6.881-28.027-6.113-26.757-22.938 0.512-6.881 182.211-199.537 190.106-201.574 4.332-1.024 10.189 0 16.056 2.806 9.175 4.588 25.231 22.938 364.923 420.731 61.164 71.352 97.608 116.204 99.635 122.071 2.55 7.649 2.294 9.943-2.038 15.544-6.881 9.421-14.008 11.213-22.682 5.601z" />
<glyph unicode="&#xe901;" glyph-name="angle-down" d="M1024 676.467l-53.226 53.402-458.774-457.281-458.774 457.281-53.226-53.402 512-510.334z" />
<glyph unicode="&#xe902;" glyph-name="success-round" d="M512 960c-282.751 0-512-229.249-512-512s229.249-512 512-512 512 229.249 512 512-229.249 512-512 512zM512 32c-229.376 0-416 186.624-416 416s186.624 416 416 416 416-186.624 416-416-186.624-416-416-416zM688.001 576c-14.016 0-26.497-6.080-35.264-15.648l-0.127 0.095-140.609-153.408-140.639 153.409-0.129-0.095c-8.736 9.567-21.216 15.648-35.233 15.648-26.495 0-48.001-21.504-48.001-48.001 0-12.512 4.896-23.776 12.736-32.351l-0.129-0.095 176.001-192c9.121-9.889 21.921-15.552 35.392-15.552s26.271 5.664 35.36 15.552l176.001 191.998-0.127 0.095c7.872 8.575 12.768 19.839 12.768 32.351 0 26.497-21.504 48.001-47.999 48.001z" />
<glyph unicode="&#xe903;" glyph-name="attention" d="M1012.652 120.775l-426.668 739.556c-14.763 25.543-42.382 42.78-73.984 42.78s-59.221-17.237-73.984-42.779l-426.667-739.556c-7.196-12.517-11.349-27.052-11.349-42.555 0-47.102 38.231-85.333 85.333-85.333h853.333c47.104 0 85.333 38.231 85.333 85.333 0 15.502-4.124 30.037-11.348 42.553zM85.276 78.137l426.78 739.556 426.61-739.47-853.39-0.085zM512 277.333c-31.403 0-56.889-25.485-56.889-56.889 0-31.429 25.458-56.889 56.889-56.889s56.889 25.486 56.889 56.889c0 31.403-25.458 56.889-56.889 56.889zM455.111 533.333c0-3.243 0.284-6.455 0.798-9.557l28.018-165.89c2.302-13.453 13.993-23.664 28.073-23.664s25.771 10.213 28.048 23.667l28.016 165.89c0.54 3.097 0.825 6.311 0.825 9.554 0 31.404-25.458 56.889-56.889 56.889-31.403 0-56.889-25.486-56.889-56.889z" />
<glyph unicode="&#xe904;" glyph-name="close-round" d="M703.583 593.92c-0.479 11.615-4.799 23.135-13.697 32-8.863 8.865-20.385 13.215-32 13.697-12.927 0.544-26.015-3.808-35.87-13.697l-110.016-110.048-110.016 110.048c-9.887 9.889-22.943 14.209-35.872 13.697-11.615-0.48-23.135-4.8-32-13.697-8.863-8.865-13.215-20.385-13.697-32-0.544-12.929 3.808-25.983 13.697-35.872l110.016-110.048-110.016-110.016c-9.889-9.887-14.209-22.945-13.697-35.87 0.48-11.615 4.8-23.137 13.697-32 8.865-8.865 20.385-13.217 32-13.697 12.929-0.544 25.985 3.807 35.872 13.697l110.016 110.015 110.048-110.048c9.889-9.887 22.945-14.207 35.872-13.697 11.615 0.48 23.135 4.8 32 13.697 8.865 8.865 13.215 20.385 13.697 32 0.544 12.929-3.808 25.983-13.697 35.872l-110.048 110.048 110.015 110.016c9.89 9.887 14.241 22.943 13.697 35.904zM512 960c-282.751 0-512-229.249-512-512s229.249-512 512-512 512 229.249 512 512-229.249 512-512 512zM512 32c-229.376 0-416 186.624-416 416s186.624 416 416 416 416-186.624 416-416-186.624-416-416-416z" />
<glyph unicode="&#xe905;" glyph-name="info-round" d="M512 704c-35.328 0-64-28.672-64-64s28.672-64 64-64 64 28.64 64 64-28.64 64-64 64zM512 512c-35.328 0-64-28.64-64-64v-192c0-35.328 28.672-64 64-64s64 28.672 64 64v192c0 35.328-28.64 64-64 64zM512 960c-282.304 0-512-229.696-512-512s229.696-512 512-512 512 229.696 512 512-229.696 512-512 512zM512 32c-229.408 0-416 186.624-416 416s186.592 416 416 416c229.376 0 416-186.624 416-416s-186.624-416-416-416z" />
<glyph unicode="&#xe906;" glyph-name="up-down" d="M512 800.711l182.044-182.044 79.644 79.644-261.689 261.689-261.689-261.689 79.644-79.644 182.044 182.044zM512 95.289l-182.044 182.044-79.644-79.644 261.689-261.689 261.689 261.689-79.644 79.644-182.044-182.044z" />
<glyph unicode="&#xe907;" glyph-name="video-conference" d="M76.939 98.151h298.776v-75.63h-124.061c-10.87 0-19.676-8.81-19.676-19.676s8.807-19.676 19.676-19.676h520.681c10.866 0 19.676 8.81 19.676 19.676s-8.807 19.676-19.676 19.676h-124.064v75.63h298.797c42.42 0 76.931 34.511 76.931 76.935v660.811c0 42.424-34.511 76.942-76.931 76.942h-870.13c-42.424-0.004-76.939-34.518-76.939-76.942v-660.814c0-42.42 34.515-76.931 76.939-76.931zM608.919 22.517h-193.852v75.633h193.852v-75.633zM984.648 175.082c0-20.724-16.859-37.583-37.579-37.583h-870.13c-20.724 0-37.586 16.859-37.586 37.583v62.618h945.299v-62.618zM984.648 277.053h-336.283v111.807c0 53.061-43.168 96.229-96.232 96.229h-80.264c-53.057 0-96.225-43.168-96.225-96.229v-111.807h-336.291v456.879h945.295v-456.879zM414.992 277.053v111.807c0 31.361 25.515 56.876 56.873 56.876h80.264c31.361 0 56.88-25.515 56.88-56.876v-111.807h-194.016zM39.352 835.896c0 20.724 16.862 37.59 37.586 37.59h870.13c20.72 0 37.579-16.866 37.579-37.59v-62.611h-945.295v62.611zM511.678 498.458c54.459 0 98.767 44.308 98.767 98.764 0 54.459-44.308 98.767-98.767 98.767-54.463 0-98.774-44.308-98.774-98.767s44.312-98.764 98.774-98.764zM511.678 656.637c32.759 0 59.415-26.652 59.415-59.415 0-32.759-26.652-59.411-59.415-59.411-32.766 0-59.422 26.652-59.422 59.411 0 32.763 26.656 59.415 59.422 59.415z" />
<glyph unicode="&#xe908;" glyph-name="video" d="M473.867 821.733c0.88 0 88.412-0.248 131.122-21.6 1.153-0.577 2.396-0.877 3.689-0.877 3.154 0 5.99 1.754 7.41 4.577 0.992 1.965 1.142 4.213 0.446 6.301s-2.179 3.786-4.146 4.778c-36.932 18.466-106.751 23.351-138.521 23.351-4.566 0-8.274-3.707-8.274-8.274s3.707-8.274 8.274-8.274zM944.23 178.362c0 4.545-3.707 8.252-8.274 8.252h-185.035l12.054 19.472c7.369 11.924 11.266 25.635 11.266 39.665v196.325c0 33.61-22.566 63.526-54.894 72.76l-75.817 21.664c-15.657 4.472-26.592 18.977-26.589 35.263l0.001 24.208 5.486 3.813c6.647 4.596 12.864 9.69 18.47 15.142 28.018 27.193 43.455 63.654 43.455 102.701v42.984l9.736 19.475c8.339 16.654 12.739 35.309 12.739 53.95v108.3c0 4.566-3.707 8.274-8.274 8.274h-202.233c-66.515 0-120.62-54.104-120.62-120.62v-1.253c0-15.154 3.583-30.339 10.363-43.898l12.113-24.209v-37.331c0-48.395 23.231-94.104 62.131-122.249l5.279-3.824v-25.449c0-16.282-10.935-30.786-26.591-35.258l-75.811-21.664c-32.31-9.234-54.893-39.151-54.893-72.762v-30.77h-14.202c-16.952 0-30.732-13.779-30.732-30.732l0.007-179.737c0.017-0.333 0.049-0.685 0.058-1.020l0.457-13.202-175.862 0.005c-4.566 0-8.273-3.707-8.273-8.274s3.707-8.274 8.274-8.274h36.679v-216.435c0-4.566 3.707-8.274 8.274-8.274s8.274 3.707 8.274 8.274v126.548h741.523v-126.548c0-4.566 3.707-8.274 8.274-8.274s8.274 3.707 8.274 8.274v216.435h36.677c4.545 0 8.272 3.708 8.272 8.274zM414.729 723.298v39.283c0 1.27-0.304 2.56-0.874 3.696l-12.989 25.963c-5.641 11.265-8.613 23.888-8.613 36.501v1.253c0 57.402 46.688 104.090 104.090 104.090h193.961v-100.028c0-16.077-3.79-32.17-10.988-46.55l-10.613-21.223c-0.569-1.139-0.876-2.429-0.876-3.698v-44.935c0-34.532-13.644-66.781-38.435-90.834-23.742-23.043-55.035-35.732-88.126-35.732-1.304 0-2.591 0.014-3.9 0.060-67.644 2.018-122.654 61.304-122.654 132.136zM605.999 546.89l-22.913-22.913c-11.175-11.175-26.021-17.329-41.83-17.329-15.787 0-30.65 6.154-41.826 17.328l-22.916 22.916 2.634 7.554c1.693 4.845 2.648 9.994 2.868 15.289l0.67 16.906 16.076-5.285c12.441-4.090 25.262-6.359 38.119-6.741 1.499-0.051 2.968-0.066 4.457-0.066 14.514 0 28.858 2.182 42.659 6.468l15.791 4.912 0.739-16.529c0.236-5.168 1.187-10.198 2.835-14.955l2.637-7.554zM324.839 442.094c0.003 26.268 17.648 49.648 42.901 56.867l75.815 21.663c5.107 1.457 10.040 3.755 14.631 6.793l8.687 5.774 20.903-20.902c14.302-14.304 33.297-22.17 53.516-22.17s39.215 7.867 53.515 22.169l20.903 20.903 8.688-5.777c4.587-3.038 9.501-5.335 14.627-6.791l75.815-21.663c25.258-7.218 42.902-30.6 42.902-56.867v-196.325c0-32.611-26.526-59.137-59.136-59.137h-104.615l0.461 13.204c0.009 0.335 0.042 0.684 0.058 1.015l0.007 0.132v58.987h81.612c4.566 0 8.274 3.707 8.274 8.274v134.823c0 4.566-3.707 8.274-8.274 8.274s-8.274-3.707-8.274-8.274v-126.548h-73.338v104.090c0 16.952-13.779 30.732-30.732 30.732h-238.912v30.773zM279.907 380.589c0 7.838 6.365 14.202 14.202 14.202h269.644c7.838 0 14.202-6.365 14.202-14.202v-179.756c0-7.838-6.365-14.202-14.202-14.202h-269.644c-7.838 0-14.202 6.365-14.202 14.202v179.756zM882.747 96.745h-741.521v73.338h741.521v-73.338zM428.482 282.78c4.566 0 8.274 3.707 8.274 8.274s-3.707 8.274-8.274 8.274-8.274-3.707-8.274-8.274 3.707-8.274 8.274-8.274z" />
<glyph unicode="&#xe909;" glyph-name="technical-skills" d="M1008.235 817.994h-110.494c-8.275 0-14.982-6.707-14.982-14.982s6.707-14.982 14.982-14.982h95.514v-117.613h-258.475v117.616h113.022c8.275 0 14.982 6.706 14.982 14.982s-6.707 14.982-14.982 14.982h-379.27c-8.276 0-14.982-6.707-14.982-14.982v-147.577c0-8.275 6.706-14.981 14.982-14.981h539.703c8.273 0 14.982 6.706 14.982 14.981v147.577c-0.001 8.276-6.709 14.98-14.982 14.98zM704.818 670.417h-221.303v117.614h221.303v-117.614zM1008.235 536.771h-330.217c-8.275 0-14.982-6.707-14.982-14.982s6.707-14.982 14.982-14.982h218.117v-117.614h-412.62v117.614h144.568c8.273 0 14.982 6.706 14.982 14.982s-6.708 14.982-14.982 14.982h-159.551c-8.276 0-14.982-6.707-14.982-14.982v-147.577c0-8.275 6.706-14.981 14.982-14.981h539.703c8.273 0 14.982 6.706 14.982 14.981v147.577c-0.001 8.276-6.709 14.982-14.982 14.982zM993.255 389.194h-67.154v117.614h67.154v-117.614zM1008.235 255.546h-83.136c-8.273 0-14.982-6.706-14.982-14.982s6.708-14.982 14.982-14.982h68.156v-117.616h-159.226v117.616h41.132c8.275 0 14.982 6.707 14.982 14.982s-6.707 14.982-14.982 14.982h-406.628c-8.276 0-14.982-6.706-14.982-14.982v-147.578c0-8.274 6.706-14.982 14.982-14.982h539.701c8.273 0 14.981 6.708 14.981 14.982v147.578c0.001 8.277-6.707 14.982-14.98 14.982zM804.064 107.968h-320.55v117.616h320.552v-117.616h-0.002zM280.622 648.488c-2.175 1.45-54.248 35.313-139.52 18.26-7.012-1.402-12.058-7.558-12.058-14.708v-16.032c0-8.284 6.713-15 15-15 8.285 0 15 6.715 15 15v3.392c32.133 4.59 57.556 0.824 73.878-3.47 19.666-5.175 30.754-12.208 31.12-12.445 2.542-1.678 5.41-2.48 8.247-2.48 4.848 0 9.603 2.346 12.493 6.682 4.595 6.893 2.732 16.208-4.161 20.802zM374.618 389.208l-76.244 28.592c-6.624 2.484-11.072 8.903-11.072 15.978v38.463c3.267 2.603 6.426 5.381 9.464 8.33 24.912 24.173 38.63 56.603 38.63 91.31v28.523l4.292 8.586c7.68 15.359 11.74 32.552 11.74 49.729v89.518c0 8.284-6.714 15-15 15h-167.055c-57.6 0-104.458-46.861-104.458-104.517 0-17.172 4.057-34.368 11.737-49.727l4.292-8.586v-23.818c0-41.258 18.873-78.567 48.097-102.904v-39.903c0-7.075-4.45-13.494-11.073-15.979l-76.24-28.591c-24.491-9.182-40.944-32.925-40.944-59.080v-110.961c0-8.283 6.713-15 15-15 8.285 0 15 6.716 15 15v110.958c0 13.72 8.63 26.172 21.476 30.99l76.242 28.591c4.127 1.549 7.927 3.674 11.368 6.225l53.3-39.975v-136.79c0-8.283 6.714-15 15-15s15 6.716 15 15v136.789l53.298 39.975c3.442-2.552 7.242-4.677 11.369-6.225l76.246-28.591c12.844-4.816 21.474-17.27 21.474-30.99v-110.958c0-8.283 6.713-15 15-15 8.285 0 15 6.716 15 15v110.958c0.001 26.155-16.452 49.898-40.941 59.080zM208.173 382.209l-51.083 38.312c1.26 4.246 1.954 8.698 1.954 13.254v21.261c14.017-6.185 29.267-9.844 45.228-10.324 1.32-0.040 2.634-0.060 3.95-0.060 17.13 0 33.729 3.383 49.083 9.81v-20.686c0-4.558 0.694-9.008 1.955-13.254l-51.086-38.312zM275.874 502.099c-19.028-18.465-44.122-28.198-70.706-27.4-51.954 1.559-94.223 47.264-94.223 101.887v27.36c0 2.33-0.543 4.625-1.585 6.708l-5.875 11.754c-5.609 11.213-8.57 23.77-8.57 36.368 0 41.058 33.401 74.46 74.457 74.46h152.056v-74.518c0-12.539-2.963-25.097-8.572-36.31l-5.875-11.754c-1.042-2.084-1.584-4.378-1.584-6.708v-32.065c0.001-26.524-10.482-51.306-29.523-69.782zM95.947 314.33c-8.286 0-15-6.715-15-15v-80.162c0-8.283 6.713-15 15-15 8.285 0 15 6.716 15 15v80.162c-0.001 8.285-6.715 15-15 15zM320.397 314.33c-8.285 0-15-6.715-15-15v-80.162c0-8.283 6.714-15 15-15s15 6.716 15 15v80.162c0 8.285-6.713 15-15 15z" />
<glyph unicode="&#xe90a;" glyph-name="summary" d="M342.893 742.609c-3.333 10.254-12.027 17.588-22.7 19.137l-68.357 9.932-30.57 61.939c-4.77 9.668-14.434 15.673-25.215 15.673-10.78 0-20.445-6.007-25.214-15.673l-30.562-61.938-68.355-9.932c-10.67-1.55-19.366-8.885-22.699-19.139-3.331-10.251-0.603-21.296 7.117-28.821l49.465-48.214-11.679-68.080c-1.822-10.626 2.464-21.165 11.187-27.5 4.928-3.579 10.695-5.4 16.5-5.4 4.468 0 8.962 1.077 13.112 3.262l61.136 32.143 61.136-32.142c9.544-5.020 20.887-4.2 29.611 2.138s13.009 16.874 11.184 27.5l-11.678 68.078 49.465 48.214c7.722 7.523 10.449 18.57 7.117 28.822zM264.596 686.39c-6.625-6.46-9.649-15.762-8.087-24.888l11.182-65.198-58.552 30.783c-8.192 4.305-17.976 4.308-26.168 0l-58.55-30.783 11.182 65.198c1.566 9.125-1.46 18.427-8.088 24.888l-47.368 46.174 65.462 9.512c9.158 1.33 17.075 7.080 21.172 15.38l29.275 59.32 29.274-59.318c4.098-8.3 12.010-14.050 21.169-15.38l65.462-9.512-47.365-46.177zM659.133 852.851c-3.331 10.253-12.027 17.585-22.698 19.135l-68.355 9.934-30.572 61.939c-4.773 9.669-14.435 15.677-25.217 15.677s-20.444-6.007-25.215-15.673l-30.57-61.939-68.357-9.934c-10.67-1.55-19.366-8.885-22.695-19.136-3.333-10.251-0.606-21.296 7.113-28.823l49.467-48.212-11.676-68.080c-1.823-10.627 2.463-21.165 11.185-27.5 8.722-6.337 20.066-7.158 29.612-2.14l61.137 32.142 61.14-32.142c4.152-2.18 8.643-3.26 13.108-3.26 5.804 0 11.571 1.82 16.5 5.4 8.723 6.337 13.008 16.876 11.185 27.5l-11.677 68.078 49.465 48.214c7.722 7.521 10.449 18.567 7.118 28.82zM580.831 796.629c-6.628-6.463-9.651-15.766-8.087-24.888l11.182-65.199-58.555 30.785c-4.096 2.153-8.588 3.23-13.080 3.23s-8.987-1.077-13.083-3.23l-58.552-30.783 11.182 65.197c1.566 9.124-1.46 18.427-8.086 24.888l-47.368 46.173 65.46 9.512c9.16 1.332 17.077 7.083 21.169 15.383l29.274 59.318 29.274-59.316c4.098-8.302 12.009-14.053 21.171-15.384l65.462-9.512-47.362-46.174zM974.782 742.612c-3.331 10.254-12.027 17.585-22.698 19.137l-68.355 9.932-30.569 61.939c-4.77 9.668-14.434 15.673-25.215 15.673s-20.445-6.007-25.217-15.673l-30.568-61.939-68.358-9.932c-10.67-1.55-19.366-8.885-22.698-19.137-3.333-10.255-0.604-21.299 7.116-28.822l49.465-48.214-11.677-68.080c-1.823-10.626 2.464-21.165 11.187-27.5 4.928-3.579 10.693-5.4 16.5-5.4 4.468 0 8.96 1.077 13.109 3.262l61.137 32.142 61.137-32.14c9.54-5.019 20.888-4.198 29.612 2.138s13.008 16.876 11.185 27.5l-11.676 68.080 49.463 48.213c7.722 7.52 10.448 18.566 7.118 28.821zM896.485 686.39c-6.628-6.461-9.652-15.763-8.087-24.888l11.181-65.198-58.55 30.78c-4.098 2.154-8.59 3.234-13.086 3.234-4.494 0-8.987-1.077-13.084-3.231l-58.551-30.783 11.181 65.196c1.567 9.125-1.457 18.429-8.085 24.889l-47.368 46.173 65.463 9.512c9.16 1.33 17.075 7.083 21.169 15.38l29.274 59.32 29.275-59.323c4.099-8.298 12.012-14.046 21.168-15.378l65.462-9.512-47.362-46.172zM604.25 449.315c-0.899 4.492-3.492 8.365-7.302 10.904-1.662 1.108-41.479 27.128-108.835 27.128-18.117 0-36.799-1.899-55.529-5.645-7.987-1.597-13.784-8.669-13.784-16.814v-18.936c0-9.456 7.693-17.147 17.147-17.147s17.149 7.693 17.149 17.147v4.5l0.488 0.071c11.527 1.646 23.084 2.481 34.352 2.481 18.624 0 36.5-2.219 53.132-6.593 23.33-6.138 36.376-14.42 36.92-14.768 2.816-1.859 6.076-2.84 9.432-2.84 5.756 0 11.096 2.856 14.284 7.64 2.542 3.808 3.446 8.381 2.547 12.872zM756.068 84.67c0.005 30.655-19.279 58.484-47.986 69.249l-90.052 33.772c-8.042 3.014-13.446 10.813-13.446 19.405v45.703l0.214 0.17c3.857 3.073 7.604 6.372 11.135 9.801 29.313 28.444 45.455 66.601 45.455 107.441v33.825l5.129 10.262c9.032 18.062 13.807 38.285 13.807 58.481v105.733c0 9.456-7.693 17.147-17.147 17.147h-197.316c-67.717 0-122.809-55.124-122.809-122.88 0-20.197 4.773-40.418 13.804-58.478l5.13-10.262v-28.266c0-47.007 20.631-91.149 56.604-121.106l0.205-0.17v-47.398c0-8.59-5.404-16.389-13.447-19.406l-90.049-33.77c-28.705-10.761-47.991-38.59-47.991-69.249v-131.058c0-9.456 7.693-17.147 17.147-17.147s17.149 7.693 17.149 17.147v131.055c0 16.44 10.342 31.363 25.734 37.136l90.052 33.77c4.663 1.75 9.133 4.197 13.288 7.276l0.341 0.254 63.521-47.64v-161.851c0-9.456 7.693-17.147 17.149-17.147s17.147 7.693 17.147 17.147v161.849l63.518 47.64 0.341-0.254c4.155-3.080 8.627-5.527 13.29-7.276l90.055-33.77c15.392-5.771 25.733-20.695 25.733-37.136v-131.057c0-9.456 7.693-17.147 17.147-17.147s17.147 7.693 17.147 17.147v131.059zM511.691 145.473l-60.994 45.745 0.113 0.38c1.516 5.106 2.284 10.319 2.284 15.492v25.983l0.799-0.353c17.022-7.51 34.924-11.596 53.207-12.146 21.654-0.668 42.692 3.22 62.4 11.471l0.788 0.33v-25.287c0-5.172 0.769-10.384 2.286-15.492l0.113-0.38-60.995-45.744zM592.052 287.382c-21.648-21.009-50.181-32.578-80.338-32.578-1.194 0-2.388 0.018-3.589 0.053-61.669 1.851-111.84 56.090-111.84 120.911v32.315c0 2.649-0.626 5.3-1.811 7.669l-6.94 13.883c-6.661 13.317-10.182 28.258-10.182 43.209 0 48.807 39.706 88.516 88.512 88.516h180.166v-88.584c0-14.903-3.523-29.82-10.184-43.141l-6.94-13.883c-1.184-2.368-1.81-5.020-1.81-7.669v-37.872c0-31.486-12.445-60.902-35.042-82.829zM396.286 48.295c0 9.456-7.693 17.147-17.147 17.147s-17.149-7.693-17.149-17.147v-94.682c0-9.456 7.693-17.147 17.149-17.147s17.147 7.693 17.147 17.147v94.682zM661.392 48.295c0 9.456-7.693 17.147-17.147 17.147s-17.149-7.693-17.149-17.147v-94.682c0-9.456 7.694-17.147 17.149-17.147s17.147 7.693 17.147 17.147v94.682z" />
<glyph unicode="&#xe90b;" glyph-name="soft-skills" d="M347.836 105.969l-59.736 29.868c39.952 11.39 65.092 26.152 77.62 34.932 12.046 8.443 16.56 23.74 10.977 37.195-11.865 28.595-25.8 83.020-26.046 142.306-0.342 82.398-63.714 152.74-144.275 160.138-9.982 0.916-20.065 0.916-30.040 0-80.56-7.398-143.935-77.74-144.277-160.138-0.246-59.286-14.184-113.712-26.046-142.306-5.582-13.458-1.066-28.753 10.98-37.195 12.528-8.78 37.665-23.542 77.62-34.932l-59.734-29.868c-21.512-10.758-34.877-32.382-34.877-56.437v-98.533c0-8.283 6.714-15 15-15s15 6.716 15 15v98.533c0 12.618 7.010 23.96 18.295 29.605l47.353 23.676c19.861-33.481 56.301-54.586 95.708-54.586 39.755 0 75.892 21.012 95.713 54.583l47.344-23.673c11.286-5.645 18.294-16.987 18.294-29.605v-98.533c0-8.283 6.713-15 15-15 8.285 0 15 6.716 15 15v98.533c0 24.054-13.362 45.68-34.876 56.437zM191.36 78.228c-28.056 0-54.030 14.666-68.759 38.060l9.645 4.822c16.047 8.024 26.015 24.154 26.015 42.096v17.672c10.56-2.848 21.651-4.394 33.099-4.394 11.315 0 22.432 1.52 33.096 4.407v-17.684c0-17.94 9.968-34.070 26.016-42.096l9.684-4.842c-14.692-23.452-40.488-38.039-68.796-38.039zM255.081 158.621c-0.405 1.469-0.626 3.007-0.626 4.584v30.090c19.525 11.16 36.114 27.452 47.585 47.64 21.040 37.024 13.437 84.817-18.080 113.64-22.096 20.208-61.66 44.297-124.665 44.297-3.978 0-7.793-1.58-10.608-4.394l-32.065-32.063c-5.857-5.857-5.857-15.355 0-21.213 5.86-5.857 15.357-5.857 21.215 0l27.585 27.587c40.083-1.122 73.126-13.337 98.293-36.35 21.282-19.464 26.432-51.714 12.245-76.681-17.273-30.392-49.69-49.273-84.599-49.273-53.612 0-97.227 43.616-97.227 97.225 0 8.284-6.713 15-15 15-8.285 0-15-6.715-15-15 0-47.2 25.857-88.447 64.127-110.408v-30.098c0-1.578-0.221-3.115-0.626-4.584-50.578 10.477-80.183 27.439-93.417 36.713-0.279 0.195-0.712 0.6-0.49 1.132 12.906 31.115 28.071 90.028 28.335 153.675 0.278 67.114 51.678 124.389 117.020 130.389 8.16 0.75 16.386 0.75 24.55 0 65.34-6 116.741-63.274 117.018-130.389 0.264-63.647 15.431-122.564 28.336-153.675 0.222-0.535-0.208-0.94-0.485-1.132-13.239-9.275-42.848-26.237-93.422-36.714zM79.131 30.129c-8.285 0-15-6.716-15-15v-64.129c0-8.283 6.714-15 15-15s15.002 6.716 15.002 15v64.129c-0.001 8.286-6.715 15-15.002 15zM303.583 30.129c-8.285 0-15-6.716-15-15v-64.129c0-8.283 6.714-15 15-15s15 6.716 15 15v64.129c0 8.286-6.714 15-15 15zM889.065 380.319c-2.175 1.45-54.248 35.313-139.52 18.26-7.012-1.402-12.058-7.558-12.058-14.708v-16.032c0-8.284 6.713-15 15-15 8.285 0 15 6.715 15 15v3.392c32.133 4.59 57.556 0.824 73.878-3.47 19.666-5.175 30.754-12.208 31.12-12.445 2.542-1.678 5.41-2.48 8.247-2.48 4.848 0 9.603 2.346 12.493 6.682 4.594 6.894 2.732 16.208-4.161 20.802zM983.061 121.040l-76.244 28.592c-6.624 2.484-11.072 8.903-11.072 15.978v38.463c3.267 2.603 6.426 5.381 9.464 8.33 24.912 24.173 38.63 56.603 38.63 91.31v28.523l4.292 8.586c7.68 15.359 11.74 32.552 11.74 49.729v89.518c0 8.284-6.714 15-15 15h-167.056c-57.6 0-104.458-46.861-104.458-104.517 0-17.172 4.057-34.368 11.737-49.727l4.292-8.586v-23.818c0-41.258 18.873-78.567 48.097-102.904v-39.903c0-7.075-4.45-13.494-11.073-15.979l-76.24-28.591c-24.491-9.182-40.944-32.925-40.944-59.080v-110.961c0-8.283 6.713-15 15-15 8.285 0 15 6.716 15 15v110.958c0 13.72 8.63 26.172 21.476 30.99l76.242 28.591c4.127 1.549 7.927 3.674 11.368 6.225l53.3-39.975v-136.79c0-8.283 6.714-15 15-15s15 6.716 15 15v136.789l53.298 39.975c3.442-2.552 7.242-4.677 11.369-6.225l76.246-28.591c12.844-4.816 21.474-17.27 21.474-30.99v-110.958c0-8.283 6.713-15 15-15 8.285 0 15 6.716 15 15v110.958c0.003 26.155-16.45 49.897-40.94 59.080zM816.615 114.040l-51.083 38.312c1.26 4.246 1.954 8.698 1.954 13.254v21.261c14.017-6.185 29.267-9.844 45.228-10.324 1.32-0.040 2.634-0.060 3.95-0.060 17.13 0 33.729 3.383 49.083 9.81v-20.686c0-4.558 0.694-9.008 1.955-13.254l-51.086-38.312zM884.317 233.93c-19.028-18.465-44.122-28.198-70.706-27.4-51.954 1.559-94.223 47.264-94.223 101.887v27.36c0 2.33-0.543 4.625-1.585 6.708l-5.875 11.754c-5.609 11.213-8.57 23.77-8.57 36.368 0 41.058 33.401 74.46 74.457 74.46h152.056v-74.518c0-12.539-2.963-25.097-8.572-36.31l-5.875-11.754c-1.042-2.084-1.584-4.378-1.584-6.708v-32.065c0-26.523-10.482-51.305-29.523-69.782zM704.39 46.163c-8.286 0-15-6.715-15-15v-80.162c0-8.283 6.713-15 15-15 8.285 0 15 6.716 15 15v80.162c-0.001 8.285-6.715 15-15 15zM928.841 46.163c-8.285 0-15-6.715-15-15v-80.162c0-8.283 6.714-15 15-15s15 6.716 15 15v80.162c0 8.285-6.714 15-15 15zM736.455 895.87h-1.032v1.032c0 34.796-28.303 63.099-63.098 63.099h-448.902c-34.793 0-63.098-28.303-63.098-63.095v-256.517c0-34.791 28.304-63.095 63.098-63.095h65.161v-1.032c0-34.791 28.304-63.095 63.098-63.095h12.852l-6.021-24.086c-2.377-9.503 1.336-19.184 9.458-24.662 3.944-2.66 8.415-3.986 12.88-3.986 4.73 0 9.454 1.488 13.53 4.451l66.39 48.285h14.63l125.116-83.413c3.867-2.578 8.317-3.867 12.768-3.867 4.342-0.005 8.689 1.225 12.496 3.688 7.707 4.986 11.713 14.056 10.206 23.111l-10.080 60.475h110.55c34.792 0 63.098 28.304 63.098 63.097v256.517c-0.002 34.793-28.306 63.095-63.1 63.095zM372.033 543.162h-20.353c-18.249 0-33.098 14.847-33.098 33.097v1.032h61.983l-8.532-34.129zM392.277 500.446l22.052 88.207c1.12 4.481 0.114 9.227-2.73 12.871-2.842 3.64-7.204 5.769-11.823 5.769h-176.354c-18.25 0-33.098 14.846-33.098 33.096v256.518c0 18.25 14.848 33.096 33.098 33.096h448.902c18.25 0 33.098-14.846 33.098-33.096v-256.517c0-18.25-14.848-33.096-33.098-33.096h-128.258c-3.17 0-6.258-1.004-8.822-2.869l-142.967-103.978zM769.552 576.26c0-18.249-14.849-33.096-33.099-33.096h-128.257c-4.41 0-8.596-1.94-11.446-5.304s-4.074-7.815-3.348-12.163l10.34-62.042-110.111 73.407 55.313 40.23h123.379c34.792 0 63.098 28.303 63.098 63.095v225.485h1.032c18.25 0 33.099-14.846 33.099-33.096v-256.517zM335.641 863.808h-48.089c-8.286 0-15-6.716-15-15s6.715-15 15-15h48.089c8.286 0 15 6.715 15 15s-6.714 15-15 15zM608.198 863.808h-208.417c-8.285 0-15-6.716-15-15s6.714-15 15-15h208.417c8.285 0 15 6.715 15 15s-6.715 15-15 15zM608.196 783.645h-320.644c-8.286 0-15-6.716-15-15s6.715-15 15-15h320.643c8.285 0 15 6.715 15 15 0 8.283-6.714 15-14.999 15zM495.968 703.486h-208.416c-8.286 0-15-6.716-15-15s6.713-15 15-15h208.416c8.285 0 15 6.715 15 15 0 8.283-6.715 15-15 15zM608.198 703.486h-48.090c-8.286 0-15-6.716-15-15s6.713-15 15-15h48.090c8.285 0 15 6.715 15 15-0.001 8.283-6.717 15-15 15z" />
<glyph unicode="&#xe90c;" glyph-name="refresh" horiz-adv-x="1184" d="M1169.622 346.403l-127.076 191.263c-4.6 6.898-11.916 11.287-20.067 12.332-1.254 0.209-2.298 0.209-3.553 0.209-6.896 0-13.584-2.508-18.809-7.316l-176.613-159.076c-11.496-10.45-12.541-28.216-2.090-39.92 10.45-11.496 28.216-12.541 39.92-2.090l117.254 105.967v-2.091c0-212.978-173.058-386.035-385.826-386.035-153.891 0-287.114 90.571-349.045 221.293l-43.522-39.201c73.867-141.654 222.144-238.525 392.569-238.525 243.911 0 442.26 198.557 442.26 442.469v1.462l87.574-131.883c8.569-12.959 26.127-16.511 39.085-7.942s16.509 26.125 7.941 39.084zM591.236 892.786c-243.912 0-442.26-198.557-442.26-442.469v-1.462l-87.575 131.883c-8.569 12.959-26.126 16.511-39.085 7.942s-16.511-26.126-7.942-39.085l127.076-191.241c4.599-6.898 11.915-11.287 20.066-12.332 1.254-0.209 2.299-0.209 3.553-0.209 6.897 0 13.584 2.508 18.81 7.316l176.612 159.055c11.496 10.45 12.541 28.216 2.090 39.92-10.45 11.496-28.216 12.541-39.92 2.090l-117.254-105.967v2.091c0 212.978 173.058 386.035 385.827 386.035 155.569 0 289.992-92.533 351.035-225.529l43.669 39.333c-73.126 143.886-222.614 242.63-394.703 242.63z" />
<glyph unicode="&#xe90d;" glyph-name="reco-endor" d="M256.562 35.422c0-13.212-10.71-23.922-23.922-23.922s-23.922 10.71-23.922 23.922c0 13.212 10.71 23.922 23.922 23.922s23.922-10.71 23.922-23.922zM925.2 196.875c4.84 7.73 7.65 16.857 7.65 26.631v8.424c0 27.76-22.581 50.34-50.34 50.34h-156.515c-3.4 0-6.721-0.342-9.933-0.99l28.108 141.64c4.122 20.772 4.59 41.19 1.39 60.69-5.318 32.419-22.443 71.059-73.814 71.059-7.325 0-13.583-5.285-14.813-12.506l-9.86-58.020c-3.896-22.922-9.241-44.756-15.883-64.895-18.394-55.775-41.604-84.362-82.78-101.974-19.785-8.461-35.85-15.698-42.272-18.614h-61.977v12.010c0 8.3-6.723 15.024-15.023 15.024h-101.707v16.21c0 8.3-6.724 15.024-15.024 15.024h-252.557c-8.3 0-15.023-6.724-15.023-15.024v-89.152c0-8.3 6.725-15.024 15.023-15.024 8.3 0 15.024 6.727 15.024 15.024v74.127h222.511v-353.66h-222.508v229.45c0 8.3-6.724 15.024-15.024 15.024s-15.023-6.727-15.023-15.024v-244.474c0-8.3 6.725-15.023 15.023-15.023h252.559c8.3 0 15.024 6.723 15.024 15.023v16.21h101.706c8.3 0 15.024 6.724 15.024 15.024v7.042h59.92l32.286-26.139c27.104-21.943 61.236-34.028 96.113-34.028h91.534c0.107 0 0.208 0.015 0.312 0.016 1.932-0.206 3.888-0.32 5.874-0.32h107.325c30.082 0 54.554 24.472 54.554 54.552 0 9.029-2.218 17.545-6.118 25.055 26.46 3.742 46.88 26.525 46.88 54.002 0 11.113-3.347 21.455-9.075 30.085 16.222 8.368 27.344 25.285 27.344 44.76v8.422c0.005 18.898-10.469 35.391-25.915 43.999zM725.996 252.217l156.515 0.002c11.188 0 20.292-9.102 20.292-20.292v-8.423c0-11.188-9.102-20.292-20.292-20.292h-156.515c-11.188 0-20.291 9.102-20.291 20.292v8.076c0.981 3.648 1.835 7.070 2.571 10.207 3.471 6.213 10.109 10.43 17.72 10.43zM675.654-9.454c0-8.686 2.053-16.901 5.68-24.198h-48.852c-28.011 0.003-55.427 9.712-77.2 27.337l-36.425 29.486c-2.675 2.166-6.012 3.348-9.455 3.348h-65.24v43.083c0 8.3-6.724 15.024-15.024 15.024s-15.023-6.725-15.023-15.024v-65.151h-86.683v291.191h86.683v-175.96c0-8.3 6.725-15.023 15.023-15.023 8.3 0 15.024 6.723 15.024 15.023v148.924h65.24c2.167 0 4.31 0.469 6.278 1.374 0.19 0.085 19.263 8.847 44.544 19.662 49.502 21.167 78.328 55.99 99.504 120.193 7.112 21.565 12.818 44.871 16.968 69.27l7.513 44.2c17.63-4.112 27.35-18.087 31.694-44.564 2.613-15.933 2.207-32.748-1.212-49.973l-32.032-161.419c-0.060-0.3-0.113-0.605-0.152-0.912-0.038-0.28-0.848-5.923-2.835-14.814-2.005-4.694-3.306-9.752-3.794-15.045-11.902-42.49-42.532-115.305-112.66-115.305-8.298 0-15.024-6.723-15.024-15.023s6.727-15.024 15.024-15.024c46.504 0 85.27 23.997 113.080 69.638-0.415-2.603-0.642-5.274-0.642-7.995v-8.424c0-14.376 6.067-27.351 15.763-36.533-9.738-9.858-15.763-23.393-15.763-38.31 0-15.547 6.547-29.582 17.014-39.526-10.471-9.946-17.015-23.981-17.015-39.529zM837.534-33.951h-107.327c-13.51 0-24.502 10.992-24.502 24.502s10.992 24.503 24.502 24.503h107.327c13.51 0 24.503-10.992 24.503-24.503s-10.993-24.502-24.503-24.502zM878.3 45.102h-148.090c-13.51 0-24.502 10.992-24.502 24.502s10.992 24.502 24.502 24.502h148.092c13.51 0 24.502-10.992 24.502-24.502-0.002-13.508-10.994-24.502-24.504-24.502zM921.070 144.451c0.002-11.188-9.1-20.292-20.29-20.292h-174.785c-11.189 0-20.292 9.104-20.292 20.292v8.424c0 11.188 9.102 20.291 20.292 20.291h174.785c11.188 0 20.291-9.101 20.291-20.291v-8.424zM346.246 743.202c-3.331 10.246-12.023 17.572-22.685 19.123l-68.318 9.928-30.553 61.905c-4.77 9.662-14.427 15.665-25.202 15.665s-20.43-6.002-25.2-15.665l-30.548-61.905-68.317-9.928c-10.664-1.549-19.356-8.875-22.687-19.123-3.333-10.247-0.608-21.287 7.11-28.814l49.435-48.186-11.668-68.040c-1.822-10.622 2.462-21.152 11.176-27.489 4.928-3.579 10.691-5.395 16.493-5.395 4.467 0 8.954 1.077 13.105 3.257l61.104 32.124 61.103-32.124c9.539-5.013 20.877-4.194 29.592 2.138 8.718 6.332 13.003 16.866 11.18 27.489l-11.67 68.040 49.436 48.189c7.718 7.522 10.443 18.562 7.111 28.811zM267.991 687.007c-6.625-6.458-9.647-15.756-8.084-24.874l11.176-65.161-58.519 30.762c-8.19 4.308-17.968 4.305-26.155 0.002l-58.518-30.764 11.173 65.161c1.564 9.115-1.455 18.413-8.080 24.874l-47.343 46.146 65.43 9.508c9.152 1.328 17.066 7.074 21.16 15.374l29.258 59.288 29.256-59.284c4.093-8.3 12.005-14.050 21.16-15.378l65.424-9.508-47.338-46.146zM662.304 853.382c-3.333 10.246-12.024 17.572-22.686 19.123l-68.318 9.928-30.553 61.904c-4.767 9.66-14.424 15.663-25.2 15.663s-20.43-6.002-25.2-15.664l-30.553-61.906-68.317-9.928c-10.663-1.545-19.356-8.875-22.687-19.123-3.333-10.246-0.608-21.286 7.11-28.814l49.438-48.188-11.67-68.038c-1.822-10.622 2.462-21.152 11.176-27.488 8.718-6.334 20.054-7.152 29.596-2.14l61.104 32.123 61.104-32.123c4.148-2.182 8.636-3.259 13.104-3.259 5.803 0 11.567 1.819 16.494 5.396 8.715 6.333 13 16.865 11.175 27.485l-11.67 68.041 49.44 48.189c7.716 7.53 10.44 18.57 7.111 28.818zM584.050 797.185c-6.622-6.453-9.645-15.75-8.084-24.873l11.176-65.161-58.522 30.763c-8.185 4.304-17.966 4.304-26.153 0l-58.519-30.763 11.176 65.161c1.563 9.118-1.457 18.416-8.083 24.873l-47.341 46.147 65.427 9.507c9.153 1.328 17.066 7.075 21.162 15.375l29.259 59.285 29.258-59.287c4.097-8.298 12.008-14.045 21.16-15.373l65.427-9.507-47.344-46.147zM977.777 743.2c-3.333 10.246-12.024 17.572-22.686 19.123l-68.318 9.928-30.55 61.905c-4.77 9.662-14.425 15.665-25.2 15.665s-20.43-6.002-25.2-15.665l-30.553-61.905-68.317-9.928c-10.663-1.547-19.356-8.875-22.687-19.123s-0.605-21.288 7.112-28.812l49.436-48.189-11.67-68.038c-1.823-10.622 2.46-21.152 11.175-27.488 8.718-6.334 20.052-7.154 29.596-2.14l61.104 32.123 61.104-32.123c4.148-2.182 8.636-3.259 13.105-3.259 5.804 0 11.568 1.819 16.493 5.396 8.717 6.333 13 16.865 11.176 27.485l-11.67 68.040 49.44 48.188c7.713 7.529 10.439 18.569 7.108 28.815zM899.521 687.003c-6.62-6.456-9.643-15.75-8.080-24.87l11.176-65.161-58.52 30.764c-4.093 2.153-8.585 3.228-13.076 3.228s-8.983-1.075-13.078-3.228l-58.518-30.764 11.175 65.161c1.564 9.12-1.455 18.417-8.083 24.874l-47.342 46.146 65.422 9.508c9.152 1.328 17.067 7.074 21.163 15.374l29.263 59.284 29.258-59.287c4.097-8.298 12.009-14.042 21.16-15.373l65.427-9.507-47.346-46.149z" />
<glyph unicode="&#xe90e;" glyph-name="photo" d="M884.611 46.592h-745.242c-76.863 0-139.368 62.527-139.368 139.368v400.447c0 76.863 62.527 139.368 139.368 139.368h91.387c7.837 69.465 66.978 123.653 138.491 123.653h285.487c71.555 0 130.654-54.168 138.491-123.653h91.387c76.863 0 139.389-62.527 139.389-139.368v-400.447c0-76.842-62.548-139.368-139.389-139.368zM139.368 683.98c-53.812 0-97.573-43.781-97.573-97.573v-400.447c0-53.791 43.781-97.552 97.573-97.552h745.242c53.791 0 97.593 43.781 97.593 97.552v400.447c0 53.812-43.802 97.573-97.593 97.573h-111.386c-11.536 0-20.898 9.362-20.898 20.898v5.162c0 53.812-43.802 97.573-97.552 97.573h-285.529c-53.812 0-97.573-43.781-97.573-97.573v-5.162c0-11.536-9.362-20.898-20.898-20.898h-111.407zM512 166.755c-138.282 0-250.776 112.494-250.776 250.776 0 138.303 112.494 250.776 250.776 250.776s250.776-112.494 250.776-250.776c0-138.303-112.494-250.776-250.776-250.776zM512 626.51c-115.231 0-208.98-93.748-208.98-208.98s93.748-208.98 208.98-208.98 208.98 93.727 208.98 208.98-93.748 208.98-208.98 208.98zM512 253.837c-90.258 0-163.694 73.435-163.694 163.673 0 90.258 73.435 163.694 163.694 163.694 90.237 0 163.694-73.435 163.694-163.694 0-90.237-73.456-163.673-163.694-163.673zM512 539.449c-67.229 0-121.898-54.69-121.898-121.898 0-67.229 54.69-121.919 121.898-121.919s121.898 54.69 121.898 121.919c0 67.208-54.69 121.898-121.898 121.898z" />
<glyph unicode="&#xe90f;" glyph-name="volunteering" d="M310.721 291.62c18.244 0 35.395 7.1 48.283 20.001 8.841 8.825 14.455 19.558 17.425 30.841l35.859-35.841c12.885-12.901 30.037-20.001 48.263-20.001 18.244 0 35.38 7.1 48.265 20.001 12.901 12.886 20.001 30.038 20.001 48.265 0 18.244-7.1 35.38-20.001 48.283l-30.806 30.805c11.502 3.038 22.153 8.806 30.806 17.46 12.901 12.902 20.001 30.037 20.001 48.283 0 18.228-7.1 35.38-20.001 48.265l-42.887 42.887c11.52 3.038 22.168 8.805 30.821 17.46 12.902 12.885 20.002 30.020 20.002 48.263s-7.1 35.38-20.002 48.265l-121.037 121.053v117.027c0 9.42-7.645 17.066-17.066 17.066s-17.067-7.646-17.067-17.066v-90.795c-24.73 9.627-54.802 4.778-74.121-14.524-21.18-21.215-25.207-52.873-12.645-78.37-13.245-2.339-25.839-8.38-35.636-18.192-21.025-21.044-25.155-52.395-12.935-77.808-13.295-2.542-25.548-8.942-35.328-18.722-21.026-21.044-25.174-52.412-12.937-77.824-13.312-2.541-25.548-8.941-35.328-18.721-12.902-12.886-20.002-30.038-20.002-48.265 0-18.244 7.1-35.38 20.002-48.283l139.81-139.81c12.883-12.902 30.035-20.003 48.26-20.003zM291.589 813.484c6.452 6.434 15.019 9.984 24.132 9.984 9.13 0 17.698-3.55 24.15-9.984l132.746-132.763c6.452-6.452 10-15.018 10-24.132s-3.549-17.681-10-24.131c-12.901-12.885-35.38-12.885-48.263 0l-132.763 132.745c-13.296 13.314-13.296 34.97-0.002 48.282zM243.308 716.921c6.451 6.452 15.036 10.002 24.149 10.002 9.115 0 17.682-3.55 24.132-10.002l193.092-193.075c6.452-6.452 10-15.018 10-24.132 0-9.13-3.55-17.698-10-24.15-12.885-12.885-35.38-12.885-48.265 0l-168.96 168.96c-0.018 0.018-0.018 0.018-0.033 0.034l-24.115 24.098c-13.295 13.313-13.295 34.971-0.001 48.266zM195.043 620.392c6.452 6.433 15.018 9.983 24.15 9.983 9.095 0 17.663-3.532 24.098-9.95l241.39-241.408c6.452-6.434 10-15.003 10-24.132 0-9.115-3.55-17.682-10-24.132-12.885-12.885-35.38-12.885-48.265 0l-77.38 77.364c0 0.018-0.018 0.033-0.033 0.052l-163.944 163.942c-13.311 13.31-13.311 34.968-0.017 48.28zM136.777 499.714c0 9.115 3.551 17.682 10.002 24.132 6.452 6.434 15.018 9.984 24.132 9.984 9.13 0 17.698-3.55 24.132-9.984l139.88-139.88c13.245-13.312 13.245-34.917-0.052-48.213-12.885-12.886-35.38-12.902-48.283 0l-139.81 139.809c-6.45 6.453-10.001 15.022-10.001 24.152zM853.084 533.336c0-9.42 7.628-17.066 17.066-17.066 9.42 0 17.067 7.646 17.067 17.066 0 123.358-51.49 196.062-82.262 239.495-8.977 12.681-20.136 28.45-20.136 33.57v136.534c0 9.42-7.646 17.066-17.066 17.066-9.438 0-17.066-7.646-17.066-17.066v-136.534c0-15.973 11.075-31.643 26.435-53.3 30.24-42.718 75.963-107.263 75.963-219.765zM358.646 4.269c-9.42 0-17.067-7.647-17.067-17.066v-34.134c0-9.42 7.647-17.066 17.067-17.066s17.066 7.646 17.066 17.066v34.134c0 9.419-7.646 17.066-17.066 17.066zM811.337 513.401c-40.14 26.761-166.211 99.874-172.492 103.476-11.401 5.683-24.064 4.898-35.636-2.27-24.953-15.412-40.26-57.719-40.26-81.273 0-32.785 23.007-52.718 47.379-73.814 8.448-7.303 17.169-14.881 25.889-23.585l85.334-85.334c5.65-5.665 10.99-11.008 11.725-12.611 0.308-0.957 0.341-4.59 0.341-8.159-4.028-10.785-35.549-46.83-62.686-74l-188.264-171.178c-4.965-4.882-15.445-12.117-22.117-12.117h-153.6c-18.823 0-34.134 15.308-34.134 34.134s15.309 34.133 34.134 34.133h119.466c23.451 0 43.931 19.814 46.199 22.068l119.467 119.467c6.656 6.672 6.656 17.46 0 24.132-6.674 6.673-17.475 6.673-24.132 0l-119.415-119.418c-4.966-4.882-15.446-12.117-22.118-12.117h-170.666c-18.823 0-34.134 15.308-34.134 34.134 0 18.823 15.309 34.133 34.134 34.133h136.534c9.42 0 17.066 7.647 17.066 17.067s-7.646 17.066-17.066 17.066h-187.734c-18.823 0-34.134 15.308-34.134 34.134 0 8.43 3.089 16.503 8.687 22.75 6.298 7.031 5.7 17.818-1.314 24.115-7.031 6.298-17.818 5.684-24.098-1.332-11.23-12.526-17.408-28.69-17.408-45.534 0-35.193 26.846-63.899 61.083-67.55-6.144-10.24-9.883-22.068-9.883-34.85 0-35.193 26.846-63.899 61.083-67.55-6.144-10.24-9.883-22.068-9.883-34.85 0-37.65 30.618-68.267 68.266-68.267h153.6c23.45 0 43.93 19.814 45.62 21.504l188.315 171.23c73.268 73.268 73.268 91.425 73.268 97.399 0 22.647-2.782 26.914-22.068 46.199l-85.334 85.334c-9.573 9.591-19.2 17.901-27.681 25.258-23.382 20.258-35.584 31.59-35.584 48.007 0 21.538 18.365 53.025 25.566 53.503 1.297-0.749 130.492-75.655 169.762-101.836 44.134-29.422 94.806-75.742 94.806-173.535 0-73.25-57.6-172.561-95.71-238.268-27.238-46.95-40.329-70.212-40.329-85.998v-34.133c0-9.42 7.647-17.067 17.067-17.067s17.066 7.647 17.066 17.067v33.946c0.7 8.67 19.302 40.755 35.721 69.052 42.325 72.993 100.318 172.954 100.318 255.402-0.002 115.268-62.791 170.446-110.014 201.934z" />
<glyph unicode="&#xe910;" glyph-name="languages" d="M512.001 807.492c-198.225 0-359.49-161.266-359.49-359.49s161.265-359.489 359.49-359.489c198.224 0 359.487 161.267 359.487 359.489s-161.264 359.49-359.487 359.49zM837.235 480.016c-0.353-8.699-7.52-15.674-16.305-15.674h-74.72v38.128c0 9.025-7.314 16.34-16.34 16.34h-201.53v32.68h49.022c9.026 0 16.34 7.317 16.34 16.34 0 9.012 7.33 16.34 16.34 16.34h21.787c9.027 0 16.34 7.317 16.34 16.34v59.915h111.972c42.479-49.546 70.405-111.906 77.095-180.408zM512.001 774.809c15.269 0 30.291-1.077 45.012-3.116-7.515-17.562-24.84-29.565-45.012-29.565s-37.494 12.005-45.013 29.567c14.718 2.037 29.74 3.114 45.013 3.114zM299.575 696.144v-177.332h-106.634c15.577 70.24 53.816 132.050 106.634 177.332zM189.866 392.886c4.8 3.922 10.782 6.094 17.116 6.094h114.382v-49.022c0-20.090-11.205-51.318-23.97-66.827l-36.383-44.188c-36.126 43.298-61.273 96.049-71.145 153.944zM512.001 121.195c-15.271 0-30.292 1.075-45.013 3.113 7.517 17.563 24.841 29.567 45.013 29.567 20.169 0 37.495-12.004 45.012-29.567-14.721-2.037-29.743-3.113-45.012-3.113zM589.608 130.53c-10.749 32.925-41.467 56.025-77.608 56.025-36.138 0-66.856-23.101-77.608-56.025-57.88 14.151-109.756 43.754-150.999 84.18l39.231 47.65c17.62 21.403 31.422 59.88 31.422 87.6v65.361c0 9.025-7.315 16.34-16.34 16.34h-130.727c-7.36 0-14.492-1.34-21.143-3.848-0.41 6.68-0.642 13.406-0.642 20.188 0 12.899 0.776 25.617 2.236 38.128h112.147v-5.445c0-9.024 7.315-16.34 16.34-16.34 9.027 0 16.34 7.317 16.34 16.34v240.114c30.812 20.367 65.255 35.66 102.136 44.676 10.754-32.927 41.472-56.025 77.608-56.025 36.14 0 66.859 23.1 77.608 56.025 52.084-12.733 99.309-37.98 138.303-72.366h-128.761c-9.026 0-16.34-7.316-16.34-16.34s7.315-16.34 16.34-16.34h16.34v-43.573h-5.445c-21.305 0-39.476-13.66-46.222-32.68h-51.82c-9.026 0-16.34-7.316-16.34-16.34v-49.022h-27.234c-9.027 0-16.34-7.316-16.34-16.34s7.314-16.34 16.34-16.34h179.744v-32.68h-157.958c-33.035 0-59.913-26.875-59.913-59.913s26.878-59.914 59.913-59.914h5.447v-59.913c0-33.038 26.878-59.914 59.913-59.914h76.255c9.027 0 16.34 7.317 16.34 16.34v70.807c0 9.025-7.314 16.34-16.34 16.34s-16.34-7.316-16.34-16.34v-54.468h-59.913c-15.018 0-27.235 12.216-27.235 27.235v76.255c0 9.025-7.314 16.34-16.34 16.34h-21.787c-15.018 0-27.234 12.216-27.234 27.235s12.215 27.234 27.234 27.234h125.275v-54.468c0-9.024 7.315-16.34 16.34-16.34 9.027 0 16.34 7.317 16.34 16.34v54.467h16.34c9.027 0 16.34 7.317 16.34 16.34v49.022h32.68v-92.596c0-9.025 7.315-16.34 16.34-16.34 9.027 0 16.34 7.316 16.34 16.34v38.121h74.72c6.2 0 12.125 1.174 17.595 3.285-5.832-147.69-110.128-270.485-248.914-304.416zM697.19 317.278c-9.026 0-16.34-7.316-16.34-16.34v-21.787c0-9.025 7.315-16.34 16.34-16.34 9.027 0 16.34 7.316 16.34 16.34v21.787c0.003 9.024-7.311 16.34-16.34 16.34zM468.425 671.322c-9.026 0-16.34-7.317-16.34-16.34v-21.787c0-9.025 7.317-16.34 16.34-16.34 9.026 0 16.34 7.316 16.34 16.34v21.787c0.002 9.021-7.312 16.34-16.34 16.34zM874.038 810.040c-96.703 96.703-225.278 149.961-362.036 149.961-124.225 0-244.037-45.066-337.37-126.897-6.785-5.948-7.465-16.271-1.514-23.058 5.952-6.783 16.272-7.464 23.060-1.513 87.37 76.601 199.53 118.787 315.824 118.787 264.297 0 479.318-215.020 479.318-479.318 0-264.3-215.020-479.32-479.318-479.32-91.127 0-179.787 25.692-256.396 74.292-4.145 2.631-9.263 3.26-13.922 1.704l-199.507-66.503 66.502 199.504c1.554 4.66 0.928 9.772-1.703 13.92-48.605 76.616-74.295 165.278-74.295 256.403 0 116.29 42.185 228.452 118.787 315.825 5.948 6.786 5.27 17.11-1.513 23.060-6.789 5.949-17.112 5.27-23.060-1.514-81.829-93.338-126.894-213.151-126.894-337.372 0-94.721 25.99-186.955 75.245-267.277l-74.406-223.216c-1.956-5.872-0.43-12.345 3.948-16.722 3.116-3.116 7.292-4.787 11.559-4.787 1.728 0 3.471 0.274 5.166 0.839l223.216 74.404c80.318-49.25 172.554-75.24 267.274-75.24 136.759 0 265.333 53.257 362.036 149.963 96.703 96.703 149.96 225.278 149.96 362.036 0 136.761-53.257 265.334-149.96 362.039z" />
<glyph unicode="&#xe911;" glyph-name="interests" d="M299.53 123.405l-22.618-22.618-111.953 111.953 22.618 22.618 111.953-111.953zM336.203 368.024c-52.926 0-95.967-43.041-95.967-95.967s43.041-95.967 95.967-95.967c52.927 0 95.968 43.041 95.968 95.967s-43.041 95.967-95.968 95.967zM336.203 208.078c-35.284 0-63.977 28.694-63.977 63.977s28.695 63.977 63.977 63.977c35.285 0 63.978-28.695 63.978-63.977 0-35.284-28.694-63.977-63.978-63.977zM1019.314 827.178l-127.957 127.956c-6.253 6.254-16.362 6.254-22.616 0l-36.675-36.675-36.675 36.675-22.617-22.616 36.643-36.675-57.355-57.357-36.675 36.675-22.618-22.617 36.675-36.675-36.675-36.674c-6.253-6.254-6.253-16.364 0-22.617l20.681-20.681-173.285-173.301c-23.112 11.533-48.447 18.538-74.678 19.993-0.577 0.032-1.153-0.017-1.728 0l-320.802 350.599c-15.37 16.747-36.338 26.198-59.051 26.616-22.712 0.528-44.001-8.271-59.947-24.455-31.556-32.006-31.365-83.924 0.415-115.689l293.836-293.835c-10.253-10.381-19.338-21.817-26.887-34.116-26.615-43.233-64.265-72.359-105.979-82.020-50.767-11.74-95.519-39.218-129.428-79.492-76.741-91.121-74.215-226.514 5.87-314.932 44.674-49.311 105.772-77.364 172.085-79.012 2.063-0.065 4.11-0.080 6.158-0.080 64.025 0 124.005 24.823 169.462 70.281 31.412 31.397 53.421 70.744 63.61 113.785 10.493 44.208 38.626 82.228 77.156 104.284 14.411 8.236 27.383 18.441 39.171 30.085l205.722-205.722c-12.283-32.836-8.317-64.187 11.18-83.668 12.124-12.123 28.582-18.425 47.52-18.425 6.045 0 12.331 0.641 18.794 1.935 24.424 4.878 49.071 18.761 69.4 39.107 44.385 44.385 54.333 103.995 22.633 135.713-18.953 18.938-49.439 23.207-81.475 11.98l-236.593 248.65c1.056 31.478-5.63 63.099-19.849 91.824l173.299 173.299 20.681-20.68c1.488-1.488 3.263-2.687 5.214-3.487 1.808-0.735 3.295-1.359 5.038-1.359 5.967 0 14.939 7.373 49.248 41.314l36.483-36.483 22.616 22.617-36.435 36.435c8.494 8.509 17.962 17.993 28.758 28.822 9.677 9.708 19.321 19.384 28.517 28.63l36.516-36.516 22.617 22.616-36.58 36.58c21.402 21.512 36.613 36.804 36.613 36.804 6.221 6.253 6.205 16.362-0.032 22.584zM46.992 842.26c-19.401 19.403-19.513 51.086-0.272 70.632 9.725 9.885 22.504 15.147 36.595 14.939 13.867-0.256 26.679-6.030 36.053-16.235l303.288-331.454c-28.839-4.894-56.124-16.458-79.941-33.604l-295.723 295.722zM586.534 300.224c-14.027-20.026-31.572-36.164-52.173-47.968-46.177-26.439-79.845-71.879-92.369-124.646-8.844-37.267-27.91-71.335-55.116-98.558-40.643-40.643-94.56-62.282-152.203-60.844-57.452 1.423-110.427 25.751-149.149 68.504-69.401 76.615-71.608 193.918-5.119 272.866 29.415 34.932 68.217 58.763 112.186 68.92 50.127 11.595 94.88 45.84 126.005 96.414 6.461 10.509 14.219 20.298 23.048 29.142 30.037 30.053 70.871 46.848 113.161 46.848 2.974 0 5.934-0.080 8.925-0.256 46.064-2.576 87.443-24.056 116.504-60.475 26.712-33.46 37.971-75.638 33.652-116.423l-0.8-0.752 0.672-0.703c-2.96-25.43-11.966-50.286-27.225-72.070zM640.835 343.824l226.674-238.222c4.718-4.943 12.060-6.367 18.234-3.519 23.351 10.668 44.896 10.237 56.317-1.153 18.376-18.393 8.012-59.836-22.649-90.48-15.914-15.915-34.756-26.696-53.053-30.358-9.197-1.84-26.359-3.295-37.411 7.741-11.708 11.708-11.868 33.876-0.432 57.853 2.926 6.11 1.663 13.403-3.119 18.201l-215.014 214.982c0.752 1.040 1.616 1.952 2.351 3.008 13.355 19.065 22.617 40.113 28.103 61.946zM609.63 504.104c-1.471 2.015-2.864 4.079-4.415 6.030-10.796 13.533-23.368 25.193-37.044 35.22l167.894 167.91 41.362-41.346-167.797-167.814zM832.226 662.337l-105.532 105.547 153.324 153.308 105.372-105.372c-54.718-55.035-126.324-126.899-153.163-153.483zM480.154 959.82c-70.552 0-127.956-57.404-127.956-127.956 0-70.567 57.403-127.957 127.956-127.957 70.551 0 127.956 57.404 127.956 127.957 0 70.551-57.404 127.956-127.956 127.956zM480.154 735.897c-14.363 0-27.943 3.263-40.194 8.941 15.804 29.734 24.201 62.762 24.201 96.719v6.302c0 8.812 7.166 15.995 15.995 15.995s15.995-7.183 15.995-15.995v-6.302c0-33.957 8.397-66.986 24.201-96.719-12.254-5.695-25.833-8.941-40.197-8.941zM546.899 763.056c-12.252 24.28-18.761 51.023-18.761 78.485v6.318c0 26.454-21.529 47.984-47.984 47.984s-47.984-21.529-47.984-47.984v-6.302c0-27.478-6.51-54.206-18.762-78.485-17.993 17.434-29.222 41.81-29.222 68.793 0 52.909 43.057 95.967 95.967 95.967 52.926 0 95.967-43.041 95.967-95.967-0.001-26.984-11.229-51.359-29.223-68.809zM827.344 788.565l-31.983-31.983-22.619 22.619 31.983 31.983 22.619-22.619zM859.306 820.534l-22.619 22.619 31.983 31.983 22.619-22.619-31.983-31.983zM939.32 804.524l-31.984-31.984-22.618 22.618 31.984 31.984 22.618-22.618zM852.679 763.175l22.619-22.619-31.984-31.984-22.619 22.619 31.984 31.984zM991.979 543.963h31.989v-31.989h-31.989v31.989zM928 543.963h31.99v-31.989h-31.99v31.989zM864.022 543.963h31.989v-31.989h-31.989v31.989zM928 479.986h31.99v-31.99h-31.99v31.99zM864.022 479.986h31.989v-31.99h-31.989v31.99zM800.045 479.986h31.989v-31.99h-31.989v31.99z" />
<glyph unicode="&#xe912;" glyph-name="education" d="M720.931 72.023c-9.149 2.322-18.415-3.276-20.685-12.407l-17.067-68.267c-2.303-9.164 3.277-18.414 12.425-20.701 1.382-0.358 2.782-0.512 4.148-0.512 7.647 0 14.592 5.172 16.539 12.919l17.066 68.266c2.285 9.148-3.278 18.415-12.426 20.702zM512 413.868c2.219 0 4.438 0.426 6.519 1.296l187.734 77.687c8.704 3.602 12.834 13.586 9.234 22.29-3.602 8.722-13.62 12.818-22.306 9.25l-181.182-74.991-477.866 197.734v5.665c0 9.42-7.647 17.066-17.067 17.066s-17.068-7.645-17.068-17.064v-17.066c0-6.912 4.164-13.142 10.548-15.77l494.934-204.8c2.079-0.87 4.3-1.298 6.517-1.298zM715.026 239.020c-4.164 8.448-14.37 11.93-22.852 7.748-32.41-16.027-86.545-34.662-163.105-37.206v153.106c0 9.42-7.647 17.066-17.067 17.066s-17.066-7.646-17.066-17.066v-152.953c-211.917 6.757-280.302 135.135-290.134 156.502v115.916c0 9.42-7.646 17.067-17.066 17.067s-17.066-7.647-17.066-17.067v-119.466c0-2.167 0.408-4.318 1.211-6.348 2.97-7.39 75.606-181.385 340.123-181.385 92.45 0 157.235 22.426 195.295 41.234 8.459 4.179 11.925 14.401 7.727 22.85zM768 55.468c-9.438 0-17.066-7.647-17.066-17.067v-51.2c0-9.42 7.628-17.066 17.066-17.066s17.067 7.646 17.067 17.066v51.2c0 9.42-7.628 17.067-17.067 17.067zM1006.935 669.867c-9.438 0-17.066-7.646-17.066-17.066v-5.632l-204.8-84.291v30.839l228.385 94.515c6.382 2.628 10.548 8.858 10.548 15.77s-4.163 13.123-10.53 15.77l-494.953 204.799c-4.181 1.725-8.858 1.725-13.038 0l-494.934-204.8c-6.383-2.645-10.548-8.858-10.548-15.77s4.164-13.142 10.548-15.77l494.934-204.8c2.082-0.87 4.3-1.298 6.519-1.298s4.437 0.426 6.519 1.298l178.962 74.052c8.722 3.584 12.852 13.568 9.25 22.29-3.602 8.704-13.585 12.818-22.29 9.234l-172.443-71.341-450.303 186.334 450.303 186.334 450.304-186.335-195.942-81.085-187.682 70.077c0.99 3.55 1.588 7.202 1.588 11.008 0 28.705-29.986 51.2-68.267 51.2s-68.266-22.495-68.266-51.2 29.985-51.2 68.266-51.2c17.085 0 32.324 4.66 44.167 12.167l194.765-72.721v-420.458c-19.813-7.079-34.133-25.836-34.133-48.057 0-28.228 22.972-51.2 51.2-51.2s51.2 22.972 51.2 51.2c0 22.22-14.318 40.977-34.133 48.060v96.87c48.997 36.985 66.56 86.238 67.328 88.422 0.614 1.792 0.938 3.685 0.938 5.58v119.467c0 9.42-7.628 17.066-17.066 17.066s-17.066-7.646-17.066-17.066v-116.312c-2.953-7.235-13.21-29.541-34.134-51.557v211.699l228.37 93.986c6.4 2.628 10.564 8.874 10.564 15.786v17.067c-0.001 9.422-7.629 17.068-17.067 17.068zM512 686.936c-20.837 0-34.133 10.103-34.133 17.066s13.294 17.066 34.133 17.066 34.134-10.103 34.134-17.066c0-6.964-13.296-17.066-34.134-17.066zM768 106.668c-9.42 0-17.066 7.662-17.066 17.066s7.646 17.066 17.066 17.066 17.067-7.661 17.067-17.066c0-9.403-7.647-17.066-17.067-17.066zM835.755 59.615c-2.286 9.13-11.572 14.713-20.684 12.407-9.149-2.286-14.713-11.553-12.425-20.702l17.066-68.266c1.947-7.748 8.892-12.919 16.539-12.919 1.365 0 2.764 0.155 4.148 0.512 9.148 2.286 14.713 11.538 12.423 20.702l-17.068 68.266z" />
<glyph unicode="&#xe913;" glyph-name="experience" d="M600.287 192.623h-378.475c-8.259 0-14.953-6.694-14.953-14.952s6.694-14.953 14.953-14.953h349.897zM645.496 444.687c-6.942-1.142-13.943-1.802-20.948-1.974v36.558c0 8.259-6.694 14.953-14.953 14.953h-65.787c-8.258 0-14.953-6.694-14.953-14.953v-36.603h-97.56c-8.256 0-14.952-6.695-14.952-14.953 0-8.256 6.694-14.953 14.952-14.953h97.56v-12.685c0-26.383 21.464-47.845 47.845-47.845 26.383 0 47.847 21.464 47.847 47.845v12.742c6.997 0.141 31.374 0.693 38.331 1.648zM802.246 586.048v122.498c0 8.258-6.694 14.953-14.953 14.953h-160.185v60.018c0 53.38-43.428 96.808-96.808 96.808h-233.198c-53.38 0-96.809-43.428-96.809-96.808v-60.018h-160.188c-8.258 0-14.953-6.695-14.953-14.953v-530.872c0-8.258 6.695-14.952 14.953-14.952h131.872c8.258 0 14.953 6.694 14.953 14.952s-6.695 14.953-14.953 14.953h-116.919v301.937c25.948-39.383 66.895-68.273 115.224-78.075v-16.41c0-26.383 21.463-47.845 47.846-47.845s47.846 21.464 47.846 47.845v12.685h115.5c8.259 0 14.953 6.695 14.953 14.953s-6.694 14.953-14.953 14.953h-115.5v36.603c0 8.259-6.694 14.953-14.952 14.953h-65.79c-8.259 0-14.953-6.694-14.953-14.953v-32.196c-66.759 16.37-115.224 76.82-115.224 147.034v99.486h717.286v-106.223zM200.181 429.115v35.206h35.886v-64.242c0-9.894-8.050-17.943-17.944-17.943s-17.944 8.050-17.944 17.943v29.036h0.002zM543.696 723.497h-259.994v49.3c0 13.633 11.091 24.727 24.727 24.727h210.54c13.634 0 24.727-11.092 24.727-24.727v-49.3h-0.001zM597.203 723.497h-23.604v49.3c0 30.122-24.505 54.63-54.63 54.63h-210.54c-30.123 0-54.63-24.507-54.63-54.63v-49.302h-23.604v60.020c0 36.892 30.015 66.906 66.907 66.906h233.196c36.892 0 66.907-30.013 66.907-66.906v-60.018zM594.654 427.715v-27.64c0-9.893-8.049-17.943-17.944-17.943s-17.943 8.050-17.943 17.943v64.245h35.884l0.002-36.605zM859.387 474.92c-2.248 1.498-56.069 36.5-144.204 18.873-7.248-1.45-12.463-7.812-12.463-15.202v-16.571c0-8.563 6.939-15.503 15.504-15.503 8.563 0 15.503 6.942 15.503 15.503v3.507c33.212 4.743 59.488 0.851 76.359-3.586 20.326-5.349 31.787-12.619 32.165-12.863 2.628-1.734 5.592-2.563 8.524-2.563 5.010 0 9.926 2.425 12.913 6.906 4.749 7.122 2.823 16.749-4.301 21.498zM956.538 206.93l-78.804 29.553c-6.847 2.567-11.445 9.202-11.445 16.515v39.754c3.377 2.69 6.643 5.56 9.783 8.608 25.748 24.986 39.928 58.505 39.928 94.38v29.482l4.435 8.874c7.939 15.874 12.134 33.645 12.134 51.399v92.523c0 8.563-6.94 15.503-15.503 15.503h-172.666c-59.534 0-107.966-48.433-107.966-108.027 0-17.749 4.195-35.523 12.132-51.397l4.436-8.874v-24.618c0-42.647 19.507-81.209 49.712-106.364v-41.243c0-7.312-4.599-13.948-11.445-16.516l-78.8-29.552c-25.314-9.49-42.32-34.030-42.32-61.063v-114.688c0-8.561 6.939-15.503 15.504-15.503 8.563 0 15.503 6.943 15.503 15.503v114.688c0 14.18 8.92 27.051 22.197 32.030l78.802 29.552c4.266 1.601 8.193 3.798 11.75 6.433l55.089-41.316v-141.384c0-8.561 6.94-15.503 15.504-15.503s15.503 6.943 15.503 15.503v141.383l55.088 41.316c3.558-2.637 7.485-4.834 11.75-6.433l78.807-29.552c13.276-4.978 22.196-17.849 22.196-32.030v-114.686c0-8.561 6.939-15.503 15.503-15.503s15.503 6.943 15.503 15.503v114.687c0.006 27.032-17.002 51.573-42.313 61.063zM784.504 199.696l-52.799 39.599c1.303 4.388 2.018 8.988 2.018 13.699v21.974c14.488-6.392 30.25-10.175 46.747-10.671 1.364-0.042 2.724-0.063 4.082-0.063 17.706 0 34.863 3.495 50.731 10.139v-21.38c0-4.712 0.718-9.31 2.020-13.699l-52.8-39.598zM854.479 323.612c-19.666-19.085-45.603-29.144-73.079-28.32-53.699 1.611-97.386 48.852-97.386 105.313v28.278c0 2.409-0.561 4.782-1.637 6.934l-6.073 12.149c-5.798 11.591-8.858 24.568-8.858 37.589 0 42.437 34.522 76.96 76.958 76.96h157.162v-77.020c0-12.962-3.063-25.939-8.86-37.53l-6.073-12.149c-1.077-2.155-1.636-4.525-1.636-6.934v-33.14c-0.002-27.419-10.838-53.034-30.517-72.131zM668.51 129.539c-8.564 0-15.503-6.942-15.503-15.503v-82.854c0-8.561 6.939-15.503 15.503-15.503s15.504 6.943 15.504 15.503v82.854c0 8.562-6.94 15.503-15.504 15.503zM900.498 129.539c-8.564 0-15.504-6.942-15.504-15.503v-82.854c0-8.561 6.94-15.503 15.504-15.503s15.503 6.943 15.503 15.503v82.854c0 8.562-6.938 15.503-15.503 15.503z" />
<glyph unicode="&#xe914;" glyph-name="certification" d="M733.11 685.326c-3.895 8.44-13.897 12.124-22.335 8.23-8.44-3.896-12.124-13.896-8.23-22.336 12.737-27.598 19.198-57.136 19.198-87.793 0-115.654-94.090-209.745-209.743-209.745s-209.744 94.090-209.744 209.745c0 115.651 94.090 209.744 209.744 209.744 59.146 0 115.849-25.17 155.563-69.055 6.24-6.893 16.878-7.422 23.775-1.188 6.893 6.24 7.424 16.881 1.184 23.775-46.086 50.925-111.885 80.13-180.522 80.13-134.216 0-243.408-109.193-243.408-243.408s109.193-243.408 243.408-243.408c134.215 0 243.407 109.193 243.407 243.408-0.003 35.565-7.505 69.85-22.298 101.902zM848.166 583.427c0 12.883 5.64 27.805 11.612 43.603 9.016 23.85 18.338 48.515 10.455 72.787-8.212 25.288-31.805 40.657-52.622 54.223-13.673 8.908-26.588 17.32-33.624 26.99-7.186 9.875-11.272 24.913-15.6 40.833-6.471 23.81-13.805 50.796-35.011 66.228-20.992 15.277-47.588 14.022-73.305 12.81-16.613-0.783-32.303-1.523-44.162 2.328-11.038 3.584-22.84 13.124-35.334 23.224-19.457 15.72-41.511 33.545-68.575 33.545s-49.12-17.826-68.577-33.553c-12.493-10.099-24.296-19.639-35.33-23.222-11.86-3.853-27.552-3.11-44.163-2.328-25.717 1.213-52.314 2.468-73.307-12.81-21.206-15.432-28.538-42.419-35.011-66.229-4.326-15.92-8.415-30.958-15.6-40.831-7.036-9.669-19.952-18.083-33.624-26.99-20.819-13.562-44.412-28.935-52.62-54.22-7.883-24.272 1.44-48.937 10.455-72.789 5.97-15.798 11.61-30.719 11.61-43.603s-5.64-27.805-11.612-43.604c-9.016-23.851-18.338-48.516-10.455-72.788 8.211-25.286 31.805-40.657 52.622-54.22 13.672-8.908 26.588-17.323 33.624-26.99 7.185-9.874 11.272-24.913 15.6-40.833 6.471-23.81 13.805-50.796 35.011-66.228 20.99-15.276 47.586-14.022 73.305-12.81 16.61 0.786 32.303 1.525 44.162-2.328 11.038-3.584 22.84-13.124 35.336-23.224 9.403-7.598 19.42-15.671 30.306-22.003l-64.532-231.477-59.556 66.368c-4.372 4.872-11.17 6.765-17.433 4.862l-85.271-25.985 53.462 191.72c2.496 8.954-2.737 18.236-11.691 20.735-8.959 2.493-18.239-2.737-20.735-11.692l-61.71-221.29c-1.65-5.92 0.056-12.27 4.454-16.565s10.79-5.85 16.665-4.057l104.367 31.804 72.886-81.227c3.232-3.601 7.809-5.591 12.529-5.59 1.273 0 2.56 0.144 3.833 0.443 5.987 1.399 10.73 5.949 12.382 11.87l72.176 258.92c2.119-0.222 4.256-0.374 6.439-0.374 2.175 0 4.312 0.155 6.425 0.374l72.207-258.92c1.649-5.92 6.398-10.47 12.381-11.87 1.272-0.296 2.557-0.443 3.83-0.443 4.722 0 9.298 1.99 12.53 5.592l72.862 81.226 104.39-31.801c5.875-1.79 12.264-0.237 16.664 4.057 4.395 4.295 6.103 10.643 4.453 16.563l-76.428 274.1c15.235 15.811 21.485 38.709 27.068 59.261 4.327 15.92 8.415 30.959 15.6 40.833 7.037 9.668 19.952 18.083 33.625 26.99 20.818 13.562 44.412 28.935 52.62 54.217 7.883 24.272-1.44 48.937-10.455 72.789-5.968 15.793-11.605 30.713-11.605 43.6zM777.075 32.162l-85.297 25.985c-6.261 1.911-13.063 0.013-17.435-4.862l-59.532-66.365-64.553 231.477c10.892 6.333 20.912 14.408 30.317 22.013 12.494 10.098 24.296 19.636 35.335 23.223 11.864 3.853 27.554 3.11 44.163 2.328 17.296-0.816 34.98-1.628 51.098 2.56l65.905-236.359zM838.214 477.429c-4.535-13.971-21.265-24.871-38.98-36.41-15.623-10.18-31.783-20.706-42.465-35.389-10.831-14.881-15.935-33.655-20.867-51.812-5.502-20.248-10.7-39.369-22.331-47.838-11.424-8.31-31.089-7.383-51.912-6.401-18.896 0.887-38.439 1.814-56.147-3.937-16.96-5.508-31.772-17.48-46.098-29.060-16.588-13.408-32.253-26.068-47.415-26.068s-30.829 12.665-47.416 26.072c-14.325 11.578-29.14 23.553-46.098 29.058-11.167 3.626-23.066 4.598-35.070 4.598-7.028 0-14.097-0.332-21.074-0.662-20.82-0.983-40.486-1.91-51.91 6.402-11.633 8.466-16.83 27.59-22.332 47.838-4.931 18.157-10.035 36.932-20.866 51.812-10.683 14.68-26.838 25.206-42.465 35.388-17.714 11.54-34.444 22.443-38.98 36.412-4.23 13.028 2.648 31.224 9.928 50.487 6.778 17.931 13.785 36.471 13.785 55.503s-7.008 37.576-13.783 55.504c-7.282 19.261-14.159 37.458-9.929 50.488 4.536 13.97 21.266 24.87 38.98 36.41 15.624 10.18 31.783 20.705 42.466 35.384 10.831 14.882 15.933 33.657 20.866 51.812 5.502 20.248 10.7 39.371 22.332 47.838 11.422 8.313 31.092 7.386 51.912 6.402 18.893-0.89 38.438-1.814 56.146 3.937 16.96 5.508 31.772 17.48 46.098 29.058 16.584 13.412 32.253 26.076 47.412 26.076s30.83-12.663 47.415-26.068c14.323-11.58 29.14-23.554 46.098-29.060 17.707-5.75 37.245-4.83 56.145-3.936 20.82 0.98 40.488 1.908 51.91-6.402 11.632-8.466 16.83-27.59 22.331-47.838 4.932-18.157 10.036-36.932 20.867-51.812 10.683-14.68 26.838-25.206 42.463-35.385 17.714-11.54 34.444-22.44 38.983-36.412 4.23-13.030-2.645-31.223-9.928-50.488-6.778-17.93-13.785-36.471-13.785-55.503 0-19.034 7.012-37.572 13.79-55.504 7.278-19.265 14.156-37.46 9.925-50.493zM577.011 688.108h-130.020c-9.296 0-16.832-7.536-16.832-16.832s7.537-16.831 16.832-16.831h130.020c9.297 0 16.832 7.536 16.832 16.831 0 9.297-7.536 16.832-16.832 16.832zM577.011 512.409h-130.020c-9.296 0-16.832-7.537-16.832-16.832 0-9.297 7.537-16.832 16.832-16.832h130.020c9.297 0 16.832 7.536 16.832 16.832s-7.536 16.832-16.832 16.832zM623.621 600.258h-50.703c-9.296 0-16.831-7.536-16.831-16.831 0-9.297 7.536-16.832 16.831-16.832h50.703c9.297 0 16.832 7.534 16.832 16.832 0 9.296-7.536 16.831-16.832 16.831zM520.208 600.258h-119.83c-9.296 0-16.831-7.536-16.831-16.831 0-9.297 7.536-16.832 16.831-16.832h119.828c9.296 0 16.831 7.536 16.831 16.832s-7.534 16.831-16.83 16.831z" />
<glyph unicode="&#xe915;" glyph-name="up-arrow-key" d="M119.467 132.267l392.533 392.533 392.533-392.533 119.467 119.467-512 512-512-512z" />
<glyph unicode="&#xe916;" glyph-name="down-arrow-key" d="M904.533 763.733l-392.533-392.533-392.533 392.533-119.467-119.467 512-512 512 512z" />
<glyph unicode="&#xe917;" glyph-name="video-player" d="M1007.477 797.343c-10.175 5.466-22.533 4.893-32.16-1.48l-270.282-179.029v73.909c0 60.535-49.248 109.779-109.779 109.779h-485.477c-60.531 0-109.779-49.244-109.779-109.779v-485.482c0-60.531 49.248-109.779 109.779-109.779h485.477c60.531 0 109.779 49.248 109.779 109.779v73.897l270.282-179.021c5.232-3.463 11.266-5.215 17.322-5.215 5.090 0 10.192 1.238 14.838 3.735 10.175 5.466 16.523 16.084 16.523 27.631v643.425c0 11.547-6.348 22.165-16.523 27.631zM642.304 205.261c0-25.937-21.107-47.048-47.048-47.048h-485.477c-25.941 0-47.048 21.111-47.048 47.048v485.482c0 25.941 21.107 47.048 47.048 47.048h485.477c25.941 0 47.048-21.107 47.048-47.048v-485.482zM961.269 184.686l-256.238 169.716v187.189l256.238 169.724v-526.629z" />
<glyph unicode="&#xe918;" glyph-name="settings" d="M971.585 555.492l-71.874 12.193c-7.487 24.172-17.113 47.488-28.878 69.735l42.354 59.253c17.969 25.242 15.188 59.681-6.845 81.5l-63.746 63.746c-11.979 11.979-27.808 18.61-44.707 18.61-13.263 0-25.883-4.064-36.579-11.765l-59.467-42.354c-23.102 12.193-47.274 22.247-72.302 29.734l-11.979 71.019c-5.134 30.589-31.445 52.836-62.462 52.836h-90.057c-31.017 0-57.328-22.247-62.462-52.836l-12.407-72.73c-23.958-7.487-47.274-17.327-69.521-29.306l-58.826 42.354c-10.696 7.701-23.53 11.765-36.793 11.765-16.899 0-32.942-6.631-44.707-18.61l-63.959-63.746c-21.819-21.819-24.814-56.259-6.845-81.5l42.782-60.109c-11.765-22.461-21.177-45.777-28.45-69.949l-71.019-11.979c-30.589-5.134-52.836-31.445-52.836-62.462v-90.057c0-31.017 22.247-57.328 52.836-62.462l72.73-12.407c7.487-23.958 17.327-47.274 29.306-69.521l-42.141-58.612c-17.969-25.242-15.188-59.681 6.845-81.5l63.746-63.746c11.979-11.979 27.808-18.61 44.707-18.61 13.263 0 25.883 4.064 36.579 11.765l60.109 42.782c21.605-11.337 44.28-20.535 67.596-27.808l11.979-71.874c5.134-30.589 31.445-52.836 62.462-52.836h90.271c31.017 0 57.328 22.247 62.462 52.836l12.193 71.874c24.172 7.487 47.488 17.113 69.735 28.878l59.253-42.354c10.696-7.701 23.53-11.765 36.793-11.765v0c16.899 0 32.728 6.631 44.707 18.61l63.746 63.746c21.819 21.819 24.814 56.259 6.845 81.5l-42.354 59.467c11.765 22.461 21.605 45.777 28.878 69.735l71.874 11.979c30.589 5.134 52.836 31.445 52.836 62.462v90.057c0.428 31.017-21.819 57.328-52.408 62.462zM966.665 402.973c0-2.781-1.925-5.134-4.706-5.562l-89.843-14.974c-11.337-1.925-20.322-10.268-23.102-21.177-8.129-31.445-20.535-61.606-37.221-89.629-5.776-9.84-5.348-22.033 1.283-31.445l52.836-74.441c1.497-2.139 1.283-5.348-0.642-7.273l-63.746-63.746c-1.497-1.497-2.995-1.711-4.064-1.711-1.283 0-2.353 0.428-3.209 1.070l-74.227 52.836c-9.198 6.631-21.605 7.059-31.445 1.283-28.022-16.685-58.184-29.092-89.629-37.221-11.123-2.781-19.466-11.979-21.177-23.102l-15.188-89.843c-0.428-2.781-2.781-4.706-5.562-4.706h-90.057c-2.781 0-5.134 1.925-5.562 4.706l-14.974 89.843c-1.925 11.337-10.268 20.322-21.177 23.102-30.589 7.915-60.109 20.108-87.704 35.937-4.492 2.567-9.626 3.85-14.546 3.85-5.776 0-11.765-1.711-16.685-5.348l-74.869-53.264c-1.070-0.642-2.139-1.070-3.209-1.070-0.856 0-2.567 0.214-4.064 1.711l-63.746 63.746c-1.925 1.925-2.139 4.92-0.642 7.273l52.622 73.799c6.631 9.412 7.059 21.819 1.283 31.659-16.685 27.808-29.52 57.97-37.648 89.415-2.995 10.909-11.979 19.252-23.102 21.177l-90.484 15.402c-2.781 0.428-4.706 2.781-4.706 5.562v90.057c0 2.781 1.925 5.134 4.706 5.562l89.201 14.974c11.337 1.925 20.535 10.268 23.316 21.391 7.915 31.445 20.108 61.82 36.579 89.843 5.776 9.84 5.134 22.033-1.497 31.231l-53.264 74.869c-1.497 2.139-1.283 5.348 0.642 7.273l63.746 63.746c1.497 1.497 2.995 1.711 4.064 1.711 1.283 0 2.353-0.428 3.209-1.070l73.799-52.622c9.412-6.631 21.819-7.059 31.659-1.283 27.808 16.685 57.97 29.52 89.415 37.648 10.909 2.995 19.252 11.979 21.177 23.102l15.402 90.484c0.428 2.781 2.781 4.706 5.562 4.706h90.057c2.781 0 5.134-1.925 5.562-4.706l14.974-89.201c1.925-11.337 10.268-20.535 21.391-23.316 32.301-8.129 63.104-20.749 91.768-37.648 9.84-5.776 22.033-5.348 31.445 1.283l73.799 53.050c1.070 0.642 2.139 1.070 3.209 1.070 0.856 0 2.567-0.214 4.064-1.711l63.746-63.746c1.925-1.925 2.139-4.92 0.642-7.273l-52.836-74.227c-6.631-9.198-7.059-21.605-1.283-31.445 16.685-28.022 29.092-58.184 37.221-89.629 2.781-11.123 11.979-19.466 23.102-21.177l89.843-15.188c2.781-0.428 4.706-2.781 4.706-5.562v-90.057h-0.214zM512.104 669.078c-121.929 0-220.97-99.041-220.97-220.97s99.041-220.97 220.97-220.97 220.97 99.041 220.97 220.97-99.041 220.97-220.97 220.97zM512.104 284.894c-90.057 0-163.214 73.158-163.214 163.214s73.158 163.214 163.214 163.214 163.214-73.158 163.214-163.214-73.158-163.214-163.214-163.214z" />
<glyph unicode="&#xe919;" glyph-name="cancel" d="M874.020 810.020c-96.754 96.754-225.185 149.98-362.020 149.98s-265.266-53.226-362.020-149.98-149.98-225.185-149.98-362.020 53.226-265.266 149.98-362.020 225.185-149.98 362.020-149.98 265.266 53.226 362.020 149.98 149.98 225.185 149.98 362.020-53.226 265.266-149.98 362.020zM832.862 127.138c-85.764-85.764-199.758-132.956-320.862-132.956s-235.098 47.192-320.862 132.956c-176.916 176.916-176.916 464.808 0 641.724 85.764 85.764 199.758 132.956 320.862 132.956s235.098-47.192 320.862-132.956c176.916-176.916 176.916-464.808 0-641.724zM737.616 673.616c-11.421 11.421-29.737 11.421-41.158 0l-184.458-184.458-184.458 184.458c-11.421 11.421-29.737 11.421-41.158 0s-11.421-29.737 0-41.158l184.458-184.458-184.458-184.458c-11.421-11.421-11.421-29.737 0-41.158 5.603-5.603 13.145-8.62 20.471-8.62s14.869 2.801 20.471 8.62l184.458 184.458 184.458-184.458c5.603-5.603 13.145-8.62 20.471-8.62 7.542 0 14.869 2.801 20.471 8.62 11.421 11.421 11.421 29.737 0 41.158l-184.027 184.458 184.458 184.458c11.421 11.421 11.421 29.737 0 41.158z" />
<glyph unicode="&#xe91a;" glyph-name="assign" d="M508.289 408.24c1.060 0 2.121 0 3.393 0 0.424 0 0.848 0 1.272 0 0.636 0 1.484 0 2.121 0 62.131 1.060 112.388 22.902 149.497 64.676 81.64 92.031 68.069 249.797 66.584 264.853-5.301 113.024-58.738 167.097-102.845 192.331-32.868 18.873-71.25 29.051-114.084 29.899h-1.484c-0.212 0-0.636 0-0.848 0h-1.272c-23.538 0-69.765-3.817-114.084-29.051-44.531-25.234-98.816-79.308-104.118-193.18-1.484-15.056-15.056-172.823 66.584-264.853 36.897-41.774 87.153-63.616 149.285-64.676zM349.038 732.468c0 0.636 0.212 1.272 0.212 1.696 6.998 152.041 114.932 168.369 161.16 168.369h0.848c0.424 0 1.060 0 1.696 0 57.254-1.272 154.586-24.598 161.16-168.369 0-0.636 0-1.272 0.212-1.696 0.212-1.484 15.056-145.68-52.377-221.595-26.719-30.111-62.343-44.955-109.207-45.379-0.424 0-0.636 0-1.060 0v0c-0.424 0-0.636 0-1.060 0-46.651 0.424-82.488 15.268-108.995 45.379-67.221 75.491-52.801 220.322-52.589 221.595zM947.449 146.568c0 0.212 0 0.424 0 0.636 0 1.696-0.212 3.393-0.212 5.301-1.272 41.986-4.029 140.166-96.060 171.55-0.636 0.212-1.484 0.424-2.121 0.636-95.636 24.386-175.155 79.52-176.003 80.156-12.935 9.118-30.748 5.937-39.866-6.998s-5.937-30.748 6.998-39.866c3.605-2.545 88.002-61.283 193.604-88.426 49.408-17.6 54.922-70.401 56.406-118.749 0-1.908 0-3.605 0.212-5.301 0.212-19.085-1.060-48.56-4.453-65.524-34.352-19.509-169.006-86.941-373.848-86.941-203.994 0-339.496 67.645-374.060 87.153-3.393 16.964-4.877 46.439-4.453 65.524 0 1.696 0.212 3.393 0.212 5.301 1.484 48.348 6.998 101.149 56.406 118.749 105.602 27.143 189.999 86.093 193.604 88.426 12.935 9.118 16.116 26.931 6.998 39.866s-26.931 16.116-39.866 6.998c-0.848-0.636-79.944-55.77-176.003-80.156-0.848-0.212-1.484-0.424-2.121-0.636-92.031-31.596-94.787-129.776-96.060-171.55 0-1.908 0-3.605-0.212-5.301 0-0.212 0-0.424 0-0.636-0.212-11.027-0.424-67.645 10.815-96.060 2.121-5.513 5.937-10.179 11.027-13.359 6.362-4.241 158.827-101.361 413.926-101.361s407.564 97.332 413.926 101.361c4.877 3.181 8.906 7.846 11.027 13.359 10.603 28.203 10.391 84.821 10.179 95.848z" />
<glyph unicode="&#xe91b;" glyph-name="play" d="M108.996 822.311v-749.037c0-65.252 63.741-130.443 128.041-136.736 3.706-0.373 9.978-0.538 13.663-0.538 48.36 0 90.985 29.707 124.149 53.556 5.797 4.14 11.986 8.157 17.286 11.717 46.724 31.591 93.138 65.294 137.709 97.899 38.506 28.134 78.481 57.262 118.125 84.567 36.787 25.36 73.347 51.237 109.782 77.094l39.499 27.989c63.162 43.060 117.753 80.261 117.753 159.032 0 81.71-65.998 124.853-117.753 158.639-7.763 5.507-15.713 10.972-23.662 16.437-9.274 6.376-18.57 12.752-27.596 19.232-79.578 57.199-157.542 113.033-236.747 167.375-10.972 7.536-22.027 15.216-33.144 22.938-28.962 20.143-58.938 40.969-88.77 60.118-7.018 4.513-14.491 10.268-22.42 16.313-29.852 22.772-67.012 51.092-112.039 51.092-18.031 0-40.534-4.658-56.62-13.787-37.864-21.53-87.259-66.888-87.259-123.901zM191.803 822.311c0 16.292 22.834 39.065 45.358 51.858 3.623 2.070 9.461 3.002 13.146 3.002 17.058 0 43.184-18.922 63.141-34.137 9.585-7.308 19.273-14.202 28.507-20.122 28.569-18.363 58.214-38.733 86.596-58.462 11.241-7.805 22.565-15.568 33.682-23.207 78.543-53.887 156.196-109.43 235.381-166.34 9.481-6.811 19.315-13.539 29.066-20.246 7.618-5.258 15.257-10.475 23.973-16.624 56.392-36.849 81.524-58.628 81.524-90.198 0-30.867-16.375-46.165-82.125-91.006l-40.162-28.465c-36.104-25.608-72.25-51.299-108.747-76.411-40.596-27.989-80.882-57.406-119.843-85.892-43.992-32.15-89.474-65.397-134.956-96.181-5.879-3.975-12.090-8.426-18.549-13.063-23.538-16.913-52.852-37.988-74.548-37.988-0.994 0-7.142 0.041-8.157 0.145-22.048 2.153-53.328 31.612-53.328 54.343v748.996h0.041z" />
<glyph unicode="&#xe91c;" glyph-name="day-10-on-calendar-page" d="M7.762 771.102v-735.044c0-54.704 44.505-99.209 99.209-99.209h810.065c54.7 0 99.205 44.505 99.205 99.209v735.044c0 54.704-44.505 99.207-99.205 99.207h-102.104v52.288c0 20.186-16.366 36.55-36.552 36.55-20.184 0-36.55-16.364-36.55-36.55v-52.288h-459.659v52.288c0 20.186-16.364 36.55-36.55 36.55s-36.55-16.364-36.55-36.55v-52.288h-102.103c-54.704 0-99.207-44.505-99.207-99.207zM943.14 36.060c0-14.417-11.69-26.109-26.105-26.109h-810.067c-14.419 0-26.107 11.692-26.107 26.109v570.046h862.278l0.002-570.046zM245.622 718.951c20.186 0 36.55 16.364 36.55 36.55v41.708h459.659v-41.708c0-20.186 16.366-36.55 36.55-36.55 20.186 0 36.552 16.364 36.552 36.55v41.708h102.104c14.415 0 26.105-11.688 26.105-26.107v-91.897h-862.279v91.897c0 14.42 11.688 26.107 26.107 26.107h102.101v-41.708c0.002-20.188 16.364-36.55 36.552-36.55zM917.036-64h-810.069c-55.173 0-100.062 44.887-100.062 100.062v735.042c0 55.173 44.889 100.060 100.064 100.062h101.248v51.431c0 20.625 16.778 37.403 37.403 37.403s37.403-16.778 37.403-37.403v-51.434h457.952v51.434c0 20.625 16.778 37.403 37.405 37.403 20.625 0 37.403-16.778 37.403-37.403v-51.436h101.251c55.171 0 100.058-44.887 100.058-100.060v-735.044c-0.002-55.171-44.885-100.057-100.057-100.057zM106.969 869.458c-54.233 0-98.357-44.121-98.357-98.355v-735.044c0-54.233 44.121-98.355 98.355-98.355h810.065c54.229 0 98.352 44.119 98.352 98.355v735.044c0 54.233-44.119 98.354-98.352 98.354h-102.957v53.141c0 19.684-16.016 35.697-35.697 35.697-19.683 0-35.698-16.016-35.698-35.697v-53.141h-461.362v53.141c0 19.684-16.014 35.697-35.697 35.697s-35.697-16.016-35.697-35.697v-53.141h-102.956zM917.036 9.1h-810.069c-14.866 0-26.96 12.095-26.96 26.962v570.897h863.984v-570.899c0.002-14.867-12.091-26.96-26.955-26.96zM81.715 605.253v-569.192c0-13.925 11.328-25.256 25.254-25.256h810.065c13.924 0 25.252 11.33 25.252 25.256v569.192h-860.571zM943.993 678.352h-863.984v92.75c0 14.866 12.095 26.96 26.96 26.96h102.954v-42.561c0.002-19.681 16.016-35.697 35.698-35.697s35.697 16.016 35.697 35.697v42.561h461.365v-42.561c0-19.681 16.016-35.697 35.697-35.697 19.683 0 35.698 16.016 35.698 35.697v42.561h102.957c14.866 0 26.959-12.095 26.959-26.96v-92.75h-0.002zM81.715 680.059h860.571v91.044c0 13.925-11.328 25.254-25.252 25.254h-101.251v-40.855c0-20.625-16.778-37.403-37.405-37.403-20.625 0-37.403 16.778-37.403 37.403v40.855h-457.951v-40.855c0-20.625-16.778-37.403-37.403-37.403-20.623 0-37.403 16.778-37.405 37.403v40.855h-101.249c-13.925 0-25.254-11.328-25.254-25.254l0.002-91.044z" />
<glyph unicode="&#xe91d;" glyph-name="folder" d="M962.251 750.376v130.341c0 14.21-11.521 25.729-25.729 25.729h-910.794c-14.207 0-25.729-11.519-25.729-25.729v-733.678c0-14.21 11.521-25.729 25.729-25.729h102.915v-59.716c0-39.722 32.318-72.040 72.040-72.040h751.276c39.722 0 72.040 32.318 72.040 72.040v617.487c0 36.229-26.884 66.282-61.749 71.294zM51.457 172.768v682.221h859.337v-103.867h-246.995c-39.722 0-72.040-32.318-72.040-72.040 0-11.349-9.234-20.583-20.583-20.583h-370.492c-39.722 0-72.040-32.318-72.040-72.040v-413.691h-77.186zM972.543 61.594c0-11.349-9.234-20.583-20.583-20.583h-751.276c-11.349 0-20.583 9.234-20.583 20.583v524.864c0 11.349 9.234 20.583 20.583 20.583h370.492c39.722 0 72.040 32.318 72.040 72.040 0 11.349 9.234 20.583 20.583 20.583h288.161c11.349 0 20.583-9.234 20.583-20.583v-617.487zM509.427 529.856h-236.704c-14.207 0-25.729-11.519-25.729-25.729s11.521-25.729 25.729-25.729h236.704c14.207 0 25.729 11.519 25.729 25.729s-11.521 25.729-25.729 25.729zM509.427 442.378h-236.704c-14.207 0-25.729-11.519-25.729-25.729s11.521-25.729 25.729-25.729h236.704c14.207 0 25.729 11.519 25.729 25.729s-11.521 25.729-25.729 25.729z" />
<glyph unicode="&#xe91e;" glyph-name="padlock" d="M839.795 513.75h-15.059v133.408c0 172.434-140.196 312.842-312.842 312.842-172.434 0-312.842-140.196-312.842-312.842 0-15.907 12.726-28.633 28.633-28.633s28.633 12.726 28.633 28.633c0 140.832 114.532 255.576 255.576 255.576 140.832 0 255.576-114.532 255.576-255.576v-133.408h-583.264c-30.542 0-55.357-24.815-55.357-55.357v-356.534c0-91.413 74.446-165.859 165.859-165.859h434.585c91.413 0 165.859 74.446 165.859 165.859v356.534c0 30.542-24.815 55.357-55.357 55.357zM837.886 101.859c0-59.811-48.57-108.593-108.593-108.593h-434.373c-59.811 0-108.593 48.57-108.593 108.593v354.625h651.559v-354.625zM512.106 113.524c59.175 0 107.109 48.146 107.109 107.109 0 59.175-48.146 107.109-107.109 107.109-59.175 0-107.109-48.146-107.109-107.109s47.934-107.109 107.109-107.109zM512.106 270.688c27.572 0 49.843-22.482 49.843-49.843s-22.27-50.055-49.843-50.055-49.843 22.482-49.843 49.843 22.27 50.055 49.843 50.055z" />
<glyph unicode="&#xe91f;" glyph-name="key" d="M669.948 960c-190.838 0-346.098-155.26-346.098-346.098 0-42.426 7.538-83.654 22.422-122.806l-330.928-330.952c-4.73-4.732-7.388-11.146-7.388-17.834v-181.088c0-13.93 11.292-25.222 25.222-25.222h149.232c6.682 0 13.090 2.65 17.82 7.372l50.29 50.214c4.74 4.732 7.402 11.154 7.402 17.85v61.752h61.674c13.93 0 25.222 11.292 25.222 25.222v24.72h24.722c13.928 0 25.222 11.292 25.222 25.222v54.272h54.272c6.688 0 13.102 2.658 17.834 7.388l80.242 80.242c39.158-14.898 80.392-22.446 122.834-22.446 190.838 0 346.098 155.26 346.098 346.098 0.002 190.834-155.256 346.094-346.094 346.094zM669.948 318.252c-41.284 0-81.212 8.338-118.678 24.786-9.688 4.252-20.598 1.912-27.742-5.050-0.078-0.074-0.154-0.134-0.23-0.212l-84.708-84.708h-69.046c-13.93 0-25.222-11.292-25.222-25.222v-54.272h-24.722c-13.928 0-25.222-11.292-25.222-25.222v-24.72h-61.676c-13.928 0-25.222-11.292-25.222-25.222v-76.514l-35.506-35.45h-113.57v35.642l308.282 308.28c8.866 8.866 8.866 23.238 0 32.102s-23.234 8.868-32.106 0l-276.176-276.178v45.568l335.392 335.416c0.076 0.076 0.134 0.146 0.204 0.22 6.964 7.138 9.312 18.048 5.060 27.744-16.432 37.464-24.76 77.39-24.76 118.66 0 163.024 132.63 295.654 295.654 295.654s295.65-132.628 295.65-295.654c-0.004-163.020-132.636-295.648-295.656-295.648zM775.276 813.712c-52.094 0-94.474-42.38-94.474-94.474s42.38-94.474 94.474-94.474 94.474 42.38 94.474 94.474-42.378 94.474-94.474 94.474zM775.276 675.208c-24.278 0-44.030 19.752-44.030 44.030s19.752 44.030 44.030 44.030 44.030-19.752 44.030-44.030-19.752-44.030-44.030-44.030z" />
<glyph unicode="&#xe920;" glyph-name="right-arrow-play-button" d="M939.021 486.751l-809.293 467.254c-13.852 7.992-30.895 7.992-44.75 0-13.839-7.986-22.378-22.769-22.378-38.751v-934.501c0-15.985 8.54-30.768 22.378-38.751 6.931-4.003 14.656-6.002 22.375-6.002 7.725 0 15.447 2 22.375 6.002l809.296 467.247c13.842 7.986 22.378 22.769 22.378 38.751-0.003 15.985-8.54 30.765-22.381 38.751zM152.103 58.27v779.463l675.040-389.733-675.040-389.73z" />
<glyph unicode="&#xe921;" glyph-name="share" d="M811.375 302.14c-58.897 0-111.415-28.066-145.010-71.442l-281.302 157.13c6.591 18.924 10.206 39.336 10.206 60.385 0 21.262-3.615 41.462-10.419 60.598l281.090 156.917c33.382-43.588 86.113-71.867 145.223-71.867 100.784 0 183.070 82.073 183.070 183.070s-82.073 183.070-183.070 183.070-183.070-82.073-183.070-183.070c0-21.262 3.615-41.674 10.419-60.598l-280.877-156.917c-33.382 43.801-86.113 71.867-145.223 71.867-100.784 0-183.070-82.073-183.070-183.070s82.286-183.070 183.282-183.070c59.11 0 111.841 28.279 145.435 72.080l281.090-157.13c-6.804-19.136-10.631-39.761-10.631-61.023 0-100.784 82.073-183.070 183.070-183.070s183.070 82.073 183.070 183.070-82.286 183.070-183.282 183.070zM811.375 902.379c69.316 0 125.661-56.346 125.661-125.661s-56.346-125.661-125.661-125.661-125.661 56.346-125.661 125.661 56.558 125.661 125.661 125.661zM212.625 322.551c-69.316 0-125.661 56.346-125.661 125.661s56.346 125.661 125.661 125.661 125.661-56.346 125.661-125.661-56.558-125.661-125.661-125.661zM811.375-6.379c-69.316 0-125.661 56.346-125.661 125.661s56.346 125.661 125.661 125.661 125.661-56.346 125.661-125.661c0-69.316-56.346-125.661-125.661-125.661z" />
<glyph unicode="&#xe922;" glyph-name="play-audio" d="M433.124 623.378c13.544 7.050 29.892 5.98 42.406-2.778l204.798-143.362c10.95-7.664 17.47-20.19 17.47-33.554s-6.524-25.888-17.47-33.552l-204.798-143.362c-12.514-8.762-28.862-9.83-42.406-2.778-13.542 7.054-22.042 21.058-22.042 36.332v286.72c0 15.276 8.5 29.28 22.042 36.334zM493 508.376v-129.376l92.416 64.688-92.416 64.688zM512.004 960c-282.77 0-512-229.228-512-512s229.23-512 512-512c282.774 0 512.002 229.228 512.002 512s-229.232 512-512.002 512zM512.004 17.922c-237.528 0-430.080 192.55-430.080 430.078 0 237.53 192.552 430.080 430.080 430.080 237.53 0 430.082-192.55 430.082-430.080 0-237.528-192.556-430.078-430.082-430.078z" />
<glyph unicode="&#xe923;" glyph-name="chevron-right" d="M162.006 123.231c0.197-12.59 5.463-25.031 14.365-33.938l138.905-138.905c9.089-9.094 21.869-14.388 34.726-14.388s25.637 5.294 34.726 14.388l462.884 462.887c9.094 9.089 14.388 21.869 14.388 34.726s-5.294 25.637-14.388 34.726l-462.884 462.884c-9.089 9.094-21.869 14.388-34.726 14.388s-25.637-5.294-34.726-14.388l-138.905-138.905c-9.069-9.087-14.348-21.848-14.348-34.686s5.278-25.599 14.348-34.686l289.332-289.334-289.332-289.334c-9.254-9.261-14.56-22.346-14.365-35.436v0z" />
<glyph unicode="&#xe924;" glyph-name="chevron-left" d="M861.994 123.231c-0.197-12.59-5.463-25.031-14.365-33.938l-138.905-138.905c-9.089-9.094-21.869-14.388-34.726-14.388s-25.637 5.294-34.726 14.388l-462.884 462.887c-9.094 9.089-14.388 21.869-14.388 34.726s5.294 25.637 14.388 34.726l462.884 462.884c9.089 9.094 21.869 14.388 34.726 14.388s25.637-5.294 34.726-14.388l138.905-138.905c9.069-9.087 14.348-21.848 14.348-34.686s-5.278-25.599-14.348-34.686l-289.332-289.334 289.332-289.334c9.254-9.261 14.56-22.346 14.365-35.436v0z" />
<glyph unicode="&#xe925;" glyph-name="chevron-up" d="M836.769 98.006c12.59 0.197 25.031 5.463 33.938 14.365l138.905 138.905c9.094 9.089 14.388 21.869 14.388 34.726s-5.294 25.637-14.388 34.726l-462.887 462.884c-9.089 9.094-21.869 14.388-34.726 14.388s-25.637-5.294-34.726-14.388l-462.884-462.884c-9.094-9.089-14.388-21.869-14.388-34.726s5.294-25.637 14.388-34.726l138.905-138.905c9.087-9.069 21.848-14.348 34.686-14.348s25.599 5.278 34.686 14.348l289.334 289.332 289.334-289.332c9.261-9.254 22.346-14.56 35.436-14.365v0z" />
<glyph unicode="&#xe926;" glyph-name="chevron-down" d="M187.231 797.994c-12.59-0.197-25.031-5.463-33.938-14.365l-138.905-138.905c-9.094-9.089-14.388-21.869-14.388-34.726s5.294-25.637 14.388-34.726l462.887-462.884c9.089-9.094 21.869-14.388 34.726-14.388s25.637 5.294 34.726 14.388l462.884 462.884c9.094 9.089 14.388 21.869 14.388 34.726s-5.294 25.637-14.388 34.726l-138.905 138.905c-9.087 9.069-21.848 14.348-34.686 14.348s-25.599-5.278-34.686-14.348l-289.334-289.332-289.334 289.332c-9.261 9.254-22.346 14.56-35.436 14.365v0z" />
<glyph unicode="&#xe927;" glyph-name="checked2" d="M1005.502 732.078l-89.846 89.846c-12.319 12.329-27.302 18.495-44.914 18.495-17.628 0-32.611-6.167-44.93-18.495l-433.389-434.044-194.231 194.893c-12.333 12.333-27.307 18.493-44.918 18.493-17.623 0-32.597-6.16-44.93-18.493l-89.846-89.848c-12.333-12.331-18.498-27.309-18.498-44.93 0-17.607 6.164-32.599 18.498-44.928l329.002-328.991c12.326-12.338 27.305-18.498 44.923-18.498 17.611 0 32.59 6.176 44.923 18.498l568.156 568.149c12.322 12.333 18.498 27.309 18.498 44.93 0.009 17.611-6.176 32.59-18.498 44.923z" />
<glyph unicode="&#xe928;" glyph-name="close2" d="M952.099 176.005c-0.004 0.004-0.008 0.008-0.012 0.010l-271.983 271.986 271.983 271.986c0.004 0.004 0.008 0.006 0.012 0.010 2.927 2.929 5.042 6.35 6.401 9.992 3.717 9.96 1.6 21.61-6.411 29.622l-128.484 128.482c-8.013 8.009-19.66 10.126-29.621 6.407-3.641-1.357-7.063-3.471-9.992-6.397 0-0.004-0.004-0.006-0.010-0.010l-271.983-271.988-271.986 271.986c-0.004 0.004-0.006 0.006-0.010 0.010-2.931 2.925-6.35 5.040-9.99 6.397-9.964 3.721-21.61 1.604-29.622-6.407l-128.484-128.484c-8.011-8.013-10.126-19.66-6.409-29.621 1.359-3.641 3.473-7.066 6.399-9.992 0.004-0.002 0.006-0.006 0.010-0.010l271.986-271.985-271.986-271.988c-0.002-0.004-0.006-0.006-0.008-0.010-2.927-2.929-5.040-6.35-6.401-9.99-3.719-9.958-1.602-21.608 6.409-29.621l128.484-128.484c8.015-8.013 19.66-10.128 29.622-6.409 3.641 1.361 7.063 3.475 9.992 6.401 0.002 0.004 0.006 0.006 0.010 0.010l271.985 271.986 271.983-271.986c0.006-0.002 0.010-0.006 0.013-0.008 2.931-2.927 6.35-5.042 9.989-6.403 9.964-3.719 21.612-1.602 29.621 6.409l128.482 128.486c8.015 8.013 10.13 19.664 6.413 29.622-1.359 3.639-3.475 7.063-6.401 9.989z" />
<glyph unicode="&#xe929;" glyph-name="boy-broad-smile" d="M312.064 367.288c9.428 0 18.291-3.671 24.958-10.338 3.77-3.77 8.711-5.658 13.654-5.655 4.941 0 9.884 1.885 13.654 5.655 7.543 7.541 7.543 19.766 0 27.309-13.961 13.961-32.523 21.649-52.265 21.649s-38.304-7.688-52.265-21.649c-7.543-7.541-7.543-19.766 0-27.309s19.768-7.541 27.307 0c6.664 6.667 15.528 10.338 24.956 10.338zM659.669 384.259c-7.543-7.541-7.543-19.766 0-27.309 7.541-7.541 19.766-7.541 27.307 0 13.761 13.763 36.155 13.761 49.916 0 3.77-3.77 8.711-5.655 13.654-5.655s9.884 1.885 13.654 5.655c7.543 7.541 7.543 19.766 0 27.309-28.815 28.818-75.709 28.82-104.532 0zM711.829 193.767c-110.187-110.187-289.472-110.187-399.661 0-7.541 7.541-19.766 7.541-27.307 0-7.543-7.541-7.543-19.768 0-27.309 62.622-62.622 144.88-93.933 227.137-93.933 82.26 0 164.518 31.311 227.14 93.933 7.543 7.541 7.543 19.766 0 27.309-7.541 7.541-19.768 7.541-27.309 0zM967.62 346.482c0 52.453-37.92 96.19-87.778 105.311v323.037c0 41.907-20.847 80.759-55.767 103.928-32.8 21.76-73.515 26.698-110.334 13.724l-121.232 41.149c-93.156 31.622-191.214 34.866-283.57 9.385-120.909-33.36-190.226-103.904-200.926-204.18-9.469-12.489-16.993-26.515-22.105-41.649l-9.404-27.833c-5.047-14.943 0.517-30.647 13.85-39.076 13.331-8.429 29.906-6.725 41.241 4.246 3.872 3.749 8.105 6.906 12.561 9.546v-192.278c-49.858-9.121-87.778-52.856-87.778-105.311 0-54.553 41.012-99.678 93.817-106.238 13.261-73.223 48.108-140.767 101.391-194.817 69.566-70.568 162.046-109.429 260.413-109.429 0.012 0 0.024 0 0.036 0 98.241 0.010 190.6 38.272 260.068 107.737 54.263 54.263 89.484 122.495 102.309 196.587 52.511 6.833 93.209 51.82 93.209 106.161zM802.723 846.576c24.468-16.232 38.499-42.383 38.499-71.746v-252.691c-59.935 9.315-105.956 61.268-105.956 123.774l-1.598 212.312c23.58 6.215 48.168 2.209 69.055-11.649zM118.744 673.722l3.753 11.106c9.831 29.098 31.663 52.721 59.897 64.809 28.231 12.088 60.394 11.586 88.236-1.383 58.475-27.234 129.166-12.51 171.904 35.803l4.784 5.409c7.067 7.987 6.319 20.191-1.668 27.256-7.989 7.065-20.193 6.319-27.258-1.668l-4.784-5.409c-31.494-35.603-83.585-46.45-126.673-26.382-37.782 17.599-81.43 18.282-119.743 1.875-3.488-1.494-6.879-3.162-10.217-4.907 22.445 59.839 76.769 101.978 162.239 125.56 84.869 23.418 175.080 20.398 260.886-8.726l114.949-39.018 1.506-99.777c-51.183-69.59-125.83-116.699-210.895-132.898-87.104-16.585-175.964 0.965-250.215 49.419-36.281 23.671-82.024 22.66-116.702-1.069zM94.997 346.482c0 31.048 20.78 57.319 49.158 65.678v-104.664c0-9.042 0.326-18.033 0.961-26.966-28.866 8.045-50.119 34.555-50.119 65.953zM744.796 71.046c-62.173-62.173-144.836-96.417-232.764-96.426-0.014 0-0.017 0-0.034 0-87.94 0-170.663 34.779-232.911 97.92-62.108 63.003-96.313 146.446-96.313 234.958v345.678c10.937-0.816 21.789-4.354 31.56-10.729 82.661-53.94 181.58-73.479 278.545-55.014 78.709 14.989 149.417 53.737 203.765 110.882v-52.4c0-83.831 63.281-153.12 144.575-162.71v-179.36c0.002-87.942-34.241-170.62-96.424-232.8zM879.096 280.592c0.478 7.709 0.746 15.46 0.746 23.251v108.316c28.378-8.359 49.158-34.63 49.158-65.678 0-31.318-21.144-57.775-49.904-65.89z" />
<glyph unicode="&#xe92a;" glyph-name="smiling-lips" d="M1023.193 511.609c-1.523 6.425-4.806 12.878-9.869 17.946-20.959 20.954-233.491 205.628-333.633 205.628-54.508 0-91.882-27.531-121.911-49.652-18.038-13.292-33.618-24.765-45.491-24.78-11.93 0.014-27.505 11.488-45.553 24.789-30.028 22.121-67.398 49.643-121.906 49.643-100.152 0-312.671-184.674-333.623-205.628-5.482-5.487-9.053-12.316-10.39-19.605l-0.79-9.053c-0.405-10.014 3.506-19.745 11.181-27.424 10.167-10.167 23.097-26.189 38.081-44.768 38.11-47.236 90.292-111.92 164.203-165.486 93.76-67.952 193.741-102.406 297.17-102.406 103.37 0 204.693 35.972 301.15 106.926 75.429 55.477 129.642 122.63 165.514 167.066 13.223 16.382 41.799 51.142 43.989 55.467 2.021 3.968 3.761 13.378 1.878 21.335zM783.609 306.091c-88.112-64.813-179.942-97.669-272.943-97.669-93.182 0-183.767 31.409-269.237 93.346-68.767 49.847-169.613 161.989-163.884 167.719 1.926 1.926 45.129-19.471 67.236-29.805 88.409-41.335 222.017-103.794 365.884-103.794 147.778 0 283.255 63.992 372.904 106.341 21.623 10.214 60.128 30.188 60.654 27.365 0.931-4.946-90.154-111.68-160.616-163.503zM197.247 467.806c0 4.604 249.418 25.946 303.371 26.244 7.643 0.038 15.296 0.060 22.954 0.060 58.129 0 304.716-19.321 304.716-25.218 0-8.188-198.033-85.405-317.622-85.405-117.271 0.005-313.419 74.046-313.419 84.32zM930.666 513.373c-26.729 0-61.852 1.738-102.527 3.166-34.668 1.219-75.903 5.941-119.561 10.95-61.040 6.994-124.155 14.232-185.010 14.232-7.746 0-15.482-0.024-23.213-0.060-56.593-0.312-119.004-7.589-179.361-14.627-45.027-5.249-87.557-10.209-122.403-11.531-22.892-0.864-39.159-1.707-52.232-2.38-17.917-0.931-30.859-1.864-50.104-1.864-20.602 0-31.245 2.457-24.568 8.165 29.598 25.306 58.131 49.257 107.486 84.265 75.153 53.316 135.534 83.889 165.66 83.889 38.867 0 66.729-20.521 93.677-40.373 23.754-17.5 46.184-34.027 73.782-34.061 27.546 0.033 49.978 16.56 73.732 34.061 26.939 19.852 54.801 40.373 93.672 40.373 30.131 0 90.509-30.573 165.667-83.889 47.826-33.925 83.349-58.962 109.447-85.058 5.38-5.384-4.366-5.258-24.142-5.258z" />
<glyph unicode="&#xe92b;" glyph-name="book" d="M917.924 934.164c0 14.283-11.553 25.836-25.836 25.836h-626.793c-88.011 0-159.429-71.627-159.429-159.429v-705.142c0-88.011 71.627-159.429 159.429-159.429h627.003c14.283 0 25.836 11.553 25.836 25.836v704.932c0 14.283-11.553 25.836-25.836 25.836h-627.003c-59.445 0-107.966 48.522-107.966 107.966s48.522 107.966 107.966 107.966h627.003c14.073 0 25.626 11.553 25.626 25.626zM265.295 641.142h601.167v-653.68h-601.167c-59.445 0-107.966 48.522-107.966 107.966v587.934c28.357-26.256 66.376-42.22 107.966-42.22zM274.117 823.887c-14.283 0-25.836-11.553-25.836-25.836s11.553-25.836 25.836-25.836h588.354c14.283 0 25.836 11.553 25.836 25.836s-11.553 25.836-25.836 25.836h-588.354zM373.891 124.626c13.233-5.041 28.147 1.47 33.188 14.914l37.599 98.304h131.702c1.050 0 1.89 0.21 2.731 0.21l37.599-98.514c3.991-10.293 13.653-16.594 23.946-16.594 3.151 0 6.091 0.63 9.242 1.68 13.233 5.041 19.955 19.955 14.914 33.188l-113.428 296.592c-6.302 16.594-21.845 27.307-39.49 27.307s-33.188-10.713-39.49-27.307l-113.428-296.592c-5.041-13.233 1.68-27.937 14.914-33.188zM511.895 413.867l47.682-124.56h-95.153l47.472 124.56z" />
<glyph unicode="&#xe92c;" glyph-name="voice-recording" d="M668.203 806.11c0 85.044-68.846 153.89-153.89 153.89h-10.414c-85.044 0-153.89-68.846-153.89-153.89v-351.748c0-85.044 68.846-153.89 153.89-153.89h10.414c85.044 0 153.89 68.846 153.89 153.89v351.748zM598.78 454.365c0-46.861-37.605-84.466-84.466-84.466h-10.414c-46.861 0-84.466 37.605-84.466 84.466v351.746c0 46.861 37.605 84.466 84.466 84.466h10.414c46.861 0 84.466-37.605 84.466-84.466v-351.746zM199.593 550.4c-19.092 0-34.712-15.62-34.712-34.712 0-189.758 131.327-347.696 300.835-371.995v-138.27h-156.203c-19.092 0-34.712-15.62-34.712-34.712s15.62-34.712 34.712-34.712h404.971c19.092 0 34.712 15.62 34.712 34.712s-15.62 34.712-34.712 34.712h-179.344v135.376c180.502 12.727 323.978 175.873 323.978 374.31 0 19.092-15.62 34.712-34.712 34.712s-34.712-15.62-34.712-34.712c0-168.93-124.385-306.042-277.695-306.042s-277.695 137.69-277.695 306.622c0 19.089-15.62 34.71-34.712 34.71z" />
<glyph unicode="&#xe92d;" glyph-name="power-of-video" d="M512 960c-85.51 0-170.147-21.514-244.807-62.231-9.834-5.374-13.464-17.682-8.091-27.516 5.374-9.814 17.641-13.464 27.516-8.091 68.72 37.472 146.645 57.283 225.382 57.283 259.954 0 471.446-211.491 471.446-471.446s-211.491-471.446-471.446-471.446-471.447 211.491-471.447 471.444c0 126.956 49.781 246.065 140.177 335.366 7.969 7.867 8.050 20.703 0.182 28.672-7.888 7.969-20.723 8.030-28.672 0.162-98.163-96.966-152.242-226.313-152.242-364.2 0-282.319 229.68-512 512-512s512 229.681 512 512c0 282.321-229.681 512.001-512 512.001zM333.479 155.582c3.954-5.617 10.218-8.618 16.607-8.618 4.035 0 8.090 1.196 11.639 3.69l399.097 280.758c5.414 3.812 8.618 9.976 8.618 16.586s-3.204 12.775-8.618 16.587l-399.097 280.759c-6.185 4.36-14.295 4.907-21.007 1.419-6.712-3.487-10.93-10.422-10.93-18.006v-383.828c0-11.193 9.085-20.277 20.278-20.277s20.277 9.084 20.277 20.277v344.774l343.577-241.705-375.534-264.17c-9.144-6.448-11.355-19.102-4.907-28.246z" />
<glyph unicode="&#xe92e;" glyph-name="show-off-your-skills" d="M511.377 742.756c-0.057 0-0.116 0-0.173 0h-0.523c-0.057 0-0.113 0-0.173 0-80.12-0.176-155.225-30.726-211.55-86.069-56.802-55.812-88.086-130.648-88.086-210.718 0-89.755 38.64-172.576 106.009-227.222 10.398-8.438 27.841-35.32 27.841-120.573v-137.183c0-10.438 8.466-18.904 18.904-18.904h294.617c10.438 0 18.904 8.466 18.904 18.904v137.182c0 0.152-0.019 0.293-0.022 0.442 0.003 0.151 0.022 0.296 0.022 0.444 0 86.034 17.446 113.023 27.856 121.461 68.355 55.472 106.003 135.538 106.003 225.451 0 80.073-31.28 154.906-88.078 210.719-56.322 55.339-131.426 85.889-211.55 86.065zM639.346-20.104h-256.808v99.374h178.887c0.835-0.114 1.676-0.193 2.542-0.193s1.708 0.075 2.543 0.193h72.836v-99.374h0.001zM473.984 380.969h74.292c-1.774-71.468-2.984-193.125-3.186-263.89h-67.946c-0.201 65.524-1.358 190.468-3.16 263.89zM681.19 249.88c-25.934-21.025-39.564-64.602-41.556-132.801h-56.735c0.208 77.571 1.585 196.685 3.192 263.89h40.424c33.88 0 62.501 30.005 62.501 65.523 0 34.705-28.621 64.023-62.501 64.023-31.082 0-67.322-19.459-75.82-74.087-0.419-2.703-0.822-8.837-1.21-17.65h-76.692c-0.4 9.178-0.819 15.577-1.257 18.406-5.596 36.177-28.448 74.837-75.804 74.837-33.873 0-62.488-30.008-62.488-65.529 0-35.518 28.615-65.523 62.488-65.523h40.431c1.607-67.533 2.977-186.508 3.182-263.89h-57.129c-2.105 67.092-15.713 110.099-41.508 131.030-58.481 47.434-92.023 119.551-92.023 197.86 0 69.845 27.263 135.105 76.773 183.748 49.313 48.452 115.178 75.164 185.484 75.23 70.312-0.066 136.175-26.778 185.484-75.23 49.508-48.644 76.771-113.898 76.771-183.748 0.003-78.299-32.677-147.937-92.007-196.090zM587.256 418.778c0.265 5.993 0.534 10.070 0.798 11.856 5.697 36.609 26.538 42.075 38.458 42.075 13.154 0 24.692-12.25 24.692-26.214 0-14.506-11.768-27.714-24.692-27.714l-39.256-0.003zM435.003 418.778h-39.274c-12.918 0-24.679 13.208-24.679 27.714s11.761 27.72 24.679 27.72c27.683 0 35.966-26.819 38.436-42.812 0.278-1.861 0.558-6.212 0.839-12.621zM644.824 764.67c2.426-1.040 4.953-1.535 7.435-1.535 7.335 0 14.314 4.295 17.386 11.466l65.082 151.856c4.115 9.597-0.331 20.71-9.928 24.821-9.6 4.125-20.713-0.33-24.822-9.928l-65.082-151.856c-4.115-9.6 0.331-20.712 9.928-24.824zM353.144 774.579c2.955-7.392 10.054-11.888 17.559-11.888 2.335 0 4.713 0.438 7.017 1.358 9.691 3.878 14.408 14.881 10.533 24.576l-61.363 153.397c-3.876 9.691-14.875 14.411-24.576 10.533-9.691-3.879-14.408-14.881-10.533-24.576l61.363-153.4zM12.59 629.928l151.841-65.119c2.432-1.040 4.956-1.535 7.442-1.535 7.331 0 14.31 4.295 17.385 11.46 4.115 9.597-0.327 20.709-9.921 24.827l-151.845 65.118c-9.603 4.111-20.713-0.328-24.828-9.922-4.111-9.598 0.331-20.713 9.925-24.829zM165.288 318.198l-153.403-61.399c-9.691-3.878-14.405-14.884-10.526-24.575 2.958-7.392 10.054-11.885 17.556-11.885 2.337 0 4.716 0.438 7.016 1.361l153.404 61.399c9.691 3.878 14.405 14.884 10.526 24.575-3.877 9.688-14.889 14.402-24.574 10.524zM1011.403 253.972l-151.894 65.076c-9.619 4.118-20.71-0.331-24.825-9.932-4.112-9.597 0.337-20.709 9.931-24.824l151.894-65.076c2.433-1.039 4.953-1.531 7.436-1.531 7.335 0 14.314 4.295 17.389 11.466 4.112 9.594-0.333 20.708-9.931 24.821zM851.655 564.305c2.338 0 4.714 0.438 7.020 1.361l153.441 61.411c9.692 3.878 14.405 14.884 10.527 24.576-3.876 9.694-14.878 14.405-24.576 10.526l-153.441-61.411c-9.692-3.878-14.405-14.884-10.527-24.576 2.959-7.39 10.054-11.887 17.556-11.887z" />
<glyph unicode="&#xe92f;" glyph-name="your-brand" d="M957.281 630.61c-2.467 7.594-8.938 13.195-16.808 14.548l-278.294 47.839-131.484 249.904c-3.718 7.067-11.045 11.491-19.030 11.491 0 0 0 0 0 0-7.984 0-15.312-4.425-19.030-11.49l-131.499-249.905-278.292-47.839c-7.869-1.353-14.341-6.954-16.809-14.548s-0.524-15.929 5.047-21.649l197.031-202.291-40.508-279.47c-1.146-7.903 2.182-15.789 8.642-20.482 3.743-2.719 8.179-4.107 12.641-4.107 3.241 0 6.496 0.732 9.509 2.218l70.179 34.609v47.953l-52.546-25.913 36.167 249.516c0.959 6.616-1.213 13.301-5.877 18.089l-175.916 180.613 248.47 42.712c6.588 1.133 12.275 5.264 15.388 11.179l117.403 223.12 117.391-223.119c3.113-5.916 8.8-10.047 15.388-11.18l248.47-42.712-175.916-180.613c-4.664-4.789-6.836-11.474-5.876-18.090l36.177-249.514-53.422 26.346v-47.954l71.057-35.042c7.161-3.532 15.689-2.804 22.151 1.889 6.46 4.693 9.787 12.58 8.641 20.482l-40.52 279.471 197.030 202.29c5.571 5.719 7.514 14.055 5.046 21.649zM401.195 28.282c-11.876 0-21.504 9.628-21.504 21.504v244.483c0 11.876 9.628 21.504 21.504 21.504s21.504-9.628 21.504-21.504v-244.483c0-11.876-9.627-21.504-21.504-21.504zM620.441 28.282c-11.876 0-21.504 9.628-21.504 21.504v244.483c0 11.876 9.628 21.504 21.504 21.504s21.504-9.628 21.504-21.504v-244.483c0-11.876-9.628-21.504-21.504-21.504zM511.653-63.038c-11.876 0-21.504 9.628-21.504 21.504v387.988c0 11.876 9.628 21.504 21.504 21.504s21.504-9.628 21.504-21.504v-387.988c-0.001-11.875-9.628-21.504-21.504-21.504zM426.739 368.215c0-14.422-11.682-26.092-26.092-26.092s-26.092 11.67-26.092 26.092 11.684 26.090 26.092 26.090c14.41-0.001 26.092-11.668 26.092-26.090zM646.048 368.215c0-14.422-11.694-26.092-26.090-26.092s-26.093 11.67-26.093 26.092 11.697 26.090 26.093 26.090c14.396-0.001 26.090-11.668 26.090-26.090zM537.248 424.272c0-14.422-11.682-26.092-26.093-26.092-14.409 0-26.092 11.67-26.092 26.092 0 14.42 11.684 26.096 26.092 26.096 14.411 0 26.093-11.676 26.093-26.096zM426.739 462.163c0-14.445-11.682-26.119-26.092-26.119s-26.092 11.675-26.092 26.119c0 14.423 11.684 26.094 26.092 26.094 14.41-0.001 26.092-11.671 26.092-26.094zM646.048 462.163c0-14.445-11.694-26.119-26.090-26.119s-26.093 11.675-26.093 26.119c0 14.423 11.697 26.094 26.093 26.094s26.090-11.671 26.090-26.094zM537.248 518.221c0-14.422-11.682-26.092-26.093-26.092-14.409 0-26.092 11.67-26.092 26.092s11.684 26.092 26.092 26.092c14.411 0 26.093-11.67 26.093-26.092z" />
<glyph unicode="&#xe930;" glyph-name="recruiting-tool" d="M642.49 547.467l-176.197 87.179c-8.983 4.375-17.779 6.609-26.135 6.609-22.155 0.023-44.521-16.546-44.521-53.619v-162.91c0-37.071 22.622-53.645 45.033-53.645 8.401 0 17.246 2.235 26.438 6.703l174.127 87.042c19.642 9.587 30.906 24.855 30.906 41.914-0.002 16.687-10.846 31.558-29.651 40.727zM440.67 394.355l-0.023 23.271h0.023v-23.271zM446.487 419.514c-1.513-0.723-2.722-1.186-3.629-1.441-0.35 1.441-0.674 3.631-0.674 6.654v162.91c0 2.886 0.279 5.026 0.582 6.517 0.815-0.279 1.815-0.674 3.002-1.28l174.639-86.413-173.919-86.948zM954.181 866.908h-884.363c-38.492 0-69.818-31.324-69.818-69.818v-558.543c0-38.494 31.326-69.821 69.818-69.821h349.092v-93.092h-93.092v-46.542h372.363v46.542h-93.090v93.092h349.090c38.494 0 69.819 31.327 69.819 69.821v558.543c0 38.494-31.326 69.818-69.819 69.818zM558.545 75.634h-93.092v93.092h93.092v-93.092zM977.455 238.545c0-12.847-10.449-23.274-23.273-23.274h-884.365c-12.823 0-23.273 10.427-23.273 23.274v558.545c0 12.847 10.449 23.273 23.273 23.273h884.363c12.823 0 23.273-10.426 23.273-23.273v-558.545z" />
</font>
</defs>
</svg>
