<?xml version="1.0" standalone="no"?>
<!DOCTYPE svg PUBLIC "-//W3C//DTD SVG 20010904//EN"
 "http://www.w3.org/TR/2001/REC-SVG-20010904/DTD/svg10.dtd">
<svg version="1.0" xmlns="http://www.w3.org/2000/svg"
 width="512.000000pt" height="512.000000pt" viewBox="0 0 512.000000 512.000000"
 preserveAspectRatio="xMidYMid meet">
<metadata>
Created by potrace 1.14, written by Peter Selinger 2001-2017
</metadata>
<g transform="translate(0.000000,512.000000) scale(0.100000,-0.100000)"
fill="#000000" stroke="none">
<path d="M3383 5100 c-133 -53 -227 -214 -277 -475 -24 -123 -27 -165 -31
-383 l-4 -203 -45 -62 c-102 -142 -148 -271 -142 -397 l4 -75 -46 -35 c-104
-80 -192 -219 -215 -338 l-11 -59 -81 -27 c-225 -73 -410 -257 -485 -482 l-21
-61 -57 -13 c-62 -13 -136 -48 -192 -88 -40 -29 -160 -151 -160 -162 0 -4 -35
-6 -79 -4 -146 6 -255 -37 -440 -173 -11 -8 -88 -14 -231 -17 -118 -3 -231 -8
-250 -11 -210 -33 -293 -56 -396 -105 -261 -126 -291 -338 -92 -635 73 -107
249 -297 365 -392 24 -19 53 -55 65 -80 51 -101 205 -232 353 -298 53 -24 256
-97 263 -95 15 5 202 -46 202 -55 0 -17 93 -146 126 -175 107 -93 212 -143
369 -175 94 -20 134 -22 280 -20 157 3 372 29 406 51 23 14 37 66 26 92 -18
40 -57 51 -130 36 -167 -35 -441 -40 -568 -11 -173 40 -305 135 -373 270 -37
73 -71 210 -81 324 -6 71 -6 333 0 388 2 22 7 67 10 100 25 253 117 586 208
755 94 173 219 300 319 325 l25 6 -1 -88 c-2 -92 15 -263 33 -329 5 -22 12
-50 15 -64 33 -168 165 -489 297 -723 178 -313 444 -647 604 -757 l49 -34 -34
-14 c-19 -8 -64 -25 -100 -37 -35 -13 -75 -33 -87 -45 -53 -51 -9 -129 67
-121 26 3 152 53 245 96 l90 42 70 -12 c326 -56 736 130 1114 506 318 316 510
683 513 984 1 77 -8 170 -18 186 -3 5 15 50 39 101 79 165 162 425 183 568 3
19 7 41 10 49 2 7 7 34 10 60 3 25 9 72 13 104 13 93 5 353 -12 432 -36 160
-89 268 -179 365 -38 42 -140 120 -155 120 -14 0 -33 23 -38 46 -49 242 -115
424 -203 564 -46 73 -166 189 -223 217 -27 14 -68 48 -100 85 -126 148 -306
307 -434 384 -140 85 -284 113 -382 74z m195 -149 c69 -25 124 -58 219 -130
83 -63 228 -200 220 -208 -3 -2 -22 -6 -42 -9 -156 -19 -464 -179 -679 -352
l-78 -63 6 138 c3 76 8 149 11 163 3 13 7 42 11 65 3 22 10 60 16 85 5 25 11
52 13 61 9 44 61 159 89 196 55 73 117 89 214 54z m603 -508 c165 -57 300
-269 372 -581 l13 -58 -65 12 c-175 32 -470 34 -696 3 -150 -20 -227 -38 -241
-56 -22 -29 -17 -77 11 -103 26 -25 31 -25 205 5 114 20 514 28 630 13 338
-44 494 -188 545 -503 21 -129 12 -360 -20 -520 -34 -167 -93 -370 -142 -484
l-19 -45 -34 49 c-45 66 -177 196 -281 276 -491 382 -1155 647 -1611 642 -43
0 -78 2 -78 6 0 18 38 102 62 138 78 116 256 237 446 304 82 29 112 53 112 88
0 38 -35 81 -65 81 -29 0 -114 -30 -214 -76 -41 -19 -76 -32 -79 -29 -11 10
21 120 53 180 76 147 229 303 432 443 140 95 344 197 438 218 104 24 153 23
226 -3z m-1206 -1508 c54 -4 102 -8 105 -10 3 -2 26 -6 50 -10 99 -14 324 -82
468 -142 443 -182 894 -490 1032 -704 60 -94 82 -167 86 -294 5 -168 -32 -302
-136 -489 -78 -139 -171 -258 -319 -406 -403 -401 -795 -562 -1097 -449 -123
46 -256 164 -415 365 -307 393 -523 846 -583 1224 -15 94 -22 276 -12 325 2
11 7 40 12 65 4 25 8 47 9 50 18 88 92 217 170 296 113 114 228 164 415 181
36 3 67 7 69 9 2 2 13 2 25 -1 12 -2 66 -7 121 -10z m-1458 -857 c-3 -7 -24
-55 -46 -106 -52 -118 -102 -283 -134 -442 -23 -112 -31 -170 -52 -374 -15
-144 -6 -400 19 -537 l12 -65 -58 13 c-386 89 -600 261 -599 483 1 262 349
793 631 961 101 59 242 101 227 67z m-649 -255 c-132 -163 -267 -397 -317
-548 -23 -70 -26 -84 -37 -140 -3 -16 -6 -31 -8 -32 -5 -5 -94 85 -157 158
-173 199 -237 372 -169 456 66 81 254 148 475 169 33 3 61 7 62 8 1 0 49 2
107 4 l107 3 -63 -78z"/>
</g>
</svg>
