<svg width="412" height="172" viewBox="0 0 412 172" fill="none" xmlns="http://www.w3.org/2000/svg">
<path d="M86.8062 149H60.0676V122.931H0V101.774L49.8995 23H86.8062V99.3178H103V122.931H86.8062V149ZM60.0676 99.3178V46.8021L26.1737 99.3178H60.0676Z" fill="#D3D8D8"/>
<path d="M206.386 0.5C256.839 0.5 293.5 36.1876 293.5 86C293.5 135.812 256.839 171.5 206.364 171.5C156.183 171.5 119.5 135.813 119.5 86C119.5 36.1869 156.161 0.500152 206.386 0.5ZM206.364 30.9102C190.778 30.9102 177.966 36.8248 169.056 46.6885C160.149 56.5472 155.167 70.3196 155.167 86C155.167 101.558 160.161 115.33 169.074 125.219C177.992 135.112 190.808 141.09 206.386 141.09C221.963 141.09 234.844 135.113 243.827 125.22C252.806 115.331 257.866 101.559 257.866 86C257.866 70.3176 252.807 56.5445 243.824 46.6865C234.838 36.8241 221.951 30.9102 206.364 30.9102Z" stroke="#576F80"/>
<path d="M227.223 167.637L206.989 83.1314C206.595 81.4859 208.295 80.1251 209.815 80.8699L289.049 119.71C290.591 120.465 290.526 122.685 288.943 123.35L266.071 132.95L287.304 158.641L273.321 172L248.464 142.713L230.815 168.307C229.832 169.732 227.626 169.32 227.223 167.637Z" fill="#576F80"/>
<path d="M395.963 149H369.484V122.931H310V101.774L359.415 23H395.963V99.3178H412V122.931H395.963V149ZM369.484 99.3178V46.8021L335.92 99.3178H369.484Z" fill="#D3D8D8"/>
</svg>
