<svg width="141" height="40" viewBox="0 0 141 40" fill="none" xmlns="http://www.w3.org/2000/svg">
<path d="M15.1351 25.5496C14.0443 25.5496 13.1519 24.6024 13.1519 23.4447C13.1519 22.287 14.0443 21.3398 15.1351 21.3398C16.2258 21.3398 17.1183 22.287 17.1183 23.4447C17.1183 24.6024 16.2258 25.5496 15.1351 25.5496ZM21.4126 21.3398C20.9803 21.3398 20.604 21.0583 20.4239 20.6653C19.4749 18.594 17.4673 17.1299 15.1351 17.1299C11.8628 17.1299 9.18555 19.9715 9.18555 23.4447C9.18555 26.9178 11.8628 29.7595 15.1351 29.7595C17.4673 29.7595 19.4749 28.2954 20.4239 26.2241C20.604 25.8311 20.9803 25.5496 21.4126 25.5496H23.0594C23.6117 25.5496 24.0594 25.9974 24.0594 26.5496V28.7595C24.0594 29.3118 24.5071 29.7595 25.0594 29.7595H27.0257C27.578 29.7595 28.0257 29.3118 28.0257 28.7595V26.5496C28.0257 25.9974 28.4734 25.5496 29.0257 25.5496H30.0005C30.5528 25.5496 31.0005 25.1019 31.0005 24.5496V22.3398C31.0005 21.7875 30.5528 21.3398 30.0005 21.3398H21.4126Z" fill="#576F80"/>
<path d="M23.1114 32.3826L14.762 32.3011H9.8637H5C4.44772 32.3011 4 31.8533 4 31.3011V18.9875C4 18.6799 4.14151 18.3895 4.38369 18.2L14.8605 10.0007C15.2332 9.70907 15.7592 9.71853 16.1211 10.0233L25.864 18.2295C26.2711 18.5724 26.7981 18.7388 27.3283 18.692L28.0771 18.6259C28.9206 18.5514 29.6141 17.9299 29.7801 17.0996C29.9159 16.4209 29.6735 15.722 29.1467 15.2732L16.4641 4.46695C15.7117 3.82582 14.6037 3.8306 13.8568 4.47819L0.68981 15.8946C0.251683 16.2745 0 16.8258 0 17.4057V34.6483C0 35.7529 0.895431 36.6483 2 36.6483H23.1579C24.458 36.6483 25.4125 35.4274 25.0988 34.1658L25.0327 33.9C24.8128 33.0155 24.0228 32.3915 23.1114 32.3826Z" fill="#A1B1BE"/>
<path d="M40.517 29V11.5455H44.2074V19.2415H44.4375L50.7188 11.5455H55.142L48.6648 19.3608L55.2188 29H50.804L46.0227 21.8239L44.2074 24.0398V29H40.517ZM62.0007 29.2557C60.6541 29.2557 59.495 28.983 58.5234 28.4375C57.5575 27.8864 56.8132 27.108 56.2905 26.1023C55.7678 25.0909 55.5064 23.8949 55.5064 22.5142C55.5064 21.1676 55.7678 19.9858 56.2905 18.9688C56.8132 17.9517 57.549 17.1591 58.4979 16.5909C59.4524 16.0227 60.5717 15.7386 61.8558 15.7386C62.7195 15.7386 63.5234 15.8778 64.2678 16.1562C65.0178 16.429 65.6712 16.8409 66.228 17.392C66.7905 17.9432 67.228 18.6364 67.5405 19.4716C67.853 20.3011 68.0092 21.2727 68.0092 22.3864V23.3835H56.9553V21.1335H64.5916C64.5916 20.6108 64.478 20.1477 64.2507 19.7443C64.0234 19.3409 63.7081 19.0256 63.3047 18.7983C62.907 18.5653 62.4439 18.4489 61.9155 18.4489C61.3643 18.4489 60.8757 18.5767 60.4496 18.8324C60.0291 19.0824 59.6996 19.4205 59.4609 19.8466C59.2223 20.267 59.1001 20.7358 59.0945 21.2528V23.392C59.0945 24.0398 59.2138 24.5994 59.4524 25.071C59.6967 25.5426 60.0405 25.9062 60.4837 26.1619C60.9268 26.4176 61.4524 26.5455 62.0604 26.5455C62.4638 26.5455 62.8331 26.4886 63.1683 26.375C63.5036 26.2614 63.7905 26.0909 64.0291 25.8636C64.2678 25.6364 64.4496 25.358 64.5746 25.0284L67.9325 25.25C67.7621 26.0568 67.4126 26.7614 66.8842 27.3636C66.3615 27.9602 65.6854 28.4261 64.8558 28.7614C64.032 29.0909 63.0803 29.2557 62.0007 29.2557ZM72.2685 33.9091C71.8082 33.9091 71.3764 33.8722 70.973 33.7983C70.5753 33.7301 70.2457 33.642 69.9844 33.5341L70.8026 30.8239C71.2287 30.9545 71.6122 31.0256 71.9531 31.0369C72.2997 31.0483 72.598 30.9688 72.848 30.7983C73.1037 30.6278 73.3111 30.3381 73.4702 29.929L73.6832 29.375L68.9872 15.9091H72.8054L75.5156 25.5227H75.652L78.3878 15.9091H82.2315L77.1435 30.4148C76.8991 31.1193 76.5668 31.733 76.1463 32.2557C75.7315 32.7841 75.206 33.1903 74.5696 33.4744C73.9332 33.7642 73.1662 33.9091 72.2685 33.9091ZM87.7202 11.5455V29H84.0895V11.5455H87.7202ZM96.5433 29.2557C95.2195 29.2557 94.0746 28.9744 93.1087 28.4119C92.1484 27.8437 91.407 27.054 90.8842 26.0426C90.3615 25.0256 90.1001 23.8466 90.1001 22.5057C90.1001 21.1534 90.3615 19.9716 90.8842 18.9602C91.407 17.9432 92.1484 17.1534 93.1087 16.5909C94.0746 16.0227 95.2195 15.7386 96.5433 15.7386C97.8672 15.7386 99.0092 16.0227 99.9695 16.5909C100.935 17.1534 101.68 17.9432 102.202 18.9602C102.725 19.9716 102.987 21.1534 102.987 22.5057C102.987 23.8466 102.725 25.0256 102.202 26.0426C101.68 27.054 100.935 27.8437 99.9695 28.4119C99.0092 28.9744 97.8672 29.2557 96.5433 29.2557ZM96.5604 26.4432C97.1626 26.4432 97.6655 26.2727 98.0689 25.9318C98.4723 25.5852 98.7763 25.1136 98.9808 24.517C99.1911 23.9205 99.2962 23.2415 99.2962 22.4801C99.2962 21.7188 99.1911 21.0398 98.9808 20.4432C98.7763 19.8466 98.4723 19.375 98.0689 19.0284C97.6655 18.6818 97.1626 18.5085 96.5604 18.5085C95.9524 18.5085 95.4411 18.6818 95.0263 19.0284C94.6172 19.375 94.3075 19.8466 94.0973 20.4432C93.8928 21.0398 93.7905 21.7188 93.7905 22.4801C93.7905 23.2415 93.8928 23.9205 94.0973 24.517C94.3075 25.1136 94.6172 25.5852 95.0263 25.9318C95.4411 26.2727 95.9524 26.4432 96.5604 26.4432ZM111.262 29.2557C109.938 29.2557 108.793 28.9744 107.827 28.4119C106.867 27.8437 106.126 27.054 105.603 26.0426C105.08 25.0256 104.819 23.8466 104.819 22.5057C104.819 21.1534 105.08 19.9716 105.603 18.9602C106.126 17.9432 106.867 17.1534 107.827 16.5909C108.793 16.0227 109.938 15.7386 111.262 15.7386C112.586 15.7386 113.728 16.0227 114.688 16.5909C115.654 17.1534 116.398 17.9432 116.921 18.9602C117.444 19.9716 117.705 21.1534 117.705 22.5057C117.705 23.8466 117.444 25.0256 116.921 26.0426C116.398 27.054 115.654 27.8437 114.688 28.4119C113.728 28.9744 112.586 29.2557 111.262 29.2557ZM111.279 26.4432C111.881 26.4432 112.384 26.2727 112.788 25.9318C113.191 25.5852 113.495 25.1136 113.7 24.517C113.91 23.9205 114.015 23.2415 114.015 22.4801C114.015 21.7188 113.91 21.0398 113.7 20.4432C113.495 19.8466 113.191 19.375 112.788 19.0284C112.384 18.6818 111.881 18.5085 111.279 18.5085C110.671 18.5085 110.16 18.6818 109.745 19.0284C109.336 19.375 109.026 19.8466 108.816 20.4432C108.612 21.0398 108.509 21.7188 108.509 22.4801C108.509 23.2415 108.612 23.9205 108.816 24.517C109.026 25.1136 109.336 25.5852 109.745 25.9318C110.16 26.2727 110.671 26.4432 111.279 26.4432ZM120.066 29V15.9091H123.526V18.2188H123.68C123.952 17.4517 124.407 16.8466 125.043 16.4034C125.68 15.9602 126.441 15.7386 127.327 15.7386C128.225 15.7386 128.989 15.9631 129.62 16.4119C130.251 16.8551 130.671 17.4574 130.881 18.2188H131.018C131.285 17.4688 131.768 16.8693 132.467 16.4205C133.171 15.9659 134.004 15.7386 134.964 15.7386C136.185 15.7386 137.177 16.1278 137.938 16.9062C138.705 17.679 139.089 18.7756 139.089 20.196V29H135.467V20.9119C135.467 20.1847 135.273 19.6392 134.887 19.2756C134.501 18.9119 134.018 18.7301 133.438 18.7301C132.779 18.7301 132.265 18.9403 131.896 19.3608C131.526 19.7756 131.342 20.3239 131.342 21.0057V29H127.822V20.8352C127.822 20.1932 127.637 19.6818 127.268 19.3011C126.904 18.9205 126.424 18.7301 125.827 18.7301C125.424 18.7301 125.06 18.8324 124.737 19.0369C124.418 19.2358 124.165 19.517 123.978 19.8807C123.79 20.2386 123.697 20.6591 123.697 21.142V29H120.066Z" fill="#131516"/>
</svg>
