<svg width="195" height="49" viewBox="0 0 195 49" fill="none" xmlns="http://www.w3.org/2000/svg">
<path d="M20.9524 38.8635V29.3353C20.9524 28.2307 20.057 27.3353 18.9524 27.3353H17.0857C15.9811 27.3353 15.0857 28.2307 15.0857 29.3353V38.8635C15.0857 39.9681 14.1903 40.8635 13.0857 40.8635H8.00635C6.90178 40.8635 6.00635 39.9681 6.00635 38.8635V22.6359C6.00635 22.0756 6.24138 21.541 6.65424 21.1622L20.2212 8.71464C20.9597 8.03709 22.0856 8.01073 22.855 8.65298L37.8341 21.157C38.2893 21.537 38.5524 22.0994 38.5524 22.6924V26.1124C38.5524 26.8631 38.9727 27.5505 39.6409 27.8926L41.0885 28.6339C42.4193 29.3153 44 28.3488 44 26.8536V20.032C44 19.4451 43.7422 18.8878 43.295 18.5078L22.8157 1.10839C22.0647 0.470367 20.9609 0.474408 20.2147 1.11792L0.693923 17.9506C0.253327 18.3305 0 18.8835 0 19.4652V45C0 46.1046 0.89543 47 2 47H24.1168C25.4183 47 26.3731 45.7767 26.057 44.5142L25.522 42.3777C25.2992 41.4877 24.4994 40.8635 23.5819 40.8635H22.9524C21.8478 40.8635 20.9524 39.9681 20.9524 38.8635Z" fill="#E8E8E8"/>
<path d="M30.8425 44.5646L26.9774 28.1506C26.5889 26.501 28.2996 25.1462 29.8163 25.9022L45.1269 33.5336C46.6531 34.2943 46.5882 36.4935 45.0198 37.163L41.881 38.5028L47.494 45.4088L43.7976 49L37.2262 41.1271L34.4445 45.2288C33.4669 46.6703 31.2417 46.26 30.8425 44.5646Z" fill="#F6F7F8"/>
<path d="M58.992 33.5V17.804H64.296C65.384 17.804 66.36 17.948 67.224 18.236C68.104 18.524 68.792 19.012 69.288 19.7C69.8 20.372 70.056 21.292 70.056 22.46C70.056 23.66 69.768 24.628 69.192 25.364C68.632 26.1 67.88 26.628 66.936 26.948L70.68 33.5H67.56L64.176 27.356H61.776V33.5H58.992ZM61.776 25.148H64.008C65.08 25.148 65.896 24.924 66.456 24.476C67.032 24.012 67.32 23.34 67.32 22.46C67.32 21.564 67.032 20.94 66.456 20.588C65.896 20.22 65.08 20.036 64.008 20.036H61.776V25.148ZM72.9551 33.5V21.716H75.7151V33.5H72.9551ZM74.3471 19.652C73.8511 19.652 73.4511 19.508 73.1471 19.22C72.8431 18.932 72.6911 18.548 72.6911 18.068C72.6911 17.604 72.8431 17.228 73.1471 16.94C73.4511 16.652 73.8511 16.508 74.3471 16.508C74.8431 16.508 75.2431 16.652 75.5471 16.94C75.8511 17.228 76.0031 17.604 76.0031 18.068C76.0031 18.548 75.8511 18.932 75.5471 19.22C75.2431 19.508 74.8431 19.652 74.3471 19.652ZM84.2764 33.788C83.1884 33.788 82.2044 33.548 81.3244 33.068C80.4444 32.572 79.7484 31.868 79.2364 30.956C78.7244 30.028 78.4684 28.916 78.4684 27.62C78.4684 26.34 78.7244 25.236 79.2364 24.308C79.7644 23.38 80.4444 22.668 81.2764 22.172C82.1084 21.676 82.9804 21.428 83.8924 21.428C84.9644 21.428 85.8604 21.668 86.5804 22.148C87.3004 22.612 87.8444 23.268 88.2124 24.116C88.5804 24.948 88.7644 25.916 88.7644 27.02C88.7644 27.596 88.7244 28.044 88.6444 28.364H81.1564C81.2844 29.404 81.6604 30.212 82.2844 30.788C82.9084 31.364 83.6924 31.652 84.6364 31.652C85.1484 31.652 85.6204 31.58 86.0524 31.436C86.5004 31.276 86.9404 31.06 87.3724 30.788L88.3084 32.516C87.7484 32.884 87.1244 33.188 86.4364 33.428C85.7484 33.668 85.0284 33.788 84.2764 33.788ZM81.1324 26.492H86.3644C86.3644 25.58 86.1644 24.868 85.7644 24.356C85.3644 23.828 84.7644 23.564 83.9644 23.564C83.2764 23.564 82.6604 23.82 82.1164 24.332C81.5884 24.828 81.2604 25.548 81.1324 26.492ZM94.0884 33.788C93.1124 33.788 92.4164 33.492 92.0004 32.9C91.6004 32.308 91.4004 31.5 91.4004 30.476V16.556H94.1604V30.62C94.1604 30.956 94.2244 31.196 94.3524 31.34C94.4804 31.468 94.6164 31.532 94.7604 31.532C94.8244 31.532 94.8804 31.532 94.9284 31.532C94.9924 31.516 95.0804 31.5 95.1924 31.484L95.5524 33.548C95.3924 33.612 95.1844 33.668 94.9284 33.716C94.6884 33.764 94.4084 33.788 94.0884 33.788ZM102.068 33.788C100.708 33.788 99.7401 33.396 99.1641 32.612C98.6041 31.812 98.3241 30.78 98.3241 29.516V23.9H96.6441V21.836L98.4681 21.716L98.8041 18.5H101.108V21.716H104.108V23.9H101.108V29.516C101.108 30.892 101.66 31.58 102.764 31.58C102.972 31.58 103.188 31.556 103.412 31.508C103.636 31.444 103.828 31.38 103.988 31.316L104.468 33.356C104.148 33.468 103.78 33.564 103.364 33.644C102.964 33.74 102.532 33.788 102.068 33.788ZM111.037 33.788C110.061 33.788 109.149 33.548 108.301 33.068C107.453 32.572 106.765 31.868 106.237 30.956C105.709 30.028 105.445 28.916 105.445 27.62C105.445 26.308 105.709 25.196 106.237 24.284C106.765 23.356 107.453 22.652 108.301 22.172C109.149 21.676 110.061 21.428 111.037 21.428C112.029 21.428 112.949 21.676 113.797 22.172C114.645 22.652 115.333 23.356 115.861 24.284C116.389 25.196 116.653 26.308 116.653 27.62C116.653 28.916 116.389 30.028 115.861 30.956C115.333 31.868 114.645 32.572 113.797 33.068C112.949 33.548 112.029 33.788 111.037 33.788ZM111.037 31.532C111.901 31.532 112.581 31.172 113.077 30.452C113.573 29.732 113.821 28.788 113.821 27.62C113.821 26.436 113.573 25.484 113.077 24.764C112.581 24.044 111.901 23.684 111.037 23.684C110.173 23.684 109.493 24.044 108.997 24.764C108.517 25.484 108.277 26.436 108.277 27.62C108.277 28.788 108.517 29.732 108.997 30.452C109.493 31.172 110.173 31.532 111.037 31.532ZM119.385 33.5V21.716H121.665L121.857 23.804H121.953C122.369 23.036 122.873 22.452 123.465 22.052C124.057 21.636 124.665 21.428 125.289 21.428C125.849 21.428 126.297 21.508 126.633 21.668L126.153 24.068C125.945 24.004 125.753 23.956 125.577 23.924C125.401 23.892 125.185 23.876 124.929 23.876C124.465 23.876 123.977 24.06 123.465 24.428C122.953 24.78 122.513 25.404 122.145 26.3V33.5H119.385ZM134.674 33.788C133.314 33.788 132.114 33.46 131.074 32.804C130.034 32.132 129.218 31.188 128.626 29.972C128.05 28.74 127.762 27.276 127.762 25.58C127.762 23.884 128.05 22.436 128.626 21.236C129.218 20.036 130.034 19.116 131.074 18.476C132.114 17.836 133.314 17.516 134.674 17.516C136.05 17.516 137.258 17.836 138.298 18.476C139.338 19.116 140.146 20.036 140.722 21.236C141.314 22.436 141.61 23.884 141.61 25.58C141.61 27.276 141.314 28.74 140.722 29.972C140.146 31.188 139.338 32.132 138.298 32.804C137.258 33.46 136.05 33.788 134.674 33.788ZM134.674 31.364C135.906 31.364 136.89 30.844 137.626 29.804C138.362 28.748 138.73 27.34 138.73 25.58C138.73 23.82 138.362 22.444 137.626 21.452C136.89 20.444 135.906 19.94 134.674 19.94C133.442 19.94 132.458 20.444 131.722 21.452C130.986 22.444 130.618 23.82 130.618 25.58C130.618 27.34 130.986 28.748 131.722 29.804C132.458 30.844 133.442 31.364 134.674 31.364ZM144.51 33.5V21.716H146.79L146.982 23.3H147.078C147.606 22.788 148.182 22.348 148.806 21.98C149.43 21.612 150.142 21.428 150.942 21.428C152.206 21.428 153.126 21.836 153.702 22.652C154.278 23.468 154.566 24.62 154.566 26.108V33.5H151.806V26.468C151.806 25.492 151.662 24.804 151.374 24.404C151.086 24.004 150.614 23.804 149.958 23.804C149.446 23.804 148.99 23.932 148.59 24.188C148.206 24.428 147.766 24.788 147.27 25.268V33.5H144.51ZM160.628 33.788C159.652 33.788 158.956 33.492 158.54 32.9C158.14 32.308 157.94 31.5 157.94 30.476V16.556H160.7V30.62C160.7 30.956 160.764 31.196 160.892 31.34C161.02 31.468 161.156 31.532 161.3 31.532C161.364 31.532 161.42 31.532 161.468 31.532C161.532 31.516 161.62 31.5 161.732 31.484L162.092 33.548C161.932 33.612 161.724 33.668 161.468 33.716C161.228 33.764 160.948 33.788 160.628 33.788ZM164.455 33.5V21.716H167.215V33.5H164.455ZM165.847 19.652C165.351 19.652 164.951 19.508 164.647 19.22C164.343 18.932 164.191 18.548 164.191 18.068C164.191 17.604 164.343 17.228 164.647 16.94C164.951 16.652 165.351 16.508 165.847 16.508C166.343 16.508 166.743 16.652 167.047 16.94C167.351 17.228 167.503 17.604 167.503 18.068C167.503 18.548 167.351 18.932 167.047 19.22C166.743 19.508 166.343 19.652 165.847 19.652ZM170.736 33.5V21.716H173.016L173.208 23.3H173.304C173.832 22.788 174.408 22.348 175.032 21.98C175.656 21.612 176.368 21.428 177.168 21.428C178.432 21.428 179.352 21.836 179.928 22.652C180.504 23.468 180.792 24.62 180.792 26.108V33.5H178.032V26.468C178.032 25.492 177.888 24.804 177.6 24.404C177.312 24.004 176.84 23.804 176.184 23.804C175.672 23.804 175.216 23.932 174.816 24.188C174.432 24.428 173.992 24.788 173.496 25.268V33.5H170.736ZM189.206 33.788C188.118 33.788 187.134 33.548 186.254 33.068C185.374 32.572 184.678 31.868 184.166 30.956C183.654 30.028 183.398 28.916 183.398 27.62C183.398 26.34 183.654 25.236 184.166 24.308C184.694 23.38 185.374 22.668 186.206 22.172C187.038 21.676 187.91 21.428 188.822 21.428C189.894 21.428 190.79 21.668 191.51 22.148C192.23 22.612 192.774 23.268 193.142 24.116C193.51 24.948 193.694 25.916 193.694 27.02C193.694 27.596 193.654 28.044 193.574 28.364H186.086C186.214 29.404 186.59 30.212 187.214 30.788C187.838 31.364 188.622 31.652 189.566 31.652C190.078 31.652 190.55 31.58 190.982 31.436C191.43 31.276 191.87 31.06 192.302 30.788L193.238 32.516C192.678 32.884 192.054 33.188 191.366 33.428C190.678 33.668 189.958 33.788 189.206 33.788ZM186.062 26.492H191.294C191.294 25.58 191.094 24.868 190.694 24.356C190.294 23.828 189.694 23.564 188.894 23.564C188.206 23.564 187.59 23.82 187.046 24.332C186.518 24.828 186.19 25.548 186.062 26.492Z" fill="#F6F7F8"/>
</svg>
