<svg width="74" height="27" viewBox="0 0 74 27" fill="none" xmlns="http://www.w3.org/2000/svg">
<path fill-rule="evenodd" clip-rule="evenodd" d="M0.101611 2.86424C0.0676081 2.86176 0.0338041 2.8593 0 2.85744C0 10.9069 0 18.9563 0.00577223 27C0.109672 26.9943 0.219345 26.9886 0.323245 26.9886H10.4477C11.4117 26.9886 12.3699 26.9087 13.3108 26.7088C16.5086 26.0352 18.829 24.2426 20.249 21.3312C20.9647 19.8526 21.3457 18.2769 21.4958 16.6499C21.7151 14.2808 21.5824 11.9402 20.78 9.67376C19.7064 6.64809 17.6688 4.55296 14.5807 3.50254C13.1838 3.02871 11.7349 2.87457 10.2688 2.87457H0.317473C0.243482 2.87457 0.172119 2.86937 0.101611 2.86424ZM5.36889 13.0948C5.36853 13.7013 5.36817 14.3079 5.36817 14.9145C5.36817 17.3692 5.36817 19.824 5.36239 22.2731C5.35662 22.4843 5.40857 22.5414 5.62792 22.5414C6.38408 22.5357 7.1388 22.5371 7.89352 22.5386C8.64824 22.54 9.40296 22.5414 10.1591 22.5357C13.0568 22.5186 15.1463 20.9315 15.8736 18.1628C16.4162 16.0676 16.3412 13.9611 15.8332 11.8717C15.5388 10.6671 14.9789 9.59385 14.0034 8.77749C12.8547 7.80699 11.4752 7.45304 10.009 7.37312C9.09997 7.32317 8.19316 7.32897 7.28578 7.33476C6.74126 7.33824 6.19654 7.34172 5.65101 7.33316C5.39703 7.32745 5.36239 7.41308 5.36239 7.63573C5.37105 9.45541 5.36997 11.2751 5.36889 13.0948Z" fill="#3B3D46"/>
<path fill-rule="evenodd" clip-rule="evenodd" d="M61.2434 13.8926C64.0718 14.766 65.6187 16.8098 65.6938 19.6984C65.7399 21.4111 65.3417 22.9753 64.1872 24.2997C63.229 25.4015 61.9995 26.0638 60.6142 26.4919C59.4655 26.8459 58.288 26.9886 57.0931 26.9943C55.1739 26.9971 53.2546 26.9971 51.3361 26.9971C49.4175 26.9971 47.4997 26.9971 45.5833 27C45.3236 27 45.2658 26.9372 45.2658 26.686C45.2716 18.8592 45.2716 11.0268 45.2658 3.19997C45.2658 2.93737 45.3351 2.87457 45.6006 2.87457C47.4997 2.88028 49.3988 2.88171 51.2978 2.88314C53.1969 2.88456 55.096 2.88599 56.995 2.8917C58.4554 2.89741 59.8927 3.04584 61.2607 3.59388C63.2002 4.37028 64.2392 5.81461 64.4816 7.84695C64.6086 8.89737 64.5624 9.93637 64.1757 10.9354C63.6735 12.2142 62.7384 13.0876 61.5435 13.727C61.4942 13.7563 61.4467 13.7819 61.3904 13.8122C61.348 13.8351 61.3005 13.8607 61.2434 13.8926ZM54.0223 22.8725C53.7625 22.8725 53.5027 22.8722 53.2429 22.8718C52.4637 22.8708 51.6845 22.8697 50.9053 22.8782C50.6975 22.8782 50.6282 22.8383 50.6282 22.6156C50.6398 20.5795 50.634 18.5491 50.6283 16.513V16.5129L50.6282 16.5072C50.6282 16.336 50.6513 16.256 50.8591 16.256C51.8604 16.2617 52.8602 16.2632 53.8601 16.2646H53.8613C54.8611 16.266 55.861 16.2674 56.8623 16.2732C57.4452 16.2789 58.0109 16.393 58.542 16.6214C59.6733 17.1066 60.1986 18.0143 60.314 19.1847C60.3602 19.6585 60.3545 20.138 60.2448 20.6061C59.9793 21.7365 59.2231 22.3702 58.1264 22.667C57.5491 22.8269 56.9546 22.8668 56.3543 22.8725H54.0223ZM53.0045 12.6302C53.2401 12.6306 53.4755 12.6309 53.7106 12.6309H53.711C54.4901 12.6309 55.2692 12.6309 56.0541 12.6366C56.3716 12.6366 56.6891 12.6252 57.0008 12.5624C58.1321 12.3455 58.9633 11.7803 59.2577 10.61C59.3559 10.2047 59.3732 9.79935 59.3328 9.38832C59.2346 8.39499 58.744 7.68139 57.78 7.31602C57.3009 7.13334 56.7988 7.03058 56.2908 7.02487C55.207 7.0146 54.1212 7.01049 53.0358 7.00638C52.3117 7.00364 51.5879 7.0009 50.8649 6.99633C50.6629 6.99633 50.6282 7.06484 50.6282 7.24181C50.634 8.95445 50.634 10.6671 50.6282 12.3797C50.6282 12.5795 50.6802 12.6366 50.8822 12.6366C51.588 12.6281 52.2971 12.6291 53.0045 12.6302Z" fill="#3B3D46"/>
<path fill-rule="evenodd" clip-rule="evenodd" d="M22.6329 3.17143V14.9316C22.6329 16.2393 22.6336 17.5471 22.6342 18.8544C22.6355 21.4677 22.6368 24.0794 22.6329 26.686C22.6329 26.9429 22.7022 26.9943 22.9504 26.9943C24.6474 26.9914 26.3459 26.9914 28.0444 26.9914C29.7429 26.9914 31.4413 26.9914 33.1384 26.9886C34.8527 26.9886 36.5267 26.726 38.1025 26.0295C40.5557 24.9448 42.2296 23.1123 43.1763 20.6575C44.5097 17.2037 44.5847 13.6756 43.5688 10.1362C42.905 7.83553 41.5947 5.94591 39.5455 4.61576C37.7504 3.45116 35.7532 2.92595 33.629 2.90312C31.4349 2.8787 29.2429 2.87773 27.0505 2.87676C25.6554 2.87614 24.26 2.87552 22.8638 2.86886C22.6243 2.86382 22.6277 2.97893 22.6318 3.11596C22.6324 3.13414 22.6329 3.15271 22.6329 3.17143ZM28.0018 13.1152C28.0015 13.7242 28.0011 14.3334 28.0011 14.943V22.2674C28.0011 22.4843 28.0588 22.5357 28.2724 22.5357C29.0285 22.5328 29.7833 22.5328 30.538 22.5328C31.2927 22.5328 32.0474 22.5328 32.8036 22.53C33.6983 22.53 34.5641 22.3816 35.3838 22.0162C37.0635 21.2683 38.0448 19.9325 38.5008 18.2141C39.0665 16.079 38.9914 13.9382 38.4604 11.8089C38.1083 10.4216 37.4098 9.23989 36.1861 8.42353C35.1183 7.71563 33.9119 7.43019 32.6477 7.3674C31.7589 7.32553 30.8721 7.33057 29.9849 7.33561C29.4203 7.33882 28.8554 7.34202 28.2897 7.33314C28.0357 7.32743 27.9953 7.40736 27.9953 7.63571C28.004 9.4638 28.0029 11.2887 28.0018 13.1152Z" fill="#3B3D46"/>
<path fill-rule="evenodd" clip-rule="evenodd" d="M69.4977 6.62222C70.7091 6.62222 71.6911 5.65097 71.6911 4.45287C71.6911 3.25477 70.7091 2.28352 69.4977 2.28352C68.2862 2.28352 67.3042 3.25477 67.3042 4.45287C67.3042 5.65097 68.2862 6.62222 69.4977 6.62222ZM69.4977 8.90574C71.9842 8.90574 74 6.91212 74 4.45287C74 1.99362 71.9842 0 69.4977 0C67.0111 0 64.9953 1.99362 64.9953 4.45287C64.9953 6.91212 67.0111 8.90574 69.4977 8.90574Z" fill="#3B3D46"/>
</svg>
