<svg width="56" height="34" viewBox="0 0 56 34" fill="none" xmlns="http://www.w3.org/2000/svg">
<path fill-rule="evenodd" clip-rule="evenodd" d="M31.1783 2.44678C31.1783 2.44678 32.7423 4.68966 31.2792 7.49327C30.4427 9.04282 28.3887 12.6634 26.727 15.5923C25.3965 17.9377 24.3175 19.8395 24.3167 19.8795L24.2938 19.8369C23.0982 25.3464 18.6746 30.075 12.2595 30.075C5.39821 30.075 0 24.213 0 17.2804C0 10.3479 5.39821 4.43482 12.2595 4.38385C13.0936 4.38385 13.7123 4.39745 14.3103 4.41061C14.8458 4.42239 15.365 4.43381 16.0074 4.43476L13.6215 0H25.3261C29.7153 0 31.1783 2.44678 31.1783 2.44678ZM19.1887 10.3479H12.5622C8.4757 10.3479 6.25587 13.5083 6.25587 17.1785C6.25587 21.1545 8.92975 24.111 12.6631 24.111C14.6811 24.111 17.1532 22.2759 17.9604 19.8801L18.3136 18.9116H15.1352L17.6073 14.2729H21.3004L19.1887 10.3479Z" fill="#3B3D46"/>
<path d="M34.6089 11.4183L30.4215 19.0645H34.6089V11.4183Z" fill="#3B3D46"/>
<path d="M50.2991 10.5007C49.5423 10.5007 48.9369 10.8576 48.9369 11.928C48.9369 12.7115 49.9296 13.5881 51.1706 14.6841C53.24 16.5117 56 18.9491 56 22.5817C56 26.6087 52.5189 29.973 48.9369 29.973H45.832L47.9784 33.949C47.9784 33.949 45.4559 34 37.5351 34C31.6829 34 29.5639 29.922 29.5639 29.922L26.2847 23.8561H34.609V29.6672H39.8559V23.8561L46.5657 23.8561C47.9279 23.8561 48.8865 23.2954 48.8865 21.7151C48.8865 20.711 47.6652 19.4638 46.2686 18.0376C44.404 16.1334 42.227 13.9101 42.227 11.5202C42.227 7.39128 45.7081 4.48573 49.4414 4.48573H51.409L54.6883 10.5007H50.2991Z" fill="#3B3D46"/>
</svg>
