<svg width="102" height="20" viewBox="0 0 102 20" fill="none" xmlns="http://www.w3.org/2000/svg">
<path d="M62.748 0H66.4007L61.2217 2.07102L62.748 0Z" fill="#3B3D46"/>
<path fill-rule="evenodd" clip-rule="evenodd" d="M33.8001 5.14793C32.9278 3.66863 31.6194 2.36688 30.1474 1.53838C28.621 0.650805 26.8764 0.23663 25.1864 0.23663C23.442 0.23663 21.6974 0.710034 20.2256 1.53838C18.699 2.42596 17.4452 3.66863 16.5729 5.14793C15.7006 6.62723 15.21 8.40239 15.21 10.1183C15.21 11.8344 15.7006 13.6095 16.5729 15.0888C17.4452 16.5681 18.7535 17.8699 20.2256 18.6982C21.7519 19.5858 23.4966 20 25.1864 20C26.931 20 28.6756 19.5267 30.1474 18.6982C31.674 17.8107 32.9278 16.5681 33.8001 15.0888C34.6724 13.6095 35.163 11.8344 35.163 10.1183C35.163 8.40239 34.6724 6.68631 33.8001 5.14793ZM31.7283 14.142C31.0743 15.3255 30.0928 16.3314 29.0025 16.9823C27.8579 17.6331 26.5493 18.0474 25.2409 18.0474C23.9326 18.0474 22.6243 17.6924 21.4794 16.9823C20.3345 16.3314 19.4078 15.3255 18.7535 14.142C18.0992 12.9586 17.7724 11.5976 17.7724 10.2366C17.7724 8.87579 18.0992 7.51481 18.7535 6.33137C19.4078 5.14793 20.389 4.14204 21.4794 3.49109C22.6243 2.84014 23.9326 2.42596 25.2409 2.42596C26.5493 2.42596 27.8579 2.78105 29.0025 3.49109C30.1474 4.14204 31.0743 5.14793 31.7283 6.33137C32.3826 7.51481 32.7098 8.87579 32.7098 10.2366C32.7098 11.5976 32.3826 12.9586 31.7283 14.142Z" fill="#3B3D46"/>
<path d="M13.5745 18.6984V16.3315H2.45323V2.54442H0V18.6984H13.5745Z" fill="#3B3D46"/>
<path d="M14.3922 2.84028L11.6664 8.40239H9.75836L11.7756 2.84028H14.3922Z" fill="#3B3D46"/>
<path fill-rule="evenodd" clip-rule="evenodd" d="M50.2641 11.4794C50.9181 11.1244 51.7359 10.5326 52.1722 9.46751C52.6082 8.46162 52.6628 6.92309 52.3356 5.79888C51.9542 4.67467 51.1907 3.84618 50.3187 3.31369C49.3918 2.78105 48.4106 2.54442 47.4292 2.54442H37.6708V18.6984H40.124V12.1895H46.1208L50.7001 18.6392H53.4259L48.6832 11.9527C49.1192 11.9527 49.6098 11.8344 50.2641 11.4794ZM50.2641 7.39649C50.2641 8.16576 49.937 8.93502 49.4464 9.40843C48.9012 9.88169 48.1923 9.88169 47.5383 9.88169H40.124V4.9113H47.5929C48.2469 4.9113 48.9012 4.9113 49.3918 5.3847C49.8824 5.85811 50.2641 6.62723 50.2641 7.39649Z" fill="#3B3D46"/>
<path d="M66.2373 9.40843V11.6568H58.0053V16.3315H69.072V18.6984H55.552V2.54442H69.072V4.85207H58.0053V9.40843H66.2373Z" fill="#3B3D46"/>
<path fill-rule="evenodd" clip-rule="evenodd" d="M73.8696 14.5564L71.9615 18.6984H69.5082L77.086 2.54442H79.5392L87.1169 18.6984H84.6637L82.7556 14.5564H73.8696ZM78.2854 5.14793L74.7964 12.5444H81.7198L78.2854 5.14793Z" fill="#3B3D46"/>
<path d="M101.891 18.6984V16.3315H90.7696V2.54442H88.3164V18.6984H101.891Z" fill="#3B3D46"/>
<path fill-rule="evenodd" clip-rule="evenodd" d="M100.801 5.73979V5.08884C100.801 5.06472 100.791 5.03091 100.777 4.99523C100.756 4.94323 100.724 4.88732 100.692 4.85221C100.637 4.79298 100.583 4.79298 100.528 4.73376C100.637 4.67467 100.692 4.61544 100.801 4.49713C100.83 4.43385 100.859 4.37058 100.88 4.29806C100.898 4.23521 100.91 4.16544 100.91 4.08295C100.91 3.90541 100.855 3.78709 100.801 3.60955C100.637 3.37292 100.365 3.31369 100.092 3.31369H99.0016V6.03565H99.4376V4.9113H100.037C100.062 4.9113 100.099 4.9113 100.141 4.91693C100.163 4.91982 100.187 4.9243 100.212 4.93124C100.244 4.9399 100.277 4.95247 100.31 4.97053C100.443 5.11499 100.432 5.3379 100.423 5.5114C100.421 5.55113 100.419 5.58825 100.419 5.62133C100.419 5.73979 100.419 5.85811 100.474 5.97642H100.964V5.91719C100.855 6.03565 100.855 5.91719 100.801 5.73979ZM100.31 4.55635C100.201 4.67467 100.037 4.67467 99.9285 4.61544H99.3288V3.78709H100.092C100.201 3.78709 100.31 3.84618 100.365 4.02372C100.474 4.2605 100.474 4.4379 100.31 4.55635Z" fill="#3B3D46"/>
<path fill-rule="evenodd" clip-rule="evenodd" d="M100.964 2.84028C101.291 3.01783 101.564 3.31369 101.727 3.66863C101.891 4.02372 102 4.37881 102 4.79298C102 4.91159 101.988 5.03669 101.965 5.16411C101.921 5.41808 101.836 5.68085 101.727 5.91719C101.564 6.27228 101.291 6.56814 100.964 6.74569C100.637 6.92309 100.31 7.04155 99.9282 7.04155C99.6013 7.04155 99.2196 6.92309 98.8925 6.74569C98.5653 6.56814 98.2927 6.27228 98.1293 5.91719C97.9659 5.56225 97.8567 5.20716 97.8567 4.79298C97.8567 4.4379 97.9659 4.02372 98.1293 3.66863C98.2927 3.31369 98.5653 3.01783 98.8925 2.84028C99.0857 2.7354 99.279 2.65118 99.4837 2.59975C99.6253 2.56421 99.7722 2.54442 99.9282 2.54442C100.255 2.54442 100.637 2.66274 100.964 2.84028ZM100.801 6.50891C101.073 6.33137 101.291 6.09474 101.455 5.79888C101.618 5.50302 101.673 5.14793 101.673 4.85207C101.673 4.55621 101.618 4.20127 101.455 3.90541C101.291 3.60955 101.073 3.37277 100.801 3.19537C100.528 3.07691 100.255 2.9586 99.9282 2.9586C99.6556 2.9586 99.3288 3.01783 99.0562 3.19537C98.9329 3.27555 98.8209 3.36786 98.7197 3.47231C98.5973 3.599 98.4913 3.74332 98.4019 3.90541C98.2927 4.20127 98.1839 4.55621 98.1839 4.85207C98.1839 5.14793 98.2384 5.50302 98.4019 5.79888C98.5653 6.09474 98.7836 6.33137 99.0562 6.50891C99.3288 6.62723 99.6013 6.74569 99.9282 6.74569C100.201 6.74569 100.528 6.68646 100.801 6.50891Z" fill="#3B3D46"/>
</svg>
