<?xml version="1.0" standalone="no"?>
<!DOCTYPE svg PUBLIC "-//W3C//DTD SVG 20010904//EN"
 "http://www.w3.org/TR/2001/REC-SVG-20010904/DTD/svg10.dtd">
<svg version="1.0" xmlns="http://www.w3.org/2000/svg"
 width="150.000000pt" height="150.000000pt" viewBox="0 0 150.000000 150.000000"
 preserveAspectRatio="xMidYMid meet">
<metadata>
Created by potrace 1.11, written by Peter Selinger 2001-2013
</metadata>
<g transform="translate(0.000000,150.000000) scale(0.100000,-0.100000)"
fill="#000000" stroke="none">
<path d="M626 1483 c-301 -51 -544 -286 -606 -588 -7 -33 -12 -103 -12 -155 1
-301 187 -567 479 -687 29 -12 53 -20 53 -18 0 3 12 0 26 -5 54 -21 169 -29
262 -18 83 9 92 11 170 37 178 60 352 221 436 403 48 105 71 284 52 413 -20
136 -99 294 -201 400 -172 178 -416 259 -659 218z m304 -106 c231 -77 391
-242 451 -467 21 -80 22 -218 3 -303 -16 -68 -58 -165 -97 -222 l-25 -36 -22
48 c-33 69 -124 155 -207 194 -37 18 -70 34 -72 35 -2 2 13 20 33 40 20 20 48
62 64 93 23 48 27 68 27 141 0 73 -4 93 -28 142 -75 152 -234 226 -399 183
-34 -8 -65 -19 -68 -23 -3 -5 -21 -18 -41 -30 -42 -25 -102 -107 -123 -169 -9
-27 -14 -70 -12 -117 3 -87 36 -164 93 -220 20 -19 35 -37 32 -39 -2 -2 -34
-18 -71 -36 -88 -42 -170 -117 -204 -187 l-27 -55 -19 28 c-30 45 -69 123 -90
183 -29 79 -33 262 -9 350 49 182 166 329 331 416 52 28 88 41 170 63 51 13
257 5 310 -12z m-79 -255 c160 -72 192 -286 61 -404 -195 -176 -491 45 -383
286 54 122 198 174 322 118z m42 -578 c117 -28 213 -95 259 -181 41 -79 35
-100 -47 -155 -186 -125 -432 -141 -637 -43 -84 40 -148 92 -148 118 0 37 48
123 90 161 49 44 124 82 198 101 70 17 207 17 285 -1z"/>
</g>
</svg>
