<?xml version="1.0" encoding="utf-8"?>
<!-- Generator: Adobe Illustrator 15.0.0, SVG Export Plug-In . SVG Version: 6.00 Build 0)  -->
<!DOCTYPE svg PUBLIC "-//W3C//DTD SVG 1.1//EN" "http://www.w3.org/Graphics/SVG/1.1/DTD/svg11.dtd">
<svg version="1.1" id="Layer_1" xmlns="http://www.w3.org/2000/svg" xmlns:xlink="http://www.w3.org/1999/xlink" x="0px" y="0px"
	 width="1600px" height="900px" viewBox="0 0 1600 900" enable-background="new 0 0 1600 900" xml:space="preserve">
<g>
	<g>
		<g>
			<path fill="#465264" d="M624.979,532.727c-6.634,0-12.03-5.396-12.03-12.03v-98.429c0-31.729,18.481-61.244,47.084-75.191l1.019-0.497
				l-0.2-1.116c-4.4-24.581-25.723-42.421-50.699-42.421h-51.425c-6.633,0-12.029-5.397-12.029-12.03v-43.734
				c0-4.038,2.01-7.785,5.375-10.023l0.155-0.103l24.752-27.259c7.995-8.802,12.397-20.2,12.397-32.094v-61.753
				c0-29.087-23.665-52.751-52.753-52.751h-36.021c-29.087,0-52.751,23.664-52.751,52.751v61.755
				c0,11.892,4.403,23.29,12.397,32.094l24.751,27.257l0.155,0.103c3.368,2.239,5.378,5.987,5.378,10.025v43.734
				c0,6.634-5.396,12.03-12.029,12.03h-51.425c-28.409,0-51.521,23.112-51.521,51.521v75.361h198.482
				c6.633,0,12.03,5.397,12.03,12.03c0,6.633-5.397,12.029-12.03,12.029H363.53c-6.633,0-12.03-5.396-12.03-12.029v-87.392
				c0-41.675,33.906-75.58,75.581-75.58h39.395v-26.447l-24.035-26.471c-12.023-13.238-18.645-30.38-18.645-48.269v-61.753
				c0-42.354,34.457-76.812,76.811-76.812h36.018c42.354,0,76.813,34.458,76.813,76.812v61.753c0,17.886-6.621,35.029-18.644,48.269
				l-24.034,26.469v26.449h39.396c35.162,0,66.192,24.921,73.784,59.257l0.297,1.344l1.364-0.181
				c3.726-0.492,7.411-0.742,10.952-0.742h45.888v-31.89l-27.463-30.244c-13.287-14.637-20.604-33.581-20.604-53.343v-69.554
				c0-46.864,38.127-84.99,84.992-84.99c6.633,0,12.029,5.396,12.029,12.03c0,6.633-5.396,12.03-12.029,12.03
				c-33.598,0-60.932,27.333-60.932,60.93v69.552c0,13.771,5.099,26.971,14.358,37.168l28.016,30.854l0.166,0.107
				c3.463,2.228,5.53,6.013,5.53,10.125v49.258c0,6.633-5.396,12.029-12.029,12.029h-57.919c-5.963,0-11.866,0.889-17.544,2.642
				l-0.103,0.032l-0.097,0.045c-0.864,0.409-1.75,0.71-2.634,0.896l-0.109,0.023l-0.104,0.039
				c-23.299,8.615-38.953,31.068-38.953,55.871v86.399h325.283v-86.399c0-32.833-26.712-59.545-59.545-59.545h-57.918
				c-6.634,0-12.03-5.396-12.03-12.029v-49.258c0-4.112,2.067-7.897,5.531-10.125l0.166-0.107l28.015-30.854
				c9.258-10.196,14.355-23.396,14.355-37.167v-69.554c0-33.597-27.334-60.93-60.932-60.93c-6.633,0-12.029-5.397-12.029-12.03
				c0-6.634,5.396-12.03,12.029-12.03c46.865,0,84.992,38.126,84.992,84.99v69.555c0,19.765-7.317,38.709-20.604,53.343
				l-27.467,30.247v31.888h45.889c3.796,0,7.706,0.278,11.62,0.826l1.375,0.193l0.298-1.356
				c7.561-34.386,38.601-59.344,73.807-59.344h39.395v-26.445l-24.037-26.473c-12.021-13.241-18.643-30.383-18.643-48.269v-61.753
				c0-42.354,34.457-76.812,76.811-76.812h36.021c42.354,0,76.813,34.458,76.813,76.812v61.753c0,17.886-6.621,35.029-18.644,48.269
				l-24.034,26.469v26.449h39.395c20.155,0,39.126,7.871,53.417,22.162c14.292,14.291,22.162,33.261,22.161,53.416v87.392
				c0,6.633-5.396,12.029-12.029,12.029h-208.186c-6.633,0-12.029-5.396-12.029-12.029c0-6.634,5.396-12.03,12.029-12.03h196.155
				v-75.361c0-28.409-23.112-51.521-51.521-51.521h-51.425c-6.633,0-12.029-5.397-12.029-12.03v-43.734
				c0-4.038,2.01-7.785,5.377-10.023l0.155-0.103l24.75-27.259c7.995-8.802,12.397-20.2,12.397-32.094v-61.753
				c0-29.087-23.665-52.751-52.753-52.751h-36.021c-29.087,0-52.751,23.664-52.751,52.751v61.753
				c0,11.896,4.402,23.293,12.396,32.094l24.749,27.255l0.155,0.103c3.369,2.24,5.381,5.989,5.381,10.027v43.734
				c0,6.633-5.396,12.03-12.03,12.03h-51.425c-25.148,0-46.496,17.983-50.761,42.76l-0.189,1.1l0.999,0.498
				c28.655,14.276,46.456,42.964,46.456,74.867v98.429c0,6.634-5.396,12.03-12.03,12.03H624.979z"/>
			<path fill="#465264" d="M1099.392,40.735c41.527,0,75.313,33.785,75.313,75.312v61.753c0,17.513-6.482,34.297-18.254,47.261
				l-23.645,26.04l-0.779,0.858v1.159v24.369v3h3h37.895c19.755,0,38.349,7.715,52.356,21.723
				c14.009,14.008,21.723,32.602,21.722,52.355v87.392c0,5.806-4.724,10.529-10.529,10.529h-208.186
				c-5.806,0-10.529-4.724-10.529-10.529c0-5.806,4.724-10.53,10.529-10.53h194.655h3v-3v-73.861
				c0-29.235-23.785-53.021-53.021-53.021h-51.425c-5.806,0-10.529-4.724-10.529-10.53v-43.734c0-3.534,1.76-6.814,4.708-8.774
				l0.31-0.206l0.25-0.275l24.625-27.121c8.246-9.079,12.787-20.835,12.787-33.103v-61.753c0-29.914-24.338-54.251-54.253-54.251
				h-36.021c-29.914,0-54.251,24.337-54.251,54.251v61.753c0,12.27,4.54,24.025,12.785,33.103l24.624,27.117l0.25,0.276l0.31,0.206
				c2.95,1.961,4.712,5.243,4.712,8.778v43.734c0,5.806-4.724,10.53-10.53,10.53h-51.425c-25.881,0-47.85,18.507-52.238,44.006
				l-0.379,2.199l1.997,0.995c13.481,6.717,24.874,17.004,32.946,29.75c8.295,13.097,12.679,28.234,12.679,43.774v98.429
				c0,5.807-4.724,10.53-10.53,10.53H624.979c-5.807,0-10.53-4.724-10.53-10.53v-98.429c0-15.665,4.447-30.905,12.861-44.073
				c8.192-12.821,19.735-23.116,33.381-29.77l2.038-0.993l-0.399-2.232c-4.529-25.296-26.472-43.657-52.176-43.657h-51.425
				c-5.806,0-10.529-4.724-10.529-10.53v-43.734c0-3.534,1.759-6.814,4.706-8.774l0.31-0.206l0.25-0.275l24.627-27.121
				c8.246-9.079,12.787-20.835,12.787-33.103v-61.753c0-29.914-24.338-54.251-54.253-54.251h-36.021
				c-29.914,0-54.251,24.337-54.251,54.251v61.755c0,12.266,4.541,24.022,12.787,33.103l24.626,27.119l0.25,0.275l0.31,0.206
				c2.949,1.96,4.709,5.241,4.709,8.776v43.734c0,5.807-4.723,10.53-10.529,10.53h-51.425c-29.235,0-53.021,23.785-53.021,53.021
				v73.861v3h3h196.982c5.806,0,10.53,4.724,10.53,10.53c0,5.806-4.724,10.529-10.53,10.529H363.53
				c-5.806,0-10.53-4.724-10.53-10.529v-87.392c0-40.848,33.232-74.08,74.081-74.08h37.895h3v-3v-24.367v-1.159l-0.779-0.858
				l-23.646-26.042c-11.772-12.961-18.255-29.745-18.255-47.26v-61.753c0-41.527,33.784-75.312,75.311-75.312h36.018
				c41.527,0,75.313,33.785,75.313,75.312v61.753c0,17.513-6.483,34.297-18.254,47.261l-23.645,26.04l-0.779,0.858v1.159v24.369v3h3
				h37.896c16.942,0,33.514,5.894,46.662,16.597c12.963,10.551,22.075,25.284,25.657,41.484l0.594,2.687l2.728-0.36
				c3.661-0.484,7.279-0.729,10.755-0.729h44.388h3v-3v-29.811v-1.159l-0.779-0.858l-27.073-29.815
				c-13.036-14.36-20.215-32.946-20.215-52.335v-69.554c0-46.037,37.455-83.49,83.492-83.49c5.806,0,10.529,4.724,10.529,10.53
				s-4.724,10.53-10.529,10.53c-34.425,0-62.432,28.006-62.432,62.43v69.552c0,14.145,5.237,27.703,14.748,38.177l27.883,30.707
				l0.265,0.292l0.333,0.214c3.032,1.951,4.842,5.264,4.842,8.864v49.258c0,5.806-4.724,10.529-10.529,10.529h-57.919
				c-6.113,0-12.165,0.911-17.986,2.709l-0.205,0.063l-0.194,0.092c-0.757,0.358-1.531,0.622-2.3,0.783l-0.217,0.046l-0.208,0.077
				c-23.885,8.832-39.932,31.851-39.932,57.278v84.899v3h3h322.283h3v-3v-84.899c0-33.66-27.385-61.045-61.045-61.045h-57.918
				c-5.807,0-10.53-4.724-10.53-10.529v-49.258c0-3.6,1.811-6.913,4.843-8.863l0.332-0.214l0.266-0.293l27.882-30.708
				c9.509-10.473,14.745-24.03,14.745-38.176v-69.554c0-34.424-28.007-62.43-62.432-62.43c-5.806,0-10.529-4.724-10.529-10.53
				s4.724-10.53,10.529-10.53c46.038,0,83.492,37.454,83.492,83.49v69.555c0,19.392-7.179,37.978-20.215,52.335l-27.077,29.818
				l-0.779,0.858v1.159v29.809v3h3h44.389c3.727,0,7.566,0.273,11.412,0.812l2.75,0.386l0.596-2.712
				c3.566-16.22,12.674-30.974,25.646-41.542c13.155-10.72,29.739-16.623,46.696-16.623h37.895h3v-3V253.12v-1.159l-0.779-0.858
				l-23.647-26.044c-11.771-12.964-18.253-29.749-18.253-47.261v-61.753c0-41.527,33.784-75.312,75.311-75.312H1099.392
				 M1099.392,37.735h-36.021c-43.181,0-78.311,35.132-78.311,78.312v61.753c0,18.261,6.761,35.762,19.032,49.277l23.647,26.044
				v24.365h-37.895c-36.816,0-67.671,25.952-75.271,60.521c-3.869-0.542-7.813-0.841-11.828-0.841h-44.389v-29.809l27.077-29.818
				c13.537-14.909,20.994-34.212,20.994-54.352v-69.555c0-47.693-38.801-86.49-86.492-86.49c-7.474,0-13.529,6.056-13.529,13.53
				s6.056,13.53,13.529,13.53c32.771,0,59.432,26.659,59.432,59.43v69.554c0,13.399-4.96,26.24-13.966,36.159l-27.882,30.708
				c-3.741,2.406-6.22,6.605-6.22,11.387v49.258c0,7.474,6.056,13.529,13.53,13.529h57.918c32.005,0,58.045,26.039,58.045,58.045
				v84.899H638.51v-84.899c0-24.954,15.831-46.276,37.973-54.464c1.04-0.218,2.032-0.564,2.969-1.008
				c5.409-1.67,11.153-2.575,17.102-2.575h57.919c7.472,0,13.529-6.056,13.529-13.529v-49.258c0-4.779-2.479-8.98-6.219-11.387
				L733.9,259.345c-9.007-9.92-13.969-22.763-13.969-36.16v-69.552c0-32.77,26.658-59.43,59.432-59.43
				c7.472,0,13.529-6.056,13.529-13.53s-6.058-13.53-13.529-13.53c-47.693,0-86.492,38.799-86.492,86.49v69.554
				c0,20.137,7.457,39.439,20.994,54.352l27.073,29.815v29.811h-44.388c-3.781,0-7.497,0.272-11.148,0.755
				c-7.633-34.525-38.463-60.434-75.248-60.434h-37.896v-24.369l23.645-26.04c12.274-13.518,19.033-31.017,19.033-49.277v-61.753
				c0-43.182-35.132-78.312-78.313-78.312h-36.018c-43.181,0-78.311,35.132-78.311,78.312v61.753
				c0,18.261,6.759,35.762,19.034,49.277l23.646,26.042v24.367h-37.895c-42.503,0-77.081,34.577-77.081,77.08v87.392
				c0,7.474,6.058,13.529,13.53,13.529h210.513c7.473,0,13.53-6.056,13.53-13.529c0-7.475-6.058-13.53-13.53-13.53H377.06v-73.861
				c0-27.58,22.438-50.021,50.021-50.021h51.425c7.473,0,13.529-6.056,13.529-13.53v-43.734c0-4.705-2.402-8.851-6.048-11.274
				l-24.626-27.119c-7.743-8.527-12.008-19.566-12.008-31.086v-61.755c0-28.261,22.991-51.251,51.251-51.251h36.021
				c28.261,0,51.253,22.99,51.253,51.251v61.753c0,11.52-4.265,22.561-12.008,31.086l-24.627,27.121
				c-3.645,2.424-6.045,6.569-6.045,11.272v43.734c0,7.475,6.057,13.53,13.529,13.53h51.425c24.565,0,45.037,17.805,49.223,41.186
				c-28.349,13.823-47.927,42.933-47.927,76.539v98.429c0,7.475,6.058,13.53,13.53,13.53H974.32c7.475,0,13.53-6.056,13.53-13.53
				v-98.429c0-33.348-19.289-62.261-47.287-76.21c4.052-23.541,24.601-41.515,49.282-41.515h51.425c7.474,0,13.53-6.056,13.53-13.53
				v-43.734c0-4.707-2.403-8.852-6.051-11.276l-24.624-27.117c-7.743-8.525-12.006-19.566-12.006-31.086v-61.753
				c0-28.261,22.991-51.251,51.251-51.251h36.021c28.261,0,51.253,22.99,51.253,51.251v61.753c0,11.52-4.265,22.561-12.008,31.086
				l-24.625,27.121c-3.646,2.424-6.047,6.569-6.047,11.272v43.734c0,7.475,6.056,13.53,13.529,13.53h51.425
				c27.58,0,50.021,22.438,50.021,50.021v73.861h-194.655c-7.474,0-13.529,6.056-13.529,13.53c0,7.474,6.056,13.529,13.529,13.529
				h208.186c7.475,0,13.529-6.056,13.529-13.529v-87.392c0.002-42.501-34.576-77.078-77.078-77.078h-37.895v-24.369l23.645-26.04
				c12.274-13.518,19.033-31.017,19.033-49.277v-61.753C1177.705,72.865,1142.573,37.735,1099.392,37.735L1099.392,37.735z"/>
		</g>
	</g>
</g>
<g>
	<g>
		<g>
			<path fill="#465264" d="M732.085,860.767c-2.557,0-5.002-0.795-7.072-2.299c-3.656-2.654-5.503-7.079-4.822-11.549l11.415-74.783l-53.191-53.792
				c-3.176-3.215-4.283-7.881-2.886-12.177c1.397-4.298,5.035-7.423,9.494-8.156l74.653-12.254l34.724-67.214
				c2.072-4.016,6.167-6.51,10.687-6.51c4.519,0,8.613,2.494,10.688,6.51l34.724,67.214l74.652,12.254
				c4.461,0.733,8.098,3.858,9.491,8.155c1.397,4.3,0.289,8.965-2.892,12.177l-53.192,53.793l11.417,74.784
				c0.682,4.469-1.166,8.894-4.821,11.547c-2.067,1.505-4.511,2.3-7.068,2.3c-0.001,0-0.001,0-0.001,0
				c-1.865,0-3.733-0.443-5.401-1.282l-67.599-33.965l-67.599,33.965C735.814,860.323,733.948,860.767,732.085,860.767z
				 M805.087,800.025c1.866,0,3.734,0.442,5.402,1.28l52.192,26.222l-8.814-57.738c-0.569-3.742,0.679-7.583,3.338-10.273
				l41.063-41.534l-57.639-9.46c-3.733-0.614-7-2.988-8.737-6.351l-26.81-51.896l-26.81,51.896
				c-1.737,3.362-5.003,5.736-8.739,6.351l-57.638,9.46l41.072,41.534c2.662,2.689,3.91,6.53,3.338,10.273l-8.812,57.738
				l52.193-26.222C801.354,800.467,803.221,800.025,805.087,800.025z"/>
			<path fill="#465264" d="M805.085,613.533c3.955,0,7.539,2.184,9.355,5.698l34.377,66.544l0.691,1.339l1.487,0.244l73.909,12.132
				c3.905,0.643,7.088,3.377,8.308,7.141c1.224,3.762,0.254,7.846-2.532,10.658l-52.661,53.256l-1.061,1.072l0.228,1.49
				l11.303,74.039c0.598,3.911-1.02,7.784-4.223,10.108c-1.808,1.316-3.945,2.012-6.185,2.012c-1.633,0-3.268-0.388-4.729-1.122
				l-66.925-33.627l-1.347-0.677l-1.347,0.677l-66.926,33.627c-1.46,0.734-3.094,1.122-4.724,1.122
				c-2.238,0-4.379-0.696-6.192-2.014c-3.199-2.322-4.816-6.195-4.219-10.106l11.301-74.039l0.227-1.49l-1.06-1.072l-52.661-53.255
				c-2.781-2.814-3.749-6.899-2.527-10.66c1.223-3.762,4.407-6.497,8.31-7.14l73.909-12.132l1.488-0.244l0.692-1.339l34.378-66.545
				C797.545,615.716,801.129,613.533,805.085,613.533 M745.573,830.17l5.188-2.606l49.599-24.919c1.459-0.733,3.094-1.12,4.727-1.12
				c1.634,0,3.269,0.387,4.729,1.12l49.599,24.919l5.188,2.606l-0.876-5.74l-8.376-54.866c-0.499-3.276,0.594-6.639,2.922-8.994
				l39.022-39.47l4.082-4.13l-5.73-0.939l-54.772-8.989c-3.269-0.538-6.128-2.616-7.649-5.56l-25.477-49.315l-2.665-5.159
				l-2.665,5.159l-25.478,49.315c-1.52,2.943-4.379,5.021-7.648,5.56l-54.773,8.989l-5.73,0.94l4.083,4.129l39.031,39.471
				c2.33,2.354,3.421,5.715,2.921,8.992l-8.374,54.868L745.573,830.17 M805.085,610.533c-5.061,0-9.698,2.823-12.02,7.321
				l-34.378,66.544l-73.909,12.132c-4.994,0.821-9.112,4.358-10.677,9.173c-1.564,4.813-0.312,10.095,3.246,13.695l52.661,53.256
				l-11.301,74.039c-0.763,5.003,1.327,10.015,5.423,12.987c2.355,1.712,5.146,2.586,7.954,2.586c2.07,0,4.151-0.477,6.071-1.441
				l66.926-33.627l66.925,33.627c1.921,0.965,4.003,1.441,6.075,1.441c2.808,0,5.598-0.873,7.95-2.586
				c4.096-2.973,6.187-7.984,5.423-12.987l-11.303-74.039l52.661-53.256c3.566-3.601,4.817-8.883,3.253-13.695
				c-1.561-4.813-5.679-8.352-10.675-9.173l-73.909-12.132l-34.377-66.544C814.783,613.36,810.145,610.533,805.085,610.533
				L805.085,610.533z M749.415,824.883l8.374-54.868c0.646-4.229-0.747-8.516-3.755-11.555l-39.03-39.47l54.773-8.989
				c4.221-0.694,7.866-3.344,9.828-7.143l25.478-49.315l25.477,49.315c1.963,3.799,5.607,6.448,9.827,7.143l54.774,8.989
				l-39.022,39.47c-3.008,3.043-4.397,7.328-3.754,11.555l8.376,54.868l-49.599-24.919c-1.912-0.96-3.993-1.44-6.075-1.44
				c-2.081,0-4.163,0.48-6.073,1.44L749.415,824.883L749.415,824.883z"/>
		</g>
	</g>
</g>
<g>
	<g>
		<g>
			<path fill="#324054" d="M1174.249,761.281c-1.862,0-3.729-0.443-5.397-1.281l-67.6-33.966l-67.599,33.965c-1.665,0.839-3.53,1.281-5.395,1.281
				c-2.558,0-5.005-0.795-7.075-2.299c-3.656-2.653-5.504-7.078-4.822-11.547l11.417-74.786l-53.193-53.792
				c-3.178-3.213-4.283-7.878-2.886-12.177c1.396-4.298,5.034-7.423,9.493-8.156l74.654-12.254l34.724-67.214
				c2.073-4.016,6.168-6.51,10.688-6.51c4.518,0,8.612,2.494,10.687,6.51l34.727,67.214l74.652,12.254
				c4.456,0.732,8.092,3.858,9.488,8.156c1.397,4.299,0.29,8.965-2.892,12.176l-53.193,53.793l11.417,74.786
				c0.681,4.469-1.166,8.894-4.821,11.547C1179.255,760.487,1176.81,761.281,1174.249,761.281z M1101.258,700.539
				c1.863,0,3.731,0.443,5.402,1.282l52.192,26.222l-8.815-57.74c-0.568-3.742,0.68-7.584,3.339-10.273l41.064-41.532l-57.638-9.461
				c-3.733-0.613-7-2.987-8.737-6.35l-26.812-51.896l-26.809,51.896c-1.736,3.363-5.003,5.736-8.738,6.35l-57.639,9.461
				l41.07,41.532c2.66,2.688,3.908,6.529,3.338,10.274l-8.813,57.739l52.193-26.222
				C1097.525,700.983,1099.393,700.539,1101.258,700.539z"/>
			<path fill="#324054" d="M1101.258,514.046c3.954,0,7.538,2.184,9.354,5.698l34.38,66.544l0.691,1.339l1.488,0.244l73.907,12.132
				c3.9,0.642,7.083,3.378,8.306,7.141c1.224,3.763,0.254,7.846-2.532,10.658l-52.662,53.256l-1.061,1.072l0.228,1.49l11.303,74.04
				c0.597,3.912-1.021,7.785-4.223,10.11c-1.807,1.315-3.947,2.011-6.188,2.011c-1.63,0-3.264-0.388-4.725-1.122l-66.926-33.627
				l-1.347-0.677l-1.347,0.677l-66.927,33.628c-1.457,0.733-3.089,1.12-4.72,1.12c-2.239,0-4.381-0.695-6.195-2.013
				c-3.199-2.322-4.816-6.195-4.219-10.106l11.303-74.041l0.228-1.49l-1.061-1.072l-52.663-53.256
				c-2.781-2.813-3.749-6.896-2.525-10.659c1.222-3.762,4.406-6.497,8.31-7.14l73.911-12.132l1.487-0.244l0.691-1.339l34.378-66.545
				C1093.718,516.23,1097.302,514.046,1101.258,514.046 M1041.742,730.687l5.188-2.606l49.599-24.919
				c1.461-0.734,3.097-1.122,4.729-1.122c1.631,0,3.266,0.389,4.729,1.122l49.599,24.919l5.188,2.607l-0.876-5.741l-8.377-54.868
				c-0.498-3.277,0.595-6.64,2.923-8.994l39.021-39.468l4.083-4.129l-5.729-0.94l-54.772-8.99c-3.269-0.537-6.127-2.615-7.648-5.559
				l-25.479-49.315l-2.665-5.159l-2.665,5.159l-25.476,49.315c-1.521,2.943-4.38,5.021-7.649,5.559l-54.773,8.99l-5.73,0.94
				l4.084,4.129l39.029,39.469c2.327,2.353,3.42,5.714,2.921,8.991l-8.376,54.87L1041.742,730.687 M1101.258,511.046
				c-5.063,0-9.698,2.823-12.021,7.321l-34.377,66.544l-73.911,12.132c-4.994,0.821-9.112,4.358-10.677,9.173
				c-1.564,4.813-0.313,10.097,3.246,13.695l52.663,53.256l-11.303,74.041c-0.764,5.003,1.327,10.015,5.423,12.987
				c2.356,1.711,5.149,2.585,7.957,2.585c2.071,0,4.149-0.475,6.068-1.44l66.925-33.627l66.926,33.627
				c1.92,0.965,4.001,1.441,6.071,1.441c2.81,0,5.601-0.872,7.954-2.586c4.096-2.973,6.186-7.984,5.423-12.987l-11.303-74.041
				l52.662-53.256c3.565-3.599,4.817-8.883,3.253-13.695c-1.564-4.813-5.68-8.352-10.672-9.173l-73.909-12.132l-34.38-66.544
				C1110.955,513.872,1106.318,511.046,1101.258,511.046L1101.258,511.046z M1045.584,725.4l8.376-54.87
				c0.644-4.229-0.747-8.516-3.755-11.555l-39.028-39.468l54.773-8.99c4.223-0.693,7.866-3.343,9.828-7.142l25.476-49.315
				l25.479,49.315c1.963,3.799,5.607,6.448,9.827,7.142l54.772,8.99l-39.022,39.468c-3.007,3.041-4.397,7.328-3.755,11.555
				l8.377,54.87l-49.599-24.919c-1.913-0.96-3.992-1.441-6.075-1.441s-4.164,0.481-6.075,1.441L1045.584,725.4L1045.584,725.4z"/>
		</g>
	</g>
</g>
<g>
	<g>
		<g>
			<path fill="#324054" d="M435.917,761.282c-2.558,0-5.004-0.795-7.075-2.299c-3.655-2.653-5.503-7.078-4.821-11.548l11.416-74.785l-53.193-53.792
				c-3.177-3.214-4.283-7.88-2.886-12.177c1.397-4.298,5.035-7.423,9.494-8.156l74.653-12.254l34.72-67.216
				c2.075-4.016,6.171-6.51,10.689-6.51c4.518,0,8.614,2.494,10.689,6.51l34.724,67.214l74.653,12.254
				c4.461,0.733,8.099,3.859,9.493,8.157c1.397,4.297,0.288,8.963-2.893,12.178l-53.191,53.792l11.415,74.786
				c0.682,4.469-1.166,8.894-4.821,11.547c-2.066,1.504-4.511,2.299-7.073,2.299c-1.864,0-3.731-0.443-5.397-1.281l-67.598-33.966
				L441.314,760C439.647,760.839,437.781,761.282,435.917,761.282z M508.914,700.539c1.868,0,3.735,0.443,5.401,1.281l52.192,26.223
				l-8.812-57.74c-0.571-3.741,0.677-7.582,3.338-10.273l41.072-41.532l-57.639-9.461c-3.735-0.613-7.002-2.987-8.741-6.35
				l-26.808-51.896l-26.809,51.896c-1.737,3.362-5.005,5.736-8.74,6.35l-57.639,9.461l41.064,41.532
				c2.662,2.689,3.91,6.53,3.339,10.273l-8.814,57.74l52.193-26.222C505.181,700.983,507.05,700.539,508.914,700.539z"/>
			<path fill="#324054" d="M508.912,514.046c3.955,0,7.54,2.184,9.356,5.698l34.378,66.544l0.692,1.339l1.488,0.244l73.908,12.132
				c3.905,0.643,7.089,3.379,8.311,7.143c1.222,3.76,0.251,7.844-2.534,10.658l-52.66,53.256l-1.06,1.072l0.228,1.489l11.301,74.041
				c0.597,3.912-1.02,7.785-4.223,10.11c-1.806,1.314-3.945,2.01-6.188,2.01c-1.631,0-3.265-0.388-4.725-1.122l-66.924-33.627
				l-1.347-0.677l-1.347,0.677l-66.927,33.628c-1.458,0.733-3.091,1.121-4.722,1.121c-2.239,0-4.38-0.695-6.194-2.013
				c-3.199-2.322-4.816-6.195-4.219-10.106l11.302-74.041l0.228-1.49l-1.06-1.072l-52.663-53.256
				c-2.781-2.813-3.749-6.897-2.526-10.659s4.407-6.497,8.31-7.14l73.909-12.132l1.488-0.244l0.692-1.339l34.374-66.546
				C501.372,516.23,504.957,514.046,508.912,514.046 M449.398,730.688l5.188-2.607l49.599-24.919
				c1.461-0.734,3.097-1.122,4.729-1.122c1.635,0,3.269,0.388,4.729,1.122l49.597,24.919l5.188,2.607l-0.876-5.74l-8.374-54.871
				c-0.5-3.274,0.592-6.637,2.922-8.992l39.03-39.468l4.083-4.129l-5.731-0.94l-54.773-8.99c-3.27-0.537-6.129-2.615-7.651-5.559
				l-25.476-49.315l-2.666-5.159l-2.666,5.159l-25.476,49.315c-1.521,2.943-4.381,5.021-7.65,5.559l-54.774,8.99l-5.73,0.94
				l4.083,4.129l39.024,39.469c2.33,2.354,3.421,5.715,2.921,8.991l-8.376,54.87L449.398,730.688 M508.912,511.046
				c-5.063,0-9.697,2.823-12.021,7.321l-34.374,66.546l-73.909,12.132c-4.994,0.821-9.112,4.358-10.677,9.173
				c-1.564,4.813-0.312,10.097,3.246,13.695l52.663,53.256l-11.302,74.041c-0.763,5.003,1.327,10.015,5.423,12.987
				c2.356,1.711,5.148,2.585,7.956,2.585c2.071,0,4.151-0.476,6.07-1.441l66.925-33.627l66.924,33.627
				c1.92,0.966,4.001,1.441,6.071,1.441c2.808,0,5.601-0.871,7.954-2.585c4.096-2.973,6.186-7.984,5.423-12.987l-11.301-74.041
				l52.66-53.256c3.563-3.601,4.818-8.883,3.254-13.695c-1.563-4.815-5.683-8.354-10.677-9.175l-73.909-12.132l-34.378-66.544
				C518.61,513.872,513.974,511.046,508.912,511.046L508.912,511.046z M453.24,725.4l8.376-54.87
				c0.646-4.229-0.747-8.516-3.755-11.555l-39.023-39.468l54.774-8.99c4.22-0.693,7.866-3.343,9.829-7.142l25.477-49.315
				l25.476,49.315c1.964,3.799,5.609,6.448,9.83,7.142l54.773,8.99l-39.03,39.468c-3.008,3.041-4.4,7.328-3.755,11.555l8.374,54.87
				l-49.597-24.919c-1.911-0.962-3.992-1.441-6.075-1.441s-4.164,0.481-6.075,1.441L453.24,725.4L453.24,725.4z"/>
		</g>
	</g>
</g>
</svg>
