<?xml version="1.0" encoding="utf-8"?>
<!-- Generator: Adobe Illustrator 15.0.0, SVG Export Plug-In . SVG Version: 6.00 Build 0)  -->
<!DOCTYPE svg PUBLIC "-//W3C//DTD SVG 1.1//EN" "http://www.w3.org/Graphics/SVG/1.1/DTD/svg11.dtd">
<svg version="1.1" id="Capa_1" xmlns="http://www.w3.org/2000/svg" xmlns:xlink="http://www.w3.org/1999/xlink" x="0px" y="0px"
	 width="1600px" height="900px" viewBox="0 0 1600 900" enable-background="new 0 0 1600 900" xml:space="preserve">
<rect fill="#465264" x="786.927" y="694.072" width="26.143" height="26.143"/>
<rect fill="#465264" x="786.927" y="629.786" width="26.143" height="26.143"/>
<rect fill="#465264" x="1007.241" y="327.617" transform="matrix(0.4472 0.8944 -0.8944 0.4472 868.0715 -724.6697)" width="26.14" height="24.679"/>
<path fill="#465264" d="M1238.781,226.503c-10.917-18.903-31.271-30.646-53.119-30.646h-0.006c-10.693,0-21.268,2.842-30.58,8.22
	c-22.902,13.225-34.561,39.652-29.009,65.763l0.482,2.27l-2.075,1.038l-11.198,5.6l11.694,23.385l11.359-5.679l2.075-1.037
	l1.525,1.747c11.81,13.515,28.519,21.267,45.845,21.267c10.691,0,21.266-2.843,30.58-8.221
	C1245.611,293.317,1255.672,255.767,1238.781,226.503z M1203.282,287.568c-5.423,3.132-11.313,4.72-17.509,4.72
	c-12.545,0-24.226-6.735-30.484-17.576c-9.687-16.777-3.918-38.307,12.858-47.993c5.423-3.131,11.314-4.719,17.511-4.719
	c12.543,0,24.223,6.734,30.48,17.573C1225.826,256.348,1220.058,277.879,1203.282,287.568z"/>
<rect fill="#465264" x="1062.11" y="300.028" transform="matrix(0.4472 0.8944 -0.8944 0.4472 873.7217 -788.983)" width="26.139" height="24.711"/>
<rect fill="#465264" x="952.333" y="354.918" transform="matrix(0.4472 0.8944 -0.8944 0.4472 862.1876 -660.4623)" width="26.142" height="24.712"/>
<rect fill="#465264" x="566.561" y="327.497" transform="matrix(0.4473 -0.8944 0.8944 0.4473 16.4388 706.2713)" width="26.142" height="24.678"/>
<rect fill="#465264" x="511.667" y="300.041" transform="matrix(0.4472 -0.8944 0.8944 0.4472 10.6546 642.0318)" width="26.14" height="24.711"/>
<rect fill="#465264" x="621.485" y="354.941" transform="matrix(0.4472 -0.8944 0.8944 0.4472 22.2434 770.5848)" width="26.14" height="24.712"/>
<path fill="#465264" d="M461.605,295.416l2.074,1.038l11.354,5.678l11.693-23.386l-11.201-5.6l-2.075-1.038l0.482-2.27
	c5.552-26.108-6.106-52.536-29.009-65.763c-9.316-5.376-19.886-8.218-30.567-8.218h-0.012c-21.856,0-42.212,11.743-53.125,30.646
	c-16.892,29.263-6.831,66.813,22.428,83.704c9.315,5.378,19.89,8.221,30.58,8.221c17.327,0,34.038-7.751,45.85-21.267
	L461.605,295.416z M444.713,274.709c-6.259,10.841-17.94,17.576-30.486,17.576c-6.199,0-12.09-1.588-17.51-4.72
	c-16.774-9.686-22.544-31.214-12.862-47.989c6.264-10.843,17.947-17.578,30.492-17.578c6.2,0,12.089,1.588,17.506,4.72
	C448.629,236.405,454.399,257.933,444.713,274.709z"/>
<path fill="#465264" d="M830.64,782.649c-4.733-2.733-9.888-4.832-15.319-6.238l-2.248-0.582v-2.322v-15.148h-26.144v15.158v2.323l-2.249,0.581
	c-16.072,4.156-29.477,14.333-37.747,28.655c-16.891,29.263-6.83,66.812,22.428,83.704c9.316,5.376,19.891,8.218,30.581,8.218
	c21.855,0,42.212-11.744,53.125-30.648C869.959,837.089,859.897,799.542,830.64,782.649z M830.429,853.28
	c-6.262,10.842-17.943,17.577-30.486,17.577c-6.2,0-12.092-1.588-17.511-4.72c-16.775-9.688-22.543-31.216-12.859-47.99
	c6.262-10.841,17.945-17.575,30.49-17.575c6.2,0,12.09,1.588,17.505,4.721C834.342,814.974,840.112,836.501,830.429,853.28z"/>
<path fill="#465264" d="M1153.57,581.572c-13.384,0-26.309,2.829-38.417,8.409c-11.61,5.351-21.923,12.958-30.65,22.609l-1.699,1.879l-2.137-1.359
	L914.318,507.251l-2.234-1.422l1.134-2.394c8.196-17.311,12.353-35.289,12.353-53.435c0-13.399-2.478-26.957-7.574-41.45
	l-0.878-2.496l2.367-1.183l7.887-3.942l-11.692-23.386l-7.461,3.733l-2.365,1.183l-1.471-2.197
	c-20.001-29.881-52.325-49.65-88.684-54.237l-2.624-0.331v-2.646V191.238v-2.536l2.501-0.422
	c21.537-3.633,41.243-14.776,55.488-31.375c14.424-16.808,22.367-38.286,22.367-60.476C893.431,44.912,851.52,3,800.004,3
	s-93.429,41.912-93.429,93.428c0,22.19,7.943,43.667,22.367,60.475c14.245,16.599,33.951,27.742,55.488,31.376l2.501,0.422v2.536
	v131.813v2.646l-2.625,0.331c-36.358,4.585-68.682,24.354-88.683,54.237l-1.471,2.197l-2.365-1.183l-7.462-3.733l-11.692,23.386
	l7.888,3.942l2.367,1.183l-0.878,2.497c-5.1,14.488-7.578,28.046-7.578,41.449c0,18.137,4.156,36.115,12.354,53.438l1.132,2.393
	l-2.233,1.422L519.336,613.114l-2.137,1.359l-1.699-1.879c-8.728-9.652-19.04-17.26-30.651-22.611
	c-12.108-5.58-25.033-8.409-38.417-8.409c-51.517,0-93.429,41.912-93.429,93.429s41.912,93.429,93.429,93.429
	s93.429-41.912,93.429-93.429c0-12.582-2.466-24.806-7.33-36.33l-0.986-2.336l2.14-1.361L699.899,529.2l2.229-1.419l1.689,2.033
	c20.353,24.498,48.938,40.182,80.488,44.161l2.625,0.331v2.646v14.69h26.144v-14.69v-2.646l2.624-0.331
	c31.546-3.98,60.131-19.664,80.488-44.161l1.689-2.032l2.229,1.418l166.214,105.774l2.14,1.361l-0.986,2.337
	c-4.863,11.521-7.329,23.745-7.329,36.329c0,51.517,41.912,93.429,93.429,93.429s93.428-41.912,93.428-93.429
	C1246.998,623.485,1205.087,581.572,1153.57,581.572z M446.428,742.285c-37.102,0-67.286-30.184-67.286-67.285
	s30.185-67.285,67.286-67.285s67.286,30.184,67.286,67.285S483.53,742.285,446.428,742.285z M732.714,96.43
	c0-37.101,30.185-67.285,67.286-67.285s67.285,30.184,67.285,67.285c0,37.102-30.184,67.286-67.285,67.286
	S732.714,133.531,732.714,96.43z M800,549.429c-54.825,0-99.429-44.603-99.429-99.428s44.604-99.429,99.429-99.429
	c54.824,0,99.428,44.604,99.428,99.429S854.824,549.429,800,549.429z M1153.57,742.285c-37.102,0-67.286-30.184-67.286-67.285
	s30.185-67.285,67.286-67.285s67.285,30.184,67.285,67.285S1190.672,742.285,1153.57,742.285z"/>
</svg>
