<?xml version="1.0" encoding="utf-8"?>
<!-- Generator: Adobe Illustrator 15.0.0, SVG Export Plug-In . SVG Version: 6.00 Build 0)  -->
<!DOCTYPE svg PUBLIC "-//W3C//DTD SVG 1.1//EN" "http://www.w3.org/Graphics/SVG/1.1/DTD/svg11.dtd">
<svg version="1.1" id="Layer_1" xmlns="http://www.w3.org/2000/svg" xmlns:xlink="http://www.w3.org/1999/xlink" x="0px" y="0px"
	 width="704px" height="704px" viewBox="0 0 704 704" enable-background="new 0 0 704 704" xml:space="preserve">
<path fill="#465264" d="M685.618,534.339c-0.039-0.042-4.646-5.024-11.998-9.375c-7.698-4.552-16.571-7.987-16.66-8.021l-80.328-29.211l0.286-3.78
	c0.175-2.312-0.638-4.596-2.229-6.266l-25.938-27.253v-47.671l1.821-1.5c2.896-2.386,5.247-4.436,7.396-6.449
	c29.976-28.097,47.168-67.765,47.168-108.835v-35.685l0.457-0.994c9.05-19.692,13.639-40.55,13.639-61.996V46.345
	c0-4.513-3.671-8.185-8.184-8.185H413.701c-66.693,0-120.952,54.259-120.952,120.953v28.193c0,21.446,4.589,42.304,13.639,61.996
	l0.457,0.994v30.856c0,46.24,19.909,89.665,54.621,119.141l1.764,1.498v48.645l-25.936,27.249c-1.592,1.673-2.405,3.957-2.229,6.267
	l0.289,3.782l-84.681,30.791c-5.352,1.947-10.438,4.613-15.119,7.924l-2.445,1.729l-24.987-12.494l9.812-4.271
	c36.352-15.822,47.568-37.601,48.027-38.521c1.146-2.292,1.146-5.026,0-7.317c-9.994-19.987-11.165-55.432-12.105-83.912
	c-0.308-9.31-0.598-18.05-1.146-25.781c-4.307-60.588-50.236-106.277-106.836-106.277c-56.602,0-102.531,45.689-106.836,106.277
	c-0.554,7.788-0.842,16.526-1.147,25.779c-0.94,28.477-2.11,63.916-12.105,83.91c-1.146,2.292-1.146,5.028,0,7.319
	c0.458,0.918,11.654,22.652,48.078,38.493l9.818,4.27l-44.957,22.477c-17.208,8.611-27.898,25.91-27.898,45.146v97.399
	c0,4.513,3.671,8.185,8.184,8.185s8.184-3.672,8.184-8.185v-97.399c0-13.001,7.224-24.689,18.853-30.505l47.195-23.595l17.867,16.98
	c9.429,8.96,21.776,13.895,34.769,13.895c12.991,0,25.339-4.935,34.769-13.896l17.866-16.979l22.42,11.214l-2.915,4.662
	c-6.439,10.302-9.843,22.113-9.843,34.158v101.469c0,4.513,3.672,8.185,8.185,8.185s8.184-3.672,8.184-8.185V579.208
	c0-20.193,12.751-38.397,31.729-45.299l89.212-32.44l37.78,56.672c3.717,5.575,9.673,9.151,16.343,9.812
	c0.729,0.072,1.476,0.109,2.226,0.109c5.932,0,11.517-2.317,15.726-6.526l30.255-30.253v149.396c0,4.513,3.672,8.185,8.185,8.185
	s8.184-3.672,8.184-8.185V531.282l30.255,30.254c4.208,4.209,9.792,6.527,15.726,6.527c0.748,0,1.497-0.036,2.227-0.108
	c6.668-0.661,12.625-4.237,16.342-9.813l37.782-56.669l89.21,32.438c18.979,6.904,31.729,25.109,31.729,45.301v101.47
	c0,4.513,3.671,8.184,8.184,8.184s8.185-3.671,8.185-8.184V579.211c0-16.721-6.43-32.62-18.104-44.771L685.618,534.339z
	 M95.402,502.1l-6.693-2.407c-25.918-9.325-39-21.987-44.491-28.705l-1.834-2.244l1.036-2.707c3.17-8.284,5.535-18.25,7.232-30.469
	l2.519-18.138l7.049,16.9c6.864,16.458,18.285,30.548,33.027,40.745l2.156,1.491V502.1z M169.368,534.292
	c-6.37,6.055-14.714,9.389-23.493,9.389c-8.781,0-17.125-3.335-23.496-9.392l-15.021-14.271l1.793-3.358
	c1.712-3.205,2.617-6.842,2.617-10.518v-20.855l6.492,2.029c8.909,2.785,18.2,4.197,27.615,4.197c9.362,0,18.656-1.41,27.623-4.189
	l6.481-2.01l-0.003,20.827c0,3.677,0.905,7.316,2.618,10.522l1.793,3.358L169.368,534.292z M145.879,475.146
	c-42.124,0-76.395-34.27-76.395-76.394c0-4.513-3.671-8.184-8.184-8.184c-0.396,0-0.837,0.041-1.351,0.126l-6.02,0.992l0.324-9.488
	c0.28-8.634,0.57-17.569,1.108-25.156c1.769-24.864,11.733-47.805,28.056-64.598c16.593-17.071,38.773-26.473,62.457-26.473
	c23.682,0,45.863,9.401,62.457,26.473c16.324,16.793,26.287,39.735,28.055,64.598c0.531,7.492,0.814,16.072,1.113,25.156
	l0.683,20.328l-9.795-15.09c-13.865-21.36-34.877-36.684-62.454-45.544c-22.295-7.162-41.802-7.719-47.25-7.719
	c-0.702,0-1.123,0.01-1.232,0.013c-2.15,0.06-4.163,0.947-5.658,2.499l-23.787,24.669c-1.518,1.574-2.331,3.645-2.292,5.83
	c0.04,2.186,0.929,4.225,2.502,5.742c1.533,1.478,3.549,2.292,5.678,2.292c2.244,0,4.338-0.889,5.895-2.503l21.368-22.16
	l2.268,0.111c17.175,0.839,74.966,7.438,97.52,57.1l0.617,1.358l-0.229,1.475c-2.782,17.951-11.901,34.346-25.677,46.165
	C181.839,468.617,164.161,475.146,145.879,475.146z M196.343,502.148l0.001-25.468l2.165-1.49
	c14.766-10.166,26.186-24.265,33.023-40.772l7.038-16.99l2.534,18.215c1.694,12.178,4.057,22.121,7.224,30.397l1.038,2.713
	l-1.842,2.245c-5.531,6.743-18.666,19.441-44.486,28.739L196.343,502.148z M323.212,281.151v-32.709
	c0-1.225-0.282-2.455-0.814-3.557c-8.813-18.251-13.282-37.623-13.282-57.577v-28.191c0-57.669,46.917-104.586,104.585-104.586
	h189.165V187.31c0,19.956-4.469,39.327-13.281,57.576c-0.533,1.104-0.815,2.334-0.815,3.558v37.538
	c0,37.098-14.914,71.51-41.993,96.895c-3.351,3.138-6.885,6.13-10.508,8.896l-0.244,0.179
	c-23.108,17.541-50.758,26.813-79.956,26.813c-2.957,0-5.962-0.098-8.932-0.29C377.646,413.975,323.212,353.656,323.212,281.151z
	 M405.977,549.959c-1.489,1.506-3.243,1.733-4.154,1.733c-0.201,0-0.413-0.01-0.635-0.033c-1.796-0.179-3.346-1.12-4.34-2.647
	l-43.188-64.781l18.88-19.842l70.688,48.32L405.977,549.959z M455.992,501.604l-76.396-52.219V413.75l7.378,3.988
	c18.463,9.98,38.348,15.722,59.102,17.065c3.328,0.216,6.709,0.325,10.05,0.325c24.396,0,47.588-5.684,68.934-16.892l7.324-3.846
	v34.993L455.992,501.604z M515.104,549.062c-0.975,1.478-2.498,2.406-4.281,2.599c-0.237,0.027-0.464,0.039-0.679,0.039
	c-0.896,0-2.622-0.224-4.124-1.72l-37.268-37.268l70.688-48.32l18.884,19.842L515.104,549.062z"/>
<path fill="#465264" d="M75.392,688.859c4.513,0,8.185-3.672,8.185-8.185v-67.149c0-4.513-3.672-8.185-8.185-8.185s-8.184,3.672-8.184,8.185v67.149
	C67.209,685.187,70.88,688.859,75.392,688.859z"/>
<path fill="#465264" d="M457.171,175.064c42.354,2.818,73.21,13.627,91.707,32.127c1.545,1.544,3.601,2.396,5.787,2.396
	c2.186,0,4.24-0.851,5.784-2.396c3.191-3.191,3.191-8.383,0.001-11.573c-31.148-31.148-85.498-37.686-125.607-37.686
	c-26.854,0-51.17,2.815-66.841,5.178c-10.934,1.648-18.87,10.909-18.87,22.02v30.37c0,4.513,3.671,8.185,8.184,8.185
	s8.185-3.671,8.185-8.185v-30.373c0-2.939,2.072-5.392,4.927-5.832c14.988-2.26,38.309-4.95,64.384-4.95
	C442.494,174.345,450.017,174.587,457.171,175.064z"/>
<path fill="#465264" d="M300.932,616.107c-4.512,0-8.184,3.671-8.184,8.184v56.385c0,4.513,3.671,8.185,8.184,8.185
	c4.513,0,8.185-3.672,8.185-8.185V624.29C309.117,619.778,305.446,616.107,300.932,616.107z"/>
<path fill="#465264" d="M611.049,616.107c-4.513,0-8.184,3.671-8.184,8.184v56.385c0,4.513,3.671,8.185,8.184,8.185s8.185-3.672,8.185-8.185V624.29
	C619.233,619.778,615.561,616.107,611.049,616.107z"/>
</svg>
