<?xml version="1.0" encoding="utf-8"?>
<!-- Generator: Adobe Illustrator 15.0.0, SVG Export Plug-In . SVG Version: 6.00 Build 0)  -->
<!DOCTYPE svg PUBLIC "-//W3C//DTD SVG 1.1//EN" "http://www.w3.org/Graphics/SVG/1.1/DTD/svg11.dtd">
<svg version="1.1" id="Слой_1" xmlns="http://www.w3.org/2000/svg" xmlns:xlink="http://www.w3.org/1999/xlink" x="0px" y="0px"
	 width="1600px" height="900px" viewBox="0 0 1600 900" enable-background="new 0 0 1600 900" xml:space="preserve">
<g>
	<path fill="rgb(63, 222, 194)" d="M740.887,899.323c-60.557,0-119.318-11.866-174.652-35.269c-53.432-22.599-101.413-54.943-142.608-96.138
		c-41.196-41.194-73.544-89.174-96.144-142.606c-23.405-55.335-35.272-114.1-35.272-174.66c0-60.562,11.868-119.326,35.272-174.662
		c22.6-53.432,54.947-101.412,96.144-142.607c41.195-41.194,89.176-73.54,142.608-96.138C621.568,13.84,680.33,1.975,740.887,1.975
		c60.562,0,119.327,11.866,174.664,35.269c53.436,22.598,101.417,54.943,142.614,96.138c41.197,41.195,73.546,89.175,96.146,142.607
		c23.405,55.335,35.272,114.1,35.272,174.662c0,60.562-11.867,119.325-35.272,174.661c-22.6,53.432-54.948,101.411-96.146,142.605
		s-89.179,73.54-142.614,96.138C860.214,887.457,801.448,899.323,740.887,899.323z M740.887,63.625
		c-213.406,0-387.025,173.619-387.025,387.025c0,213.404,173.619,387.022,387.025,387.022
		c213.418,0,387.046-173.618,387.046-387.022C1127.933,237.244,954.305,63.625,740.887,63.625z"/>
</g>
<g>
	<polygon fill="rgb(63, 222, 194)" points="694.067,639.382 492.021,437.339 549.325,380.034 694.067,524.772 945.413,273.429 
		1002.718,330.734 	"/>
</g>
</svg>
