<?xml version="1.0" encoding="utf-8"?>
<!-- Generator: Adobe Illustrator 15.0.0, SVG Export Plug-In . SVG Version: 6.00 Build 0)  -->
<!DOCTYPE svg PUBLIC "-//W3C//DTD SVG 1.1//EN" "http://www.w3.org/Graphics/SVG/1.1/DTD/svg11.dtd">
<svg version="1.1" id="Слой_1" xmlns="http://www.w3.org/2000/svg" xmlns:xlink="http://www.w3.org/1999/xlink" x="0px" y="0px"
	 width="1000px" height="1000px" viewBox="0 0 1000 1000" enable-background="new 0 0 1000 1000" xml:space="preserve">
<path fill="#465264" d="M932.335,462.297c-2.153-2.761-5.404-4.345-8.917-4.345c-1.765,0-4.402,0.415-6.939,2.392
	c-4.899,3.823-5.776,10.933-1.947,15.842c11.158,14.317,11.159,34.312,0.003,48.626c-57.426,73.622-133.052,130.639-218.703,164.891
	l-49.933,19.968l36.707-39.302c43.271-46.328,67.102-106.655,67.102-169.868c0-62.943-23.627-123.07-66.528-169.305l-36.459-39.292
	l49.732,19.996c49.567,19.93,95.499,47.091,136.521,80.729c4.978,4.073,10.094,8.431,15.197,12.944
	c2.073,1.836,4.727,2.843,7.479,2.843c3.236,0,6.321-1.388,8.464-3.808c2-2.258,3.001-5.159,2.818-8.169
	c-0.184-3.01-1.527-5.768-3.786-7.767c-5.141-4.558-10.471-9.098-15.849-13.503c-97.42-79.878-220.579-123.867-346.796-123.867
	c-169.856,0-327.253,76.906-431.833,210.999c-17.542,22.492-17.542,53.912,0,76.408
	c104.578,134.091,261.975,210.996,431.833,210.996c169.857,0,327.255-76.906,431.833-210.998
	C949.875,516.212,949.875,484.791,932.335,462.297z M305.123,689.689c-85.637-34.259-161.244-91.271-218.646-164.872
	c-11.159-14.323-11.158-34.318-0.001-48.628c57.406-73.607,133.013-130.619,218.648-164.873l49.904-19.962l-36.675,39.292
	c-43.243,46.328-67.059,106.65-67.059,169.855c0,63.202,23.815,123.526,67.059,169.859l36.673,39.293L305.123,689.689z
	 M500.505,727.115c-0.145,0-0.285-0.002-0.424-0.006C375.331,726.88,273.878,625.253,273.878,500.5
	c0-124.793,101.529-226.451,226.326-226.613l0.3-0.003l0.271,0.003c124.823,0.147,226.349,101.796,226.349,226.613
	c0,124.76-101.456,226.393-226.199,226.609C500.78,727.114,500.643,727.115,500.505,727.115z"/>
<path fill="#465264" d="M500.505,134.353c6.227,0,11.292-5.065,11.292-11.292V35.717c0-6.227-5.065-11.293-11.292-11.293
	s-11.292,5.065-11.292,11.292v87.345C489.213,129.287,494.278,134.353,500.505,134.353z"/>
<path fill="#465264" d="M500.505,976.575c6.227,0,11.292-5.067,11.292-11.296v-87.342c0-6.225-5.065-11.289-11.292-11.289
	s-11.292,5.064-11.292,11.289v87.342C489.213,971.508,494.278,976.575,500.505,976.575z"/>
<path fill="#465264" d="M840.45,171.85c0-3.016-1.176-5.853-3.31-7.986c-2.133-2.132-4.97-3.307-7.987-3.307c-3.017,0-5.854,1.175-7.986,3.308
	l-43.459,43.456c-4.403,4.404-4.403,11.569,0,15.973c2.133,2.134,4.97,3.309,7.986,3.309s5.853-1.175,7.985-3.308l43.462-43.461
	C839.275,177.7,840.45,174.865,840.45,171.85z"/>
<path fill="#465264" d="M223.296,777.705c-2.132-2.134-4.967-3.309-7.982-3.309c-3.016,0-5.852,1.176-7.985,3.309l-43.465,43.462
	c-4.401,4.402-4.401,11.569,0.002,15.975c2.131,2.131,4.968,3.306,7.985,3.306c3.015,0,5.851-1.175,7.983-3.308l43.466-43.461
	C227.7,789.277,227.699,782.11,223.296,777.705z"/>
<path fill="#465264" d="M207.328,223.292c2.134,2.134,4.97,3.309,7.987,3.309s5.853-1.175,7.985-3.308c4.399-4.402,4.397-11.567-0.005-15.972
	l-43.46-43.458c-2.133-2.133-4.969-3.308-7.985-3.308s-5.852,1.175-7.986,3.308c-4.4,4.401-4.4,11.566,0.002,15.969L207.328,223.292
	z"/>
<path fill="#465264" d="M837.14,821.168l-43.46-43.462c-2.135-2.133-4.973-3.31-7.989-3.31c-3.015,0-5.85,1.176-7.983,3.309
	c-4.403,4.404-4.403,11.57,0,15.974l43.46,43.461c2.133,2.133,4.969,3.308,7.986,3.308s5.854-1.175,7.988-3.309
	c2.132-2.133,3.308-4.97,3.308-7.986C840.45,826.137,839.274,823.301,837.14,821.168z"/>
<path fill="#465264" d="M590.981,506.711c0-6.066-2.982-11.749-8.183-15.592l-98.932-73.131c-3.515-2.598-7.394-3.971-11.215-3.971
	c-9.246,0-15.956,7.436-15.956,17.68v150.014c0,10.244,6.71,17.68,15.956,17.68c3.822,0,7.702-1.374,11.219-3.974l98.925-73.111
	C587.998,518.461,590.981,512.778,590.981,506.711z M480.695,567.92V445.489l82.82,61.222L480.695,567.92z"/>
</svg>
