<?xml version="1.0" encoding="utf-8"?>
<!-- Generator: Adobe Illustrator 15.0.0, SVG Export Plug-In . SVG Version: 6.00 Build 0)  -->
<!DOCTYPE svg PUBLIC "-//W3C//DTD SVG 1.1//EN" "http://www.w3.org/Graphics/SVG/1.1/DTD/svg11.dtd">
<svg version="1.1" id="Capa_1" xmlns="http://www.w3.org/2000/svg" xmlns:xlink="http://www.w3.org/1999/xlink" x="0px" y="0px"
	 width="1600px" height="900px" viewBox="0 0 1600 900" enable-background="new 0 0 1600 900" xml:space="preserve">
<path fill="#465264" d="M1245,109.075c0-34.531-28.089-62.625-62.615-62.625H417.622C383.092,46.453,355,74.547,355,109.075v580.793
	c0,34.526,28.092,62.616,62.622,62.616h267.597v76.471H571.18c-6.779,0-12.294,5.515-12.294,12.294s5.515,12.294,12.294,12.294
	h457.63c6.779,0,12.294-5.515,12.294-12.294s-5.515-12.294-12.294-12.294H914.769v-76.471h267.615
	c34.526,0,62.615-28.091,62.615-62.619V109.075z M379.587,109.075c0-20.974,17.063-38.038,38.035-38.038h764.763
	c20.969,0,38.028,17.064,38.028,38.038v60.029H379.587V109.075z M379.587,193.692h840.826v411.555H914.851V501.978
	c0-43.879-35.699-79.576-79.579-79.576h-70.544c-43.877,0-79.573,35.697-79.573,79.576v103.269H379.587V193.692z M890.261,501.978
	v103.269H709.739V501.978c0-30.321,24.667-54.989,54.985-54.989h70.545C865.593,446.989,890.261,471.656,890.261,501.978z
	 M890.182,828.959H709.805v-76.475h180.377V828.959z M1220.416,694.868h-0.33c-2.455,18.616-18.427,33.032-37.701,33.032H417.622
	c-20.973,0-38.035-17.062-38.035-38.032v-60.035h840.829V694.868z"/>
<path fill="#465264" d="M799.718,237.041c-45.112,0-81.813,36.698-81.813,81.807c0,45.107,36.701,81.804,81.813,81.804
	c45.108,0,81.807-36.697,81.807-81.804C881.524,273.74,844.826,237.041,799.718,237.041z M799.718,376.065
	c-31.555,0-57.227-25.667-57.227-57.217c0-31.551,25.672-57.22,57.227-57.22c31.551,0,57.22,25.668,57.22,57.22
	C856.937,350.397,831.268,376.065,799.718,376.065z"/>
</svg>
