<?xml version="1.0" encoding="utf-8"?>
<!-- Generator: Adobe Illustrator 15.0.0, SVG Export Plug-In . SVG Version: 6.00 Build 0)  -->
<!DOCTYPE svg PUBLIC "-//W3C//DTD SVG 1.1//EN" "http://www.w3.org/Graphics/SVG/1.1/DTD/svg11.dtd">
<svg version="1.1" id="Capa_1" xmlns="http://www.w3.org/2000/svg" xmlns:xlink="http://www.w3.org/1999/xlink" x="0px" y="0px"
	 width="1600px" height="900px" viewBox="0 0 1600 900" enable-background="new 0 0 1600 900" xml:space="preserve">
<path fill="#465264" d="M890,693H695c-6.617,0-12,5.383-12,12s5.383,12,12,12h195c6.617,0,12-5.383,12-12S896.617,693,890,693z"/>
<path fill="#465264" d="M965,753H620c-6.617,0-12,5.383-12,12s5.383,12,12,12h345c6.617,0,12-5.383,12-12S971.617,753,965,753z"/>
<path fill="#465264" d="M455,48c-31.43,0-57,25.57-57,57s25.57,57,57,57s57-25.57,57-57S486.429,48,455,48z M455,138c-18.196,0-33-14.804-33-33
	s14.804-33,33-33s33,14.804,33,33S473.196,138,455,138z"/>
<path fill="#465264" d="M590,48c-31.43,0-57,25.57-57,57s25.57,57,57,57s57-25.57,57-57S621.429,48,590,48z M590,138c-18.196,0-33-14.804-33-33
	s14.804-33,33-33s33,14.804,33,33S608.196,138,590,138z"/>
<path fill="#465264" d="M725,48c-31.43,0-57,25.57-57,57s25.57,57,57,57s57-25.57,57-57S756.429,48,725,48z M725,138c-18.196,0-33-14.804-33-33
	s14.804-33,33-33s33,14.804,33,33S743.196,138,725,138z"/>
<path fill="#465264" d="M974.265,530.359C986.033,505.063,992,478.027,992,450c0-105.869-86.131-192-192-192s-192,86.131-192,192
	c0,28.094,5.994,55.189,17.816,80.534c11.4,24.438,27.549,45.905,48,63.803l2.498,2.187l-0.439,0.409l11.705,8.483
	c0.183,0.13,0.383,0.256,0.583,0.383c0.296,0.188,0.591,0.379,0.877,0.585c2.611,1.857,5.396,3.717,8.75,5.842
	c1.73,1.098,3.525,2.188,5.487,3.333c3.142,1.842,5.794,3.36,8.542,4.79c2.196,1.145,4.509,2.225,6.746,3.269l0.684,0.319
	c0.804,0.373,1.608,0.757,2.412,1.141c1.72,0.821,3.344,1.597,5.036,2.305c4.728,1.977,9.8,3.839,15.076,5.537
	c1.027,0.325,2.088,0.612,3.211,0.916c0.729,0.197,1.457,0.394,2.177,0.603c4.272,1.236,8.052,2.212,11.556,2.982
	c2.156,0.476,4.258,0.87,6.03,1.193c4.071,0.754,8.121,1.375,12.045,1.848c0.543,0.066,1.084,0.134,1.624,0.202
	c1.333,0.168,2.591,0.327,3.871,0.45C788.861,641.71,794.66,642,800,642c5.398,0,11.19-0.295,17.707-0.902
	c1.25-0.109,2.46-0.266,3.74-0.432c0.58-0.074,1.16-0.149,1.744-0.22c4.167-0.502,8.219-1.122,12.043-1.845
	c2.354-0.433,4.262-0.809,6.018-1.186c3.469-0.767,7.188-1.725,11.684-3.011c0.693-0.2,1.396-0.39,2.099-0.58
	c1.095-0.295,2.129-0.574,3.146-0.896c5.147-1.65,10.241-3.519,15.129-5.55c1.642-0.676,3.219-1.427,4.888-2.223
	c0.757-0.359,1.515-0.721,2.277-1.074l0.704-0.328c2.33-1.084,4.739-2.206,7.026-3.402c2.984-1.556,5.849-3.211,8.257-4.624
	c2.225-1.305,4.144-2.47,5.868-3.563c3.18-2.011,5.924-3.836,8.391-5.584c0.273-0.191,0.548-0.368,0.823-0.545
	c0.261-0.167,0.506-0.324,0.709-0.474l12.188-8.804l-0.494-0.445l2.533-2.227C946.843,576.186,962.921,554.745,974.265,530.359z
	 M877.496,598.868c-0.28,0.161-0.532,0.272-0.734,0.363l-0.103,0.046c-5.146,2.672-10.574,5.091-16.591,7.394
	c-0.539,0.211-1.096,0.411-1.653,0.611c-0.342,0.123-0.684,0.246-1.025,0.373c-6.458,2.326-12.286,4.094-17.851,5.415l-0.306,0.094
	l-0.103,0.001c-12.735,2.997-25.881,4.517-39.077,4.517c-13.625,0-27.182-1.617-40.3-4.809c-0.21-0.015-0.419-0.05-0.624-0.105
	c-5.795-1.433-11.685-3.271-18-5.621c-0.27-0.1-0.539-0.197-0.807-0.295c-0.381-0.138-0.759-0.275-1.133-0.417
	c-6.349-2.453-12.32-5.169-17.764-8.079l-4.9-2.619l4.878-2.66l36.42-19.86c10.221-5.577,16.571-16.276,16.571-27.921v-24.229
	l-2.794-3.334l-0.023-0.027l-0.022-0.027c-1.279-1.586-12.629-16.057-17.121-35.532l-1.679-5.861l-4.184-2.704l-1.408-0.909
	l0.037-1.676l0.495-22.65l0.028-1.294l0.96-0.867l3.961-3.576v-36.678l-0.096-1.623c-0.144-1.46-0.984-13.099,7.373-22.414
	c7.666-8.495,21.667-12.982,40.499-12.982c18.845,0,32.847,4.488,40.494,12.978c8.186,9.09,7.55,20.523,7.414,22.131l-0.134,33.17
	l0.409,6.256l4.047,3.654l0.989,0.894v1.333v21.735c0,2.129-1.602,3.593-3.091,4.052l-5.979,1.836l-1.92,5.966
	c-3.446,10.694-8.338,20.548-14.538,29.288c-1.43,2.042-2.803,3.813-4.07,5.246l-3.013,3.408v24.919
	c0,12.12,6.728,23.013,17.558,28.427l38.76,19.38l5.011,2.506L877.496,598.868z M906.714,579.65l-1.6,1.319l-1.799-1.03
	c-0.313-0.18-0.623-0.37-0.932-0.563c-0.397-0.246-0.772-0.479-1.11-0.647l-51.929-25.95c-2.625-1.325-4.314-4.061-4.314-6.974
	V530.73v-1.009l0.609-0.804c0.753-0.992,1.436-1.923,2.087-2.844c6.417-9.042,11.689-19.045,15.673-29.736l0.353-0.946l0.854-0.54
	c8.172-5.176,13.05-14.064,13.05-23.776V449.34c0-5.625-1.702-11.094-4.923-15.814l-0.521-0.765v-0.926v-25.2v-0.132l0.012-0.132
	c0.475-5.364,0.94-24.103-13.008-40.013c-12.479-14.211-32.255-21.418-58.779-21.418c-26.524,0-46.301,7.207-58.781,21.42
	c-13.944,15.922-13.48,34.638-13.006,39.995l0.012,0.132v0.132v25.216v0.926l-0.522,0.765c-3.22,4.72-4.922,10.188-4.922,15.814
	v21.734c0,7.552,2.952,14.654,8.313,20.001l0.555,0.554l0.213,0.754c4.727,16.718,13.022,29.927,17.546,36.313l0.552,0.779v0.955
	v14.865c0,2.86-1.561,5.485-4.072,6.851l-48.476,26.458c-0.186,0.1-0.409,0.251-0.646,0.41c-0.261,0.177-0.558,0.376-0.887,0.568
	l-1.812,1.055l-1.614-1.339C654.193,547.184,632,500.056,632,450c0-92.636,75.364-168,168-168s168,75.364,168,168
	C968,500.285,945.662,547.54,906.714,579.65z"/>
<path fill="#465264" d="M1247.257,212.5H1247v-3V3H353v204h0.159v3v620c0,36.834,29.966,66.8,66.8,66.8h760.498c36.834,0,66.8-29.966,66.8-66.8
	V212.5z M377,180V30v-3h3h840h3v3v150v3h-3H380h-3V180z M1223.457,210v620c0,23.71-19.29,43-43,43H419.959c-23.71,0-43-19.29-43-43
	V210v-3h3H1220h0.457h3V210z"/>
</svg>
