<svg width="18" height="20" viewBox="0 0 18 20" fill="none" xmlns="http://www.w3.org/2000/svg">
<path d="M16.5 2H14.25V1.25C14.25 1.05109 14.171 0.860322 14.0303 0.71967C13.8897 0.579018 13.6989 0.5 13.5 0.5C13.3011 0.5 13.1103 0.579018 12.9697 0.71967C12.829 0.860322 12.75 1.05109 12.75 1.25V2H5.25V1.25C5.25 1.05109 5.17098 0.860322 5.03033 0.71967C4.88968 0.579018 4.69891 0.5 4.5 0.5C4.30109 0.5 4.11032 0.579018 3.96967 0.71967C3.82902 0.860322 3.75 1.05109 3.75 1.25V2H1.5C1.10218 2 0.720644 2.15804 0.43934 2.43934C0.158035 2.72064 0 3.10218 0 3.5V18.5C0 18.8978 0.158035 19.2794 0.43934 19.5607C0.720644 19.842 1.10218 20 1.5 20H16.5C16.8978 20 17.2794 19.842 17.5607 19.5607C17.842 19.2794 18 18.8978 18 18.5V3.5C18 3.10218 17.842 2.72064 17.5607 2.43934C17.2794 2.15804 16.8978 2 16.5 2ZM3.75 3.5V4.25C3.75 4.44891 3.82902 4.63968 3.96967 4.78033C4.11032 4.92098 4.30109 5 4.5 5C4.69891 5 4.88968 4.92098 5.03033 4.78033C5.17098 4.63968 5.25 4.44891 5.25 4.25V3.5H12.75V4.25C12.75 4.44891 12.829 4.63968 12.9697 4.78033C13.1103 4.92098 13.3011 5 13.5 5C13.6989 5 13.8897 4.92098 14.0303 4.78033C14.171 4.63968 14.25 4.44891 14.25 4.25V3.5H16.5V6.5H1.5V3.5H3.75ZM16.5 18.5H1.5V8H16.5V18.5ZM12.9056 10.4694C12.9754 10.539 13.0307 10.6217 13.0684 10.7128C13.1062 10.8038 13.1256 10.9014 13.1256 11C13.1256 11.0986 13.1062 11.1962 13.0684 11.2872C13.0307 11.3783 12.9754 11.461 12.9056 11.5306L8.40563 16.0306C8.33597 16.1004 8.25325 16.1557 8.1622 16.1934C8.07116 16.2312 7.97356 16.2506 7.875 16.2506C7.77644 16.2506 7.67884 16.2312 7.58779 16.1934C7.49675 16.1557 7.41403 16.1004 7.34437 16.0306L5.09437 13.7806C4.95364 13.6399 4.87458 13.449 4.87458 13.25C4.87458 13.051 4.95364 12.8601 5.09437 12.7194C5.23511 12.5786 5.42598 12.4996 5.625 12.4996C5.82402 12.4996 6.01489 12.5786 6.15563 12.7194L7.875 14.4397L11.8444 10.4694C11.914 10.3996 11.9967 10.3443 12.0878 10.3066C12.1788 10.2688 12.2764 10.2494 12.375 10.2494C12.4736 10.2494 12.5712 10.2688 12.6622 10.3066C12.7533 10.3443 12.836 10.3996 12.9056 10.4694Z" fill="#324A61"/>
</svg>
