<svg width="22" height="22" viewBox="0 0 22 22" fill="none" xmlns="http://www.w3.org/2000/svg">
<path d="M21.0044 4.66748C20.9314 4.58012 20.8401 4.50986 20.7369 4.46165C20.6338 4.41344 20.5213 4.38846 20.4075 4.38848H4.72533L4.13428 1.13868C4.10173 0.95949 4.00732 0.797406 3.86751 0.680689C3.72769 0.563972 3.55136 0.500026 3.36923 0.5H0.965191C0.758935 0.5 0.561126 0.581936 0.415281 0.727782C0.269435 0.873628 0.1875 1.07144 0.1875 1.2777C0.1875 1.48395 0.269435 1.68176 0.415281 1.82761C0.561126 1.97346 0.758935 2.05539 0.965191 2.05539H2.715L5.19972 15.6933C5.27291 16.0977 5.45166 16.4757 5.71786 16.7889C5.35044 17.132 5.08525 17.5703 4.95169 18.055C4.81813 18.5396 4.82142 19.0519 4.96119 19.5348C5.10096 20.0177 5.37176 20.4525 5.74355 20.791C6.11534 21.1294 6.57359 21.3582 7.0675 21.4521C7.56141 21.546 8.07167 21.5013 8.5417 21.3229C9.01174 21.1444 9.42318 20.8393 9.7304 20.4414C10.0376 20.0434 10.2286 19.5681 10.2822 19.0682C10.3358 18.5683 10.2499 18.0634 10.034 17.6093H14.4494C14.2754 17.9736 14.1854 18.3722 14.1859 18.7759C14.1859 19.3142 14.3456 19.8405 14.6447 20.2881C14.9438 20.7357 15.3689 21.0846 15.8662 21.2906C16.3636 21.4966 16.9109 21.5505 17.4389 21.4455C17.9669 21.3405 18.4519 21.0812 18.8326 20.7006C19.2132 20.3199 19.4725 19.8349 19.5775 19.3069C19.6825 18.7789 19.6286 18.2316 19.4226 17.7342C19.2166 17.2369 18.8677 16.8118 18.4201 16.5127C17.9725 16.2136 17.4462 16.0539 16.9079 16.0539H7.49488C7.31276 16.0539 7.13642 15.99 6.99661 15.8732C6.8568 15.7565 6.76238 15.5944 6.72983 15.4153L6.42167 13.7208H17.6982C18.2446 13.7208 18.7736 13.5289 19.193 13.1788C19.6125 12.8286 19.8957 12.3424 19.9934 11.8048L21.1754 5.30519C21.1955 5.19285 21.1905 5.07749 21.1609 4.96728C21.1314 4.85707 21.0779 4.75472 21.0044 4.66748ZM8.74211 18.7759C8.74211 19.0066 8.67369 19.2321 8.54551 19.424C8.41733 19.6158 8.23514 19.7653 8.02198 19.8536C7.80883 19.9419 7.57427 19.965 7.34799 19.92C7.1217 19.875 6.91385 19.7639 6.7507 19.6007C6.58756 19.4376 6.47646 19.2297 6.43145 19.0035C6.38644 18.7772 6.40954 18.5426 6.49783 18.3295C6.58612 18.1163 6.73564 17.9341 6.92748 17.8059C7.11931 17.6777 7.34485 17.6093 7.57557 17.6093C7.88495 17.6093 8.18167 17.7322 8.40044 17.951C8.6192 18.1698 8.74211 18.4665 8.74211 18.7759ZM18.0744 18.7759C18.0744 19.0066 18.006 19.2321 17.8778 19.424C17.7496 19.6158 17.5674 19.7653 17.3543 19.8536C17.1411 19.9419 16.9066 19.965 16.6803 19.92C16.454 19.875 16.2461 19.7639 16.083 19.6007C15.9199 19.4376 15.8088 19.2297 15.7637 19.0035C15.7187 18.7772 15.7418 18.5426 15.8301 18.3295C15.9184 18.1163 16.0679 17.9341 16.2598 17.8059C16.4516 17.6777 16.6771 17.6093 16.9079 17.6093C17.2173 17.6093 17.514 17.7322 17.7327 17.951C17.9515 18.1698 18.0744 18.4665 18.0744 18.7759ZM18.4632 11.5268C18.4306 11.7065 18.3358 11.8689 18.1954 11.9857C18.0549 12.1025 17.8779 12.1661 17.6953 12.1655H6.13878L5.00821 5.94388H19.4752L18.4632 11.5268Z" fill="white"/>
</svg>
