<svg width="16" height="20" viewBox="0 0 16 20" fill="none" xmlns="http://www.w3.org/2000/svg">
<path d="M8.09944 5.9541L7.13665 7.62775C6.92069 7.99669 7.10065 8.30262 7.52356 8.30262H8.66633C9.09824 8.30262 9.2692 8.60856 9.05325 8.97748L8.09944 10.6511" stroke="#324A61" stroke-linecap="round" stroke-linejoin="round"/>
<path d="M4.77022 15.087V14.0433C2.70065 12.7925 1 10.354 1 7.76259C1 3.30851 5.09415 -0.182763 9.71918 0.825028C11.7528 1.27493 13.5344 2.62465 14.4612 4.48727C16.3418 8.26646 14.3622 12.2796 11.4558 14.0343V15.078C11.4558 15.339 11.5548 15.9419 10.592 15.9419H5.63404C4.64424 15.9509 4.77022 15.5639 4.77022 15.087Z" stroke="#324A61" stroke-linecap="round" stroke-linejoin="round"/>
<path d="M4.94922 18.6506C7.00979 18.0657 9.18734 18.0657 11.2479 18.6506" stroke="#324A61" stroke-linecap="round" stroke-linejoin="round"/>
</svg>
