<svg width="18" height="18" viewBox="0 0 18 18" fill="none" xmlns="http://www.w3.org/2000/svg">
<path d="M1 0.599609H17V16.5996H1V0.599609Z" stroke="#324A61" stroke-miterlimit="10" stroke-linecap="round" stroke-linejoin="round"/>
<path d="M5.5 6.59961C6.32843 6.59961 7 5.92804 7 5.09961C7 4.27118 6.32843 3.59961 5.5 3.59961C4.67157 3.59961 4 4.27118 4 5.09961C4 5.92804 4.67157 6.59961 5.5 6.59961Z" stroke="#324A61" stroke-miterlimit="10" stroke-linecap="round" stroke-linejoin="round"/>
<path d="M4 12.5996C4.19721 12.2172 4.27281 11.8619 5.125 11.4746C6.1036 11.0299 6.25 10.7246 7.375 9.97465C9.15475 8.78815 9.922 6.58922 11.5 6.59965C12.1452 6.60392 13.375 9.22465 14.5 9.59965" stroke="#324A61" stroke-miterlimit="10" stroke-linecap="round" stroke-linejoin="round"/>
</svg>
