<svg width="16" height="15" viewBox="0 0 16 15" fill="none" xmlns="http://www.w3.org/2000/svg">
<path d="M14.9434 7.20508V9.82413C14.9434 11.7448 13.4434 13.3162 11.61 13.3162H4.3878C2.55447 13.3162 1.05447 11.7448 1.05447 9.82413V7.20508C1.05447 7.20508 7.44336 7.78708 14.9434 7.20508Z" stroke="#324A61" stroke-miterlimit="10" stroke-linecap="round" stroke-linejoin="round"/>
<path d="M1.70404 7.20551V1.68992C1.70404 1.68992 1.70404 -0.239353 3.50977 1.27342" stroke="#324A61" stroke-miterlimit="10" stroke-linecap="round" stroke-linejoin="round"/>
<path d="M5.17773 1.67414C4.7306 1.09019 3.98423 0.910776 3.51068 1.27336C3.03712 1.63594 3.01571 2.4033 3.46285 2.98725L5.17773 1.67414Z" stroke="#324A61" stroke-miterlimit="10" stroke-linecap="round" stroke-linejoin="round"/>
<mask id="path-4-inside-1_2030_1955" fill="white">
<path d="M3.31748 13.2002L3.00004 14.1807H3.97887L4.16406 13.6103"/>
</mask>
<path d="M2.3661 12.8922C2.53621 12.3667 3.10006 12.0787 3.6255 12.2488C4.15093 12.4189 4.43897 12.9828 4.26886 13.5082L2.3661 12.8922ZM3.00004 14.1807V15.1807C2.68012 15.1807 2.37951 15.0276 2.19133 14.7689C2.00315 14.5102 1.95011 14.177 2.04865 13.8727L3.00004 14.1807ZM3.97887 14.1807L4.93 14.4895C4.7962 14.9016 4.41218 15.1807 3.97887 15.1807V14.1807ZM3.21293 13.3015C3.38347 12.7762 3.94755 12.4886 4.47285 12.6591C4.99814 12.8297 5.28573 13.3937 5.11519 13.919L3.21293 13.3015ZM4.26886 13.5082L3.95142 14.4887L2.04865 13.8727L2.3661 12.8922L4.26886 13.5082ZM3.00004 13.1807H3.97887V15.1807H3.00004V13.1807ZM3.02774 13.8719L3.21293 13.3015L5.11519 13.919L4.93 14.4895L3.02774 13.8719Z" fill="#324A61" mask="url(#path-4-inside-1_2030_1955)"/>
<mask id="path-6-inside-2_2030_1955" fill="white">
<path d="M13.5692 13.2002L13.8867 14.1807H12.9079L12.7227 13.6103"/>
</mask>
<path d="M12.6179 13.5082C12.4477 12.9828 12.7358 12.4189 13.2612 12.2488C13.7866 12.0787 14.3505 12.3667 14.5206 12.8922L12.6179 13.5082ZM13.8867 14.1807L14.8381 13.8727C14.9366 14.177 14.8836 14.5102 14.6954 14.7689C14.5073 15.0276 14.2066 15.1807 13.8867 15.1807V14.1807ZM12.9079 14.1807V15.1807C12.4745 15.1807 12.0905 14.9016 11.9567 14.4894L12.9079 14.1807ZM11.7715 13.919C11.601 13.3937 11.8886 12.8296 12.4139 12.6591C12.9393 12.4886 13.5033 12.7762 13.6738 13.3015L11.7715 13.919ZM14.5206 12.8922L14.8381 13.8727L12.9353 14.4887L12.6179 13.5082L14.5206 12.8922ZM13.8867 15.1807H12.9079V13.1807H13.8867V15.1807ZM11.9567 14.4894L11.7715 13.919L13.6738 13.3015L13.859 13.872L11.9567 14.4894Z" fill="#324A61" mask="url(#path-6-inside-2_2030_1955)"/>
<path d="M14.9434 7.20508V9.82413C14.9434 11.7448 13.4434 13.3162 11.61 13.3162H4.3878C2.55447 13.3162 1.05447 11.7448 1.05447 9.82413V7.20508C1.05447 7.20508 7.44336 7.78708 14.9434 7.20508Z" stroke="#324A61" stroke-miterlimit="10" stroke-linecap="round" stroke-linejoin="round"/>
</svg>
