<svg width="16" height="16" viewBox="0 0 16 16" fill="none" xmlns="http://www.w3.org/2000/svg">
<path fill-rule="evenodd" clip-rule="evenodd" d="M9.45493 1.1543H13.0407C14.1453 1.1543 15.0407 2.04973 15.0407 3.1543V6.74008C15.0407 7.0053 14.9354 7.25965 14.7478 7.44719L7.45493 14.7401C6.67388 15.5211 5.40755 15.5211 4.6265 14.7401L1.45493 11.5685C0.673878 10.7875 0.673878 9.52113 1.45493 8.74008L8.74782 1.44719C8.93536 1.25965 9.18971 1.1543 9.45493 1.1543Z" stroke="#324A61" stroke-linecap="round" stroke-linejoin="round"/>
<path d="M13.541 3.6543C13.541 3.10201 13.0933 2.6543 12.541 2.6543C11.9887 2.6543 11.541 3.10201 11.541 3.6543C11.541 4.20658 11.9887 4.6543 12.541 4.6543C13.0933 4.6543 13.541 4.20658 13.541 3.6543Z" fill="#324A61"/>
</svg>
