<svg width="35" height="36" viewBox="0 0 35 36" fill="none" xmlns="http://www.w3.org/2000/svg">
<path d="M17.5625 0.9375C14.1879 0.9375 10.889 1.9382 8.08309 3.81305C5.27718 5.6879 3.09023 8.3527 1.79881 11.4705C0.507393 14.5882 0.169499 18.0189 0.827859 21.3287C1.48622 24.6385 3.11126 27.6788 5.4975 30.065C7.88373 32.4512 10.924 34.0763 14.2338 34.7346C17.5436 35.393 20.9743 35.0551 24.092 33.7637C27.2098 32.4723 29.8746 30.2853 31.7495 27.4794C33.6243 24.6735 34.625 21.3746 34.625 18C34.6202 13.4762 32.821 9.13907 29.6222 5.94027C26.4234 2.74146 22.0863 0.942277 17.5625 0.9375ZM17.5625 32.4375C14.707 32.4375 11.9157 31.5908 9.54146 30.0043C7.16723 28.4179 5.31674 26.1631 4.224 23.525C3.13126 20.8869 2.84535 17.984 3.40242 15.1834C3.95949 12.3828 5.33453 9.81027 7.35365 7.79115C9.37277 5.77203 11.9453 4.39699 14.7459 3.83991C17.5465 3.28284 20.4494 3.56875 23.0875 4.66149C25.7256 5.75423 27.9804 7.60472 29.5669 9.97895C31.1533 12.3532 32 15.1445 32 18C31.9957 21.8277 30.4732 25.4974 27.7666 28.2041C25.0599 30.9107 21.3902 32.4332 17.5625 32.4375ZM16.25 19.3125V10.125C16.25 9.7769 16.3883 9.44306 16.6344 9.19692C16.8806 8.95078 17.2144 8.8125 17.5625 8.8125C17.9106 8.8125 18.2444 8.95078 18.4906 9.19692C18.7367 9.44306 18.875 9.7769 18.875 10.125V19.3125C18.875 19.6606 18.7367 19.9944 18.4906 20.2406C18.2444 20.4867 17.9106 20.625 17.5625 20.625C17.2144 20.625 16.8806 20.4867 16.6344 20.2406C16.3883 19.9944 16.25 19.6606 16.25 19.3125ZM19.5313 25.2188C19.5313 25.6081 19.4158 25.9888 19.1995 26.3125C18.9831 26.6363 18.6757 26.8886 18.3159 27.0376C17.9562 27.1866 17.5603 27.2256 17.1784 27.1497C16.7965 27.0737 16.4457 26.8862 16.1704 26.6109C15.8951 26.3355 15.7076 25.9847 15.6316 25.6028C15.5556 25.2209 15.5946 24.8251 15.7436 24.4653C15.8926 24.1056 16.145 23.7981 16.4687 23.5818C16.7925 23.3655 17.1731 23.25 17.5625 23.25C18.0847 23.25 18.5854 23.4574 18.9546 23.8266C19.3238 24.1958 19.5313 24.6966 19.5313 25.2188Z" fill="#F94707"/>
</svg>
