<svg width="20" height="20" viewBox="0 0 20 20" fill="none" xmlns="http://www.w3.org/2000/svg">
<path d="M8.00456 1.02539H1.82222C1.61148 1.02565 1.40944 1.11278 1.26043 1.26767C1.11141 1.42255 1.02759 1.63256 1.02734 1.8516V15.071C1.02759 15.29 1.11141 15.5 1.26043 15.6549C1.40944 15.8098 1.61148 15.8969 1.82222 15.8972H16.1299C16.3406 15.8969 16.5427 15.8098 16.6917 15.6549C16.8407 15.5 16.9245 15.29 16.9248 15.071L8.00456 1.02539ZM8.00456 1.02539C8.16156 1.0251 8.3151 1.07326 8.44573 1.16379C8.57636 1.25431 8.67818 1.38311 8.7383 1.53386L8.00456 1.02539ZM16.4248 15.0704C16.4247 15.1631 16.389 15.2483 16.3314 15.3083C16.2744 15.3675 16.2013 15.3971 16.1293 15.3972H1.82282C1.75085 15.3971 1.67776 15.3675 1.62075 15.3083C1.56316 15.2484 1.52751 15.1633 1.52734 15.0706V1.85193C1.52751 1.75929 1.56316 1.67418 1.62075 1.61432C1.67769 1.55513 1.75068 1.52555 1.82257 1.52539L8.00456 1.52539L8.0055 1.52539C8.05906 1.52529 8.11313 1.54162 8.16094 1.57475C8.209 1.60806 8.24933 1.65753 8.27386 1.71906L8.27419 1.71989L8.95355 3.41466L9.0794 3.72862H9.41765H16.1296C16.2015 3.72878 16.2744 3.75837 16.3314 3.81755C16.389 3.87746 16.4247 3.96266 16.4248 4.05539V15.0704Z" stroke="#324A61"/>
<path d="M18.9739 4.61523V16.9486C18.9739 17.5009 18.5261 17.9486 17.9739 17.9486H2.05078" stroke="#324A61" stroke-linecap="round"/>
</svg>
