<svg width="20" height="20" viewBox="0 0 20 20" fill="none" xmlns="http://www.w3.org/2000/svg">
<path d="M2 1.5H18V17.5H2V1.5Z" stroke="#324A61" stroke-miterlimit="10" stroke-linecap="round" stroke-linejoin="round"/>
<path d="M6.5 7.5C7.32843 7.5 8 6.82843 8 6C8 5.17157 7.32843 4.5 6.5 4.5C5.67157 4.5 5 5.17157 5 6C5 6.82843 5.67157 7.5 6.5 7.5Z" stroke="#324A61" stroke-miterlimit="10" stroke-linecap="round" stroke-linejoin="round"/>
<path d="M5 13.5C5.19721 13.1176 5.27281 12.7623 6.125 12.375C7.1036 11.9303 7.25 11.625 8.375 10.875C10.1547 9.68854 10.922 7.48961 12.5 7.50004C13.1452 7.50431 14.375 10.125 15.5 10.5" stroke="#324A61" stroke-miterlimit="10" stroke-linecap="round" stroke-linejoin="round"/>
</svg>
