<svg width="20" height="18" viewBox="0 0 20 18" fill="none" xmlns="http://www.w3.org/2000/svg">
<path d="M16.75 7.5C16.75 7.69891 16.671 7.88968 16.5303 8.03033C16.3897 8.17098 16.1989 8.25 16 8.25H12.25C12.0511 8.25 11.8603 8.17098 11.7197 8.03033C11.579 7.88968 11.5 7.69891 11.5 7.5C11.5 7.30109 11.579 7.11032 11.7197 6.96967C11.8603 6.82902 12.0511 6.75 12.25 6.75H16C16.1989 6.75 16.3897 6.82902 16.5303 6.96967C16.671 7.11032 16.75 7.30109 16.75 7.5ZM16 9.75H12.25C12.0511 9.75 11.8603 9.82902 11.7197 9.96967C11.579 10.1103 11.5 10.3011 11.5 10.5C11.5 10.6989 11.579 10.8897 11.7197 11.0303C11.8603 11.171 12.0511 11.25 12.25 11.25H16C16.1989 11.25 16.3897 11.171 16.5303 11.0303C16.671 10.8897 16.75 10.6989 16.75 10.5C16.75 10.3011 16.671 10.1103 16.5303 9.96967C16.3897 9.82902 16.1989 9.75 16 9.75ZM19.75 2.25V15.75C19.75 16.1478 19.592 16.5294 19.3107 16.8107C19.0294 17.092 18.6478 17.25 18.25 17.25H1.75C1.35218 17.25 0.970644 17.092 0.68934 16.8107C0.408035 16.5294 0.25 16.1478 0.25 15.75V2.25C0.25 1.85218 0.408035 1.47064 0.68934 1.18934C0.970644 0.908035 1.35218 0.75 1.75 0.75H18.25C18.6478 0.75 19.0294 0.908035 19.3107 1.18934C19.592 1.47064 19.75 1.85218 19.75 2.25ZM18.25 15.75V2.25H1.75V15.75H18.25ZM10.7256 12.5625C10.7754 12.7552 10.7465 12.9598 10.6454 13.1312C10.5443 13.3026 10.3793 13.4268 10.1866 13.4766C9.99387 13.5263 9.78931 13.4974 9.61789 13.3963C9.44647 13.2952 9.32223 13.1302 9.2725 12.9375C9.02594 11.9756 8.04812 11.25 6.99906 11.25C5.95 11.25 4.97312 11.9756 4.72563 12.9375C4.6759 13.1302 4.55166 13.2952 4.38024 13.3963C4.20882 13.4974 4.00426 13.5263 3.81156 13.4766C3.61887 13.4268 3.45382 13.3026 3.35272 13.1312C3.25163 12.9598 3.22277 12.7552 3.2725 12.5625C3.51588 11.6566 4.09118 10.8755 4.88406 10.3744C4.46272 9.95553 4.17522 9.42102 4.05802 8.83859C3.94082 8.25616 3.99918 7.65205 4.22572 7.10283C4.45226 6.55361 4.83676 6.08402 5.3305 5.75358C5.82423 5.42315 6.40496 5.24675 6.99906 5.24675C7.59317 5.24675 8.17389 5.42315 8.66763 5.75358C9.16136 6.08402 9.54587 6.55361 9.77241 7.10283C9.99894 7.65205 10.0573 8.25616 9.94011 8.83859C9.8229 9.42102 9.53541 9.95553 9.11406 10.3744C9.90781 10.8748 10.4836 11.6562 10.7266 12.5625H10.7256ZM7 9.75C7.29667 9.75 7.58668 9.66203 7.83335 9.4972C8.08003 9.33238 8.27229 9.09811 8.38582 8.82403C8.49935 8.54994 8.52906 8.24834 8.47118 7.95736C8.4133 7.66639 8.27044 7.39912 8.06066 7.18934C7.85088 6.97956 7.58361 6.8367 7.29264 6.77882C7.00166 6.72094 6.70006 6.75065 6.42597 6.86418C6.15189 6.97771 5.91762 7.16997 5.7528 7.41665C5.58797 7.66332 5.5 7.95333 5.5 8.25C5.5 8.64782 5.65804 9.02936 5.93934 9.31066C6.22064 9.59196 6.60218 9.75 7 9.75Z" fill="black" fill-opacity="0.53"/>
</svg>
