<svg width="17" height="17" viewBox="0 0 17 17" fill="none" xmlns="http://www.w3.org/2000/svg">
<path d="M8.49479 1.41699C7.00167 1.41692 5.56885 2.00615 4.50776 3.05664C3.44666 4.10712 2.84306 5.53394 2.82812 7.02699C2.82812 10.9087 7.82188 15.2295 8.03438 15.4137C8.16268 15.5234 8.32596 15.5837 8.49479 15.5837C8.66362 15.5837 8.82691 15.5234 8.95521 15.4137C9.20312 15.2295 14.1615 10.9087 14.1615 7.02699C14.1465 5.53394 13.5429 4.10712 12.4818 3.05664C11.4207 2.00615 9.98792 1.41692 8.49479 1.41699ZM8.49479 13.9191C7.31187 12.7928 4.24479 9.66908 4.24479 7.02699C4.24479 5.89982 4.69256 4.81882 5.48959 4.02179C6.28662 3.22476 7.36762 2.77699 8.49479 2.77699C9.62196 2.77699 10.703 3.22476 11.5 4.02179C12.297 4.81882 12.7448 5.89982 12.7448 7.02699C12.7448 9.64783 9.67771 12.7928 8.49479 13.9191Z" fill="#324A61"/>
<path d="M8.49479 4.25C8.00446 4.25 7.52514 4.3954 7.11744 4.66781C6.70974 4.94023 6.39198 5.32742 6.20434 5.78043C6.0167 6.23344 5.9676 6.73192 6.06326 7.21283C6.15892 7.69374 6.39504 8.13548 6.74176 8.4822C7.08848 8.82892 7.53022 9.06504 8.01113 9.1607C8.49204 9.25636 8.99052 9.20726 9.44353 9.01962C9.89654 8.83198 10.2837 8.51421 10.5561 8.10652C10.8286 7.69882 10.974 7.2195 10.974 6.72917C10.974 6.07165 10.7128 5.44107 10.2478 4.97613C9.78289 4.5112 9.15231 4.25 8.49479 4.25ZM8.49479 7.79167C8.28465 7.79167 8.07923 7.72935 7.9045 7.6126C7.72977 7.49585 7.59359 7.32991 7.51317 7.13577C7.43275 6.94162 7.41171 6.72799 7.45271 6.52188C7.49371 6.31578 7.5949 6.12646 7.74349 5.97787C7.89209 5.82927 8.0814 5.72808 8.28751 5.68708C8.49361 5.64609 8.70725 5.66713 8.90139 5.74754C9.09554 5.82796 9.26148 5.96415 9.37823 6.13887C9.49498 6.3136 9.55729 6.51902 9.55729 6.72917C9.55729 7.01096 9.44535 7.28121 9.24609 7.48047C9.04684 7.67973 8.77659 7.79167 8.49479 7.79167Z" fill="#324A61"/>
</svg>
