<svg width="98" height="122" viewBox="0 0 98 122" fill="none" xmlns="http://www.w3.org/2000/svg">
<path fill-rule="evenodd" clip-rule="evenodd" d="M14.7454 14.2516C23.8583 5.22979 36.1637 0.169281 48.987 0.169922C61.8103 0.169281 74.1157 5.22979 83.2286 14.2516C92.3415 23.2733 97.5254 35.5272 97.6536 48.3499C97.6536 81.6866 55.0703 118.795 52.9411 120.377C51.8392 121.319 50.437 121.837 48.987 121.837C47.537 121.837 46.1347 121.319 45.0328 120.377L45.0229 120.368C43.058 118.665 0.320312 81.6283 0.320312 48.3499C0.448546 35.5272 5.63247 23.2733 14.7454 14.2516ZM37.158 28.0883C40.6594 25.7487 44.7759 24.5 48.987 24.5C54.6339 24.5 60.0495 26.7432 64.0425 30.7362C68.0354 34.7291 70.2787 40.1448 70.2787 45.7917C70.2787 50.0028 69.0299 54.1193 66.6904 57.6207C64.3508 61.1221 61.0255 63.8511 57.135 65.4626C53.2444 67.0741 48.9634 67.4958 44.8332 66.6742C40.703 65.8527 36.9092 63.8248 33.9315 60.8471C30.9538 57.8695 28.926 54.0756 28.1044 49.9455C27.2829 45.8153 27.7045 41.5342 29.3161 37.6437C30.9276 33.7532 33.6566 30.4278 37.158 28.0883Z" fill="#A85A42"/>
</svg>
