<svg width="146" height="146" viewBox="0 0 146 146" fill="none" xmlns="http://www.w3.org/2000/svg">
<path d="M121.404 143.971L141.823 123.387C144.94 120.348 145.995 116.321 146 112.398C145.48 95.0524 136.96 78.6563 128.21 65.1941C112.135 43.0968 92.2014 22.8215 68.1129 10.0964C58.0117 5.21588 45.1235 -0.510733 33.8487 0.0364017C29.6074 0.0851899 25.4449 1.22813 22.711 4.21516L2.13706 24.7995C-1.49871 29.0739 -0.241649 33.2075 3.99332 35.9428L35.3957 52.503C39.1159 54.246 43.102 53.2461 45.7603 50.6456L53.3401 43.0619C53.9814 42.5937 54.7114 42.2956 55.5059 42.2881C66.7627 45.1962 77.1381 54.0062 84.2784 61.7889C91.4187 69.5716 101.092 77.9371 103.383 88.7961C103.757 90.1384 103.888 91.7824 102.996 92.7428L94.0237 101.565C91.7188 104.606 90.5921 108.997 92.4769 112.244L92.4769 112.398L110.112 142.269C112.86 146.654 118.172 147.111 121.404 143.971Z" fill="#5B91CB" fill-opacity="0.2"/>
</svg>
