<svg width="20" height="20" viewBox="0 0 20 20" fill="none" xmlns="http://www.w3.org/2000/svg">
<rect width="20" height="20" rx="10" fill="#A47C68"/>
<path d="M14 8C14 9.78188 12.4706 11.2569 10.5 11.4725V12C10.5 12.1326 10.4473 12.2598 10.3536 12.3536C10.2598 12.4473 10.1326 12.5 10 12.5C9.86739 12.5 9.74021 12.4473 9.64645 12.3536C9.55268 12.2598 9.5 12.1326 9.5 12V11C9.5 10.8674 9.55268 10.7402 9.64645 10.6464C9.74021 10.5527 9.86739 10.5 10 10.5C11.6544 10.5 13 9.37875 13 8C13 6.62125 11.6544 5.5 10 5.5C8.34562 5.5 7 6.62125 7 8C7 8.13261 6.94732 8.25979 6.85355 8.35355C6.75979 8.44732 6.63261 8.5 6.5 8.5C6.36739 8.5 6.24021 8.44732 6.14645 8.35355C6.05268 8.25979 6 8.13261 6 8C6 6.07 7.79437 4.5 10 4.5C12.2056 4.5 14 6.07 14 8ZM10 14C9.80222 14 9.60888 14.0586 9.44443 14.1685C9.27998 14.2784 9.15181 14.4346 9.07612 14.6173C9.00043 14.8 8.98063 15.0011 9.01921 15.1951C9.0578 15.3891 9.15304 15.5673 9.29289 15.7071C9.43275 15.847 9.61093 15.9422 9.80491 15.9808C9.99889 16.0194 10.2 15.9996 10.3827 15.9239C10.5654 15.8482 10.7216 15.72 10.8315 15.5556C10.9414 15.3911 11 15.1978 11 15C11 14.7348 10.8946 14.4804 10.7071 14.2929C10.5196 14.1054 10.2652 14 10 14Z" fill="white"/>
</svg>
