<svg width="43" height="42" viewBox="0 0 43 42" fill="none" xmlns="http://www.w3.org/2000/svg">
<rect x="1.28125" y="0.500244" width="41" height="41" rx="20.5" stroke="black"/>
<path d="M22.3123 15.9697L29.8123 23.4697C29.882 23.5394 29.9373 23.6221 29.975 23.7131C30.0127 23.8042 30.0321 23.9018 30.0321 24.0003C30.0321 24.0989 30.0127 24.1964 29.975 24.2875C29.9373 24.3785 29.882 24.4613 29.8123 24.5309C29.7426 24.6006 29.6599 24.6559 29.5688 24.6936C29.4778 24.7313 29.3802 24.7507 29.2817 24.7507C29.1831 24.7507 29.0855 24.7313 28.9945 24.6936C28.9035 24.6559 28.8207 24.6006 28.751 24.5309L21.7817 17.5606L14.8123 24.5309C14.6716 24.6717 14.4807 24.7507 14.2817 24.7507C14.0826 24.7507 13.8918 24.6717 13.751 24.5309C13.6103 24.3902 13.5312 24.1993 13.5312 24.0003C13.5312 23.8013 13.6103 23.6104 13.751 23.4697L21.251 15.9697C21.3207 15.9 21.4034 15.8446 21.4945 15.8069C21.5855 15.7692 21.6831 15.7497 21.7817 15.7497C21.8802 15.7497 21.9778 15.7692 22.0689 15.8069C22.1599 15.8446 22.2426 15.9 22.3123 15.9697Z" fill="black"/>
</svg>
