<svg width="21" height="21" viewBox="0 0 21 21" fill="none" xmlns="http://www.w3.org/2000/svg">
<path d="M20.5658 19.435L15.5642 14.4345C17.0139 12.694 17.7368 10.4618 17.5825 8.20195C17.4282 5.94214 16.4086 3.82881 14.7359 2.30158C13.0631 0.774351 10.866 -0.0491895 8.60148 0.00227455C6.337 0.0537386 4.17953 0.976245 2.57789 2.57789C0.976245 4.17953 0.0537386 6.337 0.00227455 8.60148C-0.0491895 10.866 0.774351 13.0631 2.30158 14.7359C3.82881 16.4086 5.94214 17.4282 8.20195 17.5825C10.4618 17.7368 12.694 17.0139 14.4345 15.5642L19.435 20.5658C19.5093 20.6401 19.5974 20.6989 19.6944 20.7391C19.7914 20.7793 19.8954 20.8 20.0004 20.8C20.1054 20.8 20.2094 20.7793 20.3064 20.7391C20.4034 20.6989 20.4916 20.6401 20.5658 20.5658C20.6401 20.4916 20.6989 20.4034 20.7391 20.3064C20.7793 20.2094 20.8 20.1054 20.8 20.0004C20.8 19.8954 20.7793 19.7914 20.7391 19.6944C20.6989 19.5974 20.6401 19.5093 20.5658 19.435ZM1.62035 8.81255C1.62035 7.39007 2.04216 5.99953 2.83245 4.81677C3.62274 3.63402 4.74601 2.71218 6.06021 2.16782C7.37442 1.62346 8.82053 1.48103 10.2157 1.75854C11.6108 2.03606 12.8924 2.72105 13.8982 3.72689C14.9041 4.73274 15.589 6.01427 15.8666 7.40942C16.1441 8.80457 16.0016 10.2507 15.4573 11.5649C14.9129 12.8791 13.9911 14.0024 12.8083 14.7926C11.6256 15.5829 10.235 16.0048 8.81255 16.0048C6.90571 16.0026 5.07757 15.2442 3.72923 13.8959C2.38089 12.5475 1.62246 10.7194 1.62035 8.81255Z" fill="#324A61"/>
</svg>
