<svg width="20" height="21" viewBox="0 0 20 21" fill="none" xmlns="http://www.w3.org/2000/svg">
<path d="M2.72113 2.4514L18.0756 10.0174C18.3233 10.1394 18.4252 10.4392 18.3031 10.6869C18.2544 10.7857 18.1744 10.8657 18.0756 10.9144L2.72144 18.4802C2.47374 18.6022 2.17399 18.5004 2.05193 18.2527C1.99856 18.1444 1.98619 18.0204 2.0171 17.9037L3.53835 12.159C3.58866 11.969 3.7456 11.8261 3.93946 11.7938L10.8204 10.6465C10.9047 10.6325 10.9744 10.5768 11.0079 10.5011L11.0259 10.441C11.0454 10.3243 10.9805 10.213 10.8759 10.1692L10.8204 10.1533L3.90061 9C3.70668 8.96768 3.54969 8.82471 3.49942 8.63463L2.01676 3.02779C1.94612 2.76083 2.10528 2.48717 2.37224 2.41653C2.48893 2.38566 2.61285 2.39804 2.72113 2.4514Z" fill="white"/>
</svg>
