<svg width="22" height="19" viewBox="0 0 22 19" fill="none" xmlns="http://www.w3.org/2000/svg">
<path d="M21.4581 0.45514C21.3419 0.354798 21.2005 0.288064 21.0492 0.262127C20.8979 0.236191 20.7423 0.252035 20.5994 0.307953L1.59998 7.74327C1.33071 7.84797 1.10275 8.03731 0.950407 8.28279C0.798064 8.52826 0.729587 8.81658 0.755286 9.10434C0.780984 9.3921 0.899467 9.66373 1.0929 9.87832C1.28633 10.0929 1.54423 10.2389 1.82779 10.2942L6.7506 11.2608V16.7498C6.74963 17.0488 6.83848 17.3412 7.00564 17.5891C7.1728 17.837 7.41056 18.029 7.6881 18.1401C7.96522 18.2533 8.26997 18.2805 8.56274 18.2181C8.8555 18.1557 9.12272 18.0067 9.32967 17.7905L11.7034 15.3286L15.4694 18.6248C15.7411 18.8658 16.0915 18.9992 16.4547 18.9998C16.6138 18.9997 16.772 18.9747 16.9234 18.9258C17.1709 18.8472 17.3934 18.7053 17.5689 18.514C17.7444 18.3227 17.8668 18.0887 17.9237 17.8355L21.729 1.28108C21.7631 1.13178 21.7558 0.976034 21.7081 0.830534C21.6604 0.685035 21.574 0.555267 21.4581 0.45514ZM16.4565 17.4998L8.70529 10.703L19.8615 2.70702L16.4565 17.4998Z" fill="#C17C5D"/>
</svg>
