<svg width="18" height="17" viewBox="0 0 18 17" fill="none" xmlns="http://www.w3.org/2000/svg">
<path d="M4.20113 16.3533C4.3964 16.5486 4.71298 16.5486 4.90824 16.3533L8.09022 13.1714C8.28548 12.9761 8.28548 12.6595 8.09022 12.4642C7.89496 12.269 7.57838 12.269 7.38311 12.4642L4.55469 15.2927L1.72626 12.4642C1.531 12.269 1.21442 12.269 1.01915 12.4642C0.823891 12.6595 0.823891 12.9761 1.01915 13.1714L4.20113 16.3533ZM4.05469 0.888672L4.05469 15.9998L5.05469 15.9998L5.05469 0.888672L4.05469 0.888672Z" fill="black"/>
<path d="M13.7989 0.535336C13.6036 0.340074 13.287 0.340074 13.0918 0.535336L9.90978 3.71732C9.71452 3.91258 9.71452 4.22916 9.90978 4.42442C10.105 4.61969 10.4216 4.61969 10.6169 4.42442L13.4453 1.596L16.2737 4.42442C16.469 4.61969 16.7856 4.61969 16.9808 4.42442C17.1761 4.22916 17.1761 3.91258 16.9808 3.71732L13.7989 0.535336ZM13.9453 16L13.9453 0.888889L12.9453 0.888889L12.9453 16L13.9453 16Z" fill="black"/>
</svg>
