<svg width="18" height="18" viewBox="0 0 18 18" fill="none" xmlns="http://www.w3.org/2000/svg">
<path d="M17.6394 9.71973C17.6394 8.72721 16.8319 7.91973 15.8394 7.91973H15.1194V6.83973C15.1194 3.46509 12.374 0.719727 8.99938 0.719727C5.62474 0.719727 2.87937 3.46509 2.87937 6.83973V7.91973H2.15938C1.16686 7.91973 0.359375 8.72721 0.359375 9.71973V11.8797C0.359375 12.8722 1.16686 13.6797 2.15938 13.6797H4.31938V7.91973H3.59938V6.83973C3.59938 3.86217 6.02182 1.43973 8.99938 1.43973C11.9769 1.43973 14.3994 3.86217 14.3994 6.83973V7.91973H13.6794V13.6797H14.3994V15.4797C14.3994 16.0752 13.9148 16.5597 13.3194 16.5597H9.71938V17.2797H13.3194C14.3119 17.2797 15.1194 16.4722 15.1194 15.4797V13.6797H15.8394C16.8319 13.6797 17.6394 12.8722 17.6394 11.8797V9.71973ZM3.59938 12.9597H2.15938C1.56394 12.9597 1.07938 12.4752 1.07938 11.8797V9.71973C1.07938 9.12429 1.56394 8.63973 2.15938 8.63973H3.59938V12.9597ZM16.9194 11.8797C16.9194 12.4752 16.4348 12.9597 15.8394 12.9597H14.3994V8.63973H15.8394C16.4348 8.63973 16.9194 9.12429 16.9194 9.71973V11.8797Z" fill="#324A61" stroke="#324A61"/>
</svg>
