<svg width="122" height="122" viewBox="0 0 122 122" fill="none" xmlns="http://www.w3.org/2000/svg">
<path opacity="0.4" d="M61.0052 0.166992C27.5469 0.166992 0.171875 27.542 0.171875 61.0003C0.171875 94.4587 27.5469 121.834 61.0052 121.834C94.4635 121.834 121.839 94.4587 121.839 61.0003C121.839 27.542 94.4635 0.166992 61.0052 0.166992ZM73.1719 83.5087C70.1302 85.3337 66.4802 84.117 64.6552 81.0753L55.5302 64.042C54.9219 62.8253 54.9219 62.217 54.9219 61.0003V30.5837C54.9219 26.9337 57.3552 24.5003 61.0052 24.5003C64.6552 24.5003 67.0885 26.9337 67.0885 30.5837V59.1753L75.6052 74.992C76.8219 78.0337 76.2135 81.6837 73.1719 83.5087Z" fill="#A85A42"/>
</svg>
