<svg width="22" height="22" viewBox="0 0 22 22" fill="none" xmlns="http://www.w3.org/2000/svg">
<path d="M21.3809 20.2222C19.8448 17.4604 17.4775 15.4801 14.7148 14.5413C16.0814 13.6954 17.1431 12.4063 17.7369 10.8721C18.3308 9.33786 18.4239 7.64335 18.0021 6.04877C17.5802 4.45418 16.6666 3.04769 15.4017 2.04529C14.1367 1.04289 12.5904 0.5 11 0.5C9.40964 0.5 7.86325 1.04289 6.59831 2.04529C5.33337 3.04769 4.41982 4.45418 3.99795 6.04877C3.57608 7.64335 3.66922 9.33786 4.26307 10.8721C4.85691 12.4063 5.91863 13.6954 7.28517 14.5413C4.5225 15.4791 2.15522 17.4594 0.619056 20.2222C0.562723 20.3177 0.525357 20.424 0.509164 20.5348C0.492971 20.6456 0.498278 20.7586 0.524773 20.8672C0.551268 20.9758 0.598414 21.0778 0.663428 21.1672C0.728443 21.2565 0.81001 21.3314 0.903317 21.3875C0.996623 21.4435 1.09978 21.4796 1.2067 21.4935C1.31362 21.5074 1.42214 21.4989 1.52585 21.4685C1.62956 21.4381 1.72636 21.3864 1.81055 21.3165C1.89474 21.2465 1.96461 21.1598 2.01603 21.0613C3.91631 17.6461 7.27508 15.607 11 15.607C14.7249 15.607 18.0837 17.6461 19.984 21.0613C20.0354 21.1598 20.1053 21.2465 20.1894 21.3165C20.2736 21.3864 20.3704 21.4381 20.4742 21.4685C20.5779 21.4989 20.6864 21.5074 20.7933 21.4935C20.9002 21.4796 21.0034 21.4435 21.0967 21.3875C21.19 21.3314 21.2716 21.2565 21.3366 21.1672C21.4016 21.0778 21.4487 20.9758 21.4752 20.8672C21.5017 20.7586 21.507 20.6456 21.4908 20.5348C21.4746 20.424 21.4373 20.3177 21.3809 20.2222ZM5.3516 8.05494C5.3516 6.8932 5.68288 5.75756 6.30353 4.79161C6.92418 3.82566 7.80634 3.07279 8.83845 2.62821C9.87056 2.18364 11.0063 2.06732 12.1019 2.29396C13.1976 2.5206 14.2041 3.08003 14.994 3.9015C15.784 4.72298 16.3219 5.76959 16.5399 6.90901C16.7578 8.04842 16.646 9.22946 16.2184 10.3028C15.7909 11.3761 15.067 12.2934 14.1381 12.9389C13.2092 13.5843 12.1171 13.9288 11 13.9288C9.50244 13.9271 8.06668 13.3077 7.00775 12.2065C5.94882 11.1053 5.35321 9.61227 5.3516 8.05494Z" fill="white"/>
</svg>
