<?xml version="1.0" standalone="no"?>
<!DOCTYPE svg PUBLIC "-//W3C//DTD SVG 20010904//EN"
 "http://www.w3.org/TR/2001/REC-SVG-20010904/DTD/svg10.dtd">
<svg version="1.0" xmlns="http://www.w3.org/2000/svg"
 width="3000.000000pt" height="3000.000000pt" viewBox="0 0 3000.000000 3000.000000"
 preserveAspectRatio="xMidYMid meet">

<g transform="translate(0.000000,3000.000000) scale(0.100000,-0.100000)"
fill="#000000" stroke="none">
<path d="M13720 22819 c-214 -16 -469 -72 -667 -145 -558 -208 -1174 -649
-1669 -1197 l-143 -158 -403 -4 c-746 -8 -1048 -44 -1438 -175 -217 -72 -367
-138 -561 -246 -484 -269 -894 -589 -1385 -1079 -319 -318 -538 -568 -782
-893 -155 -206 -306 -452 -436 -711 -37 -73 -51 -92 -64 -87 -263 90 -343 106
-551 106 -452 0 -891 -170 -1236 -477 -114 -102 -217 -219 -323 -366 -94 -132
-127 -190 -157 -276 -45 -134 -58 -224 -52 -361 7 -145 23 -216 78 -360 83
-217 190 -382 348 -541 147 -146 510 -375 774 -489 733 -314 1537 -360 2326
-134 350 101 747 293 978 475 34 27 70 49 78 49 22 0 439 -150 569 -204 208
-88 373 -184 495 -290 272 -236 372 -556 244 -776 -154 -262 -632 -453 -1283
-511 -178 -16 -638 -15 -975 2 -349 17 -956 18 -1145 1 -717 -64 -1316 -259
-1720 -561 -227 -170 -382 -380 -426 -578 -26 -117 -16 -284 23 -388 33 -89
87 -182 159 -277 128 -168 420 -416 451 -384 4 3 -57 70 -135 147 -165 164
-230 241 -305 362 -235 373 -107 753 357 1062 376 251 925 416 1541 465 192
15 721 13 1035 -5 837 -46 1186 -37 1580 41 244 49 423 109 612 206 333 171
494 417 458 702 -26 207 -123 391 -299 567 -193 192 -456 333 -926 499 -66 23
-131 47 -144 52 l-24 9 45 47 c133 136 262 352 314 527 38 131 45 326 15 445
-92 364 -407 611 -780 611 -332 0 -624 -197 -728 -493 -21 -58 -27 -97 -31
-193 -5 -153 18 -257 88 -400 115 -234 310 -409 618 -551 63 -29 116 -54 118
-57 2 -2 -45 -35 -104 -74 -391 -259 -901 -431 -1432 -483 -147 -15 -493 -15
-635 -1 -390 39 -746 138 -1080 300 -416 202 -676 423 -809 689 -159 317 -191
554 -109 801 59 179 124 284 266 437 350 376 849 583 1347 561 74 -4 164 -14
200 -22 81 -19 218 -64 224 -73 2 -4 -16 -55 -40 -113 -157 -383 -148 -757 22
-939 86 -92 238 -143 360 -121 226 42 370 248 351 504 -21 277 -191 549 -465
743 -11 7 152 313 234 439 53 83 100 152 104 155 3 3 22 28 40 55 19 28 94
127 166 220 598 767 1316 1420 1984 1802 574 329 1088 450 1993 470 152 3 277
3 277 0 0 -4 -28 -44 -61 -89 -339 -457 -658 -1108 -847 -1728 -326 -1069
-389 -2151 -176 -3022 80 -329 182 -610 312 -858 27 -52 82 -160 122 -240 204
-402 588 -942 1038 -1458 174 -199 608 -636 779 -785 691 -600 1403 -994 2148
-1187 410 -107 776 -147 1240 -137 411 9 677 36 774 78 24 11 45 18 46 17 1
-2 10 -28 20 -58 103 -323 325 -693 566 -941 104 -108 159 -131 212 -89 48 38
51 69 41 380 -14 443 -11 696 10 825 102 638 490 1496 964 2135 815 1098 1902
1810 3065 2010 301 51 723 69 987 41 767 -81 1454 -383 1997 -877 562 -512
1073 -1481 1232 -2339 106 -566 86 -1283 -54 -1965 -100 -487 -230 -857 -466
-1330 -134 -267 -199 -382 -544 -961 -342 -572 -366 -608 -504 -753 -76 -78
-233 -214 -216 -186 5 8 40 62 78 120 205 310 343 748 388 1223 15 163 6 589
-16 747 -87 636 -201 976 -458 1367 -200 305 -458 591 -812 899 -599 521
-1218 734 -2133 734 -737 0 -1337 -145 -1931 -465 -493 -266 -849 -572 -1146
-985 -327 -456 -624 -1082 -716 -1510 -27 -125 -36 -379 -19 -532 16 -155 47
-298 69 -328 41 -56 114 -51 143 10 9 20 22 86 28 150 52 534 124 861 237
1085 205 405 799 835 1508 1094 381 139 673 194 1025 194 532 0 1003 -146
1530 -474 496 -307 905 -692 1185 -1113 290 -437 522 -1083 591 -1646 29 -236
5 -565 -57 -790 -98 -353 -384 -620 -849 -793 -233 -87 -447 -127 -715 -134
-202 -5 -274 1 -560 51 -77 13 -186 27 -242 31 l-103 7 44 82 c60 109 102 219
134 345 23 93 26 126 26 271 0 119 -5 186 -17 240 -87 380 -297 657 -638 839
-165 88 -338 146 -837 282 -398 109 -540 157 -717 244 -196 98 -302 175 -506
371 -192 186 -240 216 -339 216 -119 0 -221 -71 -436 -307 -288 -316 -370
-385 -991 -839 -515 -377 -813 -668 -1058 -1036 -340 -509 -417 -978 -225
-1362 147 -294 393 -466 819 -572 418 -105 1018 -130 1696 -71 575 50 1174
168 1627 319 l158 52 16 -50 c58 -178 187 -343 338 -435 106 -64 243 -108 408
-132 122 -18 419 -15 573 5 296 39 482 88 1065 281 692 229 1136 344 1500 391
264 33 537 1 714 -85 76 -37 176 -112 176 -132 0 -5 -13 -9 -29 -9 -46 0 -309
-47 -428 -76 -259 -63 -513 -172 -641 -275 -258 -207 -280 -571 -47 -804 184
-184 483 -204 841 -56 304 125 518 337 575 571 22 89 17 316 -9 424 -12 49
-20 91 -18 93 9 9 419 3 528 -7 260 -26 482 -73 899 -190 568 -160 843 -210
1154 -210 319 0 604 50 742 130 78 45 177 143 237 234 57 86 126 217 126 239
0 7 -17 19 -37 26 -21 8 -43 16 -49 18 -6 2 -30 -33 -53 -78 -98 -191 -207
-306 -342 -360 -147 -58 -493 -90 -760 -70 -273 20 -481 64 -994 209 -154 44
-350 96 -435 116 -299 69 -630 102 -916 93 l-172 -5 -37 54 c-105 152 -287
249 -555 295 -283 49 -566 17 -1145 -131 -293 -75 -470 -128 -935 -284 -550
-184 -803 -244 -1124 -266 -286 -20 -543 15 -698 97 -155 81 -290 252 -322
408 -6 29 -5 31 75 65 302 129 634 358 835 574 65 70 97 98 120 102 54 10 316
-15 475 -45 235 -45 342 -55 534 -48 250 9 478 51 716 132 129 44 378 166 484
237 119 79 275 234 351 349 59 88 133 243 134 278 0 9 9 4 25 -13 41 -44 76
-36 207 47 294 188 510 387 654 602 91 135 610 996 727 1206 339 608 539 1138
656 1739 111 570 145 1206 90 1675 -74 634 -329 1332 -710 1945 -463 746
-1074 1229 -1904 1505 -387 129 -737 186 -1150 186 -465 0 -891 -74 -1365
-236 -1030 -353 -1979 -1122 -2663 -2160 -359 -545 -660 -1227 -781 -1767 -56
-252 -68 -480 -45 -896 6 -108 9 -218 7 -244 l-3 -47 -79 92 c-43 51 -115 148
-161 217 -281 423 -371 756 -405 1498 -51 1106 234 2028 897 2904 248 328 504
582 789 786 487 347 1268 659 1929 771 94 16 226 35 295 43 157 16 648 17 785
0 451 -55 981 -197 1387 -371 422 -181 878 -468 1253 -790 225 -193 845 -824
845 -861 0 -4 12 -22 26 -39 46 -55 120 -36 145 37 20 58 18 429 -4 567 -48
309 -141 578 -385 1115 -275 606 -495 948 -838 1300 l-121 125 -7 85 c-19 238
-91 443 -366 1040 -142 310 -214 449 -320 620 -170 273 -347 488 -645 785
-622 620 -1195 1014 -1850 1273 -393 156 -732 242 -1160 296 -355 44 -471 51
-880 51 -334 -1 -419 -4 -590 -23 -110 -12 -288 -31 -395 -42 -342 -35 -545
-68 -734 -119 l-108 -29 -67 25 c-256 97 -1120 360 -1432 437 -482 119 -906
163 -1279 135z m405 -153 c239 -9 520 -52 825 -127 201 -50 1196 -347 1244
-371 15 -8 -8 -20 -122 -63 -532 -200 -1387 -676 -1772 -985 -255 -205 -555
-490 -728 -693 -149 -174 -388 -508 -567 -792 -308 -488 -734 -1608 -908
-2390 -89 -398 -143 -768 -179 -1235 -16 -210 -16 -861 0 -1040 60 -666 203
-1237 433 -1727 37 -81 44 -101 28 -93 -32 18 -503 486 -639 635 -407 449
-740 889 -1003 1326 -86 143 -202 356 -222 409 -19 51 -101 245 -135 320 -138
305 -239 726 -281 1180 -19 195 -16 683 5 910 110 1210 517 2320 1157 3160
406 533 984 1025 1534 1305 246 126 475 204 719 245 120 20 372 39 441 33 17
-1 93 -5 170 -7z m4545 -376 c565 -35 1037 -126 1453 -279 688 -253 1249 -621
1891 -1241 395 -381 670 -739 861 -1120 117 -233 344 -742 402 -900 34 -93 83
-263 83 -287 0 -7 -42 18 -93 56 -497 369 -1164 654 -1769 755 -216 37 -314
46 -538 53 -482 13 -866 -76 -1500 -347 -961 -411 -1727 -881 -2670 -1637
-554 -444 -811 -680 -1645 -1503 -756 -746 -1391 -1309 -1698 -1505 -95 -60
-217 -114 -294 -130 -233 -49 -361 112 -427 535 -32 203 -80 713 -108 1145
-18 274 -18 1450 0 1670 63 777 190 1282 460 1830 219 444 459 789 777 1114
360 369 664 612 1045 838 612 362 1074 583 1468 702 74 22 139 44 145 50 16
12 235 65 377 90 209 37 623 84 965 110 161 12 625 12 815 1z m2555 -3150
c460 -52 867 -171 1299 -379 512 -246 920 -562 1239 -961 243 -303 397 -572
642 -1125 119 -267 182 -428 233 -586 62 -193 102 -420 102 -574 l0 -70 -282
279 c-484 477 -678 638 -1067 886 -370 236 -688 387 -1091 519 -962 315 -1740
337 -2665 75 -554 -158 -1162 -445 -1545 -730 -347 -257 -672 -614 -962 -1054
-546 -829 -784 -1714 -739 -2747 12 -257 41 -553 67 -676 8 -38 13 -71 12 -72
-13 -11 -173 -37 -308 -50 -989 -94 -1753 36 -2553 436 -344 172 -668 380
-790 508 -170 178 -289 382 -410 701 -258 682 -359 1316 -344 2165 14 748 108
1390 303 2075 48 167 196 621 201 616 2 -2 -3 -35 -12 -75 -8 -39 -26 -149
-39 -244 -111 -776 -101 -1956 25 -3092 49 -447 112 -652 240 -790 117 -124
252 -161 429 -116 173 44 356 153 655 394 406 326 836 723 1672 1542 396 388
551 534 793 746 599 524 1260 1024 1817 1372 534 334 1335 721 1848 892 236
79 467 128 705 149 73 7 428 -3 525 -14z m-14844 -1370 c83 -82 158 -196 200
-303 26 -67 33 -100 37 -182 5 -115 -5 -162 -47 -226 -44 -65 -91 -92 -165
-97 -122 -8 -207 42 -246 144 -62 168 -41 425 57 681 l35 93 32 -22 c17 -12
61 -52 97 -88z m1969 -446 c201 -59 365 -224 424 -424 79 -268 -32 -589 -303
-873 l-69 -72 -54 19 c-177 61 -407 195 -516 300 -153 146 -252 353 -252 529
0 256 184 470 456 531 84 19 233 14 314 -10z m13030 -4758 c735 -92 1195 -332
1806 -941 430 -429 688 -842 805 -1289 141 -539 175 -1078 98 -1556 -62 -391
-180 -706 -368 -980 -149 -218 -231 -334 -231 -326 0 4 9 57 20 119 65 370 50
645 -60 1092 -119 483 -311 933 -552 1292 -471 704 -1365 1350 -2143 1552
-707 184 -1404 87 -2210 -309 -228 -112 -423 -229 -587 -353 -251 -189 -394
-337 -523 -543 -30 -48 -55 -85 -55 -82 0 13 86 200 155 338 396 791 824 1239
1530 1601 429 220 851 346 1305 388 63 6 131 13 150 15 19 2 190 3 380 1 248
-2 383 -7 480 -19z m-3347 -3257 c11 -7 91 -79 176 -162 193 -185 327 -287
490 -371 217 -111 345 -156 826 -287 522 -142 707 -210 879 -323 268 -174 432
-444 467 -769 26 -235 -46 -495 -200 -729 -50 -74 -53 -77 -99 -83 -272 -37
-408 -86 -613 -224 -233 -155 -337 -278 -379 -441 l-16 -65 -185 -62 c-526
-177 -1178 -294 -1863 -334 -255 -15 -824 -6 -991 15 -226 29 -460 82 -603
136 -490 187 -687 633 -507 1150 120 343 360 679 747 1046 192 182 503 432
739 594 295 203 354 252 649 549 345 346 413 397 483 360z m2406 -2915 c-49
-54 -208 -180 -315 -251 -146 -96 -384 -220 -384 -200 0 27 88 135 157 192
154 128 333 228 473 264 97 26 98 26 69 -5z m4033 -1077 c44 -144 49 -361 10
-469 -57 -160 -234 -321 -454 -415 -152 -64 -257 -87 -398 -87 -107 0 -133 3
-182 23 -81 31 -160 106 -200 189 -32 64 -33 72 -33 182 0 107 2 119 28 168
112 213 499 377 1074 457 138 19 134 20 155 -48z"/>
</g>
</svg>
