<?xml version="1.0" standalone="no"?>
<!DOCTYPE svg PUBLIC "-//W3C//DTD SVG 20010904//EN"
 "http://www.w3.org/TR/2001/REC-SVG-20010904/DTD/svg10.dtd">
<svg version="1.0" xmlns="http://www.w3.org/2000/svg"
 width="3000.000000pt" height="3000.000000pt" viewBox="0 0 3000.000000 3000.000000"
 preserveAspectRatio="xMidYMid meet">

<g transform="translate(0.000000,3000.000000) scale(0.100000,-0.100000)"
fill="#000000" stroke="none">
<path d="M8375 28652 c-94 -58 -594 -548 -878 -860 -1215 -1338 -2187 -2851
-2900 -4512 -757 -1767 -1186 -3654 -1268 -5585 -15 -351 -6 -1255 15 -1580
69 -1032 214 -1964 458 -2930 563 -2237 1615 -4341 3089 -6180 403 -503 740
-877 1244 -1380 614 -615 1170 -1099 1825 -1591 1848 -1389 4080 -2464 6237
-3008 539 -136 1482 -330 1656 -340 l97 -6 0 34 c0 18 -6 38 -12 43 -7 6 -58
18 -113 28 -1014 176 -2430 598 -3625 1080 -3049 1230 -5703 3272 -7593 5841
-1800 2447 -2869 5331 -3067 8274 -45 677 -43 1485 5 2160 233 3224 1445 6273
3547 8918 328 411 624 752 1197 1373 112 121 161 182 161 201 0 9 -29 38 -38
38 -4 0 -20 -8 -37 -18z"/>
</g>
</svg>
