<svg xmlns:dc="http://purl.org/dc/elements/1.1/" xmlns:cc="http://creativecommons.org/ns#" xmlns:rdf="http://www.w3.org/1999/02/22-rdf-syntax-ns#" xmlns:svg="http://www.w3.org/2000/svg" xmlns="http://www.w3.org/2000/svg" xmlns:sodipodi="http://sodipodi.sourceforge.net/DTD/sodipodi-0.dtd" xmlns:inkscape="http://www.inkscape.org/namespaces/inkscape" version="1.1" x="0px" y="0px" viewBox="0 0 100 125"><g transform="translate(0,-952.36218)"><path style="text-indent:0;text-transform:none;direction:ltr;block-progression:tb;baseline-shift:baseline;color:#000000;enable-background:accumulate;" d="m 49.96875,958.36216 c -14.88724,0 -26.96875,12.09798 -26.96875,27 0,3.56391 0.95754,7.68378 2.125,10.71875 7.71399,15.69129 15.40212,33.43859 23.09375,49.15629 0.33319,0.6523 1.04883,1.125 1.78125,1.125 0.73242,0 1.44806,-0.4727 1.78125,-1.125 7.78274,-15.6715 15.26103,-33.5253 23.09375,-49.15629 1.17572,-3.04053 2.125,-7.15613 2.125,-10.71875 0,-14.90803 -12.14386,-27 -27.03125,-27 z m 0,4 c 12.72942,0 23.03125,10.25661 23.03125,23 0,2.79036 -0.89054,6.73534 -1.875,9.28125 L 50,1039.831 28.875,994.64341 C 27.89432,992.094 27,988.14841 27,985.36216 c 0,-12.7494 10.23951,-23 22.96875,-23 z m 0,8 c -8.25926,0 -14.96875,6.73436 -14.96875,15 0,8.26565 6.70946,15.00004 14.96875,15.00004 8.25936,0 15.03125,-6.72833 15.03125,-15.00004 0,-8.27171 -6.77191,-15 -15.03125,-15 z m 0,4 c 6.10139,0 11.03125,4.89299 11.03125,11 0,6.10703 -4.92988,11 -11.03125,11 -6.10127,0 -10.96875,-4.88691 -10.96875,-11 0,-6.11308 4.86746,-11 10.96875,-11 z" fill="#000000" fill-opacity="1" fill-rule="nonzero" stroke="none" marker="none" visibility="visible" display="inline" overflow="visible"/></g><text x="0" y="115" fill="#000000" font-size="5px" font-weight="bold" font-family="'Helvetica Neue', Helvetica, Arial-Unicode, Arial, Sans-serif">Created by Aya Sofya</text><text x="0" y="120" fill="#000000" font-size="5px" font-weight="bold" font-family="'Helvetica Neue', Helvetica, Arial-Unicode, Arial, Sans-serif">from the Noun Project</text></svg>