<svg width="64" height="64" viewBox="0 0 64 64" fill="none" xmlns="http://www.w3.org/2000/svg">
<path d="M50.6846 40.5998C50.439 40.6003 50.2012 40.5131 50.0141 40.354C49.827 40.1948 49.7027 39.9742 49.6637 39.7317C49.6246 39.4892 49.6733 39.2407 49.801 39.0309C49.9288 38.821 50.1271 38.6636 50.3605 38.5869C53.1524 37.6587 55.5227 35.767 57.0471 33.2506C58.5716 30.7342 59.1505 27.7573 58.6804 24.853C58.2102 21.9487 56.7216 19.3065 54.4811 17.3996C52.2406 15.4926 49.3945 14.4454 46.4523 14.4454C43.5101 14.4454 40.664 15.4926 38.4235 17.3996C36.183 19.3065 34.6944 21.9487 34.2242 24.853C33.7541 27.7573 34.333 30.7342 35.8575 33.2506C37.3819 35.767 39.7522 37.6587 42.5441 38.5869C42.8042 38.6729 43.0195 38.8587 43.1426 39.1034C43.2657 39.348 43.2866 39.6316 43.2007 39.8917C43.1147 40.1518 42.9289 40.3671 42.6842 40.4902C42.4395 40.6133 42.1559 40.6342 41.8959 40.5482C38.6381 39.4659 35.872 37.2593 34.0929 34.3236C32.3138 31.3878 31.6378 27.9146 32.186 24.5259C32.7342 21.1372 34.4708 18.0542 37.0848 15.8291C39.6988 13.604 43.0195 12.3821 46.4523 12.3821C49.8851 12.3821 53.2058 13.604 55.8198 15.8291C58.4339 18.0542 60.1704 21.1372 60.7186 24.5259C61.2668 27.9146 60.5908 31.3878 58.8117 34.3236C57.0326 37.2593 54.2665 39.4659 51.0087 40.5482C50.9042 40.5829 50.7947 40.6003 50.6846 40.5998Z" fill="#3C2E25"/>
<path d="M35.0972 55.7419H3.09681C2.27549 55.7419 1.4878 55.4157 0.907035 54.8349C0.32627 54.2542 0 53.4665 0 52.6452V3.09677C0 2.27546 0.32627 1.48778 0.907035 0.907024C1.4878 0.326266 2.27549 0 3.09681 0H30.9681C31.2419 5.84644e-05 31.5044 0.108852 31.6979 0.302452L40.9884 9.59277C41.182 9.78631 41.2907 10.0488 41.2908 10.3226V14.9368C41.2908 15.2105 41.1821 15.4731 40.9885 15.6667C40.7949 15.8603 40.5323 15.969 40.2585 15.969C39.9848 15.969 39.7222 15.8603 39.5286 15.6667C39.335 15.4731 39.2263 15.2105 39.2263 14.9368V10.7499L30.5407 2.06452H3.09681C2.82304 2.06452 2.56047 2.17327 2.36689 2.36686C2.1733 2.56044 2.06454 2.823 2.06454 3.09677V52.6452C2.06454 52.9189 2.1733 53.1815 2.36689 53.3751C2.56047 53.5687 2.82304 53.6774 3.09681 53.6774H35.0972C35.371 53.6774 35.6335 53.7862 35.8271 53.9798C36.0207 54.1733 36.1295 54.4359 36.1295 54.7097C36.1295 54.9834 36.0207 55.246 35.8271 55.4396C35.6335 55.6332 35.371 55.7419 35.0972 55.7419Z" fill="#3C2E25"/>
<path d="M17.5488 43.3548H7.22612C6.95234 43.3548 6.68978 43.246 6.49619 43.0525C6.3026 42.8589 6.19385 42.5963 6.19385 42.3225C6.19385 42.0488 6.3026 41.7862 6.49619 41.5926C6.68978 41.399 6.95234 41.2903 7.22612 41.2903H17.5488C17.8226 41.2903 18.0852 41.399 18.2787 41.5926C18.4723 41.7862 18.5811 42.0488 18.5811 42.3225C18.5811 42.5963 18.4723 42.8589 18.2787 43.0525C18.0852 43.246 17.8226 43.3548 17.5488 43.3548Z" fill="#3C2E25"/>
<path d="M28.9038 27.8709H7.22612C6.95234 27.8709 6.68978 27.7622 6.49619 27.5686C6.3026 27.375 6.19385 27.1124 6.19385 26.8387C6.19385 26.5649 6.3026 26.3023 6.49619 26.1087C6.68978 25.9152 6.95234 25.8064 7.22612 25.8064H28.9038C29.1776 25.8064 29.4401 25.9152 29.6337 26.1087C29.8273 26.3023 29.9361 26.5649 29.9361 26.8387C29.9361 27.1124 29.8273 27.375 29.6337 27.5686C29.4401 27.7622 29.1776 27.8709 28.9038 27.8709Z" fill="#3C2E25"/>
<path d="M29.9361 33.0323H7.22612C6.95234 33.0323 6.68978 32.9235 6.49619 32.7299C6.3026 32.5364 6.19385 32.2738 6.19385 32C6.19385 31.7263 6.3026 31.4637 6.49619 31.2701C6.68978 31.0765 6.95234 30.9678 7.22612 30.9678H29.9361C30.2098 30.9678 30.4724 31.0765 30.666 31.2701C30.8596 31.4637 30.9683 31.7263 30.9683 32C30.9683 32.2738 30.8596 32.5364 30.666 32.7299C30.4724 32.9235 30.2098 33.0323 29.9361 33.0323Z" fill="#3C2E25"/>
<path d="M32.0006 38.1937H7.22612C6.95234 38.1937 6.68978 38.0849 6.49619 37.8913C6.3026 37.6977 6.19385 37.4352 6.19385 37.1614C6.19385 36.8876 6.3026 36.6251 6.49619 36.4315C6.68978 36.2379 6.95234 36.1292 7.22612 36.1292H32.0006C32.2744 36.1292 32.5369 36.2379 32.7305 36.4315C32.9241 36.6251 33.0329 36.8876 33.0329 37.1614C33.0329 37.4352 32.9241 37.6977 32.7305 37.8913C32.5369 38.0849 32.2744 38.1937 32.0006 38.1937Z" fill="#3C2E25"/>
<path d="M11.3552 19.6129H7.22612C6.95234 19.6129 6.68978 19.5041 6.49619 19.3105C6.3026 19.1169 6.19385 18.8544 6.19385 18.5806C6.19385 18.3068 6.3026 18.0443 6.49619 17.8507C6.68978 17.6571 6.95234 17.5483 7.22612 17.5483H11.3552C11.629 17.5483 11.8915 17.4396 12.0851 17.246C12.2787 17.0524 12.3875 16.7899 12.3875 16.5161C12.3875 16.2423 12.2787 15.9798 12.0851 15.7862C11.8915 15.5926 11.629 15.4838 11.3552 15.4838H9.29066C8.46933 15.4838 7.68165 15.1576 7.10088 14.5768C6.52012 13.9961 6.19385 13.2084 6.19385 12.3871C6.19385 11.5657 6.52012 10.7781 7.10088 10.1973C7.68165 9.61655 8.46933 9.29028 9.29066 9.29028H13.4197C13.6935 9.29028 13.9561 9.39904 14.1497 9.59262C14.3433 9.78621 14.452 10.0488 14.452 10.3225C14.452 10.5963 14.3433 10.8589 14.1497 11.0525C13.9561 11.246 13.6935 11.3548 13.4197 11.3548H9.29066C9.01688 11.3548 8.75432 11.4636 8.56073 11.6571C8.36715 11.8507 8.25839 12.1133 8.25839 12.3871C8.25839 12.6608 8.36715 12.9234 8.56073 13.117C8.75432 13.3106 9.01688 13.4193 9.29066 13.4193H11.3552C12.1765 13.4193 12.9642 13.7456 13.545 14.3263C14.1257 14.9071 14.452 15.6948 14.452 16.5161C14.452 17.3374 14.1257 18.1251 13.545 18.7058C12.9642 19.2866 12.1765 19.6129 11.3552 19.6129Z" fill="#3C2E25"/>
<path d="M10.3228 11.3549C10.049 11.3549 9.78646 11.2461 9.59287 11.0525C9.39928 10.8589 9.29053 10.5964 9.29053 10.3226V8.25809C9.29053 7.98432 9.39928 7.72176 9.59287 7.52817C9.78646 7.33459 10.049 7.22583 10.3228 7.22583C10.5966 7.22583 10.8591 7.33459 11.0527 7.52817C11.2463 7.72176 11.3551 7.98432 11.3551 8.25809V10.3226C11.3551 10.5964 11.2463 10.8589 11.0527 11.0525C10.8591 11.2461 10.5966 11.3549 10.3228 11.3549Z" fill="#3C2E25"/>
<path d="M10.3228 21.6774C10.049 21.6774 9.78646 21.5686 9.59287 21.375C9.39928 21.1814 9.29053 20.9189 9.29053 20.6451V18.5806C9.29053 18.3068 9.39928 18.0443 9.59287 17.8507C9.78646 17.6571 10.049 17.5483 10.3228 17.5483C10.5966 17.5483 10.8591 17.6571 11.0527 17.8507C11.2463 18.0443 11.3551 18.3068 11.3551 18.5806V20.6451C11.3551 20.9189 11.2463 21.1814 11.0527 21.375C10.8591 21.5686 10.5966 21.6774 10.3228 21.6774Z" fill="#3C2E25"/>
<path d="M40.2587 11.3549H33.0328C32.2115 11.3549 31.4238 11.0286 30.8431 10.4478C30.2623 9.86708 29.936 9.0794 29.936 8.25809V1.03228C29.9361 0.828153 29.9966 0.628619 30.1101 0.458906C30.2235 0.289192 30.3847 0.156919 30.5733 0.0788083C30.7619 0.000697251 30.9694 -0.0197446 31.1696 0.0200671C31.3698 0.0598788 31.5538 0.158156 31.6981 0.302476L40.9886 9.5928C41.1329 9.73716 41.2312 9.92107 41.271 10.1213C41.3108 10.3215 41.2903 10.529 41.2122 10.7176C41.1341 10.9062 41.0018 11.0674 40.8321 11.1808C40.6624 11.2943 40.4629 11.3548 40.2587 11.3549ZM32.0006 3.52415V8.25809C32.0006 8.53186 32.1093 8.79442 32.3029 8.98801C32.4965 9.18159 32.7591 9.29035 33.0328 9.29035H37.7668L32.0006 3.52415Z" fill="#3C2E25"/>
<path d="M41.2908 33.0324C41.0867 33.0323 40.8872 32.9718 40.7175 32.8583C40.5477 32.7449 40.4155 32.5837 40.3374 32.3951C40.2592 32.2065 40.2388 31.999 40.2786 31.7988C40.3184 31.5986 40.4167 31.4147 40.561 31.2703L50.8837 20.9477C51.0784 20.7597 51.3392 20.6556 51.6098 20.658C51.8805 20.6603 52.1394 20.7689 52.3308 20.9603C52.5222 21.1517 52.6307 21.4106 52.6331 21.6812C52.6354 21.9519 52.5314 22.2127 52.3434 22.4073L42.0207 32.7299C41.8271 32.9235 41.5646 33.0323 41.2908 33.0324Z" fill="#3C2E25"/>
<path d="M50.5812 34.0644C49.9687 34.0644 49.37 33.8828 48.8607 33.5425C48.3514 33.2022 47.9545 32.7186 47.7201 32.1527C47.4857 31.5868 47.4244 30.9642 47.5439 30.3635C47.6634 29.7628 47.9583 29.211 48.3914 28.7779C48.8245 28.3448 49.3763 28.0498 49.977 27.9304C50.5778 27.8109 51.2004 27.8722 51.7663 28.1066C52.3322 28.341 52.8158 28.7379 53.1561 29.2472C53.4964 29.7564 53.678 30.3551 53.678 30.9676C53.678 31.7889 53.3517 32.5766 52.771 33.1574C52.1902 33.7381 51.4025 34.0644 50.5812 34.0644ZM50.5812 29.9354C50.377 29.9354 50.1774 29.9959 50.0077 30.1093C49.8379 30.2228 49.7056 30.384 49.6275 30.5726C49.5494 30.7612 49.5289 30.9688 49.5688 31.169C49.6086 31.3692 49.7069 31.5532 49.8513 31.6975C49.9956 31.8419 50.1796 31.9402 50.3798 31.98C50.58 32.0199 50.7876 31.9994 50.9762 31.9213C51.1648 31.8432 51.3261 31.7109 51.4395 31.5411C51.5529 31.3714 51.6135 31.1718 51.6135 30.9676C51.6135 30.6939 51.5047 30.4313 51.3111 30.2377C51.1175 30.0441 50.855 29.9354 50.5812 29.9354Z" fill="#3C2E25"/>
<path d="M42.3229 25.8063C41.7104 25.8063 41.1117 25.6247 40.6024 25.2844C40.0931 24.9442 39.6962 24.4605 39.4618 23.8947C39.2274 23.3288 39.1661 22.7061 39.2856 22.1054C39.4051 21.5047 39.7 20.9529 40.1331 20.5198C40.5662 20.0867 41.118 19.7918 41.7187 19.6723C42.3195 19.5528 42.9421 19.6141 43.508 19.8485C44.0739 20.0829 44.5575 20.4798 44.8978 20.9891C45.2381 21.4984 45.4197 22.0971 45.4197 22.7096C45.4197 23.5309 45.0934 24.3186 44.5127 24.8993C43.9319 25.4801 43.1442 25.8063 42.3229 25.8063ZM42.3229 21.6773C42.1187 21.6773 41.9191 21.7379 41.7494 21.8513C41.5796 21.9647 41.4473 22.1259 41.3692 22.3145C41.2911 22.5032 41.2706 22.7107 41.3105 22.911C41.3503 23.1112 41.4486 23.2951 41.593 23.4395C41.7373 23.5839 41.9213 23.6822 42.1215 23.722C42.3217 23.7618 42.5293 23.7414 42.7179 23.6633C42.9065 23.5851 43.0678 23.4528 43.1812 23.2831C43.2946 23.1133 43.3552 22.9137 43.3552 22.7096C43.3552 22.4358 43.2464 22.1732 43.0528 21.9797C42.8592 21.7861 42.5967 21.6773 42.3229 21.6773Z" fill="#3C2E25"/>
<path d="M50.5814 64.0001H42.3233C42.0495 64.0001 41.7869 63.8913 41.5934 63.6978C41.3998 63.5042 41.291 63.2416 41.291 62.9678V53.6775C41.291 53.4037 41.3998 53.1412 41.5934 52.9476C41.7869 52.754 42.0495 52.6453 42.3233 52.6453H50.5814C50.8552 52.6453 51.1178 52.754 51.3114 52.9476C51.505 53.1412 51.6137 53.4037 51.6137 53.6775V62.9678C51.6137 63.2416 51.505 63.5042 51.3114 63.6978C51.1178 63.8913 50.8552 64.0001 50.5814 64.0001ZM43.3556 61.9356H49.5492V54.7098H43.3556V61.9356Z" fill="#3C2E25"/>
<path d="M57.8071 64H35.0972C34.8234 64 34.5608 63.8913 34.3672 63.6977C34.1736 63.5041 34.0649 63.2415 34.0649 62.9678V50.5807H29.9358C29.7227 50.5805 29.5148 50.5144 29.3407 50.3913C29.1667 50.2683 29.035 50.0944 28.9637 49.8935C28.8924 49.6926 28.8851 49.4746 28.9427 49.2694C29.0003 49.0642 29.1201 48.8818 29.2855 48.7474L45.8018 35.328C45.9857 35.1788 46.2153 35.0974 46.4521 35.0974C46.6889 35.0974 46.9186 35.1788 47.1025 35.328L63.6188 48.7474C63.7842 48.8818 63.9039 49.0642 63.9615 49.2694C64.0192 49.4746 64.0118 49.6926 63.9406 49.8935C63.8693 50.0944 63.7376 50.2683 63.5635 50.3913C63.3895 50.5144 63.1816 50.5805 62.9685 50.5807H58.8394V62.9678C58.8394 63.2415 58.7306 63.5041 58.537 63.6977C58.3434 63.8913 58.0809 64 57.8071 64ZM36.1294 61.9355H56.7748V49.5484C56.7748 49.2746 56.8836 49.0121 57.0772 48.8185C57.2708 48.6249 57.5333 48.5162 57.8071 48.5162H60.0616L46.4521 37.4596L32.8427 48.5162H35.0972C35.3709 48.5162 35.6335 48.6249 35.8271 48.8185C36.0207 49.0121 36.1294 49.2746 36.1294 49.5484V61.9355Z" fill="#3C2E25"/>
</svg>
