<svg width="56" height="56" viewBox="0 0 56 56" fill="none" xmlns="http://www.w3.org/2000/svg">
<path d="M39.4806 51.3955V50.4181C39.4806 49.6779 39.1866 48.968 38.6632 48.4446C38.1398 47.9212 37.4299 47.6272 36.6897 47.6272H23.6653C22.9251 47.6272 22.2152 47.9212 21.6918 48.4446C21.1684 48.968 20.8744 49.6779 20.8744 50.4181V51.3955C20.3098 51.5109 19.8081 51.8317 19.4665 52.2959C19.125 52.7601 18.968 53.3346 19.0259 53.908C19.0839 54.4814 19.3526 55.0128 19.7801 55.3993C20.2075 55.7858 20.7632 55.9999 21.3395 56H39.0155C39.5918 55.9999 40.1475 55.7858 40.575 55.3993C41.0024 55.0128 41.2712 54.4814 41.3291 53.908C41.387 53.3346 41.23 52.7601 40.8885 52.2959C40.547 51.8317 40.0453 51.5109 39.4806 51.3955ZM22.735 50.4181C22.735 50.1714 22.833 49.9348 23.0075 49.7603C23.182 49.5858 23.4186 49.4878 23.6653 49.4878H36.6897C36.9364 49.4878 37.1731 49.5858 37.3475 49.7603C37.522 49.9348 37.62 50.1714 37.62 50.4181V51.3484H22.735V50.4181ZM39.0155 54.1394H21.3395C21.2162 54.1394 21.0979 54.0904 21.0106 54.0031C20.9234 53.9159 20.8744 53.7976 20.8744 53.6742C20.8744 53.5508 20.9234 53.4325 21.0106 53.3453C21.0979 53.2581 21.2162 53.2091 21.3395 53.2091H39.0155C39.1388 53.2091 39.2572 53.2581 39.3444 53.3453C39.4316 53.4325 39.4806 53.5508 39.4806 53.6742C39.4806 53.7976 39.4316 53.9159 39.3444 54.0031C39.2572 54.0904 39.1388 54.1394 39.0155 54.1394ZM45.9928 20.7802V18.3223C45.9871 14.9065 44.9078 11.5788 42.9074 8.80992C40.9071 6.04104 38.0869 3.97103 34.8458 2.89261L34.8781 2.60515C34.8818 2.57059 34.8836 2.53587 34.8836 2.50112C34.8836 0.656847 32.2126 0 29.7124 0C27.2121 0 24.5411 0.656801 24.5411 2.50112C24.5411 2.53587 24.5429 2.57059 24.5466 2.60515L24.5789 2.89261C21.3378 3.97103 18.5176 6.04104 16.5173 8.80992C14.5169 11.5788 13.4376 14.9065 13.4319 18.3223V20.7802C12.5553 21.0051 11.7909 21.5423 11.2825 22.291C10.774 23.0396 10.5565 23.9482 10.6707 24.846C10.785 25.7437 11.2232 26.5689 11.9029 27.1664C12.5827 27.7638 13.4572 28.0925 14.3622 28.0906H15.7849L13.7508 30.1248C13.4049 30.4684 13.1762 30.9123 13.0972 31.3934C13.0182 31.8745 13.0928 32.3682 13.3106 32.8045C13.5283 33.2407 13.8781 33.5971 14.3101 33.8231C14.7421 34.0491 15.2343 34.1331 15.7168 34.0632L18.685 37.0315L8.81753 46.899C8.55836 47.1582 8.35277 47.4658 8.2125 47.8044C8.07223 48.143 8.00002 48.5059 8 48.8724C7.99998 49.2389 8.07215 49.6018 8.21238 49.9404C8.35261 50.279 8.55816 50.5867 8.8173 50.8458C9.07644 51.105 9.38409 51.3106 9.72268 51.4509C10.0613 51.5911 10.4242 51.6633 10.7907 51.6634C11.1572 51.6634 11.5201 51.5912 11.8587 51.451C12.1973 51.3108 12.505 51.1052 12.7641 50.8461L22.6317 40.9784L25.6029 43.9497C25.55 44.3046 25.5809 44.667 25.6933 45.0079C25.8057 45.3487 25.9964 45.6585 26.25 45.9124C26.6865 46.3478 27.2779 46.5924 27.8944 46.5924C28.511 46.5924 29.1024 46.3478 29.5388 45.9124L35.4596 39.9921C35.895 39.5555 36.1396 38.9641 36.1396 38.3475C36.1396 37.7309 35.895 37.1394 35.4596 36.7028C35.2038 36.4575 34.8958 36.2728 34.5586 36.1636C34.2215 36.0544 33.864 36.023 33.5129 36.0718L25.5311 28.0906H45.0625C45.9675 28.0925 46.842 27.7638 47.5218 27.1664C48.2015 26.5689 48.6397 25.7437 48.754 24.846C48.8682 23.9482 48.6507 23.0396 48.1422 22.291C47.6338 21.5423 46.8695 21.0051 45.9928 20.7802ZM11.4486 49.5305C11.2742 49.705 11.0375 49.803 10.7908 49.803C10.5441 49.803 10.3075 49.705 10.1331 49.5305C9.95863 49.3561 9.86063 49.1195 9.86063 48.8728C9.86063 48.626 9.95863 48.3894 10.1331 48.215L20.0004 38.3472L21.3159 39.6632L11.4486 49.5305ZM44.1322 18.3223V20.6481H38.31C37.6593 16.4636 38.2836 12.1801 40.1015 8.35542C42.6868 11.0293 44.1321 14.603 44.1322 18.3223ZM29.7124 1.86061C30.851 1.77217 31.9925 1.99134 33.0175 2.49519L31.9309 12.1526C31.8696 12.6982 31.6095 13.202 31.2002 13.5678C30.791 13.9337 30.2613 14.136 29.7123 14.136C29.1634 14.136 28.6337 13.9337 28.2244 13.5678C27.8151 13.202 27.555 12.6982 27.4937 12.1526L26.4126 2.54199C27.4212 1.99415 28.5693 1.75707 29.7124 1.86061ZM25.6441 12.3607C25.7567 13.3608 26.2338 14.2844 26.9843 14.9551C27.7347 15.6258 28.7059 15.9965 29.7124 15.9965C30.7189 15.9965 31.6901 15.6258 32.4405 14.9551C33.191 14.2844 33.6681 13.3608 33.7807 12.3607L34.6329 4.78544C36.0904 5.31668 37.4527 6.07953 38.6673 7.04461C36.5713 10.8877 35.8356 15.3995 36.4338 20.6481H22.991C23.5892 15.3995 22.8535 10.8877 20.7575 7.04461C21.9721 6.07955 23.3344 5.31671 24.7919 4.78549L25.6441 12.3607ZM15.2925 18.3223C15.2926 14.603 16.7379 11.0293 19.3232 8.35548C21.1411 12.1802 21.7654 16.4636 21.1147 20.6481H15.2925V18.3223ZM15.0663 31.4403L20.987 25.52C21.0288 25.4743 21.0796 25.4379 21.1362 25.4129C21.1928 25.3879 21.2539 25.375 21.3158 25.375C21.3777 25.3749 21.4389 25.3877 21.4955 25.4126C21.5521 25.4375 21.603 25.4739 21.6448 25.5195C21.732 25.6068 21.781 25.7252 21.781 25.8486C21.781 25.9721 21.732 26.0905 21.6448 26.1777L18.6848 29.1379L15.7249 32.0982C15.6376 32.1852 15.5193 32.234 15.3961 32.2339C15.2728 32.2339 15.1546 32.1849 15.0674 32.0978C14.9802 32.0107 14.9311 31.8926 14.9309 31.7693C14.9307 31.646 14.9794 31.5277 15.0663 31.4403ZM20.0004 30.4534L22.6314 27.8221L31.8419 37.0317L26.5787 42.2945L17.3694 33.0847L20.0004 30.4534ZM34.1441 38.6766L28.2233 44.5969C28.1359 44.6837 28.0177 44.7324 27.8944 44.7324C27.7712 44.7324 27.653 44.6837 27.5656 44.5969C27.5203 44.5548 27.4843 44.504 27.4596 44.4474C27.4349 44.3908 27.4222 44.3297 27.4222 44.268C27.4222 44.2063 27.4349 44.1452 27.4596 44.0886C27.4843 44.032 27.5203 43.9811 27.5656 43.9391L33.4863 38.0184C33.5281 37.9728 33.579 37.9364 33.6356 37.9115C33.6922 37.8866 33.7534 37.8738 33.8153 37.8738C33.8772 37.8738 33.9383 37.8868 33.9949 37.9117C34.0515 37.9367 34.1023 37.9732 34.1441 38.0188C34.1873 38.062 34.2215 38.1133 34.2449 38.1697C34.2683 38.2261 34.2803 38.2866 34.2803 38.3477C34.2803 38.4088 34.2683 38.4693 34.2449 38.5257C34.2215 38.5821 34.1873 38.6334 34.1441 38.6766ZM45.0625 26.23H23.6704L23.6097 26.1693C23.6613 25.8138 23.6294 25.4512 23.5167 25.1101C23.404 24.769 23.2135 24.4588 22.9603 24.204C22.5172 23.7813 21.9283 23.5455 21.3159 23.5455C20.7035 23.5455 20.1146 23.7813 19.6715 24.204L17.6455 26.23H14.3622C13.8687 26.23 13.3955 26.034 13.0465 25.685C12.6976 25.3361 12.5016 24.8628 12.5016 24.3694C12.5016 23.8759 12.6976 23.4026 13.0465 23.0537C13.3955 22.7048 13.8687 22.5087 14.3622 22.5087H45.0625C45.556 22.5087 46.0292 22.7048 46.3782 23.0537C46.7271 23.4026 46.9231 23.8759 46.9231 24.3694C46.9231 24.8628 46.7271 25.3361 46.3782 25.685C46.0292 26.034 45.556 26.23 45.0625 26.23Z" fill="#736D6A"/>
</svg>
