<svg width="56" height="56" viewBox="0 0 56 56" fill="none" xmlns="http://www.w3.org/2000/svg">
<path d="M30.4063 6.9125C30.2313 6.9125 30.0563 6.825 29.8813 6.7375C29.5313 6.475 29.4438 5.8625 29.7063 5.5125C29.8813 5.25 29.9688 5.075 29.9688 4.8125C29.9688 4.375 29.3563 3.325 28.5688 2.275C27.7813 3.325 27.1688 4.375 27.1688 4.8125C27.1688 5.075 27.2563 5.3375 27.3438 5.6C27.5188 6.0375 27.3438 6.5625 26.9938 6.7375C26.5563 6.9125 26.0313 6.7375 25.8563 6.3875C25.5938 5.8625 25.5063 5.425 25.5063 4.9C25.5063 3.5 27.4313 1.05 27.9563 0.4375C28.0438 0.0875 28.3063 0 28.5688 0C28.8313 0 29.0938 0.0875 29.2688 0.35C29.8813 1.05 31.7188 3.4125 31.7188 4.8125C31.7188 5.425 31.5438 6.0375 31.1063 6.5625C30.9313 6.825 30.6688 6.9125 30.4063 6.9125Z" fill="#736D6A"/>
<path d="M20.7812 56H3.80615C3.28115 56 2.93115 55.65 2.93115 55.125V39.725C2.93115 39.55 3.01865 39.375 3.10615 39.2875L11.1562 26.95C11.4187 26.5125 11.9437 26.425 12.3812 26.6875C12.8187 26.95 12.9062 27.475 12.6437 27.9125L4.76865 40.075V54.25H20.8687C21.3937 54.25 21.7437 54.6 21.7437 55.125C21.7437 55.65 21.3062 56 20.7812 56Z" fill="#736D6A"/>
<path d="M53.4188 56H20.7813C20.2562 56 19.9062 55.65 19.9062 55.125V38.15C19.9062 37.625 20.2562 37.275 20.7813 37.275C21.3063 37.275 21.6563 37.625 21.6563 38.15V54.25H52.5438V38.15C52.5438 37.625 52.8938 37.275 53.4188 37.275C53.9438 37.275 54.2938 37.625 54.2938 38.15V55.125C54.2938 55.65 53.9438 56 53.4188 56Z" fill="#736D6A"/>
<path d="M54.9937 39.025H19.2937C19.0312 39.025 18.6812 38.85 18.5937 38.5875L9.75625 25.1125C9.58125 24.85 9.58125 24.5 9.75625 24.2375C9.93125 23.975 10.1938 23.8 10.5438 23.8H46.2437C46.5062 23.8 46.8562 23.975 46.9437 24.2375L55.7812 37.7125C55.9562 37.975 55.9562 38.325 55.7812 38.5875C55.6063 38.85 55.3438 39.025 54.9937 39.025ZM19.7312 37.275H53.3312L45.6312 25.55H12.1187L19.7312 37.275Z" fill="#736D6A"/>
<path d="M3.80625 40.6H0.91875C0.56875 40.6 0.30625 40.425 0.13125 40.1625C-0.04375 39.9 -0.04375 39.55 0.13125 39.2875L9.66875 24.2375C9.93125 23.8 10.4563 23.7125 10.8938 23.975C11.3313 24.2375 11.4187 24.7625 11.1562 25.2L2.49375 38.85H3.80625C4.33125 38.85 4.68125 39.2 4.68125 39.725C4.68125 40.25 4.33125 40.6 3.80625 40.6Z" fill="#736D6A"/>
<path d="M15.3563 10.7625C13.6938 10.7625 12.4688 9.5375 12.4688 7.875C12.4688 7.35 12.8187 7 13.3437 7C13.8687 7 14.2187 7.35 14.2187 7.875C14.2187 8.575 14.6563 9.0125 15.3563 9.0125C16.0563 9.0125 16.4937 8.575 16.4937 7.875C16.4937 7.35 16.8437 7 17.3687 7H25.8562C26.3813 7 26.7312 7.35 26.7312 7.875C26.7312 8.4 26.3813 8.75 25.8562 8.75H18.1562C17.7187 9.8875 16.6688 10.7625 15.3563 10.7625Z" fill="#736D6A"/>
<path d="M40.6438 10.7625C39.3313 10.7625 38.2812 9.8875 37.8438 8.75H31.2812C30.7562 8.75 30.4062 8.4 30.4062 7.875C30.4062 7.35 30.7562 7 31.2812 7H38.6313C39.1563 7 39.5063 7.35 39.5063 7.875C39.5063 8.575 39.9438 9.0125 40.6438 9.0125C41.3438 9.0125 41.7812 8.575 41.7812 7.875C41.7812 7.35 42.1313 7 42.6562 7C43.1812 7 43.5312 7.35 43.5312 7.875C43.5312 9.5375 42.3063 10.7625 40.6438 10.7625Z" fill="#736D6A"/>
<path d="M15.2689 21.4375C11.9439 21.4375 9.23145 18.725 9.23145 15.4C9.23145 14.875 9.58145 14.525 10.1064 14.525H20.4314C20.9564 14.525 21.3064 14.875 21.3064 15.4C21.3064 18.725 18.5939 21.4375 15.2689 21.4375ZM11.0689 16.275C11.5064 18.2 13.1689 19.6875 15.2689 19.6875C17.3689 19.6875 19.0314 18.2 19.4689 16.275H11.0689Z" fill="#736D6A"/>
<path d="M40.7313 21.4375C37.4063 21.4375 34.6938 18.725 34.6938 15.4C34.6938 14.875 35.0438 14.525 35.5688 14.525H45.8938C46.4188 14.525 46.7688 14.875 46.7688 15.4C46.7688 18.725 44.0563 21.4375 40.7313 21.4375ZM36.5313 16.275C36.9688 18.2 38.6313 19.6875 40.7313 19.6875C42.8313 19.6875 44.4938 18.2 44.9313 16.275H36.5313Z" fill="#736D6A"/>
<path d="M31.9814 25.55H25.1564C24.8939 25.55 24.6314 25.4625 24.4564 25.2C24.2814 25.025 24.1939 24.7625 24.2814 24.5C25.5939 18.725 26.1189 14.6125 26.2064 10.325C26.2064 9.80001 26.6439 9.45001 27.0814 9.45001C27.6064 9.45001 27.9564 9.88751 27.9564 10.325C27.8689 14.4375 27.3439 18.375 26.2064 23.8H30.8439C29.8814 18.8125 29.3564 14.875 29.1814 10.325C29.1814 9.80001 29.5314 9.45001 30.0564 9.45001C30.4939 9.45001 30.9314 9.80001 30.9314 10.325C31.1064 15.05 31.6314 19.1625 32.7689 24.5C32.8564 24.7625 32.7689 25.025 32.5939 25.2C32.5064 25.4625 32.2439 25.55 31.9814 25.55Z" fill="#736D6A"/>
<path d="M28.5685 11.6375C26.556 11.6375 24.981 10.0625 24.981 8.05002C24.981 6.03752 26.556 4.46252 28.5685 4.46252C30.581 4.46252 32.156 6.03752 32.156 8.05002C32.156 10.0625 30.581 11.6375 28.5685 11.6375ZM28.5685 6.21252C27.606 6.21252 26.731 7.08752 26.731 8.05002C26.731 9.01252 27.606 9.88752 28.5685 9.88752C29.531 9.88752 30.406 9.01252 30.406 8.05002C30.406 7.08752 29.531 6.21252 28.5685 6.21252Z" fill="#736D6A"/>
<path d="M11.9438 16.275C11.7688 16.275 11.5938 16.275 11.5063 16.1875C11.0688 15.925 10.9813 15.4 11.2438 14.9625L14.5688 9.45001C14.8313 9.01251 15.3563 8.92501 15.7938 9.18751C16.2313 9.45001 16.3188 9.97501 16.0563 10.4125L12.7313 15.925C12.5563 16.1 12.2063 16.275 11.9438 16.275Z" fill="#736D6A"/>
<path d="M18.6814 16.275C18.4189 16.275 18.0689 16.1 17.8939 15.8375L14.4814 10.325C14.2189 9.88746 14.3939 9.36246 14.7439 9.09996C15.1814 8.83746 15.7064 9.01246 15.9689 9.36246L19.3814 14.875C19.6439 15.3125 19.4689 15.8375 19.1189 16.1C19.0314 16.275 18.8564 16.275 18.6814 16.275Z" fill="#736D6A"/>
<path d="M38.1934 16.275C38.1059 16.275 37.9309 16.275 37.8434 16.1875C37.4059 16.0125 37.2309 15.4875 37.4059 15.05L39.9434 9.53752C40.1184 9.10002 40.6434 8.92502 41.0809 9.10002C41.5184 9.27502 41.6934 9.80002 41.5184 10.2375L38.9809 15.75C38.8059 16.1 38.5434 16.275 38.1934 16.275Z" fill="#736D6A"/>
<path d="M43.3565 16.275C43.0065 16.275 42.744 16.1 42.569 15.75L39.944 10.2375C39.769 9.80002 39.944 9.27502 40.3815 9.10002C40.819 8.92502 41.344 9.10002 41.519 9.53752L44.144 15.05C44.319 15.4875 44.144 16.0125 43.7065 16.1875C43.619 16.275 43.444 16.275 43.3565 16.275Z" fill="#736D6A"/>
<path d="M16.1438 49.2625H8.44385C7.91885 49.2625 7.56885 48.9125 7.56885 48.3875V42.7875C7.56885 40.1625 9.66885 38.0625 12.2938 38.0625C14.9188 38.0625 17.0188 40.1625 17.0188 42.7875V48.3875C17.0188 48.9125 16.6688 49.2625 16.1438 49.2625ZM9.31885 47.5125H15.2688V42.7875C15.2688 41.2125 13.8688 39.8125 12.2938 39.8125C10.7188 39.8125 9.31885 41.2125 9.31885 42.7875V47.5125Z" fill="#736D6A"/>
<path d="M33.556 52.2375H25.856C25.331 52.2375 24.981 51.8875 24.981 51.3625V45.7625C24.981 43.225 27.1685 41.0375 29.706 41.0375C32.2435 41.0375 34.431 43.225 34.431 45.7625V51.3625C34.431 51.8875 34.081 52.2375 33.556 52.2375ZM26.731 50.4875H32.681V45.7625C32.681 44.1875 31.281 42.7875 29.706 42.7875C28.131 42.7875 26.731 44.1875 26.731 45.7625V50.4875Z" fill="#736D6A"/>
<path d="M48.9559 56H39.5059C38.9809 56 38.6309 55.65 38.6309 55.125V46.6375C38.6309 43.575 41.1684 41.0375 44.2309 41.0375C47.2934 41.0375 49.8309 43.575 49.8309 46.6375V55.125C49.8309 55.65 49.4809 56 48.9559 56ZM40.3809 54.25H48.0809V46.6375C48.0809 44.45 46.4184 42.7875 44.2309 42.7875C42.0434 42.7875 40.3809 44.45 40.3809 46.6375V54.25Z" fill="#736D6A"/>
</svg>
