<svg width="64" height="64" viewBox="0 0 64 64" fill="none" xmlns="http://www.w3.org/2000/svg">
<g clip-path="url(#clip0_515_156)">
<path d="M31.8791 32.5587L25.7406 30.6972L25.0728 29.3617C24.8647 28.9453 24.3888 28.7527 23.9583 28.8861V28.6537C26.5003 26.8173 28.2254 23.9168 28.4701 20.6097C29.6613 20.2768 30.5987 19.3082 30.7949 18.1007C30.9188 17.3391 30.7571 16.5892 30.3868 15.966C31.5718 15.3456 32.3828 14.1044 32.3828 12.6767C32.3828 11.382 31.6967 10.2022 30.6298 9.53762C30.6887 9.29562 30.7188 9.04624 30.7188 8.79399C30.7188 7.05362 29.3029 5.63775 27.5626 5.63775C27.1451 5.63775 26.7466 5.72 26.3816 5.86788C24.575 4.22663 22.2617 3.32788 19.797 3.32788H15.3595C12.9056 3.32788 10.5827 4.22813 8.77461 5.86775C8.40961 5.71988 8.01124 5.63775 7.59386 5.63775C5.85349 5.63775 4.43762 7.05362 4.43762 8.79399C4.43762 9.04637 4.46774 9.29574 4.52662 9.53762C3.45962 10.2022 2.77362 11.382 2.77362 12.6767C2.77362 14.1036 3.58362 15.3441 4.76737 15.9649C4.39799 16.586 4.23712 17.3356 4.36149 18.1007C4.55774 19.3082 5.49511 20.2768 6.68636 20.6097C6.93049 23.9123 8.65136 26.8092 11.1876 28.646V28.8826C10.7599 28.7556 10.29 28.9487 10.0835 29.3616L9.41623 30.696L3.03999 32.6088C1.22162 33.1544 0 34.7964 0 36.6948V59.7341C0 60.2519 0.419749 60.6716 0.937498 60.6716C1.45525 60.6716 1.875 60.2519 1.875 59.7341V36.6948C1.875 36.6261 1.87812 36.5581 1.88375 36.4906L5.63111 40.2379C6.29224 40.8991 6.65624 41.7779 6.65624 42.7128V59.734C6.65624 60.2518 7.07599 60.6715 7.59374 60.6715C8.11149 60.6715 8.53123 60.2518 8.53123 59.734V42.7128C8.53123 41.2771 7.97211 39.9273 6.95686 38.9121L2.82837 34.7836C3.04937 34.6186 3.30099 34.4882 3.57874 34.4049L7.80261 33.1378C8.13336 34.0674 10.5896 40.4519 17.0581 44.7642C17.2156 44.8692 17.3968 44.9217 17.5781 44.9217C17.7593 44.9217 17.9406 44.8692 18.0981 44.7642C24.7832 40.3074 27.1679 33.7193 27.3642 33.1489L31.3351 34.3531C31.4258 34.3806 31.5173 34.3937 31.6074 34.3937C32.0096 34.3937 32.3814 34.1328 32.5042 33.7279C32.6544 33.2324 32.3746 32.7091 31.8791 32.5587ZM24.237 31.8827L21.0688 35.8429C21.0253 35.8973 20.9731 35.9084 20.9318 35.9074C20.8935 35.9068 20.8388 35.8944 20.7971 35.8387L19.0022 33.4454L23.8151 31.039L24.237 31.8827ZM17.5781 32.0611L13.0625 29.8033V29.7405C14.4395 30.3682 15.9686 30.7186 17.5781 30.7186C19.1836 30.7186 20.709 30.3697 22.0833 29.7448V29.8085L17.5781 32.0611ZM27.5624 7.51287C28.2689 7.51287 28.8437 8.08762 28.8437 8.79412C28.8437 9.04437 28.7699 9.28799 28.6306 9.49862C28.4649 9.74874 28.4291 10.063 28.5341 10.344C28.6391 10.625 28.8721 10.8387 29.1609 10.9192C29.9539 11.14 30.5078 11.8627 30.5078 12.6769C30.5078 13.6892 29.6842 14.5129 28.6718 14.5129C27.6594 14.5129 26.8358 13.6892 26.8358 12.6769C26.8358 12.2232 27.0102 11.7839 27.3268 11.4399C27.5298 11.2194 27.6151 10.9151 27.5563 10.6212C27.4976 10.3274 27.3018 10.0792 27.0298 9.95374C26.5751 9.74387 26.2812 9.28874 26.2812 8.79412C26.2812 8.08762 26.856 7.51287 27.5624 7.51287ZM4.64837 12.6769C4.64849 11.8629 5.20224 11.1401 5.99524 10.9194C6.28424 10.8389 6.51724 10.6251 6.62211 10.3441C6.72699 10.0631 6.69111 9.74887 6.52561 9.49874C6.38624 9.28812 6.31249 9.04449 6.31249 8.79424C6.31249 8.08775 6.88724 7.513 7.59374 7.513C8.30023 7.513 8.87498 8.08762 8.87498 8.79412C8.87498 9.28874 8.58111 9.74399 8.12636 9.95374C7.85424 10.0792 7.65849 10.3274 7.59986 10.6212C7.54111 10.9151 7.62636 11.2194 7.82936 11.4399C8.14598 11.7839 8.32036 12.2232 8.32036 12.6769C8.32036 13.6892 7.49674 14.5129 6.48436 14.5129C5.47199 14.5129 4.64837 13.6892 4.64837 12.6769ZM8.53123 19.7967C8.53123 19.279 8.11149 18.8592 7.59374 18.8592C6.90424 18.8592 6.31011 18.4039 6.21199 17.8C6.10011 17.112 6.52111 16.4791 7.19111 16.3281C7.22736 16.32 7.26224 16.3092 7.29649 16.2972C8.95323 15.9257 10.1952 14.4441 10.1952 12.677C10.1952 12.1036 10.0607 11.5437 9.80723 11.0364C10.3987 10.4527 10.75 9.64774 10.75 8.79412C10.75 8.16125 10.562 7.57162 10.24 7.077C11.6709 5.86575 13.4667 5.203 15.3593 5.203H19.7968C21.6978 5.203 23.4883 5.8625 24.9177 7.07475C24.5947 7.56987 24.4062 8.16025 24.4062 8.79412C24.4062 9.64774 24.7575 10.4527 25.349 11.0364C25.0953 11.5437 24.961 12.1036 24.961 12.677C24.961 14.4797 26.2535 15.9857 27.9603 16.3187C27.9891 16.3305 28.0186 16.3411 28.0489 16.3501C28.5851 16.5102 29.0647 17.0596 28.9443 17.8001C28.8462 18.404 28.2521 18.8594 27.5626 18.8594C27.0448 18.8594 26.6251 19.2791 26.6251 19.7969C26.6251 24.7853 22.5667 28.8437 17.5782 28.8437C12.5897 28.8437 8.53123 24.7852 8.53123 19.7967ZM11.0441 31.6328L11.3411 31.039L16.1541 33.4454L14.3592 35.8387C14.3175 35.8944 14.2628 35.9068 14.2245 35.9074C14.1835 35.9107 14.131 35.8973 14.0875 35.8429L10.9444 31.9141C10.9922 31.8266 11.0259 31.7317 11.0441 31.6328ZM17.5781 42.8462C13.3811 39.8633 11.1222 35.9594 10.1622 33.9378L12.6234 37.0142C13.015 37.5037 13.5956 37.7824 14.2207 37.7824C14.2317 37.7824 14.2427 37.7823 14.2537 37.7822C14.8913 37.7722 15.4765 37.4738 15.8591 36.9637L16.6405 35.9218V39.7656C16.6405 40.2833 17.0602 40.7031 17.578 40.7031C18.0957 40.7031 18.5155 40.2833 18.5155 39.7656V35.9218L19.2968 36.9637C19.6795 37.4739 20.2646 37.7722 20.9022 37.7822C20.9132 37.7823 20.9242 37.7824 20.9352 37.7824C21.5603 37.7824 22.141 37.5037 22.5326 37.0142L25.0012 33.9283C24.049 35.9444 21.7968 39.8494 17.5781 42.8462Z" fill="#736D6A"/>
<path d="M20.3873 22.3967C19.9852 22.0705 19.3948 22.1321 19.0687 22.5342C18.6699 23.026 18.1405 23.2967 17.578 23.2967C17.0155 23.2967 16.4862 23.026 16.0874 22.5342C15.7614 22.1321 15.1709 22.0706 14.7688 22.3967C14.3667 22.7229 14.3052 23.3132 14.6313 23.7154C15.3819 24.6409 16.456 25.1716 17.5782 25.1716C18.7003 25.1716 19.774 24.6407 20.5248 23.7154C20.8509 23.3132 20.7894 22.7229 20.3873 22.3967Z" fill="#736D6A"/>
<path d="M13.1406 16.6404C12.6229 16.6404 12.2031 17.0601 12.2031 17.5779V18.6873C12.2031 19.205 12.6229 19.6248 13.1406 19.6248C13.6584 19.6248 14.0781 19.205 14.0781 18.6873V17.5779C14.0781 17.0601 13.6584 16.6404 13.1406 16.6404Z" fill="#736D6A"/>
<path d="M22.0156 16.6404C21.4979 16.6404 21.0781 17.0601 21.0781 17.5779V18.6873C21.0781 19.205 21.4979 19.6248 22.0156 19.6248C22.5334 19.6248 22.9531 19.205 22.9531 18.6873V17.5779C22.9531 17.0601 22.5334 16.6404 22.0156 16.6404Z" fill="#736D6A"/>
<path d="M31.5535 36.8837C31.1874 36.5176 30.5937 36.5176 30.2277 36.8837L28.1994 38.9121C27.1841 39.9273 26.625 41.2771 26.625 42.7128V59.7341C26.625 60.2518 27.0447 60.6716 27.5625 60.6716C28.0802 60.6716 28.5 60.2518 28.5 59.7341V42.7128C28.5 41.778 28.8641 40.899 29.5251 40.238L31.5535 38.2096C31.9196 37.8435 31.9196 37.2498 31.5535 36.8837Z" fill="#736D6A"/>
<path d="M50.3404 30.1624C49.9383 29.8361 49.3478 29.8977 49.0218 30.2999C48.623 30.7916 48.0937 31.0624 47.5312 31.0624C46.9687 31.0624 46.4393 30.7916 46.0405 30.2999C45.7145 29.8977 45.1241 29.8362 44.7219 30.1624C44.3198 30.4885 44.2583 31.0789 44.5844 31.481C45.3349 32.4064 46.4089 32.9372 47.531 32.9372C48.6532 32.9372 49.7272 32.4064 50.4779 31.481C50.804 31.0789 50.7425 30.4885 50.3404 30.1624Z" fill="#736D6A"/>
<path d="M37.5469 46.5935C37.0291 46.5935 36.6094 47.0133 36.6094 47.531V59.7341C36.6094 60.2519 37.0291 60.6716 37.5469 60.6716C38.0646 60.6716 38.4844 60.2519 38.4844 59.7341V47.531C38.4844 47.0133 38.0646 46.5935 37.5469 46.5935Z" fill="#736D6A"/>
<path d="M57.5156 46.5935C56.9979 46.5935 56.5781 47.0133 56.5781 47.531V59.7341C56.5781 60.2519 56.9979 60.6716 57.5156 60.6716C58.0334 60.6716 58.4531 60.2519 58.4531 59.7341V47.531C58.4531 47.0133 58.0334 46.5935 57.5156 46.5935Z" fill="#736D6A"/>
<path d="M60.8659 40.1868C61.4516 39.4441 61.7812 38.5182 61.7812 37.5466C61.7812 35.9667 60.9147 34.5528 59.5588 33.8173C59.5613 33.7661 59.5624 33.715 59.5624 33.6638C59.5624 32.4452 58.9725 31.3297 58.0093 30.6432C58.0731 30.427 58.1323 30.2092 58.1823 29.9887C58.3038 29.4533 58.3813 28.8876 58.4177 28.2676C59.8933 26.0903 60.6718 23.5504 60.6718 20.906C60.6718 13.6602 54.777 7.76538 47.5312 7.76538C40.2855 7.76538 34.3906 13.6602 34.3906 20.906C34.3906 23.5506 35.1692 26.0906 36.6449 28.2677C36.6812 28.8881 36.7587 29.4537 36.8801 29.9886C36.9301 30.209 36.9894 30.4267 37.0531 30.6431C36.09 31.3296 35.5 32.4451 35.5 33.6638C35.5 33.715 35.5012 33.7661 35.5036 33.8173C34.1476 34.5528 33.2812 35.9668 33.2812 37.5466C33.2812 38.5182 33.611 39.4441 34.1965 40.1868C32.2645 41.3461 31.0625 43.4284 31.0625 45.7394V59.7345C31.0625 60.2523 31.4822 60.672 32 60.672C32.5177 60.672 32.9375 60.2523 32.9375 59.7345V45.7394C32.9375 43.8437 34.0749 42.1638 35.835 41.4597L36.0144 41.3879C38.7872 45.1354 43.059 47.3591 47.5313 47.3591C52.0648 47.3591 56.243 45.1867 59.0474 41.3877L59.2276 41.4597C60.9878 42.1638 62.1251 43.8437 62.1251 45.7394V59.734C62.1251 60.2518 62.5448 60.6715 63.0626 60.6715C63.5803 60.6715 64.0001 60.2518 64.0001 59.734V45.7394C63.9999 43.4284 62.7979 41.3461 60.8659 40.1868ZM36.2656 20.906C36.2656 14.6941 41.3194 9.64038 47.5312 9.64038C53.7431 9.64038 58.7968 14.6941 58.7968 20.906C58.7968 22.4861 58.4722 24.0222 57.8477 25.44C56.497 22.5334 53.4947 21.7189 50.5741 20.9286C48.213 20.2897 45.7715 19.629 43.6792 17.9552C43.4581 17.7784 43.1687 17.7107 42.8925 17.7716C42.616 17.8324 42.3817 18.0147 42.2551 18.268C42.2454 18.2874 41.2632 20.2184 39.3462 21.1769C38.8831 21.4084 38.6954 21.9715 38.927 22.4346C39.1585 22.8977 39.7215 23.0856 40.1847 22.8539C41.7106 22.0909 42.762 20.8794 43.3547 20.0406C45.5385 21.5084 47.938 22.1577 50.0843 22.7385C50.7888 22.9291 51.4372 23.1099 52.0298 23.2982C52.0093 23.2979 51.9891 23.2967 51.9686 23.2967C50.8261 23.2967 49.8235 23.9068 49.2695 24.8185C48.7512 24.5517 48.1563 24.4061 47.5312 24.4061C46.906 24.4061 46.311 24.5517 45.7928 24.8185C45.2387 23.907 44.2361 23.2967 43.0937 23.2967C41.3534 23.2967 39.9375 24.7126 39.9375 26.453C39.9375 28.1933 41.3534 29.6092 43.0937 29.6092C44.7157 29.6092 46.0553 28.3792 46.2301 26.803C46.536 26.4775 47.0142 26.2811 47.5312 26.2811C48.0481 26.2811 48.5263 26.4775 48.8322 26.803C49.007 28.3792 50.3466 29.6092 51.9686 29.6092C53.709 29.6092 55.1248 28.1933 55.1248 26.453C55.1248 25.5412 54.7358 24.719 54.1156 24.1423C55.4563 24.873 56.281 25.893 56.5866 27.6945C56.5708 27.7573 56.5608 27.8226 56.5583 27.89C56.536 28.5151 56.469 29.0658 56.3537 29.5738C55.9075 31.5405 54.7922 33.3262 53.2136 34.6023C51.5892 35.9153 49.6243 36.6093 47.5311 36.6093C45.4378 36.6093 43.4729 35.9153 41.8486 34.6023C40.27 33.3263 39.1549 31.5405 38.7085 29.5738C38.5935 29.0668 38.5265 28.5166 38.504 27.8916C38.495 27.6433 38.3901 27.4205 38.2256 27.2582C36.9427 25.3831 36.2656 23.1904 36.2656 20.906ZM53.25 26.4528C53.25 27.1593 52.6752 27.7341 51.9687 27.7341C51.2622 27.7341 50.6875 27.1593 50.6875 26.4528C50.6875 25.7463 51.2622 25.1716 51.9687 25.1716C52.6752 25.1716 53.25 25.7463 53.25 26.4528ZM44.375 26.4528C44.375 27.1593 43.8002 27.7341 43.0937 27.7341C42.3872 27.7341 41.8125 27.1593 41.8125 26.4528C41.8125 25.7463 42.3872 25.1716 43.0937 25.1716C43.8002 25.1716 44.375 25.7463 44.375 26.4528ZM52.921 38.9341C51.4633 40.2872 49.5566 41.0464 47.5311 41.0464C45.5077 41.0464 43.6 40.2866 42.1419 38.9338C42.7274 38.6776 43.2122 38.2569 43.545 37.7276C44.8077 38.2222 46.161 38.4841 47.5312 38.4841C48.9015 38.4841 50.2547 38.2222 51.5175 37.7276C51.8503 38.2572 52.3355 38.6778 52.921 38.9341ZM36.0049 39.3723C35.4697 38.9201 35.1564 38.2551 35.1564 37.5464C35.1562 36.5098 35.8285 35.6 36.829 35.2823C37.308 35.1303 37.5817 34.6277 37.45 34.1428C37.3987 33.9547 37.375 33.8025 37.375 33.6638C37.375 33.2291 37.5275 32.8216 37.7907 32.5003C38.4856 33.8665 39.4656 35.0868 40.67 36.0603C41.0427 36.3616 41.4345 36.6362 41.8415 36.8841C41.7097 37.0358 41.5434 37.1569 41.3509 37.2339L36.0049 39.3723ZM47.5312 45.4841C43.7525 45.4841 40.2605 43.7384 37.8222 40.6648L40.2547 39.6919C42.1156 41.7514 44.7354 42.9216 47.5313 42.9216C50.33 42.9216 52.947 41.7518 54.8077 39.6918L57.2411 40.6652C54.8017 43.7378 51.3038 45.4841 47.5312 45.4841ZM59.0576 39.3724L53.7115 37.2339C53.519 37.1569 53.3527 37.0358 53.221 36.8841C53.6278 36.6361 54.0197 36.3616 54.3925 36.0603C55.5968 35.0868 56.5768 33.8663 57.2717 32.5003C57.535 32.8216 57.6875 33.2291 57.6875 33.6638C57.6875 33.8025 57.6637 33.9547 57.6124 34.1428C57.4806 34.6277 57.7545 35.1303 58.2335 35.2823C59.2339 35.6 59.9062 36.5098 59.9062 37.5466C59.9062 38.2552 59.5927 38.9202 59.0576 39.3724Z" fill="#736D6A"/>
</g>
<defs>
<clipPath id="clip0_515_156">
<rect width="64" height="64" fill="white"/>
</clipPath>
</defs>
</svg>
