<svg width="64" height="64" viewBox="0 0 64 64" fill="none" xmlns="http://www.w3.org/2000/svg">
<path fill-rule="evenodd" clip-rule="evenodd" d="M55.4442 59.9232C55.1007 60.2674 54.5414 60.2674 54.1979 59.9232L36.608 42.3333L37.8547 41.0872L55.4442 58.6768C55.7863 59.0186 55.7859 59.5821 55.4442 59.9232ZM8.84842 53.6005H45.3028L42.5304 50.8269H31.6596L30.7216 51.7654C29.9072 52.5802 28.5826 52.5802 27.7681 51.7654L26.83 50.8269H8.84842C8.83374 50.8269 8.8182 50.8427 8.8182 50.8574V53.57C8.8182 53.5847 8.83374 53.6005 8.84842 53.6005ZM41.9947 36.9465L39.1402 39.8012L48.3481 49.0087H50.1441V20.3678H13.6651V49.0087H25.0116L17.2805 41.2776C16.4663 40.4643 16.4663 39.1393 17.2805 38.3247L19.1582 36.4469C19.9724 35.6324 21.2971 35.6324 22.1114 36.4469L22.4074 36.7428L32.0991 27.0515L31.8031 26.7558C30.9891 25.9418 30.989 24.6164 31.8031 23.8017L33.6806 21.9239C34.495 21.1094 35.8198 21.1107 36.6339 21.9239L47.1214 32.4117C47.9358 33.2268 47.936 34.5509 47.1214 35.3659L45.2439 37.2436C44.4295 38.0572 43.1024 38.0563 42.2904 37.2436L41.9947 36.9465ZM33.0112 25.2783C33.0112 25.2359 33.0214 25.156 33.0891 25.0879L34.9665 23.2102C35.0696 23.1068 35.2451 23.1066 35.3484 23.2102L45.8357 33.6979C45.9402 33.8024 45.939 33.9766 45.836 34.0798L43.9584 35.9574C43.8549 36.061 43.68 36.061 43.5765 35.9574L33.0892 25.4697C33.0214 25.4019 33.0112 25.3207 33.0112 25.2783ZM31.3909 48.4111C31.3909 48.4536 31.3809 48.5347 31.3133 48.6026L29.4355 50.4804C29.3319 50.5832 29.1588 50.5843 29.0538 50.4791L18.5665 39.9927C18.4629 39.8885 18.4629 39.7141 18.5665 39.6108L20.444 37.733C20.5474 37.6288 20.7223 37.6288 20.8257 37.733L31.3134 48.2206C31.3809 48.2877 31.3909 48.3687 31.3909 48.4111ZM31.0175 45.3529L40.7089 35.6614L33.385 28.3376L23.6933 38.029L31.0175 45.3529ZM32.5988 46.9347C33.1447 47.4797 33.3403 48.2759 33.1224 49.0087H40.7121L35.3221 43.6194L32.3031 46.639L32.5988 46.9347ZM9.83104 18.5496C9.57305 18.5496 9.42412 18.4041 9.42412 18.358V16.4223C9.42412 15.8851 9.81277 15.5581 10.139 15.3785L30.4951 4.17447C31.365 3.69618 32.4443 3.69618 33.314 4.17447L53.6703 15.3786C53.9965 15.5582 54.3851 15.8853 54.3851 16.4224V18.3582C54.3851 18.4042 54.2362 18.5497 53.9782 18.5497H9.83104V18.5496ZM54.9608 50.8269H50.1663L52.9387 53.6005H54.961C54.9756 53.6005 54.9912 53.5847 54.9912 53.57V50.8574C54.9912 50.8427 54.9756 50.8269 54.9608 50.8269ZM56.73 57.3908L54.7571 55.4187H54.9608C55.98 55.4187 56.8095 54.5895 56.8095 53.57V50.8574C56.8095 49.8379 55.98 49.0089 54.9608 49.0089H51.9621V20.3678H53.9781C55.205 20.3678 56.2032 19.4661 56.2032 18.358V16.4223C56.2032 15.3264 55.5996 14.3652 54.5469 13.7856L34.1907 2.58189C32.7806 1.80604 31.0285 1.80604 29.6183 2.58189L9.26224 13.7858C8.20954 14.3654 7.60592 15.3266 7.60592 16.4224V18.3582C7.60592 19.4663 8.60423 20.3679 9.83104 20.3679H11.8469V49.0089H8.84842C7.82924 49.0089 7 49.8381 7 50.8574V53.57C7 54.5895 7.82924 55.4187 8.84842 55.4187H47.121L52.912 61.209C54.5982 62.8951 57.5193 61.7115 57.5188 59.2999C57.5185 58.5774 57.2388 57.9 56.73 57.3908ZM31.9047 13.9141C33.0466 13.9141 33.9754 12.9859 33.9754 11.844C33.9754 10.7021 33.0466 9.77353 31.9047 9.77353C30.7631 9.77353 29.834 10.7021 29.834 11.844C29.834 12.9859 30.7631 13.9141 31.9047 13.9141ZM31.9047 7.95534C29.7604 7.95534 28.0158 9.69958 28.0158 11.844C28.0158 13.9884 29.7604 15.7326 31.9047 15.7326C34.0489 15.7326 35.7936 13.9884 35.7936 11.844C35.7936 9.69958 34.0489 7.95534 31.9047 7.95534Z" fill="#3C2E25"/>
</svg>
