<svg width="64" height="64" viewBox="0 0 64 64" fill="none" xmlns="http://www.w3.org/2000/svg">
<path d="M61.1961 37.623C61.096 37.623 61.096 37.623 60.9959 37.623C60.4952 37.5208 60.0947 37.0096 60.1948 36.3962L61.7969 26.8882L56.0894 25.8658L54.7876 33.5335C54.6875 34.0447 54.1868 34.4537 53.586 34.3514C53.0854 34.2492 52.6848 33.738 52.785 33.1246L54.1868 24.4345C54.287 23.9233 54.7876 23.5144 55.3884 23.6166L63.0986 24.9457C63.399 24.9457 63.5993 25.1501 63.6994 25.3546C63.8997 25.5591 63.8997 25.8658 63.8997 26.0703L62.0973 36.6006C62.1974 37.3163 61.6968 37.623 61.1961 37.623Z" fill="#3C2E25"/>
<path d="M61.3964 26.786C61.2963 26.786 61.2963 26.786 61.1962 26.786L56.7903 25.9681C56.4899 25.9681 56.2897 25.7636 56.1895 25.5591C55.9893 25.3546 55.9893 25.0479 55.9893 24.8435L56.7903 20.0383C56.7903 19.7316 56.9906 19.5272 57.1909 19.4249C57.3911 19.2205 57.6915 19.2205 57.8918 19.2205L62.2976 20.0383C62.7983 20.1406 63.1988 20.6518 63.0987 21.2652L62.2976 26.0703C62.2976 26.377 61.8971 26.786 61.3964 26.786ZM58.092 24.1278L60.5954 24.5368L60.9959 21.7764L58.4926 21.3674L58.092 24.1278Z" fill="#3C2E25"/>
<path d="M38.0658 14.2109C37.8655 14.2109 37.6652 14.1087 37.465 14.0065C37.1646 13.802 36.9643 13.393 37.0644 12.9841L37.465 10.7349L35.8629 9.09912C35.5625 8.79241 35.4623 8.38346 35.5625 8.07675C35.6626 7.66781 35.963 7.46333 36.3635 7.3611L38.5664 7.05439L39.5678 5.00966C39.8682 4.70295 40.1686 4.39624 40.5691 4.39624C40.9696 4.39624 41.27 4.60071 41.4703 5.00966L42.4716 7.05439L44.6745 7.3611C45.0751 7.46333 45.3755 7.66781 45.4756 8.07675C45.5757 8.4857 45.4756 8.89464 45.1752 9.09912L43.5731 10.7349L43.9736 12.9841C44.0737 13.393 43.8735 13.802 43.5731 14.0065C43.2727 14.2109 42.8721 14.3132 42.4716 14.1087L40.469 13.0863L38.4663 14.1087C38.4663 14.1087 38.266 14.2109 38.0658 14.2109ZM38.7667 9.09912L39.2674 9.6103C39.4676 9.81477 39.5678 10.2237 39.5678 10.5304L39.4676 11.2461L40.1686 10.9394C40.469 10.7349 40.7693 10.7349 41.0697 10.9394L41.7707 11.2461L41.5704 10.5304C41.4703 10.2237 41.6705 9.81477 41.8708 9.6103L42.3715 9.09912L41.6705 8.99688C41.3701 8.99688 41.0697 8.69017 40.8695 8.4857L40.5691 7.77004L40.2687 8.4857C40.1686 8.79241 39.8682 8.99688 39.4676 8.99688L38.7667 9.09912Z" fill="#3C2E25"/>
<path d="M40.7691 32.5111C34.5609 32.5111 29.4541 27.3992 29.4541 20.9584V17.8913C29.4541 17.2778 29.8546 16.8689 30.4554 16.8689H50.9826C51.5834 16.8689 51.984 17.2778 51.984 17.8913V20.9584C51.984 27.3992 46.9773 32.5111 40.7691 32.5111ZM31.4568 19.0159V21.0606C31.4568 26.2746 35.6623 30.5686 40.7691 30.5686C45.8759 30.5686 50.0814 26.2746 50.0814 21.0606V19.0159H31.4568Z" fill="#3C2E25"/>
<path d="M54.1868 19.016H27.3512C27.0508 19.016 26.7504 18.8115 26.5502 18.607C26.3499 18.3003 26.3499 17.9936 26.45 17.6869L28.653 12.2684C28.7531 5.41853 34.1603 0 40.769 0C47.3778 0 52.7849 5.41853 52.8851 12.1661L55.088 17.5847C55.1881 17.8914 55.1881 18.3003 54.9879 18.5048C54.7876 18.8115 54.4872 19.016 54.1868 19.016ZM28.8532 16.9712H52.6848L50.9826 12.7796C50.8824 12.6773 50.8824 12.4728 50.8824 12.3706C50.8824 6.64537 46.3764 2.04473 40.769 2.04473C35.1616 2.04473 30.6556 6.64537 30.6556 12.3706C30.6556 12.4728 30.6556 12.6773 30.5555 12.7796L28.8532 16.9712Z" fill="#3C2E25"/>
<path d="M55.8891 64H30.6556C30.0548 64 29.6543 63.5911 29.6543 62.9777C29.6543 62.3642 30.0548 61.9553 30.6556 61.9553H55.8891C59.1934 61.9553 61.9971 59.1949 61.9971 55.7189V41.8147C61.9971 38.1342 59.0933 35.1694 55.4885 35.1694H47.8784C47.2776 35.1694 46.8771 34.7604 46.8771 34.147V29.2396C46.8771 28.6262 47.2776 28.2173 47.8784 28.2173C48.4792 28.2173 48.8798 28.6262 48.8798 29.2396V33.1246H55.4885C60.1948 33.1246 63.9998 37.0096 63.9998 41.8147V55.7189C63.9998 60.3195 60.395 64 55.8891 64Z" fill="#3C2E25"/>
<path d="M18.5399 59.3994C17.9391 59.3994 17.5386 58.9905 17.5386 58.377V53.5719C17.5386 52.9585 17.9391 52.5496 18.5399 52.5496C19.1407 52.5496 19.5412 52.9585 19.5412 53.5719V58.377C19.5412 58.8882 19.0406 59.3994 18.5399 59.3994Z" fill="#3C2E25"/>
<path d="M19.0406 40.1789C18.9405 40.1789 18.8403 40.1789 18.7402 40.0767C18.2395 39.8722 17.9391 39.2588 18.1394 38.7476C19.341 35.3738 22.5452 33.0223 26.15 33.0223H32.959V29.1374C32.959 28.5239 33.3596 28.115 33.9604 28.115C34.5611 28.115 34.9617 28.5239 34.9617 29.1374V34.0447C34.9617 34.6581 34.5611 35.0671 33.9604 35.0671H26.0499C23.3463 35.0671 20.843 36.8051 19.9418 39.4632C19.7415 39.9744 19.4411 40.1789 19.0406 40.1789Z" fill="#3C2E25"/>
<path d="M36.4634 45.2907C36.163 45.2907 35.9627 45.1885 35.7625 44.984L25.9495 34.9648C25.6491 34.6581 25.5489 34.2492 25.7492 33.8402C25.9495 33.4313 26.2499 33.2268 26.6504 33.2268H33.5596C33.7598 33.2268 33.9601 33.329 34.1604 33.4313L41.47 39.0543C41.6703 39.2588 41.8706 39.4632 41.8706 39.7699C41.8706 40.0766 41.7704 40.3834 41.5702 40.5878L37.1643 45.0862C36.9641 45.1885 36.6637 45.2907 36.4634 45.2907ZM29.0536 35.1693L36.4634 42.7348L39.2671 39.8722L33.159 35.1693H29.0536Z" fill="#3C2E25"/>
<path d="M45.1752 45.2906C44.8748 45.2906 44.6746 45.1884 44.4743 44.9839L40.0685 40.4855C39.8682 40.2811 39.7681 39.9744 39.7681 39.6676C39.7681 39.3609 39.9683 39.0542 40.1686 38.952L47.4783 33.329C47.6785 33.2267 47.8788 33.1245 48.0791 33.1245H55.1885C55.589 33.1245 55.9896 33.329 56.0897 33.7379C56.29 34.1469 56.1898 34.5558 55.8894 34.8625L45.8762 44.8817C45.6759 45.1884 45.3755 45.2906 45.1752 45.2906ZM42.2714 39.8721L45.0751 42.7347L52.6852 35.1692H48.3795L42.2714 39.8721Z" fill="#3C2E25"/>
<path d="M40.7694 64C40.1686 64 39.7681 63.591 39.7681 62.9776V39.7699C39.7681 39.1565 40.1686 38.7476 40.7694 38.7476C41.3702 38.7476 41.7707 39.1565 41.7707 39.7699V62.9776C41.7707 63.4888 41.3702 64 40.7694 64Z" fill="#3C2E25"/>
<path d="M59.9948 21.5719C59.8947 21.5719 59.8947 21.5719 59.7945 21.5719C59.2939 21.4696 58.8933 20.9584 58.9935 20.345L59.8947 15.0287C59.9948 14.5175 60.4955 14.1086 61.0963 14.2108C61.5969 14.3131 61.9975 14.8243 61.8973 15.4377L60.896 20.754C60.896 21.1629 60.3953 21.5719 59.9948 21.5719Z" fill="#3C2E25"/>
<path d="M40.7691 64.0001C40.3686 64.0001 39.968 63.7956 39.8679 63.3867C39.6676 62.8755 39.968 62.2621 40.4687 62.0576C52.5848 57.3547 58.6928 35.5784 58.6928 35.3739C58.793 34.8627 59.3938 34.556 59.8944 34.6583C60.3951 34.7605 60.6955 35.3739 60.5954 35.8851C60.295 36.8052 54.1869 58.9905 41.0695 64.0001C41.0695 64.0001 40.8692 64.0001 40.7691 64.0001Z" fill="#3C2E25"/>
<path d="M30.9563 64.0001H15.9364C15.3356 64.0001 14.9351 63.5912 14.9351 62.9777V60.0129C14.9351 58.5816 16.1367 57.3547 17.5385 57.3547H29.254C30.6559 57.3547 31.8575 58.5816 31.8575 60.0129V62.9777C31.9576 63.4889 31.4569 64.0001 30.9563 64.0001ZM16.9377 61.9554H29.955V60.0129C29.955 59.7062 29.6546 59.3995 29.3542 59.3995H17.5385C17.2381 59.3995 16.9377 59.7062 16.9377 60.0129V61.9554Z" fill="#3C2E25"/>
<path d="M18.5397 51.7317C18.2393 51.7317 18.039 51.6294 17.8388 51.4249L10.0284 43.4505C9.62789 43.0416 9.62789 42.4281 10.0284 42.0192L15.736 36.1917C16.1365 35.7828 16.7373 35.7828 17.1378 36.1917L24.9482 44.1662C25.3487 44.5751 25.3487 45.1885 24.9482 45.5975L19.2406 51.4249C19.0404 51.6294 18.74 51.7317 18.5397 51.7317ZM12.1312 42.7349L18.5397 49.278L22.8454 44.8818L16.4369 38.3387L12.1312 42.7349Z" fill="#3C2E25"/>
<path d="M19.8413 54.901C19.1404 54.901 18.3393 54.5943 17.8387 54.0831C17.338 53.572 17.0376 52.8563 17.0376 52.0384C17.0376 51.2205 17.338 50.5049 17.8387 49.9937L23.5462 44.1662C24.6477 43.0416 26.4501 43.0416 27.5515 44.1662C28.653 45.2908 28.653 47.1311 27.5515 48.2557L21.844 54.0831C21.3433 54.5943 20.5422 54.901 19.8413 54.901ZM19.2405 52.5496C19.5409 52.8563 20.1417 52.8563 20.4421 52.5496L26.1497 46.7221C26.4501 46.4154 26.4501 45.802 26.1497 45.4953C25.8493 45.1886 25.2485 45.1886 24.9481 45.4953L19.2405 51.425C19.0402 51.6295 19.0403 51.8339 19.0403 52.0384C19.0403 52.2429 19.1404 52.4474 19.2405 52.5496Z" fill="#3C2E25"/>
<path d="M9.42774 44.2685C8.72681 44.2685 7.92575 43.9618 7.42508 43.4506C6.92442 42.9394 6.62402 42.2237 6.62402 41.4058C6.62402 40.5879 6.92442 39.8723 7.42508 39.3611L13.1326 33.5336C14.2341 32.409 16.0365 32.409 17.138 33.5336C18.2394 34.6582 18.2394 36.4985 17.138 37.6231L11.4304 43.4506C10.9297 43.9618 10.1287 44.2685 9.42774 44.2685ZM8.82694 41.917C9.12734 42.2237 9.72814 42.2237 10.0285 41.917L15.7361 36.0895C16.0365 35.7828 16.0365 35.1694 15.7361 34.8627C15.4357 34.556 14.8349 34.556 14.5345 34.8627L8.82694 40.6902C8.62668 40.8947 8.62668 41.0991 8.62668 41.3036C8.62668 41.5081 8.72681 41.8148 8.82694 41.917Z" fill="#3C2E25"/>
<path d="M3.51987 61.6484C2.51854 61.6484 1.71748 61.2395 1.01655 60.6261C0.315624 59.9104 -0.0849062 58.9903 0.0152264 57.9679C0.0152264 56.9456 0.415757 56.0254 1.11669 55.3098L12.5318 44.4727C12.9323 44.0638 13.5331 44.0638 13.9337 44.4727L16.7374 47.3353C17.1379 47.7443 17.1379 48.3577 16.7374 48.7667L6.12332 60.5238C5.42239 61.2395 4.5212 61.6484 3.51987 61.6484ZM13.1326 46.6197L2.41841 56.8433C2.11801 57.15 1.91775 57.559 1.91775 57.9679C1.91775 58.3769 2.11801 58.7858 2.41841 59.0925C2.71881 59.5015 3.11934 59.6037 3.51987 59.6037C3.9204 59.6037 4.32093 59.3992 4.62133 59.0925L14.6346 48.1532L13.1326 46.6197Z" fill="#3C2E25"/>
<path d="M20.2422 15.8466C19.2409 15.8466 18.2396 15.3355 17.7389 14.4153H8.02605C7.42525 15.2332 6.52406 15.8466 5.52273 15.8466C4.221 15.8466 3.11954 15.0288 2.61888 13.8019C2.41862 13.2907 2.71901 12.6773 3.21968 12.4728C3.72034 12.2684 4.32114 12.5751 4.5214 13.0863C4.72167 13.4952 5.1222 13.8019 5.52273 13.8019C5.92326 13.8019 6.42392 13.4952 6.52406 13.0863C6.62419 12.6773 7.02472 12.3706 7.42525 12.3706H18.3397C18.7402 12.3706 19.1408 12.6773 19.2409 13.0863C19.4412 13.4952 19.8417 13.8019 20.2422 13.8019C20.6428 13.8019 21.0433 13.4952 21.2436 13.0863C21.4438 12.5751 22.0446 12.2684 22.5453 12.4728C23.0459 12.6773 23.3463 13.2907 23.1461 13.8019C22.7455 15.0288 21.544 15.8466 20.2422 15.8466Z" fill="#3C2E25"/>
<path d="M23.0459 22.2874C22.6454 22.2874 22.345 22.083 22.1447 21.674L20.1421 17.1756L17.7389 21.7763C17.4385 22.2874 16.8377 22.4919 16.4372 22.1852C15.9365 21.8785 15.7363 21.2651 16.0366 20.8561L19.2409 14.4152C19.4412 14.1085 19.7416 13.9041 20.1421 13.9041C20.5426 13.9041 20.843 14.1085 21.0433 14.5175L23.9471 20.9584C24.1474 21.4695 23.9471 22.083 23.4465 22.2874C23.2462 22.2874 23.1461 22.2874 23.0459 22.2874Z" fill="#3C2E25"/>
<path d="M19.9414 25.457C17.7385 25.457 15.8359 23.6167 15.8359 21.2653C15.8359 20.6519 16.2365 20.2429 16.8373 20.2429C17.4381 20.2429 17.8386 20.6519 17.8386 21.2653C17.8386 22.3899 18.7398 23.4122 19.9414 23.4122C21.0428 23.4122 22.0442 22.4921 22.0442 21.2653C22.0442 20.6519 22.4447 20.2429 23.0455 20.2429C23.6463 20.2429 24.0468 20.6519 24.0468 21.2653C24.0468 23.5145 22.1443 25.457 19.9414 25.457Z" fill="#3C2E25"/>
<path d="M8.32621 22.0831C7.92568 22.0831 7.62528 21.8786 7.42501 21.4697L5.42236 17.0735L3.11931 21.4697C2.81891 21.9809 2.21812 22.1853 1.71745 21.8786C1.21679 21.5719 1.01652 20.9585 1.31692 20.4473L4.52117 14.2109C4.72143 13.9042 5.02183 13.6997 5.42236 13.6997C5.82289 13.6997 6.12329 13.9042 6.32355 14.3131L9.2274 20.5495C9.42767 21.0607 9.2274 21.6741 8.72674 21.8786C8.62661 21.9809 8.52647 22.0831 8.32621 22.0831Z" fill="#3C2E25"/>
<path d="M5.32224 25.457C3.11932 25.457 1.2168 23.6167 1.2168 21.2653C1.2168 20.6519 1.61733 20.2429 2.21812 20.2429C2.81892 20.2429 3.21945 20.6519 3.21945 21.2653C3.21945 22.3899 4.12064 23.4122 5.32224 23.4122C6.4237 23.4122 7.42502 22.4921 7.42502 21.2653C7.42502 20.6519 7.82555 20.2429 8.42635 20.2429C9.02714 20.2429 9.42768 20.6519 9.42768 21.2653C9.32754 23.5145 7.52516 25.457 5.32224 25.457Z" fill="#3C2E25"/>
<path d="M12.7323 28.6262C12.1315 28.6262 11.731 28.2173 11.731 27.6038V12.5751C11.731 11.9617 12.1315 11.5527 12.7323 11.5527C13.3331 11.5527 13.7336 11.9617 13.7336 12.5751V27.6038C13.7336 28.2173 13.2329 28.6262 12.7323 28.6262Z" fill="#3C2E25"/>
<path d="M15.4359 28.6263H9.92857C9.32778 28.6263 8.92725 28.2173 8.92725 27.6039C8.92725 26.9905 9.32778 26.5815 9.92857 26.5815H15.4359C16.0367 26.5815 16.4372 26.9905 16.4372 27.6039C16.4372 28.2173 16.0367 28.6263 15.4359 28.6263Z" fill="#3C2E25"/>
</svg>
