<!-- Generated by IcoMoon.io -->
<svg version="1.1" xmlns="http://www.w3.org/2000/svg" width="1024" height="1024" viewBox="0 0 1024 1024">
<g id="icomoon-ignore">
</g>
<path fill="#000" d="M140.002 891.066c-9.426 0-17.067-7.641-17.067-17.067v-252.022c0-9.426 7.642-17.067 17.067-17.067s17.067 7.642 17.067 17.067v252.022c0 9.426-7.642 17.067-17.067 17.067zM140 289.56c-9.426 0-17.067-7.64-17.067-17.066v-172.499c0-53.435 43.606-97.406 97.36-97.066h703.711c9.426 0 17.067 7.64 17.067 17.066s-7.641 17.067-17.067 17.067h-703.882c-34.63-0.243-63.056 28.208-63.056 62.933v172.499c0 9.426-7.64 17.066-17.066 17.066z"></path>
<path fill="#000" d="M861.070 924c0 53.607-43.458 97.067-97.067 97.067h-664.002c-53.61 0-97.067-43.459-97.067-97.067v-40c0-9.426 7.642-17.067 17.067-17.067h664.002c9.426 0 17.067 7.641 17.067 17.067v40c0 34.756 28.178 62.933 62.933 62.933 34.758 0 62.934-28.177 62.934-62.933v-824.001c0-53.61 43.456-97.067 97.066-97.067 53.607 0 97.067 43.456 97.067 97.067v39.997c0 9.426-7.641 17.067-17.067 17.067h-142.933v766.937zM861.070 122.93h125.867v-22.931c0-34.758-28.177-62.934-62.933-62.934-34.758 0-62.933 28.176-62.933 62.934v22.931zM690.101 986.933c-14.445-16.946-23.163-38.922-23.163-62.933v-22.933h-629.869v22.933c0 34.757 28.174 62.933 62.933 62.933h590.099z"></path>
<path fill="#000" d="M738.070 804c0 9.426-7.642 17.067-17.067 17.067h-160c-9.426 0-17.066-7.642-17.066-17.067v-160c0-9.426 7.64-17.067 17.066-17.067h160c9.426 0 17.067 7.642 17.067 17.067v160zM703.938 786.933v-125.866h-125.867v125.866h125.867z"></path>
<path fill="#000" d="M658.070 724c0 9.426-7.642 17.067-17.067 17.067-26.81 0-41.597-16.861-51.338-27.966-0.29-0.33-0.574-0.654-0.854-0.973-10.621-12.080-16.11-17.346-26.557-17.346-10.45 0-15.941 5.267-26.562 17.346-0.28 0.318-0.565 0.643-0.854 0.973-9.741 11.106-24.53 27.966-51.336 27.966-26.81 0-41.598-16.861-51.339-27.966-0.29-0.33-0.574-0.654-0.854-0.973-10.621-12.078-16.11-17.346-26.558-17.346s-15.938 5.266-26.558 17.346c-0.282 0.318-0.566 0.643-0.854 0.973-9.742 11.106-24.53 27.966-51.338 27.966-9.426 0-17.067-7.642-17.067-17.067s7.642-17.067 17.067-17.067c10.448 0 15.938-5.266 26.558-17.344 0.28-0.32 0.565-0.645 0.854-0.974 9.741-11.106 24.528-27.965 51.338-27.965 26.808 0 41.597 16.859 51.338 27.965 0.29 0.33 0.574 0.654 0.854 0.974 10.621 12.078 16.11 17.344 26.56 17.344 10.448 0 15.936-5.266 26.558-17.346 0.28-0.318 0.565-0.643 0.854-0.973 9.741-11.106 24.53-27.965 51.339-27.965s41.595 16.859 51.336 27.965c0.29 0.33 0.574 0.654 0.854 0.974 10.621 12.078 16.11 17.344 26.558 17.344 9.426 0 17.067 7.642 17.067 17.067z"></path>
<path fill="#000" d="M599.070 139.995c0 9.426-7.642 17.067-17.067 17.067h-180c-9.426 0-17.066-7.642-17.066-17.067s7.64-17.066 17.066-17.066h180c9.426 0 17.067 7.64 17.067 17.066z"></path>
<path fill="#000" d="M738.070 259.995c0 9.426-7.642 17.067-17.067 17.067h-458.008c-9.426 0-17.066-7.642-17.066-17.067s7.64-17.066 17.066-17.066h458.008c9.426 0 17.067 7.64 17.067 17.066z"></path>
<path fill="#000" d="M738.070 339.995c0 9.426-7.642 17.067-17.067 17.067h-458.008c-9.426 0-17.066-7.642-17.066-17.067s7.64-17.066 17.066-17.066h458.008c9.426 0 17.067 7.64 17.067 17.066z"></path>
<path fill="#000" d="M738.070 419.995c0 9.426-7.642 17.067-17.067 17.067h-458.008c-9.426 0-17.066-7.642-17.066-17.067s7.64-17.066 17.066-17.066h458.008c9.426 0 17.067 7.64 17.067 17.066z"></path>
<path fill="#000" d="M738.070 499.995c0 9.426-7.642 17.067-17.067 17.067h-229.003c-9.426 0-17.067-7.642-17.067-17.067s7.642-17.066 17.067-17.066h229.003c9.426 0 17.067 7.64 17.067 17.066z"></path>
<path fill="#000" d="M218.507 740.485c-6.245 1.672-12.898-0.326-17.187-5.163l-66.758-75.285c-1.757-1.982-3.029-4.347-3.715-6.907l-125.787-469.44c-8.875-33.112 10.774-67.146 43.888-76.018h-0.002c0.002 0 0.002 0 0.002 0 33.109-8.872 67.141 10.778 76.014 43.886l0.002 0.002 125.784 469.442c0.685 2.56 0.765 5.243 0.235 7.838l-20.173 98.581c-1.296 6.333-6.059 11.39-12.302 13.064zM204.213 687.136l12.522-61.192-124.742-465.549c0 0 0 0 0-0.002-3.994-14.901-19.312-23.744-34.211-19.752v0.002c-14.904 3.992-23.746 19.309-19.752 34.21v0.002l124.746 465.55 41.438 46.731z"></path>
</svg>
