<svg width="56" height="56" viewBox="0 0 56 56" fill="none" xmlns="http://www.w3.org/2000/svg">
<g clip-path="url(#clip0_786_11924)">
<path d="M52.2668 24.9454C51.6729 24.9454 51.0789 24.7757 50.5698 24.3515L28.0001 6.95753L5.43045 24.2666C4.58197 24.9454 3.39409 25.0303 2.46075 24.606C1.44257 24.0969 0.848633 23.1636 0.848633 22.0606C0.848633 21.2121 1.27288 20.3636 1.95166 19.7696L25.6244 1.52722C26.982 0.424194 28.9335 0.424194 30.2911 1.52722L53.9638 19.7696C54.7274 20.3636 55.1517 21.2121 55.1517 22.0606C55.1517 23.1636 54.5577 24.0969 53.5395 24.606C53.1153 24.7757 52.6911 24.9454 52.2668 24.9454ZM28.0001 5.00601C28.1698 5.00601 28.3395 5.09086 28.5092 5.17571L51.588 22.9939C51.9274 23.2484 52.4365 23.3333 52.7759 23.0787C53.2001 22.909 53.4547 22.4848 53.4547 22.0606C53.4547 21.7212 53.285 21.3818 53.0305 21.1272L29.2729 2.8848C28.5092 2.29086 27.4062 2.29086 26.6426 2.8848L2.96985 21.1272C2.7153 21.3818 2.5456 21.7212 2.5456 22.0606C2.5456 22.4848 2.80015 22.909 3.22439 23.0787C3.64863 23.2484 4.07288 23.2484 4.41227 22.9939L27.4911 5.17571C27.6608 5.09086 27.8305 5.00601 28.0001 5.00601Z" fill="#736D6A"/>
<path d="M6.61802 18.1575C6.44832 18.1575 6.36347 18.1575 6.27862 18.0727C6.02408 17.903 5.76953 17.6484 5.76953 17.309V5.76963C5.76953 5.26054 6.10893 4.92114 6.61802 4.92114H14.2544C14.7635 4.92114 15.1029 5.26054 15.1029 5.76963V11.4545C15.1029 11.709 15.018 11.9636 14.7635 12.1333L7.12711 17.9878C6.95741 18.0727 6.78771 18.1575 6.61802 18.1575ZM7.4665 6.61811V15.6121L13.4059 11.0302V6.61811H7.4665Z" fill="#736D6A"/>
<path d="M15.6969 6.61808H4.83628C4.32719 6.61808 3.98779 6.27868 3.98779 5.76959V1.78171C3.98779 1.27262 4.32719 0.933228 4.83628 0.933228H15.6969C16.206 0.933228 16.5454 1.27262 16.5454 1.78171V5.68474C16.5454 6.19383 16.1211 6.61808 15.6969 6.61808ZM5.68476 4.92111H14.8484V2.6302H5.68476V4.92111Z" fill="#736D6A"/>
<path d="M50.7394 55.2363H5.26059C4.7515 55.2363 4.41211 54.897 4.41211 54.3879V23.5879C4.41211 23.0788 4.7515 22.7394 5.26059 22.7394C5.76969 22.7394 6.10908 23.0788 6.10908 23.5879V53.4545H49.8909V24.097C49.8909 23.5879 50.2303 23.2485 50.7394 23.2485C51.2485 23.2485 51.5879 23.5879 51.5879 24.097V54.3879C51.5879 54.8121 51.2485 55.2363 50.7394 55.2363Z" fill="#736D6A"/>
<path d="M28 50.1454H10.7757C10.2666 50.1454 9.92725 49.806 9.92725 49.2969V46.2424C9.92725 44.6303 11.2 43.3575 12.8121 43.3575H25.8788C27.4909 43.3575 28.7636 44.6303 28.7636 46.2424V49.2969C28.8485 49.7212 28.4242 50.1454 28 50.1454ZM11.6242 48.4485H27.1515V46.2424C27.1515 45.5636 26.6424 45.0545 25.9636 45.0545H12.8969C12.2182 45.0545 11.7091 45.5636 11.7091 46.2424V48.4485H11.6242Z" fill="#736D6A"/>
<path d="M30.1212 55.2364H8.56968C8.06059 55.2364 7.72119 54.897 7.72119 54.3879V49.2121C7.72119 48.703 8.06059 48.3636 8.56968 48.3636H30.1212C30.6303 48.3636 30.9697 48.703 30.9697 49.2121V54.3879C30.9697 54.897 30.6303 55.2364 30.1212 55.2364ZM9.41816 53.5394H29.2727V50.0606H9.41816V53.5394Z" fill="#736D6A"/>
<path d="M27.2362 36.3151C26.9817 36.3151 26.812 36.2302 26.6423 36.0605L20.0241 29.4423C19.8544 29.2726 19.7695 29.0181 19.7695 28.7636C19.7695 28.509 19.9392 28.2545 20.1089 28.1696C23.418 25.6242 26.3029 22.6545 28.9332 19.3454C29.1029 19.1757 29.2726 19.006 29.5271 19.006C29.7817 19.006 30.0362 19.0908 30.2059 19.2605L36.8241 25.8787C36.9938 26.0484 37.0786 26.303 37.0786 26.5575C37.0786 26.812 36.9938 26.9817 36.7392 27.1514C33.515 29.7817 30.5453 32.7514 27.915 35.9757C27.7453 36.2302 27.5756 36.3151 27.2362 36.3151ZM21.9756 29.0181L27.2362 34.2787C29.612 31.4787 32.2423 28.9333 34.9574 26.5575L29.6968 21.212C27.4059 24.0969 24.7756 26.6423 21.9756 29.0181Z" fill="#736D6A"/>
<path d="M25.7091 39.9636C24.9454 39.9636 24.2667 39.6242 23.6727 39.1151L17.0545 32.4969C16.5454 31.9878 16.2061 31.2242 16.2061 30.4606C16.2061 29.6969 16.5454 29.0181 17.0545 28.4242L17.1394 28.3394C18.2424 27.2363 20.1091 27.2363 21.2121 28.3394L27.8303 34.9575C28.3394 35.4666 28.6788 36.2303 28.6788 36.9939C28.6788 37.7575 28.3394 38.4363 27.8303 39.0303L27.6606 39.2C27.2364 39.6242 26.4727 39.9636 25.7091 39.9636ZM19.2606 29.103C18.9212 29.103 18.6667 29.1878 18.4121 29.4424L18.3273 29.5272C18.0727 29.7818 17.9879 30.0363 17.9879 30.3757C17.9879 30.7151 18.0727 30.9697 18.3273 31.2242L24.9454 37.8424C25.3697 38.2666 26.1333 38.2666 26.5576 37.8424L26.7273 37.6727C26.9818 37.4181 27.0667 37.1636 27.0667 36.8242C27.0667 36.4848 26.9818 36.2303 26.7273 35.9757L20.1091 29.3575C19.8545 29.2727 19.5151 29.103 19.2606 29.103Z" fill="#736D6A"/>
<path d="M37.673 28C36.9093 28 36.2305 27.6606 35.6366 27.1515L29.0184 20.5333C28.5093 20.0242 28.1699 19.2606 28.1699 18.4969C28.1699 17.7333 28.5093 17.0545 29.0184 16.4606L29.1033 16.3757C30.2063 15.2727 32.073 15.2727 33.176 16.3757L39.7942 22.9939C40.8972 24.0969 40.8972 25.9636 39.7942 27.0666L39.7093 27.1515C39.1154 27.7454 38.4366 28 37.673 28ZM31.1396 17.2242C30.8002 17.2242 30.5457 17.3091 30.2911 17.5636L30.2063 17.6485C29.9517 17.903 29.8669 18.1576 29.8669 18.4969C29.8669 18.8363 29.9517 19.0909 30.2063 19.3454L36.8245 25.9636C37.2487 26.3879 38.0123 26.3879 38.4366 25.9636L38.6063 25.7939C39.0305 25.3697 39.0305 24.606 38.6063 24.1818L31.9881 17.5636C31.7336 17.3091 31.479 17.2242 31.1396 17.2242Z" fill="#736D6A"/>
<path d="M44.4604 47.5151C43.3574 47.5151 42.424 47.0909 41.6604 46.3272L29.5271 33.1757C29.1877 32.8363 29.1877 32.3272 29.6119 31.9878C29.9513 31.6484 30.4604 31.6484 30.7998 32.0727L42.9331 45.1394C43.3574 45.5636 43.8664 45.8181 44.4604 45.8181C44.9695 45.8181 45.5634 45.6484 45.9877 45.2242C46.4119 44.8 46.5816 44.2909 46.5816 43.6969C46.5816 43.103 46.3271 42.5939 45.9028 42.1697L32.7513 30.0363C32.4119 29.6969 32.4119 29.1878 32.6664 28.8484C32.921 28.5091 33.5149 28.5091 33.8543 28.7636L46.921 40.8969C47.6846 41.5757 48.1089 42.5939 48.1089 43.6121C48.1089 44.6303 47.7695 45.6484 47.0058 46.3272C46.4119 47.1757 45.4786 47.5151 44.4604 47.5151Z" fill="#736D6A"/>
<path d="M18.0731 41.9151C17.564 41.9151 17.2246 41.5757 17.2246 41.0666V39.2848C17.2246 38.7757 17.564 38.4363 18.0731 38.4363C18.5822 38.4363 18.9216 38.7757 18.9216 39.2848V41.0666C18.9216 41.4908 18.4973 41.9151 18.0731 41.9151Z" fill="#736D6A"/>
<path d="M14.8488 41.6605C14.5942 41.6605 14.4245 41.5756 14.2548 41.4059L12.9821 40.1332C12.6427 39.7938 12.6427 39.2847 12.9821 38.9453C13.3215 38.6059 13.8306 38.6059 14.17 38.9453L15.4427 40.2181C15.7821 40.5575 15.7821 41.0666 15.4427 41.4059C15.273 41.5756 15.1033 41.6605 14.8488 41.6605Z" fill="#736D6A"/>
</g>
<defs>
<clipPath id="clip0_786_11924">
<rect width="56" height="56" fill="white"/>
</clipPath>
</defs>
</svg>
