<svg width="56" height="56" viewBox="0 0 56 56" fill="none" xmlns="http://www.w3.org/2000/svg">
<path d="M10.2963 52.584H3.69611C3.48818 52.584 3.28877 52.5014 3.14174 52.3544C2.99471 52.2073 2.91211 52.0079 2.91211 51.8V28.8366C2.91211 28.6287 2.99471 28.4293 3.14174 28.2823C3.28877 28.1352 3.48818 28.0526 3.69611 28.0526H10.2963C10.5042 28.0526 10.7036 28.1352 10.8506 28.2823C10.9977 28.4293 11.0803 28.6287 11.0803 28.8366V51.8C11.0803 52.0079 10.9977 52.2073 10.8506 52.3544C10.7036 52.5014 10.5042 52.584 10.2963 52.584ZM4.48011 51.016H9.51283V29.6206H4.48011V51.016Z" fill="#736D6A"/>
<path d="M33.4629 44.305H19.9876C19.7797 44.305 19.5803 44.2224 19.4332 44.0753C19.2862 43.9283 19.2036 43.7289 19.2036 43.521C19.2036 43.313 19.2862 43.1136 19.4332 42.9666C19.5803 42.8196 19.7797 42.737 19.9876 42.737H33.4629C34.0964 42.7374 34.7092 42.5117 35.191 42.1004C35.6728 41.6891 35.992 41.1193 36.091 40.4936C36.1068 40.3918 36.1426 40.2941 36.1962 40.2061C36.2499 40.1181 36.3204 40.0415 36.4036 39.9808C36.4869 39.9201 36.5813 39.8763 36.6815 39.8521C36.7817 39.8279 36.8856 39.8237 36.9874 39.8397C37.0893 39.8557 37.1869 39.8917 37.2748 39.9454C37.3627 39.9992 37.4392 40.0698 37.4998 40.1532C37.5604 40.2365 37.6039 40.331 37.628 40.4312C37.652 40.5314 37.6561 40.6354 37.6399 40.7372C37.4827 41.7319 36.9755 42.6378 36.2098 43.2919C35.444 43.9459 34.47 44.3052 33.4629 44.305Z" fill="#736D6A"/>
<path d="M26.0736 51.7647C24.1222 51.7639 22.1777 51.5314 20.281 51.072L10.112 48.6192C9.94099 48.5779 9.78888 48.4802 9.6801 48.342C9.57131 48.2038 9.51218 48.033 9.51221 47.857V32.7796C9.51221 32.5717 9.59481 32.3723 9.74184 32.2252C9.88886 32.0782 10.0883 31.9956 10.2962 31.9956H17.8881C21.3941 32.0032 24.7571 33.3862 27.2541 35.8473H33.4141C35.5656 35.8473 37.3716 37.45 37.6539 39.5102L46.76 36.3322C47.7129 36.0069 48.7544 36.0607 49.6687 36.4825C50.583 36.9043 51.2999 37.6617 51.6709 38.5977C52.0419 39.5338 52.0384 40.5767 51.6613 41.5103C51.2841 42.4439 50.5622 43.1965 49.6452 43.6122L36.1279 49.6283C33.656 50.7301 31.0195 51.4173 28.3243 51.6622C27.5739 51.7306 26.8237 51.7647 26.0736 51.7647ZM11.0802 47.2394L20.6495 49.5499C25.6107 50.7389 30.8253 50.2631 35.4895 48.1958L49.0062 42.1781C49.3993 42.0024 49.7366 41.7221 49.9814 41.3678C50.2261 41.0136 50.3689 40.5989 50.3942 40.1691C50.4195 39.7393 50.3264 39.3107 50.1249 38.9302C49.9233 38.5497 49.6212 38.2318 49.2515 38.0111C48.9567 37.8356 48.6271 37.7268 48.2857 37.6925C47.9444 37.6581 47.5996 37.699 47.2758 37.8123L37.1241 41.3554C36.9961 41.4001 36.8587 41.4108 36.7253 41.3865C36.5919 41.3622 36.4671 41.3038 36.3631 41.2168C36.259 41.1299 36.1793 41.0174 36.1317 40.8905C36.0841 40.7635 36.0703 40.6264 36.0915 40.4925C36.1152 40.3399 36.1257 40.1855 36.1228 40.031C36.0988 38.5885 34.883 37.4153 33.413 37.4153H26.926C26.8203 37.4153 26.7158 37.394 26.6186 37.3526C26.5214 37.3113 26.4336 37.2507 26.3604 37.1745C25.2623 36.0354 23.9465 35.1288 22.491 34.5084C21.0356 33.8881 19.4703 33.5668 17.8881 33.5636H11.0802V47.2394Z" fill="#736D6A"/>
<path d="M35.4237 28.5813H32.5218C32.3139 28.5813 32.1145 28.4987 31.9674 28.3517C31.8204 28.2046 31.7378 28.0052 31.7378 27.7973V8.55344C31.7378 8.34551 31.8204 8.1461 31.9674 7.99907C32.1145 7.85204 32.3139 7.76944 32.5218 7.76944C32.7297 7.76944 32.9291 7.85204 33.0762 7.99907C33.2232 8.1461 33.3058 8.34551 33.3058 8.55344V27.0133H34.6397V8.55344C34.6397 8.34551 34.7223 8.1461 34.8693 7.99907C35.0164 7.85204 35.2158 7.76944 35.4237 7.76944C35.6316 7.76944 35.8311 7.85204 35.9781 7.99907C36.1251 8.1461 36.2077 8.34551 36.2077 8.55344V27.7973C36.2077 28.0052 36.1251 28.2046 35.9781 28.3517C35.8311 28.4987 35.6316 28.5813 35.4237 28.5813Z" fill="#736D6A"/>
<path d="M39.2936 31.4838H28.6536C28.4457 31.4838 28.2463 31.4012 28.0993 31.2541C27.9522 31.1071 27.8696 30.9077 27.8696 30.6998V29.3916C27.8702 28.7612 28.1209 28.1567 28.5667 27.7109C29.0125 27.2652 29.6169 27.0144 30.2474 27.0139H37.6999C38.3303 27.0144 38.9348 27.2652 39.3805 27.7109C39.8263 28.1567 40.077 28.7612 40.0776 29.3916V30.6998C40.0776 30.9077 39.995 31.1071 39.848 31.2541C39.701 31.4012 39.5016 31.4838 39.2936 31.4838ZM29.4376 29.9158H38.5096V29.3916C38.5095 29.1769 38.4241 28.971 38.2723 28.8192C38.1205 28.6674 37.9146 28.582 37.6999 28.5819H30.2457C30.031 28.582 29.8251 28.6674 29.6733 28.8192C29.5215 28.971 29.4361 29.1769 29.4359 29.3916L29.4376 29.9158Z" fill="#736D6A"/>
<path d="M33.9731 9.82127C33.3397 9.82127 32.7205 9.63343 32.1939 9.28152C31.6672 8.92961 31.2567 8.42943 31.0143 7.84422C30.7719 7.25902 30.7085 6.61507 30.832 5.99382C30.9556 5.37257 31.2606 4.80192 31.7085 4.35402C32.1564 3.90612 32.7271 3.6011 33.3483 3.47752C33.9696 3.35395 34.6135 3.41737 35.1987 3.65977C35.784 3.90217 36.2841 4.31266 36.636 4.83934C36.988 5.36601 37.1758 5.9852 37.1758 6.61863C37.1747 7.4677 36.837 8.2817 36.2366 8.88209C35.6362 9.48248 34.8222 9.82023 33.9731 9.82127ZM33.9731 4.98399C33.6498 4.98399 33.3338 5.07986 33.065 5.25947C32.7962 5.43909 32.5867 5.69439 32.4629 5.99308C32.3392 6.29177 32.3068 6.62044 32.3699 6.93753C32.433 7.25462 32.5887 7.54588 32.8173 7.77449C33.0459 8.0031 33.3372 8.15878 33.6542 8.22186C33.9713 8.28493 34.3 8.25256 34.5987 8.12884C34.8974 8.00512 35.1527 7.7956 35.3323 7.52678C35.5119 7.25797 35.6078 6.94193 35.6078 6.61863C35.6073 6.18523 35.435 5.76971 35.1285 5.46325C34.8221 5.15679 34.4065 4.98443 33.9731 4.98399Z" fill="#736D6A"/>
<path d="M46.0655 24.2727C44.5753 24.2709 43.1466 23.678 42.0929 22.6242C41.0391 21.5704 40.4465 20.1416 40.4448 18.6514C40.4448 18.4434 40.5274 18.244 40.6745 18.097C40.8215 17.95 41.0209 17.8674 41.2288 17.8674H50.9039C51.1119 17.8674 51.3113 17.95 51.4583 18.097C51.6053 18.244 51.6879 18.4434 51.6879 18.6514C51.6863 20.1419 51.0934 21.5709 50.0393 22.6248C48.9852 23.6787 47.5561 24.2713 46.0655 24.2727ZM42.0895 19.4354C42.2724 20.3558 42.7685 21.1845 43.4933 21.7805C44.2182 22.3765 45.1271 22.7031 46.0655 22.7047C47.004 22.7032 47.913 22.3767 48.6379 21.7807C49.3628 21.1846 49.8588 20.3559 50.0415 19.4354H42.0895Z" fill="#736D6A"/>
<path d="M21.8806 24.2727C20.3902 24.271 18.9614 23.6783 17.9075 22.6244C16.8537 21.5706 16.2609 20.1417 16.2593 18.6514C16.2593 18.4434 16.3419 18.244 16.4889 18.097C16.6359 17.95 16.8353 17.8674 17.0433 17.8674H26.7173C26.9252 17.8674 27.1246 17.95 27.2716 18.097C27.4187 18.244 27.5013 18.4434 27.5013 18.6514C27.4996 20.1416 26.907 21.5704 25.8532 22.6242C24.7995 23.678 23.3708 24.2709 21.8806 24.2727ZM17.9046 19.4354C18.0869 20.3558 18.5829 21.1844 19.308 21.7799C20.0331 22.3754 20.9423 22.7009 21.8806 22.7009C22.8188 22.7009 23.7281 22.3754 24.4531 21.7799C25.1782 21.1844 25.6742 20.3558 25.8566 19.4354H17.9046Z" fill="#736D6A"/>
<path d="M50.9039 19.4359C50.7512 19.436 50.6019 19.3916 50.4741 19.308C50.3464 19.2244 50.2459 19.1054 50.1848 18.9655L46.0654 9.54351L41.9466 18.9655C41.8603 19.1513 41.7048 19.2958 41.5132 19.3684C41.3217 19.4409 41.1094 19.4355 40.9217 19.3535C40.734 19.2715 40.5859 19.1193 40.509 18.9295C40.4321 18.7396 40.4326 18.5273 40.5103 18.3378L45.347 7.27215C45.408 7.13238 45.5085 7.01345 45.6361 6.92992C45.7637 6.8464 45.9129 6.80191 46.0654 6.80191C46.218 6.80191 46.3672 6.8464 46.4948 6.92992C46.6224 7.01345 46.7229 7.13238 46.7839 7.27215L51.6212 18.3378C51.6734 18.457 51.695 18.5874 51.6842 18.7171C51.6734 18.8468 51.6305 18.9717 51.5593 19.0807C51.4881 19.1896 51.3909 19.2792 51.2765 19.3412C51.1621 19.4032 51.034 19.4358 50.9039 19.4359Z" fill="#736D6A"/>
<path d="M46.0644 8.37031C45.9428 8.37018 45.823 8.3418 45.7143 8.28743L43.7796 7.31975C43.2895 7.068 42.7465 6.93669 42.1956 6.93669C41.6447 6.93669 41.1017 7.068 40.6116 7.31975L40.5959 7.32759C39.8888 7.68195 39.1085 7.86581 38.3175 7.86445C37.5265 7.86309 36.7468 7.67654 36.0409 7.31975C35.8666 7.22041 35.7369 7.05801 35.6787 6.86598C35.6205 6.67395 35.6382 6.4669 35.728 6.28749C35.8179 6.10807 35.9731 5.96993 36.1617 5.90152C36.3504 5.83311 36.5581 5.83963 36.742 5.91975C37.2321 6.17149 37.7751 6.3028 38.326 6.3028C38.8769 6.3028 39.4199 6.17149 39.9099 5.91975L39.9256 5.91191C40.6327 5.55729 41.4131 5.37328 42.2041 5.37464C42.9951 5.376 43.7748 5.56269 44.4807 5.91975L46.4155 6.88687C46.5737 6.96574 46.7007 7.09579 46.7757 7.2559C46.8507 7.41602 46.8694 7.59679 46.8287 7.76887C46.7881 7.94094 46.6904 8.09422 46.5517 8.20381C46.4129 8.3134 46.2412 8.37286 46.0644 8.37255V8.37031Z" fill="#736D6A"/>
<path d="M21.8811 8.37033C21.7043 8.37064 21.5326 8.31118 21.3938 8.20159C21.255 8.092 21.1574 7.93873 21.1167 7.76665C21.0761 7.59457 21.0947 7.4138 21.1698 7.25368C21.2448 7.09357 21.3717 6.96352 21.53 6.88465L23.4642 5.91753C24.1728 5.55926 24.9556 5.37259 25.7496 5.37259C26.5436 5.37259 27.3264 5.55926 28.035 5.91753C28.525 6.16927 29.068 6.30058 29.6189 6.30058C30.1698 6.30058 30.7128 6.16927 31.2029 5.91753C31.2957 5.87292 31.3964 5.84704 31.4992 5.84135C31.602 5.83566 31.7049 5.85027 31.8021 5.88436C31.8992 5.91845 31.9887 5.97134 32.0655 6.04001C32.1422 6.10869 32.2046 6.1918 32.2492 6.28461C32.2938 6.37741 32.3197 6.4781 32.3254 6.58091C32.3311 6.68372 32.3165 6.78665 32.2824 6.88381C32.2483 6.98098 32.1954 7.07047 32.1267 7.1472C32.0581 7.22392 31.975 7.28637 31.8822 7.33097C31.1763 7.68634 30.3966 7.87051 29.6064 7.86857C28.8161 7.86662 28.0374 7.67862 27.3333 7.31977C26.8432 7.06802 26.3002 6.93671 25.7493 6.93671C25.1984 6.93671 24.6554 7.06802 24.1654 7.31977L22.2322 8.28801C22.1232 8.34256 22.003 8.37075 21.8811 8.37033Z" fill="#736D6A"/>
<path d="M26.7174 19.4359C26.5649 19.4359 26.4156 19.3914 26.288 19.3078C26.1604 19.2243 26.0599 19.1053 25.9989 18.9655L21.8801 9.54352L17.7613 18.9655C17.7201 19.0599 17.6607 19.1452 17.5865 19.2166C17.5123 19.288 17.4248 19.3441 17.3289 19.3816C17.1353 19.4575 16.9195 19.4534 16.729 19.3701C16.5384 19.2869 16.3887 19.1313 16.3128 18.9377C16.237 18.7441 16.2411 18.5283 16.3244 18.3378L21.1616 7.27216C21.2228 7.13255 21.3232 7.01377 21.4508 6.93037C21.5783 6.84697 21.7274 6.80255 21.8798 6.80255C22.0322 6.80255 22.1813 6.84697 22.3089 6.93037C22.4364 7.01377 22.5369 7.13255 22.598 7.27216L27.4353 18.3378C27.4875 18.457 27.5091 18.5874 27.4983 18.7172C27.4875 18.8469 27.4445 18.9719 27.3732 19.0809C27.302 19.1899 27.2047 19.2794 27.0902 19.3414C26.9757 19.4034 26.8476 19.4359 26.7174 19.4359Z" fill="#736D6A"/>
</svg>
