<svg width="57" height="56" viewBox="0 0 57 56" fill="none" xmlns="http://www.w3.org/2000/svg">
<path d="M43.862 48.7029H17.1348C14.759 48.7029 12.8075 46.7514 12.8075 44.3757C12.8075 43.8666 13.1469 43.5272 13.656 43.5272C14.1651 43.5272 14.5045 43.8666 14.5045 44.3757C14.5045 45.8181 15.6924 47.006 17.1348 47.006H43.862C45.3045 47.006 46.4924 45.8181 46.4924 44.3757V5.17566C46.4924 3.73324 45.3045 2.54536 43.862 2.54536H17.1348C15.6924 2.54536 14.5045 3.73324 14.5045 5.17566V7.46657C14.5045 7.97566 14.1651 8.31506 13.656 8.31506C13.1469 8.31506 12.8075 7.97566 12.8075 7.46657V5.17566C12.8075 2.7999 14.759 0.848389 17.1348 0.848389H43.862C46.2378 0.848389 48.1893 2.7999 48.1893 5.17566V44.3757C48.1893 46.7514 46.2378 48.7029 43.862 48.7029ZM13.5711 23.2484C13.0621 23.2484 12.7227 22.909 12.7227 22.3999V14.2544C12.7227 13.7454 13.0621 13.406 13.5711 13.406C14.0802 13.406 14.4196 13.7454 14.4196 14.2544V22.3999C14.4196 22.8241 14.0802 23.2484 13.5711 23.2484Z" fill="#736D6A"/>
<path d="M46.492 55.1516C46.3223 55.1516 46.2374 55.1516 46.0677 55.1516L19.4253 52.6909C17.0495 52.4364 15.2677 50.3152 15.5223 47.9394V47.8546C15.5223 47.6 15.6071 47.3455 15.8617 47.1758C16.1162 47.0061 16.2859 46.9212 16.5405 47.0061C16.7102 47.0061 16.8799 47.0909 17.0495 47.0909H43.7768C45.2192 47.0909 46.4071 45.9031 46.4071 44.4606V8.06064C46.4071 7.8061 46.492 7.6364 46.6617 7.4667C46.8314 7.29701 47.0859 7.21216 47.3405 7.21216L50.4798 7.4667C52.8556 7.72125 54.6374 9.84246 54.3829 12.2182L50.8192 51.2485C50.6495 53.4546 48.7829 55.1516 46.492 55.1516ZM17.3041 48.7031C17.4738 49.8909 18.492 50.8243 19.6799 50.994L46.3223 53.4546C47.7647 53.6243 49.0374 52.5212 49.2071 51.0788L52.7708 12.0485C52.9405 10.6061 51.8374 9.33337 50.395 9.16367L48.1889 8.99398V44.4606C48.1889 46.8364 46.2374 48.7879 43.8617 48.7879H17.3041V48.7031Z" fill="#736D6A"/>
<path d="M14.165 36.7394H9.66805C9.15896 36.7394 8.81956 36.4 8.81956 35.8909V33.2606C8.81956 32.3272 8.48017 31.3939 7.80138 30.6303C6.6135 29.3575 6.10441 27.6606 6.35896 25.9636C6.69835 23.503 8.81956 21.4666 11.2802 21.2121C12.8923 21.0424 14.5044 21.5515 15.6923 22.5697C16.8802 23.6727 17.559 25.2 17.559 26.8121C17.559 28.1697 17.0499 29.5272 16.1165 30.5454C15.6074 31.1394 15.0135 32.0727 15.0135 33.2606V35.8909C15.0135 36.4 14.5893 36.7394 14.165 36.7394ZM10.4317 35.0424H13.2317V33.2606C13.2317 31.903 13.7408 30.5454 14.759 29.4424C15.4377 28.6788 15.7771 27.8303 15.7771 26.8121C15.7771 25.7091 15.268 24.606 14.4196 23.8424C13.5711 23.0788 12.468 22.7394 11.2802 22.9091C9.5832 23.0788 8.14077 24.5212 7.88623 26.2181C7.71653 27.406 8.05593 28.5939 8.90441 29.5272C9.83774 30.5454 10.3468 31.903 10.3468 33.2606V35.0424H10.4317Z" fill="#736D6A"/>
<path d="M19.0015 40.7272H4.74692C4.23783 40.7272 3.89844 40.3878 3.89844 39.8787V37.7575C3.89844 36.3151 5.08632 35.1272 6.52874 35.1272H17.2196C18.6621 35.1272 19.85 36.3151 19.85 37.7575V39.8787C19.85 40.303 19.5106 40.7272 19.0015 40.7272ZM5.59541 39.0302H18.153V37.7575C18.153 37.2484 17.7287 36.8242 17.2196 36.8242H6.52874C6.01965 36.8242 5.59541 37.2484 5.59541 37.7575V39.0302Z" fill="#736D6A"/>
<path d="M20.6981 44.6303H3.04966C2.54057 44.6303 2.20117 44.2909 2.20117 43.7818V39.8788C2.20117 39.3697 2.54057 39.0303 3.04966 39.0303H20.6981C21.2072 39.0303 21.5466 39.3697 21.5466 39.8788V43.7818C21.5466 44.2909 21.2072 44.6303 20.6981 44.6303ZM3.89814 42.9333H19.8497V40.7272H3.89814V42.9333Z" fill="#736D6A"/>
<path d="M42.334 7.63642H20.3583C19.8492 7.63642 19.5098 7.29703 19.5098 6.78794C19.5098 6.27885 19.8492 5.93945 20.3583 5.93945H42.334C42.8431 5.93945 43.1825 6.27885 43.1825 6.78794C43.1825 7.29703 42.7583 7.63642 42.334 7.63642Z" fill="#736D6A"/>
<path d="M42.3342 12.4728H24.1766C23.6675 12.4728 23.3281 12.1335 23.3281 11.6244C23.3281 11.1153 23.6675 10.7759 24.1766 10.7759H42.3342C42.8433 10.7759 43.1827 11.1153 43.1827 11.6244C43.1827 12.1335 42.7584 12.4728 42.3342 12.4728Z" fill="#736D6A"/>
<path d="M42.3347 17.394H29.6922C29.1831 17.394 28.8438 17.0546 28.8438 16.5455C28.8438 16.0364 29.1831 15.697 29.6922 15.697H42.2498C42.7589 15.697 43.0983 16.0364 43.0983 16.5455C43.0983 17.0546 42.7589 17.394 42.3347 17.394Z" fill="#736D6A"/>
<path d="M42.333 22.2304H32.1512C31.6421 22.2304 31.3027 21.891 31.3027 21.3819C31.3027 20.8728 31.6421 20.5334 32.1512 20.5334H42.2482C42.7573 20.5334 43.0967 20.8728 43.0967 21.3819C43.0967 21.891 42.7573 22.2304 42.333 22.2304Z" fill="#736D6A"/>
<path d="M42.3335 27.1516H32.4911C31.982 27.1516 31.6426 26.8122 31.6426 26.3031C31.6426 25.794 31.982 25.4546 32.4911 25.4546H42.2486C42.7577 25.4546 43.0971 25.794 43.0971 26.3031C43.0971 26.8122 42.7577 27.1516 42.3335 27.1516Z" fill="#736D6A"/>
<path d="M42.3343 32.0727H22.0555C21.5464 32.0727 21.207 31.7333 21.207 31.2242C21.207 30.7151 21.5464 30.3757 22.0555 30.3757H42.3343C42.8434 30.3757 43.1828 30.7151 43.1828 31.2242C43.1828 31.7333 42.7585 32.0727 42.3343 32.0727Z" fill="#736D6A"/>
<path d="M42.3345 36.9091H26.6375C26.1285 36.9091 25.7891 36.5697 25.7891 36.0606C25.7891 35.5516 26.1285 35.2122 26.6375 35.2122H42.3345C42.8436 35.2122 43.183 35.5516 43.183 36.0606C43.183 36.5697 42.7588 36.9091 42.3345 36.9091Z" fill="#736D6A"/>
<path d="M34.613 43.6971C33.6796 43.6971 32.916 43.5274 32.3221 43.1031C31.9827 42.9335 31.813 42.6789 31.5584 42.4244C30.7948 43.2728 30.0311 43.8668 29.0978 43.6122C27.8251 43.188 27.7402 41.3213 27.7402 40.7274C27.7402 40.2183 28.0796 39.8789 28.5887 39.8789C29.0978 39.8789 29.4372 40.2183 29.4372 40.7274C29.4372 41.1516 29.5221 41.6607 29.6069 41.9153C29.7766 41.8304 30.2857 41.4062 31.0493 40.3031C31.219 39.9638 31.6433 39.8789 31.9827 39.9638C32.3221 40.0486 32.5766 40.388 32.5766 40.7274C32.5766 40.7274 32.5766 41.4062 33.1705 41.7456C33.6796 42.085 34.8675 42.4244 37.7524 41.3213C38.1766 41.1516 38.6857 41.4062 38.8554 41.8304C39.0251 42.2547 38.7705 42.7638 38.3463 42.9335C36.9887 43.3577 35.6311 43.6971 34.613 43.6971Z" fill="#736D6A"/>
<path d="M28.4192 26.4728C28.3343 26.4728 28.2495 26.4728 28.1646 26.3879L22.904 24.4364C22.4798 24.2667 22.2253 23.7576 22.395 23.3334C22.5646 22.9091 23.0737 22.6546 23.498 22.8243L27.0616 24.097L25.7889 20.5334C25.6192 20.1091 25.8737 19.6 26.298 19.4304C26.7222 19.2607 27.2313 19.5152 27.401 19.9394L29.3525 25.2C29.4374 25.5394 29.3525 25.8788 29.1828 26.1334C28.8434 26.3879 28.5889 26.4728 28.4192 26.4728Z" fill="#736D6A"/>
<path d="M23.1581 24.6061C22.9036 24.6061 22.7339 24.5212 22.5642 24.3515L4.23692 5.93941C3.64298 5.43031 3.47328 4.49698 3.72783 3.73334C4.32177 2.46062 5.17025 1.52728 6.44298 1.01819C7.20661 0.678799 8.13995 0.848496 8.73389 1.44244L27.0612 19.7697C27.2309 19.9394 27.3157 20.1091 27.3157 20.3636C27.3157 20.6182 27.2309 20.7879 27.0612 20.9576L23.7521 24.2667C23.5824 24.5212 23.3278 24.6061 23.1581 24.6061ZM7.29146 2.54547H7.20661C6.27328 2.96971 5.67934 3.56365 5.33995 4.41213C5.2551 4.49698 5.33995 4.66668 5.4248 4.75153L23.1581 22.4849L25.2793 20.3636L7.54601 2.63031C7.46116 2.54547 7.37631 2.54547 7.29146 2.54547Z" fill="#736D6A"/>
<path d="M6.10358 7.55153C5.84904 7.55153 5.67934 7.46668 5.50964 7.29698L4.23692 5.93941C3.64298 5.34547 3.47328 4.49698 3.72783 3.73334C4.32177 2.46062 5.17025 1.52728 6.44298 1.01819C7.20661 0.678799 8.13995 0.848496 8.73389 1.44244L10.0066 2.71516C10.1763 2.88486 10.2612 3.05456 10.2612 3.3091C10.2612 3.56365 10.1763 3.73334 10.0066 3.90304L6.69752 7.29698C6.52783 7.46668 6.35813 7.55153 6.10358 7.55153ZM7.29146 2.54547H7.20661C6.27328 2.96971 5.67934 3.56365 5.33995 4.41213C5.2551 4.49698 5.33995 4.66668 5.4248 4.75153L6.10358 5.43031L8.2248 3.3091L7.54601 2.63031C7.46116 2.54547 7.37631 2.54547 7.29146 2.54547Z" fill="#736D6A"/>
<path d="M7.29174 12.5577C6.8675 12.5577 6.5281 12.2183 6.44325 11.794L6.3584 11.0304H5.84931C5.67962 11.0304 5.50992 10.9455 5.34022 10.7758L4.91598 10.3516C3.8978 9.33341 3.8978 7.63644 4.91598 6.61826L5.50992 6.02432C5.84931 5.68493 6.3584 5.68493 6.6978 6.02432C7.03719 6.36371 7.03719 6.87281 6.6978 7.2122L6.10386 7.80614C5.76447 8.14553 5.76447 8.73947 6.10386 9.16372L6.27356 9.33341L7.20689 9.50311C7.54628 9.58796 7.88568 9.8425 7.88568 10.2667L8.05537 11.6243C8.14022 12.0486 7.80083 12.4728 7.29174 12.5577C7.37659 12.5577 7.37659 12.5577 7.29174 12.5577Z" fill="#736D6A"/>
</svg>
