<svg width="56" height="56" viewBox="0 0 56 56" fill="none" xmlns="http://www.w3.org/2000/svg">
<path d="M46.6926 33.1834L37.4832 37.6085C37.4121 36.8597 37.1266 36.1473 36.6608 35.5567C36.1949 34.9661 35.5687 34.5224 34.857 34.2788L24.1545 30.5823C23.4783 30.3506 22.763 30.2543 22.0496 30.299C21.3361 30.3437 20.6385 30.5285 19.9965 30.8429L14.4355 33.5534L10.8809 35.3178L10.6493 34.8428C10.5467 34.6351 10.3663 34.4762 10.1472 34.4009C9.92813 34.3255 9.68815 34.3397 9.47948 34.4403L3.9911 37.1175C3.78261 37.2192 3.62308 37.3997 3.5476 37.619C3.47212 37.8384 3.48686 38.0788 3.5886 38.2873L10.281 52.0087C10.3313 52.112 10.4015 52.2044 10.4876 52.2805C10.5736 52.3567 10.6738 52.4151 10.7825 52.4525C10.8911 52.4899 11.0061 52.5055 11.1208 52.4984C11.2355 52.4913 11.3476 52.4617 11.4508 52.4112L16.9392 49.7341C17.1477 49.6323 17.3072 49.4519 17.3827 49.2325C17.4582 49.0132 17.4435 48.7728 17.3417 48.5643L17.0022 47.8681L20.0582 46.3469C20.5775 46.0968 21.1741 46.06 21.7202 46.2443L28.9389 48.7275C30.3051 49.1946 31.8001 49.1065 33.102 48.4823L50.2918 40.1672C50.8031 39.9132 51.2533 39.5515 51.6115 39.107C51.9697 38.6625 52.2274 38.1457 52.3669 37.5921C52.5063 37.0386 52.5243 36.4614 52.4195 35.9002C52.3147 35.339 52.0897 34.8072 51.7598 34.3413C51.1842 33.5859 50.3618 33.0563 49.4359 32.8447C48.51 32.6332 47.5393 32.753 46.6926 33.1834ZM11.4696 50.4552L5.54456 38.3061L9.46069 36.3963L15.3858 48.5455L11.4696 50.4552ZM50.6823 37.1713C50.6054 37.4778 50.4624 37.7637 50.2632 38.0091C50.0641 38.2544 49.8137 38.4532 49.5295 38.5914L32.3414 46.9057C31.4563 47.3307 30.4397 47.3911 29.5105 47.074L22.2806 44.5866C20.2849 43.7601 17.9581 45.5318 16.2349 46.295L11.6494 36.8934L20.7656 32.4152C21.6477 31.9894 22.6614 31.9259 23.5897 32.2383L34.2888 35.934C34.828 36.1266 35.2695 36.524 35.5178 37.0399C35.766 37.5559 35.801 38.1488 35.6151 38.6904C35.4292 39.2319 35.0374 39.6784 34.5246 39.933C34.0117 40.1877 33.4192 40.23 32.8754 40.0509L22.7677 36.5714C22.5497 36.5013 22.3129 36.5195 22.1082 36.622C21.9034 36.7245 21.747 36.9032 21.6726 37.1197C21.5981 37.3363 21.6115 37.5734 21.7098 37.7801C21.8082 37.9869 21.9837 38.1469 22.1987 38.2257L32.3149 41.7087C33.2112 42.0066 34.1848 41.9725 35.058 41.6124C35.9312 41.2524 36.6459 40.5905 37.0718 39.7474L47.4557 34.7582C47.8278 34.5498 48.2523 34.4538 48.6778 34.4819C49.1034 34.5099 49.5117 34.6608 49.8532 34.9162C50.1947 35.1716 50.4548 35.5206 50.602 35.9209C50.7491 36.3211 50.777 36.7555 50.6823 37.1713Z" fill="#736D6A"/>
<path d="M26.5858 19.3512C28.0667 19.3496 29.4866 18.7606 30.5338 17.7134C31.581 16.6662 32.17 15.2464 32.1716 13.7654C32.1716 13.6505 32.149 13.5367 32.1051 13.4305C32.0611 13.3244 31.9967 13.2279 31.9154 13.1466C31.8341 13.0654 31.7377 13.0009 31.6315 12.957C31.5253 12.913 31.4115 12.8904 31.2966 12.8904H30.6083L27.9852 7.50884H31.6683C31.8309 7.50893 31.9903 7.46368 32.1285 7.37816C32.2668 7.29265 32.3785 7.17026 32.451 7.02476L33.338 5.25H35.875V23.193H31.3351C30.682 23.1471 30.037 23.36 29.5396 23.7857C29.0421 24.2114 28.7322 24.8158 28.6767 25.4681V26.693H27.7693C27.5372 26.693 27.3146 26.7852 27.1505 26.9493C26.9865 27.1134 26.8943 27.336 26.8943 27.568C26.8943 27.8001 26.9865 28.0227 27.1505 28.1868C27.3146 28.3509 27.5372 28.443 27.7693 28.443H45.7307C45.9628 28.443 46.1853 28.3509 46.3494 28.1868C46.5135 28.0227 46.6057 27.8001 46.6057 27.568C46.6057 27.336 46.5135 27.1134 46.3494 26.9493C46.1853 26.7852 45.9628 26.693 45.7307 26.693H44.8232V25.4681C44.7678 24.8158 44.4578 24.2114 43.9604 23.7857C43.463 23.36 42.818 23.1471 42.1649 23.193H37.625V5.25H40.162L41.0489 7.02476C41.1215 7.17026 41.2331 7.29265 41.3714 7.37817C41.5097 7.46368 41.6691 7.50893 41.8316 7.50884H45.5147L42.8917 12.8904H42.2033C42.0884 12.8904 41.9746 12.913 41.8685 12.957C41.7623 13.0009 41.6658 13.0654 41.5846 13.1466C41.5033 13.2279 41.4388 13.3244 41.3949 13.4305C41.3509 13.5367 41.3283 13.6505 41.3283 13.7654C41.3283 15.2469 41.9168 16.6677 42.9644 17.7152C44.0119 18.7627 45.4327 19.3512 46.9142 19.3512C48.3956 19.3512 49.8164 18.7627 50.8639 17.7152C51.9115 16.6677 52.5 15.2469 52.5 13.7654C52.5 13.6505 52.4774 13.5367 52.4334 13.4305C52.3895 13.3244 52.325 13.2279 52.2438 13.1466C52.1625 13.0654 52.066 13.0009 51.9599 12.957C51.8537 12.913 51.7399 12.8904 51.625 12.8904H50.9367L48.3143 7.50884H50.3022C50.5343 7.50884 50.7569 7.41665 50.9209 7.25256C51.085 7.08846 51.1772 6.8659 51.1772 6.63384C51.1772 6.40177 51.085 6.17921 50.9209 6.01512C50.7569 5.85103 50.5343 5.75884 50.3022 5.75884H42.3725L41.4856 3.98406C41.413 3.83856 41.3014 3.71618 41.1631 3.63067C41.0248 3.54515 40.8654 3.4999 40.7029 3.5H32.7971C32.6345 3.49991 32.4751 3.54516 32.3369 3.63068C32.1986 3.71619 32.0869 3.83858 32.0144 3.98408L31.1274 5.75884H23.1977C22.9657 5.75884 22.7431 5.85103 22.579 6.01512C22.4149 6.17921 22.3227 6.40177 22.3227 6.63384C22.3227 6.8659 22.4149 7.08846 22.579 7.25256C22.7431 7.41665 22.9657 7.50884 23.1977 7.50884H25.1856L22.5633 12.8904H21.875C21.7601 12.8904 21.6463 12.913 21.5401 12.957C21.4339 13.0009 21.3375 13.0654 21.2562 13.1466C21.175 13.2279 21.1105 13.3244 21.0665 13.4305C21.0226 13.5367 21 13.6505 21 13.7654C21.0016 15.2464 21.5906 16.6662 22.6378 17.7134C23.685 18.7606 25.1048 19.3496 26.5858 19.3512ZM43.0732 25.4681V26.693H30.4267V25.4681C30.4267 25.2255 30.8232 24.943 31.3351 24.943H42.1649C42.6767 24.943 43.0732 25.2255 43.0732 25.4681ZM46.9142 17.6012C46.0492 17.6002 45.2099 17.3073 44.5321 16.77C43.8543 16.2326 43.3776 15.4823 43.1792 14.6404H50.6491C50.4507 15.4823 49.9741 16.2327 49.2962 16.77C48.6184 17.3073 47.7791 17.6002 46.9142 17.6012ZM44.8376 12.8904L46.9141 8.63121L48.9893 12.8904H44.8376ZM26.5858 17.6012C25.7208 17.6002 24.8815 17.3073 24.2037 16.77C23.5259 16.2326 23.0492 15.4823 22.8508 14.6404H30.3208C30.1224 15.4823 29.6457 16.2327 28.9679 16.77C28.2901 17.3073 27.4508 17.6002 26.5858 17.6012ZM26.5858 8.63121L28.6623 12.8904H24.5107L26.5858 8.63121Z" fill="#736D6A"/>
</svg>
