<!-- Generated by IcoMoon.io -->
<svg version="1.1" xmlns="http://www.w3.org/2000/svg" width="1024" height="1024" viewBox="0 0 1024 1024">
<g id="icomoon-ignore">
</g>
<path fill="#736d6a" d="M337.607 873.536v-36.101c0-19.149 7.607-37.515 21.147-51.056s31.907-21.147 51.056-21.147h451.264c19.149 0 37.514 7.607 51.055 21.147s21.148 31.907 21.148 51.056v36.101c14.362 0 28.135 5.705 38.291 15.861s15.861 23.929 15.861 38.291c0 14.362-5.705 28.135-15.861 38.291s-23.929 15.861-38.291 15.861h-595.67c-14.362 0-28.136-5.705-38.29-15.861-10.156-10.156-15.861-23.929-15.861-38.291s5.705-28.136 15.861-38.291c10.154-10.155 23.929-15.861 38.29-15.861zM897.176 837.435c0-9.574-3.803-18.757-10.574-25.527s-15.953-10.575-25.527-10.575h-451.264c-9.574 0-18.757 3.803-25.529 10.575-6.769 6.769-10.573 15.952-10.573 25.527v36.101h523.467v-36.101zM337.607 945.738h595.67c4.787 0 9.379-1.902 12.764-5.287s5.287-7.976 5.287-12.764c0-4.787-1.902-9.379-5.287-12.764s-7.976-5.287-12.764-5.287h-595.67c-4.787 0-9.379 1.902-12.763 5.287s-5.286 7.976-5.286 12.764c0 4.787 1.902 9.379 5.286 12.764s7.976 5.287 12.763 5.287z"></path>
<path fill="#736d6a" d="M52.425 793.39l370.216-370.218-78.881-78.881c-7.504 3.776-15.786 5.753-24.187 5.776-10.704-0.009-21.164-3.191-30.060-9.141-8.898-5.952-15.83-14.405-19.926-24.294-4.094-9.889-5.166-20.769-3.081-31.269 2.086-10.498 7.236-20.142 14.799-27.716l205.056-204.694c9.042-9.291 21.12-15.029 34.037-16.172 12.917-1.141 25.814 2.39 36.347 9.951s18.004 18.651 21.054 31.254 1.476 25.882-4.434 37.424l78.881 78.881 38.448-39.17c10.086-10.004 23.7-15.645 37.906-15.704 7.166-0.137 14.287 1.183 20.926 3.884 6.641 2.699 12.663 6.72 17.702 11.82 10.158 10.145 15.872 23.909 15.885 38.267-0.013 14.358-5.727 28.122-15.885 38.267l-38.268 38.449 79.062 79.963c10.077-4.601 21.296-6.095 32.227-4.295 10.929 1.801 21.076 6.815 29.146 14.404 5.048 5.030 9.054 11.008 11.787 17.591s4.14 13.639 4.14 20.767c0 7.126-1.407 14.184-4.14 20.765-2.733 6.583-6.739 12.56-11.787 17.591l-204.332 203.251c-9.057 8.819-20.912 14.195-33.514 15.192s-25.156-2.447-35.485-9.733c-10.33-7.285-17.787-17.957-21.074-30.162-3.288-12.208-2.203-25.179 3.068-36.668l-78.881-79.062-370.216 370.217c-10.154 10.141-23.918 15.837-38.268 15.837s-28.114-5.696-38.267-15.837c-10.141-10.154-15.837-23.917-15.837-38.268s5.696-28.112 15.837-38.267zM460.91 410.355l25.452 25.633 114.981 114.801 178.701-178.701-115.884-114.801-114.801-114.982-179.604 179.604 89.351 89.349 1.805-0.903zM537.445 79.309c-3.383-3.363-7.958-5.25-12.727-5.25s-9.344 1.887-12.725 5.25l-204.332 203.43c-1.693 1.677-3.035 3.674-3.952 5.873s-1.388 4.559-1.388 6.941c0 2.383 0.472 4.743 1.388 6.943 0.916 2.198 2.258 4.195 3.952 5.873 1.677 1.691 3.674 3.035 5.873 3.952s4.559 1.388 6.941 1.388c2.383 0 4.743-0.472 6.943-1.388s4.195-2.26 5.873-3.952l204.153-204.332c3.147-3.348 4.899-7.77 4.899-12.365s-1.752-9.019-4.899-12.365zM741.595 205.663c1.706-1.673 3.063-3.666 3.992-5.866 0.931-2.2 1.413-4.562 1.424-6.95-0.068-4.762-2.015-9.304-5.416-12.635-1.62-1.712-3.582-3.061-5.76-3.963-2.176-0.901-4.518-1.335-6.875-1.273-4.672 0.068-9.137 1.944-12.454 5.235l-38.267 38.267 12.815 12.635 12.635 12.816 37.906-38.267zM613.978 614.148c1.679 1.691 3.675 3.034 5.875 3.95 2.2 0.918 4.559 1.39 6.941 1.39s4.743-0.472 6.941-1.39c2.2-0.916 4.197-2.258 5.875-3.95l203.43-203.792c3.362-3.381 5.249-7.956 5.249-12.725s-1.887-9.344-5.249-12.725c-3.382-3.363-7.957-5.25-12.726-5.25s-9.342 1.887-12.725 5.25l-203.611 204.151c-1.691 1.679-3.034 3.675-3.95 5.875s-1.388 4.559-1.388 6.941c0 2.383 0.472 4.743 1.388 6.941 0.916 2.2 2.258 4.197 3.95 5.875v-0.541zM78.056 844.292c3.383 3.362 7.958 5.249 12.727 5.249 4.767 0 9.342-1.887 12.725-5.249l370.218-370.037-25.633-25.631-370.037 370.759c-3.2 3.357-4.985 7.817-4.985 12.454s1.785 9.097 4.985 12.455z"></path>
</svg>
