<svg width="57" height="56" viewBox="0 0 57 56" fill="none" xmlns="http://www.w3.org/2000/svg">
<g clip-path="url(#clip0_974_6295)">
<path d="M55.4213 50.2997C55.3052 49.9374 54.9683 49.6917 54.588 49.6917H53.454L52.2015 46.6842C52.0656 46.358 51.747 46.1455 51.3937 46.1455H5.93858C5.5853 46.1455 5.26669 46.3579 5.13085 46.6842L3.87839 49.6917H2.74429C2.36388 49.6917 2.02711 49.9374 1.91107 50.2997L0.817317 53.7125C0.732004 53.9787 0.778926 54.2696 0.943645 54.4952C1.10836 54.721 1.37108 54.8545 1.65054 54.8545H55.6818C55.9612 54.8545 56.224 54.721 56.3887 54.4952C56.5534 54.2696 56.6003 53.9786 56.515 53.7125L55.4213 50.2997ZM6.5221 47.8955H50.8102L51.5582 49.6917H5.77397L6.5221 47.8955ZM2.84983 53.1045L3.38271 51.4417H53.9496L54.4825 53.1045H2.84983ZM1.94749 18.9201C2.08935 19.2328 2.40096 19.4336 2.74429 19.4336H4.33405L5.6833 22.5295C5.82232 22.8485 6.13732 23.0549 6.48546 23.0549H50.8468C51.1949 23.0549 51.5098 22.8486 51.6488 22.5295L52.9981 19.4336H54.588C54.9314 19.4336 55.2431 19.2328 55.3849 18.9201L56.4787 16.5091C56.6704 16.0863 56.4987 15.5874 56.0872 15.3722L29.0716 1.24534C28.8176 1.11256 28.5147 1.11256 28.2607 1.24534L1.24508 15.3723C0.833723 15.5875 0.661895 16.0864 0.853739 16.5093L1.94749 18.9201ZM50.2736 21.3049H7.05858L6.24308 19.4336H51.0892L50.2736 21.3049ZM28.6662 3.00803L54.5432 16.5395L54.0242 17.6835H3.30811L2.78913 16.5396L28.6662 3.00803ZM28.6662 15.7061C31.3111 15.7061 33.4628 13.5544 33.4628 10.9095C33.4628 8.26459 31.311 6.11285 28.6662 6.11285C26.0214 6.11285 23.8696 8.26459 23.8696 10.9095C23.8696 13.5544 26.0213 15.7061 28.6662 15.7061ZM28.6662 7.86285C30.3461 7.86285 31.7128 9.2296 31.7128 10.9095C31.7128 12.5894 30.3461 13.9561 28.6662 13.9561C26.9863 13.9561 25.6196 12.5894 25.6196 10.9095C25.6196 9.2296 26.9863 7.86285 28.6662 7.86285ZM56.5527 42.0629C56.2993 38.6852 54.0944 35.8572 51.1015 34.6576C52.2548 33.7239 52.994 32.2978 52.994 30.7016C52.994 27.8954 50.711 25.6124 47.9049 25.6124C45.0987 25.6124 42.8157 27.8954 42.8157 30.7016C42.8157 32.2977 43.5548 33.7238 44.7082 34.6576C41.7153 35.8572 39.5104 38.6852 39.2569 42.0628C39.2273 42.456 39.3637 42.8467 39.6308 43.1348C39.898 43.4227 40.2775 43.588 40.6719 43.588H55.1379C55.5322 43.588 55.9116 43.4229 56.1788 43.1349C56.4458 42.847 56.5822 42.4563 56.5527 42.0629C56.5527 42.063 56.5527 42.063 56.5527 42.0629ZM44.5657 30.7016C44.5657 28.8603 46.0637 27.3624 47.9049 27.3624C49.7461 27.3624 51.244 28.8603 51.244 30.7016C51.244 32.5421 49.7472 34.0396 47.907 34.0408C47.9062 34.0408 47.9055 34.0408 47.9048 34.0408C47.9041 34.0408 47.9034 34.0408 47.9027 34.0408C46.0625 34.0396 44.5657 32.5422 44.5657 30.7016ZM41.038 41.838C41.4736 38.4198 44.422 35.7919 47.9026 35.7908H47.9048H47.907C51.3876 35.7919 54.3359 38.4197 54.7716 41.838H41.038ZM20.0182 42.0629C19.9887 42.4562 20.1251 42.8468 20.3922 43.1348C20.6594 43.4229 21.0388 43.588 21.4332 43.588H35.899C36.2934 43.588 36.6728 43.4229 36.94 43.1348C37.2071 42.8468 37.3435 42.4562 37.314 42.0629C37.0606 38.6852 34.8557 35.8572 31.8628 34.6576C33.0161 33.7239 33.7553 32.2978 33.7553 30.7016C33.7553 27.8954 31.4723 25.6124 28.666 25.6124C25.8599 25.6124 23.5769 27.8954 23.5769 30.7016C23.5769 32.2977 24.3161 33.7238 25.4695 34.6576C22.4766 35.8572 20.2716 38.6852 20.0182 42.0629ZM25.3269 30.7016C25.3269 28.8603 26.8248 27.3624 28.666 27.3624C30.5073 27.3624 32.0053 28.8603 32.0053 30.7016C32.0053 32.5421 30.5085 34.0396 28.6682 34.0408C28.6675 34.0408 28.6668 34.0408 28.666 34.0408C28.6653 34.0408 28.6646 34.0408 28.6639 34.0408C26.8237 34.0396 25.3269 32.5422 25.3269 30.7016ZM28.6639 35.7908H28.666C28.666 35.7908 28.6675 35.7908 28.6682 35.7908C32.1489 35.7919 35.0973 38.4197 35.5329 41.838H21.7993C22.235 38.4197 25.1833 35.7919 28.6639 35.7908ZM2.19457 43.588H16.6605C17.0548 43.588 17.4342 43.4229 17.7014 43.1349C17.9686 42.847 18.1049 42.4563 18.0755 42.063C18.0755 42.063 18.0755 42.063 18.0755 42.0629C17.8221 38.6852 15.6171 35.8572 12.6242 34.6576C13.7776 33.7239 14.5168 32.2978 14.5168 30.7016C14.5168 27.8954 12.2338 25.6124 9.42765 25.6124C6.62152 25.6124 4.33854 27.8954 4.33854 30.7016C4.33854 32.2977 5.07769 33.7238 6.23094 34.6576C3.238 35.8572 1.03311 38.6852 0.779692 42.0628C0.750051 42.456 0.886442 42.8467 1.15354 43.1348C1.42063 43.4227 1.80016 43.588 2.19457 43.588ZM6.08843 30.7016C6.08843 28.8603 7.58632 27.3624 9.42754 27.3624C11.2688 27.3624 12.7666 28.8603 12.7666 30.7016C12.7666 32.5421 11.2698 34.0396 9.42961 34.0408C9.42885 34.0408 9.42819 34.0408 9.42743 34.0408C9.42666 34.0408 9.426 34.0408 9.42524 34.0408C7.58511 34.0396 6.08843 32.5422 6.08843 30.7016ZM9.42524 35.7908H9.42743C9.42743 35.7908 9.42885 35.7908 9.42961 35.7908C12.9103 35.7919 15.8586 38.4197 16.2943 41.838H2.56064C2.99629 38.4197 5.94471 35.7919 9.42524 35.7908Z" fill="#736D6A"/>
</g>
<defs>
<clipPath id="clip0_974_6295">
<rect width="56" height="56" fill="white" transform="translate(0.666016)"/>
</clipPath>
</defs>
</svg>
