<svg width="413" height="603" viewBox="0 0 413 603" fill="none" xmlns="http://www.w3.org/2000/svg">
<g clip-path="url(#clip0_179_14173)">
<path d="M2.35938 32.55V284.56H87.3694V32.55H2.35938Z" fill="#D0A85D"/>
<path d="M111.238 15.09V284.56H196.248V15.09H111.238Z" fill="#D0A85D"/>
<path d="M219.309 0.450012V284.56H304.319V0.450012H219.309Z" fill="#D0A85D"/>
<path d="M328.379 32.55V284.56H413.389V32.55H328.379Z" fill="#D0A85D"/>
<path d="M5.16141 443.68H2.94141V422.67H5.16141V431.4H17.6514V422.67H19.8714V443.68H17.6514V433.42H5.16141V443.68Z" fill="#D0A85D"/>
<path d="M26.0209 443.68H23.7109L33.071 422.55H35.141L44.5309 443.68H42.1909L39.5809 437.89H28.571L26.0209 443.68ZM34.0909 425.34L29.321 435.94H38.8609L34.0909 425.34Z" fill="#D0A85D"/>
<path d="M67.8511 448.36H65.8111V443.68H48.3711V422.67H50.5911V441.67H62.4711V422.67H64.6911V441.67H67.8411V448.36H67.8511Z" fill="#D0A85D"/>
<path d="M74.1927 443.68H71.9727V422.67H74.1927V443.68Z" fill="#D0A85D"/>
<path d="M82.3828 425.43C84.4028 423.35 86.9228 422.31 89.9428 422.31C92.9628 422.31 95.4528 423.35 97.4728 425.43C99.4928 427.51 100.503 430.09 100.503 433.17C100.503 436.25 99.4928 438.86 97.4728 440.94C95.4728 443 92.9628 444.03 89.9428 444.03C86.9228 444.03 84.3828 443 82.3828 440.94C80.3828 438.88 79.3828 436.29 79.3828 433.17C79.3828 430.05 80.3828 427.49 82.3828 425.43ZM84.0328 439.45C85.6128 441.13 87.5828 441.97 89.9428 441.97C92.3028 441.97 94.2728 441.13 95.8528 439.45C97.4528 437.75 98.2528 435.66 98.2528 433.18C98.2528 430.7 97.4528 428.61 95.8528 426.91C94.2728 425.23 92.3028 424.39 89.9428 424.39C87.5828 424.39 85.6128 425.23 84.0328 426.91C82.4328 428.61 81.6328 430.7 81.6328 433.18C81.6328 435.66 82.4328 437.75 84.0328 439.45Z" fill="#D0A85D"/>
<path d="M107.833 443.68H105.613V422.67H107.833V431.4H120.323V422.67H122.543V443.68H120.323V433.42H107.833V443.68Z" fill="#D0A85D"/>
<path d="M128.693 443.68H126.383L135.743 422.55H137.813L147.203 443.68H144.863L142.253 437.89H131.243L128.693 443.68ZM136.763 425.34L131.993 435.94H141.533L136.763 425.34Z" fill="#D0A85D"/>
<path d="M148.473 443.68V441.64C148.673 441.68 148.953 441.7 149.313 441.7C150.233 441.7 150.973 441.38 151.523 440.74C152.073 440.1 152.523 439.17 152.863 437.95C153.103 437.13 153.263 436.23 153.343 435.25C153.463 434.13 153.553 433.07 153.613 432.07C153.653 431.33 153.693 430.11 153.733 428.41L153.853 422.68H167.003V443.69H164.783V424.69H156.023L155.873 429.49C155.753 433.43 155.453 436.39 154.973 438.37C154.553 440.17 153.893 441.5 153.003 442.35C152.113 443.2 150.883 443.66 149.323 443.72C148.863 443.72 148.583 443.71 148.483 443.69L148.473 443.68Z" fill="#D0A85D"/>
<path d="M181.392 443.68H172.902V422.67H175.122V430.5H181.392C183.772 430.5 185.612 431.11 186.912 432.33C188.252 433.55 188.922 435.14 188.922 437.1C188.922 439.06 188.252 440.7 186.912 441.89C185.572 443.08 183.732 443.68 181.392 443.68ZM175.122 432.52V441.67H181.242C182.962 441.67 184.302 441.28 185.262 440.48C186.222 439.69 186.702 438.56 186.702 437.1C186.702 435.64 186.232 434.51 185.272 433.71C184.322 432.91 182.972 432.51 181.232 432.51H175.112L175.122 432.52Z" fill="#D0A85D"/>
<path d="M195.56 443.68H193.34V422.67H195.56V431.4H208.05V422.67H210.27V443.68H208.05V433.42H195.56V443.68Z" fill="#D0A85D"/>
<path d="M218.04 443.68H216.18V422.67H218.37V439.96L231.43 422.67H233.38V443.68H231.19V426.33L218.04 443.68Z" fill="#D0A85D"/>
<path d="M241.153 443.68H239.293V422.67H241.483V439.96L254.543 422.67H256.493V443.68H254.303V426.33L241.153 443.68ZM247.873 421.2C246.373 421.2 245.163 420.79 244.253 419.95C243.343 419.12 242.873 418.01 242.853 416.63H244.773C244.773 417.47 245.053 418.15 245.613 418.67C246.173 419.19 246.923 419.45 247.863 419.45C248.803 419.45 249.493 419.19 250.043 418.67C250.593 418.15 250.883 417.47 250.903 416.63H252.823C252.783 418.01 252.303 419.12 251.383 419.96C250.443 420.78 249.273 421.19 247.873 421.19V421.2Z" fill="#D0A85D"/>
<path d="M272.54 443.68H270.32V422.67H279.14C281.22 422.67 282.86 423.2 284.06 424.26C285.26 425.32 285.86 426.73 285.86 428.49C285.86 430.25 285.26 431.73 284.06 432.8C282.86 433.87 281.22 434.41 279.14 434.41H272.54V443.68ZM272.54 424.68V432.39H278.99C280.47 432.39 281.62 432.05 282.44 431.38C283.26 430.71 283.67 429.76 283.67 428.54C283.67 427.32 283.27 426.34 282.45 425.67C281.64 425 280.48 424.66 278.98 424.66H272.53L272.54 424.68Z" fill="#D0A85D"/>
<path d="M305.141 443.68H290.281V422.67H304.691V424.68H292.511V431.4H302.501V433.41H292.511V441.66H305.151V443.67L305.141 443.68Z" fill="#D0A85D"/>
<path d="M311.352 443.68H309.492V422.67H311.682V439.96L324.742 422.67H326.692V443.68H324.502V426.33L311.352 443.68ZM318.072 421.2C316.572 421.2 315.362 420.79 314.452 419.95C313.542 419.12 313.072 418.01 313.052 416.63H314.972C314.972 417.47 315.252 418.15 315.812 418.67C316.372 419.19 317.122 419.45 318.062 419.45C319.002 419.45 319.692 419.19 320.242 418.67C320.792 418.15 321.082 417.47 321.102 416.63H323.022C322.982 418.01 322.502 419.12 321.582 419.96C320.642 420.78 319.472 421.19 318.072 421.19V421.2Z" fill="#D0A85D"/>
<path d="M340.161 443.68H337.941V424.68H330.711V422.67H347.491V424.68H340.171V443.68H340.161Z" fill="#D0A85D"/>
<path d="M353.372 443.68H351.512V422.67H353.702V439.96L366.762 422.67H368.712V443.68H366.522V426.33L353.372 443.68Z" fill="#D0A85D"/>
<path d="M376.841 443.68H374.621V422.67H376.841V431.4H389.331V422.67H391.551V443.68H389.331V433.42H376.841V443.68Z" fill="#D0A85D"/>
<path d="M399.681 443.68H397.461V422.67H411.541V424.68H399.691V443.68H399.681Z" fill="#D0A85D"/>
<path d="M4.07047 360.21C2.26047 360.21 0.900469 359.96 -0.0195312 359.47V350.71C0.940469 351.17 1.87047 351.4 2.79047 351.4C4.63047 351.4 5.82046 350.27 6.35046 348C6.95046 345.7 7.27046 341.01 7.31046 333.93L7.42047 322.73H35.1905V359.9H25.6305V331.12H16.7104L16.6005 335.21C16.3205 345.16 15.3605 351.63 13.7305 354.64C11.7105 358.36 8.49047 360.21 4.07047 360.21Z" fill="#2B5A70"/>
<path d="M52.0717 359.89H42.5117V322.72H52.0717V359.89Z" fill="#2B5A70"/>
<path d="M65.0794 367.11H56.1094V351.5H59.6694C62.4994 346.9 63.9194 339.54 63.9194 329.41V322.72H91.6394V351.5H96.5194V367.11H87.4894V359.89H65.0794V367.11ZM70.0694 351.5H82.0694V331.11H73.4194C73.3094 338.9 72.1994 345.69 70.0694 351.5Z" fill="#2B5A70"/>
<path d="M130.119 359.89H101.449V322.72H129.699V331.11H111.009V336.15H125.879V344.22H111.009V351.49H130.129V359.88L130.119 359.89Z" fill="#2B5A70"/>
<path d="M145.099 359.89H135.539V322.72H152.109C156.289 322.72 159.579 323.8 161.989 325.96C164.429 328.12 165.649 330.92 165.649 334.35C165.649 337.78 164.429 340.6 161.989 342.79C159.579 344.95 156.289 346.03 152.109 346.03H145.099V359.89ZM145.099 330.79V338.17H151.419C152.799 338.17 153.909 337.84 154.739 337.19C155.569 336.54 155.989 335.63 155.989 334.46C155.989 333.29 155.579 332.39 154.769 331.75C153.949 331.11 152.839 330.8 151.419 330.8H145.099V330.79Z" fill="#2B5A70"/>
<path d="M178.442 359.89H170.422V322.72H179.982V343.69L195.322 322.72H203.602V359.89H194.042V338.7L178.432 359.89H178.442Z" fill="#2B5A70"/>
<path d="M233.662 359.89H224.102V322.72H240.672C244.852 322.72 248.142 323.8 250.552 325.96C252.992 328.12 254.212 330.92 254.212 334.35C254.212 337.78 252.992 340.6 250.552 342.79C248.142 344.95 244.852 346.03 240.672 346.03H233.662V359.89ZM233.662 330.79V338.17H239.982C241.362 338.17 242.472 337.84 243.302 337.19C244.132 336.54 244.552 335.63 244.552 334.46C244.552 333.29 244.142 332.39 243.332 331.75C242.512 331.11 241.402 330.8 239.982 330.8H233.662V330.79Z" fill="#2B5A70"/>
<path d="M267 359.89H258.98V322.72H268.54V343.69L283.88 322.72H292.16V359.89H282.6V338.7L266.99 359.89H267Z" fill="#2B5A70"/>
<path d="M308.841 359.89H299.281V322.72H308.841V335.94H322.861V322.72H332.421V359.89H322.861V344.44H308.841V359.89Z" fill="#2B5A70"/>
<path d="M349.091 359.89H339.531V322.72H349.091V336.9L361.141 322.72H372.611L358.221 339.82L375.261 359.89H363.631L349.081 343.38V359.89H349.091Z" fill="#2B5A70"/>
<path d="M385.672 360.63C383.022 360.63 380.802 360.15 379.032 359.2V351.02C380.452 351.8 382.072 352.19 383.912 352.19C385.262 352.19 386.332 351.91 387.152 351.34C387.962 350.77 388.762 349.75 389.542 348.26L375.582 322.72H386.152L394.272 338.86L401.382 322.72H411.522L397.872 351.71C396.132 355.46 393.992 357.94 391.452 359.14C389.362 360.13 387.432 360.63 385.662 360.63H385.672Z" fill="#2B5A70"/>
<path d="M7.77124 404.24H1.78125V380.94H7.77124V389.23H16.5612V380.94H22.5512V404.24H16.5612V394.55H7.77124V404.24Z" fill="#2B5A70"/>
<path d="M44.9917 404.24H27.0117V380.94H44.7217V386.2H33.0017V389.36H42.3217V394.42H33.0017V398.98H44.9817V404.24H44.9917Z" fill="#2B5A70"/>
<path d="M54.3806 404.24H48.3906V380.94H58.7806C61.4006 380.94 63.4606 381.62 64.9706 382.97C66.5006 384.32 67.2706 386.08 67.2706 388.23C67.2706 390.38 66.5006 392.15 64.9706 393.52C63.4606 394.87 61.4006 395.55 58.7806 395.55H54.3906V404.24H54.3806ZM54.3806 386V390.63H58.3406C59.2106 390.63 59.9006 390.43 60.4206 390.02C60.9406 389.61 61.2006 389.04 61.2006 388.31C61.2006 387.58 60.9506 387.01 60.4306 386.61C59.9206 386.21 59.2206 386.01 58.3306 386.01H54.3706L54.3806 386Z" fill="#2B5A70"/>
<path d="M74.7224 404.71C73.0624 404.71 71.6723 404.41 70.5623 403.81V398.68C71.4523 399.17 72.4723 399.41 73.6223 399.41C74.4623 399.41 75.1423 399.23 75.6523 398.88C76.1623 398.52 76.6623 397.88 77.1523 396.95L68.4023 380.94H75.0223L80.1123 391.06L84.5724 380.94H90.9323L82.3824 399.12C81.2924 401.47 79.9524 403.03 78.3524 403.78C77.0424 404.4 75.8324 404.71 74.7224 404.71Z" fill="#2B5A70"/>
<path d="M97.3224 404.24H90.4023L99.3224 391.72L91.7324 380.94H98.7224L102.852 386.93L107.012 380.94H113.902L106.312 391.69L115.232 404.24H108.212L102.752 396.48L97.3224 404.24Z" fill="#2B5A70"/>
<path d="M135.971 401.18C133.641 403.53 130.711 404.71 127.181 404.71C123.651 404.71 120.721 403.53 118.391 401.18C116.061 398.83 114.891 395.97 114.891 392.59C114.891 389.21 116.061 386.36 118.391 384C120.721 381.65 123.651 380.47 127.181 380.47C130.711 380.47 133.641 381.65 135.971 384C138.301 386.35 139.471 389.22 139.471 392.59C139.471 395.96 138.301 398.83 135.971 401.18ZM122.791 397.32C123.971 398.56 125.431 399.18 127.181 399.18C128.931 399.18 130.361 398.56 131.541 397.32C132.721 396.08 133.301 394.5 133.301 392.59C133.301 390.68 132.711 389.11 131.541 387.86C130.361 386.62 128.911 386 127.181 386C125.451 386 123.961 386.62 122.791 387.86C121.641 389.08 121.061 390.66 121.061 392.59C121.061 394.52 121.641 396.1 122.791 397.32Z" fill="#2B5A70"/>
<path d="M149.181 404.24H143.191V380.94H149.151L155.041 389.89L160.971 380.94H166.901V404.24H160.941V390.02L156.781 396.28H153.481L149.191 390.02V404.24H149.181Z" fill="#2B5A70"/>
<path d="M191.689 401.18C189.359 403.53 186.429 404.71 182.899 404.71C179.369 404.71 176.439 403.53 174.109 401.18C171.779 398.83 170.609 395.97 170.609 392.59C170.609 389.21 171.779 386.36 174.109 384C176.439 381.65 179.369 380.47 182.899 380.47C186.429 380.47 189.359 381.65 191.689 384C194.019 386.35 195.189 389.22 195.189 392.59C195.189 395.96 194.019 398.83 191.689 401.18ZM178.509 397.32C179.689 398.56 181.149 399.18 182.899 399.18C184.649 399.18 186.079 398.56 187.259 397.32C188.439 396.08 189.019 394.5 189.019 392.59C189.019 390.68 188.429 389.11 187.259 387.86C186.079 386.62 184.629 386 182.899 386C181.169 386 179.679 386.62 178.509 387.86C177.359 389.08 176.779 390.66 176.779 392.59C176.779 394.52 177.359 396.1 178.509 397.32Z" fill="#2B5A70"/>
<path d="M211.17 404.71C207.44 404.71 204.35 403.58 201.88 401.31C199.42 399.05 198.18 396.14 198.18 392.59C198.18 389.04 199.4 386.13 201.84 383.87C204.3 381.61 207.4 380.47 211.13 380.47C213.35 380.47 215.36 380.91 217.16 381.8V387.69C215.34 386.56 213.35 385.99 211.2 385.99C209.25 385.99 207.62 386.61 206.31 387.85C205 389.09 204.35 390.67 204.35 392.58C204.35 394.49 205.02 396.12 206.35 397.34C207.7 398.56 209.4 399.17 211.44 399.17C213.88 399.17 215.92 398.55 217.57 397.31V403.24C215.66 404.22 213.53 404.71 211.18 404.71H211.17Z" fill="#2B5A70"/>
<path d="M232.972 404.24H226.982V386.2H219.992V380.94H240.002V386.2H232.982V404.24H232.972Z" fill="#2B5A70"/>
<path d="M249.283 404.24H243.293V380.94H249.283V404.24Z" fill="#2B5A70"/>
<path d="M266.73 404.71C265.07 404.71 263.68 404.41 262.57 403.81V398.68C263.46 399.17 264.48 399.41 265.63 399.41C266.47 399.41 267.15 399.23 267.66 398.88C268.17 398.52 268.67 397.88 269.16 396.95L260.41 380.94H267.03L272.12 391.06L276.58 380.94H282.94L274.39 399.12C273.3 401.47 271.96 403.03 270.36 403.78C269.05 404.4 267.84 404.71 266.73 404.71Z" fill="#2B5A70"/>
<path d="M291.131 404.24H285.141V380.94H291.131V389.83L298.691 380.94H305.881L296.861 391.66L307.551 404.24H300.261L291.141 393.89V404.24H291.131Z" fill="#2B5A70"/>
<path d="M315.592 404.24H309.602V380.94H319.992C322.612 380.94 324.672 381.62 326.182 382.97C327.712 384.32 328.482 386.08 328.482 388.23C328.482 390.38 327.712 392.15 326.182 393.52C324.672 394.87 322.612 395.55 319.992 395.55H315.602V404.24H315.592ZM315.592 386V390.63H319.552C320.422 390.63 321.112 390.43 321.632 390.02C322.152 389.61 322.412 389.04 322.412 388.31C322.412 387.58 322.162 387.01 321.642 386.61C321.132 386.21 320.432 386.01 319.542 386.01H315.582L315.592 386Z" fill="#2B5A70"/>
<path d="M333.242 404.24H326.922L336.712 380.8H342.472L352.262 404.24H345.832L343.872 399.31H335.212L333.252 404.24H333.242ZM339.532 388.3L337.102 394.52H341.962L339.532 388.3Z" fill="#2B5A70"/>
<path d="M354.142 379.28C353.362 379.28 352.692 379 352.112 378.43C351.532 377.86 351.242 377.18 351.242 376.38C351.242 375.58 351.522 374.9 352.092 374.35C352.662 373.8 353.342 373.52 354.142 373.52C354.942 373.52 355.652 373.8 356.202 374.35C356.752 374.9 357.032 375.58 357.032 376.38C357.032 377.18 356.752 377.86 356.202 378.43C355.642 379 354.962 379.28 354.142 379.28ZM360.902 404.24H354.912V380.94H360.902V404.24ZM363.732 378.45C363.172 379.01 362.502 379.28 361.702 379.28C360.902 379.28 360.212 379 359.642 378.45C359.082 377.87 358.812 377.19 358.812 376.39C358.812 375.59 359.092 374.91 359.642 374.36C360.222 373.81 360.902 373.53 361.702 373.53C362.502 373.53 363.182 373.81 363.732 374.36C364.312 374.91 364.602 375.59 364.602 376.39C364.602 377.19 364.312 377.88 363.732 378.45Z" fill="#2B5A70"/>
<path d="M371.482 404.24H365.492V380.94H371.482V389.23H380.272V380.94H386.262V404.24H380.272V394.55H371.482V404.24Z" fill="#2B5A70"/>
<path d="M395.753 404.24H390.723V380.94H396.713V394.09L406.333 380.94H411.523V404.24H405.533V390.96L395.743 404.24H395.753Z" fill="#2B5A70"/>
<path d="M-5.88062 602.49L48.1394 526.7L2.17938 461.39H44.5094L69.4994 497.67L94.6994 461.39H136.429L90.4694 526.5L144.489 602.49H101.959L68.8994 555.52L36.0394 602.49H-5.89062H-5.88062Z" fill="#D0A85D"/>
<path d="M203.349 603.3L145.699 461.39H185.809L220.879 553.31L256.159 461.39H295.669L237.819 603.3H203.349Z" fill="#D0A85D"/>
<path d="M312.188 602.49V461.39H348.467V602.49H312.188Z" fill="#D0A85D"/>
<path d="M377.098 602.49V461.39H413.378V602.49H377.098Z" fill="#D0A85D"/>
<path d="M186.589 188.29C186.379 194.68 186.209 199.72 184.439 205.73C181.269 216.5 161.959 224.98 155.219 227.65C153.669 227.79 152.119 227.92 150.569 228.03L132.279 229.31C126.199 229.41 120.169 228.92 114.089 228.76C113.139 228.77 112.199 228.74 111.249 228.72V233.78C112.149 233.8 113.049 233.81 113.949 233.81C120.189 233.98 126.459 234.47 132.619 234.36L139.129 233.91C142.859 235.14 146.389 236.89 149.639 239.14C148.949 240.15 148.679 241.44 149.039 242.71C149.689 244.97 152.039 246.27 154.299 245.63C156.559 244.98 157.859 242.63 157.219 240.37C156.569 238.11 154.219 236.81 151.959 237.45C151.529 237.57 151.159 237.77 150.799 238C148.319 236.27 145.689 234.82 142.929 233.65L150.899 233.1C154.729 232.83 158.539 232.45 162.329 232.01C173.429 234.1 184.149 238.41 193.579 244.59C192.979 245.86 192.819 247.34 193.229 248.79C193.699 250.44 194.819 251.72 196.229 252.45V241.84C195.539 242.2 194.929 242.67 194.439 243.24C186.119 237.79 176.799 233.78 167.109 231.41C176.989 230.08 186.699 228.24 196.229 226.03V220.79C187.179 222.91 177.959 224.75 168.599 226.09C177.549 221.33 183.869 215.04 189.289 209.63L190.509 208.41C191.999 206.93 193.959 205.46 196.229 203.89V200.04C195.469 200.55 194.719 201.05 194.009 201.55C194.749 200.79 195.489 200.05 196.229 199.31V197.06C193.399 199.85 190.679 202.57 187.869 206.06C187.929 205.5 188.009 204.97 188.079 204.42C188.659 202.04 189.019 199.77 189.249 197.5C190.819 190.31 193.299 184.25 196.229 178.81V175.52C193.729 179.81 191.479 184.46 189.709 189.75C189.729 189.3 189.739 188.86 189.759 188.41C189.919 183.98 190.079 178.95 190.859 172.77C191.529 167.44 193.509 163.15 196.229 159.41V154.32C191.919 159.13 188.659 164.72 187.689 172.36C186.889 178.69 186.719 183.8 186.569 188.29H186.589ZM229.649 142.23C229.389 134.79 229.139 127.75 230.569 121.6C230.739 120.82 230.309 120.03 229.569 119.75C228.819 119.47 227.969 119.8 227.599 120.51C227.569 120.59 224.649 126.15 219.309 132.56V137.41C221.379 135.15 223.179 132.92 224.689 130.89C223.509 133.19 221.689 136.61 219.309 140.71V143.85C221.589 140.03 223.439 136.67 224.819 134.07C223.889 138.56 223.189 142.6 222.559 146.31C221.599 151.91 220.719 156.93 219.309 161.87V167C221.739 160.44 222.849 154 224.129 146.58C224.739 143.05 225.399 139.2 226.269 134.97C226.289 137.38 226.379 139.84 226.469 142.35C226.819 152.56 227.189 163.13 223.409 173.21C222.369 175.98 220.959 178.5 219.309 180.81V185.97C222.219 182.62 224.709 178.8 226.389 174.34C230.399 163.66 230.019 152.78 229.659 142.25L229.649 142.23ZM228.299 200.62C228.389 200.52 228.439 200.4 228.469 200.28C229.449 200.87 230.659 201.08 231.839 200.74C234.099 200.09 235.399 197.74 234.759 195.48C234.109 193.22 231.759 191.92 229.499 192.56C227.239 193.21 225.939 195.56 226.579 197.82C226.749 198.4 227.019 198.91 227.379 199.34C227.289 199.38 227.199 199.44 227.129 199.52C224.679 202.15 222.059 204.62 219.319 206.95V209.04C222.489 206.42 225.509 203.62 228.309 200.61L228.299 200.62ZM144.379 189.7C147.809 185.15 150.469 180.91 153.059 176.82C157.529 169.73 161.739 163.03 169.089 156.15C169.639 155.64 169.739 154.8 169.379 154.18C168.999 153.54 168.229 153.24 167.519 153.47C164.749 154.36 143.379 161.25 134.579 165.33C134.849 163.58 135.099 161.83 135.339 160.1C137.079 147.72 138.719 136.04 148.769 124.57C149.229 124.05 149.279 123.27 148.929 122.69C148.559 122.09 147.849 121.81 147.169 121.98C146.869 122.06 124.259 128.14 111.249 145.87V151.64C118.069 139.94 129.539 132.82 137.849 128.94C130.419 134.14 116.939 145.9 112.739 164.94L111.389 171.11C111.339 171.33 111.299 171.54 111.249 171.75V179.15C111.779 176.79 112.339 174.24 112.949 171.45L114.299 165.29C118.309 147.1 131.029 135.75 138.319 130.55C128.169 142.69 124.939 157.76 122.289 170.15L121.659 173.07C119.959 180.87 116.139 190 111.249 197.85V200.73C117.149 191.81 121.529 181.17 123.219 173.42L123.849 170.48C126.559 157.82 129.889 142.34 140.689 130.28C134.979 139.88 133.609 149.55 132.189 159.67C131.819 162.33 131.439 165.02 130.969 167.73C130.929 167.82 130.879 167.91 130.859 168C130.829 168.13 128.479 179.05 124.919 187.64C124.269 188.98 123.549 190.33 122.749 191.69C119.469 197.28 115.579 201.76 111.239 205.38V209.5C116.109 205.93 121.089 201.16 124.889 194.88C125.929 193.16 126.909 191.13 127.809 188.99C131.109 182.22 132.789 175.66 133.939 169.25C137.909 166.9 152.459 161.83 162.289 158.56C157.339 164.06 153.929 169.49 150.359 175.15C147.809 179.2 145.179 183.38 141.839 187.83C132.609 200.1 122.239 205.78 111.239 209.73V213.11C122.909 209.02 134.409 203.01 144.379 189.74V189.7ZM5.35938 179.05C7.78938 178.35 9.19939 175.81 8.49939 173.38C7.79939 170.95 5.25938 169.54 2.82938 170.24C2.66938 170.29 2.50938 170.35 2.35938 170.42V178.87C3.27938 179.25 4.31938 179.36 5.35938 179.06V179.05ZM29.5194 137.85C30.3394 137.58 30.7994 136.71 30.5594 135.89C30.3194 135.05 29.4594 134.57 28.6194 134.79C28.5094 134.82 17.1394 137.78 5.96939 137.23C4.77939 137.17 3.57938 137.15 2.35938 137.16V140.35C3.51937 140.35 4.67939 140.37 5.80939 140.42C10.0594 140.63 14.2894 140.36 17.9594 139.94C15.9594 141.19 13.9994 142.52 11.9894 143.89C8.92938 145.98 5.80938 148.1 2.35938 150.03V153.66C6.54938 151.46 10.2094 148.97 13.7994 146.52C18.9194 143.03 23.7494 139.74 29.5294 137.85H29.5194ZM283.759 213.09C263.499 213.97 249.349 219.23 248.759 219.46C248.529 219.55 248.339 219.68 248.189 219.84C246.829 220.14 245.529 220.42 244.329 220.7L243.369 220.92C235.759 222.63 226.739 222.84 219.329 222.59V229.57C225.139 233.8 232.999 241.49 242.469 252.25C250.869 261.8 266.139 267.63 286.609 269.12C293.749 269.64 299.759 270.55 304.339 271.44V268.18C299.759 267.32 293.849 266.46 286.849 265.94C273.159 264.94 254.769 261.39 244.869 250.13C239.079 243.54 231.829 235.81 225.299 230.24C229.799 232.05 235.339 234.63 241.139 238.17L245.539 240.86C256.249 247.43 263.029 251.58 270.029 254.14C271.969 254.88 273.959 255.54 276.029 256.11C280.319 257.28 284.909 258.02 289.689 258.46C291.819 258.72 293.389 258.85 294.069 258.91C295.169 259.52 299.309 261.88 304.339 265.61V261.66C302.909 260.65 301.569 259.74 300.389 258.99C301.699 259 303.019 259 304.339 258.99V255.8C299.579 255.86 294.889 255.74 290.389 255.34C285.969 254.81 278.839 253.72 272.649 251.69C272.079 251.5 271.519 251.3 270.959 251.09C263.399 248.17 256.659 243.94 249.619 239.5C244.659 236.38 239.629 233.21 234.149 230.4C248.439 235.3 260.969 239.13 279.059 243.74C286.449 245.62 295.319 247 304.349 248.13V246.52C295.449 245.4 286.709 244.04 279.459 242.2C259.469 237.1 246.289 232.96 229.969 227.26C235.329 227.54 241.589 227.51 248.109 227.47C259.979 227.42 272.269 227.36 281.629 229.03C288.879 230.33 296.689 232.51 304.339 235.06V233.38C296.779 230.88 289.079 228.75 281.909 227.47C272.399 225.77 260.049 225.83 248.099 225.89C241.949 225.92 236.029 225.95 230.909 225.72C235.369 225.48 239.899 224.98 244.079 224.04L245.039 223.83C249.519 222.82 255.149 221.56 261.499 220.72C266.729 220.13 273.139 219.69 279.539 219.93C285.069 220.24 290.799 221.13 296.539 222.91C299.099 223.7 301.709 224.77 304.349 226.01V222.47C303.399 222.06 302.429 221.66 301.429 221.27C301.359 221.24 301.289 221.22 301.219 221.19C299.609 220.56 297.959 219.95 296.239 219.38C290.899 217.61 284.729 216.86 278.649 216.69C278.519 216.69 278.389 216.68 278.259 216.67C280.089 216.51 281.979 216.38 283.919 216.3C291.559 215.97 298.309 216.55 304.339 217.64V214.43C298.219 213.36 291.399 212.78 283.779 213.11L283.759 213.09ZM43.5494 169.67C34.3094 173.74 29.7194 180.06 26.0394 185.14C23.4694 188.68 21.2494 191.73 18.0994 193.32C12.7594 196 6.01938 195.03 2.35938 194.18V201.04C3.89937 201.96 5.4494 202.87 7.0094 203.76C10.9094 205.98 14.8994 208.06 18.9494 210.01C25.4794 217.72 30.4594 226.81 33.4294 236.46C33.4594 236.54 33.4994 236.61 33.5494 236.68C31.2094 237.83 29.9494 240.52 30.6894 243.11C31.5194 246.02 34.5594 247.7 37.4694 246.87C40.3794 246.04 42.0594 243 41.2294 240.09C40.4394 237.35 37.7094 235.7 34.9694 236.21C34.9694 236.14 34.9694 236.08 34.9494 236.01C34.9494 236.01 34.9494 236.01 34.9494 236C32.2494 227.2 27.9194 218.87 22.2794 211.58C32.8194 216.44 43.7994 220.46 55.0094 223.82C59.0694 226.58 62.4494 230.3 64.7694 234.62C64.7694 234.63 64.7894 234.64 64.7994 234.66C63.4594 235.79 62.8194 237.64 63.3394 239.43C64.0394 241.86 66.5794 243.27 69.0094 242.57C71.4394 241.87 72.8494 239.33 72.1494 236.9C71.4494 234.47 68.9094 233.06 66.4794 233.76C66.3694 233.79 66.2794 233.84 66.1794 233.88C66.1794 233.88 66.1794 233.88 66.1794 233.87C64.3894 230.52 61.9694 227.54 59.1194 225.03C64.9494 226.69 70.8294 228.18 76.7294 229.52C79.1994 229.86 81.6494 230.23 84.1094 230.62C86.2894 236.76 85.9194 242.43 85.5094 248.94C85.0994 255.56 84.6394 263.07 86.9194 272.23C87.0194 272.59 87.1094 272.96 87.2094 273.31C87.2594 273.47 87.3094 273.61 87.3594 273.77V226.04C84.1494 225.53 80.9394 225.02 77.7194 224.59C76.1394 224.23 74.5594 223.86 72.9794 223.48C76.3694 223.01 80.0694 222.28 83.6594 221.13C84.8994 220.86 86.1294 220.56 87.3594 220.25V216.28C85.7294 217.04 84.0094 217.68 82.2594 218.22C75.8894 219.53 69.3094 220.28 62.7194 220.83C54.4494 218.55 46.2794 215.94 38.2894 212.9C53.3794 211.34 64.7294 208.32 75.2594 203.17C76.2994 204.48 78.0594 205.11 79.7694 204.62C82.0294 203.97 83.3294 201.62 82.6894 199.36C82.0394 197.1 79.6894 195.8 77.4294 196.44C75.1694 197.09 73.8694 199.44 74.5094 201.7C74.5094 201.72 74.5194 201.73 74.5294 201.74C63.4794 207.15 51.4694 210.16 35.0094 211.6C27.7394 208.71 20.6294 205.46 13.7594 201.79C17.8894 202 23.0294 201.72 29.3994 200.62C49.8294 197.09 59.1794 186.83 65.3794 180.03C66.9394 178.32 68.2794 176.85 69.5594 175.73C71.9694 173.63 74.8794 172.2 77.6994 170.81C81.1094 169.13 84.5994 167.4 87.3694 164.48V158.59C81.9594 161.23 73.1094 162.88 64.5294 164.47C56.3794 165.99 48.6794 167.42 43.5594 169.68L43.5494 169.67ZM83.9294 163.36C81.7194 165.27 79.0494 166.59 76.2794 167.95C73.2794 169.43 70.1794 170.96 67.4594 173.33C66.0494 174.56 64.6394 176.1 63.0194 177.88C56.7694 184.74 48.2094 194.13 28.8494 197.47C20.5094 198.92 14.4994 198.89 10.2394 198.26C13.2894 198.2 16.5594 197.66 19.5294 196.16C23.3794 194.22 25.9194 190.71 28.6194 187C32.2594 181.99 36.3894 176.31 44.8394 172.58C49.6294 170.47 57.1494 169.07 65.1094 167.59C71.7294 166.36 78.4994 165.1 83.9294 163.34V163.36ZM20.5894 253C18.0594 239.32 11.9294 220.4 2.9494 212.01C2.7694 211.45 2.56938 210.91 2.36938 210.36V226.87C2.39938 227.84 2.39938 228.8 2.36938 229.74V248.21C6.33938 235.42 6.16939 225.76 5.21939 219.73C11.2494 228.82 15.4694 242.82 17.4494 253.57C19.0194 262.04 20.7694 269.48 22.0094 274.42C19.3494 271.67 15.7394 268.21 11.8494 265.24C7.2094 261.69 4.06938 257.27 2.35938 254.43V260.11C4.24937 262.59 6.7394 265.34 9.9194 267.77C17.3194 273.44 23.9294 281.24 23.9894 281.32C24.4794 281.89 25.2894 282.05 25.9594 281.69C26.6194 281.34 26.9494 280.57 26.7394 279.84C26.7094 279.72 23.3594 267.99 20.5894 252.99V253ZM144.559 210.37C145.679 211.77 147.569 212.45 149.409 211.92C151.839 211.22 153.249 208.68 152.549 206.25C151.849 203.82 149.309 202.41 146.879 203.11C144.449 203.81 143.039 206.35 143.739 208.78C143.759 208.85 143.799 208.91 143.819 208.98C143.799 208.98 143.779 208.98 143.769 209C133.379 214.69 122.499 219.21 111.249 222.55V224.2C122.769 220.82 133.909 216.22 144.549 210.4C144.549 210.4 144.569 210.39 144.579 210.38L144.559 210.37ZM340.749 174.24C341.579 177.15 344.619 178.83 347.529 178C350.439 177.17 352.119 174.13 351.289 171.22C350.459 168.31 347.419 166.63 344.509 167.46C342.499 168.04 341.079 169.66 340.659 171.56C340.639 171.56 340.619 171.55 340.589 171.55C336.509 171.62 332.439 171.85 328.369 172.21V173.82C332.419 173.46 336.479 173.22 340.539 173.15C340.569 173.51 340.629 173.88 340.739 174.25L340.749 174.24ZM328.379 32.55V35.58C328.939 34.56 329.509 33.55 330.099 32.55H328.379ZM132.089 253.18C125.729 249.97 120.139 247.1 114.999 244.46C113.719 243.8 112.479 243.17 111.249 242.54V244.33C112.239 244.84 113.249 245.35 114.269 245.88C119.419 248.52 125.019 251.39 131.369 254.61C148.739 263.39 158.259 269.15 172.309 282.1C173.219 282.94 174.119 283.76 174.989 284.56H177.349C176.069 283.4 174.749 282.2 173.379 280.93C159.199 267.84 149.599 262.03 132.089 253.18ZM359.519 140.1C356.739 143.33 354.319 146.12 351.549 148.12C350.629 148.6 344.189 151.93 336.189 154.53C333.409 155.44 330.739 156.13 328.389 156.67V162.19C341.709 160.84 355.579 165.95 370.079 171.31L373.259 172.48C385.949 177.14 400.939 175.49 413.389 173.38V170.14C401.209 172.23 386.489 173.94 374.359 169.49L371.189 168.32C358.109 163.5 345.539 158.86 333.209 158.76C334.489 158.41 335.819 158.01 337.169 157.57C344.769 155.09 350.869 152.06 352.649 151.14C353.429 151.3 354.959 151.6 357.019 151.95C357.409 152.02 357.789 152.08 358.169 152.14C358.279 152.16 358.379 152.17 358.489 152.19C361.699 152.7 364.789 153.09 367.749 153.36C372.669 153.83 378.229 154.09 383.649 153.8C392.449 153.45 399.929 152.12 406.339 150.5C409.839 149.77 412.269 149.14 413.379 148.84V145.14C413.059 145.25 412.739 145.36 412.419 145.46C410.289 146.12 407.999 146.78 405.569 147.39C401.019 148.34 394.679 149.48 387.149 150.32C386.229 150.42 385.299 150.5 384.359 150.56C379.969 150.77 375.249 150.74 370.139 150.36C369.799 150.33 369.459 150.3 369.129 150.28C368.359 150.22 367.579 150.14 366.789 150.06C365.009 149.88 363.329 149.67 361.789 149.46C363.029 149.27 364.269 149.08 365.549 148.89C377.949 147.05 390.769 145.16 410.389 138.17C411.369 137.82 412.369 137.45 413.369 137.07V135.36C412.189 135.81 411.019 136.25 409.869 136.66C390.379 143.6 377.639 145.48 365.319 147.31C362.589 147.72 359.969 148.11 357.319 148.54C369.369 135.61 393.819 127.57 413.369 121.98V120.33C396.209 125.21 375.159 131.99 361.759 142.4C361.819 142.33 361.869 142.27 361.929 142.21C367.569 135.67 374.589 127.54 389.369 120.82C396.189 117.72 404.629 115.43 413.369 113.66V110.4C404.199 112.23 395.279 114.61 388.049 117.91C372.629 124.93 365.349 133.36 359.509 140.12L359.519 140.1ZM397.159 50.62C399.859 47.04 406.379 43.07 413.379 38.86V35.14C413.069 35.32 412.759 35.51 412.449 35.7C409.269 37.61 406.249 39.42 403.569 41.18C405.219 38.74 407.099 35.85 409.119 32.55H405.129C403.109 35.72 401.039 38.91 399.229 41.66C400.189 38.78 401.309 35.71 402.519 32.55H400.809C399.969 34.75 399.179 36.91 398.449 38.98C398.699 37.08 399.009 34.91 399.359 32.55H397.749C397.649 33.2 397.559 33.84 397.469 34.46C397.449 33.84 397.429 33.2 397.419 32.55H394.229C394.459 40.28 394.559 46.78 393.459 49.61C393.349 49.89 393.339 50.18 393.389 50.46C392.769 51.82 391.839 53.87 390.629 56.55C388.199 61.8 384.669 69.51 379.559 78.99C376.589 84.52 373.089 90.72 368.969 97.36C373.009 83.13 375.099 68.47 375.169 53.65C375.199 53.34 375.019 53.09 374.769 52.96C374.899 52.93 375.029 52.91 375.159 52.87C378.069 52.04 379.749 49 378.919 46.09C378.089 43.18 375.049 41.5 372.139 42.33C369.229 43.16 367.549 46.2 368.379 49.11C369.089 51.58 371.379 53.15 373.829 53.07C373.679 53.21 373.589 53.41 373.589 53.63C373.499 70.23 370.879 86.62 365.779 102.41C357.069 115.86 345.869 130.84 331.379 145.72C333.539 139.04 337.619 126.57 344.649 105.61C356.249 70.98 353.889 57.57 350.309 37.28L349.889 34.89C349.749 34.1 349.619 33.33 349.489 32.56H346.249C346.399 33.51 346.559 34.46 346.729 35.44L347.159 37.84C350.769 58.36 352.969 70.74 341.609 104.6C340.269 108.6 339.039 112.28 337.909 115.67C338.419 108.64 339.209 101.16 340.029 93.33C340.969 84.48 341.939 75.34 342.509 66.5C343.049 58.17 343.619 44.79 344.079 32.56H342.479C342.019 44.76 341.459 58.09 340.919 66.39C340.349 75.21 339.369 84.34 338.449 93.17C337.599 101.12 336.799 108.71 336.289 115.85C333.929 104.98 329.149 79.99 330.399 61.68C331.029 52.44 333.279 41.99 335.829 32.57H334.179C331.649 41.97 329.439 52.36 328.809 61.57C327.809 76.21 330.609 95.02 332.999 107.66C332.299 105.88 331.539 104.04 330.769 102.15C329.979 100.23 329.159 98.23 328.349 96.17V104.65C329.659 107.84 330.879 110.87 331.799 113.62C331.899 113.9 331.989 114.18 332.069 114.46C334.269 122.13 332.349 132.31 328.349 141.88V154.72C328.809 154.26 329.279 153.81 329.729 153.35C342.229 140.98 352.439 128.46 360.809 116.67C370.319 110.05 380.659 104.81 391.639 101.07C392.859 103.24 395.439 104.37 397.929 103.66C400.839 102.83 402.519 99.79 401.689 96.88C400.859 93.97 397.819 92.29 394.909 93.12C392.099 93.92 390.449 96.78 391.079 99.59C381.289 102.92 371.999 107.43 363.349 113.05C370.329 102.9 375.939 93.39 380.469 85.09C380.589 85.05 380.699 84.98 380.789 84.88C390.479 73.83 401.429 63.92 413.359 55.36V53.38C402.519 61.07 392.459 69.87 383.409 79.61C388.189 70.51 391.529 63.12 393.839 58.04C395.509 54.3 396.619 51.8 397.139 50.65L397.159 50.62ZM358.889 252.6C350.809 251.09 341.349 245.15 331.319 238.56C335.929 238.09 343.439 236.72 352.019 232.81C352.689 232.5 353.069 231.77 352.919 231.04C352.789 230.33 352.149 229.79 351.409 229.76C351.349 229.76 345.759 229.51 335.559 225.02L333.099 223.92C331.639 223.26 330.059 222.56 328.379 221.84V225.31C329.559 225.83 330.699 226.34 331.799 226.83L334.279 227.93C339.029 230.03 342.849 231.25 345.649 231.96C337.789 234.79 331.349 235.43 328.389 235.57V240.44C331.899 242.75 335.349 245.01 338.719 247.05C335.709 245.68 332.219 244.12 328.389 242.5V244.23C334.719 246.93 340.099 249.41 343.799 251.17C339.359 250.45 334.049 249.81 328.389 249.19V250.79C334.719 251.49 340.589 252.2 345.279 253.04C341.389 253.31 337.309 253.65 333.119 254.01C331.559 254.14 329.979 254.28 328.389 254.41V257.61C330.069 257.47 331.739 257.33 333.389 257.19C342.659 256.4 351.409 255.64 358.579 255.74C359.409 255.75 360.109 255.12 360.189 254.31C360.279 253.47 359.709 252.73 358.899 252.58L358.889 252.6ZM159.379 256.18C145.889 243.4 134.849 241.1 122.069 238.44C118.599 237.72 115.019 236.96 111.239 235.97V239.26C114.789 240.17 118.159 240.88 121.419 241.56C133.719 244.13 144.349 246.33 157.189 258.49C165.199 266.09 171.479 273.89 177.569 281.45C178.409 282.49 179.239 283.53 180.079 284.55H184.199C182.819 282.87 181.449 281.17 180.059 279.44C173.919 271.8 167.559 263.91 159.379 256.17V256.18ZM111.239 253.98V256.33C115.949 261.35 121.859 266.87 130.349 273.12C136.619 277.72 143.359 281.42 150.179 284.56H154.089C146.239 281.15 138.439 277.08 131.289 271.83C122.189 265.14 116.079 259.28 111.229 253.98H111.239ZM280.129 186.92C277.529 188.62 274.859 190.24 272.139 191.81C275.729 184.71 278.599 175.26 279.419 170.27C281.969 167.95 294.089 155.85 294.789 134.7C295.149 123.6 292.399 114.24 289.789 104.94C286.899 94.99 283.969 84.71 284.729 71.95C284.799 71.36 284.469 70.78 283.929 70.47C283.399 70.17 282.749 70.19 282.249 70.53C281.859 70.8 273.339 76.73 270.899 94.12C270.769 93.89 270.629 93.65 270.499 93.42C268.919 90.68 267.279 87.83 265.589 84.52C258.689 70.99 255.809 58.8 255.789 58.69C255.789 58.66 255.769 58.63 255.769 58.61C255.559 57.87 254.839 57.38 254.069 57.46C253.269 57.54 252.659 58.21 252.639 59.02C252.509 65.68 250.719 71.91 248.829 78.51C245.729 89.29 242.219 101.51 245.659 118.09C249.199 135.4 258.319 147.41 264.939 156.22C268.389 160.82 271.379 164.79 272.409 167.99C275.219 176.28 268.919 189.72 261.299 197.63C248.359 204.07 234.389 209.48 220.029 214.53C219.799 214.6 219.559 214.66 219.329 214.73V219.92C220.069 219.7 220.819 219.5 221.559 219.28C232.029 215.54 242.279 211.6 252.089 207.22C263.449 204.44 275.079 203.22 286.789 203.61C286.809 203.96 286.849 204.32 286.949 204.67C287.649 207.1 290.189 208.51 292.619 207.81C295.059 207.11 296.459 204.57 295.769 202.14C295.069 199.71 292.529 198.3 290.099 199C288.569 199.44 287.439 200.61 286.989 202.03C277.509 201.69 268.069 202.41 258.779 204.14C267.139 200.14 275.129 195.77 282.569 190.84C288.909 186.91 294.969 182.78 300.719 178.52C301.919 178.22 303.129 177.94 304.339 177.66V176.01C304.209 176.04 304.069 176.07 303.939 176.1C304.069 176 304.199 175.89 304.339 175.79V170.21C304.189 170.33 304.049 170.44 303.899 170.56C304.049 170.24 304.189 169.91 304.339 169.59V165.63C303.299 168.03 302.219 170.4 301.039 172.74C294.479 177.68 287.509 182.44 280.149 186.94L280.129 186.92ZM281.419 75.78C281.389 87.22 284.069 96.56 286.719 105.8C286.839 106.2 286.949 106.6 287.069 107.01C289.629 115.92 291.939 124.44 291.599 134.58C291.169 147.52 286.089 156.94 282.029 162.46C282.399 161.1 282.779 159.56 283.119 157.89C284.989 151.02 286.339 141.64 283.659 128.18C280.829 114.07 277.539 106.28 273.809 99.32C273.729 99.16 273.659 99.02 273.599 98.9C274.469 86.31 278.619 79.21 281.419 75.78ZM262.739 85.95C264.459 89.31 266.119 92.21 267.729 95C268.819 96.89 269.879 98.73 270.899 100.63C272.329 103.5 277.929 115.31 280.249 127.81C282.489 139.87 281.399 150.43 279.819 157.81C279.239 159.84 278.619 161.65 278.069 163.25C277.639 164.49 277.249 165.64 276.929 166.71C277.149 157.8 277.079 137.03 272.549 121.26C272.449 120.92 272.349 120.57 272.249 120.23C270.219 113.51 267.729 106.77 265.329 100.26C261.519 89.91 257.869 80 256.219 70.92C257.789 75.26 259.929 80.47 262.739 85.95ZM254.699 71.48C256.379 80.6 260.019 90.49 263.839 100.81C266.229 107.3 268.709 114.02 270.739 120.7C270.829 121.03 270.939 121.37 271.039 121.71C275.099 135.88 275.519 154.19 275.399 164.02C275.229 163.32 275.049 162.66 274.869 162.02C273.409 156.91 271.569 153.09 269.559 148.88C266.329 142.13 262.649 134.46 259.089 118.89C254.629 99.48 254.339 81.69 254.709 71.49L254.699 71.48ZM267.479 154.29C261.029 145.72 252.219 133.97 248.769 117.42C245.489 101.62 248.739 90.31 251.879 79.38C252.259 78.04 252.639 76.72 252.999 75.4C252.859 86.01 253.549 101.99 257.529 119.25C258.299 122.61 259.079 125.6 259.849 128.31C262.709 138.27 265.539 144.2 268.099 149.57C270.099 153.75 271.909 157.55 273.349 162.62C271.849 160.12 269.819 157.41 267.469 154.3L267.479 154.29ZM129.249 283.48C129.159 283.44 123.909 280.63 117.769 274.25C117.529 273.97 117.299 273.69 117.069 273.39C114.899 270.59 112.969 267.92 111.239 265.38V271.66C112.789 273.62 114.339 275.38 115.839 276.91C118.429 279.9 121.449 282.41 124.789 284.56H131.249C130.649 284.26 130.059 283.96 129.479 283.64C129.409 283.58 129.329 283.52 129.249 283.48Z" fill="#E8CFA1"/>
</g>
<defs>
<clipPath id="clip0_179_14173">
<rect width="413" height="603" fill="white"/>
</clipPath>
</defs>
</svg>
