<svg width="642" height="204" viewBox="0 0 642 204" fill="none" xmlns="http://www.w3.org/2000/svg">
<g clip-path="url(#clip0_178_14124)">
<path d="M13.1391 177.96C10.8291 177.96 8.99907 178.73 7.66907 180.27C6.32907 181.81 5.65907 183.92 5.65907 186.59C5.65907 189.26 6.30908 191.47 7.59908 192.97C8.88908 194.47 10.7291 195.22 13.1191 195.22C14.5891 195.22 16.2591 194.96 18.1391 194.43V196.57C16.6791 197.12 14.8791 197.39 12.7391 197.39C9.63907 197.39 7.24908 196.45 5.56908 194.57C3.88908 192.69 3.03906 190.02 3.03906 186.56C3.03906 184.39 3.44906 182.49 4.25906 180.86C5.06906 179.23 6.23907 177.97 7.76907 177.09C9.29907 176.21 11.0991 175.77 13.1691 175.77C15.3791 175.77 17.2991 176.17 18.9491 176.98L17.9091 179.08C16.3191 178.33 14.7291 177.96 13.1291 177.96H13.1391Z" fill="#231F20"/>
<path d="M24.7494 197.11H22.3594V181.34H35.5994V197.11H33.1794V183.41H24.7494V197.11Z" fill="#231F20"/>
<path d="M40.4609 177.07C40.4609 176.52 40.5909 176.12 40.8609 175.87C41.1309 175.62 41.4609 175.49 41.8709 175.49C42.2809 175.49 42.5809 175.62 42.8609 175.88C43.1409 176.14 43.2809 176.54 43.2809 177.07C43.2809 177.6 43.1409 178.01 42.8609 178.27C42.5809 178.53 42.2509 178.67 41.8709 178.67C41.4709 178.67 41.1309 178.54 40.8609 178.27C40.5909 178.01 40.4609 177.61 40.4609 177.07ZM43.0509 197.11H40.6609V181.34H43.0509V197.11Z" fill="#231F20"/>
<path d="M59.8686 197.11H57.4486V183.38H52.7186C52.4586 186.8 52.0986 189.5 51.6386 191.51C51.1786 193.51 50.5786 194.98 49.8486 195.91C49.1186 196.84 48.1786 197.31 47.0486 197.31C46.5286 197.31 46.1186 197.25 45.8086 197.14V195.37C46.0186 195.43 46.2586 195.46 46.5286 195.46C47.6286 195.46 48.5086 194.29 49.1586 191.96C49.8086 189.63 50.3086 186.09 50.6386 181.34H59.8586V197.11H59.8686Z" fill="#231F20"/>
<path d="M74.1275 181.34H76.7475L69.9375 188.95L77.3075 197.11H74.5175L67.3275 189.12V197.11H64.9375V181.34H67.3275V189.01L74.1375 181.34H74.1275Z" fill="#231F20"/>
<path d="M89.9308 197.11L89.4608 194.87H89.3408C88.5508 195.86 87.7708 196.53 86.9908 196.88C86.2108 197.23 85.2308 197.4 84.0608 197.4C82.5008 197.4 81.2708 197 80.3808 196.19C79.4908 195.38 79.0508 194.24 79.0508 192.75C79.0508 189.57 81.6008 187.9 86.6908 187.74L89.3708 187.65V186.67C89.3708 185.43 89.1008 184.52 88.5708 183.93C88.0408 183.34 87.1908 183.05 86.0208 183.05C84.7108 183.05 83.2208 183.45 81.5608 184.26L80.8308 182.43C81.6108 182.01 82.4608 181.68 83.3808 181.44C84.3008 181.2 85.2308 181.08 86.1608 181.08C88.0408 181.08 89.4308 181.5 90.3408 182.33C91.2508 183.16 91.7008 184.5 91.7008 186.34V197.1H89.9308V197.11ZM84.5308 195.43C86.0208 195.43 87.1808 195.02 88.0308 194.21C88.8808 193.4 89.3008 192.25 89.3008 190.79V189.37L86.9108 189.47C85.0108 189.54 83.6408 189.83 82.8008 190.35C81.9608 190.87 81.5408 191.69 81.5408 192.79C81.5408 193.65 81.8008 194.31 82.3208 194.76C82.8408 195.21 83.5708 195.44 84.5108 195.44L84.5308 195.43Z" fill="#231F20"/>
<path d="M121.167 189.21C121.167 191.6 120.487 193.5 119.127 194.92C117.767 196.34 115.877 197.14 113.437 197.34V204.19H111.077V197.34C108.697 197.16 106.817 196.34 105.437 194.89C104.057 193.44 103.367 191.55 103.367 189.21C103.367 186.87 104.057 184.92 105.427 183.51C106.807 182.1 108.717 181.3 111.157 181.11V174.72H113.427V181.11C115.837 181.33 117.727 182.16 119.097 183.6C120.467 185.04 121.157 186.91 121.157 189.21H121.167ZM105.867 189.21C105.867 191.05 106.287 192.5 107.137 193.54C107.977 194.59 109.327 195.19 111.167 195.37V183.11C109.387 183.27 108.067 183.85 107.187 184.84C106.307 185.83 105.867 187.29 105.867 189.21ZM118.687 189.21C118.687 185.54 116.937 183.51 113.437 183.14V195.37C115.257 195.19 116.587 194.57 117.427 193.53C118.267 192.48 118.687 191.05 118.687 189.21Z" fill="#231F20"/>
<path d="M135.04 197.11L134.57 194.87H134.45C133.66 195.86 132.88 196.53 132.1 196.88C131.32 197.23 130.34 197.4 129.17 197.4C127.61 197.4 126.38 197 125.49 196.19C124.6 195.38 124.16 194.24 124.16 192.75C124.16 189.57 126.71 187.9 131.8 187.74L134.48 187.65V186.67C134.48 185.43 134.21 184.52 133.68 183.93C133.15 183.34 132.3 183.05 131.13 183.05C129.82 183.05 128.33 183.45 126.67 184.26L125.94 182.43C126.72 182.01 127.57 181.68 128.49 181.44C129.41 181.2 130.34 181.08 131.27 181.08C133.15 181.08 134.54 181.5 135.45 182.33C136.36 183.16 136.81 184.5 136.81 186.34V197.1H135.04V197.11ZM129.64 195.43C131.13 195.43 132.29 195.02 133.14 194.21C133.99 193.4 134.41 192.25 134.41 190.79V189.37L132.02 189.47C130.12 189.54 128.75 189.83 127.91 190.35C127.07 190.87 126.65 191.69 126.65 192.79C126.65 193.65 126.91 194.31 127.43 194.76C127.95 195.21 128.68 195.44 129.62 195.44L129.64 195.43Z" fill="#231F20"/>
<path d="M145.53 189.04L140.05 181.34H142.77L146.93 187.38L151.07 181.34H153.76L148.28 189.04L154.05 197.11H151.34L146.92 190.72L142.46 197.11H139.75L145.52 189.04H145.53Z" fill="#231F20"/>
<path d="M156.969 177.07C156.969 176.52 157.099 176.12 157.369 175.87C157.639 175.62 157.969 175.49 158.379 175.49C158.789 175.49 159.089 175.62 159.369 175.88C159.649 176.14 159.789 176.54 159.789 177.07C159.789 177.6 159.649 178.01 159.369 178.27C159.089 178.53 158.759 178.67 158.379 178.67C157.979 178.67 157.639 178.54 157.369 178.27C157.099 178.01 156.969 177.61 156.969 177.07ZM159.559 197.11H157.169V181.34H159.559V197.11Z" fill="#231F20"/>
<path d="M177.407 185.3C177.407 186.33 177.117 187.11 176.527 187.64C175.937 188.17 175.107 188.53 174.047 188.71V188.84C175.387 189.02 176.367 189.42 176.987 190.02C177.607 190.62 177.917 191.46 177.917 192.52C177.917 193.99 177.377 195.12 176.297 195.92C175.217 196.72 173.637 197.11 171.567 197.11H164.617V181.34H171.537C175.447 181.34 177.407 182.66 177.407 185.3ZM175.077 185.53C175.077 184.76 174.787 184.22 174.197 183.9C173.607 183.58 172.717 183.42 171.517 183.42H167.017V187.87H171.057C172.537 187.87 173.577 187.69 174.177 187.32C174.777 186.96 175.087 186.36 175.087 185.54L175.077 185.53ZM175.527 192.36C175.527 191.51 175.207 190.89 174.557 190.5C173.907 190.11 172.837 189.92 171.337 189.92H167.007V195.11H171.397C174.147 195.11 175.527 194.19 175.527 192.36Z" fill="#231F20"/>
<path d="M196.771 202.56H194.381V197.11H181.391V181.34H183.781V195.05H192.151V181.34H194.541V195.05H196.771V202.56Z" fill="#231F20"/>
<path d="M199.629 177.07C199.629 176.52 199.759 176.12 200.029 175.87C200.299 175.62 200.629 175.49 201.039 175.49C201.449 175.49 201.749 175.62 202.029 175.88C202.309 176.14 202.449 176.54 202.449 177.07C202.449 177.6 202.309 178.01 202.029 178.27C201.749 178.53 201.419 178.67 201.039 178.67C200.639 178.67 200.299 178.54 200.029 178.27C199.759 178.01 199.629 177.61 199.629 177.07ZM202.219 197.11H199.829V181.34H202.219V197.11Z" fill="#231F20"/>
<path d="M220.079 185.3C220.079 186.33 219.789 187.11 219.199 187.64C218.609 188.17 217.779 188.53 216.719 188.71V188.84C218.059 189.02 219.039 189.42 219.659 190.02C220.279 190.62 220.589 191.46 220.589 192.52C220.589 193.99 220.049 195.12 218.969 195.92C217.889 196.72 216.309 197.11 214.239 197.11H207.289V181.34H214.209C218.119 181.34 220.079 182.66 220.079 185.3ZM217.749 185.53C217.749 184.76 217.459 184.22 216.869 183.9C216.279 183.58 215.389 183.42 214.189 183.42H209.689V187.87H213.729C215.209 187.87 216.249 187.69 216.849 187.32C217.449 186.96 217.759 186.36 217.759 185.54L217.749 185.53ZM218.189 192.36C218.189 191.51 217.869 190.89 217.219 190.5C216.569 190.11 215.499 189.92 213.999 189.92H209.669V195.11H214.059C216.809 195.11 218.189 194.19 218.189 192.36Z" fill="#231F20"/>
<path d="M234.708 187.89C237.688 187.89 239.178 187.07 239.178 185.41C239.178 183.86 237.968 183.08 235.548 183.08C234.808 183.08 234.138 183.15 233.538 183.28C232.938 183.41 232.138 183.68 231.168 184.09L230.318 182.15C231.948 181.42 233.728 181.06 235.658 181.06C237.468 181.06 238.898 181.43 239.948 182.18C240.988 182.92 241.518 183.94 241.518 185.22C241.518 186.99 240.538 188.14 238.568 188.69V188.8C239.778 189.15 240.658 189.66 241.218 190.32C241.778 190.98 242.048 191.8 242.048 192.79C242.048 194.25 241.458 195.38 240.288 196.19C239.118 197 237.488 197.41 235.418 197.41C233.148 197.41 231.388 197.07 230.148 196.39V194.2C231.898 195.03 233.678 195.44 235.468 195.44C236.848 195.44 237.888 195.2 238.598 194.73C239.308 194.25 239.658 193.57 239.658 192.68C239.658 190.85 238.168 189.93 235.188 189.93H232.998V187.9H234.708V187.89Z" fill="#231F20"/>
<path d="M255.98 181.34V187.94H264.81V181.34H267.2V197.11H264.81V190H255.98V197.11H253.59V181.34H255.98Z" fill="#231F20"/>
<path d="M278.931 197.4C276.601 197.4 274.761 196.69 273.411 195.27C272.061 193.85 271.391 191.88 271.391 189.36C271.391 186.84 272.021 184.8 273.271 183.3C274.521 181.8 276.201 181.05 278.311 181.05C280.291 181.05 281.851 181.7 283.001 183C284.151 184.3 284.731 186.01 284.731 188.14V189.65H273.871C273.921 191.5 274.391 192.91 275.271 193.87C276.161 194.83 277.411 195.31 279.021 195.31C280.721 195.31 282.401 194.96 284.061 194.25V196.38C283.221 196.74 282.421 197.01 281.661 197.16C280.901 197.31 280.001 197.4 278.931 197.4ZM278.281 183.05C277.011 183.05 276.001 183.46 275.251 184.29C274.501 185.12 274.051 186.26 273.921 187.71H282.161C282.161 186.2 281.821 185.05 281.151 184.25C280.481 183.45 279.521 183.05 278.271 183.05H278.281Z" fill="#231F20"/>
<path d="M296.141 197.4C295.111 197.4 294.181 197.21 293.331 196.83C292.481 196.45 291.771 195.87 291.191 195.08H291.021C291.141 196 291.191 196.87 291.191 197.7V204.19H288.801V181.34H290.741L291.071 183.5H291.191C291.801 182.64 292.521 182.01 293.331 181.63C294.151 181.25 295.081 181.05 296.141 181.05C298.231 181.05 299.851 181.76 300.981 183.19C302.121 184.62 302.691 186.62 302.691 189.2C302.691 191.78 302.111 193.8 300.961 195.24C299.811 196.68 298.201 197.39 296.151 197.39L296.141 197.4ZM295.791 183.08C294.181 183.08 293.011 183.53 292.291 184.42C291.571 185.31 291.201 186.73 291.181 188.68V189.21C291.181 191.43 291.551 193.01 292.291 193.97C293.031 194.92 294.211 195.4 295.841 195.4C297.201 195.4 298.271 194.85 299.041 193.75C299.811 192.65 300.201 191.13 300.201 189.19C300.201 187.25 299.811 185.71 299.041 184.66C298.271 183.61 297.181 183.08 295.781 183.08H295.791Z" fill="#231F20"/>
<path d="M304.348 181.34H306.908L310.358 190.33C311.118 192.38 311.588 193.87 311.768 194.78H311.888C312.008 194.29 312.278 193.45 312.668 192.27C313.058 191.09 314.368 187.44 316.578 181.34H319.138L312.358 199.3C311.688 201.07 310.898 202.33 310.008 203.08C309.108 203.82 308.008 204.19 306.708 204.19C305.978 204.19 305.258 204.11 304.548 203.95V202.04C305.078 202.16 305.668 202.21 306.318 202.21C307.958 202.21 309.128 201.29 309.828 199.45L310.708 197.21L304.348 181.35V181.34Z" fill="#231F20"/>
<path d="M325.499 189.04L320.019 181.34H322.739L326.899 187.38L331.039 181.34H333.729L328.249 189.04L334.019 197.11H331.309L326.889 190.72L322.429 197.11H319.719L325.489 189.04H325.499Z" fill="#231F20"/>
<path d="M350.76 189.21C350.76 191.78 350.11 193.79 348.82 195.23C347.52 196.67 345.74 197.4 343.45 197.4C342.04 197.4 340.79 197.07 339.69 196.41C338.6 195.75 337.749 194.8 337.159 193.56C336.569 192.32 336.27 190.87 336.27 189.21C336.27 186.64 336.91 184.64 338.2 183.2C339.49 181.77 341.269 181.05 343.549 181.05C345.829 181.05 347.51 181.78 348.81 183.25C350.11 184.72 350.76 186.7 350.76 189.21ZM338.74 189.21C338.74 191.22 339.14 192.76 339.95 193.81C340.76 194.86 341.94 195.39 343.5 195.39C345.06 195.39 346.25 194.87 347.06 193.81C347.87 192.76 348.28 191.22 348.28 189.2C348.28 187.18 347.87 185.67 347.06 184.63C346.25 183.59 345.049 183.07 343.469 183.07C341.889 183.07 340.73 183.58 339.93 184.61C339.13 185.64 338.74 187.17 338.74 189.2V189.21Z" fill="#231F20"/>
<path d="M363.129 194.81L363.579 193.47L364.199 191.77L368.469 181.37H371.509V197.11H369.389V184.09L369.099 184.92L368.269 187.12L364.199 197.11H362.199L358.129 187.1C357.619 185.81 357.269 184.81 357.079 184.09V197.11H354.949V181.37H357.869L361.999 191.37C362.409 192.43 362.789 193.57 363.139 194.81H363.129Z" fill="#231F20"/>
<path d="M390.209 189.21C390.209 191.78 389.559 193.79 388.269 195.23C386.969 196.67 385.189 197.4 382.899 197.4C381.489 197.4 380.239 197.07 379.139 196.41C378.049 195.75 377.199 194.8 376.609 193.56C376.019 192.32 375.719 190.87 375.719 189.21C375.719 186.64 376.359 184.64 377.649 183.2C378.939 181.77 380.719 181.05 382.999 181.05C385.279 181.05 386.959 181.78 388.259 183.25C389.559 184.72 390.209 186.7 390.209 189.21ZM378.199 189.21C378.199 191.22 378.599 192.76 379.409 193.81C380.219 194.86 381.399 195.39 382.959 195.39C384.519 195.39 385.709 194.87 386.519 193.81C387.329 192.76 387.739 191.22 387.739 189.2C387.739 187.18 387.329 185.67 386.519 184.63C385.709 183.59 384.509 183.07 382.929 183.07C381.349 183.07 380.189 183.58 379.389 184.61C378.589 185.64 378.199 187.17 378.199 189.2V189.21Z" fill="#231F20"/>
<path d="M403.891 183.38H396.781V197.11H394.391V181.34H403.891V183.38Z" fill="#231F20"/>
<path d="M420.631 189.21C420.631 191.78 419.981 193.79 418.691 195.23C417.391 196.67 415.611 197.4 413.321 197.4C411.911 197.4 410.661 197.07 409.561 196.41C408.471 195.75 407.621 194.8 407.031 193.56C406.441 192.32 406.141 190.87 406.141 189.21C406.141 186.64 406.781 184.64 408.071 183.2C409.361 181.77 411.141 181.05 413.421 181.05C415.701 181.05 417.381 181.78 418.681 183.25C419.981 184.72 420.631 186.7 420.631 189.21ZM408.611 189.21C408.611 191.22 409.011 192.76 409.821 193.81C410.631 194.86 411.811 195.39 413.371 195.39C414.931 195.39 416.121 194.87 416.931 193.81C417.741 192.76 418.151 191.22 418.151 189.2C418.151 187.18 417.741 185.67 416.931 184.63C416.121 183.59 414.921 183.07 413.341 183.07C411.761 183.07 410.601 183.58 409.801 184.61C409.001 185.64 408.611 187.17 408.611 189.2V189.21Z" fill="#231F20"/>
<path d="M440.66 194.81L441.11 193.47L441.73 191.77L446 181.37H449.04V197.11H446.92V184.09L446.63 184.92L445.8 187.12L441.73 197.11H439.73L435.66 187.1C435.15 185.81 434.8 184.81 434.61 184.09V197.11H432.48V181.37H435.401L439.531 191.37C439.941 192.43 440.32 193.57 440.67 194.81H440.66Z" fill="#231F20"/>
<path d="M463.818 197.11L463.347 194.87H463.227C462.437 195.86 461.658 196.53 460.878 196.88C460.098 197.23 459.118 197.4 457.948 197.4C456.388 197.4 455.158 197 454.268 196.19C453.378 195.38 452.938 194.24 452.938 192.75C452.938 189.57 455.488 187.9 460.578 187.74L463.258 187.65V186.67C463.258 185.43 462.988 184.52 462.458 183.93C461.928 183.34 461.077 183.05 459.907 183.05C458.597 183.05 457.108 183.45 455.448 184.26L454.717 182.43C455.497 182.01 456.348 181.68 457.268 181.44C458.188 181.2 459.117 181.08 460.047 181.08C461.927 181.08 463.317 181.5 464.227 182.33C465.137 183.16 465.588 184.5 465.588 186.34V197.1H463.818V197.11ZM458.427 195.43C459.917 195.43 461.077 195.02 461.927 194.21C462.777 193.4 463.198 192.25 463.198 190.79V189.37L460.807 189.47C458.907 189.54 457.538 189.83 456.698 190.35C455.858 190.87 455.438 191.69 455.438 192.79C455.438 193.65 455.697 194.31 456.217 194.76C456.737 195.21 457.467 195.44 458.407 195.44L458.427 195.43Z" fill="#231F20"/>
<path d="M472.758 181.34V191.34L472.658 193.96L472.618 194.78L481.148 181.34H484.128V197.11H481.898V187.47L481.938 185.57L482.008 183.7L473.488 197.11H470.508V181.34H472.758ZM477.258 179.26C475.488 179.26 474.188 178.92 473.378 178.23C472.558 177.54 472.108 176.41 472.008 174.84H474.248C474.338 175.84 474.598 176.53 475.028 176.93C475.468 177.32 476.228 177.52 477.308 177.52C478.298 177.52 479.028 177.31 479.498 176.89C479.978 176.47 480.268 175.79 480.368 174.85H482.628C482.508 176.37 482.028 177.48 481.178 178.2C480.328 178.91 479.018 179.27 477.248 179.27L477.258 179.26Z" fill="#231F20"/>
<path d="M491.578 181.34V187.94H500.407V181.34H502.797V197.11H500.407V190H491.578V197.11H489.188V181.34H491.578Z" fill="#231F20"/>
<path d="M517.56 197.11L517.09 194.87H516.97C516.18 195.86 515.4 196.53 514.62 196.88C513.84 197.23 512.86 197.4 511.69 197.4C510.13 197.4 508.9 197 508.01 196.19C507.12 195.38 506.68 194.24 506.68 192.75C506.68 189.57 509.23 187.9 514.32 187.74L517 187.65V186.67C517 185.43 516.73 184.52 516.2 183.93C515.67 183.34 514.82 183.05 513.65 183.05C512.34 183.05 510.85 183.45 509.19 184.26L508.46 182.43C509.24 182.01 510.09 181.68 511.01 181.44C511.93 181.2 512.86 181.08 513.79 181.08C515.67 181.08 517.06 181.5 517.97 182.33C518.88 183.16 519.33 184.5 519.33 186.34V197.1H517.56V197.11ZM512.17 195.43C513.66 195.43 514.82 195.02 515.67 194.21C516.52 193.4 516.94 192.25 516.94 190.79V189.37L514.55 189.47C512.65 189.54 511.28 189.83 510.44 190.35C509.6 190.87 509.18 191.69 509.18 192.79C509.18 193.65 509.44 194.31 509.96 194.76C510.48 195.21 511.21 195.44 512.15 195.44L512.17 195.43Z" fill="#231F20"/>
<path d="M533.588 197.4C532.528 197.4 531.588 197.26 530.778 196.97V194.58C531.668 194.99 532.578 195.2 533.498 195.2C534.548 195.2 535.398 194.96 536.038 194.47C536.678 193.98 537.308 193.08 537.948 191.74L529.758 176.07H532.468L538.688 188.03C538.928 188.5 539.118 188.96 539.248 189.41H539.358C539.628 188.6 539.818 188.1 539.918 187.88L545.088 176.07H547.678L540.958 191.12C540.148 192.91 539.428 194.22 538.778 195.03C538.128 195.84 537.398 196.44 536.588 196.82C535.778 197.2 534.778 197.39 533.588 197.39V197.4Z" fill="#231F20"/>
<path d="M559.409 181.34H562.029L555.219 188.95L562.589 197.11H559.799L552.609 189.12V197.11H550.219V181.34H552.609V189.01L559.419 181.34H559.409Z" fill="#231F20"/>
<path d="M572.848 197.4C571.818 197.4 570.888 197.21 570.038 196.83C569.188 196.45 568.478 195.87 567.898 195.08H567.728C567.848 196 567.898 196.87 567.898 197.7V204.19H565.508V181.34H567.448L567.778 183.5H567.898C568.508 182.64 569.228 182.01 570.038 181.63C570.858 181.25 571.788 181.05 572.848 181.05C574.938 181.05 576.558 181.76 577.688 183.19C578.828 184.62 579.398 186.62 579.398 189.2C579.398 191.78 578.818 193.8 577.668 195.24C576.518 196.68 574.908 197.39 572.858 197.39L572.848 197.4ZM572.498 183.08C570.888 183.08 569.718 183.53 568.998 184.42C568.278 185.31 567.908 186.73 567.888 188.68V189.21C567.888 191.43 568.258 193.01 568.998 193.97C569.738 194.92 570.918 195.4 572.548 195.4C573.908 195.4 574.978 194.85 575.748 193.75C576.518 192.65 576.908 191.13 576.908 189.19C576.908 187.25 576.518 185.71 575.748 184.66C574.978 183.61 573.888 183.08 572.488 183.08H572.498Z" fill="#231F20"/>
<path d="M593.259 197.11L592.789 194.87H592.669C591.879 195.86 591.099 196.53 590.319 196.88C589.539 197.23 588.559 197.4 587.389 197.4C585.829 197.4 584.599 197 583.709 196.19C582.819 195.38 582.379 194.24 582.379 192.75C582.379 189.57 584.929 187.9 590.019 187.74L592.699 187.65V186.67C592.699 185.43 592.429 184.52 591.899 183.93C591.369 183.34 590.519 183.05 589.349 183.05C588.039 183.05 586.549 183.45 584.889 184.26L584.159 182.43C584.939 182.01 585.789 181.68 586.709 181.44C587.629 181.2 588.559 181.08 589.489 181.08C591.369 181.08 592.759 181.5 593.669 182.33C594.579 183.16 595.029 184.5 595.029 186.34V197.1H593.259V197.11ZM587.869 195.43C589.359 195.43 590.519 195.02 591.369 194.21C592.219 193.4 592.639 192.25 592.639 190.79V189.37L590.249 189.47C588.349 189.54 586.979 189.83 586.139 190.35C585.299 190.87 584.879 191.69 584.879 192.79C584.879 193.65 585.139 194.31 585.659 194.76C586.179 195.21 586.909 195.44 587.849 195.44L587.869 195.43Z" fill="#231F20"/>
<path d="M597.129 177.07C597.129 176.57 597.259 176.21 597.509 175.99C597.759 175.77 598.069 175.66 598.419 175.66C598.769 175.66 599.099 175.77 599.359 175.99C599.619 176.21 599.759 176.57 599.759 177.07C599.759 177.57 599.629 177.91 599.359 178.14C599.099 178.38 598.779 178.49 598.419 178.49C598.059 178.49 597.759 178.37 597.509 178.14C597.259 177.91 597.129 177.55 597.129 177.07ZM602.339 197.11H599.949V181.34H602.339V197.11ZM602.619 177.07C602.619 176.57 602.749 176.21 602.999 175.99C603.249 175.77 603.559 175.66 603.909 175.66C604.259 175.66 604.569 175.77 604.839 175.99C605.109 176.21 605.239 176.57 605.239 177.07C605.239 177.57 605.109 177.91 604.839 178.14C604.579 178.38 604.269 178.49 603.909 178.49C603.549 178.49 603.249 178.37 602.999 178.14C602.749 177.91 602.619 177.55 602.619 177.07Z" fill="#231F20"/>
<path d="M609.8 181.34V187.94H618.63V181.34H621.02V197.11H618.63V190H609.8V197.11H607.41V181.34H609.8Z" fill="#231F20"/>
<path d="M628.328 181.34V191.34L628.228 193.96L628.188 194.78L636.718 181.34H639.698V197.11H637.468V187.47L637.508 185.57L637.578 183.7L629.058 197.11H626.078V181.34H628.328Z" fill="#231F20"/>
<path d="M191.309 78.8C191.309 45.06 216.369 19.18 250.929 19.18C271.729 19.18 290.079 29.5 300.069 45.72L277.459 58.82C272.379 49.97 262.549 44.73 250.919 44.73C230.609 44.73 217.499 58.33 217.499 78.8C217.499 99.27 230.599 112.87 250.919 112.87C262.549 112.87 272.539 107.63 277.459 98.78L300.069 111.88C290.239 128.1 271.899 138.42 250.929 138.42C216.369 138.42 191.309 112.54 191.309 78.8Z" fill="#475861"/>
<path d="M381.148 125.97V139.4H355.598V125.97C324.478 122.2 304.168 104.84 304.168 78.79C304.168 52.74 324.478 35.38 355.598 31.61V18.18H381.148V31.61C412.268 35.38 432.578 52.74 432.578 78.79C432.578 104.84 412.268 122.2 381.148 125.97ZM355.598 101.89V55.7C338.558 57.99 330.368 65.69 330.368 78.8C330.368 91.91 338.558 99.6 355.598 101.9V101.89ZM406.378 78.8C406.378 65.7 398.188 58 381.148 55.7V101.89C398.188 99.6 406.378 91.9 406.378 78.79V78.8Z" fill="#475861"/>
<path d="M534.14 21.47V136.13H507.93V90.59H471.89V136.13H445.68V21.47H471.89V65.37H507.93V21.47H534.14Z" fill="#475861"/>
<path d="M642.24 21.47L609.151 102.39C598.991 127.12 582.45 137.28 560.99 136.13V111.56C572.95 112.71 579.5 108.28 583.92 100.26L547.23 21.47H573.44L595.88 71.59L616.031 21.47H642.24Z" fill="#475861"/>
<path fill-rule="evenodd" clip-rule="evenodd" d="M152.072 47.52L93.8817 3.92003C86.2317 -1.80997 75.7217 -1.80997 68.0817 3.92003L5.16172 51.05C-1.53828 56.07 -1.53828 66.13 5.16172 71.15L58.4017 111.03C66.0517 116.76 76.5617 116.76 84.2017 111.03L109.722 91.91L89.0717 76.44L74.1517 87.62C71.2717 89.78 67.3217 89.78 64.4417 87.62L31.0517 62.6L78.1617 27.31C81.0417 25.15 84.9917 25.15 87.8717 27.31L146.872 71.51L152.082 67.61C158.782 62.59 158.782 52.53 152.082 47.51L152.072 47.52Z" fill="#0083CA"/>
<path fill-rule="evenodd" clip-rule="evenodd" d="M151.571 85.26L97.6011 44.87C89.9511 39.15 79.4511 39.15 71.8111 44.87L47.1711 63.33L67.8211 78.8L81.8511 68.29C84.7311 66.14 88.6811 66.13 91.5611 68.29L125.801 93.89L78.6911 129.18C75.8111 131.34 71.8611 131.34 68.9811 129.18L11.4811 86.1L6.27109 90C-0.428906 95.02 -0.428906 105.08 6.27109 110.1L62.9511 152.56C70.6111 158.3 81.1311 158.29 88.7811 152.54L151.601 105.35C158.291 100.32 158.281 90.27 151.581 85.26H151.571Z" fill="#FFD800"/>
</g>
<defs>
<clipPath id="clip0_178_14124">
<rect width="642" height="204" fill="white"/>
</clipPath>
</defs>
</svg>
