<?xml version="1.0" encoding="utf-8"?>
<!-- Generator: Adobe Illustrator 15.0.0, SVG Export Plug-In . SVG Version: 6.00 Build 0)  -->
<!DOCTYPE svg PUBLIC "-//W3C//DTD SVG 1.1//EN" "http://www.w3.org/Graphics/SVG/1.1/DTD/svg11.dtd">
<svg version="1.1" id="Слой_1" xmlns="http://www.w3.org/2000/svg" xmlns:xlink="http://www.w3.org/1999/xlink" x="0px" y="0px" viewBox="0 0 1000 408.081" enable-background="new 0 0 1000 408.081" xml:space="preserve">
<polygon fill="#2D6BB9" points="143.721,173.302 4.835,173.302 4.835,197.817 61.843,197.817 61.843,349.423 86.36,349.423 
	86.36,197.817 143.721,197.817 "/>
<polygon fill="#469AEB" points="776.766,251.577 701.892,251.577 701.892,197.843 802.32,197.843 802.32,173.31 677.361,173.31 
	677.361,351.163 701.892,351.163 701.892,276.077 776.766,276.077 "/>
<g>
	<path fill="#FFCB5D" d="M614.468,105.69l-12.237,16.349c-1.651,2.21-1.209,5.347,1.005,7c0.901,0.68,1.954,1,3,1
		c1.518,0,3.024-0.691,4.007-2.004l16.131-21.552c0.025-0.025,0.034-0.062,0.054-0.089L614.468,105.69z"/>
	<path fill="#FFCB5D" d="M640.844,107.241l-5.66-0.331l-35.864,58.552c-1.437,2.356-0.701,5.436,1.657,6.877
		c0.814,0.5,1.721,0.735,2.611,0.735c1.678,0,3.324-0.85,4.266-2.389l35.856-58.547L640.844,107.241z"/>
	<path fill="#FFCB5D" d="M648.165,119.724c-0.015,0.029-0.04,0.056-0.049,0.085l-11.873,24.162c-1.22,2.48-0.195,5.477,2.283,6.694
		c0.712,0.353,1.462,0.517,2.206,0.517c1.842,0,3.625-1.028,4.489-2.801l9.003-18.326L648.165,119.724z"/>
	<polygon fill="#FF6A3D" points="698.091,58.8 703.354,5.2 657.984,34.238 608.637,12.666 622.23,64.786 597.684,92.45 
		616.822,93.481 638.777,68.75 630.959,38.804 659.316,51.201 685.402,34.508 682.373,65.317 706.3,84.943 676.081,91.597 
		664.041,122.36 673.665,138.947 687.131,104.528 739.733,92.957 	"/>
</g>
<g>
	<g>
		<path fill="#2D6BB9" d="M135.193,309.222c0-27.791,18.329-41.684,54.981-41.684c11.792,0,23.579,0.857,35.363,2.577V257.34
			c0-15.569-12.169-23.37-36.521-23.37c-13.942,0-28.228,2.16-42.854,6.465v-19.367c14.626-4.295,28.912-6.449,42.854-6.449
			c40.272,0,60.4,14.029,60.4,42.068v93.447h-13.42l-8.26-13.414c-13.51,8.938-28.229,13.414-44.138,13.414
			C151.326,350.134,135.193,336.499,135.193,309.222z M190.174,286.89c-20.739,0-31.101,7.318-31.101,21.938
			c0,14.639,8.17,21.954,24.525,21.954c16.52,0,30.5-4.393,41.939-13.166v-28.143C213.753,287.758,201.966,286.89,190.174,286.89z"
			/>
	</g>
</g>
<g>
	<g>
		<path fill="#2D6BB9" d="M299.185,172.773v177.36h-23.876v-177.36H299.185z"/>
	</g>
</g>
<g>
	<g>
		<path fill="#2D6BB9" d="M382.338,214.618c38.542,0,57.821,19.06,57.821,57.17c0,5.426-0.386,11.231-1.158,17.427h-95.128
			c0,27.702,16.18,41.566,48.533,41.566c15.396,0,29.084-1.73,41.042-5.162v19.358c-11.958,3.436-26.499,5.156-43.624,5.156
			c-46.548,0-69.822-23.096-69.822-69.308C320.003,236.681,340.781,214.618,382.338,214.618z M343.874,269.331h73.318
			c-0.517-23.74-12.138-35.613-34.854-35.613C358.247,233.718,345.426,245.591,343.874,269.331z"/>
	</g>
</g>
<g>
	<g>
		<path fill="#2D6BB9" d="M458.869,350.134V214.618h16.133l4.259,17.295c13.853-11.534,29.109-17.295,45.785-17.295
			c33.826,0,50.723,16.817,50.723,50.463v85.053h-23.871v-85.444c0-20.132-10.022-30.193-30.083-30.193
			c-13.746,0-26.764,5.719-39.075,17.16v98.478H458.869z"/>
	</g>
</g>
<g>
	<g>
		<path fill="#2D6BB9" d="M597.788,192.674h14.974l5.162,21.944h36.658v19.352h-32.913v77.829c0,12.655,5.469,18.982,16.398,18.982
			h16.515v19.353h-22.726c-22.712,0-34.068-12.177-34.068-36.521V192.674z"/>
	</g>
</g>
<g>
	<path fill="#469AEB" d="M847.143,173.129v177.716h-23.876V173.129H847.143z"/>
</g>
<g>
	<path fill="#469AEB" d="M866.807,218.756h25.943l38.335,105.834l39.626-105.834h25.291l-56.264,139.519
		c-9.993,24.609-24.958,39.969-44.926,46.081l-9.159-16.909c15.141-6.631,26.156-17.423,33.036-32.398L866.807,218.756z"/>
</g>
</svg>
