<?xml version="1.0" encoding="utf-8"?>
<!-- Generator: Adobe Illustrator 15.0.0, SVG Export Plug-In . SVG Version: 6.00 Build 0)  -->
<!DOCTYPE svg PUBLIC "-//W3C//DTD SVG 1.1//EN" "http://www.w3.org/Graphics/SVG/1.1/DTD/svg11.dtd">
<svg version="1.1" id="Слой_1" xmlns="http://www.w3.org/2000/svg" xmlns:xlink="http://www.w3.org/1999/xlink" x="0px" y="0px"
	 width="1000px" height="1000px" viewBox="0 0 1000 1000" enable-background="new 0 0 1000 1000" xml:space="preserve">
<g>
	<path fill="#000" d="M288.213,984.12c-25.057,0-54.316-18.731-54.316-71.522V88.811c0-52.791,29.26-71.522,54.316-71.522
		c16.487,0,33.699,7.234,51.159,21.501L813.56,426.272c23.909,19.538,37.076,45.971,37.076,74.432
		c0,28.461-13.167,54.895-37.076,74.432L339.371,962.62C321.912,976.887,304.7,984.12,288.213,984.12z M288.212,59.288
		c-11.722,0-12.316,24.593-12.316,29.522v823.787c0,4.93,0.594,29.522,12.316,29.522c2.967,0,11.302-1.172,24.582-12.023
		l474.188-387.484c13.963-11.409,21.652-26.292,21.652-41.908c0-15.616-7.689-30.5-21.652-41.909L312.795,71.312
		C299.515,60.459,291.18,59.288,288.212,59.288z"/>
</g>
</svg>
