<?xml version="1.0" encoding="utf-8"?>
<!-- Generator: Adobe Illustrator 15.0.0, SVG Export Plug-In . SVG Version: 6.00 Build 0)  -->
<!DOCTYPE svg PUBLIC "-//W3C//DTD SVG 1.1//EN" "http://www.w3.org/Graphics/SVG/1.1/DTD/svg11.dtd">
<svg version="1.1" id="Capa_1" xmlns="http://www.w3.org/2000/svg" xmlns:xlink="http://www.w3.org/1999/xlink" x="0px" y="0px"
	 width="1000px" height="1000px" viewBox="0 0 1000 1000" enable-background="new 0 0 1000 1000" xml:space="preserve">
<g>
	<path d="M500,0c-83.506,0-166.159,21.01-239.069,60.772c-9.604,5.248-13.148,17.268-7.901,26.871
		c5.248,9.584,17.228,13.148,26.871,7.901c67.109-36.594,143.208-55.94,220.1-55.94c253.861,0,460.396,206.534,460.396,460.396
		c0,253.861-206.534,460.396-460.396,460.396S39.604,753.862,39.604,500.001c0-123.98,48.614-240.298,136.892-327.506
		c7.782-7.683,7.861-20.218,0.178-28c-7.703-7.782-20.237-7.842-28-0.158C52.812,239.03,0,365.346,0,500.001
		c0,275.702,224.297,500,500,500c275.702,0,500-224.298,500-500C1000,224.297,775.702,0,500,0z"/>
	<path d="M325.663,785.564c3.861,5.485,9.979,8.416,16.218,8.416c3.94,0,7.9-1.168,11.366-3.604L742.99,516.198
		c5.287-3.723,8.416-9.742,8.416-16.197c0-6.456-3.129-12.476-8.416-16.198L353.247,209.624c-6.04-4.258-13.96-4.792-20.515-1.386
		c-6.555,3.405-10.674,10.178-10.674,17.584v374.832c0,10.931,8.872,19.802,19.803,19.802s19.802-8.871,19.802-19.802V263.961
		l335.524,236.04L330.455,757.98C321.525,764.277,319.366,776.634,325.663,785.564z"/>
</g>
</svg>
