<svg width="156" height="61" viewBox="0 0 156 61" fill="none" xmlns="http://www.w3.org/2000/svg">
<path d="M4.88636 4.45455V19H0.9375V4.45455H4.88636ZM6.75781 19V4.45455H13.0362C14.1158 4.45455 15.0604 4.65104 15.87 5.04403C16.6797 5.43703 17.3094 6.00284 17.7592 6.74148C18.209 7.48011 18.4339 8.36553 18.4339 9.39773C18.4339 10.4394 18.2019 11.3177 17.7379 12.0327C17.2786 12.7476 16.6323 13.2874 15.799 13.652C14.9704 14.0166 14.0021 14.1989 12.8942 14.1989H9.14418V11.1307H12.0987C12.5627 11.1307 12.9581 11.0739 13.2848 10.9602C13.6162 10.8419 13.8696 10.6548 14.0447 10.3991C14.2247 10.1435 14.3146 9.80966 14.3146 9.39773C14.3146 8.98106 14.2247 8.64252 14.0447 8.3821C13.8696 8.11695 13.6162 7.92282 13.2848 7.79972C12.9581 7.67187 12.5627 7.60795 12.0987 7.60795H10.7067V19H6.75781ZM15.2805 12.3239L18.9169 19H14.6271L11.076 12.3239H15.2805ZM34.2081 11.7273C34.2081 13.3466 33.8932 14.7126 33.2635 15.8253C32.6338 16.9332 31.7839 17.7737 30.7138 18.3466C29.6437 18.9148 28.4505 19.1989 27.1342 19.1989C25.8085 19.1989 24.6106 18.9124 23.5405 18.3395C22.4751 17.7618 21.6276 16.919 20.9979 15.8111C20.3729 14.6984 20.0604 13.3371 20.0604 11.7273C20.0604 10.108 20.3729 8.74432 20.9979 7.63636C21.6276 6.52367 22.4751 5.68324 23.5405 5.11506C24.6106 4.54214 25.8085 4.25568 27.1342 4.25568C28.4505 4.25568 29.6437 4.54214 30.7138 5.11506C31.7839 5.68324 32.6338 6.52367 33.2635 7.63636C33.8932 8.74432 34.2081 10.108 34.2081 11.7273ZM30.1456 11.7273C30.1456 10.8561 30.0296 10.1222 29.7976 9.52557C29.5703 8.92424 29.2318 8.4697 28.782 8.16193C28.3369 7.84943 27.7876 7.69318 27.1342 7.69318C26.4808 7.69318 25.9292 7.84943 25.4794 8.16193C25.0343 8.4697 24.6958 8.92424 24.4638 9.52557C24.2365 10.1222 24.1229 10.8561 24.1229 11.7273C24.1229 12.5985 24.2365 13.3348 24.4638 13.9361C24.6958 14.5327 25.0343 14.9872 25.4794 15.2997C25.9292 15.6075 26.4808 15.7614 27.1342 15.7614C27.7876 15.7614 28.3369 15.6075 28.782 15.2997C29.2318 14.9872 29.5703 14.5327 29.7976 13.9361C30.0296 13.3348 30.1456 12.5985 30.1456 11.7273ZM48.6204 4.45455V19H45.3249L40.0692 11.358H39.984V19H36.0352V4.45455H39.3874L44.5579 12.0682H44.6715V4.45455H48.6204ZM58.2511 19H53.9897L58.7908 4.45455H64.1886L68.9897 19H64.7283L61.5465 8.46023H61.4329L58.2511 19ZM57.4556 13.2614H65.467V16.2159H57.4556V13.2614ZM82.9759 4.45455V19H79.6804L74.4247 11.358H74.3395V19H70.3906V4.45455H73.7429L78.9134 12.0682H79.027V4.45455H82.9759ZM98.4233 9.90909H94.4176C94.3892 9.57765 94.3134 9.27699 94.1903 9.0071C94.072 8.73722 93.9063 8.50521 93.6932 8.31108C93.4848 8.11222 93.2315 7.9607 92.9332 7.85653C92.6349 7.74763 92.2964 7.69318 91.9176 7.69318C91.2547 7.69318 90.6937 7.85417 90.2344 8.17614C89.7798 8.49811 89.4342 8.95975 89.1974 9.56108C88.9654 10.1624 88.8494 10.8845 88.8494 11.7273C88.8494 12.6174 88.9678 13.3632 89.2045 13.9645C89.446 14.5611 89.794 15.0109 90.2486 15.3139C90.7031 15.6122 91.25 15.7614 91.8892 15.7614C92.2538 15.7614 92.5805 15.7164 92.8693 15.6264C93.1581 15.5317 93.4091 15.3968 93.6222 15.2216C93.8352 15.0464 94.008 14.8357 94.1406 14.5895C94.2779 14.3385 94.3703 14.0568 94.4176 13.7443L98.4233 13.7727C98.3759 14.3883 98.2031 15.0156 97.9048 15.6548C97.6065 16.2893 97.1828 16.8764 96.6335 17.4162C96.089 17.9512 95.4143 18.3821 94.6094 18.7088C93.8045 19.0355 92.8693 19.1989 91.804 19.1989C90.4688 19.1989 89.2708 18.9124 88.2102 18.3395C87.1544 17.7666 86.3187 16.9238 85.7031 15.8111C85.0923 14.6984 84.7869 13.3371 84.7869 11.7273C84.7869 10.108 85.0994 8.74432 85.7244 7.63636C86.3494 6.52367 87.1922 5.68324 88.2528 5.11506C89.3134 4.54214 90.4972 4.25568 91.804 4.25568C92.7225 4.25568 93.5677 4.38115 94.3395 4.6321C95.1113 4.88305 95.7884 5.25 96.3707 5.73295C96.9531 6.21117 97.4219 6.80066 97.777 7.50142C98.1321 8.20218 98.3475 9.00473 98.4233 9.90909ZM100.215 19V4.45455H104.164V10.1364H109.391V4.45455H113.34V19H109.391V13.3182H104.164V19H100.215ZM129.306 11.7273C129.306 13.3466 128.991 14.7126 128.361 15.8253C127.731 16.9332 126.882 17.7737 125.811 18.3466C124.741 18.9148 123.548 19.1989 122.232 19.1989C120.906 19.1989 119.708 18.9124 118.638 18.3395C117.573 17.7618 116.725 16.919 116.096 15.8111C115.471 14.6984 115.158 13.3371 115.158 11.7273C115.158 10.108 115.471 8.74432 116.096 7.63636C116.725 6.52367 117.573 5.68324 118.638 5.11506C119.708 4.54214 120.906 4.25568 122.232 4.25568C123.548 4.25568 124.741 4.54214 125.811 5.11506C126.882 5.68324 127.731 6.52367 128.361 7.63636C128.991 8.74432 129.306 10.108 129.306 11.7273ZM125.243 11.7273C125.243 10.8561 125.127 10.1222 124.895 9.52557C124.668 8.92424 124.329 8.4697 123.88 8.16193C123.435 7.84943 122.885 7.69318 122.232 7.69318C121.578 7.69318 121.027 7.84943 120.577 8.16193C120.132 8.4697 119.793 8.92424 119.561 9.52557C119.334 10.1222 119.221 10.8561 119.221 11.7273C119.221 12.5985 119.334 13.3348 119.561 13.9361C119.793 14.5327 120.132 14.9872 120.577 15.2997C121.027 15.6075 121.578 15.7614 122.232 15.7614C122.885 15.7614 123.435 15.6075 123.88 15.2997C124.329 14.9872 124.668 14.5327 124.895 13.9361C125.127 13.3348 125.243 12.5985 125.243 11.7273ZM131.133 19V4.45455H137.411C138.491 4.45455 139.435 4.65104 140.245 5.04403C141.055 5.43703 141.684 6.00284 142.134 6.74148C142.584 7.48011 142.809 8.36553 142.809 9.39773C142.809 10.4394 142.577 11.3177 142.113 12.0327C141.654 12.7476 141.007 13.2874 140.174 13.652C139.345 14.0166 138.377 14.1989 137.269 14.1989H133.519V11.1307H136.474C136.938 11.1307 137.333 11.0739 137.66 10.9602C137.991 10.8419 138.245 10.6548 138.42 10.3991C138.6 10.1435 138.69 9.80966 138.69 9.39773C138.69 8.98106 138.6 8.64252 138.42 8.3821C138.245 8.11695 137.991 7.92282 137.66 7.79972C137.333 7.67187 136.938 7.60795 136.474 7.60795H135.082V19H131.133ZM139.656 12.3239L143.292 19H139.002L135.451 12.3239H139.656Z" fill="#09090C"/>
<path d="M5.616 55V54.64L7.092 54.28C8.076 54.064 8.568 53.464 8.568 52.48V31.96H5.508C4.62 31.96 3.984 32.2 3.6 32.68C3.216 33.136 2.808 33.772 2.376 34.588L1.08 37.108H0.72L0.9 31.24H21.672L21.816 37.108H21.456L20.16 34.588C19.752 33.772 19.356 33.136 18.972 32.68C18.588 32.2 17.952 31.96 17.064 31.96H14.004V52.48C14.004 53.464 14.496 54.064 15.48 54.28L16.956 54.64V55H5.616ZM19.7201 55V54.64L20.6201 54.316C21.1001 54.124 21.4721 53.896 21.7361 53.632C22.0001 53.344 22.2161 52.948 22.3841 52.444L29.8001 31.168H32.8601L40.1681 52.588C40.3601 53.116 40.5761 53.524 40.8161 53.812C41.0561 54.076 41.4281 54.304 41.9321 54.496L42.3641 54.64V55H33.2201V54.64L33.7601 54.46C34.2641 54.268 34.5641 54.004 34.6601 53.668C34.7801 53.308 34.7681 52.888 34.6241 52.408L32.9321 47.224H24.9401L23.2121 52.3C23.0441 52.828 22.9841 53.248 23.0321 53.56C23.1041 53.872 23.3921 54.124 23.8961 54.316L24.6881 54.64V55H19.7201ZM25.1921 46.504H32.7161L29.0801 35.308L25.1921 46.504Z" fill="#09090C"/>
<path d="M72.3631 50.18L77 46.34C76.5864 53.546 71.811 58.5 63.7318 58.5M63.7318 58.5C55.6511 58.5 51.4136 53.546 51 46.34L56.2994 50.18M63.7318 58.5V35.1231M55.7023 39.9761L64.251 40.0306L72.4215 39.9761M63.7318 35.1231C64.9975 35.1231 66.2113 34.6688 67.1062 33.8602C68.0012 33.0517 68.5039 31.955 68.5039 30.8115C68.5039 29.668 68.0012 28.5714 67.1062 27.7628C66.2113 26.9542 64.9975 26.5 63.7318 26.5C62.4662 26.5 61.2524 26.9542 60.3575 27.7628C59.4625 28.5714 58.9597 29.668 58.9597 30.8115C58.9597 31.955 59.4625 33.0517 60.3575 33.8602C61.2524 34.6688 62.4662 35.1231 63.7318 35.1231Z" stroke="#BF4E52" stroke-width="3" stroke-linecap="square"/>
<path d="M90.616 55V54.64L92.092 54.28C93.076 54.064 93.568 53.464 93.568 52.48V31.96H90.508C89.62 31.96 88.984 32.2 88.6 32.68C88.216 33.136 87.808 33.772 87.376 34.588L86.08 37.108H85.72L85.9 31.24H106.672L106.816 37.108H106.456L105.16 34.588C104.752 33.772 104.356 33.136 103.972 32.68C103.588 32.2 102.952 31.96 102.064 31.96H99.004V52.48C99.004 53.464 99.496 54.064 100.48 54.28L101.956 54.64V55H90.616ZM118.672 55.648C117.208 55.648 115.792 55.384 114.424 54.856C113.08 54.328 111.868 53.548 110.788 52.516C109.732 51.46 108.892 50.152 108.268 48.592C107.644 47.032 107.332 45.208 107.332 43.12C107.332 41.056 107.644 39.244 108.268 37.684C108.892 36.124 109.744 34.828 110.824 33.796C111.904 32.74 113.116 31.948 114.46 31.42C115.828 30.868 117.232 30.592 118.672 30.592C120.136 30.592 121.54 30.856 122.884 31.384C124.252 31.888 125.464 32.668 126.52 33.724C127.6 34.756 128.452 36.064 129.076 37.648C129.7 39.208 130.012 41.032 130.012 43.12C130.012 45.16 129.7 46.972 129.076 48.556C128.452 50.116 127.6 51.424 126.52 52.48C125.464 53.512 124.252 54.304 122.884 54.856C121.54 55.384 120.136 55.648 118.672 55.648ZM118.672 54.892C119.992 54.892 121.06 54.544 121.876 53.848C122.692 53.128 123.28 51.916 123.64 50.212C124.024 48.484 124.216 46.12 124.216 43.12C124.216 40.096 124.024 37.732 123.64 36.028C123.28 34.3 122.692 33.088 121.876 32.392C121.06 31.672 119.992 31.312 118.672 31.312C117.376 31.312 116.32 31.672 115.504 32.392C114.688 33.088 114.088 34.3 113.704 36.028C113.344 37.732 113.164 40.096 113.164 43.12C113.164 46.12 113.344 48.484 113.704 50.212C114.088 51.916 114.688 53.128 115.504 53.848C116.32 54.544 117.376 54.892 118.672 54.892ZM142.956 55.648C141.492 55.648 140.076 55.384 138.708 54.856C137.364 54.328 136.152 53.548 135.072 52.516C134.016 51.46 133.176 50.152 132.552 48.592C131.928 47.032 131.616 45.208 131.616 43.12C131.616 41.056 131.928 39.244 132.552 37.684C133.176 36.124 134.028 34.828 135.108 33.796C136.188 32.74 137.4 31.948 138.744 31.42C140.112 30.868 141.516 30.592 142.956 30.592C144.42 30.592 145.824 30.856 147.168 31.384C148.536 31.888 149.748 32.668 150.804 33.724C151.884 34.756 152.736 36.064 153.36 37.648C153.984 39.208 154.296 41.032 154.296 43.12C154.296 45.16 153.984 46.972 153.36 48.556C152.736 50.116 151.884 51.424 150.804 52.48C149.748 53.512 148.536 54.304 147.168 54.856C145.824 55.384 144.42 55.648 142.956 55.648ZM142.956 54.892C144.276 54.892 145.344 54.544 146.16 53.848C146.976 53.128 147.564 51.916 147.924 50.212C148.308 48.484 148.5 46.12 148.5 43.12C148.5 40.096 148.308 37.732 147.924 36.028C147.564 34.3 146.976 33.088 146.16 32.392C145.344 31.672 144.276 31.312 142.956 31.312C141.66 31.312 140.604 31.672 139.788 32.392C138.972 33.088 138.372 34.3 137.988 36.028C137.628 37.732 137.448 40.096 137.448 43.12C137.448 46.12 137.628 48.484 137.988 50.212C138.372 51.916 138.972 53.128 139.788 53.848C140.604 54.544 141.66 54.892 142.956 54.892Z" fill="#09090C"/>
</svg>
