<?xml version="1.0" encoding="UTF-8"?>
<svg width="56px" height="62px" viewBox="0 0 56 62" version="1.1" xmlns="http://www.w3.org/2000/svg" xmlns:xlink="http://www.w3.org/1999/xlink">
    <!-- Generator: Sketch 46.2 (44496) - http://www.bohemiancoding.com/sketch -->
    <title>Lead_developer</title>
    <desc>Created with Sketch.</desc>
    <defs></defs>
    <g id="Desktop" stroke="none" stroke-width="1" fill="none" fill-rule="evenodd">
        <g id="Lead_developer">
            <g id="Group-2-Copy-5" transform="translate(2.000000, 2.000000)">
                <g id="Group-14" transform="translate(8.000000, 15.000000)">
                    <path d="M22.58097,21.0289692 C20.7393418,21.0289692 19.2289416,19.5278435 19.2289416,17.6835654 C19.2289416,15.8392873 20.7393418,14.3381615 22.58097,14.3381615 C24.4225983,14.3381615 25.9197493,15.8392873 25.9197493,17.6835654 C25.9197493,19.5278435 24.4225983,21.0289692 22.58097,21.0289692 Z M11.6769408,21.0289692 C9.83531257,21.0289692 8.33816154,19.5278435 8.33816154,17.6835654 C8.33816154,15.8392873 9.83531257,14.3381615 11.6769408,14.3381615 C13.5318182,14.3381615 15.0289692,15.8392873 15.0289692,17.6835654 C15.0289692,19.5278435 13.5318182,21.0289692 11.6769408,21.0289692 Z M22.58097,13 C20.2226259,13 18.2750047,14.7475595 17.9437766,17.0144846 L16.3141343,17.0144846 C15.9961553,14.7475595 14.0352849,13 11.6769408,13 C9.10661074,13 7,15.1013111 7,17.6835654 C7,20.2658197 9.10661074,22.3671308 11.6769408,22.3671308 C14.0352849,22.3671308 15.9961553,20.6195713 16.3141343,18.3526462 L17.9437766,18.3526462 C18.2750047,20.6195713 20.2226259,22.3671308 22.58097,22.3671308 C25.1645492,22.3671308 27.2579109,20.2658197 27.2579109,17.6835654 C27.2579109,15.1013111 25.1645492,13 22.58097,13 L22.58097,13 Z" id="Fill-37" fill="#75C3B7"></path>
                    <path d="M31.0029506,38.2634706 L30.9632032,38.4436587 L30.8042137,38.6264966 L30.5657295,38.696717 L30.4199891,38.6702187 L30.2742487,38.5761499 L29.4925504,37.8408235 C29.0818275,37.4367252 28.6181082,37.1306705 28.1146415,36.926634 C27.6111748,36.7212725 27.0679607,36.6179294 26.5247466,36.6179294 C25.9815325,36.6179294 25.4515675,36.7199476 24.9348517,36.926634 C24.431385,37.1333203 23.9544165,37.4433498 23.5436936,37.8527477 C23.265462,38.1336292 22.9474831,38.3429653 22.5897567,38.4834061 C22.2452795,38.6225219 21.8875531,38.6927422 21.5165776,38.6927422 C21.1456022,38.6927422 20.7878758,38.6225219 20.4433986,38.4834061 C20.0989214,38.3429653 19.7676933,38.1336292 19.4894617,37.8527477 C19.0787388,37.4433498 18.6017703,37.1319954 18.0983036,36.926634 C17.5815878,36.7212725 17.0516228,36.6179294 16.5084087,36.6179294 C15.9651946,36.6179294 15.4352297,36.7199476 14.9185138,36.926634 C14.4150471,37.1333203 13.9380786,37.4433498 13.5273558,37.8527477 C13.2491242,38.1336292 12.9178961,38.3429653 12.5734188,38.4834061 C12.2289416,38.6225219 11.8712153,38.6927422 11.5002398,38.6927422 C11.1292643,38.6927422 10.7582888,38.6225219 10.4138116,38.4834061 C10.0693344,38.3429653 9.75135539,38.1336292 9.47312378,37.8527477 C9.06240093,37.4433498 8.58543246,37.1319954 8.06871662,36.926634 C7.5652499,36.7212725 7.02203581,36.6179294 6.49207084,36.6179294 C5.94885675,36.6179294 5.40564266,36.7199476 4.90217594,36.926634 C4.39870922,37.1333203 3.92174075,37.4433498 3.5110179,37.8527477 L2.87505994,38.4794313 L2.72931958,38.5774748 L2.58357921,38.6066229 L2.27884936,38.484731 L2.17285636,38.3535646 L2.14635812,38.1747015 L2.14635812,16.7190698 C2.14635812,12.7324083 3.76275126,9.12997146 6.37282872,6.51724418 C8.98290619,3.9058418 12.586668,2.29209848 16.5746543,2.29209848 C20.5626407,2.29209848 24.1531534,3.9058418 26.7764799,6.51724418 C29.3865574,9.12997146 31.0029506,12.7324083 31.0029506,16.7190698 L31.0029506,38.2634706 Z M28.2868801,4.85447909 C25.292578,1.8562023 21.1456022,0 16.5746543,0 C11.9904574,0 7.84348151,1.8562023 4.84917945,4.85447909 C1.85487738,7.85143098 0,11.9997318 0,16.5746543 L0,39.1153893 C0,39.3869963 0.0529964967,39.649329 0.15898949,39.8798637 C0.304729856,40.2283157 0.569712339,40.5065473 0.861193071,40.6946849 C1.16592293,40.8841474 1.51040016,40.9874905 1.86812651,40.9874905 C2.10661074,40.9874905 2.34509498,40.9450933 2.57033009,40.8536744 C2.7955652,40.7622554 3.00755119,40.6218147 3.19303892,40.4389768 L3.84224601,39.7804953 C4.14697586,39.4850398 4.47820397,39.2651044 4.84917945,39.1180391 C5.2069058,38.9722987 5.5911304,38.8981036 5.975355,38.8981036 C6.3595796,38.8981036 6.7438042,38.9722987 7.11477968,39.1180391 C7.47250603,39.2651044 7.81698326,39.4850398 8.10846399,39.7804953 C8.53243596,40.2110918 9.03590268,40.5370203 9.57911677,40.752981 C10.1090817,40.9702667 10.6787941,41.0775846 11.2352573,41.0775846 C11.8049696,41.0775846 12.374682,40.9702667 12.9046469,40.752981 C13.4346119,40.5370203 13.9380786,40.2110918 14.3752997,39.7804953 C14.6667805,39.4850398 15.0112577,39.2651044 15.368984,39.1180391 C15.7267104,38.9722987 16.110935,38.8981036 16.5084087,38.8981036 C16.8926333,38.8981036 17.2768579,38.9722987 17.6345843,39.1180391 C17.9923106,39.2651044 18.3367878,39.4850398 18.6282686,39.7804953 C19.0654897,40.2110918 19.5689564,40.5370203 20.0989214,40.752981 C20.6288863,40.9702667 21.1985987,41.0775846 21.768311,41.0775846 C22.3380233,41.0775846 22.8944866,40.9702667 23.4377007,40.752981 C23.9676656,40.5370203 24.4711323,40.2110918 24.8951043,39.7804953 C25.1998342,39.4850398 25.5310623,39.2651044 25.8887886,39.1180391 C26.2597641,38.9722987 26.6439887,38.8981036 27.0282133,38.8981036 C27.4124379,38.8981036 27.7966625,38.9722987 28.167638,39.1180391 C28.5253643,39.2651044 28.8698416,39.4850398 29.1613223,39.7804953 L29.1745714,39.7937444 L29.982768,40.5661684 C30.1682557,40.738407 30.3802417,40.8695733 30.5922277,40.9556926 C30.8174628,41.0418119 31.0426979,41.0828842 31.267933,41.0828842 C31.7449015,41.0815593 32.2086209,40.8973965 32.5530981,40.571468 C32.7385858,40.4071789 32.8843262,40.2044673 32.9903192,39.9739325 C33.083063,39.7420729 33.1493087,39.4810651 33.1493087,39.210783 L33.1493087,16.5746543 C33.1493087,11.9997318 31.2944313,7.85143098 28.2868801,4.85447909 L28.2868801,4.85447909 Z" id="Fill-38" fill="#FFFFFE"></path>
                    <path d="M17.4447355,26.7259288 C16.6895355,26.7259288 15.9475845,26.5232172 15.2983774,26.1389926 C15.0068967,25.966754 14.9141528,25.5904789 15.0863914,25.3003231 C15.2586301,25.0088424 15.6428547,24.9134487 15.9210863,25.0856873 C16.3848056,25.3572943 16.9147706,25.5017098 17.4447355,25.5017098 C17.9747005,25.5017098 18.4781672,25.3639189 18.9286375,25.105561 C19.2201182,24.9359722 19.6043428,25.0366655 19.7633323,25.3294712 C19.9355709,25.6222768 19.842827,25.997227 19.5513463,26.1654909 C18.9153883,26.5324916 18.1866865,26.7259288 17.4447355,26.7259288" id="Fill-39" fill="#FFFFFE"></path>
                </g>
                <path d="M48.3614711,22.8808371 C50.364019,21.1610486 48.3614711,18.5164842 48.3614711,18.5164842 C49.6137719,15.4741301 46.8581437,13.8875048 46.8581437,13.8875048 C47.1080371,10.581091 44.2283122,10.0524047 44.2283122,10.0524047 C43.7273919,7.01005067 41.0720611,7.14321387 41.0720611,7.14321387 C39.9194911,3.83680002 36.9984006,4.36548625 36.9984006,4.36548625 C35.9047624,1.58775863 32.7479447,2.51366783 32.7479447,2.51366783 C30.9102925,0.133163197 28.347326,2.11644485 28.347326,2.11644485 C28.1200986,1.05850575 27.0717926,0 24.8595835,0 C22.6473745,0 21.5996352,1.0590724 21.3718411,2.11644485 C21.3718411,2.11644485 18.8083079,0.132596545 16.9706558,2.51366783 C16.9706558,2.51366783 13.813838,1.58775863 12.7201999,4.36548625 C12.7201999,4.36548625 9.79910931,3.83680002 8.64653934,7.14321387 C8.64653934,7.14321387 5.99120853,7.01005067 5.49028825,10.0524047 C5.49028825,10.0524047 2.60999664,10.581091 2.86045678,13.8875048 C2.86045678,13.8875048 0.105395234,15.4741301 1.35769594,18.5164842 C1.35769594,18.5164842 -0.645985187,21.1610486 1.35769594,22.8808371 C1.35769594,22.8808371 -1.52259568,25.5225683 1.1072358,27.772743 C-0.771215257,31.6934075 2.3595365,33.7645202 2.3595365,33.7645202 C1.1072358,38.1668388 5.23982811,39.0700819 5.23982811,39.0700819 C5.37525792,41.9554734 8.64653934,42.3237972 8.64653934,42.3237972 C8.64653934,42.3237972 9.37242043,44.4391087 11.4916985,43.1873747 C13.61041,41.935074 10.6252878,37.4296247 10.6252878,37.4296247 C12.3785088,35.4457764 10.6252878,32.2475931 10.6252878,32.2475931 C12.6034696,30.7306659 10.6252878,27.7733096 10.6252878,27.7733096 C13.2551193,27.5069832 12.7207665,24.0725061 12.7207665,24.0725061 C15.3171655,24.6011923 16.730962,21.7939988 16.730962,21.7939988 C19.7058845,23.0882317 21.3718411,21.030152 21.3718411,21.030152 C23.8532098,22.7499405 24.8595835,21.030152 24.8595835,21.030152 C24.8595835,21.030152 25.8659573,22.7499405 28.347326,21.030152 C28.347326,21.030152 30.0132826,23.0882317 32.9882051,21.7939988 C32.9882051,21.7939988 34.4020016,24.6017589 36.9984006,24.0725061 C36.9984006,24.0725061 36.4640478,27.5069832 39.0938793,27.7733096 C39.0938793,27.7733096 37.1156975,30.7306659 39.0938793,32.2475931 C39.0938793,32.2475931 37.3406583,35.446343 39.0938793,37.4296247 C39.0938793,37.4296247 36.1087571,41.935074 38.2274685,43.1873747 C40.34618,44.4396754 41.0726277,42.3237972 41.0726277,42.3237972 C41.0726277,42.3237972 44.3433425,41.9554734 44.4787723,39.0700819 C44.4787723,39.0700819 48.610798,38.1668388 47.3590639,33.7645202 C47.3590639,33.7645202 50.4903823,31.6934075 48.6113646,27.772743 C51.2406295,25.5231349 48.3614711,22.8808371 48.3614711,22.8808371 Z" id="Shape" fill="#FFFFFF" fill-rule="nonzero"></path>
            </g>
        </g>
    </g>
</svg>