<?xml version="1.0" encoding="UTF-8"?>
<svg width="39px" height="85px" viewBox="0 0 39 85" version="1.1" xmlns="http://www.w3.org/2000/svg" xmlns:xlink="http://www.w3.org/1999/xlink">
    <!-- Generator: Sketch 46.2 (44496) - http://www.bohemiancoding.com/sketch -->
    <title>Marketing</title>
    <desc>Created with Sketch.</desc>
    <defs></defs>
    <g id="Desktop" stroke="none" stroke-width="1" fill="none" fill-rule="evenodd">
        <g id="Marketing">
            <g id="Group-7" transform="translate(2.000000, 40.000000)">
                <g id="Group-5">
                    <path d="M22.58097,21.0289692 C20.7393418,21.0289692 19.2289416,19.5278435 19.2289416,17.6835654 C19.2289416,15.8392873 20.7393418,14.3381615 22.58097,14.3381615 C24.4225983,14.3381615 25.9197493,15.8392873 25.9197493,17.6835654 C25.9197493,19.5278435 24.4225983,21.0289692 22.58097,21.0289692 Z M11.6769408,21.0289692 C9.83531257,21.0289692 8.33816154,19.5278435 8.33816154,17.6835654 C8.33816154,15.8392873 9.83531257,14.3381615 11.6769408,14.3381615 C13.5318182,14.3381615 15.0289692,15.8392873 15.0289692,17.6835654 C15.0289692,19.5278435 13.5318182,21.0289692 11.6769408,21.0289692 Z M22.58097,13 C20.2226259,13 18.2750047,14.7475595 17.9437766,17.0144846 L16.3141343,17.0144846 C15.9961553,14.7475595 14.0352849,13 11.6769408,13 C9.10661074,13 7,15.1013111 7,17.6835654 C7,20.2658197 9.10661074,22.3671308 11.6769408,22.3671308 C14.0352849,22.3671308 15.9961553,20.6195713 16.3141343,18.3526462 L17.9437766,18.3526462 C18.2750047,20.6195713 20.2226259,22.3671308 22.58097,22.3671308 C25.1645492,22.3671308 27.2579109,20.2658197 27.2579109,17.6835654 C27.2579109,15.1013111 25.1645492,13 22.58097,13 L22.58097,13 Z" id="Fill-37" fill="#75C3B7"></path>
                    <path d="M31.0029506,38.2634706 L30.9632032,38.4436587 L30.8042137,38.6264966 L30.5657295,38.696717 L30.4199891,38.6702187 L30.2742487,38.5761499 L29.4925504,37.8408235 C29.0818275,37.4367252 28.6181082,37.1306705 28.1146415,36.926634 C27.6111748,36.7212725 27.0679607,36.6179294 26.5247466,36.6179294 C25.9815325,36.6179294 25.4515675,36.7199476 24.9348517,36.926634 C24.431385,37.1333203 23.9544165,37.4433498 23.5436936,37.8527477 C23.265462,38.1336292 22.9474831,38.3429653 22.5897567,38.4834061 C22.2452795,38.6225219 21.8875531,38.6927422 21.5165776,38.6927422 C21.1456022,38.6927422 20.7878758,38.6225219 20.4433986,38.4834061 C20.0989214,38.3429653 19.7676933,38.1336292 19.4894617,37.8527477 C19.0787388,37.4433498 18.6017703,37.1319954 18.0983036,36.926634 C17.5815878,36.7212725 17.0516228,36.6179294 16.5084087,36.6179294 C15.9651946,36.6179294 15.4352297,36.7199476 14.9185138,36.926634 C14.4150471,37.1333203 13.9380786,37.4433498 13.5273558,37.8527477 C13.2491242,38.1336292 12.9178961,38.3429653 12.5734188,38.4834061 C12.2289416,38.6225219 11.8712153,38.6927422 11.5002398,38.6927422 C11.1292643,38.6927422 10.7582888,38.6225219 10.4138116,38.4834061 C10.0693344,38.3429653 9.75135539,38.1336292 9.47312378,37.8527477 C9.06240093,37.4433498 8.58543246,37.1319954 8.06871662,36.926634 C7.5652499,36.7212725 7.02203581,36.6179294 6.49207084,36.6179294 C5.94885675,36.6179294 5.40564266,36.7199476 4.90217594,36.926634 C4.39870922,37.1333203 3.92174075,37.4433498 3.5110179,37.8527477 L2.87505994,38.4794313 L2.72931958,38.5774748 L2.58357921,38.6066229 L2.27884936,38.484731 L2.17285636,38.3535646 L2.14635812,38.1747015 L2.14635812,16.7190698 C2.14635812,12.7324083 3.76275126,9.12997146 6.37282872,6.51724418 C8.98290619,3.9058418 12.586668,2.29209848 16.5746543,2.29209848 C20.5626407,2.29209848 24.1531534,3.9058418 26.7764799,6.51724418 C29.3865574,9.12997146 31.0029506,12.7324083 31.0029506,16.7190698 L31.0029506,38.2634706 Z M28.2868801,4.85447909 C25.292578,1.8562023 21.1456022,0 16.5746543,0 C11.9904574,0 7.84348151,1.8562023 4.84917945,4.85447909 C1.85487738,7.85143098 0,11.9997318 0,16.5746543 L0,39.1153893 C0,39.3869963 0.0529964967,39.649329 0.15898949,39.8798637 C0.304729856,40.2283157 0.569712339,40.5065473 0.861193071,40.6946849 C1.16592293,40.8841474 1.51040016,40.9874905 1.86812651,40.9874905 C2.10661074,40.9874905 2.34509498,40.9450933 2.57033009,40.8536744 C2.7955652,40.7622554 3.00755119,40.6218147 3.19303892,40.4389768 L3.84224601,39.7804953 C4.14697586,39.4850398 4.47820397,39.2651044 4.84917945,39.1180391 C5.2069058,38.9722987 5.5911304,38.8981036 5.975355,38.8981036 C6.3595796,38.8981036 6.7438042,38.9722987 7.11477968,39.1180391 C7.47250603,39.2651044 7.81698326,39.4850398 8.10846399,39.7804953 C8.53243596,40.2110918 9.03590268,40.5370203 9.57911677,40.752981 C10.1090817,40.9702667 10.6787941,41.0775846 11.2352573,41.0775846 C11.8049696,41.0775846 12.374682,40.9702667 12.9046469,40.752981 C13.4346119,40.5370203 13.9380786,40.2110918 14.3752997,39.7804953 C14.6667805,39.4850398 15.0112577,39.2651044 15.368984,39.1180391 C15.7267104,38.9722987 16.110935,38.8981036 16.5084087,38.8981036 C16.8926333,38.8981036 17.2768579,38.9722987 17.6345843,39.1180391 C17.9923106,39.2651044 18.3367878,39.4850398 18.6282686,39.7804953 C19.0654897,40.2110918 19.5689564,40.5370203 20.0989214,40.752981 C20.6288863,40.9702667 21.1985987,41.0775846 21.768311,41.0775846 C22.3380233,41.0775846 22.8944866,40.9702667 23.4377007,40.752981 C23.9676656,40.5370203 24.4711323,40.2110918 24.8951043,39.7804953 C25.1998342,39.4850398 25.5310623,39.2651044 25.8887886,39.1180391 C26.2597641,38.9722987 26.6439887,38.8981036 27.0282133,38.8981036 C27.4124379,38.8981036 27.7966625,38.9722987 28.167638,39.1180391 C28.5253643,39.2651044 28.8698416,39.4850398 29.1613223,39.7804953 L29.1745714,39.7937444 L29.982768,40.5661684 C30.1682557,40.738407 30.3802417,40.8695733 30.5922277,40.9556926 C30.8174628,41.0418119 31.0426979,41.0828842 31.267933,41.0828842 C31.7449015,41.0815593 32.2086209,40.8973965 32.5530981,40.571468 C32.7385858,40.4071789 32.8843262,40.2044673 32.9903192,39.9739325 C33.083063,39.7420729 33.1493087,39.4810651 33.1493087,39.210783 L33.1493087,16.5746543 C33.1493087,11.9997318 31.2944313,7.85143098 28.2868801,4.85447909 L28.2868801,4.85447909 Z" id="Fill-38" fill="#FFFFFE"></path>
                    <path d="M15.2983774,26.1389926 C15.0068967,25.966754 14.9141528,25.5904789 15.0863914,25.3003231 C15.2586301,25.0088424 15.6428547,24.9134487 15.9210863,25.0856873 C16.3848056,25.3572943 16.9147706,25.5017098 17.4447355,25.5017098 C17.9747005,25.5017098 18.4781672,25.3639189 18.9286375,25.105561 C19.2201182,24.9359722 19.6043428,25.0366655 19.7633323,25.3294712 C19.9355709,25.6222768 19.842827,25.997227 19.5513463,26.1654909 C18.9153883,26.5324916 18.1866865,26.7259288 17.4447355,26.7259288 C16.6895355,26.7259288 15.9475845,26.5232172 15.2983774,26.1389926 Z" id="Fill-39" fill="#FFFFFE"></path>
                </g>
            </g>
            <g id="noun_850176_cc" transform="translate(5.000000, 5.000000)" fill-rule="nonzero" fill="#FFFFFF">
                <path d="M14.1435897,7.3902439 C10.4461538,7.3902439 7.43076923,10.4634146 7.43076923,14.2317073 C7.43076923,16.902439 8.93846154,19.2073171 11.1282051,20.3414634 L11.1282051,23.7439024 C11.1282051,24.695122 11.8820513,25.4634146 12.8153846,25.4634146 L15.7948718,25.4634146 C16.7282051,25.4634146 17.4820513,24.695122 17.4820513,23.7439024 L17.4820513,20.195122 C19.5282051,19.0243902 20.8923077,16.7926829 20.8923077,14.2317073 C20.8564103,10.4634146 17.8410256,7.3902439 14.1435897,7.3902439 Z M12.9230769,10.3170732 C12.8153846,10.3536585 10.5179487,10.8658537 9.90769231,14.2317073 C9.87179487,14.4878049 9.62051282,14.6707317 9.36923077,14.6707317 L9.26153846,14.6707317 C8.97435897,14.6341463 8.75897436,14.3414634 8.83076923,14.0487805 C9.54871795,9.91463415 12.5641026,9.25609756 12.7076923,9.25609756 C12.9948718,9.18292683 13.2820513,9.40243902 13.3538462,9.69512195 C13.3897436,9.95121951 13.2102564,10.2439024 12.9230769,10.3170732 Z" id="Shape"></path>
                <path d="M14.0358974,5.48780488 C14.3230769,5.48780488 14.574359,5.23170732 14.574359,4.93902439 L14.574359,0.841463415 C14.574359,0.548780488 14.3230769,0.292682927 14.0358974,0.292682927 C13.7487179,0.292682927 13.4974359,0.548780488 13.4974359,0.841463415 L13.4974359,4.97560976 C13.4974359,5.23170732 13.7487179,5.48780488 14.0358974,5.48780488 Z" id="Shape"></path>
                <path d="M27.425641,13.5731707 L23.3692308,13.5731707 C23.0820513,13.5731707 22.8307692,13.8292683 22.8307692,14.1219512 C22.8307692,14.4146341 23.0820513,14.6707317 23.3692308,14.6707317 L27.425641,14.6707317 C27.7128205,14.6707317 27.9641026,14.4146341 27.9641026,14.1219512 C27.9641026,13.8292683 27.7128205,13.5731707 27.425641,13.5731707 Z" id="Shape"></path>
                <path d="M5.16923077,14.1219512 C5.16923077,13.8292683 4.91794872,13.5731707 4.63076923,13.5731707 L0.574358974,13.5731707 C0.287179487,13.5731707 0.0358974359,13.8292683 0.0358974359,14.1219512 C0.0358974359,14.4146341 0.287179487,14.6707317 0.574358974,14.6707317 L4.63076923,14.6707317 C4.91794872,14.6707317 5.16923077,14.4512195 5.16923077,14.1219512 Z" id="Shape"></path>
                <path d="M20.8923077,20.2682927 C20.6769231,20.0487805 20.3538462,20.0487805 20.1384615,20.2682927 C19.9230769,20.4878049 19.9230769,20.8170732 20.1384615,21.0365854 L23.0102564,23.9634146 C23.1179487,24.0731707 23.2615385,24.1097561 23.4051282,24.1097561 C23.5487179,24.1097561 23.6923077,24.0731707 23.8,23.9634146 C24.0153846,23.7439024 24.0153846,23.4146341 23.8,23.195122 L20.8923077,20.2682927 Z" id="Shape"></path>
                <path d="M16.6564103,26.4878049 L11.9538462,26.4878049 C11.6666667,26.4878049 11.4153846,26.7439024 11.4153846,27.0365854 C11.4153846,27.3292683 11.6666667,27.5853659 11.9538462,27.5853659 L16.6564103,27.5853659 C16.9435897,27.5853659 17.1948718,27.3292683 17.1948718,27.0365854 C17.1948718,26.7439024 16.9435897,26.4878049 16.6564103,26.4878049 Z" id="Shape"></path>
                <path d="M16.0820513,28.6463415 L12.5641026,28.6463415 C12.2769231,28.6463415 12.025641,28.902439 12.025641,29.195122 C12.025641,29.4878049 12.2769231,29.7439024 12.5641026,29.7439024 L16.0820513,29.7439024 C16.3692308,29.7439024 16.6205128,29.4878049 16.6205128,29.195122 C16.6205128,28.902439 16.3692308,28.6463415 16.0820513,28.6463415 Z" id="Shape"></path>
                <path d="M7.14358974,20.5243902 L4.27179487,23.4512195 C4.05641026,23.6707317 4.05641026,24 4.27179487,24.2195122 C4.37948718,24.3292683 4.52307692,24.3658537 4.66666667,24.3658537 C4.81025641,24.3658537 4.95384615,24.3292683 5.06153846,24.2195122 L7.93333333,21.2926829 C8.14871795,21.0731707 8.14871795,20.7439024 7.93333333,20.5243902 C7.68205128,20.304878 7.35897436,20.304878 7.14358974,20.5243902 Z" id="Shape"></path>
                <path d="M20.7846154,7.93902439 C20.9282051,7.93902439 21.0717949,7.90243902 21.1794872,7.79268293 L24.0512821,4.86585366 C24.2666667,4.64634146 24.2666667,4.31707317 24.0512821,4.09756098 C23.8358974,3.87804878 23.5128205,3.87804878 23.2974359,4.09756098 L20.425641,7.02439024 C20.2102564,7.24390244 20.2102564,7.57317073 20.425641,7.79268293 C20.4974359,7.86585366 20.6410256,7.93902439 20.7846154,7.93902439 Z" id="Shape"></path>
                <path d="M7.32307692,7.75609756 C7.43076923,7.86585366 7.57435897,7.90243902 7.71794872,7.90243902 C7.86153846,7.90243902 8.00512821,7.86585366 8.11282051,7.75609756 C8.32820513,7.53658537 8.32820513,7.20731707 8.11282051,6.98780488 L5.24102564,4.06097561 C5.02564103,3.84146341 4.7025641,3.84146341 4.48717949,4.06097561 C4.27179487,4.2804878 4.27179487,4.6097561 4.48717949,4.82926829 L7.32307692,7.75609756 Z" id="Shape"></path>
            </g>
        </g>
    </g>
</svg>