<?xml version="1.0" encoding="UTF-8"?>
<svg width="83px" height="50px" viewBox="0 0 83 50" version="1.1" xmlns="http://www.w3.org/2000/svg" xmlns:xlink="http://www.w3.org/1999/xlink">
    <!-- Generator: Sketch 46.2 (44496) - http://www.bohemiancoding.com/sketch -->
    <title>Project_lead</title>
    <desc>Created with Sketch.</desc>
    <defs></defs>
    <g id="Desktop" stroke="none" stroke-width="1" fill="none" fill-rule="evenodd">
        <g id="Project_lead">
            <g id="Group-10" transform="translate(3.000000, 2.000000)">
                <g id="Group-9">
                    <path d="M22.58097,21.0289692 C20.7393418,21.0289692 19.2289416,19.5278435 19.2289416,17.6835654 C19.2289416,15.8392873 20.7393418,14.3381615 22.58097,14.3381615 C24.4225983,14.3381615 25.9197493,15.8392873 25.9197493,17.6835654 C25.9197493,19.5278435 24.4225983,21.0289692 22.58097,21.0289692 Z M11.6769408,21.0289692 C9.83531257,21.0289692 8.33816154,19.5278435 8.33816154,17.6835654 C8.33816154,15.8392873 9.83531257,14.3381615 11.6769408,14.3381615 C13.5318182,14.3381615 15.0289692,15.8392873 15.0289692,17.6835654 C15.0289692,19.5278435 13.5318182,21.0289692 11.6769408,21.0289692 Z M22.58097,13 C20.2226259,13 18.2750047,14.7475595 17.9437766,17.0144846 L16.3141343,17.0144846 C15.9961553,14.7475595 14.0352849,13 11.6769408,13 C9.10661074,13 7,15.1013111 7,17.6835654 C7,20.2658197 9.10661074,22.3671308 11.6769408,22.3671308 C14.0352849,22.3671308 15.9961553,20.6195713 16.3141343,18.3526462 L17.9437766,18.3526462 C18.2750047,20.6195713 20.2226259,22.3671308 22.58097,22.3671308 C25.1645492,22.3671308 27.2579109,20.2658197 27.2579109,17.6835654 C27.2579109,15.1013111 25.1645492,13 22.58097,13 L22.58097,13 Z" id="Fill-37" fill="#75C3B7"></path>
                    <path d="M31.0029506,38.2634706 L30.9632032,38.4436587 L30.8042137,38.6264966 L30.5657295,38.696717 L30.4199891,38.6702187 L30.2742487,38.5761499 L29.4925504,37.8408235 C29.0818275,37.4367252 28.6181082,37.1306705 28.1146415,36.926634 C27.6111748,36.7212725 27.0679607,36.6179294 26.5247466,36.6179294 C25.9815325,36.6179294 25.4515675,36.7199476 24.9348517,36.926634 C24.431385,37.1333203 23.9544165,37.4433498 23.5436936,37.8527477 C23.265462,38.1336292 22.9474831,38.3429653 22.5897567,38.4834061 C22.2452795,38.6225219 21.8875531,38.6927422 21.5165776,38.6927422 C21.1456022,38.6927422 20.7878758,38.6225219 20.4433986,38.4834061 C20.0989214,38.3429653 19.7676933,38.1336292 19.4894617,37.8527477 C19.0787388,37.4433498 18.6017703,37.1319954 18.0983036,36.926634 C17.5815878,36.7212725 17.0516228,36.6179294 16.5084087,36.6179294 C15.9651946,36.6179294 15.4352297,36.7199476 14.9185138,36.926634 C14.4150471,37.1333203 13.9380786,37.4433498 13.5273558,37.8527477 C13.2491242,38.1336292 12.9178961,38.3429653 12.5734188,38.4834061 C12.2289416,38.6225219 11.8712153,38.6927422 11.5002398,38.6927422 C11.1292643,38.6927422 10.7582888,38.6225219 10.4138116,38.4834061 C10.0693344,38.3429653 9.75135539,38.1336292 9.47312378,37.8527477 C9.06240093,37.4433498 8.58543246,37.1319954 8.06871662,36.926634 C7.5652499,36.7212725 7.02203581,36.6179294 6.49207084,36.6179294 C5.94885675,36.6179294 5.40564266,36.7199476 4.90217594,36.926634 C4.39870922,37.1333203 3.92174075,37.4433498 3.5110179,37.8527477 L2.87505994,38.4794313 L2.72931958,38.5774748 L2.58357921,38.6066229 L2.27884936,38.484731 L2.17285636,38.3535646 L2.14635812,38.1747015 L2.14635812,16.7190698 C2.14635812,12.7324083 3.76275126,9.12997146 6.37282872,6.51724418 C8.98290619,3.9058418 12.586668,2.29209848 16.5746543,2.29209848 C20.5626407,2.29209848 24.1531534,3.9058418 26.7764799,6.51724418 C29.3865574,9.12997146 31.0029506,12.7324083 31.0029506,16.7190698 L31.0029506,38.2634706 Z M28.2868801,4.85447909 C25.292578,1.8562023 21.1456022,0 16.5746543,0 C11.9904574,0 7.84348151,1.8562023 4.84917945,4.85447909 C1.85487738,7.85143098 0,11.9997318 0,16.5746543 L0,39.1153893 C0,39.3869963 0.0529964967,39.649329 0.15898949,39.8798637 C0.304729856,40.2283157 0.569712339,40.5065473 0.861193071,40.6946849 C1.16592293,40.8841474 1.51040016,40.9874905 1.86812651,40.9874905 C2.10661074,40.9874905 2.34509498,40.9450933 2.57033009,40.8536744 C2.7955652,40.7622554 3.00755119,40.6218147 3.19303892,40.4389768 L3.84224601,39.7804953 C4.14697586,39.4850398 4.47820397,39.2651044 4.84917945,39.1180391 C5.2069058,38.9722987 5.5911304,38.8981036 5.975355,38.8981036 C6.3595796,38.8981036 6.7438042,38.9722987 7.11477968,39.1180391 C7.47250603,39.2651044 7.81698326,39.4850398 8.10846399,39.7804953 C8.53243596,40.2110918 9.03590268,40.5370203 9.57911677,40.752981 C10.1090817,40.9702667 10.6787941,41.0775846 11.2352573,41.0775846 C11.8049696,41.0775846 12.374682,40.9702667 12.9046469,40.752981 C13.4346119,40.5370203 13.9380786,40.2110918 14.3752997,39.7804953 C14.6667805,39.4850398 15.0112577,39.2651044 15.368984,39.1180391 C15.7267104,38.9722987 16.110935,38.8981036 16.5084087,38.8981036 C16.8926333,38.8981036 17.2768579,38.9722987 17.6345843,39.1180391 C17.9923106,39.2651044 18.3367878,39.4850398 18.6282686,39.7804953 C19.0654897,40.2110918 19.5689564,40.5370203 20.0989214,40.752981 C20.6288863,40.9702667 21.1985987,41.0775846 21.768311,41.0775846 C22.3380233,41.0775846 22.8944866,40.9702667 23.4377007,40.752981 C23.9676656,40.5370203 24.4711323,40.2110918 24.8951043,39.7804953 C25.1998342,39.4850398 25.5310623,39.2651044 25.8887886,39.1180391 C26.2597641,38.9722987 26.6439887,38.8981036 27.0282133,38.8981036 C27.4124379,38.8981036 27.7966625,38.9722987 28.167638,39.1180391 C28.5253643,39.2651044 28.8698416,39.4850398 29.1613223,39.7804953 L29.1745714,39.7937444 L29.982768,40.5661684 C30.1682557,40.738407 30.3802417,40.8695733 30.5922277,40.9556926 C30.8174628,41.0418119 31.0426979,41.0828842 31.267933,41.0828842 C31.7449015,41.0815593 32.2086209,40.8973965 32.5530981,40.571468 C32.7385858,40.4071789 32.8843262,40.2044673 32.9903192,39.9739325 C33.083063,39.7420729 33.1493087,39.4810651 33.1493087,39.210783 L33.1493087,16.5746543 C33.1493087,11.9997318 31.2944313,7.85143098 28.2868801,4.85447909 L28.2868801,4.85447909 Z" id="Fill-38" fill="#FFFFFE"></path>
                    <path d="M17.4447355,26.7259288 C16.6895355,26.7259288 15.9475845,26.5232172 15.2983774,26.1389926 C15.0068967,25.966754 14.9141528,25.5904789 15.0863914,25.3003231 C15.2586301,25.0088424 15.6428547,24.9134487 15.9210863,25.0856873 C16.3848056,25.3572943 16.9147706,25.5017098 17.4447355,25.5017098 C17.9747005,25.5017098 18.4781672,25.3639189 18.9286375,25.105561 C19.2201182,24.9359722 19.6043428,25.0366655 19.7633323,25.3294712 C19.9355709,25.6222768 19.842827,25.997227 19.5513463,26.1654909 C18.9153883,26.5324916 18.1866865,26.7259288 17.4447355,26.7259288" id="Fill-39" fill="#FFFFFE"></path>
                </g>
                <g id="noun_1143903_cc" transform="translate(36.000000, 23.000000)" fill-rule="nonzero" fill="#FFFFFF">
                    <g id="Group" transform="translate(21.500000, 10.500000) scale(-1, 1) translate(-21.500000, -10.500000) ">
                        <path d="M42.2710401,12.5477647 L40.6246179,12.0084706 L42.2997068,11.1915294 C42.3837957,11.1501176 42.4334846,11.0588235 42.4272735,10.9675294 C42.419629,10.8696471 42.3556068,10.7929412 42.2715179,10.7642353 L39.5878401,9.89411765 L42.1969846,8.61741176 L15.6382735,-3.55271368e-15 L0.236629025,4.55952941 L3.14486236,5.82447059 L0.170695691,6.70541176 C0.0784845801,6.73364706 0.00777346896,6.80988235 0.000606802296,6.90823529 C-0.00655986437,7.00564706 0.0502956912,7.09647059 0.142506802,7.13176471 L2.00822902,7.94258824 L0.170695691,8.48752941 C0.0784845801,8.51576471 0.00777346896,8.59905882 0.000606802296,8.69694118 C0.000606802296,8.79529412 0.0502956912,8.87952941 0.142506802,8.92094118 L26.7475624,20.4927059 C26.7838735,20.5068235 26.8120624,20.5138824 26.8474179,20.5138824 C26.8827735,20.5138824 26.9176512,20.5068235 26.9463179,20.4856471 L42.3001846,12.9736471 C42.3842735,12.9322353 42.4339624,12.848 42.4277512,12.7496471 C42.419629,12.6592941 42.355129,12.5825882 42.2710401,12.5477647 Z M31.5520957,7.17741176 C31.5778957,7.23623529 31.5506624,7.30447059 31.4909401,7.32894118 L22.7499957,11.0644706 C22.7351846,11.0705882 22.7198957,11.0743529 22.7036512,11.0743529 C22.6582624,11.0743529 22.6152624,11.048 22.596629,11.0047059 C22.5703512,10.9468235 22.5975846,10.8781176 22.6573068,10.8536471 L31.3977735,7.11811765 C31.4579735,7.09317647 31.5262957,7.11905882 31.5520957,7.17741176 Z M28.178029,6.02917647 C28.2023957,6.08847059 28.173729,6.15576471 28.1140068,6.17929412 L19.1532846,9.77129412 C19.1389512,9.77788235 19.1236624,9.78070588 19.109329,9.78070588 C19.0629846,9.78070588 19.0195068,9.75341176 19.0008735,9.70917647 C18.976029,9.64988235 19.0051735,9.58258824 19.0648957,9.55905882 L28.0246624,5.96705882 C28.0872512,5.94211765 28.1541401,5.97129412 28.178029,6.02917647 Z M25.2783957,5.00094118 C25.3022846,5.06023529 25.2721846,5.12705882 25.2115068,5.14964706 L16.3692735,8.50352941 C16.3558957,8.50964706 16.3415624,8.51247059 16.3277068,8.51247059 C16.2808846,8.51247059 16.236929,8.48423529 16.2182957,8.43905882 C16.1953624,8.37929412 16.2254624,8.312 16.2856624,8.29035294 L25.1269401,4.93552941 C25.1880957,4.91105882 25.2559401,4.94164706 25.2783957,5.00094118 Z M22.2617068,4.01552941 C22.2841624,4.07529412 22.2521512,4.14164706 22.1919512,4.16282353 L13.1308957,7.41364706 C13.1175179,7.41835294 13.1041401,7.42164706 13.0912401,7.42164706 C13.0434624,7.42164706 12.9985512,7.392 12.9813512,7.34588235 C12.9593735,7.28611765 12.9909068,7.21929412 13.0511068,7.19858824 L22.1116846,3.94729412 C22.1747512,3.92564706 22.2392512,3.95623529 22.2617068,4.01552941 Z M10.9503179,5.98917647 L19.5163957,3.06164706 C19.5775512,3.03858824 19.6444401,3.072 19.6659401,3.13270588 C19.6869624,3.19247059 19.6549512,3.25835294 19.5937957,3.27858824 L11.0272401,6.20611765 C11.0143401,6.21129412 11.0014401,6.21364706 10.9890179,6.21364706 C10.9402846,6.21364706 10.8953735,6.18352941 10.8781735,6.13552941 C10.8571512,6.07482353 10.8891624,6.00988235 10.9503179,5.98917647 Z M0.90838458,6.96423529 L3.79846236,6.10870588 L26.8440735,16.1312941 L38.9953957,10.1844706 L41.5820846,11.0235294 L39.9853512,11.8065882 L39.3823957,12.0997647 L26.8397735,18.2428235 L3.35604014,8.02588235 L2.6967068,7.73976471 L0.90838458,6.96423529 Z M26.8397735,20.0244706 L0.90838458,8.75294118 L2.66804014,8.22870588 L26.7470846,18.704 C26.7833957,18.7176471 26.8115846,18.7251765 26.8469401,18.7251765 C26.8822957,18.7251765 26.9171735,18.7176471 26.9458401,18.704 L40.0221401,12.3030588 L41.5825624,12.8131765 L26.8397735,20.0244706 Z" id="Shape"></path>
                    </g>
                </g>
            </g>
        </g>
    </g>
</svg>