<svg xmlns="http://www.w3.org/2000/svg" width="317" height="239" viewBox="0 0 317 239">
    <g fill="#D8DF21" fill-rule="nonzero" opacity=".7">
        <path d="M-7.645 101.568a67.309 67.309 0 0 1-.756-6.806 1.5 1.5 0 0 0-2.995.173c.134 2.309.397 4.679.789 7.11a1.5 1.5 0 1 0 2.962-.477zm-.743-13.643c.152-2.32.459-4.559.92-6.72a1.5 1.5 0 0 0-2.933-.627 49.734 49.734 0 0 0-.98 7.15 1.5 1.5 0 1 0 2.993.197zm2.85-13.17a39.685 39.685 0 0 1 2.982-6.052 1.5 1.5 0 0 0-2.569-1.55 42.685 42.685 0 0 0-3.207 6.508 1.5 1.5 0 1 0 2.794 1.093zm6.965-11.562a46.67 46.67 0 0 1 4.677-4.73l.13-.114a1.5 1.5 0 0 0-1.973-2.26l-.138.121a49.672 49.672 0 0 0-4.977 5.035 1.5 1.5 0 0 0 2.281 1.948zm10.238-8.847a38.167 38.167 0 0 1 6.031-3.002 1.5 1.5 0 1 0-1.095-2.793 41.167 41.167 0 0 0-6.503 3.237 1.5 1.5 0 1 0 1.567 2.558zm12.532-4.922a45.09 45.09 0 0 1 6.72-.853 1.5 1.5 0 1 0-.159-2.996c-2.47.131-4.858.435-7.167.91a1.5 1.5 0 0 0 .606 2.939zm13.52-.771c2.199.161 4.462.45 6.79.866a1.5 1.5 0 1 0 .527-2.953 68.967 68.967 0 0 0-7.098-.905 1.5 1.5 0 1 0-.22 2.992zM51.27 51.04a95.49 95.49 0 0 1 3.784 1.102 1.5 1.5 0 0 0 .897-2.863 98.489 98.489 0 0 0-3.903-1.137 1.5 1.5 0 0 0-.778 2.898zM122.298 45.034a61.756 61.756 0 0 1 3.727-5.727 1.5 1.5 0 0 0-2.415-1.78 64.743 64.743 0 0 0-3.908 6.005 1.5 1.5 0 1 0 2.596 1.502zm8.13-10.865c1.684-1.663 3.419-3.053 5.206-4.172a1.5 1.5 0 0 0-1.593-2.542c-1.978 1.239-3.885 2.766-5.72 4.58a1.5 1.5 0 1 0 2.108 2.134zm11.2-6.86c2.094-.59 4.26-.857 6.503-.802a1.5 1.5 0 0 0 .073-2.999 24.852 24.852 0 0 0-7.39.914 1.5 1.5 0 0 0 .813 2.888zm13.142.239c2.302.642 4.335 1.487 6.102 2.533A1.5 1.5 0 0 0 162.4 27.5c-2.001-1.185-4.277-2.132-6.825-2.842a1.5 1.5 0 0 0-.805 2.89zm11.004 6.75c1.31 1.648 2.314 3.551 3.013 5.719a1.5 1.5 0 0 0 2.855-.92c-.807-2.506-1.98-4.73-3.52-6.666a1.5 1.5 0 0 0-2.348 1.868zm4.157 12.233c.115 2.07.04 4.304-.223 6.7a1.5 1.5 0 1 0 2.981.328c.282-2.554.362-4.952.238-7.194a1.5 1.5 0 1 0-2.996.166zM262.038 81.497c2.384.141 4.685.333 6.904.574a1.5 1.5 0 0 0 .324-2.982 143.27 143.27 0 0 0-7.05-.586 1.5 1.5 0 1 0-.178 2.994zm13.753 1.525c2.358.403 4.605.873 6.741 1.41a1.5 1.5 0 0 0 .732-2.909 92.824 92.824 0 0 0-6.967-1.458 1.5 1.5 0 0 0-.506 2.957zm13.306 3.394a53 53 0 0 1 6.255 2.69 1.5 1.5 0 0 0 1.368-2.669 55.992 55.992 0 0 0-6.608-2.844 1.5 1.5 0 1 0-1.015 2.823zm11.996 6.238a32.325 32.325 0 0 1 4.936 4.515 1.5 1.5 0 1 0 2.249-1.986 35.322 35.322 0 0 0-5.393-4.934 1.5 1.5 0 0 0-1.792 2.405zm8.732 9.953a30.137 30.137 0 0 1 2.48 6.192 1.5 1.5 0 0 0 2.89-.808 33.135 33.135 0 0 0-2.728-6.806 1.5 1.5 0 0 0-2.642 1.422zm3.66 12.836c.186 2.155.21 4.416.07 6.782a1.5 1.5 0 1 0 2.995.177 49.78 49.78 0 0 0-.076-7.217 1.5 1.5 0 0 0-2.989.258zm-.737 13.62c-.4 2.32-.902 4.546-1.503 6.68a1.5 1.5 0 0 0 2.887.813 68.894 68.894 0 0 0 1.572-6.984 1.5 1.5 0 1 0-2.956-.51zm-3.734 13.116a48.909 48.909 0 0 1-3.039 6.078 1.5 1.5 0 1 0 2.582 1.528 51.907 51.907 0 0 0 3.225-6.45 1.5 1.5 0 0 0-2.768-1.156zm-6.921 11.622a40.54 40.54 0 0 1-4.71 4.835 1.5 1.5 0 0 0 1.965 2.266 43.54 43.54 0 0 0 5.06-5.192 1.5 1.5 0 0 0-2.315-1.91zm-10.2 8.826a40.198 40.198 0 0 1-6.05 2.984 1.5 1.5 0 1 0 1.097 2.792 43.198 43.198 0 0 0 6.502-3.207 1.5 1.5 0 0 0-1.549-2.569zm-12.507 4.938a44.672 44.672 0 0 1-6.709.931 1.5 1.5 0 1 0 .188 2.994 47.672 47.672 0 0 0 7.16-.994 1.5 1.5 0 0 0-.639-2.931zm-13.499.863a48.446 48.446 0 0 1-6.71-1.03 1.5 1.5 0 0 0-.662 2.926c2.35.53 4.734.897 7.127 1.093a1.5 1.5 0 1 0 .245-2.99zm-13.269-3.007a46.966 46.966 0 0 1-6.15-2.862 1.5 1.5 0 1 0-1.46 2.62 49.966 49.966 0 0 0 6.543 3.045 1.5 1.5 0 1 0 1.067-2.803zm-11.813-6.608a42.263 42.263 0 0 1-.845-.677 1.5 1.5 0 1 0-1.905 2.318c.298.245.6.487.905.724a1.5 1.5 0 0 0 1.845-2.365zM199.124 164.874c-.198 2.35-.455 4.64-.77 6.87a1.5 1.5 0 1 0 2.97.42c.323-2.286.587-4.632.79-7.038a1.5 1.5 0 1 0-2.99-.252zm-1.953 13.682a93.311 93.311 0 0 1-1.643 6.688 1.5 1.5 0 0 0 2.884.825 96.31 96.31 0 0 0 1.696-6.903 1.5 1.5 0 0 0-2.937-.61zm-3.81 13.224a71.934 71.934 0 0 1-2.734 6.29 1.5 1.5 0 1 0 2.69 1.329 74.932 74.932 0 0 0 2.848-6.553 1.5 1.5 0 1 0-2.804-1.066zm-6.073 12.253a59.866 59.866 0 0 1-3.972 5.556 1.5 1.5 0 0 0 2.336 1.882 62.865 62.865 0 0 0 4.17-5.833 1.5 1.5 0 1 0-2.534-1.605zm-8.587 10.633a57.61 57.61 0 0 1-5.158 4.467 1.5 1.5 0 0 0 1.827 2.38 60.61 60.61 0 0 0 5.426-4.7 1.5 1.5 0 1 0-2.095-2.147zm-10.772 8.29a65.263 65.263 0 0 1-6.041 3.213 1.5 1.5 0 1 0 1.27 2.718 68.262 68.262 0 0 0 6.319-3.36 1.5 1.5 0 0 0-1.548-2.57zm-12.408 5.823a82.523 82.523 0 0 1-6.568 2.031 1.5 1.5 0 1 0 .77 2.9 85.52 85.52 0 0 0 6.806-2.106 1.5 1.5 0 0 0-1.008-2.825zm-13.332 3.571c-2.338.468-4.614.874-6.83 1.22a1.5 1.5 0 0 0 .462 2.964c2.26-.353 4.577-.766 6.957-1.242a1.5 1.5 0 0 0-.589-2.942zm-13.694 2.12c-2.373.25-4.669.422-6.89.519a1.5 1.5 0 0 0 .13 2.997c2.283-.1 4.64-.276 7.073-.531a1.5 1.5 0 0 0-.313-2.984zm-13.787.571a75.548 75.548 0 0 1-6.847-.512 1.5 1.5 0 0 0-.364 2.978c2.28.279 4.651.457 7.118.533a1.5 1.5 0 1 0 .093-2.999zm-13.572-1.703a51.422 51.422 0 0 1-6.505-1.989 1.5 1.5 0 1 0-1.07 2.803 54.42 54.42 0 0 0 6.884 2.106 1.5 1.5 0 1 0 .69-2.92zm-12.657-4.877a42.884 42.884 0 0 1-5.605-3.786 1.5 1.5 0 0 0-1.87 2.346A45.883 45.883 0 0 0 87 231.07a1.5 1.5 0 0 0 1.479-2.61zm-10.554-8.386a53.092 53.092 0 0 1-4.294-5.283 1.5 1.5 0 0 0-2.44 1.745 56.084 56.084 0 0 0 4.537 5.58 1.5 1.5 0 0 0 2.197-2.042zm-7.995-11.083a93.138 93.138 0 0 1-2.579-4.843 1.5 1.5 0 1 0-2.686 1.335 96.121 96.121 0 0 0 2.661 5 1.5 1.5 0 0 0 2.604-1.492z"/>
        <path d="M68.717 211.292c-2.135 1.038-4.228 1.842-6.28 2.413a1.5 1.5 0 0 0 .803 2.89c2.232-.62 4.496-1.49 6.79-2.606a1.5 1.5 0 0 0-1.313-2.697zm-12.841 3.448a24.13 24.13 0 0 1-6.558-.676 1.5 1.5 0 0 0-.713 2.913 27.13 27.13 0 0 0 7.369.762 1.5 1.5 0 0 0-.098-2.999zm-12.727-3.075c-1.875-1.01-3.72-2.269-5.534-3.778a1.5 1.5 0 0 0-1.919 2.306c1.965 1.635 3.975 3.006 6.03 4.113a1.5 1.5 0 0 0 1.423-2.641zm-10.376-8.543c-1.552-1.833-2.757-3.674-3.621-5.522a1.5 1.5 0 1 0-2.718 1.27c.981 2.099 2.332 4.162 4.049 6.19a1.5 1.5 0 1 0 2.29-1.938zm-5.244-11.715c-.127-2.09.164-4.213.877-6.374a1.5 1.5 0 0 0-2.849-.94c-.83 2.516-1.172 5.017-1.023 7.495a1.5 1.5 0 1 0 2.995-.18zM40.613 47.68a53.524 53.524 0 0 1-.01-6.81 1.5 1.5 0 0 0-2.993-.193 56.517 56.517 0 0 0 .01 7.19 1.5 1.5 0 1 0 2.993-.187zm.944-13.504a35.485 35.485 0 0 1 2.088-6.382 1.5 1.5 0 0 0-2.747-1.205 38.483 38.483 0 0 0-2.266 6.921 1.5 1.5 0 1 0 2.925.666zm5.385-12.207a34.034 34.034 0 0 1 4.411-5.048 1.5 1.5 0 1 0-2.058-2.183 37.032 37.032 0 0 0-4.798 5.493 1.5 1.5 0 0 0 2.445 1.738zm9.762-9.264a49.454 49.454 0 0 1 5.92-3.335 1.5 1.5 0 0 0-1.297-2.705 52.447 52.447 0 0 0-6.278 3.538 1.5 1.5 0 0 0 1.655 2.502zM68.88 6.792a76.308 76.308 0 0 1 3.976-1.279 55.997 55.997 0 0 1 2.59-.69 1.5 1.5 0 1 0-.703-2.917c-.9.216-1.805.458-2.728.728a79.307 79.307 0 0 0-4.133 1.329 1.5 1.5 0 0 0 .998 2.83zm13.265-3.106c2.324-.22 4.57-.243 6.742-.077a1.5 1.5 0 0 0 .23-2.991 42.396 42.396 0 0 0-7.255.081 1.5 1.5 0 1 0 .283 2.987zm13.366 1.077a33.386 33.386 0 0 1 6.244 2.435 1.5 1.5 0 0 0 1.363-2.672 36.385 36.385 0 0 0-6.803-2.653 1.5 1.5 0 0 0-.804 2.89zm11.923 6.056a41.385 41.385 0 0 1 4.971 4.573 1.5 1.5 0 0 0 2.2-2.04 44.379 44.379 0 0 0-5.332-4.903 1.5 1.5 0 0 0-1.839 2.37zm9.228 9.875a57.16 57.16 0 0 1 3.554 5.821 1.5 1.5 0 1 0 2.647-1.41 60.154 60.154 0 0 0-3.74-6.127 1.5 1.5 0 1 0-2.461 1.716zm6.42 12.015a51.13 51.13 0 0 1 1.428 4.08 1.5 1.5 0 1 0 2.873-.861 54.12 54.12 0 0 0-1.51-4.322 1.5 1.5 0 0 0-2.79 1.103zM170.3 35.685l.05-.086.176-.287c.202-.323.445-.699.732-1.12a55.453 55.453 0 0 1 2.989-3.985 1.5 1.5 0 1 0-2.321-1.901 58.439 58.439 0 0 0-3.151 4.201 38.367 38.367 0 0 0-.998 1.55l-.054.09-.015.026a1.5 1.5 0 0 0 2.591 1.512zm8.554-10.533a65.581 65.581 0 0 1 5.11-4.554 1.5 1.5 0 1 0-1.876-2.342 68.578 68.578 0 0 0-5.344 4.763 1.5 1.5 0 1 0 2.11 2.133zm10.678-8.54a59.651 59.651 0 0 1 5.96-3.33 1.5 1.5 0 0 0-1.309-2.7 62.65 62.65 0 0 0-6.26 3.498 1.5 1.5 0 0 0 1.609 2.532zm12.256-5.938a56.955 56.955 0 0 1 6.567-1.842 1.5 1.5 0 1 0-.636-2.932 59.955 59.955 0 0 0-6.912 1.939 1.5 1.5 0 0 0 .981 2.835zm13.33-2.895a61.398 61.398 0 0 1 6.828-.272 1.5 1.5 0 1 0 .045-3c-2.432-.036-4.819.06-7.161.286a1.5 1.5 0 1 0 .287 2.986zm13.694.194c2.22.264 4.476.64 6.766 1.132a1.5 1.5 0 0 0 .63-2.933 76.894 76.894 0 0 0-7.042-1.178 1.5 1.5 0 1 0-.354 2.979zm13.25 3.035a36.635 36.635 0 0 1 6.03 2.974 1.5 1.5 0 1 0 1.572-2.556 39.634 39.634 0 0 0-6.523-3.217 1.5 1.5 0 1 0-1.079 2.799zm11.405 7.05a35.598 35.598 0 0 1 4.472 5.01 1.5 1.5 0 1 0 2.414-1.781 38.597 38.597 0 0 0-4.848-5.431 1.5 1.5 0 0 0-2.038 2.202zm7.983 10.76a45.26 45.26 0 0 1 2.562 6.274 1.5 1.5 0 0 0 2.852-.929 48.256 48.256 0 0 0-2.732-6.688 1.5 1.5 0 0 0-2.682 1.344zm4.231 12.878c.41 2.213.692 4.479.844 6.773a1.5 1.5 0 1 0 2.993-.199 61.295 61.295 0 0 0-.887-7.12 1.5 1.5 0 0 0-2.95.546zm.918 13.619c-.102 2.3-.33 4.58-.677 6.8a1.5 1.5 0 1 0 2.964.464c.365-2.33.603-4.72.71-7.132a1.5 1.5 0 0 0-2.997-.132zm-2.137 13.481c-.656 2.293-1.444 4.427-2.341 6.344a1.5 1.5 0 1 0 2.718 1.271c.966-2.065 1.808-4.348 2.507-6.789a1.5 1.5 0 0 0-2.884-.826zm-5.81 11.987c-1.554 1.873-3.21 3.124-4.884 3.702a1.5 1.5 0 1 0 .98 2.836c2.239-.774 4.331-2.355 6.213-4.623a1.5 1.5 0 0 0-2.31-1.915zM196.932 188.386c1.779 1.802 3.59 3.39 5.435 4.765a1.5 1.5 0 1 0 1.791-2.406c-1.719-1.28-3.416-2.77-5.09-4.466a1.5 1.5 0 0 0-2.136 2.107zm11.689 8.538a29.42 29.42 0 0 0 7.013 2.282 1.5 1.5 0 0 0 .556-2.948 26.423 26.423 0 0 1-6.3-2.052 1.5 1.5 0 0 0-1.269 2.718zm14.39 2.685a32.131 32.131 0 0 0 7.245-1.413 1.5 1.5 0 0 0-.907-2.86 29.132 29.132 0 0 1-6.562 1.28 1.5 1.5 0 0 0 .223 2.993zm13.953-4.686a21.99 21.99 0 0 0 5.318-5.303 1.5 1.5 0 0 0-2.446-1.736 18.993 18.993 0 0 1-4.597 4.584 1.5 1.5 0 1 0 1.725 2.455zm8.653-11.892c.77-2.23 1.302-4.615 1.62-7.127a1.5 1.5 0 0 0-2.975-.378c-.294 2.316-.782 4.5-1.48 6.526a1.5 1.5 0 0 0 2.835.979zm1.968-14.393a58.68 58.68 0 0 0-.212-3.77 1.5 1.5 0 1 0-2.988.264c.104 1.183.173 2.377.201 3.577a1.5 1.5 0 1 0 3-.07zM-12.252 85.207c-2.4-.386-4.736-.707-7.01-.962a1.5 1.5 0 0 0-.334 2.981c2.225.25 4.515.564 6.868.943a1.5 1.5 0 0 0 .476-2.962zm-14.076-1.555a99.59 99.59 0 0 0-7.105-.138 1.5 1.5 0 1 0 .052 3c2.214-.04 4.51.005 6.892.134a1.5 1.5 0 0 0 .161-2.996zm-14.237.296c-2.47.266-4.83.65-7.075 1.155a1.5 1.5 0 0 0 .657 2.927 60.189 60.189 0 0 1 6.74-1.1 1.5 1.5 0 1 0-.322-2.982zm-13.987 3.218a41.162 41.162 0 0 0-6.54 3.16 1.5 1.5 0 0 0 1.546 2.572 38.166 38.166 0 0 1 6.064-2.93 1.5 1.5 0 0 0-1.07-2.802zm-12.446 7.571a35.534 35.534 0 0 0-4.834 5.482 1.5 1.5 0 0 0 2.44 1.745 32.534 32.534 0 0 1 4.427-5.02 1.5 1.5 0 1 0-2.033-2.207zm-8.457 11.717a46.92 46.92 0 0 0-2.526 6.775 1.5 1.5 0 0 0 2.881.836 43.926 43.926 0 0 1 2.363-6.343 1.5 1.5 0 1 0-2.718-1.268zm-4.093 13.839a74.219 74.219 0 0 0-.778 7.101 1.5 1.5 0 0 0 2.994.188c.15-2.375.398-4.647.746-6.814a1.5 1.5 0 1 0-2.962-.475zm-.942 14.269l.012.668a87.98 87.98 0 0 0 .365 6.438 1.5 1.5 0 1 0 2.987-.281 84.981 84.981 0 0 1-.364-6.868 1.5 1.5 0 0 0-3 .043zm1.367 14.19a69.594 69.594 0 0 0 1.674 6.958 1.5 1.5 0 0 0 2.876-.854 66.595 66.595 0 0 1-1.602-6.658 1.5 1.5 0 1 0-2.948.554zm4.103 13.727a58.793 58.793 0 0 0 3.207 6.425 1.5 1.5 0 1 0 2.596-1.502 55.794 55.794 0 0 1-3.042-6.098 1.5 1.5 0 0 0-2.76 1.175zm7.189 12.402a56.43 56.43 0 0 0 4.715 5.428 1.5 1.5 0 0 0 2.135-2.108 53.43 53.43 0 0 1-4.464-5.139 1.5 1.5 0 1 0-2.386 1.82zm10.119 10.257a62.037 62.037 0 0 0 5.883 4.104 1.5 1.5 0 1 0 1.573-2.555 59.038 59.038 0 0 1-5.599-3.905 1.5 1.5 0 0 0-1.857 2.356zm12.11 7.495a73.913 73.913 0 0 0 6.587 2.765 1.5 1.5 0 0 0 1.028-2.818 70.915 70.915 0 0 1-6.318-2.653 1.5 1.5 0 1 0-1.296 2.706zm13.42 4.919a89.605 89.605 0 0 0 6.943 1.565 1.5 1.5 0 1 0 .545-2.95 86.607 86.607 0 0 1-6.711-1.513 1.5 1.5 0 0 0-.778 2.898zm14.02 2.602c2.328.256 4.69.434 7.08.535a1.5 1.5 0 1 0 .127-2.997 102.73 102.73 0 0 1-6.88-.52 1.5 1.5 0 1 0-.328 2.982zm14.2.609c2.348-.05 4.71-.17 7.08-.362a1.5 1.5 0 0 0-.24-2.99c-2.312.187-4.614.305-6.903.352a1.5 1.5 0 1 0 .063 3zm14.103-1.134c2.336-.324 4.667-.716 6.987-1.173a1.5 1.5 0 1 0-.58-2.943c-2.265.446-4.54.828-6.82 1.145a1.5 1.5 0 0 0 .413 2.971zm13.896-2.737a124.93 124.93 0 0 0 3.108-.84 1.5 1.5 0 0 0-.82-2.885c-1.005.285-2.017.558-3.032.819a1.5 1.5 0 0 0 .744 2.906z"/>
    </g>
</svg>
