<svg xmlns="http://www.w3.org/2000/svg" width="220" height="131" viewBox="0 0 220 131">
    <g fill="#D8DF21" fill-rule="nonzero" opacity=".8">
        <path d="M40.085 56.036a37.225 37.225 0 0 1-.42-3.772.833.833 0 0 0-1.664.096c.075 1.28.22 2.593.439 3.94a.833.833 0 0 0 1.645-.264zm-.413-7.562c.085-1.285.255-2.526.512-3.724a.833.833 0 0 0-1.63-.348 27.506 27.506 0 0 0-.545 3.964.832.832 0 0 0 1.663.108zm1.584-7.3a21.976 21.976 0 0 1 1.656-3.354.83.83 0 0 0-.283-1.141.834.834 0 0 0-1.144.282 23.637 23.637 0 0 0-1.781 3.607.834.834 0 0 0 1.552.606zm3.869-6.408a25.897 25.897 0 0 1 2.598-2.621l.072-.064a.83.83 0 0 0 .08-1.173.835.835 0 0 0-1.176-.08l-.076.068a27.562 27.562 0 0 0-2.765 2.79.83.83 0 0 0 .092 1.173.835.835 0 0 0 1.175-.093zm5.688-4.903a21.223 21.223 0 0 1 3.35-1.664.83.83 0 1 0-.608-1.548 22.891 22.891 0 0 0-3.613 1.794.83.83 0 0 0-.275 1.143.834.834 0 0 0 1.146.275zm6.962-2.729c1.2-.246 2.444-.404 3.733-.472a.832.832 0 1 0-.088-1.66c-1.372.072-2.7.24-3.982.504a.831.831 0 1 0 .337 1.628zm7.51-.427c1.222.09 2.48.25 3.772.48a.832.832 0 0 0 .293-1.637 38.398 38.398 0 0 0-3.943-.501.832.832 0 0 0-.122 1.658zm7.53 1.323c.691.185 1.392.389 2.102.611a.831.831 0 1 0 .498-1.587 54.81 54.81 0 0 0-2.168-.63.831.831 0 1 0-.432 1.606zM112.57 24.66a33.342 33.342 0 0 1 2.09-3.1.794.794 0 0 0-.178-1.137.861.861 0 0 0-1.176.172 34.955 34.955 0 0 0-2.193 3.252.797.797 0 0 0 .307 1.11.858.858 0 0 0 1.15-.297zm4.56-5.883c.944-.9 1.918-1.653 2.92-2.259a.796.796 0 0 0 .266-1.12.86.86 0 0 0-1.16-.257c-1.11.671-2.179 1.498-3.208 2.48a.792.792 0 0 0-.007 1.15c.326.318.859.321 1.19.006zm6.282-3.714c1.175-.32 2.39-.465 3.648-.435.464.011.85-.343.861-.792.012-.448-.355-.82-.82-.832a14.412 14.412 0 0 0-4.146.495.809.809 0 0 0-.581 1.002.846.846 0 0 0 1.038.562zm7.372.129c1.291.347 2.431.805 3.422 1.372.4.228.916.1 1.153-.285a.797.797 0 0 0-.295-1.113c-1.123-.642-2.4-1.154-3.828-1.539a.846.846 0 0 0-1.037.564.81.81 0 0 0 .585 1zm6.172 3.655a9.594 9.594 0 0 1 1.69 3.097.848.848 0 0 0 1.06.523.807.807 0 0 0 .542-1.022 11.198 11.198 0 0 0-1.975-3.609.862.862 0 0 0-1.182-.13.793.793 0 0 0-.135 1.141zm2.332 6.624c.064 1.121.023 2.33-.125 3.628a.82.82 0 0 0 .744.896c.462.05.877-.272.928-.718a22.89 22.89 0 0 0 .133-3.896c-.025-.448-.422-.79-.886-.766-.464.025-.82.408-.794.856zM189.639 44.644c1.325.077 2.605.182 3.838.315.458.049.87-.277.92-.73a.825.825 0 0 0-.74-.906 80.734 80.734 0 0 0-3.92-.322.83.83 0 0 0-.881.773.827.827 0 0 0 .783.87zm7.647.836c1.31.221 2.56.48 3.748.774.446.11.9-.157 1.012-.598a.822.822 0 0 0-.606-.998 52.232 52.232 0 0 0-3.873-.8.833.833 0 0 0-.963.672.824.824 0 0 0 .682.95zm7.398 1.861c1.245.442 2.404.934 3.477 1.476a.84.84 0 0 0 1.123-.357.817.817 0 0 0-.362-1.107 31.36 31.36 0 0 0-3.674-1.56.837.837 0 0 0-1.067.496.82.82 0 0 0 .503 1.052zm6.669 3.421a17.885 17.885 0 0 1 2.745 2.476.842.842 0 0 0 1.177.072c.345-.3.378-.82.073-1.16a19.542 19.542 0 0 0-2.998-2.707.842.842 0 0 0-1.167.168.815.815 0 0 0 .17 1.151zm4.855 5.46a16.398 16.398 0 0 1 1.38 3.395.836.836 0 0 0 1.027.57.821.821 0 0 0 .579-1.013 18.03 18.03 0 0 0-1.517-3.733.84.84 0 0 0-1.13-.334.817.817 0 0 0-.339 1.114zm2.035 7.039c.104 1.181.117 2.421.04 3.72a.827.827 0 0 0 .782.869.83.83 0 0 0 .882-.773 26.93 26.93 0 0 0-.042-3.958.83.83 0 0 0-.903-.749.826.826 0 0 0-.759.89zm-.41 7.469a35.72 35.72 0 0 1-.835 3.663.821.821 0 0 0 .576 1.015.836.836 0 0 0 1.03-.568c.35-1.226.641-2.503.873-3.83a.824.824 0 0 0-.68-.95.833.833 0 0 0-.964.67zm-2.076 7.194a26.68 26.68 0 0 1-1.69 3.332.816.816 0 0 0 .294 1.127.84.84 0 0 0 1.142-.288 28.315 28.315 0 0 0 1.793-3.537.819.819 0 0 0-.448-1.077.838.838 0 0 0-1.09.443zm-3.848 6.373a22.377 22.377 0 0 1-2.619 2.652.815.815 0 0 0-.083 1.16.842.842 0 0 0 1.176.083 24.033 24.033 0 0 0 2.813-2.848.815.815 0 0 0-.113-1.158.842.842 0 0 0-1.174.111zm-5.67 4.84a22.478 22.478 0 0 1-3.365 1.637.82.82 0 0 0-.471 1.067.838.838 0 0 0 1.081.464 24.155 24.155 0 0 0 3.615-1.758.816.816 0 0 0 .284-1.13.84.84 0 0 0-1.145-.28zm-6.955 2.709a25.16 25.16 0 0 1-3.73.51.827.827 0 0 0-.78.873.83.83 0 0 0 .885.77 26.85 26.85 0 0 0 3.98-.546.823.823 0 0 0 .638-.979.834.834 0 0 0-.993-.628zm-7.505.473c-1.253-.102-2.5-.29-3.731-.565a.834.834 0 0 0-.997.621.822.822 0 0 0 .63.984 28.97 28.97 0 0 0 3.961.6.83.83 0 0 0 .9-.753.826.826 0 0 0-.763-.887zm-7.378-1.65a26.282 26.282 0 0 1-3.42-1.569.84.84 0 0 0-1.134.318.817.817 0 0 0 .323 1.12 27.96 27.96 0 0 0 3.638 1.67.838.838 0 0 0 1.076-.477.82.82 0 0 0-.483-1.061zm-6.568-3.623a23.444 23.444 0 0 1-.47-.371.842.842 0 0 0-1.173.113.815.815 0 0 0 .115 1.158c.165.134.333.267.503.397a.842.842 0 0 0 1.17-.143.815.815 0 0 0-.145-1.154zM154.346 90.756a67.524 67.524 0 0 1-.426 3.779.828.828 0 1 0 1.64.23c.18-1.257.325-2.547.437-3.87a.826.826 0 0 0-.756-.892.827.827 0 0 0-.895.753zm-1.079 7.525a51.152 51.152 0 0 1-.907 3.679.829.829 0 0 0 1.593.454c.352-1.226.664-2.492.936-3.797a.828.828 0 0 0-1.622-.336zm-2.104 7.274a39.482 39.482 0 0 1-1.51 3.46.824.824 0 0 0 .376 1.105.83.83 0 0 0 1.11-.374 41.128 41.128 0 0 0 1.573-3.605.824.824 0 0 0-.48-1.064.83.83 0 0 0-1.069.478zm-3.354 6.74a32.931 32.931 0 0 1-2.194 3.055.823.823 0 0 0 .126 1.16.83.83 0 0 0 1.165-.124 34.58 34.58 0 0 0 2.303-3.209.823.823 0 0 0-.257-1.138.83.83 0 0 0-1.143.256zm-4.743 5.848a31.78 31.78 0 0 1-2.848 2.457.823.823 0 0 0-.152 1.157.83.83 0 0 0 1.161.152 33.435 33.435 0 0 0 2.997-2.585.823.823 0 0 0 .014-1.166.83.83 0 0 0-1.172-.015zm-5.948 4.56a36.093 36.093 0 0 1-3.337 1.767.824.824 0 0 0-.4 1.097.83.83 0 0 0 1.102.398 37.752 37.752 0 0 0 3.49-1.848.823.823 0 0 0 .282-1.133.83.83 0 0 0-1.137-.28zm-6.853 3.203a45.712 45.712 0 0 1-3.628 1.117.825.825 0 1 0 .425 1.595 47.373 47.373 0 0 0 3.76-1.158.824.824 0 0 0 .501-1.054.83.83 0 0 0-1.058-.5zm-7.363 1.964c-1.291.257-2.549.48-3.773.671a.826.826 0 1 0 .256 1.63 92.413 92.413 0 0 0 3.842-.683.825.825 0 1 0-.325-1.618zm-7.563 1.166a62.93 62.93 0 0 1-3.806.285.826.826 0 0 0-.791.86c.02.456.406.809.863.789a64.59 64.59 0 0 0 3.907-.292.826.826 0 1 0-.173-1.642zm-7.615.314a41.89 41.89 0 0 1-3.78-.281.826.826 0 0 0-.201 1.638c1.258.153 2.568.25 3.93.293a.827.827 0 0 0 .854-.8.826.826 0 0 0-.803-.85zm-7.495-.936a28.485 28.485 0 0 1-3.592-1.095.83.83 0 0 0-1.07.477.824.824 0 0 0 .479 1.065c1.204.458 2.47.844 3.801 1.158a.825.825 0 1 0 .382-1.606zm-6.99-2.683a23.69 23.69 0 0 1-3.095-2.083.83.83 0 0 0-1.165.131.823.823 0 0 0 .132 1.16 25.347 25.347 0 0 0 3.311 2.228.83.83 0 0 0 1.13-.312.823.823 0 0 0-.313-1.124zm-5.829-4.613a29.226 29.226 0 0 1-2.371-2.906.83.83 0 0 0-1.156-.19.823.823 0 0 0-.192 1.15c.79 1.101 1.622 2.123 2.506 3.07a.83.83 0 0 0 1.17.042.823.823 0 0 0 .043-1.166zm-4.416-6.096a51.16 51.16 0 0 1-1.424-2.664.83.83 0 0 0-1.11-.371.824.824 0 0 0-.373 1.106c.483.967.97 1.88 1.47 2.75a.83.83 0 0 0 1.13.305.823.823 0 0 0 .307-1.126zM82.79 116.461a21.077 21.077 0 0 1-3.52 1.322.82.82 0 0 0-.585 1.011.844.844 0 0 0 1.035.572c1.252-.34 2.52-.816 3.807-1.428a.813.813 0 0 0 .388-1.098.85.85 0 0 0-1.124-.379zm-7.199 1.889a13.837 13.837 0 0 1-3.676-.371.842.842 0 0 0-1.017.603.82.82 0 0 0 .617.993c1.35.323 2.727.462 4.131.417a.83.83 0 0 0 .813-.848.833.833 0 0 0-.868-.794zm-7.135-1.685a18.817 18.817 0 0 1-3.103-2.069.855.855 0 0 0-1.184.106.809.809 0 0 0 .108 1.157 20.496 20.496 0 0 0 3.382 2.253.851.851 0 0 0 1.139-.334.812.812 0 0 0-.342-1.113zm-5.818-4.678c-.87-1.004-1.545-2.012-2.03-3.025a.85.85 0 0 0-1.118-.396.814.814 0 0 0-.406 1.092c.55 1.15 1.308 2.28 2.27 3.39.3.347.831.39 1.186.097a.808.808 0 0 0 .098-1.158zm-2.94-6.416c-.07-1.146.092-2.308.492-3.492a.818.818 0 0 0-.535-1.037.846.846 0 0 0-1.062.522c-.466 1.378-.658 2.748-.574 4.106a.834.834 0 0 0 .89.77.829.829 0 0 0 .79-.87z"/>
        <path d="M66.73 26.118a29.507 29.507 0 0 1-.005-3.77.832.832 0 0 0-.778-.882.833.833 0 0 0-.886.775 31.157 31.157 0 0 0 .005 3.98.833.833 0 0 0 .885.777.832.832 0 0 0 .78-.88zm.525-7.476c.284-1.242.671-2.42 1.161-3.533a.829.829 0 0 0-.429-1.094.835.835 0 0 0-1.098.427 21.241 21.241 0 0 0-1.26 3.832.834.834 0 0 0 1.626.369zm2.994-6.757A18.864 18.864 0 0 1 72.7 9.09a.828.828 0 0 0 .035-1.174.836.836 0 0 0-1.18-.034 20.526 20.526 0 0 0-2.666 3.04.828.828 0 0 0 .196 1.159.836.836 0 0 0 1.163-.196zm5.426-5.129a27.522 27.522 0 0 1 3.29-1.846.829.829 0 0 0 .392-1.107.835.835 0 0 0-1.112-.39 29.188 29.188 0 0 0-3.49 1.958.828.828 0 0 0-.236 1.15.836.836 0 0 0 1.156.235zm6.769-3.273c.712-.25 1.45-.486 2.21-.708.488-.142.966-.269 1.44-.382a.83.83 0 1 0-.391-1.615c-.5.12-1.003.254-1.517.403-.79.23-1.555.475-2.297.736a.83.83 0 0 0-.509 1.06c.153.432.63.659 1.064.506zm7.374-1.72a21.991 21.991 0 0 1 3.747-.042c.46.035.86-.307.896-.764a.831.831 0 0 0-.768-.892 23.664 23.664 0 0 0-4.032.045.831.831 0 1 0 .157 1.654zm7.43.597c1.208.335 2.364.786 3.47 1.348a.835.835 0 0 0 1.122-.363.829.829 0 0 0-.364-1.117A20.276 20.276 0 0 0 97.695.76a.83.83 0 1 0-.447 1.6zm6.627 3.352a22.97 22.97 0 0 1 2.764 2.532.836.836 0 0 0 1.178.044.828.828 0 0 0 .045-1.173 24.631 24.631 0 0 0-2.964-2.715.836.836 0 0 0-1.17.147.828.828 0 0 0 .147 1.165zm5.13 5.467a31.619 31.619 0 0 1 1.975 3.222.836.836 0 0 0 1.128.343.829.829 0 0 0 .344-1.124 33.275 33.275 0 0 0-2.08-3.391.836.836 0 0 0-1.16-.206.828.828 0 0 0-.207 1.156zm3.569 6.651c.316.797.584 1.563.793 2.259a.834.834 0 0 0 1.598-.477 29.877 29.877 0 0 0-.84-2.393.835.835 0 0 0-1.082-.466.83.83 0 0 0-.469 1.077zM138.535 19.303l.028-.047.097-.16c.11-.18.244-.387.401-.622.452-.674.999-1.419 1.64-2.21a.839.839 0 0 0-.115-1.172.816.816 0 0 0-1.158.117 32.4 32.4 0 0 0-1.729 2.331 21.316 21.316 0 0 0-.547.86l-.03.05-.008.014a.84.84 0 0 0 .298 1.144.818.818 0 0 0 1.123-.305zm4.693-5.844a36.11 36.11 0 0 1 2.802-2.527.839.839 0 0 0 .128-1.17.816.816 0 0 0-1.156-.13 37.761 37.761 0 0 0-2.932 2.643.84.84 0 0 0-.006 1.177c.32.327.84.33 1.164.007zm5.856-4.739a32.613 32.613 0 0 1 3.27-1.847c.409-.2.58-.699.381-1.112a.819.819 0 0 0-1.1-.386 34.252 34.252 0 0 0-3.433 1.94.838.838 0 0 0-.253 1.15.817.817 0 0 0 1.135.255zm6.723-3.295a30.96 30.96 0 0 1 3.602-1.021.832.832 0 0 0 .63-.99.823.823 0 0 0-.979-.637c-1.296.284-2.56.644-3.791 1.076a.835.835 0 0 0-.509 1.058.82.82 0 0 0 1.047.514zm7.311-1.606c1.224-.119 2.472-.17 3.745-.15a.827.827 0 0 0 .836-.82.828.828 0 0 0-.81-.845 34.919 34.919 0 0 0-3.929.158.83.83 0 0 0-.74.909.825.825 0 0 0 .898.748zm7.511.108c1.218.147 2.455.356 3.712.628a.823.823 0 0 0 .977-.639.832.832 0 0 0-.632-.988 41.732 41.732 0 0 0-3.862-.654.825.825 0 0 0-.914.728.83.83 0 0 0 .72.925zm7.268 1.684a20 20 0 0 1 3.308 1.65.817.817 0 0 0 1.132-.273.838.838 0 0 0-.27-1.145 21.638 21.638 0 0 0-3.578-1.785.82.82 0 0 0-1.064.477.835.835 0 0 0 .472 1.076zm6.256 3.912c.898.84 1.716 1.77 2.452 2.78.27.37.785.448 1.15.175a.839.839 0 0 0 .175-1.164 21.337 21.337 0 0 0-2.66-3.013.816.816 0 0 0-1.162.045.84.84 0 0 0 .045 1.177zm4.378 5.97a25.28 25.28 0 0 1 1.405 3.481.82.82 0 0 0 1.037.534.834.834 0 0 0 .528-1.049 26.953 26.953 0 0 0-1.498-3.711.818.818 0 0 0-1.104-.371.837.837 0 0 0-.368 1.117zm2.321 7.146c.225 1.228.38 2.485.463 3.757.03.46.422.806.875.776a.83.83 0 0 0 .767-.886 34.386 34.386 0 0 0-.487-3.95.823.823 0 0 0-.959-.667.832.832 0 0 0-.659.97zm.503 7.556a34.651 34.651 0 0 1-.37 3.774c-.07.454.236.88.685.95.45.072.87-.239.94-.693.2-1.294.33-2.62.39-3.958a.829.829 0 0 0-.786-.868.827.827 0 0 0-.859.795zm-1.172 7.48a23.997 23.997 0 0 1-1.284 3.52.836.836 0 0 0 .397 1.107.819.819 0 0 0 1.094-.401c.53-1.146.992-2.413 1.375-3.767a.834.834 0 0 0-.564-1.03.821.821 0 0 0-1.018.572zm-3.187 6.651c-.852 1.04-1.76 1.734-2.678 2.055a.835.835 0 0 0-.51 1.058.82.82 0 0 0 1.047.515c1.228-.43 2.376-1.306 3.408-2.565a.839.839 0 0 0-.108-1.172.816.816 0 0 0-1.159.11zM153.237 103.782a26.185 26.185 0 0 0 2.978 2.639.817.817 0 0 0 1.15-.17.836.836 0 0 0-.167-1.163 24.542 24.542 0 0 1-2.79-2.473.816.816 0 0 0-1.163-.008.837.837 0 0 0-.008 1.175zm6.407 4.729a16.008 16.008 0 0 0 3.843 1.263.823.823 0 0 0 .96-.662.83.83 0 0 0-.655-.97 14.377 14.377 0 0 1-3.453-1.137.819.819 0 0 0-1.092.401.834.834 0 0 0 .397 1.105zm7.886 1.487a17.448 17.448 0 0 0 3.972-.783.832.832 0 0 0 .535-1.043.82.82 0 0 0-1.033-.54 15.819 15.819 0 0 1-3.597.71.828.828 0 0 0-.758.89c.034.457.429.8.881.766zm7.648-2.596a12.116 12.116 0 0 0 2.915-2.936.836.836 0 0 0-.194-1.159.817.817 0 0 0-1.147.197 10.464 10.464 0 0 1-2.519 2.539.836.836 0 0 0-.2 1.157.817.817 0 0 0 1.145.202zm4.743-6.586c.422-1.235.714-2.556.888-3.947a.829.829 0 0 0-.712-.928.824.824 0 0 0-.919.72 18.176 18.176 0 0 1-.811 3.613.833.833 0 0 0 .509 1.056.82.82 0 0 0 1.045-.514zm1.079-7.97a32.832 32.832 0 0 0-.117-2.088.825.825 0 0 0-.89-.755.828.828 0 0 0-.747.9c.057.656.094 1.318.11 1.982.01.458.387.822.841.81a.827.827 0 0 0 .803-.85zM37.657 46.946a81.5 81.5 0 0 0-3.868-.533.829.829 0 0 0-.915.734.83.83 0 0 0 .73.919c1.228.138 2.492.312 3.79.522a.831.831 0 1 0 .263-1.642zm-7.768-.862a54.715 54.715 0 0 0-3.921-.076.83.83 0 0 0-.813.846.83.83 0 0 0 .842.816 53.07 53.07 0 0 1 3.803.075.83.83 0 0 0 .871-.786.83.83 0 0 0-.782-.875zm-7.856.164c-1.364.148-2.666.361-3.905.64a.832.832 0 0 0 .363 1.623 33.08 33.08 0 0 1 3.719-.61.83.83 0 0 0 .734-.915.829.829 0 0 0-.911-.738zm-7.72 1.784a22.672 22.672 0 0 0-3.608 1.752.834.834 0 0 0-.283 1.141.826.826 0 0 0 1.136.285 21.022 21.022 0 0 1 3.346-1.624.833.833 0 0 0 .478-1.073.827.827 0 0 0-1.068-.48zM7.447 52.23a19.67 19.67 0 0 0-2.668 3.038.834.834 0 0 0 .192 1.16.825.825 0 0 0 1.154-.192 18.009 18.009 0 0 1 2.443-2.783.834.834 0 0 0 .048-1.175.825.825 0 0 0-1.17-.048zm-4.668 6.495a26.081 26.081 0 0 0-1.394 3.755.827.827 0 1 0 1.59.463c.362-1.25.796-2.422 1.304-3.515a.833.833 0 0 0-.4-1.105.826.826 0 0 0-1.1.402zM.52 66.394a41.317 41.317 0 0 0-.429 3.937.83.83 0 0 0 .775.882.83.83 0 0 0 .878-.778 39.65 39.65 0 0 1 .411-3.777.828.828 0 0 0-1.635-.263zM0 74.305l.007.37c.025 1.218.092 2.407.2 3.57a.829.829 0 1 0 1.65-.157 47.314 47.314 0 0 1-.202-3.807.83.83 0 0 0-.84-.82.83.83 0 0 0-.815.844zm.754 7.866a38.72 38.72 0 0 0 .924 3.856.827.827 0 1 0 1.587-.473 37.052 37.052 0 0 1-.884-3.69.828.828 0 1 0-1.627.307zm2.265 7.609a32.648 32.648 0 0 0 1.769 3.561.826.826 0 0 0 1.131.304.833.833 0 0 0 .302-1.136 30.982 30.982 0 0 1-1.679-3.38.826.826 0 0 0-1.086-.44.833.833 0 0 0-.437 1.09zm3.967 6.874a31.24 31.24 0 0 0 2.602 3.009.825.825 0 0 0 1.17.008.834.834 0 0 0 .008-1.176 29.579 29.579 0 0 1-2.464-2.849.825.825 0 0 0-1.16-.157.834.834 0 0 0-.156 1.165zm5.584 5.686a34.233 34.233 0 0 0 3.246 2.275c.39.24.9.119 1.139-.272a.834.834 0 0 0-.27-1.144 32.578 32.578 0 0 1-3.09-2.165.825.825 0 0 0-1.163.138.834.834 0 0 0 .138 1.168zm6.683 4.154a40.69 40.69 0 0 0 3.635 1.533.827.827 0 0 0 1.061-.496.832.832 0 0 0-.494-1.066 39.04 39.04 0 0 1-3.487-1.47.826.826 0 0 0-1.104.39.833.833 0 0 0 .39 1.11zm7.405 2.727c1.249.336 2.527.625 3.832.867a.831.831 0 1 0 .3-1.635 47.613 47.613 0 0 1-3.703-.838.832.832 0 0 0-.429 1.606zm7.737 1.442c1.285.142 2.589.24 3.908.297a.83.83 0 0 0 .862-.796.83.83 0 0 0-.793-.866 56.444 56.444 0 0 1-3.796-.288.829.829 0 0 0-.913.736.83.83 0 0 0 .732.917zm7.837.338c1.296-.027 2.6-.094 3.907-.2a.83.83 0 0 0 .759-.896.829.829 0 0 0-.892-.762 63.583 63.583 0 0 1-3.809.195.83.83 0 0 0-.81.849.83.83 0 0 0 .845.814zm7.783-.628a68.987 68.987 0 0 0 3.855-.65.831.831 0 0 0-.32-1.632c-1.25.247-2.505.459-3.763.634a.83.83 0 0 0 .228 1.648zm7.668-1.518a68.699 68.699 0 0 0 1.715-.465.832.832 0 0 0-.452-1.6c-.555.159-1.113.31-1.674.454a.832.832 0 0 0 .411 1.611z"/>
    </g>
</svg>
