<svg xmlns="http://www.w3.org/2000/svg" width="84" height="128" viewBox="0 0 84 128">
    <g fill="#D8DF21" fill-rule="nonzero">
        <path d="M45.36 54.916a41.644 41.644 0 0 1-.476-4.244.94.94 0 0 0-.996-.88.938.938 0 0 0-.886.988c.084 1.44.25 2.917.495 4.433a.942.942 0 0 0 1.081.775.936.936 0 0 0 .781-1.072zm-.468-8.507a28.92 28.92 0 0 1 .58-4.19.935.935 0 0 0-.726-1.11.943.943 0 0 0-1.119.719 30.775 30.775 0 0 0-.617 4.458c-.034.516.36.961.88.995a.94.94 0 0 0 1.002-.872zm1.792-8.213a24.664 24.664 0 0 1 1.875-3.773.931.931 0 0 0-.32-1.284.947.947 0 0 0-1.295.318 26.528 26.528 0 0 0-2.016 4.057.933.933 0 0 0 .534 1.212.945.945 0 0 0 1.222-.53zm4.379-7.209a29.217 29.217 0 0 1 2.94-2.95l.081-.07a.93.93 0 0 0 .09-1.32.948.948 0 0 0-1.33-.09l-.087.076a31.096 31.096 0 0 0-3.129 3.14.93.93 0 0 0 .105 1.318.948.948 0 0 0 1.33-.104zm6.436-5.517a24.073 24.073 0 0 1 3.79-1.871.933.933 0 0 0 .535-1.212.945.945 0 0 0-1.222-.53 25.965 25.965 0 0 0-4.089 2.019.931.931 0 0 0-.31 1.286.947.947 0 0 0 1.296.308zm7.878-3.069a28.565 28.565 0 0 1 4.224-.532.938.938 0 0 0 .892-.983.94.94 0 0 0-.992-.885 30.464 30.464 0 0 0-4.505.568.936.936 0 0 0-.733 1.105.943.943 0 0 0 1.114.727zm8.499-.48c1.382.1 2.805.28 4.268.54a.942.942 0 0 0 1.094-.756.936.936 0 0 0-.762-1.086 43.692 43.692 0 0 0-4.462-.564.94.94 0 0 0-1.01.864.938.938 0 0 0 .872 1.002zm8.52 1.488c.782.208 1.575.437 2.379.687a.944.944 0 0 0 1.182-.613.934.934 0 0 0-.618-1.172 62.3 62.3 0 0 0-2.454-.709.944.944 0 0 0-1.155.66.935.935 0 0 0 .666 1.147zM93.651 123.902a22.973 22.973 0 0 1-3.927 1.53.953.953 0 0 0-.653 1.172.937.937 0 0 0 1.155.661 24.826 24.826 0 0 0 4.246-1.652c.466-.23.66-.8.433-1.272a.932.932 0 0 0-1.254-.439zm-8.03 2.187a14.89 14.89 0 0 1-4.1-.43.937.937 0 0 0-1.135.699.952.952 0 0 0 .688 1.15 16.74 16.74 0 0 0 4.608.483.946.946 0 0 0 .907-.982.944.944 0 0 0-.968-.92zm-7.959-1.95a20.947 20.947 0 0 1-3.46-2.396.93.93 0 0 0-1.321.122.96.96 0 0 0 .12 1.34 22.816 22.816 0 0 0 3.772 2.609.931.931 0 0 0 1.27-.387.958.958 0 0 0-.38-1.288zm-6.489-5.417c-.97-1.163-1.724-2.33-2.264-3.502a.933.933 0 0 0-1.247-.46.957.957 0 0 0-.452 1.265c.613 1.33 1.458 2.64 2.531 3.926a.93.93 0 0 0 1.322.111.96.96 0 0 0 .11-1.34zm-3.279-7.43c-.079-1.326.103-2.672.549-4.042a.954.954 0 0 0-.597-1.202.935.935 0 0 0-1.185.605c-.519 1.596-.733 3.182-.64 4.754a.943.943 0 0 0 .993.892.947.947 0 0 0 .88-1.007z"/>
        <path d="M75.938 21.987a34.728 34.728 0 0 1-.006-4.328.947.947 0 0 0-.871-1.013.94.94 0 0 0-.993.89 36.67 36.67 0 0 0 .006 4.57.94.94 0 0 0 .99.892.947.947 0 0 0 .874-1.011zm.588-8.583a22.888 22.888 0 0 1 1.3-4.057.961.961 0 0 0-.48-1.255.927.927 0 0 0-1.23.49 24.821 24.821 0 0 0-1.411 4.399.954.954 0 0 0 .703 1.141.934.934 0 0 0 1.118-.718zm3.353-7.758a21.505 21.505 0 0 1 2.746-3.21.967.967 0 0 0 .039-1.347.92.92 0 0 0-1.32-.04 23.4 23.4 0 0 0-2.988 3.492.966.966 0 0 0 .22 1.33.922.922 0 0 0 1.303-.225zm6.077-5.889a30.622 30.622 0 0 1 3.686-2.119.962.962 0 0 0 .438-1.272.926.926 0 0 0-1.246-.448 32.475 32.475 0 0 0-3.909 2.249.966.966 0 0 0-.263 1.32c.284.44.864.56 1.294.27zM93.537-4a46.813 46.813 0 0 1 2.476-.813 34.294 34.294 0 0 1 1.612-.439.955.955 0 0 0 .689-1.15.933.933 0 0 0-1.127-.703c-.56.137-1.123.29-1.698.462-.885.264-1.743.546-2.573.845a.959.959 0 0 0-.57 1.216.93.93 0 0 0 1.191.582zm8.259-1.974a24.029 24.029 0 0 1 4.197-.049.94.94 0 0 0 1.003-.877.947.947 0 0 0-.86-1.024 25.857 25.857 0 0 0-4.516.052.948.948 0 0 0-.842 1.039.94.94 0 0 0 1.018.859zm8.322.685c1.353.384 2.648.902 3.886 1.547a.925.925 0 0 0 1.257-.416.963.963 0 0 0-.408-1.282 22.377 22.377 0 0 0-4.235-1.686.932.932 0 0 0-1.15.663.956.956 0 0 0 .65 1.174zm7.422 3.849a25.974 25.974 0 0 1 3.095 2.906.92.92 0 0 0 1.32.051.967.967 0 0 0 .05-1.347 27.853 27.853 0 0 0-3.32-3.117.921.921 0 0 0-1.31.169.967.967 0 0 0 .165 1.338zm5.745 6.276a36.478 36.478 0 0 1 2.213 3.7.924.924 0 0 0 1.263.393.963.963 0 0 0 .385-1.29 38.389 38.389 0 0 0-2.329-3.894.922.922 0 0 0-1.3-.236.966.966 0 0 0-.232 1.327zm3.998 7.637c.354.914.654 1.794.888 2.593a.93.93 0 0 0 1.163.64.957.957 0 0 0 .626-1.188 34.885 34.885 0 0 0-.94-2.747.928.928 0 0 0-1.212-.535.96.96 0 0 0-.525 1.237zM42.678 45.063c-1.5-.24-2.962-.44-4.384-.6a.937.937 0 0 0-1.037.825.935.935 0 0 0 .828 1.032c1.392.155 2.823.35 4.295.586a.934.934 0 0 0 .298-1.844zm-8.803-.968a62.576 62.576 0 0 0-4.445-.086.936.936 0 0 0-.921.95c.009.515.436.926.954.917a60.695 60.695 0 0 1 4.31.083.937.937 0 0 0 .988-.882.935.935 0 0 0-.886-.982zm-8.905.184c-1.545.165-3.02.405-4.425.719a.934.934 0 1 0 .411 1.822 37.805 37.805 0 0 1 4.215-.684.935.935 0 0 0 .833-1.029.937.937 0 0 0-1.034-.828zm-8.748 2.003a25.795 25.795 0 0 0-4.09 1.968.931.931 0 0 0-.32 1.281.94.94 0 0 0 1.287.32c1.17-.7 2.434-1.308 3.792-1.824a.932.932 0 0 0 .542-1.205.94.94 0 0 0-1.21-.54zm-7.784 4.714a22.153 22.153 0 0 0-3.023 3.412.931.931 0 0 0 .217 1.303.941.941 0 0 0 1.309-.217A20.283 20.283 0 0 1 9.71 52.37a.93.93 0 0 0 .054-1.32.941.941 0 0 0-1.326-.053zm-5.29 7.293a29.124 29.124 0 0 0-1.579 4.218.939.939 0 0 0 1.802.52c.41-1.403.902-2.72 1.478-3.948a.932.932 0 0 0-.454-1.24.94.94 0 0 0-1.246.45zm-2.56 8.616a45.997 45.997 0 0 0-.486 4.42.935.935 0 0 0 .878.991.937.937 0 0 0 .995-.873c.093-1.48.249-2.893.466-4.242a.938.938 0 1 0-1.853-.296zM0 75.787l.007.417a54.52 54.52 0 0 0 .229 4.008.937.937 0 0 0 1.022.842.935.935 0 0 0 .846-1.018 52.66 52.66 0 0 1-.228-4.275.936.936 0 0 0-.951-.92.936.936 0 0 0-.925.946zm.855 8.834c.28 1.49.63 2.935 1.047 4.332a.939.939 0 0 0 1.799-.531 41.298 41.298 0 0 1-1.002-4.145.938.938 0 0 0-1.844.344zm2.566 8.546a36.533 36.533 0 0 0 2.005 4 .94.94 0 0 0 1.282.34.931.931 0 0 0 .342-1.275 34.669 34.669 0 0 1-1.902-3.796.94.94 0 0 0-1.231-.494.932.932 0 0 0-.496 1.225zm4.496 7.72a35.178 35.178 0 0 0 2.95 3.38.941.941 0 0 0 1.326.008.93.93 0 0 0 .009-1.32 33.307 33.307 0 0 1-2.793-3.2.941.941 0 0 0-1.315-.176.93.93 0 0 0-.177 1.309zm6.329 6.386a38.803 38.803 0 0 0 3.679 2.555.94.94 0 0 0 1.29-.306.931.931 0 0 0-.306-1.285 36.928 36.928 0 0 1-3.502-2.43.941.941 0 0 0-1.317.154.93.93 0 0 0 .156 1.312zm7.574 4.666c1.326.632 2.7 1.206 4.12 1.721a.94.94 0 0 0 1.202-.557.933.933 0 0 0-.56-1.197 44.466 44.466 0 0 1-3.951-1.652.94.94 0 0 0-1.252.439.932.932 0 0 0 .441 1.246zM30.213 115c1.415.378 2.863.702 4.342.974a.934.934 0 0 0 .34-1.837 54.382 54.382 0 0 1-4.196-.941.933.933 0 1 0-.486 1.804zm8.768 1.62c1.457.159 2.934.27 4.429.333a.936.936 0 0 0 .976-.894.936.936 0 0 0-.897-.972 64.544 64.544 0 0 1-4.303-.324.937.937 0 0 0-1.035.826.935.935 0 0 0 .83 1.03zm8.882.379a74.6 74.6 0 0 0 4.428-.225.935.935 0 0 0 .86-1.006.937.937 0 0 0-1.011-.856c-1.445.117-2.885.19-4.316.22a.936.936 0 0 0-.919.953c.011.515.44.925.958.914zm8.82-.706a78.842 78.842 0 0 0 4.37-.73.934.934 0 1 0-.363-1.832c-1.416.277-2.84.515-4.265.712a.935.935 0 1 0 .258 1.85zm8.691-1.704c.651-.166 1.3-.34 1.944-.522a.933.933 0 1 0-.513-1.797c-.629.178-1.261.348-1.896.51a.933.933 0 1 0 .465 1.809z"/>
    </g>
</svg>
