<svg xmlns="http://www.w3.org/2000/svg" width="327" height="196" viewBox="0 0 327 196">
    <g fill="#D8DF21" fill-rule="nonzero">
        <path d="M60.073 82.584a54.498 54.498 0 0 1-.619-5.54 1.226 1.226 0 0 0-1.297-1.149 1.224 1.224 0 0 0-1.155 1.29c.11 1.88.325 3.809.646 5.788a1.227 1.227 0 0 0 1.408 1.011 1.222 1.222 0 0 0 1.017-1.4zm-.609-11.106c.125-1.888.376-3.711.754-5.47a1.228 1.228 0 0 0-2.402-.51 40.273 40.273 0 0 0-.802 5.82 1.224 1.224 0 0 0 1.145 1.299 1.226 1.226 0 0 0 1.305-1.139zm2.334-10.722a32.232 32.232 0 0 1 2.441-4.926 1.217 1.217 0 0 0-.417-1.677 1.232 1.232 0 0 0-1.686.415 34.669 34.669 0 0 0-2.625 5.298 1.219 1.219 0 0 0 .696 1.582 1.23 1.23 0 0 0 1.591-.692zm5.702-9.412a38.098 38.098 0 0 1 3.829-3.85l.106-.093c.511-.444.564-1.215.118-1.723a1.233 1.233 0 0 0-1.733-.117l-.113.098a40.548 40.548 0 0 0-4.075 4.1c-.44.512-.38 1.283.137 1.721.516.438 1.29.377 1.731-.136zm8.382-7.202a31.319 31.319 0 0 1 4.937-2.444c.632-.246.943-.954.696-1.582a1.23 1.23 0 0 0-1.592-.692A33.78 33.78 0 0 0 74.6 42.06a1.217 1.217 0 0 0-.406 1.679c.355.575 1.11.755 1.69.403zm10.26-4.007a37.114 37.114 0 0 1 5.502-.694 1.224 1.224 0 0 0 1.16-1.285 1.225 1.225 0 0 0-1.29-1.154 39.581 39.581 0 0 0-5.868.741 1.221 1.221 0 0 0-.955 1.443c.137.66.787 1.085 1.45.949zm11.068-.628c1.8.132 3.653.367 5.559.705a1.227 1.227 0 0 0 1.425-.987 1.222 1.222 0 0 0-.993-1.417 56.767 56.767 0 0 0-5.811-.736 1.226 1.226 0 0 0-1.315 1.128 1.223 1.223 0 0 0 1.135 1.307zm11.096 1.943c1.02.273 2.052.572 3.098.898a1.23 1.23 0 0 0 1.54-.8 1.22 1.22 0 0 0-.805-1.53 80.982 80.982 0 0 0-3.196-.926 1.22 1.22 0 1 0-.637 2.359zM167.302 36.834a51.181 51.181 0 0 1 3.066-4.743 1.248 1.248 0 0 0-.26-1.737 1.229 1.229 0 0 0-1.726.262 53.656 53.656 0 0 0-3.216 4.973 1.247 1.247 0 0 0 .45 1.698 1.23 1.23 0 0 0 1.686-.453zm6.69-8.998c1.384-1.378 2.811-2.529 4.281-3.455.578-.364.753-1.13.391-1.712a1.23 1.23 0 0 0-1.7-.394c-1.629 1.026-3.197 2.291-4.707 3.793a1.248 1.248 0 0 0-.01 1.757c.478.488 1.26.493 1.744.01zm9.212-5.68a17.866 17.866 0 0 1 5.35-.666 1.238 1.238 0 0 0 1.264-1.211 1.239 1.239 0 0 0-1.203-1.272c-2.09-.052-4.118.2-6.08.757a1.243 1.243 0 0 0-.853 1.532c.184.66.866 1.045 1.522.86zm10.812.196c1.894.532 3.567 1.232 5.02 2.098a1.23 1.23 0 0 0 1.69-.436 1.247 1.247 0 0 0-.433-1.701c-1.646-.982-3.518-1.766-5.614-2.354a1.233 1.233 0 0 0-1.52.863c-.183.66.2 1.346.857 1.53zm9.053 5.591c1.078 1.364 1.904 2.94 2.479 4.735.209.653.904 1.012 1.553.802.649-.211 1.005-.911.796-1.564-.665-2.075-1.63-3.917-2.896-5.52a1.229 1.229 0 0 0-1.734-.198 1.248 1.248 0 0 0-.198 1.745zm3.42 10.13c.094 1.715.033 3.565-.184 5.549a1.24 1.24 0 0 0 1.091 1.37 1.236 1.236 0 0 0 1.362-1.098c.232-2.115.297-4.101.196-5.958a1.237 1.237 0 0 0-1.3-1.172 1.24 1.24 0 0 0-1.165 1.309zM282.149 66.482c1.957.117 3.847.275 5.67.475a1.234 1.234 0 0 0 1.358-1.1 1.24 1.24 0 0 0-1.092-1.37 116.75 116.75 0 0 0-5.791-.485 1.236 1.236 0 0 0-1.303 1.167 1.238 1.238 0 0 0 1.158 1.313zm11.296 1.262c1.936.334 3.782.724 5.536 1.168.66.167 1.33-.236 1.496-.902a1.243 1.243 0 0 0-.895-1.507 75.707 75.707 0 0 0-5.722-1.207 1.233 1.233 0 0 0-1.422 1.014 1.241 1.241 0 0 0 1.007 1.434zm10.929 2.81c1.84.667 3.551 1.41 5.137 2.229a1.227 1.227 0 0 0 1.658-.54c.31-.61.07-1.358-.535-1.67a45.795 45.795 0 0 0-5.427-2.356 1.23 1.23 0 0 0-1.576.749c-.23.645.102 1.357.743 1.589zm9.852 5.166a26.631 26.631 0 0 1 4.055 3.738c.45.514 1.229.563 1.739.109a1.25 1.25 0 0 0 .108-1.753 29.1 29.1 0 0 0-4.43-4.086 1.226 1.226 0 0 0-1.724.254 1.249 1.249 0 0 0 .252 1.738zm7.173 8.241a25.071 25.071 0 0 1 2.037 5.127 1.23 1.23 0 0 0 1.518.862 1.243 1.243 0 0 0 .855-1.531 27.566 27.566 0 0 0-2.24-5.635 1.227 1.227 0 0 0-1.67-.505 1.247 1.247 0 0 0-.5 1.682zm3.006 10.629c.153 1.784.172 3.656.057 5.615a1.238 1.238 0 0 0 1.157 1.313c.68.04 1.263-.481 1.303-1.166.122-2.077.101-4.07-.062-5.976a1.235 1.235 0 0 0-1.334-1.13 1.24 1.24 0 0 0-1.121 1.344zm-.606 11.277a54.941 54.941 0 0 1-1.234 5.53c-.185.661.196 1.347.851 1.533a1.23 1.23 0 0 0 1.52-.858 57.44 57.44 0 0 0 1.292-5.783 1.241 1.241 0 0 0-1.005-1.435 1.233 1.233 0 0 0-1.424 1.013zm-3.067 10.86a40.63 40.63 0 0 1-2.495 5.033 1.248 1.248 0 0 0 .432 1.701c.586.35 1.341.155 1.688-.436a43.12 43.12 0 0 0 2.649-5.34 1.246 1.246 0 0 0-.662-1.625 1.229 1.229 0 0 0-1.612.668zm-5.684 9.623a33.444 33.444 0 0 1-3.87 4.004 1.249 1.249 0 0 0-.123 1.752 1.225 1.225 0 0 0 1.738.125 35.92 35.92 0 0 0 4.156-4.3 1.249 1.249 0 0 0-.167-1.748 1.225 1.225 0 0 0-1.734.167zm-8.378 7.309a32.909 32.909 0 0 1-4.97 2.47 1.245 1.245 0 0 0-.696 1.611c.25.638.965.952 1.598.701a35.364 35.364 0 0 0 5.34-2.655c.583-.354.77-1.118.42-1.705a1.226 1.226 0 0 0-1.692-.422zm-10.273 4.088a36.414 36.414 0 0 1-5.51.771 1.239 1.239 0 0 0-1.152 1.318 1.236 1.236 0 0 0 1.306 1.162 38.86 38.86 0 0 0 5.88-.823 1.242 1.242 0 0 0 .942-1.478 1.232 1.232 0 0 0-1.466-.95zm-11.087.715a39.494 39.494 0 0 1-5.512-.853 1.232 1.232 0 0 0-1.473.938c-.15.669.266 1.334.93 1.485 1.93.44 3.888.743 5.853.905a1.235 1.235 0 0 0 1.329-1.136 1.239 1.239 0 0 0-1.127-1.34zm-10.899-2.49a38.433 38.433 0 0 1-5.051-2.37 1.227 1.227 0 0 0-1.676.48c-.332.6-.118 1.356.476 1.69a40.887 40.887 0 0 0 5.375 2.521 1.23 1.23 0 0 0 1.59-.719 1.245 1.245 0 0 0-.714-1.602zm-9.703-5.472a34.76 34.76 0 0 1-.694-.56 1.225 1.225 0 0 0-1.734.171 1.249 1.249 0 0 0 .17 1.749c.245.202.492.402.743.6.537.421 1.31.324 1.73-.216a1.249 1.249 0 0 0-.215-1.744zM230.54 135.143c-.162 1.955-.373 3.86-.632 5.714a1.245 1.245 0 0 0 1.047 1.41 1.234 1.234 0 0 0 1.392-1.06c.266-1.902.482-3.853.649-5.854a1.243 1.243 0 0 0-1.124-1.348 1.237 1.237 0 0 0-1.331 1.138zm-1.603 11.38a78.444 78.444 0 0 1-1.35 5.563 1.25 1.25 0 0 0 .846 1.543 1.23 1.23 0 0 0 1.523-.857 80.964 80.964 0 0 0 1.393-5.741 1.247 1.247 0 0 0-.956-1.476 1.232 1.232 0 0 0-1.456.968zm-3.129 11a60.238 60.238 0 0 1-2.245 5.232 1.255 1.255 0 0 0 .56 1.67c.61.306 1.348.052 1.65-.566a62.749 62.749 0 0 0 2.338-5.45 1.253 1.253 0 0 0-.714-1.61 1.227 1.227 0 0 0-1.589.723zm-4.987 10.191a49.79 49.79 0 0 1-3.261 4.62 1.259 1.259 0 0 0 .186 1.755c.53.432 1.305.348 1.732-.189a52.284 52.284 0 0 0 3.425-4.852 1.257 1.257 0 0 0-.383-1.721 1.222 1.222 0 0 0-1.699.387zm-7.051 8.844a47.487 47.487 0 0 1-4.235 3.716 1.258 1.258 0 0 0-.227 1.75c.414.546 1.188.649 1.727.229a49.96 49.96 0 0 0 4.455-3.909 1.26 1.26 0 0 0 .022-1.764 1.22 1.22 0 0 0-1.742-.022zm-8.845 6.895a53.364 53.364 0 0 1-4.961 2.673 1.255 1.255 0 0 0-.594 1.658 1.225 1.225 0 0 0 1.637.602 55.816 55.816 0 0 0 5.189-2.795c.583-.355.77-1.122.42-1.712a1.223 1.223 0 0 0-1.691-.426zm-10.19 4.843a67.127 67.127 0 0 1-5.393 1.69 1.25 1.25 0 0 0-.874 1.526 1.23 1.23 0 0 0 1.506.886 69.566 69.566 0 0 0 5.59-1.751c.64-.232.974-.946.746-1.595a1.228 1.228 0 0 0-1.574-.756zm-10.947 2.97c-1.92.39-3.789.728-5.609 1.016a1.246 1.246 0 0 0-1.027 1.425c.105.68.735 1.146 1.407 1.04 1.855-.293 3.759-.638 5.712-1.033.668-.136 1.1-.793.967-1.469a1.232 1.232 0 0 0-1.45-.978zm-11.245 1.765c-1.948.207-3.833.35-5.658.43-.68.03-1.206.613-1.177 1.301.03.689.605 1.222 1.284 1.192 1.875-.082 3.81-.23 5.808-.442a1.244 1.244 0 0 0 1.097-1.37 1.236 1.236 0 0 0-1.354-1.111zm-11.321.474a61.26 61.26 0 0 1-5.622-.426 1.235 1.235 0 0 0-1.372 1.087 1.244 1.244 0 0 0 1.073 1.39c1.872.232 3.82.38 5.845.443.68.022 1.248-.52 1.27-1.208a1.24 1.24 0 0 0-1.194-1.286zm-11.145-1.416a41.827 41.827 0 0 1-5.34-1.655 1.227 1.227 0 0 0-1.59.72 1.253 1.253 0 0 0 .71 1.611 44.266 44.266 0 0 0 5.653 1.752 1.231 1.231 0 0 0 1.482-.927 1.248 1.248 0 0 0-.915-1.501zm-10.393-4.057a35.191 35.191 0 0 1-4.602-3.15 1.221 1.221 0 0 0-1.73.199 1.259 1.259 0 0 0 .195 1.753 37.653 37.653 0 0 0 4.923 3.37c.592.339 1.343.128 1.679-.471.335-.6.127-1.361-.465-1.7zm-8.666-6.975a44.054 44.054 0 0 1-3.527-4.394 1.222 1.222 0 0 0-1.718-.29c-.553.401-.681 1.18-.285 1.741a46.537 46.537 0 0 0 3.725 4.642 1.22 1.22 0 0 0 1.741.064c.499-.469.527-1.258.064-1.763zm-6.566-9.219a77.81 77.81 0 0 1-2.117-4.028 1.225 1.225 0 0 0-1.651-.562 1.255 1.255 0 0 0-.555 1.673 80.302 80.302 0 0 0 2.186 4.158c.338.598 1.09.805 1.68.462.591-.342.795-1.105.457-1.703z"/>
        <path d="M124.186 174.598c-1.795.869-3.555 1.54-5.281 2.017a1.253 1.253 0 0 0-.878 1.544 1.262 1.262 0 0 0 1.553.873c1.878-.519 3.781-1.245 5.71-2.179a1.25 1.25 0 0 0 .583-1.676 1.265 1.265 0 0 0-1.687-.579zm-10.8 2.883a20.411 20.411 0 0 1-5.514-.566 1.254 1.254 0 1 0-.6 2.436c2.025.493 4.091.705 6.197.636a1.257 1.257 0 0 0 1.22-1.294 1.258 1.258 0 0 0-1.302-1.212zm-10.702-2.57c-1.577-.845-3.128-1.897-4.654-3.16a1.267 1.267 0 0 0-1.776.163 1.249 1.249 0 0 0 .162 1.765c1.652 1.367 3.343 2.514 5.072 3.44.613.328 1.378.1 1.709-.51.33-.61.1-1.37-.513-1.699zm-8.727-7.142c-1.304-1.532-2.318-3.071-3.045-4.616a1.265 1.265 0 0 0-1.677-.605 1.25 1.25 0 0 0-.608 1.667c.825 1.754 1.96 3.479 3.405 5.174.45.529 1.246.595 1.777.147a1.249 1.249 0 0 0 .148-1.767zm-4.41-9.793c-.106-1.748.139-3.522.738-5.329a1.252 1.252 0 0 0-.802-1.584 1.263 1.263 0 0 0-1.594.798c-.698 2.104-.986 4.195-.86 6.266.042.691.64 1.218 1.335 1.176a1.257 1.257 0 0 0 1.183-1.327zM99.561 39.66a45.97 45.97 0 0 1-.008-5.724c.044-.695-.471-1.295-1.151-1.34a1.244 1.244 0 0 0-1.312 1.177c-.123 1.94-.12 3.954.008 6.045a1.244 1.244 0 0 0 1.309 1.18c.68-.044 1.197-.643 1.154-1.338zm.777-11.351a30.29 30.29 0 0 1 1.718-5.366 1.272 1.272 0 0 0-.635-1.66 1.224 1.224 0 0 0-1.626.648 32.849 32.849 0 0 0-1.864 5.818 1.262 1.262 0 0 0 .93 1.51 1.234 1.234 0 0 0 1.477-.95zm4.43-10.261a28.435 28.435 0 0 1 3.63-4.245 1.28 1.28 0 0 0 .05-1.782 1.216 1.216 0 0 0-1.744-.052 30.941 30.941 0 0 0-3.947 4.617 1.279 1.279 0 0 0 .29 1.759c.556.403 1.326.27 1.721-.297zm8.03-7.789a40.456 40.456 0 0 1 4.871-2.802c.615-.301.874-1.054.58-1.682a1.223 1.223 0 0 0-1.646-.593 42.905 42.905 0 0 0-5.166 2.974 1.278 1.278 0 0 0-.348 1.747c.376.581 1.141.74 1.71.356zm10.02-4.97a61.822 61.822 0 0 1 3.27-1.075c.722-.215 1.43-.408 2.13-.58a1.263 1.263 0 0 0 .911-1.522 1.233 1.233 0 0 0-1.489-.93c-.74.182-1.485.385-2.244.612-1.17.349-2.303.721-3.4 1.117-.643.232-.98.952-.753 1.609a1.227 1.227 0 0 0 1.574.77zm10.912-2.611a31.725 31.725 0 0 1 5.547-.064 1.243 1.243 0 0 0 1.325-1.161c.052-.694-.457-1.3-1.136-1.354a34.138 34.138 0 0 0-5.968.068c-.679.066-1.177.681-1.113 1.375a1.242 1.242 0 0 0 1.345 1.136zm10.997.906c1.788.508 3.5 1.193 5.136 2.046.607.317 1.35.07 1.66-.55.31-.62.069-1.38-.538-1.696a29.554 29.554 0 0 0-5.597-2.23 1.231 1.231 0 0 0-1.52.877c-.182.671.202 1.366.859 1.553zm9.809 5.09a34.335 34.335 0 0 1 4.09 3.845c.463.51 1.244.54 1.743.067.5-.474.53-1.271.066-1.782a36.819 36.819 0 0 0-4.387-4.122 1.217 1.217 0 0 0-1.731.223 1.28 1.28 0 0 0 .219 1.77zm7.591 8.301a48.254 48.254 0 0 1 2.924 4.894c.32.614 1.068.847 1.67.52.6-.328.829-1.092.508-1.706a50.781 50.781 0 0 0-3.078-5.15 1.217 1.217 0 0 0-1.718-.313 1.278 1.278 0 0 0-.306 1.755zm5.283 10.1c.468 1.21.863 2.373 1.174 3.43a1.23 1.23 0 0 0 1.536.846c.653-.2 1.023-.903.828-1.57a46.166 46.166 0 0 0-1.243-3.633 1.226 1.226 0 0 0-1.602-.709 1.27 1.27 0 0 0-.693 1.637zM207.329 28.579l.042-.07.147-.236c.168-.265.37-.573.609-.92a45.544 45.544 0 0 1 2.488-3.268c.437-.525.36-1.3-.174-1.731a1.262 1.262 0 0 0-1.758.172 47.997 47.997 0 0 0-2.623 3.447 31.426 31.426 0 0 0-.831 1.27l-.045.075-.012.02c-.351.599-.146 1.351.451 1.691a1.26 1.26 0 0 0 1.706-.45zm7.122-8.64a54.342 54.342 0 0 1 4.254-3.735c.539-.425.625-1.2.194-1.73a1.262 1.262 0 0 0-1.755-.19 56.825 56.825 0 0 0-4.45 3.906 1.218 1.218 0 0 0-.01 1.74 1.262 1.262 0 0 0 1.767.01zm8.89-7.005c1.596-.999 3.25-1.912 4.963-2.73.62-.297.88-1.033.578-1.645a1.257 1.257 0 0 0-1.668-.57c-1.8.86-3.538 1.82-5.213 2.869a1.22 1.22 0 0 0-.384 1.698 1.26 1.26 0 0 0 1.724.378zm10.204-4.87a47.975 47.975 0 0 1 5.468-1.51 1.23 1.23 0 0 0 .955-1.464 1.249 1.249 0 0 0-1.485-.942c-1.967.42-3.885.953-5.755 1.59a1.226 1.226 0 0 0-.771 1.566c.225.642.937.982 1.588.76zm11.098-2.374a51.88 51.88 0 0 1 5.685-.223 1.24 1.24 0 0 0 1.267-1.212c.01-.68-.54-1.238-1.23-1.249a54.415 54.415 0 0 0-5.962.234 1.235 1.235 0 0 0-1.123 1.343 1.244 1.244 0 0 0 1.363 1.107zm11.4.159a62.37 62.37 0 0 1 5.634.928 1.249 1.249 0 0 0 1.483-.945 1.23 1.23 0 0 0-.959-1.46 64.902 64.902 0 0 0-5.862-.967 1.245 1.245 0 0 0-1.388 1.076 1.234 1.234 0 0 0 1.093 1.368zm11.033 2.489a30.691 30.691 0 0 1 5.02 2.44 1.26 1.26 0 0 0 1.718-.404 1.22 1.22 0 0 0-.41-1.693 33.204 33.204 0 0 0-5.43-2.64 1.255 1.255 0 0 0-1.614.706 1.225 1.225 0 0 0 .716 1.59zm9.495 5.782a29.348 29.348 0 0 1 3.723 4.11c.41.547 1.191.663 1.746.26a1.218 1.218 0 0 0 .264-1.72 31.82 31.82 0 0 0-4.037-4.456 1.262 1.262 0 0 0-1.765.068 1.218 1.218 0 0 0 .069 1.738zm6.646 8.827a36.813 36.813 0 0 1 2.133 5.145c.213.646.918 1 1.574.79a1.227 1.227 0 0 0 .8-1.551 39.25 39.25 0 0 0-2.274-5.486 1.258 1.258 0 0 0-1.676-.55 1.222 1.222 0 0 0-.557 1.652zm3.523 10.563c.342 1.815.576 3.673.702 5.554.046.678.64 1.192 1.329 1.147a1.237 1.237 0 0 0 1.163-1.31 49.567 49.567 0 0 0-.738-5.84 1.248 1.248 0 0 0-1.456-.985 1.232 1.232 0 0 0-1 1.434zm.764 11.17a49.927 49.927 0 0 1-.564 5.578c-.106.672.36 1.301 1.041 1.406a1.247 1.247 0 0 0 1.427-1.026c.304-1.912.502-3.872.59-5.85a1.238 1.238 0 0 0-1.192-1.283 1.242 1.242 0 0 0-1.302 1.175zm-1.78 11.058a34.883 34.883 0 0 1-1.948 5.204 1.223 1.223 0 0 0 .602 1.635 1.257 1.257 0 0 0 1.66-.593 37.31 37.31 0 0 0 2.088-5.569 1.228 1.228 0 0 0-.857-1.521 1.252 1.252 0 0 0-1.544.844zm-4.837 9.832c-1.293 1.536-2.672 2.562-4.066 3.036a1.226 1.226 0 0 0-.772 1.565c.225.642.936.983 1.588.761 1.864-.634 3.606-1.931 5.173-3.791a1.218 1.218 0 0 0-.164-1.733 1.262 1.262 0 0 0-1.759.162zM228.355 154.673a39.278 39.278 0 0 0 4.468 3.958 1.225 1.225 0 0 0 1.726-.255 1.255 1.255 0 0 0-.253-1.744 36.814 36.814 0 0 1-4.185-3.71 1.224 1.224 0 0 0-1.744-.011 1.255 1.255 0 0 0-.012 1.762zm9.61 7.093a24.012 24.012 0 0 0 5.766 1.895 1.234 1.234 0 0 0 1.44-.993 1.245 1.245 0 0 0-.983-1.456 21.566 21.566 0 0 1-5.179-1.704 1.228 1.228 0 0 0-1.64.602 1.252 1.252 0 0 0 .596 1.656zm11.83 2.23a26.172 26.172 0 0 0 5.958-1.173 1.249 1.249 0 0 0 .802-1.565 1.23 1.23 0 0 0-1.549-.81 23.729 23.729 0 0 1-5.395 1.064c-.679.05-1.188.649-1.137 1.335.05.686.642 1.2 1.321 1.15zm11.473-3.892a18.174 18.174 0 0 0 4.371-4.405 1.254 1.254 0 0 0-.291-1.738 1.225 1.225 0 0 0-1.72.295 15.697 15.697 0 0 1-3.778 3.808 1.254 1.254 0 0 0-.3 1.736c.391.563 1.16.7 1.718.304zm7.113-9.88c.634-1.852 1.07-3.833 1.333-5.92a1.244 1.244 0 0 0-1.068-1.393 1.236 1.236 0 0 0-1.379 1.08c-.241 1.923-.642 3.738-1.217 5.42-.222.65.12 1.36.763 1.585a1.23 1.23 0 0 0 1.568-.772zM270 138.27a49.249 49.249 0 0 0-.175-3.132 1.237 1.237 0 0 0-1.336-1.132c-.679.06-1.18.665-1.12 1.35.085.984.142 1.976.165 2.972a1.239 1.239 0 0 0 1.262 1.217 1.24 1.24 0 0 0 1.204-1.275z"/>
        <path d="M55.858 69.412c-1.964-.32-3.877-.585-5.738-.796a1.23 1.23 0 0 0-1.357 1.095 1.238 1.238 0 0 0 1.083 1.371c1.822.207 3.696.467 5.622.78a1.23 1.23 0 0 0 1.407-1.028 1.24 1.24 0 0 0-1.017-1.422zm-11.522-1.286a80.674 80.674 0 0 0-5.817-.114 1.235 1.235 0 0 0-1.206 1.262c.012.685.571 1.23 1.25 1.219a78.248 78.248 0 0 1 5.64.11 1.233 1.233 0 0 0 1.293-1.172 1.236 1.236 0 0 0-1.16-1.305zm-11.654.244c-2.023.22-3.954.539-5.792.956a1.241 1.241 0 0 0-.929 1.482 1.228 1.228 0 0 0 1.467.94c1.746-.397 3.585-.7 5.517-.91a1.238 1.238 0 0 0 1.09-1.367 1.231 1.231 0 0 0-1.353-1.1zm-11.45 2.663a33.545 33.545 0 0 0-5.353 2.614 1.248 1.248 0 0 0-.42 1.703 1.22 1.22 0 0 0 1.685.424 31.103 31.103 0 0 1 4.964-2.423c.633-.244.95-.961.71-1.602a1.224 1.224 0 0 0-1.586-.716zm-10.188 6.263a29.3 29.3 0 0 0-3.957 4.534 1.25 1.25 0 0 0 .284 1.73 1.22 1.22 0 0 0 1.713-.287 26.826 26.826 0 0 1 3.624-4.152 1.25 1.25 0 0 0 .071-1.754 1.219 1.219 0 0 0-1.735-.071zm-6.923 9.691a39.071 39.071 0 0 0-2.068 5.605 1.243 1.243 0 0 0 .838 1.537 1.226 1.226 0 0 0 1.52-.846 36.578 36.578 0 0 1 1.935-5.246 1.246 1.246 0 0 0-.593-1.65 1.222 1.222 0 0 0-1.632.6zM.77 98.435a62.017 62.017 0 0 0-.637 5.874 1.236 1.236 0 0 0 1.148 1.317 1.232 1.232 0 0 0 1.303-1.161c.122-1.965.326-3.844.61-5.637a1.24 1.24 0 0 0-1.018-1.422A1.23 1.23 0 0 0 .77 98.435zM0 110.238l.009.553c.037 1.817.137 3.592.298 5.326a1.231 1.231 0 0 0 1.338 1.119 1.237 1.237 0 0 0 1.107-1.352 71.03 71.03 0 0 1-.297-5.681 1.234 1.234 0 0 0-1.246-1.223c-.678.01-1.22.573-1.21 1.258zm1.118 11.738c.368 1.98.825 3.9 1.37 5.756a1.226 1.226 0 0 0 1.526.836c.65-.195 1.021-.885.828-1.542a55.573 55.573 0 0 1-1.31-5.508 1.229 1.229 0 0 0-1.434-.99 1.24 1.24 0 0 0-.98 1.448zm3.359 11.355a48.84 48.84 0 0 0 2.624 5.315 1.22 1.22 0 0 0 1.678.453 1.248 1.248 0 0 0 .448-1.695 46.349 46.349 0 0 1-2.49-5.044 1.223 1.223 0 0 0-1.611-.656 1.246 1.246 0 0 0-.65 1.627zm5.884 10.26a46.54 46.54 0 0 0 3.86 4.489 1.219 1.219 0 0 0 1.736.012 1.25 1.25 0 0 0 .012-1.755 44.066 44.066 0 0 1-3.655-4.251 1.22 1.22 0 0 0-1.721-.235 1.25 1.25 0 0 0-.232 1.74zm8.283 8.484a50.777 50.777 0 0 0 4.816 3.395 1.22 1.22 0 0 0 1.689-.406 1.248 1.248 0 0 0-.402-1.707 48.322 48.322 0 0 1-4.582-3.231 1.22 1.22 0 0 0-1.725.206 1.25 1.25 0 0 0 .204 1.743zm9.914 6.2a60.16 60.16 0 0 0 5.391 2.287 1.224 1.224 0 0 0 1.574-.74 1.244 1.244 0 0 0-.732-1.59 57.718 57.718 0 0 1-5.172-2.196 1.222 1.222 0 0 0-1.638.584 1.247 1.247 0 0 0 .577 1.655zm10.984 4.069c1.852.501 3.748.933 5.684 1.294a1.229 1.229 0 0 0 1.43-.995 1.24 1.24 0 0 0-.984-1.445 70.264 70.264 0 0 1-5.494-1.251 1.227 1.227 0 0 0-1.504.877 1.242 1.242 0 0 0 .868 1.52zm11.476 2.152c1.907.212 3.84.36 5.796.443a1.233 1.233 0 0 0 1.279-1.188 1.236 1.236 0 0 0-1.175-1.292 83.23 83.23 0 0 1-5.631-.43 1.231 1.231 0 0 0-1.355 1.098 1.238 1.238 0 0 0 1.086 1.369zm11.625.504c1.922-.04 3.856-.14 5.796-.3a1.237 1.237 0 0 0 1.125-1.336 1.232 1.232 0 0 0-1.323-1.137 93.753 93.753 0 0 1-5.65.292 1.235 1.235 0 0 0-1.201 1.266A1.234 1.234 0 0 0 62.644 165zm11.544-.938c1.912-.268 3.82-.592 5.72-.97a1.24 1.24 0 0 0 .967-1.458 1.228 1.228 0 0 0-1.442-.977c-1.854.369-3.717.685-5.583.947a1.239 1.239 0 0 0-1.047 1.4 1.23 1.23 0 0 0 1.385 1.058zm11.375-2.264c.852-.22 1.7-.452 2.544-.694a1.243 1.243 0 0 0 .846-1.533 1.226 1.226 0 0 0-1.516-.855 98.98 98.98 0 0 1-2.483.678 1.242 1.242 0 0 0-.885 1.51 1.227 1.227 0 0 0 1.494.894z"/>
    </g>
</svg>
