<svg xmlns="http://www.w3.org/2000/svg" width="151" height="90" viewBox="0 0 151 90">
    <g fill="#D8DF21" fill-rule="nonzero">
        <path d="M27.427 38.337a25.71 25.71 0 0 1-.288-2.593.57.57 0 1 0-1.138.066c.05.88.15 1.783.3 2.71a.57.57 0 1 0 1.126-.183zm-.283-5.198c.058-.884.175-1.738.35-2.56a.57.57 0 1 0-1.115-.239 18.996 18.996 0 0 0-.373 2.724.571.571 0 1 0 1.138.075zm1.084-5.02c.312-.8.69-1.569 1.133-2.305a.57.57 0 1 0-.976-.59 16.282 16.282 0 0 0-1.22 2.48.57.57 0 1 0 1.062.416zm2.647-4.405a17.763 17.763 0 0 1 1.778-1.802l.05-.044a.573.573 0 0 0 .054-.806.57.57 0 0 0-.805-.055l-.052.046c-.69.61-1.321 1.249-1.892 1.919-.205.24-.176.6.063.806.24.205.6.176.804-.064zm3.892-3.371c.731-.45 1.495-.83 2.292-1.144a.572.572 0 0 0-.416-1.064c-.86.338-1.684.749-2.472 1.233a.572.572 0 0 0 .596.975zm4.763-1.876c.82-.17 1.672-.278 2.555-.325a.571.571 0 0 0-.06-1.141c-.94.05-1.848.165-2.725.347a.572.572 0 0 0 .23 1.12zm5.139-.293c.836.061 1.696.171 2.58.33a.571.571 0 1 0 .2-1.125 26.153 26.153 0 0 0-2.697-.345.57.57 0 0 0-.083 1.14zm5.152.91c.473.127.952.267 1.438.42a.572.572 0 0 0 .341-1.09c-.5-.159-.995-.303-1.484-.435a.572.572 0 0 0-.296 1.104zM77.047 16.545c.45-.73.915-1.4 1.393-2.007a.504.504 0 0 0-.119-.735.586.586 0 0 0-.784.112c-.503.639-.99 1.34-1.462 2.104a.508.508 0 0 0 .205.718c.268.145.611.06.767-.192zm3.04-3.807c.63-.583 1.278-1.07 1.946-1.462a.507.507 0 0 0 .178-.724.583.583 0 0 0-.773-.166c-.74.434-1.453.969-2.14 1.604a.502.502 0 0 0-.004.744.588.588 0 0 0 .793.004zm4.188-2.403a8.691 8.691 0 0 1 2.431-.281c.31.007.567-.223.575-.513.008-.29-.237-.531-.547-.538a9.884 9.884 0 0 0-2.764.32c-.298.079-.472.37-.387.649.084.279.393.442.692.363zm4.914.083c.861.225 1.621.521 2.282.888.266.148.61.065.768-.185a.507.507 0 0 0-.197-.72c-.748-.415-1.599-.746-2.552-.995-.298-.078-.607.085-.69.365-.084.28.09.57.389.647zm4.115 2.366c.49.577.865 1.244 1.127 2.003.095.276.411.428.706.339.295-.09.457-.385.362-.662a7.185 7.185 0 0 0-1.317-2.335.587.587 0 0 0-.788-.084.504.504 0 0 0-.09.739zm1.555 4.285a13.4 13.4 0 0 1-.084 2.348c-.034.288.188.548.496.58.308.032.585-.177.62-.465.104-.895.134-1.735.088-2.52-.017-.29-.282-.512-.591-.496-.31.016-.546.264-.53.553zM130.3 31.128c.903.053 1.775.125 2.616.216a.568.568 0 0 0 .627-.5.566.566 0 0 0-.504-.622 54.696 54.696 0 0 0-2.673-.221.567.567 0 0 0-.6.53.566.566 0 0 0 .533.597zm5.213.574c.894.152 1.745.329 2.555.53a.564.564 0 1 0 .277-1.095 35.41 35.41 0 0 0-2.64-.548.565.565 0 0 0-.192 1.113zm5.044 1.277c.85.303 1.64.64 2.371 1.013a.57.57 0 0 0 .765-.245.563.563 0 0 0-.246-.76 21.307 21.307 0 0 0-2.505-1.07.57.57 0 0 0-.728.34.563.563 0 0 0 .343.722zm4.547 2.348c.703.52 1.326 1.086 1.872 1.7a.572.572 0 0 0 .802.049.562.562 0 0 0 .05-.797 13.355 13.355 0 0 0-2.044-1.857.571.571 0 0 0-.796.115.562.562 0 0 0 .116.79zm3.31 3.746c.394.726.708 1.503.94 2.33a.57.57 0 0 0 1.096-.303 12.42 12.42 0 0 0-1.034-2.562.57.57 0 0 0-.77-.23.563.563 0 0 0-.231.765zm1.388 4.831c.07.811.08 1.662.027 2.553a.566.566 0 0 0 .534.597.567.567 0 0 0 .601-.53c.056-.945.047-1.85-.029-2.717a.567.567 0 0 0-.615-.514.566.566 0 0 0-.518.611zm-.28 5.126a24.65 24.65 0 0 1-.57 2.514.57.57 0 0 0 1.095.306c.24-.84.438-1.717.596-2.628a.568.568 0 1 0-1.12-.192zm-1.415 4.937c-.34.809-.724 1.571-1.152 2.287a.562.562 0 0 0 .2.774.57.57 0 0 0 .779-.198c.454-.762.862-1.571 1.223-2.428a.563.563 0 0 0-.306-.738.57.57 0 0 0-.744.303zm-2.623 4.374a15.31 15.31 0 0 1-1.786 1.82.562.562 0 0 0-.057.796c.206.236.565.261.802.057a16.442 16.442 0 0 0 1.918-1.954.562.562 0 0 0-.077-.795.571.571 0 0 0-.8.076zm-3.867 3.322c-.73.437-1.497.812-2.294 1.123a.563.563 0 0 0-.321.732.57.57 0 0 0 .737.319c.856-.334 1.68-.737 2.465-1.207a.562.562 0 0 0 .193-.775.571.571 0 0 0-.78-.192zm-4.741 1.859a17.05 17.05 0 0 1-2.544.35.566.566 0 0 0-.531.599c.02.311.29.547.603.528a18.194 18.194 0 0 0 2.714-.374.565.565 0 1 0-.242-1.103zm-5.118.324c-.854-.07-1.705-.2-2.544-.387a.564.564 0 1 0-.25 1.101c.89.2 1.794.338 2.701.412a.567.567 0 0 0 .614-.517.566.566 0 0 0-.52-.609zm-5.03-1.132a17.864 17.864 0 0 1-2.331-1.077.57.57 0 0 0-.774.219.562.562 0 0 0 .22.768c.792.438 1.622.821 2.48 1.146a.57.57 0 0 0 .734-.327.563.563 0 0 0-.329-.729zm-4.478-2.487a16.004 16.004 0 0 1-.32-.254.571.571 0 0 0-.8.078c-.2.24-.165.596.078.794.113.092.227.183.343.273a.571.571 0 0 0 .798-.098.562.562 0 0 0-.1-.793zM105.868 62.516a46.031 46.031 0 0 1-.29 2.58.566.566 0 1 0 1.122.158c.122-.858.221-1.74.298-2.643a.564.564 0 0 0-.517-.609.566.566 0 0 0-.613.514zm-.738 5.14c-.18.864-.388 1.701-.62 2.512a.567.567 0 0 0 1.09.31c.24-.838.454-1.702.64-2.593a.567.567 0 0 0-1.11-.23zm-1.44 4.967c-.313.82-.657 1.607-1.032 2.363a.562.562 0 0 0 .257.755c.28.137.62.023.759-.256a28.06 28.06 0 0 0 1.076-2.462.562.562 0 0 0-.328-.726.568.568 0 0 0-.731.326zm-2.295 4.603a22.49 22.49 0 0 1-1.5 2.086.561.561 0 0 0 .085.793.57.57 0 0 0 .797-.085 23.617 23.617 0 0 0 1.576-2.192.561.561 0 0 0-.175-.777.569.569 0 0 0-.783.175zm-3.244 3.994a21.733 21.733 0 0 1-1.95 1.678.561.561 0 0 0-.104.79.57.57 0 0 0 .795.104 22.865 22.865 0 0 0 2.05-1.766.561.561 0 0 0 .01-.796.57.57 0 0 0-.801-.01zm-4.07 3.114c-.728.435-1.489.838-2.283 1.207a.562.562 0 0 0-.274.749c.133.282.47.403.754.272.83-.386 1.626-.807 2.387-1.263a.562.562 0 0 0 .193-.773.569.569 0 0 0-.778-.192zm-4.69 2.187a31.32 31.32 0 0 1-2.481.763.563.563 0 1 0 .29 1.09 32.458 32.458 0 0 0 2.572-.792.563.563 0 0 0 .344-.72.568.568 0 0 0-.724-.341zm-5.037 1.341a62.2 62.2 0 0 1-2.581.459.564.564 0 1 0 .175 1.113c.853-.132 1.73-.288 2.628-.467a.564.564 0 1 0-.222-1.105zm-5.175.797c-.896.093-1.764.158-2.604.195a.565.565 0 0 0-.541.587c.013.31.278.552.59.538a44.276 44.276 0 0 0 2.674-.2.564.564 0 1 0-.119-1.12zm-5.21.214a28.715 28.715 0 0 1-2.587-.192.564.564 0 0 0-.138 1.119c.862.104 1.758.171 2.69.2a.565.565 0 0 0 .584-.546.565.565 0 0 0-.549-.58zm-5.128-.64a19.517 19.517 0 0 1-2.458-.747.568.568 0 0 0-.732.326.562.562 0 0 0 .328.727c.824.313 1.69.577 2.6.791a.563.563 0 1 0 .261-1.097zm-4.783-1.831a16.21 16.21 0 0 1-2.118-1.423.57.57 0 0 0-.796.09.561.561 0 0 0 .09.791c.71.564 1.464 1.071 2.265 1.522a.569.569 0 0 0 .773-.212.562.562 0 0 0-.214-.768zm-3.988-3.15c-.57-.611-1.11-1.271-1.623-1.985a.569.569 0 0 0-.79-.13.561.561 0 0 0-.132.786c.541.751 1.11 1.449 1.715 2.096a.57.57 0 0 0 .8.029.561.561 0 0 0 .03-.797zm-3.021-4.164a34.916 34.916 0 0 1-.975-1.819.568.568 0 0 0-.76-.254.562.562 0 0 0-.255.756c.33.66.664 1.284 1.006 1.877.156.27.502.364.774.21a.562.562 0 0 0 .21-.77z"/>
        <path d="M57.163 79.579a14.7 14.7 0 0 1-2.438.904.56.56 0 0 0-.405.692c.086.299.407.474.717.39a15.886 15.886 0 0 0 2.635-.976.554.554 0 0 0 .27-.751.592.592 0 0 0-.78-.26zm-4.984 1.292a9.688 9.688 0 0 1-2.546-.254.584.584 0 0 0-.704.413.561.561 0 0 0 .427.68c.935.22 1.889.315 2.86.284a.57.57 0 0 0 .563-.58.574.574 0 0 0-.6-.543zm-4.94-1.153a13.04 13.04 0 0 1-2.148-1.415.597.597 0 0 0-.82.072.549.549 0 0 0 .075.792 14.204 14.204 0 0 0 2.34 1.541.593.593 0 0 0 .79-.228.552.552 0 0 0-.237-.762zm-4.028-3.2c-.602-.688-1.07-1.378-1.405-2.07a.591.591 0 0 0-.774-.271.554.554 0 0 0-.281.747c.38.786.905 1.56 1.571 2.32a.597.597 0 0 0 .82.065.549.549 0 0 0 .07-.792zm-2.035-4.39a6.145 6.145 0 0 1 .34-2.39.558.558 0 0 0-.37-.71.587.587 0 0 0-.736.358 7.23 7.23 0 0 0-.397 2.809c.02.31.296.546.616.527a.57.57 0 0 0 .547-.595zM45.177 18.38a21.487 21.487 0 0 1-.004-2.653.579.579 0 0 0-.529-.621.573.573 0 0 0-.602.545c-.057.899-.056 1.832.003 2.801.02.322.289.567.601.547a.578.578 0 0 0 .53-.62zm.357-5.261c.193-.875.456-1.703.789-2.487a.591.591 0 0 0-.292-.77.56.56 0 0 0-.747.301c-.362.852-.647 1.75-.856 2.696a.585.585 0 0 0 .427.7.567.567 0 0 0 .679-.44zm2.035-4.756c.483-.7 1.039-1.356 1.668-1.966a.597.597 0 0 0 .023-.826.555.555 0 0 0-.801-.025 14.307 14.307 0 0 0-1.814 2.14.596.596 0 0 0 .134.815c.255.187.609.126.79-.138zm3.69-3.609a18.548 18.548 0 0 1 2.238-1.298.592.592 0 0 0 .266-.78.56.56 0 0 0-.756-.274c-.851.42-1.642.879-2.374 1.378a.595.595 0 0 0-.16.81c.173.269.525.342.786.164zm4.603-2.303c.484-.176.985-.342 1.503-.498.332-.1.657-.19.979-.27a.585.585 0 0 0 .418-.704.566.566 0 0 0-.684-.431c-.34.084-.682.178-1.031.283-.537.162-1.058.335-1.562.518a.59.59 0 0 0-.346.745.563.563 0 0 0 .723.357zm5.014-1.21a14.452 14.452 0 0 1 2.549-.03.573.573 0 0 0 .608-.538.58.58 0 0 0-.522-.627c-.885-.07-1.8-.06-2.742.032a.58.58 0 0 0-.51.636c.029.322.305.557.617.527zm5.053.42c.821.235 1.607.553 2.36.948a.56.56 0 0 0 .762-.255.593.593 0 0 0-.247-.786A13.511 13.511 0 0 0 66.232.535a.565.565 0 0 0-.698.406.587.587 0 0 0 .395.72zm4.506 2.359c.663.53 1.29 1.126 1.88 1.781.212.237.571.25.8.031.23-.219.244-.589.03-.825a16.977 16.977 0 0 0-2.015-1.91.556.556 0 0 0-.795.103.596.596 0 0 0 .1.82zm3.488 3.847c.49.723.938 1.483 1.344 2.267.147.285.49.393.767.241a.593.593 0 0 0 .233-.79 23.576 23.576 0 0 0-1.414-2.387.556.556 0 0 0-.79-.145.596.596 0 0 0-.14.814zm2.427 4.68c.216.56.397 1.1.54 1.59.09.309.406.484.706.392.3-.093.47-.419.38-.728a21.52 21.52 0 0 0-.571-1.684.562.562 0 0 0-.736-.328.59.59 0 0 0-.319.758zM96.069 14.037l.019-.033a13.676 13.676 0 0 1 .347-.544c.315-.469.695-.987 1.141-1.537a.583.583 0 0 0-.08-.815.569.569 0 0 0-.806.08 22.54 22.54 0 0 0-1.204 1.623 14.826 14.826 0 0 0-.381.598l-.02.035-.006.01a.583.583 0 0 0 .207.795.57.57 0 0 0 .783-.212zm3.267-4.066a25.14 25.14 0 0 1 1.952-1.757.583.583 0 0 0 .09-.814.569.569 0 0 0-.806-.09c-.722.584-1.402 1.2-2.042 1.838a.583.583 0 0 0-.004.819c.223.227.585.23.81.004zm4.08-3.296c.732-.47 1.49-.9 2.276-1.285a.582.582 0 0 0 .266-.774.57.57 0 0 0-.766-.268c-.826.405-1.623.856-2.391 1.35a.583.583 0 0 0-.177.799c.17.27.524.35.791.178zm4.681-2.292a21.581 21.581 0 0 1 2.509-.711.579.579 0 0 0-.243-1.132c-.903.198-1.783.449-2.64.749a.58.58 0 0 0-.355.736c.104.302.43.463.73.358zm5.092-1.117a23.212 23.212 0 0 1 2.608-.105.576.576 0 0 0 .582-.57.576.576 0 0 0-.564-.588c-.93-.014-1.841.023-2.736.11a.577.577 0 0 0-.515.632c.03.318.31.551.625.52zm5.231.074c.848.103 1.71.248 2.585.438a.579.579 0 0 0 .24-1.132 29.094 29.094 0 0 0-2.69-.455.574.574 0 0 0-.636.506.578.578 0 0 0 .501.643zm5.062 1.172c.82.32 1.587.703 2.303 1.148a.57.57 0 0 0 .789-.19.582.582 0 0 0-.188-.797 15.077 15.077 0 0 0-2.492-1.242.571.571 0 0 0-.74.332.58.58 0 0 0 .328.749zm4.356 2.721a13.694 13.694 0 0 1 1.709 1.934.57.57 0 0 0 .8.122.583.583 0 0 0 .122-.81 14.848 14.848 0 0 0-1.852-2.096.569.569 0 0 0-.81.032.583.583 0 0 0 .031.818zm3.05 4.154c.38.766.706 1.575.978 2.421.098.304.422.47.723.372a.58.58 0 0 0 .367-.73c-.29-.9-.638-1.763-1.043-2.582a.57.57 0 0 0-.77-.258.582.582 0 0 0-.255.777zm1.616 4.97c.157.855.264 1.729.322 2.614.021.32.294.561.61.54a.577.577 0 0 0 .534-.616c-.061-.93-.174-1.85-.34-2.749a.573.573 0 1 0-1.126.212zm.35 5.257a24.079 24.079 0 0 1-.258 2.625.578.578 0 0 0 .478.662.574.574 0 0 0 .654-.483c.14-.9.23-1.822.271-2.753a.577.577 0 0 0-.547-.604.575.575 0 0 0-.597.553zm-.816 5.204c-.25.885-.551 1.708-.894 2.449a.582.582 0 0 0 .276.77.57.57 0 0 0 .762-.28c.37-.797.691-1.678.958-2.62a.58.58 0 0 0-.393-.716.572.572 0 0 0-.709.397zm-2.22 4.627c-.593.722-1.225 1.205-1.865 1.429a.58.58 0 0 0-.354.736c.103.302.43.463.729.358.855-.298 1.654-.909 2.373-1.784a.583.583 0 0 0-.075-.815.569.569 0 0 0-.807.076zM106.16 71.647a17.958 17.958 0 0 0 2.022 1.847.543.543 0 0 0 .78-.119.598.598 0 0 0-.114-.813 16.832 16.832 0 0 1-1.893-1.732.542.542 0 0 0-.789-.005.599.599 0 0 0-.005.822zm4.348 3.31c.853.416 1.722.71 2.608.885a.56.56 0 0 0 .652-.464.58.58 0 0 0-.445-.679 9.548 9.548 0 0 1-2.343-.795.548.548 0 0 0-.741.28.592.592 0 0 0 .27.773zm5.352 1.041a11.515 11.515 0 0 0 2.695-.547.587.587 0 0 0 .363-.73.554.554 0 0 0-.7-.379 10.44 10.44 0 0 1-2.44.497.574.574 0 0 0-.516.623c.023.32.29.56.598.536zm5.19-1.816a8.36 8.36 0 0 0 1.977-2.056.597.597 0 0 0-.132-.81.544.544 0 0 0-.777.137 7.22 7.22 0 0 1-1.71 1.777.597.597 0 0 0-.136.81.544.544 0 0 0 .778.142zm3.218-4.61a14.26 14.26 0 0 0 .603-2.763.577.577 0 0 0-.484-.65.563.563 0 0 0-.623.503c-.11.898-.29 1.745-.55 2.53-.101.303.053.634.344.74a.553.553 0 0 0 .71-.36zm.732-5.58c-.011-.49-.038-.978-.08-1.462a.565.565 0 0 0-.604-.528.575.575 0 0 0-.507.63c.04.46.065.922.075 1.387a.569.569 0 0 0 .571.568.571.571 0 0 0 .545-.595z"/>
        <path d="M26.36 32.655a57.649 57.649 0 0 0-2.708-.37.577.577 0 0 0-.13 1.144c.86.097 1.745.217 2.654.363a.576.576 0 0 0 .184-1.137zm-5.437-.597a38.725 38.725 0 0 0-2.745-.053.577.577 0 0 0-.57.586c.006.318.27.571.59.565.855-.014 1.742.003 2.662.052a.578.578 0 0 0 .61-.544.577.577 0 0 0-.547-.606zm-5.5.114c-.955.102-1.866.25-2.733.443a.576.576 0 1 0 .254 1.123 23.392 23.392 0 0 1 2.603-.422.577.577 0 1 0-.124-1.144zm-5.403 1.235c-.902.342-1.744.746-2.526 1.213a.573.573 0 0 0-.199.79c.165.272.521.36.795.197a14.785 14.785 0 0 1 2.343-1.125.574.574 0 0 0 .335-.743.58.58 0 0 0-.748-.332zm-4.808 2.905a13.665 13.665 0 0 0-1.868 2.104.573.573 0 0 0 .135.803c.26.185.622.125.808-.133a12.511 12.511 0 0 1 1.71-1.927.573.573 0 0 0 .034-.813.582.582 0 0 0-.82-.034zM1.945 40.81a17.931 17.931 0 0 0-.976 2.6.58.58 0 0 0 1.113.32c.253-.865.557-1.676.913-2.434a.574.574 0 0 0-.28-.765.581.581 0 0 0-.77.279zm-1.581 5.31c-.14.87-.24 1.778-.3 2.726a.578.578 0 1 0 1.157.072 27.16 27.16 0 0 1 .287-2.615.579.579 0 1 0-1.144-.182zM0 51.595l.005.257c.017.843.064 1.666.14 2.47.03.317.313.55.632.52a.577.577 0 0 0 .522-.628 32.4 32.4 0 0 1-.14-2.635.578.578 0 0 0-.588-.568.577.577 0 0 0-.57.584zm.528 5.445c.174.92.39 1.81.647 2.67a.58.58 0 0 0 1.11-.327 25.416 25.416 0 0 1-.618-2.555.58.58 0 0 0-1.14.212zm1.585 5.268c.367.857.78 1.679 1.239 2.466.16.275.514.37.791.21a.574.574 0 0 0 .212-.786 21.355 21.355 0 0 1-1.176-2.34.58.58 0 0 0-.76-.305.574.574 0 0 0-.306.755zm2.777 4.76c.562.732 1.17 1.427 1.821 2.083a.582.582 0 0 0 .82.005.573.573 0 0 0 .005-.814 20.544 20.544 0 0 1-1.724-1.972.582.582 0 0 0-.813-.109.573.573 0 0 0-.109.807zm3.909 3.936c.72.563 1.477 1.088 2.272 1.575.273.166.63.082.798-.189a.573.573 0 0 0-.19-.792A22.81 22.81 0 0 1 9.516 70.1a.582.582 0 0 0-.813.095.573.573 0 0 0 .096.809zm4.678 2.876c.82.39 1.668.743 2.544 1.061a.58.58 0 0 0 .743-.343.575.575 0 0 0-.345-.738 27.494 27.494 0 0 1-2.441-1.018.581.581 0 0 0-.773.27.574.574 0 0 0 .272.768zm5.184 1.888a34.81 34.81 0 0 0 2.682.6.576.576 0 0 0 .21-1.132 33.645 33.645 0 0 1-2.592-.58.575.575 0 1 0-.3 1.112zm5.416.998c.9.098 1.812.167 2.735.206.32.013.59-.234.603-.551a.577.577 0 0 0-.554-.6 39.942 39.942 0 0 1-2.658-.2.577.577 0 0 0-.127 1.144zm5.485.234c.907-.019 1.82-.065 2.735-.139a.577.577 0 0 0 .531-.62.578.578 0 0 0-.624-.527 45 45 0 0 1-2.666.135.577.577 0 0 0-.567.587c.007.318.271.57.591.564zm5.448-.435a48.784 48.784 0 0 0 2.7-.45.576.576 0 1 0-.225-1.13c-.875.171-1.754.318-2.634.44a.576.576 0 1 0 .16 1.14zm5.368-1.05c.402-.103.802-.21 1.2-.323a.575.575 0 1 0-.316-1.107c-.388.11-.779.214-1.171.314a.575.575 0 1 0 .287 1.115z"/>
    </g>
</svg>
