<svg xmlns="http://www.w3.org/2000/svg" width="340" height="203" viewBox="0 0 340 203">
    <g fill="#D8DF21" fill-rule="nonzero">
        <path d="M62.237 86.524a56.245 56.245 0 0 1-.651-5.776 1.286 1.286 0 0 0-1.367-1.198 1.28 1.28 0 0 0-1.217 1.345c.116 1.96.343 3.97.68 6.034a1.291 1.291 0 0 0 1.484 1.055 1.276 1.276 0 0 0 1.071-1.46zm-.64-11.579c.13-1.968.395-3.869.794-5.703a1.273 1.273 0 0 0-.995-1.51 1.294 1.294 0 0 0-1.536.978 41.573 41.573 0 0 0-.846 6.069 1.28 1.28 0 0 0 1.207 1.353 1.287 1.287 0 0 0 1.375-1.187zm2.458-11.178a33.463 33.463 0 0 1 2.572-5.136 1.262 1.262 0 0 0-.44-1.748 1.306 1.306 0 0 0-1.776.433 35.992 35.992 0 0 0-2.766 5.523c-.26.655.068 1.393.734 1.65a1.3 1.3 0 0 0 1.676-.722zm6.008-9.812a39.928 39.928 0 0 1 4.034-4.015l.112-.097a1.259 1.259 0 0 0 .124-1.796 1.309 1.309 0 0 0-1.826-.122l-.12.103a42.495 42.495 0 0 0-4.292 4.273c-.464.535-.4 1.339.143 1.795.544.457 1.36.393 1.825-.141zm8.83-7.51c1.66-1 3.394-1.85 5.202-2.547.666-.256.994-.995.733-1.65a1.3 1.3 0 0 0-1.677-.72 35.745 35.745 0 0 0-5.61 2.747c-.609.367-.8 1.151-.427 1.75.374.6 1.17.788 1.78.42zm10.81-4.177a39.495 39.495 0 0 1 5.797-.724 1.28 1.28 0 0 0 1.223-1.338 1.286 1.286 0 0 0-1.36-1.204 42.12 42.12 0 0 0-6.182.773c-.7.142-1.15.815-1.006 1.504a1.294 1.294 0 0 0 1.528.99zm11.661-.654c1.897.137 3.849.382 5.857.735a1.292 1.292 0 0 0 1.501-1.029 1.275 1.275 0 0 0-1.046-1.477 60.41 60.41 0 0 0-6.122-.768 1.287 1.287 0 0 0-1.385 1.176 1.28 1.28 0 0 0 1.195 1.363zm11.69 2.026c1.074.284 2.163.595 3.265.935a1.298 1.298 0 0 0 1.621-.834 1.27 1.27 0 0 0-.847-1.595 86.013 86.013 0 0 0-3.367-.965c-.69-.183-1.4.22-1.585.9a1.271 1.271 0 0 0 .914 1.559zM174.355 36.834a51.067 51.067 0 0 1 3.135-4.743 1.23 1.23 0 0 0-.267-1.737 1.275 1.275 0 0 0-1.765.262 53.537 53.537 0 0 0-3.288 4.973 1.232 1.232 0 0 0 .46 1.698c.604.343 1.376.14 1.725-.453zm6.84-8.998c1.417-1.378 2.876-2.529 4.38-3.455.59-.364.77-1.13.4-1.712a1.274 1.274 0 0 0-1.74-.394c-1.665 1.026-3.27 2.291-4.814 3.793a1.228 1.228 0 0 0-.01 1.757c.49.488 1.289.493 1.785.01zm9.423-5.68a18.663 18.663 0 0 1 5.471-.666 1.253 1.253 0 0 0 1.293-1.211 1.251 1.251 0 0 0-1.23-1.272c-2.138-.052-4.212.2-6.219.757a1.24 1.24 0 0 0-.872 1.532c.189.66.886 1.045 1.557.86zm11.057.196c1.937.532 3.648 1.232 5.135 2.098.6.35 1.373.155 1.729-.436a1.231 1.231 0 0 0-.443-1.701c-1.684-.982-3.6-1.766-5.743-2.354a1.265 1.265 0 0 0-1.554.863 1.24 1.24 0 0 0 .876 1.53zm9.26 5.591c1.102 1.364 1.946 2.94 2.534 4.735a1.266 1.266 0 0 0 1.589.802c.663-.211 1.028-.911.814-1.564-.68-2.075-1.667-3.917-2.962-5.52a1.276 1.276 0 0 0-1.773-.198 1.23 1.23 0 0 0-.203 1.745zm3.497 10.13c.096 1.715.034 3.565-.188 5.549a1.247 1.247 0 0 0 1.116 1.37 1.257 1.257 0 0 0 1.393-1.098c.237-2.115.304-4.101.2-5.958a1.255 1.255 0 0 0-1.33-1.172 1.25 1.25 0 0 0-1.19 1.309zM293.078 70.546c2.048.12 4.026.283 5.932.488a1.285 1.285 0 0 0 1.421-1.129 1.278 1.278 0 0 0-1.142-1.405 124.49 124.49 0 0 0-6.058-.498 1.284 1.284 0 0 0-1.363 1.197 1.28 1.28 0 0 0 1.21 1.347zm11.818 1.295c2.026.343 3.956.743 5.792 1.199a1.29 1.29 0 0 0 1.565-.925 1.273 1.273 0 0 0-.936-1.547 80.56 80.56 0 0 0-5.986-1.239 1.288 1.288 0 0 0-1.488 1.041 1.276 1.276 0 0 0 1.053 1.471zm11.433 2.884a45.82 45.82 0 0 1 5.374 2.286c.634.32 1.41.073 1.735-.553a1.267 1.267 0 0 0-.559-1.715 48.405 48.405 0 0 0-5.678-2.417 1.293 1.293 0 0 0-1.649.769 1.27 1.27 0 0 0 .777 1.63zm10.307 5.3a27.662 27.662 0 0 1 4.242 3.834 1.3 1.3 0 0 0 1.82.112 1.264 1.264 0 0 0 .113-1.799 30.226 30.226 0 0 0-4.634-4.191 1.299 1.299 0 0 0-1.804.26 1.265 1.265 0 0 0 .263 1.783zm7.504 8.455a25.434 25.434 0 0 1 2.131 5.26 1.29 1.29 0 0 0 1.588.884 1.273 1.273 0 0 0 .895-1.57 27.965 27.965 0 0 0-2.344-5.782 1.296 1.296 0 0 0-1.746-.518 1.267 1.267 0 0 0-.524 1.726zm3.145 10.904c.16 1.83.18 3.751.06 5.762a1.28 1.28 0 0 0 1.21 1.347c.711.041 1.321-.494 1.363-1.197a41.81 41.81 0 0 0-.065-6.13 1.285 1.285 0 0 0-1.395-1.16c-.709.06-1.234.677-1.173 1.378zm-.633 11.57a55.44 55.44 0 0 1-1.292 5.675 1.272 1.272 0 0 0 .891 1.572 1.29 1.29 0 0 0 1.59-.88 57.961 57.961 0 0 0 1.35-5.934 1.276 1.276 0 0 0-1.05-1.472 1.288 1.288 0 0 0-1.49 1.04zm-3.21 11.143a41.364 41.364 0 0 1-2.61 5.163 1.266 1.266 0 0 0 .453 1.746 1.297 1.297 0 0 0 1.765-.448 43.9 43.9 0 0 0 2.772-5.479 1.27 1.27 0 0 0-.693-1.667 1.294 1.294 0 0 0-1.686.685zm-5.946 9.873a34.625 34.625 0 0 1-4.047 4.108 1.264 1.264 0 0 0-.13 1.797 1.3 1.3 0 0 0 1.819.128 37.187 37.187 0 0 0 4.347-4.411 1.264 1.264 0 0 0-.175-1.794 1.3 1.3 0 0 0-1.814.172zm-8.764 7.498a34.705 34.705 0 0 1-5.2 2.535 1.27 1.27 0 0 0-.728 1.652c.261.655 1.01.977 1.672.72a37.295 37.295 0 0 0 5.587-2.724c.61-.364.805-1.147.438-1.75a1.297 1.297 0 0 0-1.77-.433zm-10.747 4.195a38.8 38.8 0 0 1-5.765.79 1.28 1.28 0 0 0-1.205 1.353 1.284 1.284 0 0 0 1.367 1.191c2.081-.129 4.139-.41 6.151-.844a1.274 1.274 0 0 0 .985-1.516 1.289 1.289 0 0 0-1.533-.974zm-11.6.733a42.071 42.071 0 0 1-5.765-.875 1.29 1.29 0 0 0-1.542.962 1.274 1.274 0 0 0 .973 1.524c2.019.45 4.067.762 6.124.929a1.285 1.285 0 0 0 1.39-1.166 1.279 1.279 0 0 0-1.18-1.374zm-11.4-2.555a40.573 40.573 0 0 1-5.286-2.431 1.297 1.297 0 0 0-1.753.493 1.267 1.267 0 0 0 .499 1.733 43.164 43.164 0 0 0 5.622 2.587c.665.25 1.41-.08 1.663-.738a1.27 1.27 0 0 0-.746-1.644zm-10.152-5.613a36.25 36.25 0 0 1-.726-.575 1.299 1.299 0 0 0-1.814.176 1.264 1.264 0 0 0 .178 1.793c.256.208.515.413.777.615a1.299 1.299 0 0 0 1.809-.22 1.265 1.265 0 0 0-.224-1.79zM239.432 140.18c-.17 2.017-.39 3.984-.66 5.899a1.287 1.287 0 0 0 2.547.36c.276-1.963.502-3.977.676-6.043a1.287 1.287 0 1 0-2.563-.216zm-1.675 11.747c-.41 1.976-.88 3.89-1.41 5.742a1.286 1.286 0 1 0 2.473.709 82.779 82.779 0 0 0 1.456-5.927 1.286 1.286 0 1 0-2.519-.524zm-3.267 11.354a61.803 61.803 0 0 1-2.344 5.401 1.285 1.285 0 1 0 2.307 1.14 64.379 64.379 0 0 0 2.442-5.626 1.286 1.286 0 1 0-2.405-.915zm-5.208 10.52a51.4 51.4 0 0 1-3.405 4.77 1.289 1.289 0 0 0 .194 1.811c.553.446 1.363.36 1.809-.195a53.975 53.975 0 0 0 3.576-5.008 1.289 1.289 0 0 0-.4-1.777 1.285 1.285 0 0 0-1.774.4zm-7.363 9.13a49.419 49.419 0 0 1-4.422 3.835 1.289 1.289 0 0 0-.237 1.806c.432.564 1.24.67 1.803.237a51.992 51.992 0 0 0 4.653-4.035 1.29 1.29 0 0 0 .022-1.82 1.285 1.285 0 0 0-1.819-.023zm-9.236 7.118a55.938 55.938 0 0 1-5.18 2.758 1.289 1.289 0 0 0 1.088 2.334 58.508 58.508 0 0 0 5.419-2.886 1.289 1.289 0 0 0 .438-1.767 1.285 1.285 0 0 0-1.765-.44zm-10.64 4.999a70.694 70.694 0 0 1-5.632 1.744 1.288 1.288 0 0 0 .66 2.49 73.262 73.262 0 0 0 5.836-1.808 1.288 1.288 0 0 0-.864-2.426zm-11.432 3.066c-2.005.401-3.957.75-5.858 1.048a1.288 1.288 0 0 0 .397 2.545c1.937-.303 3.925-.659 5.965-1.067a1.288 1.288 0 0 0-.504-2.526zm-11.743 1.821a97.193 97.193 0 0 1-5.908.444 1.287 1.287 0 0 0 .112 2.574 99.76 99.76 0 0 0 6.065-.456 1.287 1.287 0 0 0-.269-2.562zm-11.822.49a64.7 64.7 0 0 1-5.871-.44 1.288 1.288 0 1 0-.312 2.557c1.955.24 3.988.392 6.104.457a1.287 1.287 0 0 0 .079-2.574zm-11.638-1.462a44.052 44.052 0 0 1-5.577-1.708 1.288 1.288 0 0 0-.918 2.406 46.62 46.62 0 0 0 5.903 1.808 1.288 1.288 0 0 0 .593-2.506zm-10.853-4.188a36.77 36.77 0 0 1-4.806-3.251 1.285 1.285 0 0 0-1.807.204 1.289 1.289 0 0 0 .204 1.81 39.341 39.341 0 0 0 5.141 3.478 1.289 1.289 0 0 0 1.268-2.241zm-9.05-7.2a45.573 45.573 0 0 1-3.682-4.536 1.285 1.285 0 0 0-1.794-.299 1.289 1.289 0 0 0-.299 1.797 48.14 48.14 0 0 0 3.891 4.791c.484.521 1.298.551 1.818.067.52-.484.55-1.3.066-1.82zm-6.856-9.516a80.001 80.001 0 0 1-2.21-4.158 1.285 1.285 0 1 0-2.304 1.146 82.564 82.564 0 0 0 2.282 4.292c.353.618 1.14.831 1.756.478.616-.354.83-1.14.476-1.758z"/>
        <path d="M128.14 181.412c-1.841.898-3.647 1.593-5.417 2.087a1.298 1.298 0 0 0 .693 2.5c1.925-.537 3.878-1.289 5.856-2.254.643-.314.91-1.09.597-1.734a1.292 1.292 0 0 0-1.73-.599zm-11.077 2.982a20.763 20.763 0 0 1-5.656-.585 1.297 1.297 0 0 0-.615 2.52c2.076.51 4.196.729 6.356.658a1.296 1.296 0 0 0 1.25-1.339 1.295 1.295 0 0 0-1.335-1.254zm-10.977-2.66c-1.617-.872-3.208-1.961-4.773-3.267a1.292 1.292 0 0 0-1.822.168 1.3 1.3 0 0 0 .167 1.826c1.694 1.414 3.428 2.6 5.201 3.558.63.34 1.414.104 1.753-.527a1.299 1.299 0 0 0-.526-1.757zm-8.95-7.386c-1.338-1.586-2.378-3.178-3.123-4.776a1.292 1.292 0 0 0-1.72-.626 1.299 1.299 0 0 0-.625 1.725c.846 1.814 2.012 3.598 3.493 5.352a1.292 1.292 0 0 0 1.823.153 1.3 1.3 0 0 0 .152-1.828zm-4.524-10.131c-.108-1.809.142-3.644.758-5.513a1.293 1.293 0 1 0-2.457-.813c-.717 2.176-1.013 4.34-.884 6.482a1.295 1.295 0 1 0 2.583-.156zM102.665 40.628a46.363 46.363 0 0 1-.008-5.864 1.29 1.29 0 0 0-1.199-1.373 1.287 1.287 0 0 0-1.364 1.206 48.955 48.955 0 0 0 .008 6.192 1.287 1.287 0 0 0 1.362 1.208 1.289 1.289 0 0 0 1.201-1.37zm.808-11.629a30.685 30.685 0 0 1 1.788-5.496 1.295 1.295 0 0 0-.66-1.702 1.281 1.281 0 0 0-1.692.665 33.277 33.277 0 0 0-1.94 5.96 1.292 1.292 0 0 0 .967 1.546 1.284 1.284 0 0 0 1.537-.973zm4.61-10.511a29.256 29.256 0 0 1 3.776-4.348c.516-.49.54-1.307.054-1.826a1.279 1.279 0 0 0-1.815-.054 31.834 31.834 0 0 0-4.108 4.731 1.297 1.297 0 0 0 .303 1.801 1.28 1.28 0 0 0 1.79-.304zm8.356-7.978a42.267 42.267 0 0 1 5.068-2.871c.64-.309.91-1.08.603-1.724a1.28 1.28 0 0 0-1.713-.606 44.826 44.826 0 0 0-5.374 3.046 1.296 1.296 0 0 0-.363 1.79 1.28 1.28 0 0 0 1.78.365zm10.425-5.092a65.048 65.048 0 0 1 3.404-1.1 47.71 47.71 0 0 1 2.216-.596 1.292 1.292 0 0 0-.602-2.511c-.77.186-1.545.394-2.335.627-1.217.357-2.396.739-3.538 1.144a1.294 1.294 0 0 0-.783 1.648c.236.673.969 1.026 1.638.788zm11.356-2.675a33.53 33.53 0 0 1 5.77-.066 1.286 1.286 0 0 0 1.38-1.189 1.29 1.29 0 0 0-1.183-1.386 36.08 36.08 0 0 0-6.21.07 1.29 1.29 0 0 0-1.157 1.407c.067.71.694 1.232 1.4 1.164zm11.442.928a28.48 28.48 0 0 1 5.344 2.097 1.28 1.28 0 0 0 1.728-.564 1.295 1.295 0 0 0-.56-1.738 31.038 31.038 0 0 0-5.824-2.284 1.283 1.283 0 0 0-1.582.899c-.19.687.21 1.4.894 1.59zm10.206 5.215a35.507 35.507 0 0 1 4.256 3.938 1.279 1.279 0 0 0 1.814.069c.52-.485.551-1.303.069-1.826a38.076 38.076 0 0 0-4.565-4.222 1.279 1.279 0 0 0-1.801.228 1.297 1.297 0 0 0 .227 1.813zm7.9 8.503c1.109 1.6 2.124 3.28 3.042 5.013a1.28 1.28 0 0 0 1.737.532 1.296 1.296 0 0 0 .53-1.747 51.857 51.857 0 0 0-3.203-5.276 1.28 1.28 0 0 0-1.788-.32 1.297 1.297 0 0 0-.319 1.798zm5.496 10.347c.487 1.24.899 2.43 1.222 3.513.203.684.919 1.071 1.598.867a1.293 1.293 0 0 0 .862-1.609 46.79 46.79 0 0 0-1.294-3.721 1.282 1.282 0 0 0-1.666-.726 1.294 1.294 0 0 0-.722 1.676zM215.411 30.707l.044-.073a30.29 30.29 0 0 1 .783-1.206c.71-1.041 1.568-2.19 2.576-3.412a1.279 1.279 0 0 0-.181-1.808 1.299 1.299 0 0 0-1.82.18 50.075 50.075 0 0 0-2.716 3.598 32.838 32.838 0 0 0-.86 1.327l-.047.077-.012.022a1.283 1.283 0 0 0 .467 1.765c.618.355 1.41.144 1.766-.47zm7.374-9.02a56.41 56.41 0 0 1 4.404-3.9 1.28 1.28 0 0 0 .2-1.806 1.299 1.299 0 0 0-1.817-.2 58.987 58.987 0 0 0-4.606 4.079 1.279 1.279 0 0 0-.01 1.816c.502.505 1.32.51 1.829.01zm9.203-7.314a51.511 51.511 0 0 1 5.139-2.852 1.28 1.28 0 0 0 .598-1.717 1.297 1.297 0 0 0-1.727-.595 54.1 54.1 0 0 0-5.397 2.995 1.28 1.28 0 0 0-.397 1.774 1.298 1.298 0 0 0 1.784.395zm10.565-5.086a49.34 49.34 0 0 1 5.66-1.577c.698-.15 1.141-.835.99-1.528a1.293 1.293 0 0 0-1.538-.983 51.938 51.938 0 0 0-5.958 1.66 1.283 1.283 0 0 0-.799 1.635c.234.67.97 1.025 1.645.793zm11.489-2.479a53.26 53.26 0 0 1 5.885-.232 1.29 1.29 0 0 0 1.313-1.265c.01-.71-.56-1.294-1.273-1.304a55.862 55.862 0 0 0-6.173.244 1.287 1.287 0 0 0-1.163 1.402 1.29 1.29 0 0 0 1.41 1.155zm11.803.166a64.07 64.07 0 0 1 5.833.97 1.293 1.293 0 0 0 1.535-.987 1.285 1.285 0 0 0-.993-1.525 66.67 66.67 0 0 0-6.069-1.009 1.291 1.291 0 0 0-1.437 1.124 1.286 1.286 0 0 0 1.131 1.427zm11.422 2.6c1.85.708 3.581 1.559 5.197 2.546a1.298 1.298 0 0 0 1.779-.421 1.28 1.28 0 0 0-.424-1.767 34.253 34.253 0 0 0-5.622-2.756 1.296 1.296 0 0 0-1.672.737 1.282 1.282 0 0 0 .742 1.66zm9.83 6.037a30.553 30.553 0 0 1 3.854 4.29 1.298 1.298 0 0 0 1.808.272 1.28 1.28 0 0 0 .273-1.796 33.127 33.127 0 0 0-4.179-4.652 1.299 1.299 0 0 0-1.827.07 1.279 1.279 0 0 0 .07 1.816zm6.88 9.216a38.62 38.62 0 0 1 2.209 5.372c.22.675.95 1.044 1.63.824.678-.22 1.05-.944.829-1.619a41.177 41.177 0 0 0-2.355-5.728 1.297 1.297 0 0 0-1.735-.573 1.28 1.28 0 0 0-.577 1.724zm3.648 11.029c.354 1.895.596 3.835.727 5.8a1.29 1.29 0 0 0 1.376 1.196 1.287 1.287 0 0 0 1.204-1.367 52.173 52.173 0 0 0-.765-6.098 1.292 1.292 0 0 0-1.507-1.029c-.702.13-1.166.8-1.035 1.498zm.79 11.663a52.56 52.56 0 0 1-.583 5.824 1.286 1.286 0 0 0 1.078 1.468c.706.11 1.367-.37 1.477-1.07.314-1.997.52-4.044.612-6.11a1.288 1.288 0 0 0-1.235-1.34 1.29 1.29 0 0 0-1.349 1.228zm-1.841 11.545c-.566 1.964-1.245 3.791-2.018 5.434a1.281 1.281 0 0 0 .624 1.708c.646.3 1.416.023 1.718-.62.833-1.769 1.56-3.724 2.162-5.814a1.284 1.284 0 0 0-.887-1.589 1.294 1.294 0 0 0-1.6.881zm-5.008 10.266c-1.34 1.604-2.767 2.676-4.21 3.17a1.283 1.283 0 0 0-.8 1.634c.234.671.97 1.027 1.645.795 1.93-.662 3.733-2.016 5.355-3.959a1.279 1.279 0 0 0-.17-1.809 1.299 1.299 0 0 0-1.82.169zM238.364 160.362a40.334 40.334 0 0 0 4.574 4.09c.56.425 1.35.307 1.767-.263.416-.57.3-1.377-.259-1.802a37.804 37.804 0 0 1-4.285-3.834 1.245 1.245 0 0 0-1.785-.012 1.306 1.306 0 0 0-.012 1.82zm9.839 7.33c1.93.919 3.897 1.572 5.902 1.958a1.264 1.264 0 0 0 1.475-1.027 1.286 1.286 0 0 0-1.006-1.504 21.937 21.937 0 0 1-5.303-1.76 1.252 1.252 0 0 0-1.678.62 1.299 1.299 0 0 0 .61 1.712zm12.111 2.304a26.573 26.573 0 0 0 6.1-1.213 1.293 1.293 0 0 0 .82-1.617 1.258 1.258 0 0 0-1.585-.837 24.093 24.093 0 0 1-5.523 1.1 1.28 1.28 0 0 0-1.165 1.38 1.27 1.27 0 0 0 1.353 1.187zm11.746-4.022a18.697 18.697 0 0 0 4.476-4.552c.403-.58.27-1.384-.299-1.795a1.247 1.247 0 0 0-1.76.304 16.148 16.148 0 0 1-3.87 3.936 1.304 1.304 0 0 0-.306 1.793c.4.582 1.188.723 1.759.314zm7.283-10.209c.648-1.914 1.096-3.961 1.364-6.118a1.283 1.283 0 0 0-1.094-1.439 1.268 1.268 0 0 0-1.411 1.115c-.247 1.988-.657 3.864-1.246 5.602a1.294 1.294 0 0 0 .781 1.637 1.257 1.257 0 0 0 1.606-.797zM281 143.411a51.36 51.36 0 0 0-.179-3.236 1.27 1.27 0 0 0-1.368-1.17 1.28 1.28 0 0 0-1.147 1.396 48.74 48.74 0 0 1 .17 3.07c.016.711.594 1.274 1.291 1.257a1.277 1.277 0 0 0 1.233-1.317z"/>
        <path d="M58.996 72.47a128.679 128.679 0 0 0-6.06-.828 1.296 1.296 0 0 0-1.433 1.14c-.08.709.432 1.348 1.144 1.428 1.924.215 3.903.485 5.937.811a1.293 1.293 0 0 0 .412-2.551zm-12.17-1.34a86.426 86.426 0 0 0-6.143-.118 1.294 1.294 0 0 0-1.274 1.315 1.295 1.295 0 0 0 1.32 1.269c1.913-.034 3.9.005 5.958.115a1.295 1.295 0 0 0 1.365-1.22 1.294 1.294 0 0 0-1.225-1.36zm-12.308.256c-2.137.229-4.176.56-6.117.995a1.292 1.292 0 1 0 .568 2.52 52.218 52.218 0 0 1 5.827-.946 1.293 1.293 0 0 0 1.15-1.423 1.296 1.296 0 0 0-1.428-1.146zm-12.093 2.772a35.645 35.645 0 0 0-5.654 2.722 1.29 1.29 0 0 0-.444 1.773 1.3 1.3 0 0 0 1.78.442 33.05 33.05 0 0 1 5.243-2.523 1.29 1.29 0 0 0 .749-1.668 1.298 1.298 0 0 0-1.674-.746zm-10.76 6.52a30.642 30.642 0 0 0-4.18 4.722 1.289 1.289 0 0 0 .3 1.803 1.3 1.3 0 0 0 1.81-.3 28.055 28.055 0 0 1 3.827-4.324c.527-.483.56-1.3.075-1.825a1.3 1.3 0 0 0-1.832-.075zM4.352 90.77a40.317 40.317 0 0 0-2.183 5.836 1.298 1.298 0 0 0 2.49.72 37.744 37.744 0 0 1 2.044-5.463 1.29 1.29 0 0 0-.627-1.717 1.299 1.299 0 0 0-1.724.624zM.814 102.69a63.694 63.694 0 0 0-.673 6.117 1.294 1.294 0 0 0 1.213 1.37 1.295 1.295 0 0 0 1.376-1.208c.13-2.047.344-4.003.645-5.87a1.293 1.293 0 0 0-1.075-1.48 1.296 1.296 0 0 0-1.486 1.071zM0 114.98l.01.576c.04 1.892.145 3.74.316 5.545.067.71.7 1.232 1.412 1.165a1.293 1.293 0 0 0 1.17-1.407 72.923 72.923 0 0 1-.314-5.916 1.295 1.295 0 0 0-1.316-1.273A1.294 1.294 0 0 0 0 114.98zm1.182 12.222c.388 2.062.871 4.06 1.447 5.993a1.298 1.298 0 0 0 2.486-.735 57.18 57.18 0 0 1-1.384-5.735 1.297 1.297 0 0 0-2.55.477zm3.547 11.823a50.563 50.563 0 0 0 2.772 5.534 1.3 1.3 0 0 0 1.772.472 1.29 1.29 0 0 0 .473-1.765 47.983 47.983 0 0 1-2.63-5.252 1.299 1.299 0 0 0-1.701-.683 1.29 1.29 0 0 0-.686 1.694zm6.215 10.683a48.658 48.658 0 0 0 4.077 4.674 1.3 1.3 0 0 0 1.834.012c.51-.5.515-1.319.012-1.827a46.07 46.07 0 0 1-3.86-4.426 1.3 1.3 0 0 0-1.818-.244 1.289 1.289 0 0 0-.245 1.81zm8.749 8.834a53.64 53.64 0 0 0 5.086 3.535 1.3 1.3 0 0 0 1.784-.423 1.29 1.29 0 0 0-.424-1.778 51.046 51.046 0 0 1-4.84-3.363 1.3 1.3 0 0 0-1.822.214 1.289 1.289 0 0 0 .216 1.815zm10.47 6.455a64.036 64.036 0 0 0 5.694 2.382c.673.245 1.418-.1 1.663-.77a1.29 1.29 0 0 0-.773-1.657 61.438 61.438 0 0 1-5.463-2.285 1.299 1.299 0 0 0-1.73.607 1.29 1.29 0 0 0 .61 1.723zm11.602 4.237a77.72 77.72 0 0 0 6.003 1.348 1.292 1.292 0 0 0 .47-2.541 75.119 75.119 0 0 1-5.801-1.303 1.291 1.291 0 1 0-.672 2.496zm12.12 2.241c2.014.22 4.057.374 6.122.461.716.03 1.32-.523 1.35-1.236a1.294 1.294 0 0 0-1.24-1.345 89.146 89.146 0 0 1-5.948-.448 1.296 1.296 0 0 0-1.43 1.143 1.293 1.293 0 0 0 1.147 1.425zm12.278.525c2.03-.043 4.073-.147 6.122-.312a1.293 1.293 0 0 0 1.188-1.391 1.295 1.295 0 0 0-1.397-1.184c-1.998.16-3.989.262-5.967.303a1.294 1.294 0 0 0-1.27 1.319c.015.713.608 1.28 1.324 1.265zm12.193-.976a108.9 108.9 0 0 0 6.04-1.01 1.292 1.292 0 1 0-.5-2.536c-1.959.384-3.926.713-5.897.986a1.293 1.293 0 1 0 .357 2.56zm12.014-2.358c.9-.23 1.796-.471 2.687-.723a1.291 1.291 0 1 0-.708-2.486c-.87.246-1.744.481-2.623.706a1.292 1.292 0 1 0 .644 2.503z"/>
    </g>
</svg>
