<svg xmlns="http://www.w3.org/2000/svg" width="88" height="84" viewBox="0 0 88 84">
    <g fill="#FFF" fill-rule="evenodd">
        <path fill-rule="nonzero" d="M88 38.133C88 16.997 68.235 0 44 0S0 16.997 0 38.133C0 59.272 19.765 76.27 44 76.27c2.636 0 5.247-.205 7.815-.607 6.505 6.485 14.525 9.205 23.868 8.097 1.75-.207 2.556-2.274 1.406-3.602-3.336-3.851-5.47-7.744-6.435-11.687C81.464 61.333 88 50.226 88 38.133zM54.202 71.82a2.207 2.207 0 0 0-2.003-.661A46.04 46.04 0 0 1 44 71.89c-21.936 0-39.6-15.19-39.6-33.758C4.4 19.568 22.064 4.378 44 4.378s39.6 15.19 39.6 33.755c0 10.985-6.223 21.118-16.56 27.44a2.185 2.185 0 0 0-1.015 2.237c.702 4.045 2.4 7.982 5.073 11.806-6.565-.149-12.155-2.733-16.896-7.797z"/>
        <text class="text">
            <tspan x="21" y="44">Oops</tspan>
        </text>
    </g>
</svg>
