<svg xmlns="http://www.w3.org/2000/svg" width="155" height="190" viewBox="0 0 155 190">
    <g fill="none" fill-rule="evenodd">
        <path fill="#FFF" d="M144.124 176.965c-.002.34-.066.599-.167.83a1.92 1.92 0 0 1-.743.845 2.13 2.13 0 0 1-1.12.33c-.236 0-.46-.04-.677-.127a2.005 2.005 0 0 1-.664-.433l-3.588-3.399a19.458 19.458 0 0 0-6.405-4.228 19.562 19.562 0 0 0-7.35-1.43 19.532 19.532 0 0 0-13.813 5.712 13.24 13.24 0 0 1-4.396 2.914 13.326 13.326 0 0 1-5 .97 13.226 13.226 0 0 1-9.392-3.884 19.46 19.46 0 0 0-6.464-4.282 19.569 19.569 0 0 0-7.35-1.43 19.523 19.523 0 0 0-13.812 5.712 13.233 13.233 0 0 1-4.394 2.914 13.34 13.34 0 0 1-5 .97c-1.705 0-3.405-.324-5-.97a13.207 13.207 0 0 1-4.393-2.914 19.467 19.467 0 0 0-6.465-4.282 19.552 19.552 0 0 0-7.348-1.43 19.54 19.54 0 0 0-13.815 5.712l.004-.002-2.909 2.897a2.031 2.031 0 0 1-.679.46c-.222.089-.452.132-.696.134a2.158 2.158 0 0 1-1.436-.568 1.827 1.827 0 0 1-.432-.603 2.014 2.014 0 0 1-.167-.833V77.324c.002-18.437 7.477-35.097 19.575-47.18C42.134 18.063 58.822 10.6 77.289 10.598c18.465.002 35.153 7.465 47.258 19.542 12.1 12.085 19.573 28.747 19.575 47.182v99.643h.002zM131.58 22.452C117.697 8.585 98.48-.002 77.289 0 56.097-.002 36.88 8.585 22.996 22.452 9.106 36.312.505 55.498.506 76.655v104.248a8.648 8.648 0 0 0 .742 3.537 8.566 8.566 0 0 0 3.283 3.769 8.802 8.802 0 0 0 4.676 1.354 8.54 8.54 0 0 0 3.199-.622 8.7 8.7 0 0 0 2.88-1.914l3.056-3.044.003-.004a13.916 13.916 0 0 1 9.868-4.08 13.923 13.923 0 0 1 9.87 4.08 20.418 20.418 0 0 0 6.79 4.5 20.573 20.573 0 0 0 7.72 1.502 20.492 20.492 0 0 0 14.512-6.002 13.909 13.909 0 0 1 9.868-4.08 13.909 13.909 0 0 1 9.868 4.08 20.444 20.444 0 0 0 6.792 4.5 20.575 20.575 0 0 0 7.722 1.502 20.484 20.484 0 0 0 14.512-6.002 13.916 13.916 0 0 1 9.868-4.08 13.923 13.923 0 0 1 9.871 4.08l.062.06 3.768 3.572a8.777 8.777 0 0 0 2.824 1.804 8.553 8.553 0 0 0 3.108.585 8.796 8.796 0 0 0 5.988-2.364 8.54 8.54 0 0 0 1.97-2.762 8.695 8.695 0 0 0 .738-3.532V76.655c.008-21.157-8.594-40.343-22.483-54.203z"/>
        <path fill="#FFF" d="M77.948 117.619c3.52 0 6.974 1.065 9.984 3.078 1.354.905 1.802 2.876.997 4.4-.805 1.524-2.555 2.023-3.91 1.12-2.13-1.425-4.576-2.178-7.071-2.178-2.435 0-4.83.72-6.924 2.078-1.363.887-3.108.36-3.894-1.177-.788-1.534-.32-3.498 1.045-4.383 2.96-1.922 6.34-2.938 9.773-2.938"/>
        <g fill="#D8DF21">
            <path fill-rule="nonzero" d="M100.962 104.62c-12.573 0-22.766-10.255-22.766-22.906 0-12.65 10.193-22.904 22.766-22.904 12.574 0 22.766 10.254 22.766 22.904s-10.192 22.905-22.766 22.905zm0-7.636c8.383 0 15.178-6.836 15.178-15.27 0-8.433-6.795-15.27-15.178-15.27-8.382 0-15.177 6.837-15.177 15.27 0 8.434 6.795 15.27 15.177 15.27zM50.371 104.62c-12.573 0-22.766-10.255-22.766-22.906 0-12.65 10.193-22.904 22.766-22.904 12.574 0 22.766 10.254 22.766 22.904S62.945 104.62 50.371 104.62zm0-7.636c8.382 0 15.178-6.836 15.178-15.27 0-8.433-6.796-15.27-15.178-15.27-8.382 0-15.177 6.837-15.177 15.27 0 8.434 6.795 15.27 15.177 15.27z"/>
            <path d="M69.343 77.897h13.913v7.635H69.343z"/>
        </g>
    </g>
</svg>
