<svg width="81" height="55" viewBox="0 0 81 55" fill="none" xmlns="http://www.w3.org/2000/svg">
<mask id="path-1-outside-1_1_171" maskUnits="userSpaceOnUse" x="-2" y="-2" width="85" height="59" fill="black">
<rect fill="white" x="-2" y="-2" width="85" height="59"/>
<path d="M11.1707 27.6427C11.1707 29.136 11.2204 30.9529 11.32 33.0933C11.4196 35.184 11.7182 37.2249 12.216 39.216C12.7636 41.1573 13.6098 42.8249 14.7547 44.2187C15.8996 45.6124 17.5422 46.3093 19.6827 46.3093C21.8729 46.3093 23.5404 45.6124 24.6853 44.2187C25.88 42.8249 26.7262 41.1573 27.224 39.216C27.7716 37.2249 28.0951 35.184 28.1947 33.0933C28.2942 30.9529 28.344 29.136 28.344 27.6427C28.344 26.7467 28.3191 25.6764 28.2693 24.432C28.2693 23.1378 28.1698 21.8187 27.9707 20.4747C27.8213 19.1307 27.5724 17.8116 27.224 16.5173C26.9253 15.1733 26.4524 13.9787 25.8053 12.9333C25.1582 11.888 24.3369 11.0418 23.3413 10.3947C22.3458 9.74755 21.1262 9.424 19.6827 9.424C18.2391 9.424 17.0196 9.74755 16.024 10.3947C15.0782 11.0418 14.2818 11.888 13.6347 12.9333C13.0373 13.9787 12.5644 15.1733 12.216 16.5173C11.8676 17.8116 11.6187 19.1307 11.4693 20.4747C11.32 21.8187 11.2204 23.1378 11.1707 24.432C11.1707 25.6764 11.1707 26.7467 11.1707 27.6427ZM0.568 27.6427C0.568 22.5653 1.06578 18.3093 2.06133 14.8747C3.10667 11.3902 4.50045 8.60266 6.24267 6.51199C7.98489 4.42133 10.0009 2.92799 12.2907 2.03199C14.6302 1.13599 17.0942 0.687993 19.6827 0.687993C22.3209 0.687993 24.7849 1.13599 27.0747 2.03199C29.4142 2.92799 31.4551 4.42133 33.1973 6.51199C34.9893 8.60266 36.3831 11.3902 37.3787 14.8747C38.424 18.3093 38.9467 22.5653 38.9467 27.6427C38.9467 32.8693 38.424 37.2498 37.3787 40.784C36.3831 44.2684 34.9893 47.056 33.1973 49.1467C31.4551 51.2373 29.4142 52.7307 27.0747 53.6267C24.7849 54.5227 22.3209 54.9707 19.6827 54.9707C17.0942 54.9707 14.6302 54.5227 12.2907 53.6267C10.0009 52.7307 7.98489 51.2373 6.24267 49.1467C4.50045 47.056 3.10667 44.2684 2.06133 40.784C1.06578 37.2498 0.568 32.8693 0.568 27.6427ZM43.2523 21.8187C43.1527 18.832 43.5011 16.0693 44.2976 13.5307C45.094 10.9422 46.2887 8.70222 47.8816 6.81066C49.4745 4.86933 51.4656 3.376 53.8549 2.33066C56.294 1.23555 59.0816 0.687993 62.2176 0.687993C64.6069 0.687993 66.8718 1.06133 69.0123 1.80799C71.2025 2.55466 73.1189 3.62488 74.7616 5.01866C76.4043 6.41244 77.6985 8.12977 78.6443 10.1707C79.6398 12.2116 80.1376 14.5013 80.1376 17.04C80.1376 19.6782 79.7145 21.9431 78.8683 23.8347C78.022 25.7262 76.902 27.4187 75.5083 28.912C74.1145 30.3556 72.5216 31.6747 70.7296 32.8693C68.9874 34.064 67.2203 35.2587 65.4283 36.4533C63.6363 37.5982 61.894 38.8427 60.2016 40.1867C58.5091 41.5307 57.0158 43.0987 55.7216 44.8907H80.4363V54H42.0576C42.0576 50.9636 42.4807 48.3253 43.3269 46.0853C44.2229 43.8453 45.4176 41.8542 46.9109 40.112C48.4043 38.32 50.1465 36.6773 52.1376 35.184C54.1785 33.6907 56.3189 32.1724 58.5589 30.6293C59.7038 29.8329 60.9234 29.0364 62.2176 28.24C63.5118 27.3938 64.6816 26.4729 65.7269 25.4773C66.822 24.4818 67.718 23.3618 68.4149 22.1173C69.1616 20.8729 69.5349 19.4542 69.5349 17.8613C69.5349 15.3227 68.7883 13.3564 67.2949 11.9627C65.8514 10.5191 63.9847 9.79733 61.6949 9.79733C60.1518 9.79733 58.8327 10.1707 57.7376 10.9173C56.6923 11.6142 55.846 12.56 55.1989 13.7547C54.5518 14.8996 54.0789 16.1938 53.7803 17.6373C53.5314 19.0311 53.4069 20.4249 53.4069 21.8187H43.2523Z"/>
</mask>
<path d="M11.32 33.0933L9.32216 33.1863L9.32226 33.1885L11.32 33.0933ZM12.216 39.216L10.2757 39.7011L10.283 39.7301L10.2911 39.7589L12.216 39.216ZM14.7547 44.2187L16.3001 42.9492L14.7547 44.2187ZM24.6853 44.2187L23.1668 42.9171L23.1532 42.933L23.1399 42.9492L24.6853 44.2187ZM27.224 39.216L25.2956 38.6857L25.291 38.7024L25.2867 38.7192L27.224 39.216ZM28.1947 33.0933L30.1924 33.1885L30.1925 33.1863L28.1947 33.0933ZM28.2693 24.432H26.2693V24.472L26.2709 24.5119L28.2693 24.432ZM27.9707 20.4747L25.9829 20.6955L25.9869 20.7317L25.9923 20.7678L27.9707 20.4747ZM27.224 16.5173L25.2716 16.9512L25.2812 16.9945L25.2928 17.0373L27.224 16.5173ZM25.8053 12.9333L24.1048 13.986L25.8053 12.9333ZM23.3413 10.3947L24.4313 8.71777L24.4313 8.71777L23.3413 10.3947ZM16.024 10.3947L14.934 8.71777L14.9142 8.73067L14.8946 8.74405L16.024 10.3947ZM13.6347 12.9333L11.9341 11.8806L11.9156 11.9105L11.8982 11.9411L13.6347 12.9333ZM12.216 16.5173L14.1472 17.0373L14.1497 17.0283L14.152 17.0193L12.216 16.5173ZM11.4693 20.4747L13.4571 20.6955L11.4693 20.4747ZM11.1707 24.432L9.17214 24.3551L9.17067 24.3935V24.432H11.1707ZM2.06133 14.8747L0.145681 14.3L0.142999 14.3089L0.140401 14.3179L2.06133 14.8747ZM6.24267 6.51199L7.77911 7.79236L6.24267 6.51199ZM12.2907 2.03199L11.5754 0.16428L11.5686 0.16687L11.5619 0.169508L12.2907 2.03199ZM27.0747 2.03199L26.3459 3.89448L26.3526 3.89712L26.3594 3.89971L27.0747 2.03199ZM33.1973 6.51199L31.6609 7.79236L31.6698 7.80303L31.6788 7.81358L33.1973 6.51199ZM37.3787 14.8747L35.4556 15.4241L35.4603 15.4406L35.4653 15.457L37.3787 14.8747ZM37.3787 40.784L35.4608 40.2167L35.4582 40.2256L35.4556 40.2346L37.3787 40.784ZM33.1973 49.1467L31.6788 47.8451L31.6698 47.8556L31.6609 47.8663L33.1973 49.1467ZM27.0747 53.6267L26.3594 51.759L26.3526 51.7615L26.3459 51.7642L27.0747 53.6267ZM12.2907 53.6267L11.5619 55.4892L11.5686 55.4918L11.5754 55.4944L12.2907 53.6267ZM6.24267 49.1467L7.77911 47.8663L6.24267 49.1467ZM2.06133 40.784L0.136253 41.3263L0.14083 41.3425L0.145681 41.3587L2.06133 40.784ZM9.17067 27.6427C9.17067 29.1771 9.22173 31.0269 9.32216 33.1863L13.3178 33.0004C13.2192 30.8789 13.1707 29.0949 13.1707 27.6427H9.17067ZM9.32226 33.1885C9.42796 35.4081 9.74537 37.5797 10.2757 39.7011L14.1563 38.7309C13.6911 36.8701 13.4112 34.9599 13.3177 32.9982L9.32226 33.1885ZM10.2911 39.7589C10.9047 41.9345 11.8694 43.857 13.2092 45.4881L16.3001 42.9492C15.3502 41.7927 14.6224 40.3801 14.1409 38.6731L10.2911 39.7589ZM13.2092 45.4881C14.8063 47.4324 17.0677 48.3093 19.6827 48.3093V44.3093C18.0167 44.3093 16.9928 43.7925 16.3001 42.9492L13.2092 45.4881ZM19.6827 48.3093C22.3301 48.3093 24.6246 47.4435 26.2308 45.4881L23.1399 42.9492C22.4563 43.7814 21.4157 44.3093 19.6827 44.3093V48.3093ZM26.2038 45.5202C27.6157 43.8731 28.5945 41.9232 29.1613 39.7127L25.2867 38.7192C24.8579 40.3914 24.1443 41.7767 23.1668 42.9171L26.2038 45.5202ZM29.1524 39.7463C29.7396 37.6112 30.0859 35.4243 30.1924 33.1885L26.1969 32.9982C26.1043 34.9437 25.8036 36.8386 25.2956 38.6857L29.1524 39.7463ZM30.1925 33.1863C30.2929 31.0269 30.344 29.1771 30.344 27.6427H26.344C26.344 29.0949 26.2955 30.8789 26.1968 33.0004L30.1925 33.1863ZM30.344 27.6427C30.344 26.712 30.3182 25.6137 30.2677 24.3521L26.2709 24.5119C26.32 25.7391 26.344 26.7813 26.344 27.6427H30.344ZM30.2693 24.432C30.2693 23.035 30.1619 21.6178 29.9491 20.1816L25.9923 20.7678C26.1777 22.0195 26.2693 23.2406 26.2693 24.432H30.2693ZM29.9584 20.2538C29.798 18.8097 29.5303 17.3906 29.1552 15.9974L25.2928 17.0373C25.6146 18.2325 25.8447 19.4516 25.9829 20.6955L29.9584 20.2538ZM29.1764 16.0835C28.8348 14.5465 28.2843 13.1381 27.5059 11.8806L24.1048 13.986C24.6206 14.8193 25.0158 15.8001 25.2716 16.9512L29.1764 16.0835ZM27.5059 11.8806C26.7093 10.5939 25.6827 9.53118 24.4313 8.71777L22.2514 12.0715C22.9911 12.5524 23.6071 13.1821 24.1048 13.986L27.5059 11.8806ZM24.4313 8.71777C23.0473 7.81818 21.429 7.424 19.6827 7.424V11.424C20.8234 11.424 21.6442 11.6769 22.2514 12.0715L24.4313 8.71777ZM19.6827 7.424C17.9363 7.424 16.318 7.81818 14.934 8.71777L17.114 12.0715C17.7211 11.6769 18.5419 11.424 19.6827 11.424V7.424ZM14.8946 8.74405C13.7025 9.55972 12.7171 10.6159 11.9341 11.8806L15.3352 13.986C15.8465 13.1601 16.454 12.5238 17.1534 12.0453L14.8946 8.74405ZM11.8982 11.9411C11.2007 13.1617 10.6663 14.5255 10.28 16.0154L14.152 17.0193C14.4626 15.8212 14.874 14.7956 15.3712 13.9256L11.8982 11.9411ZM10.2848 15.9974C9.90967 17.3906 9.64202 18.8097 9.48157 20.2538L13.4571 20.6955C13.5953 19.4516 13.8254 18.2325 14.1472 17.0373L10.2848 15.9974ZM9.48157 20.2538C9.32715 21.6436 9.22385 23.0107 9.17214 24.3551L13.1692 24.5089C13.217 23.2648 13.3129 21.9938 13.4571 20.6955L9.48157 20.2538ZM9.17067 24.432C9.17067 24.4344 9.17067 24.4369 9.17067 24.4393C9.17067 24.4417 9.17067 24.4441 9.17067 24.4466C9.17067 24.449 9.17067 24.4514 9.17067 24.4539C9.17067 24.4563 9.17067 24.4587 9.17067 24.4611C9.17067 24.4636 9.17067 24.466 9.17067 24.4684C9.17067 24.4708 9.17067 24.4733 9.17067 24.4757C9.17067 24.4781 9.17067 24.4805 9.17067 24.4829C9.17067 24.4854 9.17067 24.4878 9.17067 24.4902C9.17067 24.4926 9.17067 24.495 9.17067 24.4975C9.17067 24.4999 9.17067 24.5023 9.17067 24.5047C9.17067 24.5071 9.17067 24.5095 9.17067 24.512C9.17067 24.5144 9.17067 24.5168 9.17067 24.5192C9.17067 24.5216 9.17067 24.524 9.17067 24.5265C9.17067 24.5289 9.17067 24.5313 9.17067 24.5337C9.17067 24.5361 9.17067 24.5385 9.17067 24.5409C9.17067 24.5433 9.17067 24.5457 9.17067 24.5482C9.17067 24.5506 9.17067 24.553 9.17067 24.5554C9.17067 24.5578 9.17067 24.5602 9.17067 24.5626C9.17067 24.565 9.17067 24.5674 9.17067 24.5698C9.17067 24.5722 9.17067 24.5746 9.17067 24.577C9.17067 24.5794 9.17067 24.5818 9.17067 24.5842C9.17067 24.5866 9.17067 24.589 9.17067 24.5914C9.17067 24.5938 9.17067 24.5962 9.17067 24.5986C9.17067 24.6011 9.17067 24.6035 9.17067 24.6058C9.17067 24.6082 9.17067 24.6106 9.17067 24.613C9.17067 24.6154 9.17067 24.6178 9.17067 24.6202C9.17067 24.6226 9.17067 24.625 9.17067 24.6274C9.17067 24.6298 9.17067 24.6322 9.17067 24.6346C9.17067 24.637 9.17067 24.6394 9.17067 24.6418C9.17067 24.6442 9.17067 24.6466 9.17067 24.649C9.17067 24.6513 9.17067 24.6537 9.17067 24.6561C9.17067 24.6585 9.17067 24.6609 9.17067 24.6633C9.17067 24.6657 9.17067 24.6681 9.17067 24.6704C9.17067 24.6728 9.17067 24.6752 9.17067 24.6776C9.17067 24.68 9.17067 24.6824 9.17067 24.6848C9.17067 24.6871 9.17067 24.6895 9.17067 24.6919C9.17067 24.6943 9.17067 24.6967 9.17067 24.6991C9.17067 24.7014 9.17067 24.7038 9.17067 24.7062C9.17067 24.7086 9.17067 24.711 9.17067 24.7133C9.17067 24.7157 9.17067 24.7181 9.17067 24.7205C9.17067 24.7229 9.17067 24.7252 9.17067 24.7276C9.17067 24.73 9.17067 24.7324 9.17067 24.7347C9.17067 24.7371 9.17067 24.7395 9.17067 24.7419C9.17067 24.7442 9.17067 24.7466 9.17067 24.749C9.17067 24.7513 9.17067 24.7537 9.17067 24.7561C9.17067 24.7585 9.17067 24.7608 9.17067 24.7632C9.17067 24.7656 9.17067 24.7679 9.17067 24.7703C9.17067 24.7727 9.17067 24.775 9.17067 24.7774C9.17067 24.7798 9.17067 24.7821 9.17067 24.7845C9.17067 24.7869 9.17067 24.7892 9.17067 24.7916C9.17067 24.794 9.17067 24.7963 9.17067 24.7987C9.17067 24.801 9.17067 24.8034 9.17067 24.8058C9.17067 24.8081 9.17067 24.8105 9.17067 24.8129C9.17067 24.8152 9.17067 24.8176 9.17067 24.8199C9.17067 24.8223 9.17067 24.8246 9.17067 24.827C9.17067 24.8294 9.17067 24.8317 9.17067 24.8341C9.17067 24.8364 9.17067 24.8388 9.17067 24.8411C9.17067 24.8435 9.17067 24.8459 9.17067 24.8482C9.17067 24.8506 9.17067 24.8529 9.17067 24.8553C9.17067 24.8576 9.17067 24.86 9.17067 24.8623C9.17067 24.8647 9.17067 24.867 9.17067 24.8694C9.17067 24.8717 9.17067 24.8741 9.17067 24.8764C9.17067 24.8788 9.17067 24.8811 9.17067 24.8835C9.17067 24.8858 9.17067 24.8881 9.17067 24.8905C9.17067 24.8928 9.17067 24.8952 9.17067 24.8975C9.17067 24.8999 9.17067 24.9022 9.17067 24.9046C9.17067 24.9069 9.17067 24.9092 9.17067 24.9116C9.17067 24.9139 9.17067 24.9163 9.17067 24.9186C9.17067 24.921 9.17067 24.9233 9.17067 24.9256C9.17067 24.928 9.17067 24.9303 9.17067 24.9326C9.17067 24.935 9.17067 24.9373 9.17067 24.9397C9.17067 24.942 9.17067 24.9443 9.17067 24.9467C9.17067 24.949 9.17067 24.9513 9.17067 24.9537C9.17067 24.956 9.17067 24.9583 9.17067 24.9607C9.17067 24.963 9.17067 24.9653 9.17067 24.9677C9.17067 24.97 9.17067 24.9723 9.17067 24.9746C9.17067 24.977 9.17067 24.9793 9.17067 24.9816C9.17067 24.984 9.17067 24.9863 9.17067 24.9886C9.17067 24.9909 9.17067 24.9933 9.17067 24.9956C9.17067 24.9979 9.17067 25.0002 9.17067 25.0026C9.17067 25.0049 9.17067 25.0072 9.17067 25.0095C9.17067 25.0119 9.17067 25.0142 9.17067 25.0165C9.17067 25.0188 9.17067 25.0211 9.17067 25.0235C9.17067 25.0258 9.17067 25.0281 9.17067 25.0304C9.17067 25.0327 9.17067 25.0351 9.17067 25.0374C9.17067 25.0397 9.17067 25.042 9.17067 25.0443C9.17067 25.0466 9.17067 25.049 9.17067 25.0513C9.17067 25.0536 9.17067 25.0559 9.17067 25.0582C9.17067 25.0605 9.17067 25.0629 9.17067 25.0652C9.17067 25.0675 9.17067 25.0698 9.17067 25.0721C9.17067 25.0744 9.17067 25.0767 9.17067 25.079C9.17067 25.0813 9.17067 25.0836 9.17067 25.086C9.17067 25.0883 9.17067 25.0906 9.17067 25.0929C9.17067 25.0952 9.17067 25.0975 9.17067 25.0998C9.17067 25.1021 9.17067 25.1044 9.17067 25.1067C9.17067 25.109 9.17067 25.1113 9.17067 25.1136C9.17067 25.1159 9.17067 25.1182 9.17067 25.1205C9.17067 25.1228 9.17067 25.1251 9.17067 25.1274C9.17067 25.1297 9.17067 25.132 9.17067 25.1343C9.17067 25.1366 9.17067 25.1389 9.17067 25.1412C9.17067 25.1435 9.17067 25.1458 9.17067 25.1481C9.17067 25.1504 9.17067 25.1527 9.17067 25.155C9.17067 25.1573 9.17067 25.1596 9.17067 25.1619C9.17067 25.1642 9.17067 25.1665 9.17067 25.1688C9.17067 25.1711 9.17067 25.1733 9.17067 25.1756C9.17067 25.1779 9.17067 25.1802 9.17067 25.1825C9.17067 25.1848 9.17067 25.1871 9.17067 25.1894C9.17067 25.1917 9.17067 25.194 9.17067 25.1962C9.17067 25.1985 9.17067 25.2008 9.17067 25.2031C9.17067 25.2054 9.17067 25.2077 9.17067 25.21C9.17067 25.2122 9.17067 25.2145 9.17067 25.2168C9.17067 25.2191 9.17067 25.2214 9.17067 25.2237C9.17067 25.2259 9.17067 25.2282 9.17067 25.2305C9.17067 25.2328 9.17067 25.2351 9.17067 25.2373C9.17067 25.2396 9.17067 25.2419 9.17067 25.2442C9.17067 25.2464 9.17067 25.2487 9.17067 25.251C9.17067 25.2533 9.17067 25.2556 9.17067 25.2578C9.17067 25.2601 9.17067 25.2624 9.17067 25.2647C9.17067 25.2669 9.17067 25.2692 9.17067 25.2715C9.17067 25.2737 9.17067 25.276 9.17067 25.2783C9.17067 25.2806 9.17067 25.2828 9.17067 25.2851C9.17067 25.2874 9.17067 25.2896 9.17067 25.2919C9.17067 25.2942 9.17067 25.2964 9.17067 25.2987C9.17067 25.301 9.17067 25.3032 9.17067 25.3055C9.17067 25.3078 9.17067 25.31 9.17067 25.3123C9.17067 25.3146 9.17067 25.3168 9.17067 25.3191C9.17067 25.3214 9.17067 25.3236 9.17067 25.3259C9.17067 25.3281 9.17067 25.3304 9.17067 25.3327C9.17067 25.3349 9.17067 25.3372 9.17067 25.3394C9.17067 25.3417 9.17067 25.344 9.17067 25.3462C9.17067 25.3485 9.17067 25.3507 9.17067 25.353C9.17067 25.3552 9.17067 25.3575 9.17067 25.3598C9.17067 25.362 9.17067 25.3643 9.17067 25.3665C9.17067 25.3688 9.17067 25.371 9.17067 25.3733C9.17067 25.3755 9.17067 25.3778 9.17067 25.38C9.17067 25.3823 9.17067 25.3845 9.17067 25.3868C9.17067 25.389 9.17067 25.3913 9.17067 25.3935C9.17067 25.3958 9.17067 25.398 9.17067 25.4003C9.17067 25.4025 9.17067 25.4048 9.17067 25.407C9.17067 25.4093 9.17067 25.4115 9.17067 25.4137C9.17067 25.416 9.17067 25.4182 9.17067 25.4205C9.17067 25.4227 9.17067 25.425 9.17067 25.4272C9.17067 25.4295 9.17067 25.4317 9.17067 25.4339C9.17067 25.4362 9.17067 25.4384 9.17067 25.4407C9.17067 25.4429 9.17067 25.4451 9.17067 25.4474C9.17067 25.4496 9.17067 25.4518 9.17067 25.4541C9.17067 25.4563 9.17067 25.4586 9.17067 25.4608C9.17067 25.463 9.17067 25.4653 9.17067 25.4675C9.17067 25.4697 9.17067 25.472 9.17067 25.4742C9.17067 25.4764 9.17067 25.4787 9.17067 25.4809C9.17067 25.4831 9.17067 25.4853 9.17067 25.4876C9.17067 25.4898 9.17067 25.492 9.17067 25.4943C9.17067 25.4965 9.17067 25.4987 9.17067 25.5009C9.17067 25.5032 9.17067 25.5054 9.17067 25.5076C9.17067 25.5099 9.17067 25.5121 9.17067 25.5143C9.17067 25.5165 9.17067 25.5188 9.17067 25.521C9.17067 25.5232 9.17067 25.5254 9.17067 25.5276C9.17067 25.5299 9.17067 25.5321 9.17067 25.5343C9.17067 25.5365 9.17067 25.5387 9.17067 25.541C9.17067 25.5432 9.17067 25.5454 9.17067 25.5476C9.17067 25.5498 9.17067 25.5521 9.17067 25.5543C9.17067 25.5565 9.17067 25.5587 9.17067 25.5609C9.17067 25.5631 9.17067 25.5653 9.17067 25.5676C9.17067 25.5698 9.17067 25.572 9.17067 25.5742C9.17067 25.5764 9.17067 25.5786 9.17067 25.5808C9.17067 25.583 9.17067 25.5853 9.17067 25.5875C9.17067 25.5897 9.17067 25.5919 9.17067 25.5941C9.17067 25.5963 9.17067 25.5985 9.17067 25.6007C9.17067 25.6029 9.17067 25.6051 9.17067 25.6073C9.17067 25.6095 9.17067 25.6118 9.17067 25.614C9.17067 25.6162 9.17067 25.6184 9.17067 25.6206C9.17067 25.6228 9.17067 25.625 9.17067 25.6272C9.17067 25.6294 9.17067 25.6316 9.17067 25.6338C9.17067 25.636 9.17067 25.6382 9.17067 25.6404C9.17067 25.6426 9.17067 25.6448 9.17067 25.647C9.17067 25.6492 9.17067 25.6514 9.17067 25.6536C9.17067 25.6558 9.17067 25.658 9.17067 25.6602C9.17067 25.6624 9.17067 25.6645 9.17067 25.6667C9.17067 25.6689 9.17067 25.6711 9.17067 25.6733C9.17067 25.6755 9.17067 25.6777 9.17067 25.6799C9.17067 25.6821 9.17067 25.6843 9.17067 25.6865C9.17067 25.6887 9.17067 25.6908 9.17067 25.693C9.17067 25.6952 9.17067 25.6974 9.17067 25.6996C9.17067 25.7018 9.17067 25.704 9.17067 25.7062C9.17067 25.7083 9.17067 25.7105 9.17067 25.7127C9.17067 25.7149 9.17067 25.7171 9.17067 25.7193C9.17067 25.7215 9.17067 25.7236 9.17067 25.7258C9.17067 25.728 9.17067 25.7302 9.17067 25.7324C9.17067 25.7345 9.17067 25.7367 9.17067 25.7389C9.17067 25.7411 9.17067 25.7433 9.17067 25.7454C9.17067 25.7476 9.17067 25.7498 9.17067 25.752C9.17067 25.7541 9.17067 25.7563 9.17067 25.7585C9.17067 25.7607 9.17067 25.7628 9.17067 25.765C9.17067 25.7672 9.17067 25.7694 9.17067 25.7715C9.17067 25.7737 9.17067 25.7759 9.17067 25.7781C9.17067 25.7802 9.17067 25.7824 9.17067 25.7846C9.17067 25.7867 9.17067 25.7889 9.17067 25.7911C9.17067 25.7932 9.17067 25.7954 9.17067 25.7976C9.17067 25.7997 9.17067 25.8019 9.17067 25.8041C9.17067 25.8062 9.17067 25.8084 9.17067 25.8106C9.17067 25.8127 9.17067 25.8149 9.17067 25.8171C9.17067 25.8192 9.17067 25.8214 9.17067 25.8236C9.17067 25.8257 9.17067 25.8279 9.17067 25.83C9.17067 25.8322 9.17067 25.8344 9.17067 25.8365C9.17067 25.8387 9.17067 25.8408 9.17067 25.843C9.17067 25.8452 9.17067 25.8473 9.17067 25.8495C9.17067 25.8516 9.17067 25.8538 9.17067 25.8559C9.17067 25.8581 9.17067 25.8602 9.17067 25.8624C9.17067 25.8646 9.17067 25.8667 9.17067 25.8689C9.17067 25.871 9.17067 25.8732 9.17067 25.8753C9.17067 25.8775 9.17067 25.8796 9.17067 25.8818C9.17067 25.8839 9.17067 25.8861 9.17067 25.8882C9.17067 25.8904 9.17067 25.8925 9.17067 25.8947C9.17067 25.8968 9.17067 25.899 9.17067 25.9011C9.17067 25.9033 9.17067 25.9054 9.17067 25.9075C9.17067 25.9097 9.17067 25.9118 9.17067 25.914C9.17067 25.9161 9.17067 25.9183 9.17067 25.9204C9.17067 25.9225 9.17067 25.9247 9.17067 25.9268C9.17067 25.929 9.17067 25.9311 9.17067 25.9332C9.17067 25.9354 9.17067 25.9375 9.17067 25.9397C9.17067 25.9418 9.17067 25.9439 9.17067 25.9461C9.17067 25.9482 9.17067 25.9503 9.17067 25.9525C9.17067 25.9546 9.17067 25.9568 9.17067 25.9589C9.17067 25.961 9.17067 25.9632 9.17067 25.9653C9.17067 25.9674 9.17067 25.9696 9.17067 25.9717C9.17067 25.9738 9.17067 25.9759 9.17067 25.9781C9.17067 25.9802 9.17067 25.9823 9.17067 25.9845C9.17067 25.9866 9.17067 25.9887 9.17067 25.9908C9.17067 25.993 9.17067 25.9951 9.17067 25.9972C9.17067 25.9994 9.17067 26.0015 9.17067 26.0036C9.17067 26.0057 9.17067 26.0079 9.17067 26.01C9.17067 26.0121 9.17067 26.0142 9.17067 26.0163C9.17067 26.0185 9.17067 26.0206 9.17067 26.0227C9.17067 26.0248 9.17067 26.027 9.17067 26.0291C9.17067 26.0312 9.17067 26.0333 9.17067 26.0354C9.17067 26.0375 9.17067 26.0397 9.17067 26.0418C9.17067 26.0439 9.17067 26.046 9.17067 26.0481C9.17067 26.0502 9.17067 26.0524 9.17067 26.0545C9.17067 26.0566 9.17067 26.0587 9.17067 26.0608C9.17067 26.0629 9.17067 26.065 9.17067 26.0672C9.17067 26.0693 9.17067 26.0714 9.17067 26.0735C9.17067 26.0756 9.17067 26.0777 9.17067 26.0798C9.17067 26.0819 9.17067 26.084 9.17067 26.0861C9.17067 26.0882 9.17067 26.0904 9.17067 26.0925C9.17067 26.0946 9.17067 26.0967 9.17067 26.0988C9.17067 26.1009 9.17067 26.103 9.17067 26.1051C9.17067 26.1072 9.17067 26.1093 9.17067 26.1114C9.17067 26.1135 9.17067 26.1156 9.17067 26.1177C9.17067 26.1198 9.17067 26.1219 9.17067 26.124C9.17067 26.1261 9.17067 26.1282 9.17067 26.1303C9.17067 26.1324 9.17067 26.1345 9.17067 26.1366C9.17067 26.1387 9.17067 26.1408 9.17067 26.1429C9.17067 26.145 9.17067 26.1471 9.17067 26.1492C9.17067 26.1513 9.17067 26.1534 9.17067 26.1554C9.17067 26.1575 9.17067 26.1596 9.17067 26.1617C9.17067 26.1638 9.17067 26.1659 9.17067 26.168C9.17067 26.1701 9.17067 26.1722 9.17067 26.1743C9.17067 26.1764 9.17067 26.1784 9.17067 26.1805C9.17067 26.1826 9.17067 26.1847 9.17067 26.1868C9.17067 26.1889 9.17067 26.191 9.17067 26.193C9.17067 26.1951 9.17067 26.1972 9.17067 26.1993C9.17067 26.2014 9.17067 26.2035 9.17067 26.2056C9.17067 26.2076 9.17067 26.2097 9.17067 26.2118C9.17067 26.2139 9.17067 26.216 9.17067 26.218C9.17067 26.2201 9.17067 26.2222 9.17067 26.2243C9.17067 26.2264 9.17067 26.2284 9.17067 26.2305C9.17067 26.2326 9.17067 26.2347 9.17067 26.2367C9.17067 26.2388 9.17067 26.2409 9.17067 26.243C9.17067 26.245 9.17067 26.2471 9.17067 26.2492C9.17067 26.2513 9.17067 26.2533 9.17067 26.2554C9.17067 26.2575 9.17067 26.2595 9.17067 26.2616C9.17067 26.2637 9.17067 26.2658 9.17067 26.2678C9.17067 26.2699 9.17067 26.272 9.17067 26.274C9.17067 26.2761 9.17067 26.2782 9.17067 26.2802C9.17067 26.2823 9.17067 26.2844 9.17067 26.2864C9.17067 26.2885 9.17067 26.2906 9.17067 26.2926C9.17067 26.2947 9.17067 26.2967 9.17067 26.2988C9.17067 26.3009 9.17067 26.3029 9.17067 26.305C9.17067 26.3071 9.17067 26.3091 9.17067 26.3112C9.17067 26.3132 9.17067 26.3153 9.17067 26.3173C9.17067 26.3194 9.17067 26.3215 9.17067 26.3235C9.17067 26.3256 9.17067 26.3276 9.17067 26.3297C9.17067 26.3317 9.17067 26.3338 9.17067 26.3359C9.17067 26.3379 9.17067 26.34 9.17067 26.342C9.17067 26.3441 9.17067 26.3461 9.17067 26.3482C9.17067 26.3502 9.17067 26.3523 9.17067 26.3543C9.17067 26.3564 9.17067 26.3584 9.17067 26.3605C9.17067 26.3625 9.17067 26.3646 9.17067 26.3666C9.17067 26.3687 9.17067 26.3707 9.17067 26.3728C9.17067 26.3748 9.17067 26.3769 9.17067 26.3789C9.17067 26.3809 9.17067 26.383 9.17067 26.385C9.17067 26.3871 9.17067 26.3891 9.17067 26.3912C9.17067 26.3932 9.17067 26.3952 9.17067 26.3973C9.17067 26.3993 9.17067 26.4014 9.17067 26.4034C9.17067 26.4054 9.17067 26.4075 9.17067 26.4095C9.17067 26.4116 9.17067 26.4136 9.17067 26.4156C9.17067 26.4177 9.17067 26.4197 9.17067 26.4217C9.17067 26.4238 9.17067 26.4258 9.17067 26.4279C9.17067 26.4299 9.17067 26.4319 9.17067 26.434C9.17067 26.436 9.17067 26.438 9.17067 26.4401C9.17067 26.4421 9.17067 26.4441 9.17067 26.4461C9.17067 26.4482 9.17067 26.4502 9.17067 26.4522C9.17067 26.4543 9.17067 26.4563 9.17067 26.4583C9.17067 26.4604 9.17067 26.4624 9.17067 26.4644C9.17067 26.4664 9.17067 26.4685 9.17067 26.4705C9.17067 26.4725 9.17067 26.4745 9.17067 26.4766C9.17067 26.4786 9.17067 26.4806 9.17067 26.4826C9.17067 26.4846 9.17067 26.4867 9.17067 26.4887C9.17067 26.4907 9.17067 26.4927 9.17067 26.4948C9.17067 26.4968 9.17067 26.4988 9.17067 26.5008C9.17067 26.5028 9.17067 26.5048 9.17067 26.5069C9.17067 26.5089 9.17067 26.5109 9.17067 26.5129C9.17067 26.5149 9.17067 26.5169 9.17067 26.519C9.17067 26.521 9.17067 26.523 9.17067 26.525C9.17067 26.527 9.17067 26.529 9.17067 26.531C9.17067 26.533 9.17067 26.5351 9.17067 26.5371C9.17067 26.5391 9.17067 26.5411 9.17067 26.5431C9.17067 26.5451 9.17067 26.5471 9.17067 26.5491C9.17067 26.5511 9.17067 26.5531 9.17067 26.5551C9.17067 26.5572 9.17067 26.5592 9.17067 26.5612C9.17067 26.5632 9.17067 26.5652 9.17067 26.5672C9.17067 26.5692 9.17067 26.5712 9.17067 26.5732C9.17067 26.5752 9.17067 26.5772 9.17067 26.5792C9.17067 26.5812 9.17067 26.5832 9.17067 26.5852C9.17067 26.5872 9.17067 26.5892 9.17067 26.5912C9.17067 26.5932 9.17067 26.5952 9.17067 26.5972C9.17067 26.5992 9.17067 26.6012 9.17067 26.6032C9.17067 26.6052 9.17067 26.6072 9.17067 26.6092C9.17067 26.6112 9.17067 26.6131 9.17067 26.6151C9.17067 26.6171 9.17067 26.6191 9.17067 26.6211C9.17067 26.6231 9.17067 26.6251 9.17067 26.6271C9.17067 26.6291 9.17067 26.6311 9.17067 26.6331C9.17067 26.6351 9.17067 26.637 9.17067 26.639C9.17067 26.641 9.17067 26.643 9.17067 26.645C9.17067 26.647 9.17067 26.649 9.17067 26.6509C9.17067 26.6529 9.17067 26.6549 9.17067 26.6569C9.17067 26.6589 9.17067 26.6609 9.17067 26.6629C9.17067 26.6648 9.17067 26.6668 9.17067 26.6688C9.17067 26.6708 9.17067 26.6728 9.17067 26.6747C9.17067 26.6767 9.17067 26.6787 9.17067 26.6807C9.17067 26.6827 9.17067 26.6846 9.17067 26.6866C9.17067 26.6886 9.17067 26.6906 9.17067 26.6925C9.17067 26.6945 9.17067 26.6965 9.17067 26.6985C9.17067 26.7004 9.17067 26.7024 9.17067 26.7044C9.17067 26.7064 9.17067 26.7083 9.17067 26.7103C9.17067 26.7123 9.17067 26.7143 9.17067 26.7162C9.17067 26.7182 9.17067 26.7202 9.17067 26.7221C9.17067 26.7241 9.17067 26.7261 9.17067 26.728C9.17067 26.73 9.17067 26.732 9.17067 26.7339C9.17067 26.7359 9.17067 26.7379 9.17067 26.7398C9.17067 26.7418 9.17067 26.7438 9.17067 26.7457C9.17067 26.7477 9.17067 26.7497 9.17067 26.7516C9.17067 26.7536 9.17067 26.7555 9.17067 26.7575C9.17067 26.7595 9.17067 26.7614 9.17067 26.7634C9.17067 26.7654 9.17067 26.7673 9.17067 26.7693C9.17067 26.7712 9.17067 26.7732 9.17067 26.7751C9.17067 26.7771 9.17067 26.7791 9.17067 26.781C9.17067 26.783 9.17067 26.7849 9.17067 26.7869C9.17067 26.7888 9.17067 26.7908 9.17067 26.7927C9.17067 26.7947 9.17067 26.7966 9.17067 26.7986C9.17067 26.8005 9.17067 26.8025 9.17067 26.8045C9.17067 26.8064 9.17067 26.8084 9.17067 26.8103C9.17067 26.8123 9.17067 26.8142 9.17067 26.8161C9.17067 26.8181 9.17067 26.82 9.17067 26.822C9.17067 26.8239 9.17067 26.8259 9.17067 26.8278C9.17067 26.8298 9.17067 26.8317 9.17067 26.8337C9.17067 26.8356 9.17067 26.8376 9.17067 26.8395C9.17067 26.8414 9.17067 26.8434 9.17067 26.8453C9.17067 26.8473 9.17067 26.8492 9.17067 26.8511C9.17067 26.8531 9.17067 26.855 9.17067 26.857C9.17067 26.8589 9.17067 26.8608 9.17067 26.8628C9.17067 26.8647 9.17067 26.8666 9.17067 26.8686C9.17067 26.8705 9.17067 26.8725 9.17067 26.8744C9.17067 26.8763 9.17067 26.8783 9.17067 26.8802C9.17067 26.8821 9.17067 26.8841 9.17067 26.886C9.17067 26.8879 9.17067 26.8899 9.17067 26.8918C9.17067 26.8937 9.17067 26.8956 9.17067 26.8976C9.17067 26.8995 9.17067 26.9014 9.17067 26.9034C9.17067 26.9053 9.17067 26.9072 9.17067 26.9091C9.17067 26.9111 9.17067 26.913 9.17067 26.9149C9.17067 26.9168 9.17067 26.9188 9.17067 26.9207C9.17067 26.9226 9.17067 26.9245 9.17067 26.9265C9.17067 26.9284 9.17067 26.9303 9.17067 26.9322C9.17067 26.9342 9.17067 26.9361 9.17067 26.938C9.17067 26.9399 9.17067 26.9418 9.17067 26.9438C9.17067 26.9457 9.17067 26.9476 9.17067 26.9495C9.17067 26.9514 9.17067 26.9533 9.17067 26.9553C9.17067 26.9572 9.17067 26.9591 9.17067 26.961C9.17067 26.9629 9.17067 26.9648 9.17067 26.9667C9.17067 26.9687 9.17067 26.9706 9.17067 26.9725C9.17067 26.9744 9.17067 26.9763 9.17067 26.9782C9.17067 26.9801 9.17067 26.982 9.17067 26.984C9.17067 26.9859 9.17067 26.9878 9.17067 26.9897C9.17067 26.9916 9.17067 26.9935 9.17067 26.9954C9.17067 26.9973 9.17067 26.9992 9.17067 27.0011C9.17067 27.003 9.17067 27.0049 9.17067 27.0068C9.17067 27.0087 9.17067 27.0106 9.17067 27.0125C9.17067 27.0144 9.17067 27.0163 9.17067 27.0183C9.17067 27.0202 9.17067 27.0221 9.17067 27.024C9.17067 27.0259 9.17067 27.0278 9.17067 27.0297C9.17067 27.0316 9.17067 27.0335 9.17067 27.0353C9.17067 27.0372 9.17067 27.0391 9.17067 27.041C9.17067 27.0429 9.17067 27.0448 9.17067 27.0467C9.17067 27.0486 9.17067 27.0505 9.17067 27.0524C9.17067 27.0543 9.17067 27.0562 9.17067 27.0581C9.17067 27.06 9.17067 27.0619 9.17067 27.0638C9.17067 27.0657 9.17067 27.0675 9.17067 27.0694C9.17067 27.0713 9.17067 27.0732 9.17067 27.0751C9.17067 27.077 9.17067 27.0789 9.17067 27.0808C9.17067 27.0826 9.17067 27.0845 9.17067 27.0864C9.17067 27.0883 9.17067 27.0902 9.17067 27.0921C9.17067 27.094 9.17067 27.0958 9.17067 27.0977C9.17067 27.0996 9.17067 27.1015 9.17067 27.1034C9.17067 27.1053 9.17067 27.1071 9.17067 27.109C9.17067 27.1109 9.17067 27.1128 9.17067 27.1147C9.17067 27.1165 9.17067 27.1184 9.17067 27.1203C9.17067 27.1222 9.17067 27.124 9.17067 27.1259C9.17067 27.1278 9.17067 27.1297 9.17067 27.1315C9.17067 27.1334 9.17067 27.1353 9.17067 27.1372C9.17067 27.139 9.17067 27.1409 9.17067 27.1428C9.17067 27.1447 9.17067 27.1465 9.17067 27.1484C9.17067 27.1503 9.17067 27.1521 9.17067 27.154C9.17067 27.1559 9.17067 27.1578 9.17067 27.1596C9.17067 27.1615 9.17067 27.1634 9.17067 27.1652C9.17067 27.1671 9.17067 27.169 9.17067 27.1708C9.17067 27.1727 9.17067 27.1746 9.17067 27.1764C9.17067 27.1783 9.17067 27.1801 9.17067 27.182C9.17067 27.1839 9.17067 27.1857 9.17067 27.1876C9.17067 27.1895 9.17067 27.1913 9.17067 27.1932C9.17067 27.195 9.17067 27.1969 9.17067 27.1988C9.17067 27.2006 9.17067 27.2025 9.17067 27.2043C9.17067 27.2062 9.17067 27.208 9.17067 27.2099C9.17067 27.2118 9.17067 27.2136 9.17067 27.2155C9.17067 27.2173 9.17067 27.2192 9.17067 27.221C9.17067 27.2229 9.17067 27.2247 9.17067 27.2266C9.17067 27.2284 9.17067 27.2303 9.17067 27.2321C9.17067 27.234 9.17067 27.2358 9.17067 27.2377C9.17067 27.2395 9.17067 27.2414 9.17067 27.2432C9.17067 27.2451 9.17067 27.2469 9.17067 27.2488C9.17067 27.2506 9.17067 27.2525 9.17067 27.2543C9.17067 27.2562 9.17067 27.258 9.17067 27.2599C9.17067 27.2617 9.17067 27.2635 9.17067 27.2654C9.17067 27.2672 9.17067 27.2691 9.17067 27.2709C9.17067 27.2728 9.17067 27.2746 9.17067 27.2764C9.17067 27.2783 9.17067 27.2801 9.17067 27.282C9.17067 27.2838 9.17067 27.2856 9.17067 27.2875C9.17067 27.2893 9.17067 27.2912 9.17067 27.293C9.17067 27.2948 9.17067 27.2967 9.17067 27.2985C9.17067 27.3003 9.17067 27.3022 9.17067 27.304C9.17067 27.3058 9.17067 27.3077 9.17067 27.3095C9.17067 27.3113 9.17067 27.3132 9.17067 27.315C9.17067 27.3168 9.17067 27.3187 9.17067 27.3205C9.17067 27.3223 9.17067 27.3241 9.17067 27.326C9.17067 27.3278 9.17067 27.3296 9.17067 27.3315C9.17067 27.3333 9.17067 27.3351 9.17067 27.3369C9.17067 27.3388 9.17067 27.3406 9.17067 27.3424C9.17067 27.3442 9.17067 27.3461 9.17067 27.3479C9.17067 27.3497 9.17067 27.3515 9.17067 27.3533C9.17067 27.3552 9.17067 27.357 9.17067 27.3588C9.17067 27.3606 9.17067 27.3625 9.17067 27.3643C9.17067 27.3661 9.17067 27.3679 9.17067 27.3697C9.17067 27.3715 9.17067 27.3734 9.17067 27.3752C9.17067 27.377 9.17067 27.3788 9.17067 27.3806C9.17067 27.3824 9.17067 27.3843 9.17067 27.3861C9.17067 27.3879 9.17067 27.3897 9.17067 27.3915C9.17067 27.3933 9.17067 27.3951 9.17067 27.3969C9.17067 27.3988 9.17067 27.4006 9.17067 27.4024C9.17067 27.4042 9.17067 27.406 9.17067 27.4078C9.17067 27.4096 9.17067 27.4114 9.17067 27.4132C9.17067 27.415 9.17067 27.4168 9.17067 27.4186C9.17067 27.4205 9.17067 27.4223 9.17067 27.4241C9.17067 27.4259 9.17067 27.4277 9.17067 27.4295C9.17067 27.4313 9.17067 27.4331 9.17067 27.4349C9.17067 27.4367 9.17067 27.4385 9.17067 27.4403C9.17067 27.4421 9.17067 27.4439 9.17067 27.4457C9.17067 27.4475 9.17067 27.4493 9.17067 27.4511C9.17067 27.4529 9.17067 27.4547 9.17067 27.4565C9.17067 27.4583 9.17067 27.4601 9.17067 27.4619C9.17067 27.4637 9.17067 27.4655 9.17067 27.4672C9.17067 27.469 9.17067 27.4708 9.17067 27.4726C9.17067 27.4744 9.17067 27.4762 9.17067 27.478C9.17067 27.4798 9.17067 27.4816 9.17067 27.4834C9.17067 27.4852 9.17067 27.4869 9.17067 27.4887C9.17067 27.4905 9.17067 27.4923 9.17067 27.4941C9.17067 27.4959 9.17067 27.4977 9.17067 27.4995C9.17067 27.5012 9.17067 27.503 9.17067 27.5048C9.17067 27.5066 9.17067 27.5084 9.17067 27.5102C9.17067 27.512 9.17067 27.5137 9.17067 27.5155C9.17067 27.5173 9.17067 27.5191 9.17067 27.5209C9.17067 27.5226 9.17067 27.5244 9.17067 27.5262C9.17067 27.528 9.17067 27.5298 9.17067 27.5315C9.17067 27.5333 9.17067 27.5351 9.17067 27.5369C9.17067 27.5386 9.17067 27.5404 9.17067 27.5422C9.17067 27.544 9.17067 27.5457 9.17067 27.5475C9.17067 27.5493 9.17067 27.5511 9.17067 27.5528C9.17067 27.5546 9.17067 27.5564 9.17067 27.5582C9.17067 27.5599 9.17067 27.5617 9.17067 27.5635C9.17067 27.5652 9.17067 27.567 9.17067 27.5688C9.17067 27.5705 9.17067 27.5723 9.17067 27.5741C9.17067 27.5758 9.17067 27.5776 9.17067 27.5794C9.17067 27.5811 9.17067 27.5829 9.17067 27.5847C9.17067 27.5864 9.17067 27.5882 9.17067 27.59C9.17067 27.5917 9.17067 27.5935 9.17067 27.5953C9.17067 27.597 9.17067 27.5988 9.17067 27.6005C9.17067 27.6023 9.17067 27.6041 9.17067 27.6058C9.17067 27.6076 9.17067 27.6093 9.17067 27.6111C9.17067 27.6129 9.17067 27.6146 9.17067 27.6164C9.17067 27.6181 9.17067 27.6199 9.17067 27.6216C9.17067 27.6234 9.17067 27.6251 9.17067 27.6269C9.17067 27.6287 9.17067 27.6304 9.17067 27.6322C9.17067 27.6339 9.17067 27.6357 9.17067 27.6374C9.17067 27.6392 9.17067 27.6409 9.17067 27.6427H13.1707C13.1707 27.6409 13.1707 27.6392 13.1707 27.6374C13.1707 27.6357 13.1707 27.6339 13.1707 27.6322C13.1707 27.6304 13.1707 27.6287 13.1707 27.6269C13.1707 27.6251 13.1707 27.6234 13.1707 27.6216C13.1707 27.6199 13.1707 27.6181 13.1707 27.6164C13.1707 27.6146 13.1707 27.6129 13.1707 27.6111C13.1707 27.6093 13.1707 27.6076 13.1707 27.6058C13.1707 27.6041 13.1707 27.6023 13.1707 27.6005C13.1707 27.5988 13.1707 27.597 13.1707 27.5953C13.1707 27.5935 13.1707 27.5917 13.1707 27.59C13.1707 27.5882 13.1707 27.5864 13.1707 27.5847C13.1707 27.5829 13.1707 27.5811 13.1707 27.5794C13.1707 27.5776 13.1707 27.5758 13.1707 27.5741C13.1707 27.5723 13.1707 27.5705 13.1707 27.5688C13.1707 27.567 13.1707 27.5652 13.1707 27.5635C13.1707 27.5617 13.1707 27.5599 13.1707 27.5582C13.1707 27.5564 13.1707 27.5546 13.1707 27.5528C13.1707 27.5511 13.1707 27.5493 13.1707 27.5475C13.1707 27.5457 13.1707 27.544 13.1707 27.5422C13.1707 27.5404 13.1707 27.5386 13.1707 27.5369C13.1707 27.5351 13.1707 27.5333 13.1707 27.5315C13.1707 27.5298 13.1707 27.528 13.1707 27.5262C13.1707 27.5244 13.1707 27.5226 13.1707 27.5209C13.1707 27.5191 13.1707 27.5173 13.1707 27.5155C13.1707 27.5137 13.1707 27.512 13.1707 27.5102C13.1707 27.5084 13.1707 27.5066 13.1707 27.5048C13.1707 27.503 13.1707 27.5012 13.1707 27.4995C13.1707 27.4977 13.1707 27.4959 13.1707 27.4941C13.1707 27.4923 13.1707 27.4905 13.1707 27.4887C13.1707 27.4869 13.1707 27.4852 13.1707 27.4834C13.1707 27.4816 13.1707 27.4798 13.1707 27.478C13.1707 27.4762 13.1707 27.4744 13.1707 27.4726C13.1707 27.4708 13.1707 27.469 13.1707 27.4672C13.1707 27.4655 13.1707 27.4637 13.1707 27.4619C13.1707 27.4601 13.1707 27.4583 13.1707 27.4565C13.1707 27.4547 13.1707 27.4529 13.1707 27.4511C13.1707 27.4493 13.1707 27.4475 13.1707 27.4457C13.1707 27.4439 13.1707 27.4421 13.1707 27.4403C13.1707 27.4385 13.1707 27.4367 13.1707 27.4349C13.1707 27.4331 13.1707 27.4313 13.1707 27.4295C13.1707 27.4277 13.1707 27.4259 13.1707 27.4241C13.1707 27.4223 13.1707 27.4205 13.1707 27.4186C13.1707 27.4168 13.1707 27.415 13.1707 27.4132C13.1707 27.4114 13.1707 27.4096 13.1707 27.4078C13.1707 27.406 13.1707 27.4042 13.1707 27.4024C13.1707 27.4006 13.1707 27.3988 13.1707 27.3969C13.1707 27.3951 13.1707 27.3933 13.1707 27.3915C13.1707 27.3897 13.1707 27.3879 13.1707 27.3861C13.1707 27.3843 13.1707 27.3824 13.1707 27.3806C13.1707 27.3788 13.1707 27.377 13.1707 27.3752C13.1707 27.3734 13.1707 27.3715 13.1707 27.3697C13.1707 27.3679 13.1707 27.3661 13.1707 27.3643C13.1707 27.3625 13.1707 27.3606 13.1707 27.3588C13.1707 27.357 13.1707 27.3552 13.1707 27.3533C13.1707 27.3515 13.1707 27.3497 13.1707 27.3479C13.1707 27.3461 13.1707 27.3442 13.1707 27.3424C13.1707 27.3406 13.1707 27.3388 13.1707 27.3369C13.1707 27.3351 13.1707 27.3333 13.1707 27.3315C13.1707 27.3296 13.1707 27.3278 13.1707 27.326C13.1707 27.3241 13.1707 27.3223 13.1707 27.3205C13.1707 27.3187 13.1707 27.3168 13.1707 27.315C13.1707 27.3132 13.1707 27.3113 13.1707 27.3095C13.1707 27.3077 13.1707 27.3058 13.1707 27.304C13.1707 27.3022 13.1707 27.3003 13.1707 27.2985C13.1707 27.2967 13.1707 27.2948 13.1707 27.293C13.1707 27.2912 13.1707 27.2893 13.1707 27.2875C13.1707 27.2856 13.1707 27.2838 13.1707 27.282C13.1707 27.2801 13.1707 27.2783 13.1707 27.2764C13.1707 27.2746 13.1707 27.2728 13.1707 27.2709C13.1707 27.2691 13.1707 27.2672 13.1707 27.2654C13.1707 27.2635 13.1707 27.2617 13.1707 27.2599C13.1707 27.258 13.1707 27.2562 13.1707 27.2543C13.1707 27.2525 13.1707 27.2506 13.1707 27.2488C13.1707 27.2469 13.1707 27.2451 13.1707 27.2432C13.1707 27.2414 13.1707 27.2395 13.1707 27.2377C13.1707 27.2358 13.1707 27.234 13.1707 27.2321C13.1707 27.2303 13.1707 27.2284 13.1707 27.2266C13.1707 27.2247 13.1707 27.2229 13.1707 27.221C13.1707 27.2192 13.1707 27.2173 13.1707 27.2155C13.1707 27.2136 13.1707 27.2118 13.1707 27.2099C13.1707 27.208 13.1707 27.2062 13.1707 27.2043C13.1707 27.2025 13.1707 27.2006 13.1707 27.1988C13.1707 27.1969 13.1707 27.195 13.1707 27.1932C13.1707 27.1913 13.1707 27.1895 13.1707 27.1876C13.1707 27.1857 13.1707 27.1839 13.1707 27.182C13.1707 27.1801 13.1707 27.1783 13.1707 27.1764C13.1707 27.1746 13.1707 27.1727 13.1707 27.1708C13.1707 27.169 13.1707 27.1671 13.1707 27.1652C13.1707 27.1634 13.1707 27.1615 13.1707 27.1596C13.1707 27.1578 13.1707 27.1559 13.1707 27.154C13.1707 27.1521 13.1707 27.1503 13.1707 27.1484C13.1707 27.1465 13.1707 27.1447 13.1707 27.1428C13.1707 27.1409 13.1707 27.139 13.1707 27.1372C13.1707 27.1353 13.1707 27.1334 13.1707 27.1315C13.1707 27.1297 13.1707 27.1278 13.1707 27.1259C13.1707 27.124 13.1707 27.1222 13.1707 27.1203C13.1707 27.1184 13.1707 27.1165 13.1707 27.1147C13.1707 27.1128 13.1707 27.1109 13.1707 27.109C13.1707 27.1071 13.1707 27.1053 13.1707 27.1034C13.1707 27.1015 13.1707 27.0996 13.1707 27.0977C13.1707 27.0958 13.1707 27.094 13.1707 27.0921C13.1707 27.0902 13.1707 27.0883 13.1707 27.0864C13.1707 27.0845 13.1707 27.0826 13.1707 27.0808C13.1707 27.0789 13.1707 27.077 13.1707 27.0751C13.1707 27.0732 13.1707 27.0713 13.1707 27.0694C13.1707 27.0675 13.1707 27.0657 13.1707 27.0638C13.1707 27.0619 13.1707 27.06 13.1707 27.0581C13.1707 27.0562 13.1707 27.0543 13.1707 27.0524C13.1707 27.0505 13.1707 27.0486 13.1707 27.0467C13.1707 27.0448 13.1707 27.0429 13.1707 27.041C13.1707 27.0391 13.1707 27.0372 13.1707 27.0353C13.1707 27.0335 13.1707 27.0316 13.1707 27.0297C13.1707 27.0278 13.1707 27.0259 13.1707 27.024C13.1707 27.0221 13.1707 27.0202 13.1707 27.0183C13.1707 27.0163 13.1707 27.0144 13.1707 27.0125C13.1707 27.0106 13.1707 27.0087 13.1707 27.0068C13.1707 27.0049 13.1707 27.003 13.1707 27.0011C13.1707 26.9992 13.1707 26.9973 13.1707 26.9954C13.1707 26.9935 13.1707 26.9916 13.1707 26.9897C13.1707 26.9878 13.1707 26.9859 13.1707 26.984C13.1707 26.982 13.1707 26.9801 13.1707 26.9782C13.1707 26.9763 13.1707 26.9744 13.1707 26.9725C13.1707 26.9706 13.1707 26.9687 13.1707 26.9667C13.1707 26.9648 13.1707 26.9629 13.1707 26.961C13.1707 26.9591 13.1707 26.9572 13.1707 26.9553C13.1707 26.9533 13.1707 26.9514 13.1707 26.9495C13.1707 26.9476 13.1707 26.9457 13.1707 26.9438C13.1707 26.9418 13.1707 26.9399 13.1707 26.938C13.1707 26.9361 13.1707 26.9342 13.1707 26.9322C13.1707 26.9303 13.1707 26.9284 13.1707 26.9265C13.1707 26.9245 13.1707 26.9226 13.1707 26.9207C13.1707 26.9188 13.1707 26.9168 13.1707 26.9149C13.1707 26.913 13.1707 26.9111 13.1707 26.9091C13.1707 26.9072 13.1707 26.9053 13.1707 26.9034C13.1707 26.9014 13.1707 26.8995 13.1707 26.8976C13.1707 26.8956 13.1707 26.8937 13.1707 26.8918C13.1707 26.8899 13.1707 26.8879 13.1707 26.886C13.1707 26.8841 13.1707 26.8821 13.1707 26.8802C13.1707 26.8783 13.1707 26.8763 13.1707 26.8744C13.1707 26.8725 13.1707 26.8705 13.1707 26.8686C13.1707 26.8666 13.1707 26.8647 13.1707 26.8628C13.1707 26.8608 13.1707 26.8589 13.1707 26.857C13.1707 26.855 13.1707 26.8531 13.1707 26.8511C13.1707 26.8492 13.1707 26.8473 13.1707 26.8453C13.1707 26.8434 13.1707 26.8414 13.1707 26.8395C13.1707 26.8376 13.1707 26.8356 13.1707 26.8337C13.1707 26.8317 13.1707 26.8298 13.1707 26.8278C13.1707 26.8259 13.1707 26.8239 13.1707 26.822C13.1707 26.82 13.1707 26.8181 13.1707 26.8161C13.1707 26.8142 13.1707 26.8123 13.1707 26.8103C13.1707 26.8084 13.1707 26.8064 13.1707 26.8045C13.1707 26.8025 13.1707 26.8005 13.1707 26.7986C13.1707 26.7966 13.1707 26.7947 13.1707 26.7927C13.1707 26.7908 13.1707 26.7888 13.1707 26.7869C13.1707 26.7849 13.1707 26.783 13.1707 26.781C13.1707 26.7791 13.1707 26.7771 13.1707 26.7751C13.1707 26.7732 13.1707 26.7712 13.1707 26.7693C13.1707 26.7673 13.1707 26.7654 13.1707 26.7634C13.1707 26.7614 13.1707 26.7595 13.1707 26.7575C13.1707 26.7555 13.1707 26.7536 13.1707 26.7516C13.1707 26.7497 13.1707 26.7477 13.1707 26.7457C13.1707 26.7438 13.1707 26.7418 13.1707 26.7398C13.1707 26.7379 13.1707 26.7359 13.1707 26.7339C13.1707 26.732 13.1707 26.73 13.1707 26.728C13.1707 26.7261 13.1707 26.7241 13.1707 26.7221C13.1707 26.7202 13.1707 26.7182 13.1707 26.7162C13.1707 26.7143 13.1707 26.7123 13.1707 26.7103C13.1707 26.7083 13.1707 26.7064 13.1707 26.7044C13.1707 26.7024 13.1707 26.7004 13.1707 26.6985C13.1707 26.6965 13.1707 26.6945 13.1707 26.6925C13.1707 26.6906 13.1707 26.6886 13.1707 26.6866C13.1707 26.6846 13.1707 26.6827 13.1707 26.6807C13.1707 26.6787 13.1707 26.6767 13.1707 26.6747C13.1707 26.6728 13.1707 26.6708 13.1707 26.6688C13.1707 26.6668 13.1707 26.6648 13.1707 26.6629C13.1707 26.6609 13.1707 26.6589 13.1707 26.6569C13.1707 26.6549 13.1707 26.6529 13.1707 26.6509C13.1707 26.649 13.1707 26.647 13.1707 26.645C13.1707 26.643 13.1707 26.641 13.1707 26.639C13.1707 26.637 13.1707 26.6351 13.1707 26.6331C13.1707 26.6311 13.1707 26.6291 13.1707 26.6271C13.1707 26.6251 13.1707 26.6231 13.1707 26.6211C13.1707 26.6191 13.1707 26.6171 13.1707 26.6151C13.1707 26.6131 13.1707 26.6112 13.1707 26.6092C13.1707 26.6072 13.1707 26.6052 13.1707 26.6032C13.1707 26.6012 13.1707 26.5992 13.1707 26.5972C13.1707 26.5952 13.1707 26.5932 13.1707 26.5912C13.1707 26.5892 13.1707 26.5872 13.1707 26.5852C13.1707 26.5832 13.1707 26.5812 13.1707 26.5792C13.1707 26.5772 13.1707 26.5752 13.1707 26.5732C13.1707 26.5712 13.1707 26.5692 13.1707 26.5672C13.1707 26.5652 13.1707 26.5632 13.1707 26.5612C13.1707 26.5592 13.1707 26.5572 13.1707 26.5551C13.1707 26.5531 13.1707 26.5511 13.1707 26.5491C13.1707 26.5471 13.1707 26.5451 13.1707 26.5431C13.1707 26.5411 13.1707 26.5391 13.1707 26.5371C13.1707 26.5351 13.1707 26.533 13.1707 26.531C13.1707 26.529 13.1707 26.527 13.1707 26.525C13.1707 26.523 13.1707 26.521 13.1707 26.519C13.1707 26.5169 13.1707 26.5149 13.1707 26.5129C13.1707 26.5109 13.1707 26.5089 13.1707 26.5069C13.1707 26.5048 13.1707 26.5028 13.1707 26.5008C13.1707 26.4988 13.1707 26.4968 13.1707 26.4948C13.1707 26.4927 13.1707 26.4907 13.1707 26.4887C13.1707 26.4867 13.1707 26.4846 13.1707 26.4826C13.1707 26.4806 13.1707 26.4786 13.1707 26.4766C13.1707 26.4745 13.1707 26.4725 13.1707 26.4705C13.1707 26.4685 13.1707 26.4664 13.1707 26.4644C13.1707 26.4624 13.1707 26.4604 13.1707 26.4583C13.1707 26.4563 13.1707 26.4543 13.1707 26.4522C13.1707 26.4502 13.1707 26.4482 13.1707 26.4461C13.1707 26.4441 13.1707 26.4421 13.1707 26.4401C13.1707 26.438 13.1707 26.436 13.1707 26.434C13.1707 26.4319 13.1707 26.4299 13.1707 26.4279C13.1707 26.4258 13.1707 26.4238 13.1707 26.4217C13.1707 26.4197 13.1707 26.4177 13.1707 26.4156C13.1707 26.4136 13.1707 26.4116 13.1707 26.4095C13.1707 26.4075 13.1707 26.4054 13.1707 26.4034C13.1707 26.4014 13.1707 26.3993 13.1707 26.3973C13.1707 26.3952 13.1707 26.3932 13.1707 26.3912C13.1707 26.3891 13.1707 26.3871 13.1707 26.385C13.1707 26.383 13.1707 26.3809 13.1707 26.3789C13.1707 26.3769 13.1707 26.3748 13.1707 26.3728C13.1707 26.3707 13.1707 26.3687 13.1707 26.3666C13.1707 26.3646 13.1707 26.3625 13.1707 26.3605C13.1707 26.3584 13.1707 26.3564 13.1707 26.3543C13.1707 26.3523 13.1707 26.3502 13.1707 26.3482C13.1707 26.3461 13.1707 26.3441 13.1707 26.342C13.1707 26.34 13.1707 26.3379 13.1707 26.3359C13.1707 26.3338 13.1707 26.3317 13.1707 26.3297C13.1707 26.3276 13.1707 26.3256 13.1707 26.3235C13.1707 26.3215 13.1707 26.3194 13.1707 26.3173C13.1707 26.3153 13.1707 26.3132 13.1707 26.3112C13.1707 26.3091 13.1707 26.3071 13.1707 26.305C13.1707 26.3029 13.1707 26.3009 13.1707 26.2988C13.1707 26.2967 13.1707 26.2947 13.1707 26.2926C13.1707 26.2906 13.1707 26.2885 13.1707 26.2864C13.1707 26.2844 13.1707 26.2823 13.1707 26.2802C13.1707 26.2782 13.1707 26.2761 13.1707 26.274C13.1707 26.272 13.1707 26.2699 13.1707 26.2678C13.1707 26.2658 13.1707 26.2637 13.1707 26.2616C13.1707 26.2595 13.1707 26.2575 13.1707 26.2554C13.1707 26.2533 13.1707 26.2513 13.1707 26.2492C13.1707 26.2471 13.1707 26.245 13.1707 26.243C13.1707 26.2409 13.1707 26.2388 13.1707 26.2367C13.1707 26.2347 13.1707 26.2326 13.1707 26.2305C13.1707 26.2284 13.1707 26.2264 13.1707 26.2243C13.1707 26.2222 13.1707 26.2201 13.1707 26.218C13.1707 26.216 13.1707 26.2139 13.1707 26.2118C13.1707 26.2097 13.1707 26.2076 13.1707 26.2056C13.1707 26.2035 13.1707 26.2014 13.1707 26.1993C13.1707 26.1972 13.1707 26.1951 13.1707 26.193C13.1707 26.191 13.1707 26.1889 13.1707 26.1868C13.1707 26.1847 13.1707 26.1826 13.1707 26.1805C13.1707 26.1784 13.1707 26.1764 13.1707 26.1743C13.1707 26.1722 13.1707 26.1701 13.1707 26.168C13.1707 26.1659 13.1707 26.1638 13.1707 26.1617C13.1707 26.1596 13.1707 26.1575 13.1707 26.1554C13.1707 26.1534 13.1707 26.1513 13.1707 26.1492C13.1707 26.1471 13.1707 26.145 13.1707 26.1429C13.1707 26.1408 13.1707 26.1387 13.1707 26.1366C13.1707 26.1345 13.1707 26.1324 13.1707 26.1303C13.1707 26.1282 13.1707 26.1261 13.1707 26.124C13.1707 26.1219 13.1707 26.1198 13.1707 26.1177C13.1707 26.1156 13.1707 26.1135 13.1707 26.1114C13.1707 26.1093 13.1707 26.1072 13.1707 26.1051C13.1707 26.103 13.1707 26.1009 13.1707 26.0988C13.1707 26.0967 13.1707 26.0946 13.1707 26.0925C13.1707 26.0904 13.1707 26.0882 13.1707 26.0861C13.1707 26.084 13.1707 26.0819 13.1707 26.0798C13.1707 26.0777 13.1707 26.0756 13.1707 26.0735C13.1707 26.0714 13.1707 26.0693 13.1707 26.0672C13.1707 26.065 13.1707 26.0629 13.1707 26.0608C13.1707 26.0587 13.1707 26.0566 13.1707 26.0545C13.1707 26.0524 13.1707 26.0502 13.1707 26.0481C13.1707 26.046 13.1707 26.0439 13.1707 26.0418C13.1707 26.0397 13.1707 26.0375 13.1707 26.0354C13.1707 26.0333 13.1707 26.0312 13.1707 26.0291C13.1707 26.027 13.1707 26.0248 13.1707 26.0227C13.1707 26.0206 13.1707 26.0185 13.1707 26.0163C13.1707 26.0142 13.1707 26.0121 13.1707 26.01C13.1707 26.0079 13.1707 26.0057 13.1707 26.0036C13.1707 26.0015 13.1707 25.9994 13.1707 25.9972C13.1707 25.9951 13.1707 25.993 13.1707 25.9908C13.1707 25.9887 13.1707 25.9866 13.1707 25.9845C13.1707 25.9823 13.1707 25.9802 13.1707 25.9781C13.1707 25.9759 13.1707 25.9738 13.1707 25.9717C13.1707 25.9696 13.1707 25.9674 13.1707 25.9653C13.1707 25.9632 13.1707 25.961 13.1707 25.9589C13.1707 25.9568 13.1707 25.9546 13.1707 25.9525C13.1707 25.9503 13.1707 25.9482 13.1707 25.9461C13.1707 25.9439 13.1707 25.9418 13.1707 25.9397C13.1707 25.9375 13.1707 25.9354 13.1707 25.9332C13.1707 25.9311 13.1707 25.929 13.1707 25.9268C13.1707 25.9247 13.1707 25.9225 13.1707 25.9204C13.1707 25.9183 13.1707 25.9161 13.1707 25.914C13.1707 25.9118 13.1707 25.9097 13.1707 25.9075C13.1707 25.9054 13.1707 25.9033 13.1707 25.9011C13.1707 25.899 13.1707 25.8968 13.1707 25.8947C13.1707 25.8925 13.1707 25.8904 13.1707 25.8882C13.1707 25.8861 13.1707 25.8839 13.1707 25.8818C13.1707 25.8796 13.1707 25.8775 13.1707 25.8753C13.1707 25.8732 13.1707 25.871 13.1707 25.8689C13.1707 25.8667 13.1707 25.8646 13.1707 25.8624C13.1707 25.8602 13.1707 25.8581 13.1707 25.8559C13.1707 25.8538 13.1707 25.8516 13.1707 25.8495C13.1707 25.8473 13.1707 25.8452 13.1707 25.843C13.1707 25.8408 13.1707 25.8387 13.1707 25.8365C13.1707 25.8344 13.1707 25.8322 13.1707 25.83C13.1707 25.8279 13.1707 25.8257 13.1707 25.8236C13.1707 25.8214 13.1707 25.8192 13.1707 25.8171C13.1707 25.8149 13.1707 25.8127 13.1707 25.8106C13.1707 25.8084 13.1707 25.8062 13.1707 25.8041C13.1707 25.8019 13.1707 25.7997 13.1707 25.7976C13.1707 25.7954 13.1707 25.7932 13.1707 25.7911C13.1707 25.7889 13.1707 25.7867 13.1707 25.7846C13.1707 25.7824 13.1707 25.7802 13.1707 25.7781C13.1707 25.7759 13.1707 25.7737 13.1707 25.7715C13.1707 25.7694 13.1707 25.7672 13.1707 25.765C13.1707 25.7628 13.1707 25.7607 13.1707 25.7585C13.1707 25.7563 13.1707 25.7541 13.1707 25.752C13.1707 25.7498 13.1707 25.7476 13.1707 25.7454C13.1707 25.7433 13.1707 25.7411 13.1707 25.7389C13.1707 25.7367 13.1707 25.7345 13.1707 25.7324C13.1707 25.7302 13.1707 25.728 13.1707 25.7258C13.1707 25.7236 13.1707 25.7215 13.1707 25.7193C13.1707 25.7171 13.1707 25.7149 13.1707 25.7127C13.1707 25.7105 13.1707 25.7083 13.1707 25.7062C13.1707 25.704 13.1707 25.7018 13.1707 25.6996C13.1707 25.6974 13.1707 25.6952 13.1707 25.693C13.1707 25.6908 13.1707 25.6887 13.1707 25.6865C13.1707 25.6843 13.1707 25.6821 13.1707 25.6799C13.1707 25.6777 13.1707 25.6755 13.1707 25.6733C13.1707 25.6711 13.1707 25.6689 13.1707 25.6667C13.1707 25.6645 13.1707 25.6624 13.1707 25.6602C13.1707 25.658 13.1707 25.6558 13.1707 25.6536C13.1707 25.6514 13.1707 25.6492 13.1707 25.647C13.1707 25.6448 13.1707 25.6426 13.1707 25.6404C13.1707 25.6382 13.1707 25.636 13.1707 25.6338C13.1707 25.6316 13.1707 25.6294 13.1707 25.6272C13.1707 25.625 13.1707 25.6228 13.1707 25.6206C13.1707 25.6184 13.1707 25.6162 13.1707 25.614C13.1707 25.6118 13.1707 25.6095 13.1707 25.6073C13.1707 25.6051 13.1707 25.6029 13.1707 25.6007C13.1707 25.5985 13.1707 25.5963 13.1707 25.5941C13.1707 25.5919 13.1707 25.5897 13.1707 25.5875C13.1707 25.5853 13.1707 25.583 13.1707 25.5808C13.1707 25.5786 13.1707 25.5764 13.1707 25.5742C13.1707 25.572 13.1707 25.5698 13.1707 25.5676C13.1707 25.5653 13.1707 25.5631 13.1707 25.5609C13.1707 25.5587 13.1707 25.5565 13.1707 25.5543C13.1707 25.5521 13.1707 25.5498 13.1707 25.5476C13.1707 25.5454 13.1707 25.5432 13.1707 25.541C13.1707 25.5387 13.1707 25.5365 13.1707 25.5343C13.1707 25.5321 13.1707 25.5299 13.1707 25.5276C13.1707 25.5254 13.1707 25.5232 13.1707 25.521C13.1707 25.5188 13.1707 25.5165 13.1707 25.5143C13.1707 25.5121 13.1707 25.5099 13.1707 25.5076C13.1707 25.5054 13.1707 25.5032 13.1707 25.5009C13.1707 25.4987 13.1707 25.4965 13.1707 25.4943C13.1707 25.492 13.1707 25.4898 13.1707 25.4876C13.1707 25.4853 13.1707 25.4831 13.1707 25.4809C13.1707 25.4787 13.1707 25.4764 13.1707 25.4742C13.1707 25.472 13.1707 25.4697 13.1707 25.4675C13.1707 25.4653 13.1707 25.463 13.1707 25.4608C13.1707 25.4586 13.1707 25.4563 13.1707 25.4541C13.1707 25.4518 13.1707 25.4496 13.1707 25.4474C13.1707 25.4451 13.1707 25.4429 13.1707 25.4407C13.1707 25.4384 13.1707 25.4362 13.1707 25.4339C13.1707 25.4317 13.1707 25.4295 13.1707 25.4272C13.1707 25.425 13.1707 25.4227 13.1707 25.4205C13.1707 25.4182 13.1707 25.416 13.1707 25.4137C13.1707 25.4115 13.1707 25.4093 13.1707 25.407C13.1707 25.4048 13.1707 25.4025 13.1707 25.4003C13.1707 25.398 13.1707 25.3958 13.1707 25.3935C13.1707 25.3913 13.1707 25.389 13.1707 25.3868C13.1707 25.3845 13.1707 25.3823 13.1707 25.38C13.1707 25.3778 13.1707 25.3755 13.1707 25.3733C13.1707 25.371 13.1707 25.3688 13.1707 25.3665C13.1707 25.3643 13.1707 25.362 13.1707 25.3598C13.1707 25.3575 13.1707 25.3552 13.1707 25.353C13.1707 25.3507 13.1707 25.3485 13.1707 25.3462C13.1707 25.344 13.1707 25.3417 13.1707 25.3394C13.1707 25.3372 13.1707 25.3349 13.1707 25.3327C13.1707 25.3304 13.1707 25.3281 13.1707 25.3259C13.1707 25.3236 13.1707 25.3214 13.1707 25.3191C13.1707 25.3168 13.1707 25.3146 13.1707 25.3123C13.1707 25.31 13.1707 25.3078 13.1707 25.3055C13.1707 25.3032 13.1707 25.301 13.1707 25.2987C13.1707 25.2964 13.1707 25.2942 13.1707 25.2919C13.1707 25.2896 13.1707 25.2874 13.1707 25.2851C13.1707 25.2828 13.1707 25.2806 13.1707 25.2783C13.1707 25.276 13.1707 25.2737 13.1707 25.2715C13.1707 25.2692 13.1707 25.2669 13.1707 25.2647C13.1707 25.2624 13.1707 25.2601 13.1707 25.2578C13.1707 25.2556 13.1707 25.2533 13.1707 25.251C13.1707 25.2487 13.1707 25.2464 13.1707 25.2442C13.1707 25.2419 13.1707 25.2396 13.1707 25.2373C13.1707 25.2351 13.1707 25.2328 13.1707 25.2305C13.1707 25.2282 13.1707 25.2259 13.1707 25.2237C13.1707 25.2214 13.1707 25.2191 13.1707 25.2168C13.1707 25.2145 13.1707 25.2122 13.1707 25.21C13.1707 25.2077 13.1707 25.2054 13.1707 25.2031C13.1707 25.2008 13.1707 25.1985 13.1707 25.1962C13.1707 25.194 13.1707 25.1917 13.1707 25.1894C13.1707 25.1871 13.1707 25.1848 13.1707 25.1825C13.1707 25.1802 13.1707 25.1779 13.1707 25.1756C13.1707 25.1733 13.1707 25.1711 13.1707 25.1688C13.1707 25.1665 13.1707 25.1642 13.1707 25.1619C13.1707 25.1596 13.1707 25.1573 13.1707 25.155C13.1707 25.1527 13.1707 25.1504 13.1707 25.1481C13.1707 25.1458 13.1707 25.1435 13.1707 25.1412C13.1707 25.1389 13.1707 25.1366 13.1707 25.1343C13.1707 25.132 13.1707 25.1297 13.1707 25.1274C13.1707 25.1251 13.1707 25.1228 13.1707 25.1205C13.1707 25.1182 13.1707 25.1159 13.1707 25.1136C13.1707 25.1113 13.1707 25.109 13.1707 25.1067C13.1707 25.1044 13.1707 25.1021 13.1707 25.0998C13.1707 25.0975 13.1707 25.0952 13.1707 25.0929C13.1707 25.0906 13.1707 25.0883 13.1707 25.086C13.1707 25.0836 13.1707 25.0813 13.1707 25.079C13.1707 25.0767 13.1707 25.0744 13.1707 25.0721C13.1707 25.0698 13.1707 25.0675 13.1707 25.0652C13.1707 25.0629 13.1707 25.0605 13.1707 25.0582C13.1707 25.0559 13.1707 25.0536 13.1707 25.0513C13.1707 25.049 13.1707 25.0466 13.1707 25.0443C13.1707 25.042 13.1707 25.0397 13.1707 25.0374C13.1707 25.0351 13.1707 25.0327 13.1707 25.0304C13.1707 25.0281 13.1707 25.0258 13.1707 25.0235C13.1707 25.0211 13.1707 25.0188 13.1707 25.0165C13.1707 25.0142 13.1707 25.0119 13.1707 25.0095C13.1707 25.0072 13.1707 25.0049 13.1707 25.0026C13.1707 25.0002 13.1707 24.9979 13.1707 24.9956C13.1707 24.9933 13.1707 24.9909 13.1707 24.9886C13.1707 24.9863 13.1707 24.984 13.1707 24.9816C13.1707 24.9793 13.1707 24.977 13.1707 24.9746C13.1707 24.9723 13.1707 24.97 13.1707 24.9677C13.1707 24.9653 13.1707 24.963 13.1707 24.9607C13.1707 24.9583 13.1707 24.956 13.1707 24.9537C13.1707 24.9513 13.1707 24.949 13.1707 24.9467C13.1707 24.9443 13.1707 24.942 13.1707 24.9397C13.1707 24.9373 13.1707 24.935 13.1707 24.9326C13.1707 24.9303 13.1707 24.928 13.1707 24.9256C13.1707 24.9233 13.1707 24.921 13.1707 24.9186C13.1707 24.9163 13.1707 24.9139 13.1707 24.9116C13.1707 24.9092 13.1707 24.9069 13.1707 24.9046C13.1707 24.9022 13.1707 24.8999 13.1707 24.8975C13.1707 24.8952 13.1707 24.8928 13.1707 24.8905C13.1707 24.8881 13.1707 24.8858 13.1707 24.8835C13.1707 24.8811 13.1707 24.8788 13.1707 24.8764C13.1707 24.8741 13.1707 24.8717 13.1707 24.8694C13.1707 24.867 13.1707 24.8647 13.1707 24.8623C13.1707 24.86 13.1707 24.8576 13.1707 24.8553C13.1707 24.8529 13.1707 24.8506 13.1707 24.8482C13.1707 24.8459 13.1707 24.8435 13.1707 24.8411C13.1707 24.8388 13.1707 24.8364 13.1707 24.8341C13.1707 24.8317 13.1707 24.8294 13.1707 24.827C13.1707 24.8246 13.1707 24.8223 13.1707 24.8199C13.1707 24.8176 13.1707 24.8152 13.1707 24.8129C13.1707 24.8105 13.1707 24.8081 13.1707 24.8058C13.1707 24.8034 13.1707 24.801 13.1707 24.7987C13.1707 24.7963 13.1707 24.794 13.1707 24.7916C13.1707 24.7892 13.1707 24.7869 13.1707 24.7845C13.1707 24.7821 13.1707 24.7798 13.1707 24.7774C13.1707 24.775 13.1707 24.7727 13.1707 24.7703C13.1707 24.7679 13.1707 24.7656 13.1707 24.7632C13.1707 24.7608 13.1707 24.7585 13.1707 24.7561C13.1707 24.7537 13.1707 24.7513 13.1707 24.749C13.1707 24.7466 13.1707 24.7442 13.1707 24.7419C13.1707 24.7395 13.1707 24.7371 13.1707 24.7347C13.1707 24.7324 13.1707 24.73 13.1707 24.7276C13.1707 24.7252 13.1707 24.7229 13.1707 24.7205C13.1707 24.7181 13.1707 24.7157 13.1707 24.7133C13.1707 24.711 13.1707 24.7086 13.1707 24.7062C13.1707 24.7038 13.1707 24.7014 13.1707 24.6991C13.1707 24.6967 13.1707 24.6943 13.1707 24.6919C13.1707 24.6895 13.1707 24.6871 13.1707 24.6848C13.1707 24.6824 13.1707 24.68 13.1707 24.6776C13.1707 24.6752 13.1707 24.6728 13.1707 24.6704C13.1707 24.6681 13.1707 24.6657 13.1707 24.6633C13.1707 24.6609 13.1707 24.6585 13.1707 24.6561C13.1707 24.6537 13.1707 24.6513 13.1707 24.649C13.1707 24.6466 13.1707 24.6442 13.1707 24.6418C13.1707 24.6394 13.1707 24.637 13.1707 24.6346C13.1707 24.6322 13.1707 24.6298 13.1707 24.6274C13.1707 24.625 13.1707 24.6226 13.1707 24.6202C13.1707 24.6178 13.1707 24.6154 13.1707 24.613C13.1707 24.6106 13.1707 24.6082 13.1707 24.6058C13.1707 24.6035 13.1707 24.6011 13.1707 24.5986C13.1707 24.5962 13.1707 24.5938 13.1707 24.5914C13.1707 24.589 13.1707 24.5866 13.1707 24.5842C13.1707 24.5818 13.1707 24.5794 13.1707 24.577C13.1707 24.5746 13.1707 24.5722 13.1707 24.5698C13.1707 24.5674 13.1707 24.565 13.1707 24.5626C13.1707 24.5602 13.1707 24.5578 13.1707 24.5554C13.1707 24.553 13.1707 24.5506 13.1707 24.5482C13.1707 24.5457 13.1707 24.5433 13.1707 24.5409C13.1707 24.5385 13.1707 24.5361 13.1707 24.5337C13.1707 24.5313 13.1707 24.5289 13.1707 24.5265C13.1707 24.524 13.1707 24.5216 13.1707 24.5192C13.1707 24.5168 13.1707 24.5144 13.1707 24.512C13.1707 24.5095 13.1707 24.5071 13.1707 24.5047C13.1707 24.5023 13.1707 24.4999 13.1707 24.4975C13.1707 24.495 13.1707 24.4926 13.1707 24.4902C13.1707 24.4878 13.1707 24.4854 13.1707 24.4829C13.1707 24.4805 13.1707 24.4781 13.1707 24.4757C13.1707 24.4733 13.1707 24.4708 13.1707 24.4684C13.1707 24.466 13.1707 24.4636 13.1707 24.4611C13.1707 24.4587 13.1707 24.4563 13.1707 24.4539C13.1707 24.4514 13.1707 24.449 13.1707 24.4466C13.1707 24.4441 13.1707 24.4417 13.1707 24.4393C13.1707 24.4369 13.1707 24.4344 13.1707 24.432H9.17067ZM2.568 27.6427C2.568 22.6816 3.05603 18.627 3.98227 15.4315L0.140401 14.3179C-0.924469 17.9917 -1.432 22.449 -1.432 27.6427H2.568ZM3.97699 15.4494C4.96949 12.141 6.2572 9.61865 7.77911 7.79236L4.70622 5.23162C2.74369 7.58667 1.24384 10.6394 0.145681 14.3L3.97699 15.4494ZM7.77911 7.79236C9.32903 5.93246 11.0762 4.65488 13.0195 3.89448L11.5619 0.169508C8.92556 1.20111 6.64075 2.91019 4.70622 5.23162L7.77911 7.79236ZM13.006 3.89971C15.1096 3.09406 17.3305 2.68799 19.6827 2.68799V-1.31201C16.858 -1.31201 14.1509 -0.822075 11.5754 0.16428L13.006 3.89971ZM19.6827 2.68799C22.0898 2.68799 24.3048 3.0958 26.3459 3.89448L27.8035 0.169508C25.265 -0.823818 22.5519 -1.31201 19.6827 -1.31201V2.68799ZM26.3594 3.89971C28.3523 4.66296 30.1182 5.94117 31.6609 7.79236L34.7338 5.23162C32.792 2.90149 30.4761 1.19303 27.79 0.16428L26.3594 3.89971ZM31.6788 7.81358C33.2341 9.62801 34.5153 12.133 35.4556 15.4241L39.3017 14.3252C38.2509 10.6474 36.7446 7.57731 34.7159 5.21041L31.6788 7.81358ZM35.4653 15.457C36.4349 18.6427 36.9467 22.6879 36.9467 27.6427H40.9467C40.9467 22.4427 40.4131 17.976 39.292 14.2923L35.4653 15.457ZM36.9467 27.6427C36.9467 32.7505 36.4342 36.9258 35.4608 40.2167L39.2965 41.3513C40.4138 37.5738 40.9467 32.9881 40.9467 27.6427H36.9467ZM35.4556 40.2346C34.5153 43.5257 33.2341 46.0306 31.6788 47.8451L34.7159 50.4482C36.7446 48.0814 38.2509 45.0112 39.3017 41.3334L35.4556 40.2346ZM31.6609 47.8663C30.1182 49.7175 28.3523 50.9957 26.3594 51.759L27.79 55.4944C30.4761 54.4656 32.792 52.7572 34.7338 50.427L31.6609 47.8663ZM26.3459 51.7642C24.3048 52.5629 22.0898 52.9707 19.6827 52.9707V56.9707C22.5519 56.9707 25.265 56.4825 27.8035 55.4892L26.3459 51.7642ZM19.6827 52.9707C17.3305 52.9707 15.1096 52.5646 13.006 51.7589L11.5754 55.4944C14.1509 56.4807 16.858 56.9707 19.6827 56.9707V52.9707ZM13.0195 51.7642C11.0762 51.0038 9.32903 49.7262 7.77911 47.8663L4.70622 50.427C6.64075 52.7485 8.92556 54.4576 11.5619 55.4892L13.0195 51.7642ZM7.77911 47.8663C6.2572 46.04 4.96949 43.5177 3.97699 40.2093L0.145681 41.3587C1.24384 45.0192 2.74369 48.072 4.70622 50.427L7.77911 47.8663ZM3.98641 40.2417C3.05665 36.941 2.568 32.7566 2.568 27.6427H-1.432C-1.432 32.982 -0.92509 37.5585 0.136253 41.3263L3.98641 40.2417ZM43.2523 21.8187L41.2534 21.8853L41.3178 23.8187H43.2523V21.8187ZM44.2976 13.5307L46.2059 14.1293L46.2091 14.1188L44.2976 13.5307ZM47.8816 6.81066L49.4114 8.09893L49.4196 8.08917L49.4277 8.07929L47.8816 6.81066ZM53.8549 2.33066L54.6566 4.16298L54.6653 4.15913L54.6741 4.1552L53.8549 2.33066ZM69.0123 1.80799L68.3535 3.69639L68.3602 3.69873L68.3669 3.70101L69.0123 1.80799ZM78.6443 10.1707L76.8296 11.0116L76.838 11.0296L76.8467 11.0475L78.6443 10.1707ZM78.8683 23.8347L77.0426 23.0179V23.0179L78.8683 23.8347ZM75.5083 28.912L76.9471 30.3012L76.9588 30.289L76.9704 30.2766L75.5083 28.912ZM70.7296 32.8693L69.6202 31.2052L69.6093 31.2125L69.5985 31.2199L70.7296 32.8693ZM65.4283 36.4533L66.505 38.1387L66.5214 38.1282L66.5377 38.1174L65.4283 36.4533ZM60.2016 40.1867L61.4454 41.7529L60.2016 40.1867ZM55.7216 44.8907L54.1002 43.7197L51.8101 46.8907H55.7216V44.8907ZM80.4363 44.8907H82.4363V42.8907H80.4363V44.8907ZM80.4363 54V56H82.4363V54H80.4363ZM42.0576 54H40.0576V56H42.0576V54ZM43.3269 46.0853L41.47 45.3426L41.4628 45.3605L41.456 45.3785L43.3269 46.0853ZM46.9109 40.112L48.4294 41.4136L48.4385 41.403L48.4474 41.3924L46.9109 40.112ZM52.1376 35.184L50.9566 33.5699L50.947 33.5769L50.9376 33.584L52.1376 35.184ZM58.5589 30.6293L59.6935 32.2764L59.701 32.2711L58.5589 30.6293ZM62.2176 28.24L63.2658 29.9433L63.2891 29.9289L63.3121 29.9139L62.2176 28.24ZM65.7269 25.4773L64.3816 23.9974L64.3644 24.0131L64.3476 24.0291L65.7269 25.4773ZM68.4149 22.1173L66.6999 21.0883L66.6845 21.114L66.6699 21.1401L68.4149 22.1173ZM67.2949 11.9627L65.8807 13.3769L65.9051 13.4013L65.9303 13.4248L67.2949 11.9627ZM57.7376 10.9173L58.847 12.5814L58.8557 12.5757L58.8643 12.5698L57.7376 10.9173ZM55.1989 13.7547L56.94 14.7388L56.9489 14.7231L56.9575 14.7072L55.1989 13.7547ZM53.7803 17.6373L51.8217 17.2321L51.8162 17.2589L51.8114 17.2857L53.7803 17.6373ZM53.4069 21.8187V23.8187H55.4069V21.8187H53.4069ZM45.2511 21.752C45.1582 18.9632 45.4847 16.4282 46.2059 14.1293L42.3893 12.932C41.5176 15.7105 41.1472 18.7008 41.2534 21.8853L45.2511 21.752ZM46.2091 14.1188C46.9342 11.7624 48.0073 9.76632 49.4114 8.09893L46.3518 5.52239C44.5701 7.63811 43.2539 10.122 42.386 12.9425L46.2091 14.1188ZM49.4277 8.07929C50.8126 6.39151 52.5449 5.08683 54.6566 4.16298L53.0533 0.498346C50.3863 1.66516 48.1364 3.34715 46.3354 5.54203L49.4277 8.07929ZM54.6741 4.1552C56.8149 3.19403 59.3156 2.68799 62.2176 2.68799V-1.31201C58.8475 -1.31201 55.7732 -0.722931 53.0357 0.506123L54.6741 4.1552ZM62.2176 2.68799C64.3948 2.68799 66.4361 3.02752 68.3535 3.69639L69.671 -0.0804081C67.3076 -0.904863 64.819 -1.31201 62.2176 -1.31201V2.68799ZM68.3669 3.70101C70.3375 4.37281 72.03 5.32384 73.4676 6.54368L76.0555 3.49364C74.2079 1.92592 72.0675 0.736513 69.6576 -0.0850277L68.3669 3.70101ZM73.4676 6.54368C74.8794 7.74156 76.0003 9.22187 76.8296 11.0116L80.4589 9.32974C79.3967 7.03767 77.9291 5.08332 76.0555 3.49364L73.4676 6.54368ZM76.8467 11.0475C77.6941 12.7845 78.1376 14.769 78.1376 17.04H82.1376C82.1376 14.2336 81.5856 11.6386 80.4418 9.29382L76.8467 11.0475ZM78.1376 17.04C78.1376 19.4709 77.7471 21.4433 77.0426 23.0179L80.6939 24.6514C81.6819 22.4429 82.1376 19.8856 82.1376 17.04H78.1376ZM77.0426 23.0179C76.2852 24.711 75.2872 26.2177 74.0461 27.5474L76.9704 30.2766C78.5169 28.6196 79.7589 26.7414 80.6939 24.6514L77.0426 23.0179ZM74.0695 27.5228C72.7823 28.8559 71.3015 30.0843 69.6202 31.2052L71.839 34.5334C73.7417 33.265 75.4467 31.8552 76.9471 30.3012L74.0695 27.5228ZM69.5985 31.2199C67.8636 32.4095 66.1037 33.5993 64.3189 34.7892L66.5377 38.1174C68.3368 36.918 70.1111 35.7185 71.8606 34.5188L69.5985 31.2199ZM64.3515 34.7679C62.5009 35.9503 60.703 37.2346 58.9578 38.6204L61.4454 41.7529C63.0851 40.4507 64.7716 39.2462 66.505 38.1387L64.3515 34.7679ZM58.9578 38.6204C57.1188 40.0809 55.4992 41.7827 54.1002 43.7197L57.3429 46.0616C58.5325 44.4146 59.8995 42.9805 61.4454 41.7529L58.9578 38.6204ZM55.7216 46.8907H80.4363V42.8907H55.7216V46.8907ZM78.4363 44.8907V54H82.4363V44.8907H78.4363ZM80.4363 52H42.0576V56H80.4363V52ZM44.0576 54C44.0576 51.1431 44.4564 48.7548 45.1979 46.7921L41.456 45.3785C40.505 47.8959 40.0576 50.784 40.0576 54H44.0576ZM45.1839 46.8281C46.0027 44.7811 47.086 42.9809 48.4294 41.4136L45.3924 38.8104C43.7492 40.7275 42.4432 42.9095 41.47 45.3426L45.1839 46.8281ZM48.4474 41.3924C49.8349 39.7273 51.4624 38.1904 53.3376 36.784L50.9376 33.584C48.8306 35.1643 46.9736 36.9127 45.3745 38.8316L48.4474 41.3924ZM53.3186 36.7981C55.3431 35.3167 57.468 33.8095 59.6935 32.2763L57.4243 28.9823C55.1698 30.5354 53.0139 32.0646 50.9566 33.5699L53.3186 36.7981ZM59.701 32.2711C60.8126 31.4979 62.0006 30.7219 63.2658 29.9433L61.1694 26.5367C59.8461 27.351 58.595 28.1679 57.4168 28.9875L59.701 32.2711ZM63.3121 29.9139C64.7008 29.006 65.967 28.0106 67.1062 26.9256L64.3476 24.0291C63.3961 24.9352 62.3229 25.7816 61.1231 26.5661L63.3121 29.9139ZM67.0723 26.9572C68.3207 25.8222 69.3538 24.534 70.1599 23.0945L66.6699 21.1401C66.0822 22.1896 65.3233 23.1413 64.3816 23.9974L67.0723 26.9572ZM70.1299 23.1463C71.081 21.5612 71.5349 19.7802 71.5349 17.8613H67.5349C67.5349 19.1282 67.2422 20.1846 66.6999 21.0883L70.1299 23.1463ZM71.5349 17.8613C71.5349 14.9123 70.6526 12.3608 68.6596 10.5006L65.9303 13.4248C66.9239 14.3521 67.5349 15.733 67.5349 17.8613H71.5349ZM68.7091 10.5484C66.8434 8.68276 64.4447 7.79733 61.6949 7.79733V11.7973C63.5247 11.7973 64.8593 12.3555 65.8807 13.3769L68.7091 10.5484ZM61.6949 7.79733C59.8176 7.79733 58.09 8.25638 56.6109 9.26487L58.8643 12.5698C59.5754 12.0849 60.486 11.7973 61.6949 11.7973V7.79733ZM56.6282 9.25323C55.29 10.1454 54.2297 11.3448 53.4403 12.8021L56.9575 14.7072C57.4624 13.7752 58.0945 13.0831 58.847 12.5814L56.6282 9.25323ZM53.4578 12.7705C52.6971 14.1163 52.1574 15.6097 51.8217 17.2321L55.7388 18.0425C56.0004 16.7778 56.4065 15.6828 56.94 14.7388L53.4578 12.7705ZM51.8114 17.2857C51.5421 18.7937 51.4069 20.3051 51.4069 21.8187H55.4069C55.4069 20.5446 55.5206 19.2685 55.7491 17.9889L51.8114 17.2857ZM53.4069 19.8187H43.2523V23.8187H53.4069V19.8187Z" fill="white" mask="url(#path-1-outside-1_1_171)"/>
</svg>
