<svg width="55" height="55" viewBox="0 0 55 55" fill="none" xmlns="http://www.w3.org/2000/svg">
<g clip-path="url(#clip0_1_181)">
<path d="M36.6667 27.5C36.6667 24.9696 35.7715 22.8092 33.9811 21.0189C32.1908 19.2285 30.0304 18.3333 27.5 18.3333C24.9696 18.3333 22.8092 19.2285 21.0189 21.0189C19.2285 22.8092 18.3333 24.9696 18.3333 27.5C18.3333 30.0304 19.2285 32.1908 21.0189 33.9811C22.8092 35.7715 24.9696 36.6667 27.5 36.6667C30.0304 36.6667 32.1908 35.7715 33.9811 33.9811C35.7715 32.1908 36.6667 30.0304 36.6667 27.5ZM55 23.597V31.5462C55 31.8327 54.9045 32.1072 54.7135 32.3698C54.5226 32.6324 54.2839 32.7875 53.9974 32.8353L47.373 33.8379C46.9195 35.127 46.454 36.2131 45.9766 37.0964C46.8121 38.2899 48.0892 39.9371 49.8079 42.0378C50.0467 42.3242 50.166 42.6226 50.166 42.9329C50.166 43.2433 50.0586 43.5178 49.8438 43.7565C49.1992 44.6398 48.0176 45.9288 46.2988 47.6237C44.5801 49.3186 43.4581 50.166 42.9329 50.166C42.6465 50.166 42.3362 50.0586 42.002 49.8438L37.0605 45.9766C36.0102 46.5256 34.924 46.9792 33.8021 47.3372C33.4201 50.5838 33.074 52.8038 32.7637 53.9974C32.5966 54.6658 32.1669 55 31.4746 55H23.5254C23.1912 55 22.8988 54.8985 22.6481 54.6956C22.3975 54.4927 22.2602 54.2361 22.2363 53.9258L21.2337 47.3372C20.064 46.9553 18.9898 46.5137 18.0111 46.0124L12.9622 49.8438C12.7235 50.0586 12.4251 50.166 12.0671 50.166C11.7329 50.166 11.4345 50.0347 11.1719 49.7721C8.16406 47.0508 6.19466 45.0456 5.26367 43.7565C5.09657 43.5178 5.01302 43.2433 5.01302 42.9329C5.01302 42.6465 5.10851 42.372 5.29948 42.1094C5.65755 41.6081 6.26628 40.8143 7.12565 39.7282C7.98503 38.642 8.62956 37.8006 9.05925 37.2038C8.41471 36.0102 7.92535 34.8286 7.59115 33.6589L1.03841 32.6921C0.728082 32.6443 0.477431 32.4951 0.286458 32.2445C0.0954861 31.9938 0 31.7133 0 31.403V23.4538C0 23.1673 0.0954861 22.8928 0.286458 22.6302C0.477431 22.3676 0.70421 22.2125 0.966797 22.1647L7.62695 21.1621C7.96115 20.064 8.42665 18.9659 9.02344 17.8678C8.06858 16.5072 6.79145 14.86 5.19206 12.9264C4.95334 12.64 4.83398 12.3535 4.83398 12.0671C4.83398 11.8283 4.94141 11.5538 5.15625 11.2435C5.77691 10.3841 6.95258 9.10102 8.68327 7.39421C10.414 5.68739 11.5419 4.83398 12.0671 4.83398C12.3774 4.83398 12.6877 4.95334 12.998 5.19206L17.9395 9.02344C18.9898 8.47439 20.076 8.02083 21.1979 7.66276C21.5799 4.41623 21.926 2.19618 22.2363 1.0026C22.4034 0.334201 22.8331 0 23.5254 0H31.4746C31.8088 0 32.1012 0.101454 32.3519 0.304362C32.6025 0.50727 32.7398 0.763889 32.7637 1.07422L33.7663 7.66276C34.936 8.04471 36.0102 8.48633 36.9889 8.98763L42.0736 5.15625C42.2884 4.94141 42.5749 4.83398 42.9329 4.83398C43.2433 4.83398 43.5417 4.95334 43.8281 5.19206C46.9076 8.03277 48.877 10.0618 49.7363 11.2793C49.9034 11.4703 49.987 11.7329 49.987 12.0671C49.987 12.3535 49.8915 12.628 49.7005 12.8906C49.3424 13.3919 48.7337 14.1857 47.8744 15.2718C47.015 16.358 46.3704 17.1994 45.9408 17.7962C46.5614 18.9898 47.0508 20.1595 47.4089 21.3053L53.9616 22.3079C54.2719 22.3557 54.5226 22.5049 54.7135 22.7555C54.9045 23.0062 55 23.2867 55 23.597Z" fill="#C98623"/>
</g>
<defs>
<clipPath id="clip0_1_181">
<rect width="55" height="55" fill="white"/>
</clipPath>
</defs>
</svg>
