<svg width="60" height="60" viewBox="0 0 60 60" fill="none" xmlns="http://www.w3.org/2000/svg">
<path d="M47.5727 37.4935C47.5727 36.1601 47.1769 34.8268 46.3852 33.4935C45.5935 32.1601 44.4477 31.2018 42.9477 30.6185L23.4477 22.8685L22.5727 22.6185C22.281 22.5351 21.9477 22.4935 21.5727 22.4935H17.5727V18.806C17.5727 17.9726 17.7602 17.2018 18.1352 16.4935C18.5102 15.7851 19.031 15.2018 19.6977 14.7435L32.1977 5.80597C32.656 5.47263 33.1252 5.23263 33.6052 5.08597C34.0852 4.9393 34.5744 4.8668 35.0727 4.86847C35.5727 4.86847 36.0727 4.9418 36.5727 5.08847C37.0727 5.23513 37.531 5.4743 37.9477 5.80597L50.4477 14.7435C51.1144 15.2018 51.6352 15.7851 52.0102 16.4935C52.3852 17.2018 52.5727 17.9726 52.5727 18.806V37.4935H47.5727ZM37.5727 19.9935C37.906 19.9935 38.1977 19.8685 38.4477 19.6185C38.6977 19.3685 38.8227 19.0768 38.8227 18.7435C38.8227 18.4101 38.6977 18.1185 38.4477 17.8685C38.1977 17.6185 37.906 17.4935 37.5727 17.4935C37.2394 17.4935 36.9477 17.6185 36.6977 17.8685C36.4477 18.1185 36.3227 18.4101 36.3227 18.7435C36.3227 19.0768 36.4477 19.3685 36.6977 19.6185C36.9477 19.8685 37.2394 19.9935 37.5727 19.9935ZM32.5727 19.9935C32.906 19.9935 33.1977 19.8685 33.4477 19.6185C33.6977 19.3685 33.8227 19.0768 33.8227 18.7435C33.8227 18.4101 33.6977 18.1185 33.4477 17.8685C33.1977 17.6185 32.906 17.4935 32.5727 17.4935C32.2394 17.4935 31.9477 17.6185 31.6977 17.8685C31.4477 18.1185 31.3227 18.4101 31.3227 18.7435C31.3227 19.0768 31.4477 19.3685 31.6977 19.6185C31.9477 19.8685 32.2394 19.9935 32.5727 19.9935ZM37.5727 24.9935C37.906 24.9935 38.1977 24.8685 38.4477 24.6185C38.6977 24.3685 38.8227 24.0768 38.8227 23.7435C38.8227 23.4101 38.6977 23.1185 38.4477 22.8685C38.1977 22.6185 37.906 22.4935 37.5727 22.4935C37.2394 22.4935 36.9477 22.6185 36.6977 22.8685C36.4477 23.1185 36.3227 23.4101 36.3227 23.7435C36.3227 24.0768 36.4477 24.3685 36.6977 24.6185C36.9477 24.8685 37.2394 24.9935 37.5727 24.9935ZM32.5727 24.9935C32.906 24.9935 33.1977 24.8685 33.4477 24.6185C33.6977 24.3685 33.8227 24.0768 33.8227 23.7435C33.8227 23.4101 33.6977 23.1185 33.4477 22.8685C33.1977 22.6185 32.906 22.4935 32.5727 22.4935C32.2394 22.4935 31.9477 22.6185 31.6977 22.8685C31.4477 23.1185 31.3227 23.4101 31.3227 23.7435C31.3227 24.0768 31.4477 24.3685 31.6977 24.6185C31.9477 24.8685 32.2394 24.9935 32.5727 24.9935ZM33.5102 54.556C33.9685 54.681 34.5002 54.7335 35.1052 54.7135C35.7102 54.6935 36.2202 54.5993 36.6352 54.431L55.0727 47.4935C55.0727 46.0768 54.5727 44.8893 53.5727 43.931C52.5727 42.9726 51.406 42.4935 50.0727 42.4935H32.9477C32.8227 42.4935 32.6769 42.4835 32.5102 42.4635C32.3435 42.4435 32.2185 42.4118 32.1352 42.3685L28.4477 41.056C28.1144 40.931 27.8852 40.7226 27.7602 40.431C27.6352 40.1393 27.6144 39.8268 27.6977 39.4935C27.781 39.2018 27.9894 38.9726 28.3227 38.806C28.656 38.6393 28.9894 38.6185 29.3227 38.7435L32.1352 39.806C32.3019 39.8893 32.4377 39.9418 32.5427 39.9635C32.6477 39.9851 32.8035 39.9951 33.0102 39.9935H39.5727C40.3644 39.9935 41.0619 39.7226 41.6652 39.181C42.2685 38.6393 42.571 37.931 42.5727 37.056C42.5727 36.4726 42.3952 35.9101 42.0402 35.3685C41.6852 34.8268 41.2169 34.4518 40.6352 34.2435L23.3227 27.806C23.031 27.7226 22.7394 27.6493 22.4477 27.586C22.156 27.5226 21.8644 27.4918 21.5727 27.4935H17.5727V50.056L33.5102 54.556ZM2.57269 49.9935C2.57269 51.3685 3.06269 52.546 4.04269 53.526C5.02269 54.506 6.19936 54.9951 7.57269 54.9935C8.94769 54.9935 10.1252 54.5043 11.1052 53.526C12.0852 52.5476 12.5744 51.3701 12.5727 49.9935V32.4935C12.5727 31.1185 12.0835 29.9418 11.1052 28.9635C10.1269 27.9851 8.94936 27.4951 7.57269 27.4935C6.19769 27.4935 5.02103 27.9835 4.04269 28.9635C3.06436 29.9435 2.57436 31.1201 2.57269 32.4935V49.9935Z" fill="#C98623"/>
</svg>
