<svg width="61" height="60" viewBox="0 0 61 60" fill="none" xmlns="http://www.w3.org/2000/svg">
<path d="M10.0194 52.4864C8.64436 52.4864 7.4677 51.9972 6.48936 51.0189C5.51103 50.0405 5.02103 48.863 5.01936 47.4864V12.4864C5.01936 11.1114 5.50936 9.93469 6.48936 8.95636C7.46936 7.97803 8.64603 7.48803 10.0194 7.48636H50.0194C51.3944 7.48636 52.5719 7.97636 53.5519 8.95636C54.5319 9.93636 55.021 11.113 55.0194 12.4864V47.4864C55.0194 48.8614 54.5302 50.0389 53.5519 51.0189C52.5735 51.9989 51.396 52.488 50.0194 52.4864H10.0194ZM12.5194 42.4864H25.0194V37.4864H12.5194V42.4864ZM36.3944 37.4864L48.7694 25.1114L45.2069 21.5489L36.3944 30.4239L32.8319 26.8614L29.3319 30.4239L36.3944 37.4864ZM12.5194 32.4864H25.0194V27.4864H12.5194V32.4864ZM12.5194 22.4864H25.0194V17.4864H12.5194V22.4864Z" fill="#C98623"/>
</svg>
