<svg width="61" height="60" viewBox="0 0 61 60" fill="none" xmlns="http://www.w3.org/2000/svg">
<g clip-path="url(#clip0_1_177)">
<path d="M26.3293 52.4884C26.3293 52.4884 22.5793 52.4884 22.5793 48.7384C22.5793 44.9884 26.3293 33.7384 41.3293 33.7384C56.3293 33.7384 60.0793 44.9884 60.0793 48.7384C60.0793 52.4884 56.3293 52.4884 56.3293 52.4884H26.3293ZM41.3293 29.9884C44.313 29.9884 47.1745 28.8031 49.2842 26.6934C51.394 24.5836 52.5793 21.7221 52.5793 18.7384C52.5793 15.7547 51.394 12.8932 49.2842 10.7835C47.1745 8.67367 44.313 7.4884 41.3293 7.4884C38.3456 7.4884 35.4841 8.67367 33.3743 10.7835C31.2646 12.8932 30.0793 15.7547 30.0793 18.7384C30.0793 21.7221 31.2646 24.5836 33.3743 26.6934C35.4841 28.8031 38.3456 29.9884 41.3293 29.9884ZM19.6393 52.4884C19.0834 51.3177 18.8061 50.0342 18.8293 48.7384C18.8293 43.6572 21.3793 38.4259 26.0893 34.7884C23.7384 34.064 21.2891 33.7098 18.8293 33.7384C3.82929 33.7384 0.0792928 44.9884 0.0792928 48.7384C0.0792928 52.4884 3.82929 52.4884 3.82929 52.4884H19.6393ZM16.9543 29.9884C19.4407 29.9884 21.8253 29.0007 23.5834 27.2425C25.3416 25.4844 26.3293 23.0998 26.3293 20.6134C26.3293 18.127 25.3416 15.7424 23.5834 13.9843C21.8253 12.2261 19.4407 11.2384 16.9543 11.2384C14.4679 11.2384 12.0833 12.2261 10.3252 13.9843C8.56701 15.7424 7.57929 18.127 7.57929 20.6134C7.57929 23.0998 8.56701 25.4844 10.3252 27.2425C12.0833 29.0007 14.4679 29.9884 16.9543 29.9884Z" fill="#C98623"/>
</g>
<defs>
<clipPath id="clip0_1_177">
<rect width="60" height="60" fill="white" transform="translate(0.0410156)"/>
</clipPath>
</defs>
</svg>
