<svg width="61" height="61" viewBox="0 0 61 61" fill="none" xmlns="http://www.w3.org/2000/svg">
<g clip-path="url(#clip0_1_175)">
<path d="M41.2585 18.7809C41.2585 21.7646 40.0733 24.6261 37.9635 26.7358C35.8537 28.8456 32.9922 30.0309 30.0085 30.0309C27.0249 30.0309 24.1634 28.8456 22.0536 26.7358C19.9438 24.6261 18.7585 21.7646 18.7585 18.7809C18.7585 15.7972 19.9438 12.9357 22.0536 10.8259C24.1634 8.71615 27.0249 7.53088 30.0085 7.53088C32.9922 7.53088 35.8537 8.71615 37.9635 10.8259C40.0733 12.9357 41.2585 15.7972 41.2585 18.7809ZM7.50854 48.7809C7.50854 52.5309 11.2585 52.5309 11.2585 52.5309H30.9685C30.331 50.7241 30.0064 48.8218 30.0085 46.9059C30.0061 44.4941 30.5217 42.1099 31.5207 39.9147C32.5196 37.7195 33.9785 35.7646 35.7985 34.1821C34.0473 33.9234 32.1235 33.7809 30.0085 33.7809C11.2585 33.7809 7.50854 45.0309 7.50854 48.7809ZM44.581 35.5059C45.256 33.2071 48.511 33.2071 49.1898 35.5059L49.351 36.0609C49.4518 36.4052 49.6284 36.7225 49.8679 36.9895C50.1074 37.2565 50.4037 37.4665 50.735 37.6039C51.0663 37.7413 51.4243 37.8027 51.7824 37.7836C52.1406 37.7645 52.49 37.6653 52.8048 37.4934L53.3148 37.2159C55.4185 36.0684 57.721 38.3709 56.5773 40.4746L56.296 40.9846C56.1248 41.2993 56.0262 41.6483 56.0075 42.0061C55.9887 42.3638 56.0503 42.7212 56.1877 43.052C56.325 43.3829 56.5347 43.6788 56.8014 43.918C57.068 44.1573 57.3848 44.3338 57.7285 44.4346L58.2873 44.6034C60.5823 45.2784 60.5823 48.5334 58.2873 49.2121L57.7248 49.3734C57.3812 49.475 57.0647 49.6522 56.7985 49.892C56.5323 50.1319 56.3232 50.4283 56.1866 50.7596C56.0499 51.0908 55.9891 51.4484 56.0087 51.8062C56.0283 52.164 56.1278 52.5128 56.2998 52.8271L56.5773 53.3371C57.721 55.4409 55.4185 57.7434 53.3148 56.5996L52.8048 56.3184C52.4901 56.1472 52.1411 56.0486 51.7834 56.0298C51.4256 56.0111 51.0682 56.0726 50.7374 56.21C50.4065 56.3474 50.1106 56.5571 49.8714 56.8237C49.6322 57.0903 49.4556 57.4071 49.3548 57.7509L49.186 58.3096C48.511 60.6046 45.256 60.6046 44.5773 58.3096L44.416 57.7471C44.3145 57.4035 44.1373 57.087 43.8974 56.8208C43.6575 56.5547 43.3611 56.3456 43.0299 56.2089C42.6986 56.0722 42.341 56.0115 41.9832 56.0311C41.6255 56.0507 41.2766 56.1501 40.9623 56.3221L40.4523 56.5996C38.3485 57.7434 36.046 55.4409 37.1898 53.3371L37.471 52.8271C37.6423 52.5125 37.7409 52.1635 37.7596 51.8057C37.7784 51.448 37.7168 51.0906 37.5794 50.7597C37.4421 50.4289 37.2324 50.133 36.9657 49.8937C36.6991 49.6545 36.3823 49.478 36.0385 49.3771L35.4835 49.2084C33.1848 48.5334 33.1848 45.2784 35.4835 44.5996L36.0385 44.4384C36.3828 44.3377 36.7001 44.1611 36.9672 43.9216C37.2342 43.6821 37.4441 43.3857 37.5815 43.0544C37.719 42.7231 37.7804 42.3652 37.7613 42.007C37.7421 41.6488 37.643 41.2994 37.471 40.9846L37.1935 40.4746C36.046 38.3709 38.3485 36.0684 40.4523 37.2121L40.9623 37.4934C41.277 37.6646 41.626 37.7632 41.9837 37.782C42.3415 37.8007 42.6989 37.7391 43.0297 37.6018C43.3605 37.4644 43.6564 37.2547 43.8957 36.9881C44.1349 36.7214 44.3114 36.4046 44.4123 36.0609L44.581 35.5059ZM52.5085 46.9059C52.5085 46.1672 52.3631 45.4357 52.0804 44.7533C51.7977 44.0708 51.3834 43.4507 50.861 42.9284C50.3387 42.4061 49.7186 41.9917 49.0361 41.7091C48.3537 41.4264 47.6222 41.2809 46.8835 41.2809C46.1449 41.2809 45.4134 41.4264 44.731 41.7091C44.0485 41.9917 43.4284 42.4061 42.9061 42.9284C42.3837 43.4507 41.9694 44.0708 41.6867 44.7533C41.404 45.4357 41.2585 46.1672 41.2585 46.9059C41.2585 48.3977 41.8512 49.8285 42.9061 50.8834C43.961 51.9383 45.3917 52.5309 46.8835 52.5309C48.3754 52.5309 49.8061 51.9383 50.861 50.8834C51.9159 49.8285 52.5085 48.3977 52.5085 46.9059Z" fill="#C98623"/>
</g>
<defs>
<clipPath id="clip0_1_175">
<rect width="60" height="60" fill="white" transform="translate(0.0410156 0.0424805)"/>
</clipPath>
</defs>
</svg>
