<svg width="58" height="58" viewBox="0 0 58 58" fill="none" xmlns="http://www.w3.org/2000/svg">
	<path opacity="0.3" fill-rule="evenodd" clip-rule="evenodd" d="M2.20493 17.6674C4.09935 8.50272 9.92804 3.39824 19.0199 1.85612C25.7409 0.716493 32.4644 0.702104 39.1739 1.88819C48.5354 3.54295 54.1629 8.94509 55.9557 18.2484C57.3409 25.4385 57.3626 32.705 55.934 39.8881C54.0174 48.9895 48.0384 54.6075 38.9801 56.1439C32.2591 57.2835 25.5357 57.2979 18.8261 56.1118C9.46467 54.4571 3.81216 48.7852 2.01934 39.482C0.563708 32.2446 0.703823 24.932 2.20493 17.6674Z" stroke="#F10000" stroke-width="1.4" stroke-miterlimit="3.99933" stroke-linecap="round"/>
	<path fill-rule="evenodd" clip-rule="evenodd" d="M6.0328 19.2864C7.65659 11.4309 12.6526 7.05563 20.4456 5.73382C26.2065 4.75699 31.9695 4.74466 37.7205 5.7613C45.7446 7.17967 50.5682 11.8101 52.1049 19.7843C53.2922 25.9472 53.3108 32.1757 52.0863 38.3327C50.4435 46.1339 45.3186 50.9493 37.5544 52.2662C31.7935 53.243 26.0306 53.2553 20.2795 52.2387C12.2554 50.8203 7.41042 45.9588 5.87372 37.9845C4.62604 31.7811 4.74613 25.5131 6.0328 19.2864Z" fill="#F10000"/>
</svg>
