<svg width="48" height="28" viewBox="0 0 48 28" fill="none" xmlns="http://www.w3.org/2000/svg">
<path d="M29.6752 15.6502V9.39746L26.0808 15.6502H29.6752Z" fill="#ED1C24"/>
<path d="M15.0891 11.7472L12.9737 15.5395H15.6882L15.4261 16.3535C14.7521 18.3329 12.5992 19.8498 10.8769 19.8498C7.65689 19.8498 5.37293 17.4079 5.37293 14.1336C5.37293 11.0997 7.28247 8.54682 10.7646 8.54682C10.8956 8.54682 11.0267 8.54682 11.139 8.56532V8.54682H16.4558L13.7412 3.68153C12.5618 3.68153 11.8504 3.64453 10.5025 3.64453C4.62409 3.64453 0 8.49132 0 14.1891C0 19.9053 4.62409 24.7336 10.5025 24.7336C15.9877 24.7336 19.7881 20.8488 20.8178 16.298L18.253 11.7472H15.0891Z" fill="black"/>
<path d="M41.9532 9.80444C41.9532 8.93498 42.4774 8.62049 43.1326 8.62049H46.8956L44.1061 3.69971H42.4025C39.1825 3.69971 36.2246 6.0676 36.2246 9.47146C36.2246 12.9123 41.9158 15.9277 41.9158 17.8516C41.9158 19.165 41.0921 19.6275 39.9126 19.6275H36.2059H36.4118L38.7332 23.7528L39.2387 24.6593H41.9345C45.0047 24.6593 48.0001 21.9029 48.0001 18.5916C48.0188 13.7818 41.9532 11.5249 41.9532 9.80444Z" fill="black"/>
<path d="M36.4508 19.6094H36.2449H34.223V24.3822H29.6925V19.6094H22.5411L25.3492 24.5672C25.3492 24.5672 27.1652 27.9155 32.1637 27.9155C38.9781 27.9155 41.1123 27.8785 41.1123 27.8785L39.2964 24.6412L38.7909 23.7347L36.4508 19.6094Z" fill="#ED1C24"/>
<path d="M26.8073 6.16023C28.0804 3.86633 26.695 1.99791 26.695 1.99791C26.695 1.99791 25.4781 0 21.7152 0C17.9336 0 11.662 0 11.662 0L13.7401 3.68134L16.4546 8.52813L18.2518 11.747L20.7979 16.2978L20.8166 16.3348C20.8353 16.3348 25.5343 8.45413 26.8073 6.16023Z" fill="#ED1C24"/>
</svg>
