<svg width="20" height="18" viewBox="0 0 20 18" fill="none" xmlns="http://www.w3.org/2000/svg">
<path d="M1.25298 5.25131L3.75205 2.12747C4.73606 0.87793 4.70483 0.87793 5.62636 0.87793H14.3731C15.2946 0.87793 15.2634 0.87793 16.2474 2.12747L18.7465 5.25131C20.4334 7.12561 20.4021 7.12561 18.7465 8.99992L11.874 15.8724C11.2649 16.4971 10.9525 17.1219 9.99974 17.1219C9.04697 17.1219 8.73458 16.4971 8.12543 15.8724L1.25298 8.99992C-0.402656 7.12561 -0.433894 7.12561 1.25298 5.25131Z" fill="#910505"/>
<path d="M14.9979 8.37515H5.00156L9.29685 16.9657C9.4999 17.0594 9.71857 17.1219 9.99971 17.1219C10.2809 17.1219 10.4995 17.075 10.687 16.9813L14.9979 8.37515ZM19.9804 7.12561V6.9538C19.8867 6.53208 19.4806 6.07913 18.7465 5.25131L16.2474 2.12747C15.2634 0.87793 15.2946 0.87793 14.3731 0.87793H9.98409L14.9822 8.37515C15.0447 8.31267 19.9804 7.12561 19.9804 7.12561ZM3.75203 2.12747L1.25295 5.25131C0.409517 6.18846 0.00341797 6.65704 0.00341797 7.12561C0.0502756 7.14123 4.93909 8.31267 5.00156 8.37515L9.99971 0.87793H5.62633C4.7048 0.87793 4.73604 0.87793 3.75203 2.12747Z" fill="#BD0C0C"/>
<path d="M5.00195 8.37515L10.0001 0.87793L14.9982 8.37515H5.00195Z" fill="#F15151"/>
<path d="M15.5759 1.29965C15.2011 0.87793 15.0137 0.87793 14.3733 0.87793H9.99989L14.998 8.37515L15.5759 1.29965ZM4.42383 1.31527L5.00174 8.37515L9.99989 0.87793H5.62651C4.98612 0.87793 4.81431 0.87793 4.42383 1.31527Z" fill="#DE2626"/>
</svg>
