<svg version="1.2" xmlns="http://www.w3.org/2000/svg" viewBox="0 0 12 14" width="12" height="14">
	<title>Shape 942</title>
	<style>
		.s0 { fill: #ff0000 } 
	</style>
	<path id="Shape 942" fill-rule="evenodd" class="s0" d="m2.6 14q-0.2-0.1-0.4-0.1c-0.4-0.3-0.6-0.7-0.7-1.2q-0.2-2.5-0.4-5.1-0.1-1.2-0.2-2.5 0 0 0-0.1 5.1 0 10.2 0 0 0.4-0.1 0.9-0.1 1.2-0.2 2.5-0.1 1.4-0.2 2.8-0.1 0.9-0.1 1.7c-0.1 0.6-0.5 1-1 1.1q0 0-0.1 0-3.4 0-6.8 0zm1.4-4.9q0-1.4 0-2.9 0-0.3-0.3-0.4c-0.2-0.1-0.5 0.1-0.5 0.4q0 2.7 0 5.3 0 0.2 0 0.5 0 0.2 0.3 0.3c0.3 0.1 0.5-0.1 0.5-0.4q0-1.4 0-2.8zm2.4 0q0-1.4 0-2.9 0-0.3-0.3-0.4c-0.2-0.1-0.5 0.1-0.5 0.4q0 2.8 0 5.6 0 0.1 0 0.2 0 0.3 0.3 0.3c0.3 0.1 0.5-0.1 0.5-0.4q0-1.4 0-2.8zm1.6 0q0 0.2 0 0.4 0 1.2 0 2.4 0 0.3 0.3 0.4c0.3 0.1 0.5-0.1 0.5-0.4q0-1.9 0-3.8 0-0.9 0-1.9 0-0.2-0.2-0.4c-0.3-0.1-0.6 0.1-0.6 0.4q0 1.5 0 2.9zm-2-5q-2.7 0-5.4 0-0.2 0-0.3 0-0.3-0.1-0.3-0.3c0-0.4 0-0.8 0-1.1 0.1-0.6 0.6-1.1 1.2-1.1q1.1 0 2.2 0 0.2 0.1 0.2-0.1 0.1-0.3 0.2-0.7c0.2-0.5 0.7-0.8 1.2-0.8q1 0 2 0c0.5 0 1 0.3 1.2 0.8q0.1 0.4 0.2 0.7 0 0.2 0.1 0.1 1.1 0 2.2 0c0.8 0 1.3 0.6 1.3 1.3q0 0.4 0 0.7 0 0.5-0.5 0.5-2.7 0-5.5 0zm-1.6-2.5q1.6 0 3.2 0-0.1-0.3-0.2-0.5-0.1-0.3-0.4-0.3-1 0-2 0-0.3 0-0.4 0.3-0.1 0.2-0.2 0.5z"/>
</svg>