<?xml version="1.0" standalone="no"?>
<!DOCTYPE svg PUBLIC "-//W3C//DTD SVG 20010904//EN"
 "http://www.w3.org/TR/2001/REC-SVG-20010904/DTD/svg10.dtd">
<svg version="1.0" xmlns="http://www.w3.org/2000/svg"
 width="396.000000pt" height="396.000000pt" viewBox="0 0 396.000000 396.000000"
 preserveAspectRatio="xMidYMid meet">
<metadata>
Created by potrace 1.14, written by Peter Selinger 2001-2017
</metadata>
<g transform="translate(0.000000,396.000000) scale(0.100000,-0.100000)"
fill="#000000" stroke="none">
<path d="M1700 3210 c-8 -5 -31 -10 -50 -10 -47 0 -60 -15 -60 -66 0 -37 -3
-43 -22 -46 -21 -3 -23 -10 -30 -98 -11 -144 -19 -204 -29 -214 -5 -6 -9 -86
-9 -178 0 -137 -3 -168 -14 -168 -8 0 -16 7 -20 15 -3 8 -17 15 -31 15 -16 0
-25 -6 -25 -15 0 -10 -10 -15 -30 -15 -28 0 -30 -3 -30 -35 0 -35 0 -35 -45
-35 l-45 0 0 -212 c0 -141 -4 -208 -10 -198 -5 8 -10 29 -10 46 0 17 -7 37
-15 44 -8 7 -16 24 -16 39 l-2 26 -4 -25 c-3 -14 -11 -32 -18 -40 -7 -8 -15
-31 -18 -50 -2 -19 -5 -2 -5 38 -1 40 -6 72 -12 72 -6 0 -10 92 -10 255 l0
255 -35 0 -35 0 0 90 c0 53 -4 90 -10 90 -5 0 -10 18 -10 39 0 22 -4 41 -10
43 -5 2 -12 45 -16 96 -4 50 -11 92 -15 92 -5 0 -9 8 -9 19 0 10 -7 24 -15 31
-13 10 -17 7 -30 -23 -8 -20 -15 -59 -15 -86 0 -27 -4 -53 -10 -56 -5 -3 -10
-22 -10 -41 0 -19 -4 -34 -10 -34 -5 0 -10 -7 -10 -15 0 -11 -11 -15 -40 -15
l-40 0 0 -370 c0 -240 -4 -370 -10 -370 -6 0 -10 -35 -10 -85 0 -74 -2 -85
-17 -85 -10 0 -26 -14 -36 -31 -11 -19 -23 -29 -31 -26 -8 3 -20 -1 -26 -9 -7
-8 -10 -15 -6 -15 3 -1 15 -3 26 -4 11 -1 23 -3 26 -4 4 0 1 -8 -6 -16 -9 -10
-16 -12 -25 -5 -8 6 -16 5 -25 -3 -10 -10 -12 -9 -7 5 3 10 2 20 -3 23 -6 4
-10 22 -10 41 l0 34 -62 0 c-113 0 -108 5 -108 -128 0 -95 -3 -119 -18 -136
-16 -20 -16 -20 2 -6 17 13 19 13 14 0 -2 -8 -13 -15 -24 -15 -22 0 -21 -5
-23 168 l-1 117 -62 0 c-95 0 -108 -6 -108 -46 0 -32 2 -34 35 -34 l35 0 0
-235 0 -235 84 0 c76 0 85 2 91 20 10 31 58 52 90 40 37 -14 55 -12 55 5 0 8
5 15 10 15 6 0 10 -4 10 -10 0 -5 9 -10 20 -10 23 0 26 10 8 28 -9 9 0 12 40
12 39 0 52 -4 52 -15 0 -8 15 -21 34 -29 19 -8 37 -24 41 -35 6 -19 14 -21 75
-21 60 0 69 3 83 24 15 22 23 24 89 24 40 0 78 -5 85 -10 7 -6 14 -5 18 2 13
21 57 10 86 -21 29 -31 31 -32 94 -26 46 4 72 12 87 27 23 21 43 26 52 11 4
-5 19 -5 36 2 33 13 32 6 30 165 l-1 92 80 0 c65 0 81 -3 81 -15 0 -12 19 -15
110 -15 91 0 110 3 110 15 0 8 -7 15 -15 15 -13 0 -15 68 -15 555 0 474 -2
555 -15 562 -11 6 -16 43 -22 153 l-8 145 -27 13 c-23 11 -28 20 -28 51 0 47
-14 61 -61 61 -21 0 -41 5 -44 10 -8 13 -35 13 -55 0z m-443 -1357 c-2 -16 -4
-3 -4 27 0 30 2 43 4 28 2 -16 2 -40 0 -55z m-540 -91 c-4 -26 -17 -43 -28
-36 -6 4 -6 11 2 20 9 11 7 15 -7 21 -16 6 -16 7 2 13 24 9 34 3 31 -18z m79
-12 c0 -16 -4 -30 -8 -30 -4 0 -6 10 -4 23 3 12 5 25 5 30 1 4 3 7 5 7 2 0 3
-13 2 -30z m-102 -67 c-6 -61 -12 -85 -22 -95 -9 -9 -10 -3 -7 22 2 18 9 38
14 43 18 18 12 31 -6 16 -14 -12 -14 -10 1 14 10 15 19 27 21 27 1 0 1 -12 -1
-27z m101 -84 l4 -94 -9 84 c-5 46 -12 86 -16 90 -4 3 -4 -26 0 -65 9 -90 3
-104 -40 -104 -39 0 -39 1 -18 83 19 73 24 83 34 67 5 -8 10 -1 15 20 12 55
26 18 30 -81z"/>
<path d="M737 1603 c-4 -20 -4 -39 -2 -42 3 -2 5 3 5 12 0 10 4 17 9 17 5 0 8
11 7 25 -2 37 -13 30 -19 -12z"/>
<path d="M721 1534 c0 -11 3 -14 6 -6 3 7 2 16 -1 19 -3 4 -6 -2 -5 -13z"/>
<path d="M2452 3060 c-8 -14 -23 -20 -46 -20 -22 0 -36 -6 -40 -16 -3 -9 -6
-231 -6 -495 l0 -479 -110 0 -110 0 0 98 c1 65 5 105 15 122 20 36 18 54 -7
65 -17 7 -22 17 -20 35 2 14 3 54 4 90 0 45 5 68 15 75 15 11 39 66 50 115 5
21 4 23 -8 14 -8 -7 -47 -10 -96 -9 l-82 2 13 -26 c7 -14 16 -39 20 -55 4 -17
13 -35 21 -40 8 -7 15 -46 19 -103 7 -90 6 -91 -18 -100 -24 -8 -24 -8 -8 -48
15 -34 17 -84 17 -357 0 -248 -3 -318 -12 -318 -9 0 -13 -17 -13 -50 0 -48 -1
-51 -30 -56 -30 -6 -30 -7 -30 -71 l0 -64 118 3 117 3 1 40 c1 63 -6 84 -29
87 -19 3 -22 10 -25 56 -2 37 -7 52 -18 52 -11 0 -14 15 -14 64 l0 63 53 5
c28 3 109 4 180 3 l127 -2 0 118 c0 73 -4 119 -10 119 -18 0 -11 15 13 25 19
9 22 19 25 78 2 42 -2 74 -9 83 -9 11 -8 14 5 14 13 0 16 11 16 60 0 57 2 61
33 80 17 11 40 20 50 20 11 0 17 8 17 25 0 20 -5 25 -24 25 -20 0 -23 4 -18
28 3 15 14 39 25 54 16 21 18 30 8 41 -8 11 -8 20 2 40 l13 26 17 -28 c12 -21
13 -31 5 -39 -9 -9 -8 -19 4 -40 8 -15 18 -39 22 -54 6 -25 4 -28 -19 -28 -20
0 -25 -5 -25 -24 0 -19 7 -25 35 -30 50 -10 77 -49 73 -105 -3 -41 -1 -46 22
-52 14 -4 18 -7 9 -8 -23 -1 -29 -22 -29 -92 0 -54 2 -61 25 -71 26 -12 31
-23 15 -33 -6 -4 -10 -57 -10 -126 l0 -120 38 -15 c20 -9 55 -24 78 -35 25
-12 62 -19 97 -19 l57 0 0 -97 c0 -82 -3 -100 -19 -117 -11 -12 -23 -33 -26
-48 l-7 -28 237 0 236 0 -6 23 c-4 12 -17 32 -28 45 l-20 22 46 0 47 0 0 229
c0 126 3 236 6 245 8 21 60 21 68 0 3 -9 6 -119 6 -245 0 -222 1 -229 20 -229
20 0 20 7 20 310 l0 310 -110 0 c-67 0 -110 4 -110 10 0 6 -16 10 -35 10 -24
0 -35 5 -35 15 0 8 -4 15 -10 15 -5 0 -10 -7 -10 -15 0 -10 -11 -15 -35 -15
-19 0 -35 -4 -35 -10 0 -5 -13 -10 -30 -10 l-30 0 0 -60 0 -60 -60 0 c-53 0
-60 2 -60 20 0 19 -7 20 -90 20 l-90 0 0 353 c0 195 -3 429 -7 520 l-6 167
-183 0 c-173 0 -184 1 -194 20 -6 11 -18 20 -28 20 -9 0 -23 -9 -30 -20z m213
-402 c6 -4 0 -8 -12 -8 -16 0 -21 4 -16 15 3 9 8 12 12 8 3 -4 11 -11 16 -15z
m-507 -24 c2 -1 -4 -14 -14 -29 -13 -20 -19 -23 -26 -13 -6 11 -10 11 -17 -1
-7 -10 -12 -8 -25 10 -20 30 -20 37 2 42 16 4 73 -2 80 -9z m1190 -1144 c4
-37 -28 -54 -65 -35 -36 19 -63 19 -91 -1 -21 -15 -22 -14 -22 19 0 18 3 37 7
41 4 4 43 5 88 4 77 -3 80 -4 83 -28z"/>
<path d="M706 1828 c3 -5 10 -6 15 -3 13 9 11 12 -6 12 -8 0 -12 -4 -9 -9z"/>
<path d="M1754 1476 c-17 -8 -41 -26 -53 -41 -21 -28 -21 -28 -2 -47 17 -15
37 -18 126 -18 67 0 105 4 105 10 0 30 -35 73 -73 91 -50 22 -62 23 -103 5z"/>
<path d="M24 1396 l-14 -21 146 -3 c81 -1 149 0 152 3 3 3 -2 13 -12 24 -14
16 -32 18 -137 18 -111 0 -121 -1 -135 -21z"/>
<path d="M27 1113 c-4 -3 -7 -98 -7 -210 l0 -203 60 0 60 0 0 75 0 75 70 0 70
0 48 -75 47 -74 62 -1 63 0 -18 28 c-10 15 -39 60 -66 101 -39 59 -47 77 -38
90 6 9 27 43 47 76 20 33 45 75 57 93 l20 33 -63 -3 -63 -3 -46 -77 -45 -78
-72 0 -73 0 0 80 0 80 -53 0 c-30 0 -57 -3 -60 -7z"/>
<path d="M560 910 l0 -210 200 0 200 0 0 50 0 50 -145 0 -145 0 0 30 0 30 125
0 125 0 0 50 0 50 -125 0 -125 0 0 30 0 30 145 0 145 0 0 50 0 50 -200 0 -200
0 0 -210z"/>
<path d="M997 1108 c5 -7 32 -42 59 -78 27 -36 56 -74 64 -86 8 -12 30 -40 48
-64 29 -39 32 -50 32 -112 l0 -68 49 0 49 0 3 73 4 73 90 119 c50 66 96 128
103 137 12 17 9 18 -52 18 l-65 0 -48 -66 c-26 -36 -56 -75 -65 -87 l-18 -22
-17 21 c-10 12 -39 51 -65 87 l-48 67 -66 0 c-52 0 -64 -3 -57 -12z"/>
<path d="M1710 1070 l0 -50 80 0 80 0 0 -160 0 -160 55 0 54 0 3 158 3 157 78
3 77 3 0 49 0 50 -215 0 -215 0 0 -50z"/>
<path d="M2295 1100 c-55 -26 -69 -39 -94 -85 -41 -77 -21 -215 38 -263 51
-42 105 -56 211 -57 92 0 111 3 154 25 28 14 64 42 80 63 29 37 31 44 31 127
0 83 -2 90 -31 127 -53 66 -100 83 -234 83 -93 0 -123 -4 -155 -20z m282 -104
c25 -22 28 -31 28 -86 0 -55 -3 -64 -28 -86 -26 -22 -37 -24 -128 -24 -98 0
-101 1 -130 29 -25 25 -29 37 -29 81 0 44 4 56 29 81 29 28 32 29 130 29 91 0
102 -2 128 -24z"/>
<path d="M2764 1093 c4 -16 30 -110 58 -210 l51 -183 52 0 52 0 48 110 c27 61
51 110 54 110 3 0 28 -49 55 -110 l48 -110 52 0 53 0 28 103 c15 56 38 136 51
177 12 41 25 90 29 108 l7 32 -59 0 -59 0 -29 -130 c-17 -71 -32 -130 -35
-130 -4 0 -25 41 -47 90 l-41 90 -52 0 -52 0 -41 -90 c-22 -49 -44 -90 -48
-90 -5 0 -11 17 -15 38 -3 20 -15 70 -25 111 -10 41 -19 83 -19 93 0 15 -9 18
-61 18 l-61 0 6 -27z"/>
<path d="M3470 910 l0 -210 50 0 50 0 0 120 c0 66 3 120 8 120 4 -1 66 -55
137 -120 128 -118 131 -120 178 -120 l47 0 0 210 0 210 -55 0 -55 0 0 -121 0
-121 -47 41 c-27 22 -86 77 -133 121 -81 76 -87 79 -132 80 l-48 0 0 -210z"/>
</g>
</svg>
