<?xml version="1.0" standalone="no"?>
<!DOCTYPE svg PUBLIC "-//W3C//DTD SVG 20010904//EN"
 "http://www.w3.org/TR/2001/REC-SVG-20010904/DTD/svg10.dtd">
<svg version="1.0" xmlns="http://www.w3.org/2000/svg"
 width="300.000000pt" height="300.000000pt" viewBox="0 0 300.000000 300.000000"
 preserveAspectRatio="xMidYMid meet">
<metadata>
Created by potrace 1.11, written by Peter Selinger 2001-2013
</metadata>
<g transform="translate(0.000000,300.000000) scale(0.100000,-0.100000)"
fill="#000000" stroke="none">
<path d="M1844 2822 c-154 -98 -335 -214 -403 -257 -69 -44 -129 -79 -134 -77
-13 4 -808 351 -839 367 -15 7 -29 11 -31 9 -2 -2 2 -26 8 -52 16 -61 94 -359
139 -532 19 -74 46 -178 60 -230 14 -52 26 -101 26 -107 0 -7 -21 -37 -47 -66
-27 -29 -78 -86 -114 -127 -209 -236 -253 -286 -263 -292 -20 -13 3 -20 81
-24 43 -2 117 -6 164 -9 l87 -5 73 82 c41 45 96 107 123 138 27 30 52 57 55
60 3 3 37 40 75 83 58 66 67 82 62 105 -3 15 -24 97 -46 182 -23 85 -43 163
-45 172 -2 9 -11 44 -21 78 -9 33 -15 63 -12 66 3 2 114 -43 248 -101 133 -59
248 -104 256 -101 12 5 304 190 427 270 l28 19 -6 -79 c-4 -43 -8 -90 -10
-104 -2 -14 -7 -61 -10 -105 -4 -44 -8 -92 -11 -106 -2 -15 -6 -56 -9 -91 l-6
-65 73 -59 c40 -32 82 -66 93 -76 11 -9 74 -60 139 -114 66 -54 115 -99 110
-101 -9 -2 -230 -51 -269 -58 -95 -19 -251 -58 -257 -63 -4 -4 -34 -79 -68
-167 -34 -88 -65 -169 -70 -180 -5 -11 -25 -59 -44 -107 -34 -86 -34 -88 -17
-120 26 -50 152 -268 155 -268 2 0 57 137 122 305 79 203 125 307 136 311 17
5 43 11 88 20 14 3 41 9 60 14 19 5 46 11 60 14 19 3 187 40 330 71 8 2 69 15
135 30 66 15 129 29 140 31 11 2 41 9 67 15 l47 11 -312 255 c-172 140 -334
274 -361 297 -27 22 -54 44 -62 49 -7 4 -11 17 -9 28 2 11 7 56 10 100 3 43 8
88 10 99 2 11 6 55 10 98 5 73 11 132 20 212 2 19 7 71 11 115 3 44 8 87 9 95
2 8 6 53 10 100 3 47 9 93 11 103 3 9 3 17 1 17 -2 0 -130 -80 -283 -178z"/>
<path d="M536 1197 c-26 -20 -226 -290 -232 -314 -24 -90 87 -153 150 -85 38
40 295 386 291 390 -2 3 -28 6 -57 8 -29 2 -72 6 -94 9 -24 2 -49 -2 -58 -8z"/>
<path d="M922 1180 c-15 -3 -66 -78 -175 -255 -84 -137 -186 -304 -227 -370
-40 -66 -116 -190 -168 -275 -110 -178 -119 -213 -67 -257 23 -21 36 -24 68
-20 42 6 68 29 105 97 10 19 135 224 277 455 141 231 273 446 292 477 l35 57
-26 44 c-21 36 -32 45 -59 49 -18 2 -43 1 -55 -2z"/>
<path d="M1035 748 c-119 -246 -126 -263 -113 -300 18 -50 91 -74 135 -43 12
8 60 94 107 190 l85 175 -52 90 c-29 49 -54 90 -57 90 -3 0 -50 -91 -105 -202z"/>
</g>
</svg>
