<?xml version="1.0" standalone="no"?>
<!DOCTYPE svg PUBLIC "-//W3C//DTD SVG 1.1//EN" "http://www.w3.org/Graphics/SVG/1.1/DTD/svg11.dtd" >
<svg xmlns="http://www.w3.org/2000/svg">
<metadata>Generated by IcoMoon</metadata>
<defs>
<font id="icomoon" horiz-adv-x="1024">
<font-face units-per-em="1024" ascent="960" descent="-64" />
<missing-glyph horiz-adv-x="1024" />
<glyph unicode="&#x20;" horiz-adv-x="512" d="" />
<glyph unicode="&#xe900;" glyph-name="top" d="M324.032 723.552c4.774-7.576 11.946-13.265 20.435-16.052l0.269-0.076c13.984-3.776 17.44-1.696 78.496 47.104l56.32 44.992 0.416-386.944c0.448-383.488 0.48-387.040 3.872-392.768 1.888-3.2 6.368-8.192 9.984-11.104 5.888-4.768 7.712-5.28 18.176-5.28 10.4 0 12.32 0.544 18.176 5.216 3.616 2.848 8.288 8.608 10.4 12.736l3.84 7.52v770.656l56.352-45.024c61.152-48.864 64.512-50.88 78.592-47.072 7.84 2.080 17.664 10.144 21.504 17.568 3.68 7.072 3.552 19.424-0.288 27.424-2.496 5.248-19.616 19.84-84.128 71.68-14.52 12.157-42.845 34.859-71.34 57.356l-15.7 11.956c-4.992 3.52-8.032 4.256-17.408 4.256s-12.416-0.736-17.408-4.256c-44.195-34.453-72.52-57.155-100.675-80.058l13.635 10.746c-60.704-48.768-81.696-66.592-83.84-71.104-3.872-8.16-3.712-22.848 0.32-29.472z" />
<glyph unicode="&#xe901;" glyph-name="bottom" d="M699.968 172.448c-4.774 7.576-11.946 13.265-20.435 16.052l-0.269 0.076c-13.984 3.776-17.44 1.696-78.496-47.104l-56.32-44.992-0.416 386.944c-0.448 383.488-0.48 387.040-3.872 392.768-1.888 3.2-6.368 8.192-9.984 11.104-5.888 4.768-7.712 5.28-18.176 5.28-10.4 0-12.32-0.544-18.176-5.216-3.616-2.848-8.288-8.608-10.4-12.736l-3.84-7.52v-770.656l-56.352 45.024c-61.152 48.864-64.512 50.88-78.592 47.072-7.84-2.080-17.664-10.144-21.504-17.568-3.68-7.072-3.552-19.424 0.288-27.424 2.496-5.248 19.616-19.84 84.128-71.68 14.52-12.157 42.845-34.859 71.34-57.356l15.7-11.956c4.992-3.52 8.032-4.256 17.408-4.256s12.416 0.736 17.408 4.256c44.195 34.453 72.52 57.155 100.675 80.058l-13.635-10.746c60.704 48.768 81.696 66.592 83.84 71.104 3.872 8.16 3.712 22.848-0.32 29.472z" />
<glyph unicode="&#xe902;" glyph-name="left" d="M236.448 260.032c7.576 4.774 13.265 11.946 16.052 20.435l0.076 0.269c3.776 13.984 1.696 17.44-47.104 78.496l-44.992 56.32 386.944 0.416c383.488 0.448 387.040 0.48 392.768 3.872 3.2 1.888 8.192 6.368 11.104 9.984 4.768 5.888 5.28 7.712 5.28 18.176 0 10.4-0.544 12.32-5.216 18.176-2.848 3.616-8.608 8.288-12.736 10.4l-7.52 3.84h-770.656l45.024 56.352c48.864 61.152 50.88 64.512 47.072 78.592-2.080 7.84-10.144 17.664-17.568 21.504-7.072 3.68-19.424 3.552-27.424-0.288-5.248-2.496-19.84-19.616-71.68-84.128-12.157-14.52-34.859-42.845-57.356-71.34l-11.956-15.7c-3.52-4.992-4.256-8.032-4.256-17.408s0.736-12.416 4.256-17.408c34.453-44.195 57.155-72.52 80.058-100.675l-10.746 13.635c48.768-60.704 66.592-81.696 71.104-83.84 8.16-3.872 22.848-3.712 29.472 0.32z" />
<glyph unicode="&#xe903;" glyph-name="right" d="M787.552 635.968c-7.576-4.774-13.265-11.946-16.052-20.435l-0.076-0.269c-3.776-13.984-1.696-17.44 47.104-78.496l44.992-56.32-386.944-0.416c-383.488-0.448-387.040-0.48-392.768-3.872-3.2-1.888-8.192-6.368-11.104-9.984-4.768-5.888-5.28-7.712-5.28-18.176 0-10.4 0.544-12.32 5.216-18.176 2.848-3.616 8.608-8.288 12.736-10.4l7.52-3.84h770.656l-45.024-56.352c-48.864-61.152-50.88-64.512-47.072-78.592 2.080-7.84 10.144-17.664 17.568-21.504 7.072-3.68 19.424-3.552 27.424 0.288 5.248 2.496 19.84 19.616 71.68 84.128 12.157 14.52 34.859 42.845 57.356 71.34l11.956 15.7c3.52 4.992 4.256 8.032 4.256 17.408s-0.736 12.416-4.256 17.408c-34.453 44.195-57.155 72.52-80.058 100.675l10.746-13.635c-48.768 60.704-66.592 81.696-71.104 83.84-8.16 3.872-22.848 3.712-29.472-0.32z" />
<glyph unicode="&#xe904;" glyph-name="left_top" d="M219.2 425.92c17.673 0 32 14.327 32 32v0 208.32l532.8-532.8c5.559-4.783 12.847-7.695 20.815-7.695 17.673 0 32 14.327 32 32 0 7.968-2.912 15.255-7.73 20.857l0.035-0.042-532.16 532.16h206.72c17.673 0 32 14.327 32 32s-14.327 32-32 32v0h-288c-15.906 0-28.8-12.894-28.8-28.8v0-288c0 0 0-0.001 0-0.002 0-17.673 14.327-32 32-32 0.112 0 0.225 0.001 0.337 0.002h-0.017z" />
<glyph unicode="&#xe905;" glyph-name="left_bottom" d="M534.080 155.2c0 17.673-14.327 32-32 32v0h-208.32l532.8 532.8c4.783 5.559 7.695 12.847 7.695 20.815 0 17.673-14.327 32-32 32-7.968 0-15.255-2.912-20.857-7.73l0.042 0.035-532.16-532.16v206.72c0 17.673-14.327 32-32 32s-32-14.327-32-32v0-288c0-15.906 12.894-28.8 28.8-28.8v0h288c0 0 0.001 0 0.002 0 17.673 0 32 14.327 32 32 0 0.112-0.001 0.225-0.002 0.337v-0.017z" />
<glyph unicode="&#xe906;" glyph-name="right_bottom" d="M804.8 470.080c-17.673 0-32-14.327-32-32v0-208.32l-532.8 532.8c-5.559 4.783-12.847 7.695-20.815 7.695-17.673 0-32-14.327-32-32 0-7.968 2.912-15.255 7.73-20.857l-0.035 0.042 532.16-532.16h-206.72c-17.673 0-32-14.327-32-32s14.327-32 32-32v0h288c15.906 0 28.8 12.894 28.8 28.8v0 288c0 0 0 0.001 0 0.002 0 17.673-14.327 32-32 32-0.112 0-0.225-0.001-0.337-0.002h0.017z" />
<glyph unicode="&#xe907;" glyph-name="right_up" d="M489.92 740.8c0-17.673 14.327-32 32-32v0h208.32l-532.8-532.8c-4.783-5.559-7.695-12.847-7.695-20.815 0-17.673 14.327-32 32-32 7.968 0 15.255 2.912 20.857 7.73l-0.042-0.035 532.16 532.16v-206.72c0-17.673 14.327-32 32-32s32 14.327 32 32v0 288c0 15.906-12.894 28.8-28.8 28.8v0h-288c0 0-0.001 0-0.002 0-17.673 0-32-14.327-32-32 0-0.112 0.001-0.225 0.002-0.337v0.017z" />
<glyph unicode="&#xe908;" glyph-name="check" horiz-adv-x="1032" d="M794.323 667.871c-3.447 3.406-8.188 5.51-13.419 5.51s-9.972-2.104-13.421-5.512l0.002 0.002-354.581-398.968-150.194 120.258c-3.562 3.629-8.519 5.878-14.001 5.878-10.832 0-19.613-8.781-19.613-19.613 0-7.037 3.706-13.208 9.272-16.669l0.083-0.048 166.71-131.613c3.499-3.289 8.223-5.31 13.419-5.31s9.92 2.021 13.43 5.319l-0.010-0.010 364.387 412.903c3.016 3.431 4.856 7.96 4.856 12.919 0 5.978-2.675 11.332-6.893 14.929l-0.027 0.023z" />
<glyph unicode="&#xe909;" glyph-name="linkedin" d="M296.107 746.667c-0.024-47.11-38.22-85.291-85.333-85.291-47.128 0-85.333 38.205-85.333 85.333 0 0.015 0 0.030 0 0.045v-0.002c0.024 47.11 38.22 85.291 85.333 85.291 47.128 0 85.333-38.205 85.333-85.333 0-0.015 0-0.030 0-0.045v0.002zM298.667 598.187h-170.667v-534.187h170.667v534.187zM568.32 598.187h-169.813v-534.187h168.107v280.32c0 156.16 203.52 170.667 203.52 0v-280.32h168.533v338.347c0 263.253-301.227 253.44-372.053 124.16l1.707 71.68z" />
<glyph unicode="&#xe90a;" glyph-name="youtube" d="M1002.606 694.47c-11.774 44.060-46.47 78.754-90.53 90.53-79.864 21.4-400.076 21.4-400.076 21.4s-320.214 0-400.078-21.4c-44.052-11.776-78.754-46.47-90.528-90.53-21.394-79.856-21.394-246.476-21.394-246.476s0-166.616 21.394-246.464c11.774-44.060 46.476-78.764 90.528-90.538 79.864-21.392 400.078-21.392 400.078-21.392s320.212 0 400.076 21.392c44.060 11.774 78.756 46.478 90.53 90.538 21.392 79.848 21.392 246.464 21.392 246.464s0 166.62-21.392 246.476zM409.594 294.392v307.206l266.038-153.604-266.038-153.602z" />
<glyph unicode="&#xe90b;" glyph-name="telegram-full" horiz-adv-x="896" d="M893.4 762.8l-135.2-637.6c-10.2-45-36.8-56.2-74.6-35l-206 151.8-99.4-95.6c-11-11-20.2-20.2-41.4-20.2l14.8 209.8 381.8 345c16.6 14.8-3.6 23-25.8 8.2l-472-297.2-203.2 63.6c-44.2 13.8-45 44.2 9.2 65.4l794.8 306.2c36.8 13.8 69-8.2 57-64.4z" />
<glyph unicode="&#xe90c;" glyph-name="facebook" d="M576 576v76.2c0 34.4 7.6 51.8 61 51.8h67v128h-111.8c-137 0-182.2-62.8-182.2-170.6v-85.4h-90v-128h90v-384h166v384h112.8l15.2 128h-128z" />
<glyph unicode="&#xe90d;" glyph-name="instagram" d="M509.291 658.399c-126.42 0-231.168-102.942-231.168-231.168s102.942-231.168 231.168-231.168 231.168 104.748 231.168 231.168-104.748 231.168-231.168 231.168zM509.291 279.139c-81.27 0-148.092 66.822-148.092 148.092s66.822 148.092 148.092 148.092 148.092-66.822 148.092-148.092-66.822-148.092-148.092-148.092zM801.862 663.817c0-28.925-23.449-52.374-52.374-52.374s-52.374 23.449-52.374 52.374c0 28.925 23.449 52.374 52.374 52.374s52.374-23.449 52.374-52.374zM884.938 799.266c-46.956 48.762-113.778 74.046-189.63 74.046h-372.035c-157.122 0-261.869-104.748-261.869-261.869v-370.229c0-77.658 25.284-144.48 75.852-193.242 48.762-46.956 113.778-70.434 187.824-70.434h368.423c77.658 0 142.674 25.284 189.63 70.434 48.762 46.956 74.046 113.778 74.046 191.436v372.035c0 75.852-25.284 140.868-72.24 187.824zM877.714 239.407c0-55.986-19.866-101.136-52.374-131.838s-77.658-46.956-131.838-46.956h-368.423c-54.18 0-99.33 16.254-131.838 46.956-32.508 32.508-48.762 77.658-48.762 133.644v370.229c0 54.18 16.254 99.33 48.762 131.838 30.702 30.702 77.658 46.956 131.838 46.956h372.035c54.18 0 99.33-16.254 131.838-48.762 30.702-32.508 48.762-77.658 48.762-130.032v-372.035z" />
<glyph unicode="&#xe90e;" glyph-name="mail" horiz-adv-x="1252" d="M112.511 926.961c-36.219-9.454-70.524-43.995-80.061-80.61-2.869-11.016-3.237-56.909-3.237-403.904 0-352.254 0.334-392.612 3.329-402.81 11.176-38.049 41.851-68.477 81.181-80.53 12.006-3.679 33.064-3.837 512.277-3.837s500.271 0.158 512.277 3.837c35.995 11.031 65.47 38.505 78.711 73.37l4.755 12.52 0.549 393.181c0.6 430.088 1.321 402.949-11.426 429.578-7.653 15.987-35.084 43.439-51.036 51.074-26.744 12.801 10.875 11.968-534.79 11.836-464.551-0.112-499.74-0.366-512.529-3.705zM1134.778 867.25c18.931-10.487 29.688-27.973 30.29-49.238l0.335-11.857-246.226-210.321c-135.425-115.677-250.674-213.853-256.109-218.169-12.518-9.942-22.233-13.262-38.554-13.175-10.232 0.054-15.387 1.355-24.477 6.178-7.077 3.754-108.508 88.94-263.19 221.035l-251.675 214.927 0.988 12.975c1.903 24.97 18.337 45.785 41.418 52.456 4.463 1.29 186.755 1.902 501.552 1.685l494.54-0.343 11.108-6.153zM321.1 530.448c125.564-107.142 232.622-197.877 237.907-201.636 15.128-10.757 25.338-15.145 44.070-18.94 29.759-6.030 61.168-0.216 84.793 15.695 6.713 4.522 116.905 97.636 244.87 206.921l232.663 198.699 0.556-66.612c0.306-36.636 0.306-188.212 0-336.835l-0.556-270.223-5.865-11.945c-3.226-6.569-9.697-15.224-14.379-19.231-17.377-14.875 26.068-13.781-523.401-13.183l-495.515 0.539-8.614 4.607c-4.738 2.535-12.414 8.925-17.058 14.201-16.206 18.411-15.018-10.369-15.018 363.679 0 317.586 0.187 334.646 3.624 331.93 1.994-1.575 106.359-90.525 231.923-197.666z" />
<glyph unicode="&#xe90f;" glyph-name="phone" d="M174.080 933.512c-22.058-6.040-29.622-11.417-62.293-44.28-43.134-43.386-61.073-70.254-75.088-112.462-8.969-27.013-11.283-40.392-12.293-71.088-1.127-34.205 1.794-56.103 11.376-85.309 10.885-33.176 21.174-51.549 56.648-101.158 135.18-189.044 297.751-351.628 486.13-486.17 47.426-33.872 64.212-44.12 87.945-53.69 87.54-35.298 185.251-19.357 257.655 42.037 7.509 6.367 24.084 22.207 36.832 35.199 31.719 32.326 39.053 47.547 39.094 81.134 0.025 20.318-5.036 37.999-15.396 53.79-8.488 12.936-151.475 154.661-165.29 163.831-27.849 18.485-69.557 20.742-98.843 5.35-5.352-2.813-15.272-9.696-22.046-15.295-16.408-13.566-25.403-17.42-40.67-17.429-23.992-0.015-18.49-4.647-145.173 122.23-89.407 89.544-113.672 114.769-116.906 121.531-3.315 6.931-4.082 11.258-4.082 23.040 0 16.906 2.881 23.93 16.1 39.254 14.974 17.357 21.958 31.522 25.609 51.94 3.525 19.709 0.77 38.579-8.7 59.598-5.233 11.616-9.185 15.905-83.252 90.368-42.766 42.995-81.969 80.98-87.118 84.411-16.026 10.679-28.82 14.46-51.226 15.142-13.825 0.421-22.401-0.163-29.013-1.974zM222.894 884.812c11.209-5.364 153.625-146.985 159.516-158.625 2.774-5.482 4.105-11.661 4.65-21.586 0.665-12.119 0.225-15.080-3.424-23.040-2.303-5.024-8.54-14.122-13.861-20.218-29.595-33.908-34.31-79.696-12.066-117.164 4.764-8.023 34.139-38.314 125.059-128.954 111.353-111.012 119.573-118.82 130.609-124.056 37.321-17.708 80.13-11.864 111.103 15.166 14.686 12.816 25.898 17.647 40.96 17.647 22.848 0 23.040-0.148 102.193-78.682 38.533-38.232 71.71-71.433 73.727-73.78 10.312-11.999 14.963-31.743 11.096-47.101-1.118-4.441-4.725-12.129-8.014-17.085-7.562-11.392-54.987-55.952-70.257-66.011-34.825-22.943-71.533-33.687-114.718-33.578-24.972 0.063-40.801 2.585-63.147 10.060-21.451 7.176-38.557 16.607-70.22 38.718-205.181 143.272-377.209 316.46-517.695 521.184-12.874 18.761-27.083 48.41-31.489 65.706-12.705 49.874-7.549 100.326 14.865 145.471 10.61 21.37 22.412 36.608 51.076 65.944 30.413 31.125 38.19 35.569 60.41 34.517 7.397-0.35 14.139-1.907 19.627-4.533z" />
<glyph unicode="&#xe910;" glyph-name="search" d="M420.693 934.937c-53.275-4.649-105.036-19.296-155.306-43.948-130.467-63.98-219.987-185.986-242.389-330.349-3.75-24.164-5.178-80.861-2.688-106.667 14.762-152.955 107.403-286.975 244.795-354.137 143.357-70.076 308.001-59.031 440.602 29.558 13.442 8.981 20.271 14.175 43.938 33.42l5.036 4.095 100.953-100.719c55.524-55.395 102.852-101.974 105.172-103.508 2.415-1.595 7.683-2.789 12.314-2.789 14.845 0 25.467 14.066 21.589 28.587-1.416 5.301-19.296 24.014-104.159 109.008l-102.449 102.609 14.729 18.309c107.949 134.192 128.485 316.9 52.95 471.087-22.075 45.063-46.375 78.864-83.513 116.168-38.568 38.74-71.293 62.409-117.76 85.173-65.498 32.087-125.365 45.699-197.843 44.986-16.029-0.158-32.216-0.555-35.971-0.883zM518.827 885.695c126.555-19.49 235.722-98.898 293.193-213.268 27.573-54.873 39.289-102.425 40.84-165.759 1.228-50.112-2.982-83.709-15.799-126.081-41.771-138.097-158.44-244.066-299.461-271.996-56.388-11.168-119.639-9.758-173.36 3.865-68.416 17.349-127.932 50.573-178.5 99.646-65.994 64.042-104.966 141.581-117.71 234.191-3.318 24.115-2.825 79.956 0.927 104.96 10.485 69.883 38.824 135.419 82.655 191.147 13.9 17.673 50.090 52.892 68.575 66.736 56.321 42.179 122.071 69.28 187.706 77.37 25.245 3.111 27.498 3.206 60.587 2.571 17.93-0.344 40.438-1.856 50.347-3.382z" />
<glyph unicode="&#xe911;" glyph-name="telegram" horiz-adv-x="1138" d="M546.24 738.959c-299.91-121.441-545.505-220.821-545.766-220.842s-0.474-14.51-0.474-32.195v-32.154l6.164-1.757c40.961-11.68 304.474-94.181 306.013-95.807 1.619-1.711 46.35-143.606 95.010-301.388l4.533-14.699h79.213l63.199 64.514c35.378 36.114 64.245 64.112 65.577 63.601 1.308-0.502 61.667-44.469 134.13-97.706s132.878-96.793 134.256-96.793c2.339 0 50.828 18.201 51.624 19.378 0.2 0.295 44.605 208.365 98.678 462.376s98.66 462.813 99.083 464.006c0.619 1.742-43.257 40.811-45.358 40.388-0.324-0.066-245.972-99.48-545.882-220.922zM972.061 464.97c-47.49-222.716-86.562-405.606-86.826-406.423s-38.453 26.414-84.862 60.51l-269.388 197.917-39.564-53.571 23.142-17.052c-214.645 152.083-202.954 143.399-191.26 134.717l227.211-161.194 12.808-9.426-50.742-51.76c-29.725-30.323-51.24-50.867-51.945-49.604-3.010 5.394-79.534 254.187-78.785 256.14 0.466 1.213 104.021 63.815 230.124 139.118s230.875 138.082 232.828 139.509c3.356 2.454 2.642 4.11-13.146 30.485-10.493 17.53-17.59 27.547-19.105 26.966-1.325-0.509-108.381-64.214-237.9-141.568l-235.491-140.643-112.206 34.56c-61.713 19.008-113.205 35.092-114.426 35.742s210.874 87.407 471.322 192.794c260.448 105.386 473.77 190.736 474.049 189.666s-38.348-184.167-85.838-406.883z" />
<glyph unicode="&#xe912;" glyph-name="caret_top" d="M542.21 677.321l426.664-426.667c3.965-3.964 7.111-8.67 9.256-13.85s3.248-10.731 3.248-16.337c0-5.606-1.104-11.158-3.248-16.337s-5.291-9.886-9.256-13.85c-3.959-3.964-8.67-7.109-13.847-9.254-5.183-2.145-10.729-3.25-16.338-3.25-5.604 0-11.156 1.104-16.338 3.25-5.177 2.145-9.882 5.29-13.847 9.254l-396.48 396.533-396.48-396.533c-8.006-8.006-18.864-12.504-30.186-12.504s-22.181 4.498-30.187 12.504c-8.006 8.006-12.504 18.864-12.504 30.187s4.498 22.18 12.504 30.186l426.667 426.667c3.963 3.967 8.668 7.114 13.848 9.262s10.732 3.252 16.339 3.252c5.607 0 11.159-1.105 16.338-3.252s9.886-5.295 13.848-9.262z" />
<glyph unicode="&#xe913;" glyph-name="caret_bottom" d="M481.79 218.679l-426.664 426.667c-3.965 3.964-7.111 8.67-9.256 13.85s-3.248 10.731-3.248 16.337c0 5.606 1.104 11.158 3.248 16.337s5.291 9.886 9.256 13.85c3.959 3.964 8.67 7.109 13.847 9.254 5.183 2.145 10.729 3.25 16.338 3.25 5.604 0 11.156-1.104 16.338-3.25 5.177-2.145 9.882-5.29 13.847-9.254l396.48-396.533 396.48 396.533c8.006 8.006 18.864 12.504 30.186 12.504s22.181-4.498 30.187-12.504c8.006-8.006 12.504-18.864 12.504-30.187s-4.498-22.18-12.504-30.186l-426.667-426.667c-3.963-3.967-8.668-7.114-13.848-9.262s-10.732-3.252-16.339-3.252c-5.607 0-11.159 1.105-16.338 3.252s-9.886 5.295-13.848 9.262z" />
<glyph unicode="&#xe914;" glyph-name="caret_right" d="M741.321 417.79l-426.667-426.664c-3.964-3.965-8.67-7.111-13.85-9.256s-10.731-3.248-16.337-3.248c-5.606 0-11.158 1.104-16.337 3.248s-9.886 5.291-13.85 9.256c-3.964 3.959-7.109 8.67-9.254 13.847-2.145 5.183-3.25 10.729-3.25 16.338 0 5.604 1.104 11.156 3.25 16.338 2.145 5.177 5.29 9.882 9.254 13.847l396.533 396.48-396.533 396.48c-8.006 8.006-12.504 18.864-12.504 30.186s4.498 22.181 12.504 30.187c8.006 8.006 18.864 12.504 30.187 12.504s22.18-4.498 30.186-12.504l426.667-426.667c3.967-3.963 7.114-8.668 9.262-13.848s3.252-10.732 3.252-16.339c0-5.607-1.105-11.159-3.252-16.338s-5.295-9.886-9.262-13.848z" />
<glyph unicode="&#xe915;" glyph-name="caret_left" d="M282.679 478.21l426.667 426.664c3.964 3.965 8.67 7.111 13.85 9.256s10.731 3.248 16.337 3.248c5.606 0 11.158-1.104 16.337-3.248s9.886-5.291 13.85-9.256c3.964-3.959 7.109-8.67 9.254-13.847 2.145-5.183 3.25-10.729 3.25-16.338 0-5.604-1.104-11.156-3.25-16.338-2.145-5.177-5.29-9.882-9.254-13.847l-396.533-396.48 396.533-396.48c8.006-8.006 12.504-18.864 12.504-30.186s-4.498-22.181-12.504-30.187c-8.006-8.006-18.864-12.504-30.187-12.504s-22.18 4.498-30.186 12.504l-426.667 426.667c-3.967 3.963-7.114 8.668-9.262 13.848s-3.252 10.732-3.252 16.339c0 5.607 1.105 11.159 3.252 16.338s5.295 9.886 9.262 13.848z" />
<glyph unicode="&#xe916;" glyph-name="close" d="M512 533.197l-362.035 362.035-72.397-72.397 362.035-362.035-362.035-362.035 72.397-72.397 362.035 362.035 362.035-362.035 72.397 72.397-362.035 362.035 362.035 362.035-72.397 72.397-362.035-362.035z" />
</font>
</defs>
</svg>
